<svg xmlns="http://www.w3.org/2000/svg" viewBox="0 0 32.4 180"><title>15tooth</title><g class="Слой_2" data-name="Слой 2"><g class="Слой_1-2" data-name="Слой 1"><g class="_15" data-name="15"><path class="background" d="M0,0H32.4V180H0Z" style="fill:#9fdaff"/><path class="bone" d="M0,0H32.4V77H0Z" style="fill:#de82a7"/><path class="bridge" d="M0,152.1v-4l32.4-.2v4Zm32.4-26.2v-4L0,122.1v4Zm0-27v-4L0,95.1v4Z" style="fill:#3535ed"/><path class="root" d="M8,80.7a200.08,200.08,0,0,0,3.7-49.8,7.35,7.35,0,0,1,1-4.1c1.5-2.3,2.9-1.7,4.3,1.3,2.3,4.8,5,20.7,8.1,53.2" style="fill:#f8edc8;stroke:#292320;stroke-miterlimit:10;stroke-width:0.25px"/><path class="rootCanal" d="M18.9,74.7,15,74.2c-3.9,1.6-6.1,2.6-2.3-3.8,5.5-9.3,1.9-34.1.9-43.3a.88.88,0,0,1,1.7-.4c3.1,8.1,3.6,39.8,3.9,41.8l2.7,4.3a.71.71,0,0,1-.3,1l-2.2.8C19.2,74.7,19,74.8,18.9,74.7Z" style="fill:#3535ed"/><path class="implant" d="M23,38.6A1.9,1.9,0,0,0,22,37,15.23,15.23,0,0,0,9.8,37a1.39,1.39,0,0,0-.7.8l14,2.2Zm.1,2.9L8.8,39.2l-.1,2.5L23.1,44V41.5Zm.1,4L8.7,43.2l-.1,2.5L23.3,48Zm.1,4.1L8.5,47.3v2.4L23.4,52Zm.2,3.9-15-2.3-.1,2.5,15.2,2.4Zm.1,4.1L8.3,55.2l-.1,2.5,15.4,2.4V57.6Zm.1,5.1L8,60.3l-.1,2.5,15.8,2.5Zm.2,3L8,63.2l-.1,2.6h16Zm1.5,3a1.85,1.85,0,0,0-.2-.7.91.91,0,0,0-.7-.3H7.4a.91.91,0,0,0-.7.3,1.17,1.17,0,0,0-.2.7v1.9H25.4Zm.4,4.8a.94.94,0,0,0-1-1H6.8c-.2,0-.3.1-.4.1a1,1,0,0,0-.4.9v1.2a.94.94,0,0,0,1,1H25.1a1.08,1.08,0,0,0,1-1Z" style="fill:#3535ed"/><path class="rootMask" d="M8,80.7a200.08,200.08,0,0,0,3.7-49.8,7.35,7.35,0,0,1,1-4.1c1.5-2.3,2.9-1.7,4.3,1.3,2.3,4.8,5,20.7,8.1,53.2" style="fill:#f8edc8;stroke:#292320;stroke-miterlimit:10;stroke-width:0.25px"/><path class="coronaLingual" d="M11.6,142.4c3.5-2.9,7-1.8,10.6.5,6.4,2.6,9.2,6.9,6,13.6L23.4,168a5.7,5.7,0,0,1-2.5,2.8c-2.6,1.5-5.1,1.9-7.4,1.1a5.38,5.38,0,0,1-3.4-3.9,43.08,43.08,0,0,0-4.8-12,9.71,9.71,0,0,1,.2-8,5.26,5.26,0,0,1,1.6-2Z" style="fill:#fff;stroke:#000;stroke-miterlimit:10;stroke-width:0.5px"/><path class="coronaLingualIncisalDistal" d="M12.7,152.5v-11a7.63,7.63,0,0,0-1.1.8L7.2,146a6.52,6.52,0,0,0-1.6,2.1,9.76,9.76,0,0,0-1,4.4Z" style="fill:#3535ed"/><path class="coronaLingualIncisalMiddle" d="M22.2,152.5v-9.7h0c-3.1-2.1-6.3-3.2-9.5-1.3v11Z" style="fill:#3535ed"/><path class="coronaLingualIncisionMesial" d="M29.4,152.5c.6-4.5-2.2-7.6-7.2-9.7v9.7Z" style="fill:#3535ed"/><path class="coronaLingualMiddleDistal" d="M5.4,156a43.36,43.36,0,0,1,4.3,10.2h3V152.5h-8A10.39,10.39,0,0,0,5.4,156Z" style="fill:#3535ed"/><path class="coronaLingualMiddleMiddle" d="M12.7,152.5h9.5v13.8H12.7Z" style="fill:#3535ed"/><path class="coronaLingualMiddleMesial" d="M24.1,166.2l4.1-9.8a13.56,13.56,0,0,0,1.2-3.9H22.2v13.8l1.9-.1Z" style="fill:#3535ed"/><path class="coronaLingualCervicalDistal" d="M10.2,168a5,5,0,0,0,2.6,3.4v-5.2h-3C9.9,166.8,10.1,167.4,10.2,168Z" style="fill:#3535ed"/><path class="coronaLingualCervicalMiddle" d="M13.5,171.9c2.3.8,4.8.4,7.4-1.1a6.42,6.42,0,0,0,1.3-1v-3.6H12.7v5.3A2,2,0,0,0,13.5,171.9Z" style="fill:#3535ed"/><path class="coronaLingualCervicalMesial" d="M23.4,167.9l.7-1.7h-2v3.6A5,5,0,0,0,23.4,167.9Z" style="fill:#3535ed"/><path class="coronaLabial" d="M10.6,78c-5.1,6.4-7.3,13.1-6,20.2a14,14,0,0,0,6,6.7c2.7,1.6,5.2,1.7,7.4-.3a39.16,39.16,0,0,0,9.3-8.4A5.68,5.68,0,0,0,28,94a11.46,11.46,0,0,0-.9-6.3,18.16,18.16,0,0,1-1.4-3.9,10.59,10.59,0,0,0-4.3-6.6C17.9,75,14.3,75.5,10.6,78Z" style="fill:#fff;stroke:#000;stroke-miterlimit:10;stroke-width:0.5px"/><path class="coronaLabialIncisalDistal" d="M11.3,98v7.2a4.88,4.88,0,0,0-.7-.3,13.53,13.53,0,0,1-6-6.7V98Z" style="fill:#3535ed"/><path class="coronaLabialIncisalMiddle" d="M20.9,98v4.3a34.57,34.57,0,0,1-3.1,2.2c-2,1.8-4.2,1.8-6.7.7V98Z" style="fill:#3535ed"/><path class="coronaLabialIncisionMesial" d="M25.5,98a31.25,31.25,0,0,1-4.6,4.3V98Z" style="fill:#3535ed"/><path class="coronaLabialMiddleDistal" d="M6.7,84h4.5V98H4.5A22.58,22.58,0,0,1,6.7,84Z" style="fill:#3535ed"/><path class="coronaLabialMiddleMiddle" d="M11.2,84H21V98H11.2Z" style="fill:#3535ed"/><path class="coronaLabialMiddleMesial" d="M25.6,83.9a16.27,16.27,0,0,0,1.3,3.7,9.72,9.72,0,0,1,.9,6.3,5.68,5.68,0,0,1-.7,2.2A14.62,14.62,0,0,1,25.5,98H20.9V84l4.7-.1Z" style="fill:#3535ed"/><path class="coronaLabialCervicalDistal" d="M10.6,78l.7-.4V84H6.8A31.85,31.85,0,0,1,10.6,78Z" style="fill:#3535ed"/><path class="coronaLabialCervicalMiddle" d="M20.9,77v7H11.1V77.6C14.6,75.5,17.9,75.2,20.9,77Z" style="fill:#3535ed"/><path class="coronaLabialCervicalMesial" d="M21.2,77.2a10.59,10.59,0,0,1,4.3,6.6l.1.2H20.9V77Z" style="fill:#3535ed"/><path class="veneer" d="M10.5,100.1l1.6,1.2c2.3,1.8,2.4,2.2,1.4,4.9l-.7,1.8,1.2-1.5c1.8-2.3,2.2-2.4,4.9-1.4l1.8.7-1.6-1.2c-2.3-1.8-2.4-2.2-1.4-4.9l.7-1.8-1.2,1.6c-1.8,2.3-2.2,2.4-4.9,1.4Zm1.2-10.4,1.6,1.2c1.4,1.1,1.5,1.3.8,3l-.7,1.8,1.2-1.6c1.1-1.4,1.3-1.5,2.9-.8l1.8.7-1.6-1.2c-1.4-1.1-1.5-1.3-.8-2.9l.7-1.8-1.2,1.6c-1.1,1.4-1.3,1.5-2.9.8Zm10,2.6,1.6,1.2c1.4,1.1,1.5,1.3.8,2.9l-.7,1.8,1.2-1.6c1.1-1.4,1.3-1.5,2.9-.8l1.9.7-1.6-1.2c-1.4-1.1-1.5-1.3-.8-3l.7-1.8-1.2,1.6c-1.1,1.4-1.3,1.5-2.9.8Z" style="fill:#3535ed"/><path class="coronaTop" d="M11.6,119.2l-5.2-5.7a13.56,13.56,0,0,1,19.1.8l-5.7,5.2A5.74,5.74,0,0,0,11.6,119.2Zm8.2.3,5.7-5.2a13.56,13.56,0,0,1-.8,19.1h0l-5.2-5.7A5.92,5.92,0,0,0,19.8,119.5Zm-.4,8.2,5.2,5.7a13.56,13.56,0,0,1-19.1-.8h0l5.7-5.2A5.92,5.92,0,0,0,19.4,127.7Zm-7.8-8.5a5.83,5.83,0,0,0-.4,8.2l-5.7,5.2a13.56,13.56,0,0,1,.8-19.1Zm3.9-1.6a5.8,5.8,0,1,1-5.8,5.8A5.87,5.87,0,0,1,15.5,117.6Z" style="fill:none;stroke:#000;stroke-miterlimit:10"/><path class="coronaTopBuccal" d="M11.6,119.2l-5.2-5.7a13.56,13.56,0,0,1,19.1.8l-5.7,5.2A5.74,5.74,0,0,0,11.6,119.2Z" style="fill:#3535ed"/><path class="coronaTopMedial" d="M19.8,119.5l5.7-5.2a13.56,13.56,0,0,1-.8,19.1h0l-5.2-5.7A5.92,5.92,0,0,0,19.8,119.5Z" style="fill:#3535ed"/><path class="coronaTopLingual" d="M19.4,127.7l5.2,5.7a13.56,13.56,0,0,1-19.1-.8h0l5.7-5.2A5.92,5.92,0,0,0,19.4,127.7Z" style="fill:#3535ed"/><path class="coronaTopDistal" d="M11.6,119.2a5.83,5.83,0,0,0-.4,8.2l-5.7,5.2a13.56,13.56,0,0,1,.8-19.1Z" style="fill:#3535ed"/><path class="coronaTopOclusial" d="M15.5,117.6a5.8,5.8,0,1,1-5.8,5.8A5.87,5.87,0,0,1,15.5,117.6Z" style="fill:#3535ed"/><path class="silant" d="M7.6,131.5a19,19,0,0,0,6.9,1.2c5.8,0,9.2-2.2,9.2-5.4,0-2.7-2.2-4.2-6.4-5.4-3.2-.9-4.7-1.6-4.7-3.1,0-1.3,1.5-2.5,4.1-2.5a13.11,13.11,0,0,1,5,1l1.1-2.4a15.66,15.66,0,0,0-6-1.1c-5.3,0-8.4,2.4-8.4,5.3,0,2.2,2.1,4,6.5,5.1,3.3.9,4.5,1.8,4.5,3.3s-1.5,2.7-4.8,2.7a16.09,16.09,0,0,1-5.9-1.3Z" style="fill:#3535ed"/><path class="crown" d="M11.6,142.4c3.5-2.9,7-1.8,10.6.5,6.4,2.6,9.2,6.9,6,13.6L23.4,168a5.7,5.7,0,0,1-2.5,2.8c-2.6,1.5-5.1,1.9-7.4,1.1a5.38,5.38,0,0,1-3.4-3.9,43.08,43.08,0,0,0-4.8-12,9.71,9.71,0,0,1,.2-8,5.26,5.26,0,0,1,1.6-2ZM10.6,78c-5.1,6.4-7.3,13.1-6,20.2a14,14,0,0,0,6,6.7c2.7,1.6,5.2,1.7,7.4-.3a39.16,39.16,0,0,0,9.3-8.4A5.68,5.68,0,0,0,28,94a11.46,11.46,0,0,0-.9-6.3,18.16,18.16,0,0,1-1.4-3.9,10.59,10.59,0,0,0-4.3-6.6C17.9,75,14.3,75.5,10.6,78Zm9.2,41.5,5.7-5.2a13.56,13.56,0,0,0-19.1-.8l5.2,5.7A5.74,5.74,0,0,1,19.8,119.5Zm-.3,8.2,5.2,5.7h0a13.56,13.56,0,0,0,.8-19.1l-5.7,5.2A5.92,5.92,0,0,1,19.5,127.7Zm-8.3-.3-5.7,5.2h0a13.56,13.56,0,0,0,19.1.8l-5.2-5.7A5.92,5.92,0,0,1,11.2,127.4ZM6.3,113.5a13.56,13.56,0,0,0-.8,19.1l5.7-5.2a5.83,5.83,0,0,1,.4-8.2Zm3.4,9.9a5.8,5.8,0,1,0,5.8-5.8A5.87,5.87,0,0,0,9.7,123.4Z" style="fill:#fff;stroke:#000;stroke-miterlimit:10;stroke-width:0.5px"/><path class="braces" d="M14.6,88.4a2,2,0,0,0,1.1.2h1.2a3.55,3.55,0,0,0,1-.2h0v2.7a3.55,3.55,0,0,0-1-.2H15.7a4.25,4.25,0,0,0-1.1.2V88.4h0m4.6-3.9H18.1c-.4.1-.7.4-.6.8v.5c0,.4-.3.8-.6.8H15.8a.77.77,0,0,1-.7-.8v-.5a.76.76,0,0,0-.6-.8H13.4a.77.77,0,0,0-.7.8v3.8H0v1.3H12.7v3.8a.77.77,0,0,0,.7.8h1.1c.4-.1.7-.4.6-.8v-.6a.77.77,0,0,1,.7-.8H17a.64.64,0,0,1,.6.8v.5a.76.76,0,0,0,.6.8h1.1a.64.64,0,0,0,.6-.8V90.3H32.4V89H19.8V85.2a.73.73,0,0,0-.6-.7Z"/><path class="gum" d="M32.4,77h-9s-2-3-7-3-7,3-7,3H0" style="fill:none;stroke:#ffb900;stroke-linejoin:round;stroke-width:3px"/><path class="paradontit1" d="M32.4,77H26a4.41,4.41,0,0,1-3.6-1.8c-3.1-10.4-11.6-4.5-12,0A4.36,4.36,0,0,1,6.9,77H0" style="fill:none;stroke:#ff822e;stroke-linejoin:round;stroke-width:3px"/><path class="paradontit2" d="M32.4,77H28.9a4.51,4.51,0,0,1-3.7-2c-1.8-2.6-5.1-10.3-8.6-10.3s-6.5,7.4-8,10A4.54,4.54,0,0,1,4.7,77H0" style="fill:none;stroke:#f9610d;stroke-linejoin:round;stroke-width:3px"/><path class="paradontit3" d="M32.4,77H28.9a4.51,4.51,0,0,1-3.7-2c-1.8-2.6-5.5-16.3-9-16.3s-6.1,13.4-7.6,16A4.54,4.54,0,0,1,4.7,77H0" style="fill:none;stroke:#f9610d;stroke-linejoin:round;stroke-width:3px"/><path class="paradontit4" d="M32.4,77H30a4.5,4.5,0,0,1-4.4-3.4C24,67,22.4,53.1,16.4,53.1s-7,13.7-8.3,20.4A4.41,4.41,0,0,1,3.7,77H0" style="fill:none;stroke:#f75403;stroke-linejoin:round;stroke-width:3px"/><path class="periodontit" d="M13.9,17.9a4.5,4.5,0,1,1-4.5,4.5A4.55,4.55,0,0,1,13.9,17.9Z" style="fill:#3535ed"/></g></g></g></svg>