<svg xmlns="http://www.w3.org/2000/svg" viewBox="0 0 45.9 180"><title>18tooth</title><g class="Слой_2" data-name="Слой 2"><g class="Слой_1-2" data-name="Слой 1"><g class="_18" data-name="18"><path class="background" d="M0,0H45.9V180H0Z" style="fill:#9fdaff"/><path class="bone" d="M0,0H45.9V77H0Z" style="fill:#de82a7"/><path class="bridge" d="M0,99.5v-4l45.9-.2v4Zm45.9,52.9v-4L0,148.5v4Zm0-26v-4H0v4Z" style="fill:#3535ed"/><path class="root" d="M11.2,78.7a106.16,106.16,0,0,0,5.2-28.4,190.59,190.59,0,0,0,0-23.9c.1-5.3,1.8-8.5,7.2-6.5,4.7,3.1,6.9,9.5,7.5,18.3,1.3,15.6,4.3,29.7,9.9,41.6M16.5,50.2A92.11,92.11,0,0,1,10.3,29a7,7,0,0,1,.4-3.8c1.1-2.7,3.1-3.3,6-1.7" style="fill:#f8edc8;stroke:#292320;stroke-miterlimit:10;stroke-width:0.25px"/><path class="rootCanal" d="M31.1,78.4a1.66,1.66,0,0,0,1.2-2.1c-5.9-16.6-7.7-54.1-11.6-56.1-3.3-1.7,3.7,30,.3,56.2a2.09,2.09,0,0,0,1.2,2.1,19.06,19.06,0,0,0,3.4,1,1.73,1.73,0,0,0,1-.1C27.1,79.3,28.4,79,31.1,78.4Z" style="fill:#3535ed"/><path class="implant" d="M26.9,38.5a1.78,1.78,0,0,0-1-1.6,15.85,15.85,0,0,0-12.1,0,1.8,1.8,0,0,0-.8.9l14,2.1Zm.1,3L12.9,39.3l-.1,2.4L27.2,44Zm.2,4L12.7,43.2l-.1,2.4,14.6,2.3Zm.1,4L12.7,47.2v2.4l14.9,2.3Zm.1,4L12.5,51.2l-.1,2.4,15.1,2.3Zm.2,4.1L12.3,55.3l-.1,2.4,15.4,2.4Zm.2,5.1L12.3,60.3l-.2,2.5,15.7,2.4Zm0,3.1L12.1,63.3,12,66H27.9l-.1-.2Zm1.6,3a1,1,0,0,0-1-1h-17a1.49,1.49,0,0,0-.7.3.73.73,0,0,0-.2.6v2c.2,0,.3-.1.5-.1H29a.9.9,0,0,1,.5.1l-.1-1.9Zm.5,4.7a1,1,0,0,0-1-1H11c-.2,0-.3.1-.5.2a1.05,1.05,0,0,0-.5.9v1.2a1,1,0,0,0,1,1H29a1,1,0,0,0,1-1h0l-.1-1.3Z" style="fill:#3535ed"/><path class="rootMask" d="M11.2,78.7a106.16,106.16,0,0,0,5.2-28.4,190.59,190.59,0,0,0,0-23.9c.1-5.3,1.8-8.5,7.2-6.5,4.7,3.1,6.9,9.5,7.5,18.3,1.3,15.6,4.3,29.7,9.9,41.6M16.5,50.2A92.11,92.11,0,0,1,10.3,29a7,7,0,0,1,.4-3.8c1.1-2.7,3.1-3.3,6-1.7" style="fill:#f8edc8;stroke:#292320;stroke-miterlimit:10;stroke-width:0.25px"/><path class="coronaLingual" d="M34.1,170.2a25.64,25.64,0,0,1-21.5-.1,7.91,7.91,0,0,1-3.3-2.7,20.39,20.39,0,0,1-2.9-18.2,5.61,5.61,0,0,1,2.2-3.1,6.29,6.29,0,0,1,4.2-1.2,8.17,8.17,0,0,0,4.2-1.7,4,4,0,0,1,1.8-1c3.3-1.1,6.2-.7,8.6,1.3a2,2,0,0,0,1.4.6l4,.5a6.15,6.15,0,0,0,1.4-.1c4-1.2,6.5.2,7.5,4.3,1.6,6.1.1,12.3-3.9,18.4A9.65,9.65,0,0,1,34.1,170.2Z" style="fill:#fff;stroke:#000;stroke-miterlimit:10;stroke-width:0.5px"/><path class="coronaLingualIncisalDistal" d="M16,149.9v-6a8,8,0,0,1-3,.9A5.79,5.79,0,0,0,8.8,146a5.91,5.91,0,0,0-2.2,3.1c-.1.3-.1.6-.2.8Z" style="fill:#3535ed"/><path class="coronaLingualIncisalMiddle" d="M31.5,149.9v-5.5l-2.8-.3a3.51,3.51,0,0,1-1.4-.6c-2.4-2-5.2-2.4-8.5-1.3a4,4,0,0,0-1.8,1,4.44,4.44,0,0,1-1.1.8v6Z" style="fill:#3535ed"/><path class="coronaLingualIncisionMesial" d="M41.8,149.9c-.1-.4-.1-.8-.2-1.2-1-4.1-3.6-5.5-7.5-4.3a2.29,2.29,0,0,1-1.4.1l-1.2-.1v5.5Z" style="fill:#3535ed"/><path class="coronaLingualMiddleDistal" d="M7.3,163.6h8.5V149.8H6.2A20.43,20.43,0,0,0,7.3,163.6Z" style="fill:#3535ed"/><path class="coronaLingualMiddleMiddle" d="M15.8,149.9H31.6v13.8H15.8Z" style="fill:#3535ed"/><path class="coronaLingualMiddleMesial" d="M39.6,163.6a21.32,21.32,0,0,0,2.2-13.8H31.4v13.8Z" style="fill:#3535ed"/><path class="coronaLingualCervicalDistal" d="M9.4,167.3a7.91,7.91,0,0,0,3.3,2.7c1,.5,2.1.8,3.1,1.2v-7.6H7.4A16.49,16.49,0,0,0,9.4,167.3Z" style="fill:#3535ed"/><path class="coronaLingualCervicalMiddle" d="M31.4,171.1v-7.5H15.8v7.6A24.49,24.49,0,0,0,31.4,171.1Z" style="fill:#3535ed"/><path class="coronaLingualCervicalMesial" d="M34,170.1a8.11,8.11,0,0,0,3.6-3,39.72,39.72,0,0,0,2-3.5H31.4v7.5A13.89,13.89,0,0,0,34,170.1Z" style="fill:#3535ed"/><path class="coronaLabial" d="M9,82.7a8.35,8.35,0,0,1,2.7-4.6,5.18,5.18,0,0,1,3.8-.9l2.2.3a8.6,8.6,0,0,1,2.7.9c3.1,1.9,6.1,2.6,8.6,1.1a6.31,6.31,0,0,1,2.3-.8c3.5-.7,6.8-.5,9.6,1.1,4.7,4.4,5.2,10.4,1.2,18-1.9,4.5-4.4,6.6-7.4,6.7a7,7,0,0,1-4.9-2c-2.7-2.4-5.6-2.7-8.8-.3-3.9,2.4-7,2.2-9.2-1.5A22.79,22.79,0,0,1,9,82.7Zm14.8,9c.2,5,3.4,8.9,4.4,10l.9-.8A21.22,21.22,0,0,1,23.8,91.7Z" style="fill:#fff;stroke:#000;stroke-miterlimit:10;stroke-width:0.5px"/><path class="coronaLabialIncisalDistal" d="M18.1,98v5.6c-2.6.7-4.7-.1-6.3-2.9-.5-.9-1-1.8-1.4-2.7Z" style="fill:#3535ed"/><path class="coronaLabialIncisalMiddle" d="M35.4,98v6.5c-.3,0-.5.1-.8.1a7,7,0,0,1-4.9-2c-2.7-2.4-5.6-2.7-8.8-.3a10.76,10.76,0,0,1-2.9,1.3V98Z" style="fill:#3535ed"/><path class="coronaLabialIncisionMesial" d="M41.9,98c-1.7,4-3.9,6.1-6.5,6.5V98Z" style="fill:#3535ed"/><path class="coronaLabialMiddleDistal" d="M8.7,84H18V98H10.3A22.52,22.52,0,0,1,8.7,84Z" style="fill:#3535ed"/><path class="coronaLabialMiddleMiddle" d="M18,83.9H35.6V98H18Z" style="fill:#3535ed"/><path class="coronaLabialMiddleMesial" d="M43.7,84c1.7,3.8,1.1,8.4-1.7,13.9V98H35.5V84Z" style="fill:#3535ed"/><path class="coronaLabialCervicalDistal" d="M9,82.7a8.35,8.35,0,0,1,2.7-4.6,5.18,5.18,0,0,1,3.8-.9l2.2.3a.76.76,0,0,1,.4.1V84H8.7C8.8,83.6,8.9,83.1,9,82.7Z" style="fill:#3535ed"/><path class="coronaLabialCervicalMiddle" d="M20.3,78.5c3.1,1.9,6.1,2.6,8.6,1.1a6.31,6.31,0,0,1,2.3-.8,20.24,20.24,0,0,1,4.3-.4V84H18V77.6A9.17,9.17,0,0,1,20.3,78.5Z" style="fill:#3535ed"/><path class="coronaLabialCervicalMesial" d="M40.8,79.9A11.42,11.42,0,0,1,43.7,84H35.4V78.4A12.86,12.86,0,0,1,40.8,79.9Z" style="fill:#3535ed"/><path class="veneer" d="M19.2,95.7l2,1.6c3.1,2.4,3.2,2.8,1.8,6.5l-.9,2.4,1.6-2c2.4-3.1,2.8-3.2,6.5-1.8l2.4.9-2-1.6c-3.1-2.3-3.2-2.8-1.8-6.4l.9-2.4-1.6,2c-2.4,3.1-2.8,3.2-6.5,1.8Zm1.7-13.5,2,1.6c1.9,1.4,1.9,1.7,1.1,3.9L23,90l1.6-2c1.4-1.9,1.6-1.9,3.9-1.1l2.4.9-2-1.6c-1.9-1.5-1.9-1.7-1.1-3.9l.9-2.4-1.6,2c-1.4,1.9-1.7,1.9-3.9,1.1Zm13,3.3,2,1.6c1.9,1.4,1.9,1.7,1.1,3.9l-.9,2.4,1.6-2c1.4-1.9,1.7-1.9,3.9-1.1l2.4.9-2-1.6c-1.9-1.4-1.9-1.7-1.1-3.9l.9-2.4-1.6,2c-1.4,1.9-1.7,1.9-3.9,1.1ZM29.4,89a2,2,0,0,0-.6-1.4,2.51,2.51,0,0,0,1.9-.5,1.9,1.9,0,0,0,.5,1.9,2.51,2.51,0,0,0-1.9.5.75.75,0,0,0,.1-.5Zm-23,6.3,2.1,1.6c1.9,1.4,1.9,1.7,1.1,3.9l-.9,2.4,1.6-2.1c1.4-1.9,1.6-1.9,3.9-1.1l2.4.9-2-1.6c-1.9-1.4-1.9-1.7-1.1-3.9l.9-2.4-1.6,2c-1.4,1.9-1.7,1.9-3.9,1.1ZM1.5,85.5l2,1.6c1.9,1.4,1.9,1.7,1.1,3.9l-.9,2.4,1.6-2c1.4-1.9,1.7-2,3.9-1.2l2.4.9-2-1.6c-1.9-1.4-1.9-1.7-1.1-3.9l.9-2.4-1.6,2c-1.4,1.9-1.7,1.9-3.9,1.1ZM15.9,89a2,2,0,0,0-.6-1.4,2.51,2.51,0,0,0,1.9-.5,1.9,1.9,0,0,0,.5,1.9,2.51,2.51,0,0,0-1.9.5.75.75,0,0,0,.1-.5Z" style="fill:#3535ed"/><path class="coronaTop" d="M20.7,119.2l-5.2-5.7a13.56,13.56,0,0,1,19.1.8l-5.7,5.2A5.83,5.83,0,0,0,20.7,119.2Zm8.2.3,5.7-5.2a13.56,13.56,0,0,1-.8,19.1h0l-5.2-5.7A6.13,6.13,0,0,0,28.9,119.5Zm-.4,8.2,5.2,5.7a13.56,13.56,0,0,1-19.1-.8h0l5.7-5.2A5.92,5.92,0,0,0,28.5,127.7Zm-7.8-8.5a5.83,5.83,0,0,0-.4,8.2h0l-5.7,5.2a13.56,13.56,0,0,1,.8-19.1Zm3.9-1.6a5.8,5.8,0,1,1-5.8,5.8A5.8,5.8,0,0,1,24.6,117.6Z" style="fill:#fff;stroke:#000;stroke-miterlimit:10"/><path class="coronaTopBuccal" d="M20.7,119.2l-5.2-5.7a13.56,13.56,0,0,1,19.1.8l-5.7,5.2A5.83,5.83,0,0,0,20.7,119.2Z" style="fill:#3535ed"/><path class="coronaTopMedial" d="M28.9,119.5l5.7-5.2a13.56,13.56,0,0,1-.8,19.1h0l-5.2-5.7A6.13,6.13,0,0,0,28.9,119.5Z" style="fill:#3535ed"/><path class="coronaTopLingual" d="M28.5,127.7l5.2,5.7a13.56,13.56,0,0,1-19.1-.8h0l5.7-5.2A5.92,5.92,0,0,0,28.5,127.7Z" style="fill:#3535ed"/><path class="coronaTopDistal" d="M20.7,119.2a5.83,5.83,0,0,0-.4,8.2h0l-5.7,5.2a13.56,13.56,0,0,1,.8-19.1Z" style="fill:#3535ed"/><path class="coronaTopOclusial" d="M24.6,117.6a5.8,5.8,0,1,1-5.8,5.8A5.8,5.8,0,0,1,24.6,117.6Z" style="fill:#3535ed"/><path class="silant" d="M15.6,131.5a19,19,0,0,0,6.9,1.2c5.8,0,9.2-2.2,9.2-5.4,0-2.7-2.2-4.2-6.4-5.4-3.2-.9-4.7-1.6-4.7-3.1,0-1.3,1.5-2.5,4.1-2.5a13.11,13.11,0,0,1,5,1l1.1-2.4a15.66,15.66,0,0,0-6-1.1c-5.3,0-8.4,2.4-8.4,5.3,0,2.2,2.1,4,6.5,5.1,3.3.9,4.6,1.8,4.6,3.3s-1.5,2.7-4.8,2.7a16.09,16.09,0,0,1-5.9-1.3Z" style="fill:#3535ed"/><path class="crown" d="M34.1,170.2a25.64,25.64,0,0,1-21.5-.1,7.91,7.91,0,0,1-3.3-2.7,20.39,20.39,0,0,1-2.9-18.2,5.61,5.61,0,0,1,2.2-3.1,6.29,6.29,0,0,1,4.2-1.2,8.17,8.17,0,0,0,4.2-1.7,4,4,0,0,1,1.8-1c3.3-1.1,6.2-.7,8.6,1.3a2,2,0,0,0,1.4.6l4,.5a6.15,6.15,0,0,0,1.4-.1c4-1.2,6.5.2,7.5,4.3,1.6,6.1.1,12.3-3.9,18.4A9.65,9.65,0,0,1,34.1,170.2ZM11.8,100.7c2.2,3.7,5.3,3.9,9.2,1.5,3.2-2.4,6.1-2.1,8.8.3a7,7,0,0,0,4.9,2c3-.1,5.5-2.2,7.4-6.7,4-7.6,3.5-13.6-1.2-18-2.8-1.6-6.1-1.8-9.6-1.1a6.31,6.31,0,0,0-2.3.8c-2.5,1.5-5.5.8-8.6-1.1a8.6,8.6,0,0,0-2.7-.9l-2.2-.3a5.18,5.18,0,0,0-3.8.9A8.35,8.35,0,0,0,9,82.7,22.79,22.79,0,0,0,11.8,100.7Zm17.3.2-.9.8c-1-1.1-4.2-5-4.4-10A21.22,21.22,0,0,0,29.1,100.9Zm-.2,18.6,5.7-5.2a13.56,13.56,0,0,0-19.1-.8l5.2,5.7A5.83,5.83,0,0,1,28.9,119.5Zm-.3,8.2,5.2,5.7h0a13.56,13.56,0,0,0,.8-19.1l-5.7,5.2A6.13,6.13,0,0,1,28.6,127.7Zm-8.3-.3-5.7,5.2h0a13.56,13.56,0,0,0,19.1.8l-5.2-5.7A5.92,5.92,0,0,1,20.3,127.4Zm-4.9-13.9a13.56,13.56,0,0,0-.8,19.1l5.7-5.2h0a5.83,5.83,0,0,1,.4-8.2Zm3.4,9.9a5.8,5.8,0,1,0,5.8-5.8A5.8,5.8,0,0,0,18.8,123.4Z" style="fill:#fff;stroke:#000;stroke-miterlimit:10;stroke-width:0.5px"/><path class="braces" d="M21.3,88.4a2,2,0,0,0,1.1.2h1.2a3.55,3.55,0,0,0,1-.2h0v2.7a3.55,3.55,0,0,0-1-.2H22.4a4.25,4.25,0,0,0-1.1.2V88.4h0m4.6-3.9H24.8c-.4.1-.7.4-.6.8v.5c0,.4-.3.8-.6.8H22.5a.64.64,0,0,1-.6-.8v-.5a.76.76,0,0,0-.6-.8H20a.64.64,0,0,0-.6.8v3.8L0,89.3v1.3l19.3-.2v3.8c0,.4.3.8.6.8H21c.4-.1.7-.4.6-.8v-.6c0-.4.3-.8.6-.8h1.2a.64.64,0,0,1,.6.8v.5a.76.76,0,0,0,.6.8H26a.64.64,0,0,0,.6-.8V90.3H45.9V89H26.6V85.2a.84.84,0,0,0-.7-.7Z"/><path class="gum" d="M45.9,77c-1.5,0-3,.1-4.5.1a44.84,44.84,0,0,0-15.5,3.5c-4,2-7.1-6-17-3.5L.5,77" style="fill:none;stroke:#ffb900;stroke-linejoin:round;stroke-width:3px"/><path class="paradontit1" d="M45.9,77H41.4c-3.5,0-10.9-5.1-18.2-5.3-5-.1-9.7,4.1-13.7,5.1a5.16,5.16,0,0,1-1.1.2H.4" style="fill:none;stroke:#ff822e;stroke-linejoin:round;stroke-width:3px"/><path class="paradontit2" d="M45.9,77H41.4c-3.5,0-10.9-10.4-18.2-10.5-4.9-.1-9.6,9-13.7,10.4a5.85,5.85,0,0,1-1.3.2H.5" style="fill:none;stroke:#f9610d;stroke-linejoin:round;stroke-width:3px"/><path class="paradontit3" d="M45.9,77H41.4c-3.5,0-6-14.3-17.8-14.3S13.6,75.5,9.5,76.8a5.85,5.85,0,0,1-1.3.2H.4" style="fill:none;stroke:#f9610d;stroke-linejoin:round;stroke-width:3px"/><path class="paradontit4" d="M45.9,77H41.4c-3.5,0-2.3-20.3-17.3-19.3S13.4,71,11.1,73.9A4.51,4.51,0,0,1,6.9,77H0" style="fill:none;stroke:#f75403;stroke-linejoin:round;stroke-width:3px"/><path class="periodontit" d="M21,10.9a4.48,4.48,0,0,1,4.5,4.5,4.5,4.5,0,0,1-9,0A4.48,4.48,0,0,1,21,10.9Z" style="fill:#3535ed"/></g></g></g></svg>