<svg xmlns="http://www.w3.org/2000/svg" viewBox="0 0 36.3 179.99"><title>21tooth</title><g class="Слой_2" data-name="Слой 2"><g class="Слой_1-2" data-name="Слой 1"><g class="_21" data-name="21"><path class="background" d="M36.3,180H.4V0H36.3Z" style="fill:#9fdaff"/><path class="bone" d="M36.3,77.09H.4V0H36.3Z" style="fill:#de82a7"/><path class="bridge" d="M.4,151.69v-4l35.9.1v4Zm35.9-26v-4H.4v4Zm0-27v-4H.4v4Z" style="fill:#3535ed"/><path class="root" d="M8.8,75l5.7-38.1c0-.6.1-1.1.1-1.7.2-7,1.1-12.8,4.1-15.2,3.5-5.4,5.3-4.1,6,1.7a355.25,355.25,0,0,0,4.8,50.5" style="fill:#f8edc8;stroke:#292320;stroke-miterlimit:10;stroke-width:0.25px"/><path class="rootCanal" d="M15.8,63.39l.5-5.6c.3-1.4,1.4-28.5,4.4-40.3a.91.91,0,0,1,1.8.2c-.4,11.8-1.8,40.5.3,40.5,3.8,4.5,1.7,6-2.1,5h-.3l-3.7.9A.7.7,0,0,1,15.8,63.39Z" style="fill:#3535ed;stroke:#201600;stroke-miterlimit:10;stroke-width:0.25px"/><path class="implant" d="M11.6,40.09l14-2.2a1.39,1.39,0,0,0-.7-.8,15.23,15.23,0,0,0-12.2,0,1.9,1.9,0,0,0-1,1.6Zm0,4.1L26,41.89l-.1-2.5-14.3,2.3Zm-.2,3.9,14.7-2.3-.1-2.5-14.5,2.3Zm-.1,4,14.9-2.3v-2.4l-14.8,2.3Zm-.2,4.2,15.2-2.4-.1-2.5-15,2.3Zm0,4,15.4-2.4-.1-2.5-15.3,2.4Zm-.1,2.6v2.5L26.8,63l-.1-2.5L11,62.89Zm-.2,2.9h16l-.1-2.6-15.9,2.5Zm-1.6,4.9h19v-1.9a1.07,1.07,0,0,0-.2-.6.91.91,0,0,0-.7-.3H10.2a.91.91,0,0,0-.7.3,1.07,1.07,0,0,0-.2.6Zm-.5,4.1h0a1.08,1.08,0,0,0,1,1H27.8a.94.94,0,0,0,1-1v-1.2a1,1,0,0,0-.4-.9c-.1,0-.2-.1-.4-.1H9.9a.94.94,0,0,0-1,1Z" style="fill:#3535ed"/><path class="rootMask" d="M8.8,75l5.7-38.1c0-.6.1-1.1.1-1.7.2-7,1.1-12.8,4.1-15.2,3.5-5.4,5.3-4.1,6,1.7a355.25,355.25,0,0,0,4.8,50.5" style="fill:#f8edc8;stroke:#292320;stroke-miterlimit:10;stroke-width:0.25px"/><path class="coronaLingual" d="M20,176.59c-2,1.3-4.2,1.3-6.6-.7a10.57,10.57,0,0,1-3.3-4.5,109.54,109.54,0,0,1-6.5-23.2c-.7-4.4,1.4-6,5-6.2,6.8,0,13.7-.2,20.6.9,2.8.6,3.3,4.5,2.5,8.8a97.38,97.38,0,0,1-9.8,22.7A13,13,0,0,1,20,176.59Z" style="fill:#fff;stroke:#000;stroke-miterlimit:10;stroke-width:0.25px"/><path class="coronaLingualIncisalDistal" d="M32,148.59H22.5v-6.5a50.75,50.75,0,0,1,6.7.7C31.3,143.19,32.1,145.59,32,148.59Z" style="fill:#3535ed"/><path class="coronaLingualIncisalMiddle" d="M22.5,148.49H12.2v-6.7c3.4,0,6.8,0,10.3.2Z" style="fill:#3535ed"/><path class="coronaLingualIncisionMesial" d="M12.3,148.49H3.8l-.1-.5c-.7-4.4,1.4-6,5-6.2h3.6Z" style="fill:#3535ed"/><path class="coronaLingualMiddleDistal" d="M22.5,148.49l9.6-.1a29.09,29.09,0,0,1-.4,3.1c-1,3.2-2,6.3-3.2,9.3h-6v-12.3Z" style="fill:#3535ed"/><path class="coronaLingualMiddleMiddle" d="M22.5,160.79H12.2v-12.3H22.5Z" style="fill:#3535ed"/><path class="coronaLingualMiddleMesial" d="M12.2,148.49v12.3H6.5a100.06,100.06,0,0,1-2.9-12.3Z" style="fill:#3535ed"/><path class="coronaLingualCervicalDistal" d="M22.5,173.19v-12.4h6A88.68,88.68,0,0,1,22.5,173.19Z" style="fill:#3535ed"/><path class="coronaLingualCervicalMiddle" d="M12.2,160.79H22.6v12.4l-.6,1a8,8,0,0,1-2,2.1c-2,1.3-4.2,1.3-6.6-.7l-1.2-1.2v-13.6Z" style="fill:#3535ed"/><path class="coronaLingualCervicalMesial" d="M6.5,160.79l5.7-.1v13.8a10.32,10.32,0,0,1-2.1-3.3,98.38,98.38,0,0,1-3.6-10.4Z" style="fill:#3535ed"/><path class="coronaLabial" d="M3.6,92.49a140.16,140.16,0,0,0,5.8-20.4c2.4-5.7,6.5-8.6,10.5-8.6s7.8,2.8,9.6,8.6A78.44,78.44,0,0,0,33,84.69a19.86,19.86,0,0,1,1,10.5c-.8,4.2-2.8,7.1-5.5,8.1a29.87,29.87,0,0,1-8.2.9c-3.6,0-7.5-.3-11.6-.5a3.84,3.84,0,0,1-2.5-.9C3.4,100.59,2.5,97.19,3.6,92.49Z" style="fill:#fff;stroke:#000;stroke-miterlimit:10;stroke-width:0.5px"/><path class="coronaLabialIncisalDistal" d="M34.3,91.89a18.41,18.41,0,0,1-.3,3.3c-.8,4.2-2.8,7.1-5.5,8.1a20.54,20.54,0,0,1-3.4.7V91.89Z" style="fill:#3535ed"/><path class="coronaLabialIncisalMiddle" d="M25.1,91.89v12a73.85,73.85,0,0,1-13.3,0v-12Z" style="fill:#3535ed"/><path class="coronaLabialIncisionMesial" d="M11.8,91.89v12l-3.1-.2a3.84,3.84,0,0,1-2.5-.9c-2.8-2.2-3.7-5.6-2.6-10.3.1-.2.1-.4.2-.6Z" style="fill:#3535ed"/><path class="coronaLabialMiddleDistal" d="M34.3,92H25.1V81.29h6.7c.4,1.2.8,2.3,1.2,3.5A19.54,19.54,0,0,1,34.3,92Z" style="fill:#3535ed"/><path class="coronaLabialMiddleMiddle" d="M25.1,92H11.8V80.79H25.1Z" style="fill:#3535ed"/><path class="coronaLabialMiddleMesial" d="M11.8,92h-8c1.3-3.5,2.4-7.1,3.4-10.7h4.6Z" style="fill:#3535ed"/><path class="coronaLabialCervicalDistal" d="M31.8,81.29H25.2V65.49a13,13,0,0,1,4.3,6.7A71.3,71.3,0,0,0,31.8,81.29Z" style="fill:#3535ed"/><path class="coronaLabialCervicalMiddle" d="M25.2,81.19H11.9V68c3.8-4.8,9.2-5.7,13.3-2.5Z" style="fill:#3535ed"/><path class="coronaLabialCervicalMesial" d="M12,81.29H7.4a84.48,84.48,0,0,0,2.2-9,17.55,17.55,0,0,1,2.4-4.2Z" style="fill:#3535ed"/><path class="veneer" d="M30.5,93.59c-3.3,1.3-3.8,1.2-6-1.9L23,89.59l.9,2.4c1.3,3.6,1.1,4.1-1.7,6.5l-1.9,1.6,2.2-.9c3.3-1.3,3.8-1.2,6,1.9l1.5,2-.9-2.4c-1.2-3.6-1.1-4.1,1.7-6.5l1.9-1.6Zm-2.9-13.9c-2.1.9-2.4.8-3.7-1.1l-1.5-2.1.9,2.4c.8,2.2.7,2.4-1,3.9l-1.9,1.6,2.2-.9c2.1-.9,2.4-.8,3.7,1.1l1.5,2.1-.9-2.4c-.7-2.3-.6-2.5,1.1-4l1.9-1.6ZM2.3,94.59l2.3-1c2.1-.9,2.4-.8,3.7,1.1l1.5,2.1-.9-2.4c-.8-2.2-.7-2.4,1-3.9l1.9-1.6-2.3.9c-2.1.9-2.4.8-3.7-1.1l-1.5-2.1L5.2,89c.8,2.3.7,2.5-1,4l-1.9,1.6Z" style="fill:#3535ed"/><path class="coronaTop" d="M13.9,119.59l-5.7-5.2a13.56,13.56,0,0,1,19.1-.8l-5.2,5.7A5.83,5.83,0,0,0,13.9,119.59Zm0,0a5.83,5.83,0,0,0,.3,8.2L9,133.49a13.56,13.56,0,0,1-.8-19.1l5.7,5.2Zm8.6,7.9,5.7,5.2h0a13.56,13.56,0,0,1-19.1.8l5.2-5.7A5.92,5.92,0,0,0,22.5,127.49Zm4.9-13.9a13.56,13.56,0,0,1,.8,19.1l-5.7-5.2a5.83,5.83,0,0,0-.4-8.2Zm-4.5,12.9a5.78,5.78,0,1,1-2.1-7.9A5.74,5.74,0,0,1,22.9,126.49Z" style="fill:#fff;stroke:#000;stroke-miterlimit:10"/><path class="coronaTopBuccal" d="M13.9,119.59l-5.7-5.2a13.56,13.56,0,0,1,19.1-.8l-5.2,5.7A5.83,5.83,0,0,0,13.9,119.59Z" style="fill:#3535ed"/><path class="coronaTopMedial" d="M13.9,119.59a5.83,5.83,0,0,0,.3,8.2L9,133.49a13.56,13.56,0,0,1-.8-19.1l5.7,5.2Z" style="fill:#3535ed"/><path class="coronaTopLingual" d="M22.5,127.49l5.7,5.2h0a13.56,13.56,0,0,1-19.1.8l5.2-5.7A5.92,5.92,0,0,0,22.5,127.49Z" style="fill:#3535ed"/><path class="coronaTopDistal" d="M27.4,113.59a13.56,13.56,0,0,1,.8,19.1l-5.7-5.2a5.83,5.83,0,0,0-.4-8.2Z" style="fill:#3535ed"/><path class="coronaTopOclusial" d="M22.8,126.69a5.78,5.78,0,1,1-2.1-7.9A5.74,5.74,0,0,1,22.8,126.69Z" style="fill:#3535ed"/><path class="silant" d="M25.1,129a16.09,16.09,0,0,1-5.9,1.3c-3.3,0-4.8-1.2-4.8-2.7s1.2-2.4,4.5-3.3c4.4-1.1,6.5-2.9,6.5-5.1,0-2.9-3.1-5.3-8.4-5.3a15.66,15.66,0,0,0-6,1.1l1.1,2.4a13.11,13.11,0,0,1,5-1c2.6,0,4.1,1.2,4.1,2.5,0,1.5-1.5,2.2-4.7,3.1-4.2,1.2-6.4,2.7-6.4,5.4,0,3.2,3.4,5.4,9.2,5.4a19,19,0,0,0,6.9-1.2Z" style="fill:#3535ed"/><path class="crown" d="M20,176.59c-2,1.3-4.2,1.3-6.6-.7a10.57,10.57,0,0,1-3.3-4.5,109.54,109.54,0,0,1-6.5-23.2c-.7-4.4,1.4-6,5-6.2,6.8,0,13.7-.2,20.6.9,2.8.6,3.3,4.5,2.5,8.8a97.38,97.38,0,0,1-9.8,22.7A13,13,0,0,1,20,176.59ZM3.6,92.49c-1.1,4.7-.2,8.1,2.6,10.3a3.84,3.84,0,0,0,2.5.9c7.7.4,14.6,1.1,19.8-.4,2.7-1,4.7-3.9,5.5-8.1a19.86,19.86,0,0,0-1-10.5,78.44,78.44,0,0,1-3.5-12.6c-3.6-11.5-15.3-11.4-20.1,0A140.16,140.16,0,0,1,3.6,92.49Zm18.5,26.8,5.2-5.7a13.56,13.56,0,0,0-19.1.8l5.7,5.2A5.83,5.83,0,0,1,22.1,119.29Zm-8.2.3-5.7-5.2a13.56,13.56,0,0,0,.8,19.1l5.2-5.7a5.83,5.83,0,0,1-.3-8.2Zm.4,8.2-5.2,5.7a13.56,13.56,0,0,0,19.1-.8h0l-5.7-5.2A5.92,5.92,0,0,1,14.3,127.79Zm7.8-8.5a5.83,5.83,0,0,1,.4,8.2l5.7,5.2a13.56,13.56,0,0,0-.8-19.1Zm-1.3-.7a5.78,5.78,0,1,0,2.1,7.9A5.74,5.74,0,0,0,20.8,118.59Z" style="fill:#fff;stroke:#201600;stroke-miterlimit:10;stroke-width:0.25px"/><path class="braces" d="M20,88.49h0v2.7a4.25,4.25,0,0,0-1.1-.2H17.7a3.55,3.55,0,0,0-1,.2v-2.7h0a3.55,3.55,0,0,0,1,.2h1.2a2,2,0,0,0,1.1-.2m-4.6-3.9a1.14,1.14,0,0,0-.8.7v3.8H.4v1.3H14.6v3.8a.77.77,0,0,0,.7.8h1.1a.76.76,0,0,0,.6-.8v-.5a.64.64,0,0,1,.6-.8h1.2c.3,0,.6.4.6.8v.6c-.1.4.2.7.6.8h1.1c.3,0,.6-.4.6-.8v-3.8H36.3v-1.3H21.7v-3.8a.64.64,0,0,0-.6-.8H20a.76.76,0,0,0-.6.8v.5a.64.64,0,0,1-.6.8H17.7c-.3,0-.6-.4-.6-.8v-.5c.1-.4-.2-.7-.6-.8Z"/><path class="gum" d="M36.3,76.59H30.8S29,63,20,63,7.8,77.09,7.8,77.09H.4" style="fill:none;stroke:#ffb900;stroke-linejoin:round;stroke-width:3px"/><path class="paradontit1" d="M36.3,76.59H34.7A4.41,4.41,0,0,1,30.3,73c-1-5.2-5-13.9-11.4-13.9-6.6,0-8.8,9.5-10.3,14.7a4.39,4.39,0,0,1-4.3,3.3H.4" style="fill:none;stroke:#ff822e;stroke-linejoin:round;stroke-width:3px"/><path class="paradontit2" d="M36.3,76.59a3.74,3.74,0,0,1-3.7-3c-1.6-6.4-6.6-18.5-13.5-18.5S8.2,67.69,6.2,74a4.54,4.54,0,0,1-4.3,3.1H.4" style="fill:none;stroke:#f9610d;stroke-linejoin:round;stroke-width:3px"/><path class="paradontit3" d="M36.3,76.59a3.67,3.67,0,0,1-3.7-3c-1.6-6.4-6.6-23.8-13.5-23.8S8.2,67.69,6.2,74a4.54,4.54,0,0,1-4.3,3.1H.4" style="fill:none;stroke:#f9610d;stroke-linejoin:round;stroke-width:3px"/><path class="paradontit4" d="M36.3,76.59a3.66,3.66,0,0,1-3.6-3.2c-1.6-8.8-1-29.9-14-28.9S7.5,64.59,5.9,73.39a4.42,4.42,0,0,1-4.4,3.7H.4" style="fill:none;stroke:#f75403;stroke-linejoin:round;stroke-width:3px"/><path class="periodontit" d="M27.3,13.49A4.5,4.5,0,1,1,22.8,9,4.48,4.48,0,0,1,27.3,13.49Z" style="fill:#3535ed"/></g></g></g></svg>