<svg xmlns="http://www.w3.org/2000/svg" viewBox="0 0 33.9 180"><title>23tooth</title><g class="Слой_2" data-name="Слой 2"><g class="Слой_1-2" data-name="Слой 1"><g class="_23" data-name="23"><path class="background" d="M33.9,180H0V0H33.9Z" style="fill:#9fdaff"/><path class="bone" d="M33.9,77H0V0H33.9Z" style="fill:#de82a7"/><path class="bridge" d="M0,151.7v-4l33.9.1v4Zm33.9-25.9v-4L0,121.7v4Zm0-27v-4L0,94.7v4Z" style="fill:#3535ed"/><path class="root" d="M11.6,74,14,53.1,16.1,30c.4-9,.8-12.4,3.8-16.5a4.44,4.44,0,0,0,.8-1.1c.9-1.7,1.7-1.9,2.4,0a6.87,6.87,0,0,1,.2,3.2c-1.1,7-.4,11.4,1.1,20.3,2.4,14.6,3.4,28,2.5,39.6" style="fill:#f8edc8;stroke:#292320;stroke-miterlimit:10;stroke-width:0.25px"/><path class="rootCanal" d="M13.5,73.8c-.6-1.1,1.7-3.9,2.6-4.9a1.78,1.78,0,0,0,.4-1c.2-1.9-.1-18.8,1.2-33.5.5-4.9.3-10.5,1-14.3,1-5.3,3.3-12.7,3.2-7.4,0,.6-1.3,4-1.6,8a126.58,126.58,0,0,0,.1,13.1c-.4,13.8.5,27.8,3.2,37.2,3.6,6,.3,5-3.2,3.6a2.54,2.54,0,0,0-1.2-.2c-.7.1-2,.2-3.5.4A2.06,2.06,0,0,1,13.5,73.8Z" style="fill:#3535ed"/><path class="implant" d="M12.7,40l14-2.2A1.39,1.39,0,0,0,26,37a15.23,15.23,0,0,0-12.2,0,1.9,1.9,0,0,0-1,1.6Zm0,1.5V44l14.4-2.3L27,39.2,12.7,41.5ZM12.5,48l14.7-2.3-.1-2.5L12.6,45.5Zm-.1,4,14.9-2.3V47.3L12.5,49.6Zm-.2,4.1,15.2-2.4-.1-2.5-15,2.3Zm0,1.5v2.5l15.4-2.4-.1-2.5L12.2,57.6Zm-.1,7.5,15.8-2.4-.1-2.4L12.1,62.7Zm-.2.7h16l-.1-2.6L11.9,65.7Zm-1.4,4.7H29.3V68.6a1.17,1.17,0,0,0-.2-.7.91.91,0,0,0-.7-.3H11.3a.91.91,0,0,0-.7.3,1.85,1.85,0,0,0-.2.7Zm-.9,4.2h0a1.08,1.08,0,0,0,1,1H28.7a.94.94,0,0,0,1-1V73.5a1,1,0,0,0-.4-.9c-.1,0-.2-.1-.4-.1H10.8a.6.6,0,0,0-.4.1,1.49,1.49,0,0,0-.4.9Z" style="fill:#3535ed"/><path class="rootMask" d="M11.6,74,14,53.1,16.1,30c.4-9,.8-12.4,3.8-16.5a4.44,4.44,0,0,0,.8-1.1c.9-1.7,1.7-1.9,2.4,0a6.87,6.87,0,0,1,.2,3.2c-1.1,7-.4,11.4,1.1,20.3,2.4,14.6,3.4,28,2.5,39.6" style="fill:#f8edc8;stroke:#292320;stroke-miterlimit:10;stroke-width:0.25px"/><path class="coronaLingual" d="M13.9,173.5A35.85,35.85,0,0,1,8,161.6a16,16,0,0,1,0-11.8,25.3,25.3,0,0,1,5.7-7.7c2-2.1,4.3-2.1,7.8,0,2.1.9,3.7,3.3,6.3,6a7.16,7.16,0,0,1,2,3.6,13,13,0,0,1-.4,6.2c-1.6,4.6-2.9,9.1-5,13.4a8.31,8.31,0,0,1-3.2,3.5C18.9,176.1,16.4,175.8,13.9,173.5Z" style="fill:none"/><path class="coronaLingualIncisalDistal" d="M22.4,153.6H30a14.92,14.92,0,0,0-.2-2.1,7.16,7.16,0,0,0-2-3.6c-2.2-2.3-3.7-4.3-5.4-5.5v11.2Z" style="fill:#3535ed"/><path class="coronaLingualIncisalMiddle" d="M14.6,153.6h0l7.8-.1V142.3a4.05,4.05,0,0,0-.9-.5c-3.1-1.8-5.1-2.1-6.9-.8v12.6Z" style="fill:#3535ed"/><path class="coronaLingualIncisionMesial" d="M14.6,153.6V141a6.47,6.47,0,0,0-.9.8A27.05,27.05,0,0,0,8,149.5a14.65,14.65,0,0,0-1.1,4.1Z" style="fill:#3535ed"/><path class="coronaLingualMiddleDistal" d="M30,153.6H22.4v13.8H26c1.2-3.2,2.2-6.4,3.4-9.7A14,14,0,0,0,30,153.6Z" style="fill:#3535ed"/><path class="coronaLingualMiddleMiddle" d="M22.5,167.4H14.6v-14h7.9Z" style="fill:#3535ed"/><path class="coronaLingualMiddleMesial" d="M14.6,167.5V153.6H6.9A17,17,0,0,0,8,161.4a39.2,39.2,0,0,0,2.3,6Z" style="fill:#3535ed"/><path class="coronaLingualCervicalDistal" d="M26,167.4H22.4v6.4a10.52,10.52,0,0,0,2-2.7C25,169.8,25.5,168.6,26,167.4Z" style="fill:#3535ed"/><path class="coronaLingualCervicalMiddle" d="M22.4,173.8v-6.4H14.6v6.5c2.3,1.7,4.5,1.9,6.6.7C21.6,174.3,22,174.1,22.4,173.8Z" style="fill:#3535ed"/><path class="coronaLingualCervicalMesial" d="M14.6,173.8v-6.5H10.2a32.09,32.09,0,0,0,3.6,5.9A3.28,3.28,0,0,0,14.6,173.8Z" style="fill:#3535ed"/><path class="coronaLabial" d="M9.1,96.7a8.54,8.54,0,0,1-.9-7.3,57.81,57.81,0,0,0,2.7-13,8.44,8.44,0,0,1,4.7-6.8,7.3,7.3,0,0,1,5.8-.1,9.88,9.88,0,0,1,5.8,7.2,55.31,55.31,0,0,0,3.2,10.5c1.4,5.1.9,9.3-1.9,12.5C20.5,109.3,16.1,107.9,9.1,96.7Z" style="fill:none"/><path class="coronaLabialIncisalDistal" d="M29.7,98a5.67,5.67,0,0,1-1.2,1.8,36.31,36.31,0,0,1-4.9,4.7V98Z" style="fill:#3535ed"/><path class="coronaLabialIncisalMiddle" d="M23.7,98v6.5c-3.6,2.5-6.5,2.1-9.8-1.2V98Z" style="fill:#3535ed"/><path class="coronaLabialIncisionMesial" d="M13.9,98v5.3A35.64,35.64,0,0,1,9.8,98Z" style="fill:#3535ed"/><path class="coronaLabialMiddleDistal" d="M29.7,98H23.6V84h5.6c.4,1,.8,2.1,1.2,3.2C31.5,91.5,31.4,95.1,29.7,98Z" style="fill:#3535ed"/><path class="coronaLabialMiddleMiddle" d="M23.6,98H13.8V84h9.8Z" style="fill:#3535ed"/><path class="coronaLabialMiddleMesial" d="M13.9,83.9v14H9.8a10.54,10.54,0,0,1-.7-1.1,8.54,8.54,0,0,1-.9-7.3A49.45,49.45,0,0,0,9.7,84Z" style="fill:#3535ed"/><path class="coronaLabialCervicalDistal" d="M29.2,84H23.6V70.9a9.7,9.7,0,0,1,3.6,5.9A64.44,64.44,0,0,0,29.2,84Z" style="fill:#3535ed"/><path class="coronaLabialCervicalMiddle" d="M23.7,70.9V84H13.9V70.8a6.19,6.19,0,0,1,1.7-1.1,7.3,7.3,0,0,1,5.8-.1A7.55,7.55,0,0,1,23.7,70.9Z" style="fill:#3535ed"/><path class="coronaLabialCervicalMesial" d="M13.9,70.8V84H9.7c.5-2.3.9-4.8,1.2-7.4A8.68,8.68,0,0,1,13.9,70.8Z" style="fill:#3535ed"/><path class="veneer" d="M28.5,95.9c-2.7,1-3.1.9-4.9-1.4l-1.2-1.6.7,1.8c1,2.7.9,3.1-1.4,4.9l-1.6,1.2,1.9-.7c2.7-1,3.1-.9,4.9,1.4l1.2,1.5-.7-1.8c-1-2.7-.9-3.1,1.4-4.9l1.6-1.2ZM26.4,85.5c-1.7.7-1.9.6-3-.8l-1.2-1.6.7,1.8c.6,1.6.5,1.8-.9,2.9L20.4,89l1.9-.7c1.6-.7,1.8-.6,2.9.8l1.2,1.6-.7-1.8c-.7-1.7-.6-1.9.8-3l1.6-1.2ZM11.3,92.9c-1.7.7-1.9.6-3-.8L7.1,90.5l.7,1.8c.7,1.7.6,1.9-.8,3L5.4,96.5l1.9-.7c1.6-.7,1.8-.6,2.9.8l1.2,1.6-.7-1.8c-.7-1.6-.6-1.8.8-2.9l1.6-1.2Z" style="fill:#3535ed"/><path class="coronaTop" d="M15,119.5l-5.7-5.2a13.56,13.56,0,0,1,19.1-.8l-5.2,5.7A5.83,5.83,0,0,0,15,119.5Zm.3,8.2-5.2,5.7h0a13.56,13.56,0,0,1-.8-19.1l5.7,5.2A5.83,5.83,0,0,0,15.3,127.7Zm8.3-.3,5.7,5.2h0a13.56,13.56,0,0,1-19.1.8l5.2-5.7A5.92,5.92,0,0,0,23.6,127.4Zm4.9-13.9a13.56,13.56,0,0,1,.8,19.1l-5.7-5.2h0a5.83,5.83,0,0,0-.4-8.2Zm-3.4,9.9a5.8,5.8,0,1,1-5.8-5.8A5.8,5.8,0,0,1,25.1,123.4Z" style="fill:#fff;stroke:#000;stroke-miterlimit:10"/><path class="coronaTopBuccal" d="M15,119.5l-5.7-5.2a13.56,13.56,0,0,1,19.1-.8l-5.2,5.7A5.83,5.83,0,0,0,15,119.5Z" style="fill:#3535ed"/><path class="coronaTopMedial" d="M15.3,127.7l-5.2,5.7h0a13.56,13.56,0,0,1-.8-19.1l5.7,5.2A5.83,5.83,0,0,0,15.3,127.7Z" style="fill:#3535ed"/><path class="coronaTopLingual" d="M23.6,127.4l5.7,5.2h0a13.56,13.56,0,0,1-19.1.8l5.2-5.7A5.92,5.92,0,0,0,23.6,127.4Z" style="fill:#3535ed"/><path class="coronaTopDistal" d="M28.5,113.5a13.56,13.56,0,0,1,.8,19.1l-5.7-5.2h0a5.83,5.83,0,0,0-.4-8.2Z" style="fill:#3535ed"/><path class="coronaTopOclusial" d="M25.1,123.4a5.8,5.8,0,1,1-5.8-5.8A5.8,5.8,0,0,1,25.1,123.4Z" style="fill:#3535ed"/><path class="silant" d="M26.2,128.9a16.09,16.09,0,0,1-5.9,1.3c-3.3,0-4.8-1.2-4.8-2.7s1.2-2.4,4.5-3.3c4.4-1.1,6.5-2.9,6.5-5.1,0-2.9-3.1-5.3-8.4-5.3a15.66,15.66,0,0,0-6,1.1l1.1,2.4a13.11,13.11,0,0,1,5-1c2.6,0,4.1,1.2,4.1,2.5,0,1.5-1.5,2.2-4.7,3.1-4.2,1.2-6.4,2.7-6.4,5.4,0,3.2,3.4,5.4,9.2,5.4a19,19,0,0,0,6.9-1.2Z" style="fill:#3535ed"/><path class="crown" d="M13.9,173.5A35.85,35.85,0,0,1,8,161.6a16,16,0,0,1,0-11.8,25.3,25.3,0,0,1,5.7-7.7c2-2.1,4.3-2.1,7.8,0,2.1.9,3.7,3.3,6.3,6a7.16,7.16,0,0,1,2,3.6,13,13,0,0,1-.4,6.2c-1.6,4.6-2.9,9.1-5,13.4a8.31,8.31,0,0,1-3.2,3.5C18.9,176.1,16.4,175.8,13.9,173.5ZM28.5,99.7c2.8-3.2,3.3-7.4,1.9-12.5a55.31,55.31,0,0,1-3.2-10.5,9.88,9.88,0,0,0-5.8-7.2,7.3,7.3,0,0,0-5.8.1,8.44,8.44,0,0,0-4.7,6.8,57.81,57.81,0,0,1-2.7,13,8.54,8.54,0,0,0,.9,7.3C16.1,107.9,20.5,109.3,28.5,99.7Zm-5.3,19.5,5.2-5.7a13.56,13.56,0,0,0-19.1.8l5.7,5.2A5.83,5.83,0,0,1,23.2,119.2Zm-8.2.3-5.7-5.2a13.56,13.56,0,0,0,.8,19.1h0l5.2-5.7A5.83,5.83,0,0,1,15,119.5Zm.4,8.2-5.2,5.7a13.56,13.56,0,0,0,19.1-.8h0l-5.7-5.2A5.92,5.92,0,0,1,15.4,127.7Zm7.8-8.5a5.83,5.83,0,0,1,.4,8.2h0l5.7,5.2a13.56,13.56,0,0,0-.8-19.1Zm-3.9-1.6a5.8,5.8,0,1,0,5.8,5.8A5.8,5.8,0,0,0,19.3,117.6Z" style="fill:#fff;stroke:#201600;stroke-miterlimit:10;stroke-width:0.25px"/><path class="braces" d="M18.6,88.4h0v2.7a4.25,4.25,0,0,0-1.1-.2H16.3a3.55,3.55,0,0,0-1,.2V88.4h0a3.55,3.55,0,0,0,1,.2h1.2a2,2,0,0,0,1.1-.2M14,84.5c-.4.1-.7.4-.6.7V89L0,89.1v1.3l13.4-.1v3.8a.64.64,0,0,0,.6.8h1.1a.76.76,0,0,0,.6-.8v-.5a.64.64,0,0,1,.6-.8h1.2a.77.77,0,0,1,.7.8v.6c-.1.4.2.7.6.8h1.1a.77.77,0,0,0,.7-.8V90.4H33.9V89.1H20.6V85.3a.77.77,0,0,0-.7-.8H18.7a.76.76,0,0,0-.6.8v.5a.77.77,0,0,1-.7.8H16.3c-.3,0-.6-.4-.6-.8v-.5c.1-.4-.2-.7-.6-.8Z"/><path class="gum" d="M33.9,76.5H28s-3-8-9-8-10,8-10,8H0" style="fill:none;stroke:#ffb900;stroke-linejoin:round;stroke-width:3px"/><path class="paradontit1" d="M33.9,76.5H31.1A4.5,4.5,0,0,1,27,73.8c-1.2-2.8-3.6-8.4-7.5-8.4-4.1,0-7.6,6.2-9.3,9a4.41,4.41,0,0,1-3.8,2.1H0" style="fill:none;stroke:#ff822e;stroke-linejoin:round;stroke-width:3px"/><path class="paradontit2" d="M33.9,76.5s-3.7,0-4.6-2.2c-1.8-4.1-5.5-13.8-9.9-13.8s-8.8,10-10.8,14c-1,2-8.6,2-8.6,2" style="fill:none;stroke:#f9610d;stroke-linejoin:round;stroke-width:3px"/><path class="paradontit3" d="M33.9,76.5s-3.7,0-4.6-2.2c-1.8-4.1-5.4-18.5-9.8-18.5S10.6,70.5,8.6,74.5c-.8,1.5-3.5,2-4,2H0" style="fill:none;stroke:#f9610d;stroke-linejoin:round;stroke-width:3px"/><path class="paradontit4" d="M33.9,76.5c-2.1,0-3.7-.9-4.2-3C28.1,66.4,27.5,51,19.5,51S10.3,66.6,8.4,73.6C7.7,76.5,0,76.5,0,76.5" style="fill:none;stroke:#f75403;stroke-linejoin:round;stroke-width:3px"/><path class="periodontit" d="M26.4,7.4a4.5,4.5,0,1,1-4.5-4.5A4.48,4.48,0,0,1,26.4,7.4Z" style="fill:#3535ed"/></g></g></g></svg>