<svg xmlns="http://www.w3.org/2000/svg" viewBox="0 0 32.4 180"><title>25tooth</title><g class="Слой_2" data-name="Слой 2"><g class="Слой_1-2" data-name="Слой 1"><g class="_25" data-name="25"><path class="background" d="M32.4,180H0V0H32.4Z" style="fill:#9fdaff"/><path class="bone" d="M32.4,77H0V0H32.4Z" style="fill:#de82a7"/><path class="bridge" d="M0,151.9v-4l32.4.2v4Zm32.4-25.8v-4L0,121.9v4Zm0-27v-4L0,94.9v4Z" style="fill:#3535ed"/><path class="root" d="M7.3,81.3c3.1-32.5,5.8-48.4,8.1-53.2,1.4-3,2.8-3.6,4.3-1.3a7.35,7.35,0,0,1,1,4.1,200.08,200.08,0,0,0,3.7,49.8" style="fill:#f8edc8;stroke:#292320;stroke-miterlimit:10;stroke-width:0.25px"/><path class="rootCanal" d="M13,74.6l-2.2-.8a.71.71,0,0,1-.3-1l2.7-4.3c.3-2,.8-33.7,3.9-41.8a.88.88,0,0,1,1.7.4c-1,9.2-4.6,34,.9,43.3,3.8,6.4,1.6,5.4-2.3,3.8l-3.9.5C13.4,74.8,13.2,74.7,13,74.6Z" style="fill:#3535ed"/><path class="implant" d="M9.3,40l14-2.2a1.39,1.39,0,0,0-.7-.8,15.23,15.23,0,0,0-12.2,0,1.9,1.9,0,0,0-1,1.6Zm0,1.5V44l14.4-2.3-.1-2.5L9.3,41.5ZM9.1,48l14.7-2.3-.1-2.5L9.2,45.5ZM9,52l14.9-2.3V47.3L9.1,49.6Zm-.2,4.1L24,53.7l-.1-2.5-15,2.3Zm0,1.5v2.5l15.4-2.4-.1-2.5L8.8,57.6Zm-.1,7.7,15.8-2.5-.1-2.5L8.7,62.7Zm-.2.5h16l-.1-2.6L8.5,65.7ZM7,70.6H25.9V68.7a1.17,1.17,0,0,0-.2-.7.91.91,0,0,0-.7-.3H7.9a.91.91,0,0,0-.7.3,1.85,1.85,0,0,0-.2.7Zm-.7,4.1a1.08,1.08,0,0,0,1,1H25.4a.94.94,0,0,0,1-1V73.5a1,1,0,0,0-.4-.9c-.1,0-.2-.1-.4-.1H7.6a.94.94,0,0,0-1,1Z" style="fill:#3535ed"/><path class="rootMask" d="M7.3,81.3c3.1-32.5,5.8-48.4,8.1-53.2,1.4-3,2.8-3.6,4.3-1.3a7.35,7.35,0,0,1,1,4.1,200.08,200.08,0,0,0,3.7,49.8" style="fill:#f8edc8;stroke:#292320;stroke-miterlimit:10;stroke-width:0.25px"/><path class="coronaLingual" d="M25.3,146a5.26,5.26,0,0,1,1.6,2,9.71,9.71,0,0,1,.2,8,43.08,43.08,0,0,0-4.8,12,5.38,5.38,0,0,1-3.4,3.9c-2.3.8-4.8.4-7.4-1.1A5.7,5.7,0,0,1,9,168L4.2,156.5c-3.2-6.7-.4-11,6-13.6,3.6-2.3,7.1-3.4,10.6-.5Z" style="fill:#fff;stroke:#000;stroke-miterlimit:10;stroke-width:0.5px"/><path class="coronaLingualIncisalDistal" d="M27.8,152.5a9.76,9.76,0,0,0-1-4.4,6.52,6.52,0,0,0-1.6-2.1l-4.4-3.7a7.63,7.63,0,0,0-1.1-.8v11Z" style="fill:#3535ed"/><path class="coronaLingualIncisalMiddle" d="M19.7,152.5v-11c-3.2-1.9-6.4-.8-9.5,1.3h0v9.7Z" style="fill:#3535ed"/><path class="coronaLingualIncisionMesial" d="M10.2,152.5v-9.7c-5,2.1-7.8,5.2-7.2,9.7Z" style="fill:#3535ed"/><path class="coronaLingualMiddleDistal" d="M27.7,152.5h-8v13.7h3A43.36,43.36,0,0,1,27,156,10.39,10.39,0,0,0,27.7,152.5Z" style="fill:#3535ed"/><path class="coronaLingualMiddleMiddle" d="M19.7,166.3H10.2V152.5h9.5Z" style="fill:#3535ed"/><path class="coronaLingualMiddleMesial" d="M8.3,166.2l1.9.1V152.5H3a13.56,13.56,0,0,0,1.2,3.9l4.1,9.8Z" style="fill:#3535ed"/><path class="coronaLingualCervicalDistal" d="M22.6,166.2h-3v5.2a5,5,0,0,0,2.6-3.4C22.3,167.4,22.5,166.8,22.6,166.2Z" style="fill:#3535ed"/><path class="coronaLingualCervicalMiddle" d="M19.7,171.5v-5.3H10.2v3.6a6.42,6.42,0,0,0,1.3,1c2.6,1.5,5.1,1.9,7.4,1.1A2,2,0,0,0,19.7,171.5Z" style="fill:#3535ed"/><path class="coronaLingualCervicalMesial" d="M10.3,169.8v-3.6h-2l.7,1.7A5,5,0,0,0,10.3,169.8Z" style="fill:#3535ed"/><path class="coronaLabial" d="M11,77.2a10.59,10.59,0,0,0-4.3,6.6,18.16,18.16,0,0,1-1.4,3.9A11.46,11.46,0,0,0,4.4,94a5.68,5.68,0,0,0,.7,2.2,39.16,39.16,0,0,0,9.3,8.4c2.2,2,4.7,1.9,7.4.3a14,14,0,0,0,6-6.7c1.3-7.1-.9-13.8-6-20.2C18.1,75.5,14.5,75,11,77.2Z" style="fill:#fff;stroke:#000;stroke-miterlimit:10;stroke-width:0.5px"/><path class="coronaLabialIncisalDistal" d="M27.8,98v.2a13.53,13.53,0,0,1-6,6.7,4.88,4.88,0,0,0-.7.3V98Z" style="fill:#3535ed"/><path class="coronaLabialIncisalMiddle" d="M21.3,98v7.2c-2.5,1.1-4.7,1.1-6.7-.7a34.57,34.57,0,0,1-3.1-2.2V98Z" style="fill:#3535ed"/><path class="coronaLabialIncisionMesial" d="M11.5,98v4.3A31.25,31.25,0,0,1,6.9,98Z" style="fill:#3535ed"/><path class="coronaLabialMiddleDistal" d="M27.9,98H21.2V84h4.5A22.58,22.58,0,0,1,27.9,98Z" style="fill:#3535ed"/><path class="coronaLabialMiddleMiddle" d="M21.2,98H11.4V84h9.8Z" style="fill:#3535ed"/><path class="coronaLabialMiddleMesial" d="M6.8,83.9h0l4.7.1V98H6.9a14.62,14.62,0,0,1-1.6-1.9,5.68,5.68,0,0,1-.7-2.2,9.72,9.72,0,0,1,.9-6.3,16.27,16.27,0,0,0,1.3-3.7Z" style="fill:#3535ed"/><path class="coronaLabialCervicalDistal" d="M25.6,84H21.1V77.6l.7.4A31.85,31.85,0,0,1,25.6,84Z" style="fill:#3535ed"/><path class="coronaLabialCervicalMiddle" d="M21.3,77.6V84H11.5V77C14.5,75.2,17.8,75.5,21.3,77.6Z" style="fill:#3535ed"/><path class="coronaLabialCervicalMesial" d="M11.5,77v7H6.8l.1-.2a10.59,10.59,0,0,1,4.3-6.6Z" style="fill:#3535ed"/><path class="veneer" d="M20.1,100.9c-2.7,1-3.1.9-4.9-1.4L14,97.9l.7,1.8c1,2.7.9,3.1-1.4,4.9l-1.6,1.2,1.8-.7c2.7-1,3.1-.9,4.9,1.4l1.2,1.5-.7-1.8c-1-2.7-.9-3.1,1.4-4.9l1.6-1.2ZM18.9,90.5c-1.6.7-1.8.6-2.9-.8l-1.2-1.6.7,1.8c.7,1.6.6,1.8-.8,2.9L13.1,94l1.8-.7c1.6-.7,1.8-.6,2.9.8L19,95.7l-.7-1.8c-.7-1.7-.6-1.9.8-3l1.6-1.2ZM8.8,92.9c-1.6.7-1.8.6-2.9-.8L4.7,90.5l.7,1.8c.7,1.7.6,1.9-.8,3L3,96.5l1.9-.7c1.6-.7,1.8-.6,2.9.8L9,98.2l-.7-1.8c-.7-1.6-.6-1.8.8-2.9l1.6-1.2Z" style="fill:#3535ed"/><path class="coronaTop" d="M12.6,119.5l-5.7-5.2a13.56,13.56,0,0,1,19.1-.8l-5.2,5.7A5.74,5.74,0,0,0,12.6,119.5Zm.3,8.2-5.2,5.7h0a13.56,13.56,0,0,1-.8-19.1l5.7,5.2A5.92,5.92,0,0,0,12.9,127.7Zm8.3-.3,5.7,5.2h0a13.56,13.56,0,0,1-19.1.8l5.2-5.7A5.92,5.92,0,0,0,21.2,127.4Zm4.9-13.9a13.56,13.56,0,0,1,.8,19.1l-5.7-5.2a5.83,5.83,0,0,0-.4-8.2Zm-3.4,9.9a5.8,5.8,0,1,1-5.8-5.8A5.87,5.87,0,0,1,22.7,123.4Z" style="fill:none;stroke:#000;stroke-miterlimit:10"/><path class="coronaTopBuccal" d="M12.6,119.5l-5.7-5.2a13.56,13.56,0,0,1,19.1-.8l-5.2,5.7A5.74,5.74,0,0,0,12.6,119.5Z" style="fill:#3535ed"/><path class="coronaTopMedial" d="M12.9,127.7l-5.2,5.7h0a13.56,13.56,0,0,1-.8-19.1l5.7,5.2A5.92,5.92,0,0,0,12.9,127.7Z" style="fill:#3535ed"/><path class="coronaTopLingual" d="M21.2,127.4l5.7,5.2h0a13.56,13.56,0,0,1-19.1.8l5.2-5.7A5.92,5.92,0,0,0,21.2,127.4Z" style="fill:#3535ed"/><path class="coronaTopDistal" d="M26.1,113.5a13.56,13.56,0,0,1,.8,19.1l-5.7-5.2a5.83,5.83,0,0,0-.4-8.2Z" style="fill:#3535ed"/><path class="coronaTopOclusial" d="M22.7,123.4a5.8,5.8,0,1,1-5.8-5.8A5.87,5.87,0,0,1,22.7,123.4Z" style="fill:#3535ed"/><path class="silant" d="M23.7,128.9a16.09,16.09,0,0,1-5.9,1.3c-3.3,0-4.8-1.2-4.8-2.7s1.2-2.4,4.5-3.3c4.4-1.1,6.5-2.9,6.5-5.1,0-2.9-3.1-5.3-8.4-5.3a15.66,15.66,0,0,0-6,1.1l1.1,2.4a13.11,13.11,0,0,1,5-1c2.6,0,4.1,1.2,4.1,2.5,0,1.5-1.5,2.2-4.7,3.1-4.2,1.2-6.4,2.7-6.4,5.4,0,3.2,3.4,5.4,9.2,5.4a19,19,0,0,0,6.9-1.2Z" style="fill:#3535ed"/><path class="crown" d="M25.3,146a5.26,5.26,0,0,1,1.6,2,9.71,9.71,0,0,1,.2,8,43.08,43.08,0,0,0-4.8,12,5.38,5.38,0,0,1-3.4,3.9c-2.3.8-4.8.4-7.4-1.1A5.7,5.7,0,0,1,9,168L4.2,156.5c-3.2-6.7-.4-11,6-13.6,3.6-2.3,7.1-3.4,10.6-.5ZM11,77.2a10.59,10.59,0,0,0-4.3,6.6,18.16,18.16,0,0,1-1.4,3.9A11.46,11.46,0,0,0,4.4,94a5.68,5.68,0,0,0,.7,2.2,39.16,39.16,0,0,0,9.3,8.4c2.2,2,4.7,1.9,7.4.3a14,14,0,0,0,6-6.7c1.3-7.1-.9-13.8-6-20.2C18.1,75.5,14.5,75,11,77.2Zm9.8,42,5.2-5.7a13.56,13.56,0,0,0-19.1.8l5.7,5.2A5.74,5.74,0,0,1,20.8,119.2Zm-8.2.3-5.7-5.2a13.56,13.56,0,0,0,.8,19.1h0l5.2-5.7A5.92,5.92,0,0,1,12.6,119.5Zm.4,8.2-5.2,5.7a13.56,13.56,0,0,0,19.1-.8h0l-5.7-5.2A5.92,5.92,0,0,1,13,127.7Zm7.8-8.5a5.83,5.83,0,0,1,.4,8.2l5.7,5.2a13.56,13.56,0,0,0-.8-19.1Zm-3.9-1.6a5.8,5.8,0,1,0,5.8,5.8A5.87,5.87,0,0,0,16.9,117.6Z" style="fill:#fff;stroke:#000;stroke-miterlimit:10;stroke-width:0.5px"/><path class="braces" d="M17.8,88.4h0v2.7a4.25,4.25,0,0,0-1.1-.2H15.5a3.55,3.55,0,0,0-1,.2V88.4h0a3.55,3.55,0,0,0,1,.2h1.2a2,2,0,0,0,1.1-.2m-4.6-3.9a.73.73,0,0,0-.6.7V89H0v1.3H12.5v3.8a.64.64,0,0,0,.6.8h1.1a.76.76,0,0,0,.6-.8v-.5a.64.64,0,0,1,.6-.8h1.2a.77.77,0,0,1,.7.8v.6c-.1.4.2.7.6.8H19a.77.77,0,0,0,.7-.8V90.4H32.4V89.1H19.7V85.3a.77.77,0,0,0-.7-.8H17.9a.76.76,0,0,0-.6.8v.5a.77.77,0,0,1-.7.8H15.5c-.3,0-.6-.4-.6-.8v-.5c.1-.4-.2-.7-.6-.8Z"/><path class="gum" d="M32.4,77H23s-2-3-7-3-7,3-7,3H0" style="fill:none;stroke:#ffb900;stroke-linejoin:round;stroke-width:3px"/><path class="paradontit1" d="M32.4,77H25.5A4.36,4.36,0,0,1,22,75.2c-.4-4.5-8.9-10.4-12,0A4.41,4.41,0,0,1,6.4,77H0" style="fill:none;stroke:#ff822e;stroke-linejoin:round;stroke-width:3px"/><path class="paradontit2" d="M32.4,77H27.7a4.54,4.54,0,0,1-3.9-2.3c-1.5-2.6-4.5-10-8-10S9,72.4,7.2,75a4.51,4.51,0,0,1-3.7,2H0" style="fill:none;stroke:#f9610d;stroke-linejoin:round;stroke-width:3px"/><path class="paradontit3" d="M32.4,77H27.7a4.54,4.54,0,0,1-3.9-2.3c-1.5-2.6-4.1-16-7.6-16S9,72.4,7.2,75a4.51,4.51,0,0,1-3.7,2H0" style="fill:none;stroke:#f9610d;stroke-linejoin:round;stroke-width:3px"/><path class="paradontit4" d="M32.4,77H28.7a4.41,4.41,0,0,1-4.4-3.5C23,66.8,22,53.1,16,53.1S8.4,67,6.8,73.6A4.5,4.5,0,0,1,2.4,77H0" style="fill:none;stroke:#f75403;stroke-linejoin:round;stroke-width:3px"/><path class="periodontit" d="M23,22.4a4.5,4.5,0,1,1-4.5-4.5A4.55,4.55,0,0,1,23,22.4Z" style="fill:#3535ed"/></g></g></g></svg>