<svg xmlns="http://www.w3.org/2000/svg" viewBox="0 0 46.4 180"><title>26tooth</title><g class="Слой_2" data-name="Слой 2"><g class="Слой_1-2" data-name="Слой 1"><g class="_26" data-name="26"><path class="background" d="M46.4,180H0V0H46.4Z" style="fill:#9fdaff"/><path class="bone" d="M46.4,77H0V0H46.4Z" style="fill:#de82a7"/><path class="bridge" d="M0,152.1v-4l46.4.1v4Zm46.4-25.9v-4L0,122.1v4Zm0-27v-4L0,95.1v4Z" style="fill:#3535ed"/><path class="root" d="M41.4,79.8c-8.5-9.6-7.1-29-2.1-52.1a4.88,4.88,0,0,0-1.2-4.8,2.45,2.45,0,0,0-3.6,0,6.18,6.18,0,0,0-2.2,4.7,52.07,52.07,0,0,1-6.5,23.5l-6.1-.2c-4-6-5.4-14.2-5.5-23.7a4.84,4.84,0,0,0-1.6-3.6c-1.5-1.2-2.9-.5-4,2.3-2.3,7.7,0,30.9,1.4,51m15.7-26-6.1-.2L15.3,39.4a84.4,84.4,0,0,1,7.4-22.6c1.5-2.1,2.8-2.5,3.7-.8a4.24,4.24,0,0,1,.3,2.7c-1.9,9-1.5,17.4,2.3,25" style="fill:#f8edc8;stroke:#292320;stroke-miterlimit:10;stroke-width:0.25px"/><path class="rootCanal" d="M24.3,75.8h-.1a18.86,18.86,0,0,0-6.1-.3l-2.1.3c-2.9.5-3.1.2-3.1.2h0a53.84,53.84,0,0,1-1.8-12c-.2-3.4-1.2-33.1-1.3-40a.9.9,0,0,1,1.8-.1c1,10.7,2.4,35.4,4.3,44.1,2.3,10.3,2.2.2,2.7-2.6s2.4-54.2,6.8-49c0,5.6-5.2,41.2-.2,54.7C27.9,81.5,33.3,20,37.9,23.3c0,0-9,39.5-4.6,51.7A1.3,1.3,0,0,1,32,76.8,26.3,26.3,0,0,1,24.3,75.8Z" style="fill:#3535ed"/><path class="implant" d="M16.8,38.6l.1,1.4,13.9-2.2A2,2,0,0,0,30,37a15.23,15.23,0,0,0-12.2,0,1.78,1.78,0,0,0-1,1.6Zm-.3,5.3,14.4-2.2-.1-2.4L16.6,41.5Zm0,4.1,14.6-2.3L31,43.3,16.5,45.6Zm-.4,4L31,49.6l-.1-2.4L16.3,49.5Zm0,4,15.2-2.4-.1-2.4-15,2.4Zm0,1.6.1,2.4,15.4-2.4-.1-2.4L16.1,57.6Zm-.2,7.5,15.8-2.4-.1-2.4L16,62.7Zm-.1.8h16l-.1-2.6L15.8,65.7Zm-1.6,2.9.1,2c0-.1.2-.1.4-.1H32.8c0,.1.2.1.4.1v-2a.84.84,0,0,0-.2-.7.75.75,0,0,0-.7-.4H15.1a.75.75,0,0,0-.7.4,1.85,1.85,0,0,0-.2.7Zm-.8,5.9a1.08,1.08,0,0,0,1,1H32.5a.94.94,0,0,0,1-1V73.5a.91.91,0,0,0-.4-.8c0-.1-.2-.2-.4-.2H14.6c-.1,0-.2.1-.4.2a.89.89,0,0,0-.4.8Z" style="fill:#3535ed"/><path class="rootMask" d="M41.4,79.8c-8.5-9.6-7.1-29-2.1-52.1a4.88,4.88,0,0,0-1.2-4.8,2.45,2.45,0,0,0-3.6,0,6.18,6.18,0,0,0-2.2,4.7,52.07,52.07,0,0,1-6.5,23.5l-6.1-.2c-4-6-5.4-14.2-5.5-23.7a4.84,4.84,0,0,0-1.6-3.6c-1.5-1.2-2.9-.5-4,2.3-2.3,7.7,0,30.9,1.4,51m15.7-26-6.1-.2L15.3,39.4a84.4,84.4,0,0,1,7.4-22.6c1.5-2.1,2.8-2.5,3.7-.8a4.24,4.24,0,0,1,.3,2.7c-1.9,9-1.5,17.4,2.3,25" style="fill:#f8edc8;stroke:#292320;stroke-miterlimit:10;stroke-width:0.25px"/><path class="coronaLingual" d="M35.2,168.8c6.2-4.8,10.1-10.7,8.2-17.6-.8-3-4.6-5.7-7.2-7a9.25,9.25,0,0,0-7.8-.1c-1.5.5-2.9.5-3.9-.6a5.72,5.72,0,0,0-1.6-1.1,10.12,10.12,0,0,0-10.1,0l-3.3,1a2,2,0,0,1-1.3.1c-2.8-.6-4.8.7-5.6,5.1,0,7.1,1.4,13.2,4.7,17.6a4.55,4.55,0,0,0,3.6,1.8,95.2,95.2,0,0,1,17.6,2.2A8.91,8.91,0,0,0,35.2,168.8Z" style="fill:#fff;stroke:#000;stroke-miterlimit:10;stroke-width:0.5px"/><path class="coronaLingualIncisalDistal" d="M42.5,149a17.34,17.34,0,0,0-6.3-5.1,8,8,0,0,0-4.3-.9v6Z" style="fill:#3535ed"/><path class="coronaLingualIncisalMiddle" d="M32,149.1v-6a10.5,10.5,0,0,0-3.5.8c-1.5.5-2.9.5-3.9-.6a5.72,5.72,0,0,0-1.6-1.1,10.64,10.64,0,0,0-7.8-1V149Z" style="fill:#3535ed"/><path class="coronaLingualIncisionMesial" d="M2.7,149H15.2v-7.8a9.43,9.43,0,0,0-2.3,1l-3.3,1a2,2,0,0,1-1.3.1c-2.8-.6-4.8.7-5.6,5.1v.6Z" style="fill:#3535ed"/><path class="coronaLingualMiddleDistal" d="M43.4,150.9a6.63,6.63,0,0,0-.9-1.9H31.9v13.8h9C43.4,159.3,44.6,155.3,43.4,150.9Z" style="fill:#3535ed"/><path class="coronaLingualMiddleMiddle" d="M31.9,162.8H15.1V149H31.9Z" style="fill:#3535ed"/><path class="coronaLingualMiddleMesial" d="M15.3,162.8V149H2.7a32.4,32.4,0,0,0,2.7,13.8Z" style="fill:#3535ed"/><path class="coronaLingualCervicalDistal" d="M15.3,168.1v-5.3H5.4a13.5,13.5,0,0,0,1.9,3.3,4.55,4.55,0,0,0,3.6,1.8C12.4,167.9,13.8,168,15.3,168.1Z" style="fill:#3535ed"/><path class="coronaLingualCervicalMiddle" d="M32,170.1v-7.3H15.2v5.3a99.25,99.25,0,0,1,13.3,2A10.28,10.28,0,0,0,32,170.1Z" style="fill:#3535ed"/><path class="coronaLingualCervicalMesial" d="M40.9,162.8h-9v7.3a10.67,10.67,0,0,0,3.2-1.6A28.51,28.51,0,0,0,40.9,162.8Z" style="fill:#3535ed"/><path class="coronaLabial" d="M30.7,103.5c-3.2-2.2-6.5-1.9-9.8.3a6.56,6.56,0,0,1-4.3,1c-5.9-.9-10.3-4-12.8-10.4a13.56,13.56,0,0,1,1-7.7l3.4-8.9c1.5-2.9,4.9-3.7,9.3-3.4a2.89,2.89,0,0,0,1.8-.3c2.8-1.4,6-1.1,9.7.4a31.09,31.09,0,0,0,6,.9,3.45,3.45,0,0,1,1.8.5l3,1.7A7.53,7.53,0,0,1,43.4,82c2.1,7.1,1.9,12.8-1,16.9C38.8,103.4,35,105.7,30.7,103.5Z" style="fill:#fff;stroke:#000;stroke-miterlimit:10;stroke-width:0.5px"/><path class="coronaLabialIncisalDistal" d="M43,98a8.79,8.79,0,0,1-.6,1c-3.1,3.8-6.4,6.1-9.8,5.2V98Z" style="fill:#3535ed"/><path class="coronaLabialIncisalMiddle" d="M32.7,98v6.1a8.65,8.65,0,0,1-1.7-.7c-3.2-2.2-6.5-1.9-9.8.3a6.56,6.56,0,0,1-4.3,1,5,5,0,0,1-1.2-.2V98Z" style="fill:#3535ed"/><path class="coronaLabialIncisionMesial" d="M15.8,98v6.5A14.81,14.81,0,0,1,6,98Z" style="fill:#3535ed"/><path class="coronaLabialMiddleDistal" d="M42.9,98H32.6V84H43.9C45.3,89.7,45,94.4,42.9,98Z" style="fill:#3535ed"/><path class="coronaLabialMiddleMiddle" d="M32.6,98h-17V84h17Z" style="fill:#3535ed"/><path class="coronaLabialMiddleMesial" d="M15.8,84V98H6a15.47,15.47,0,0,1-1.9-3.6,13.56,13.56,0,0,1,1-7.7l1-2.7Z" style="fill:#3535ed"/><path class="coronaLabialCervicalDistal" d="M44,84.1H32.6V75.2a17.91,17.91,0,0,0,2.4.2,3.45,3.45,0,0,1,1.8.5l3,1.7A7.53,7.53,0,0,1,43.4,82Z" style="fill:#3535ed"/><path class="coronaLabialCervicalMiddle" d="M32.7,75.1V84h-17V74.3h2a2.89,2.89,0,0,0,1.8-.3c2.8-1.4,6-1.1,9.7.4A13.59,13.59,0,0,0,32.7,75.1Z" style="fill:#3535ed"/><path class="coronaLabialCervicalMesial" d="M15.8,74.3V84H6.2l2.3-6.2C9.7,75.3,12.3,74.4,15.8,74.3Z" style="fill:#3535ed"/><path class="veneer" d="M23.6,100.2c-3.3,1.2-3.7,1.1-5.9-1.7l-1.4-1.9.8,2.2c1.2,3.3,1.1,3.7-1.7,5.9l-1.9,1.4,2.2-.8c3.3-1.2,3.7-1.1,5.9,1.7l1.4,1.9-.8-2.2c-1.2-3.3-1.1-3.7,1.7-5.9l1.9-1.4ZM22.1,87.8c-2.1.8-2.3.7-3.6-1l-1.4-1.9.8,2.2c.8,2.1.7,2.3-1,3.6L15,92.1l2.2-.8c2.1-.8,2.3-.7,3.6,1l1.4,1.9L21.4,92c-.8-2.1-.7-2.3,1-3.6L24.3,87ZM9.8,90.9c-2.1.8-2.3.7-3.6-1L4.8,88l.9,2.2c.8,2.1.7,2.3-1,3.6L2.8,95.2,5,94.4c2.1-.8,2.3-.7,3.6,1l1.5,1.9-.8-2.2c-.8-2.1-.7-2.3,1-3.6l1.9-1.4Zm25.5,8.9c-2.1.8-2.3.7-3.6-1l-1.4-1.9.7,2.2c.8,2.1.7,2.3-1,3.6l-1.9,1.4,2.2-.8c2.1-.8,2.3-.7,3.6,1l1.4,1.9-.8-2.2c-.8-2.1-.7-2.3,1-3.6L37.4,99Zm3.6-8.9c-2.1.8-2.3.7-3.6-1L33.9,88l.8,2.2c.8,2.1.7,2.3-1,3.6l-1.9,1.4,2.2-.8c2.1-.8,2.3-.7,3.6,1L39,97.3l-.8-2.2c-.8-2.1-.7-2.3,1-3.6l1.9-1.4Z" style="fill:#3535ed"/><path class="coronaTop" d="M18.1,119.5l-5.7-5.2a13.56,13.56,0,0,1,19.1-.8l-5.2,5.7A5.83,5.83,0,0,0,18.1,119.5Zm0,0a5.92,5.92,0,0,0,.3,8.2l-5.2,5.7h0a13.56,13.56,0,0,1-.8-19.1l5.7,5.2Zm8.6,7.9,5.7,5.2h0a13.56,13.56,0,0,1-19.1.8l5.2-5.7A5.92,5.92,0,0,0,26.7,127.4Zm4.8-13.9a13.56,13.56,0,0,1,.8,19.1l-5.7-5.2a5.74,5.74,0,0,0-.3-8.2Zm-3.3,9.9a5.8,5.8,0,1,1-5.8-5.8A5.8,5.8,0,0,1,28.2,123.4Z" style="fill:#fff;stroke:#000;stroke-miterlimit:10"/><path class="coronaTopBuccal" d="M18.1,119.5l-5.7-5.2a13.56,13.56,0,0,1,19.1-.8l-5.2,5.7A5.83,5.83,0,0,0,18.1,119.5Z" style="fill:#3535ed"/><path class="coronaTopMedial" d="M18.1,119.5a5.92,5.92,0,0,0,.3,8.2l-5.2,5.7h0a13.56,13.56,0,0,1-.8-19.1l5.7,5.2Z" style="fill:#3535ed"/><path class="coronaTopLingual" d="M26.7,127.4l5.7,5.2h0a13.56,13.56,0,0,1-19.1.8l5.2-5.7A5.92,5.92,0,0,0,26.7,127.4Z" style="fill:#3535ed"/><path class="coronaTopDistal" d="M31.5,113.5a13.56,13.56,0,0,1,.8,19.1l-5.7-5.2a5.74,5.74,0,0,0-.3-8.2Z" style="fill:#3535ed"/><path class="coronaTopOclusial" d="M28.2,123.4a5.8,5.8,0,1,1-5.8-5.8A5.8,5.8,0,0,1,28.2,123.4Z" style="fill:#3535ed"/><path class="silant" d="M29.2,128.9a16.09,16.09,0,0,1-5.9,1.3c-3.3,0-4.8-1.2-4.8-2.7s1.2-2.4,4.5-3.3c4.4-1.1,6.5-2.9,6.5-5.1,0-2.9-3.1-5.3-8.4-5.3a15.66,15.66,0,0,0-6,1.1l1.1,2.4a13.11,13.11,0,0,1,5-1c2.6,0,4.1,1.2,4.1,2.5,0,1.5-1.5,2.2-4.7,3.1-4.2,1.2-6.4,2.7-6.4,5.4,0,3.2,3.4,5.4,9.2,5.4a19,19,0,0,0,6.9-1.2Z" style="fill:#3535ed"/><path class="crown" d="M28.5,170.2A95.2,95.2,0,0,0,10.9,168a4.55,4.55,0,0,1-3.6-1.8c-3.3-4.4-4.7-10.5-4.7-17.6.8-4.4,2.8-5.7,5.6-5.1a2,2,0,0,0,1.3-.1l3.3-1a10.12,10.12,0,0,1,10.1,0,5.72,5.72,0,0,1,1.6,1.1c1,1.1,2.4,1.1,3.9.6a9.25,9.25,0,0,1,7.8.1c2.6,1.3,6.4,4,7.2,7,1.9,6.9-2,12.8-8.2,17.6A8.91,8.91,0,0,1,28.5,170.2ZM42.4,98.9c2.9-4.1,3.1-9.8,1-16.9a7.53,7.53,0,0,0-3.6-4.4l-3-1.7a3.45,3.45,0,0,0-1.8-.5,31.09,31.09,0,0,1-6-.9c-3.7-1.5-6.9-1.8-9.7-.4a2.89,2.89,0,0,1-1.8.3c-4.4-.3-7.8.5-9.3,3.4L4.8,86.7a13.56,13.56,0,0,0-1,7.7c2.5,6.4,6.9,9.5,12.8,10.4a6.56,6.56,0,0,0,4.3-1c3.3-2.2,6.6-2.5,9.8-.3C35,105.7,38.8,103.4,42.4,98.9ZM26.3,119.2l5.2-5.7a13.56,13.56,0,0,0-19.1.8l5.7,5.2A5.83,5.83,0,0,1,26.3,119.2Zm-8.2.3-5.7-5.2a13.56,13.56,0,0,0,.8,19.1h0l5.2-5.7a5.92,5.92,0,0,1-.3-8.2Zm.4,8.2-5.2,5.7a13.56,13.56,0,0,0,19.1-.8h0l-5.7-5.2A5.92,5.92,0,0,1,18.5,127.7Zm7.8-8.5a5.74,5.74,0,0,1,.3,8.2l5.7,5.2a13.56,13.56,0,0,0-.8-19.1Zm-3.9-1.6a5.8,5.8,0,1,0,5.8,5.8A5.8,5.8,0,0,0,22.4,117.6Z" style="fill:#fff;stroke:#000;stroke-miterlimit:10;stroke-width:0.5px"/><path class="braces" d="M24.8,88.4h0v2.7a4.25,4.25,0,0,0-1.1-.2H22.5a3.55,3.55,0,0,0-1,.2V88.4h0a3.55,3.55,0,0,0,1,.2h1.2a2,2,0,0,0,1.1-.2m-4.6-3.9a1,1,0,0,0-.7.7V89L0,89.1v1.3l19.4-.1v3.8a.77.77,0,0,0,.7.8h1.1a.76.76,0,0,0,.6-.8v-.5a.77.77,0,0,1,.7-.8h1.2a.77.77,0,0,1,.7.8v.6c-.1.4.2.7.6.8h1.1a.77.77,0,0,0,.7-.8V90.4H46.4V89.1H26.7V85.3a.77.77,0,0,0-.7-.8H24.9a.76.76,0,0,0-.6.8v.5a.77.77,0,0,1-.7.8H22.5c-.3,0-.6-.4-.6-.8v-.5c.1-.4-.2-.7-.6-.8Z"/><path class="gum" d="M46.4,77H40.5s-8-4-16.5-3.5C10.5,74,9.5,77,8,77H0" style="fill:none;stroke:#ffb900;stroke-linejoin:round;stroke-width:3px"/><path class="paradontit1" d="M46.4,77H42a4.32,4.32,0,0,1-2.6-.9C37,74.4,30.9,68.6,24.3,69,10.8,69.5,9.5,77,8,77H0" style="fill:none;stroke:#ff822e;stroke-linejoin:round;stroke-width:3px"/><path class="paradontit2" d="M46.4,77H42.6a4.58,4.58,0,0,1-3.4-1.6c-2.5-2.9-8.6-10.9-15-10.5C10.7,65.4,9.5,77,8,77H0" style="fill:none;stroke:#f9610d;stroke-linejoin:round;stroke-width:3px"/><path class="paradontit3" d="M46.4,77H42.6a4.58,4.58,0,0,1-3.4-1.6c-2.5-2.9-7.9-15.6-14.3-15.2C11.4,60.7,9.5,77,8,77H0" style="fill:none;stroke:#f9610d;stroke-linejoin:round;stroke-width:3px"/><path class="paradontit4" d="M46.4,77H43.3a4.47,4.47,0,0,1-4-2.4c-2.6-5-1.1-19.2-16.1-19.2S9.5,77,8,77H0" style="fill:none;stroke:#f75403;stroke-linejoin:round;stroke-width:3px"/><path class="periodontit" d="M15.5,19.4A4.5,4.5,0,1,1,11,14.9,4.48,4.48,0,0,1,15.5,19.4Zm15-7A4.5,4.5,0,1,1,26,7.9,4.55,4.55,0,0,1,30.5,12.4Zm10.9,6a4.5,4.5,0,1,1-4.5-4.5A4.48,4.48,0,0,1,41.4,18.4Z" style="fill:#3535ed"/></g></g></g></svg>