<svg xmlns="http://www.w3.org/2000/svg" viewBox="0 0 44.4 180"><title>27tooth</title><g class="Слой_2" data-name="Слой 2"><g class="Слой_1-2" data-name="Слой 1"><g class="_27" data-name="27"><path class="background" d="M44.4,180H0V0H44.4Z" style="fill:#9fdaff"/><path class="bone" d="M44.4,77H0V0H44.4Z" style="fill:#de82a7"/><path class="bridge" d="M0,99.2v-4l44.4.1v4Zm44.4,53.2v-4L0,148.2v4Zm0-26v-4L0,122.2v4Z" style="fill:#3535ed"/><path class="root" d="M6.8,79.7,8.3,49.4c1.1-9.3,4-16.7,9.4-21.2L18,28c1.3-.5,2,0,2,1.7-2.5,7.8-3.2,15.2-1.4,22.1-.1-9.5,1.5-17.7,5.3-24.5,1.4-2.4,2.8-2.5,4.2,0,.7,0-1.4,15.8-1.5,16-.2.4,3.3-12,3.3-12,1.6-2,3.3-1.4,4.9,2.2a35.13,35.13,0,0,1-.7,12.3,52,52,0,0,0,3.1,31.6" style="fill:#f8edc8;stroke:#292320;stroke-miterlimit:10;stroke-width:0.25px"/><path class="rootCanal" d="M27.3,77.6c-.9-1.7-4.8-1.4-5.5-1.3-.1,0-.1.1-.2.1-2.4,1.4-4.7,2.7-7.3,3.9h-.1a6.16,6.16,0,0,1-4.8-.5.87.87,0,0,1-.5-.9c.3-3.6,1.3-22.8,2.3-29.8.5-3.6,3.9-17.5,6.8-20.5,1.2-1.2-1.7,8.2-1.9,8.9-1.9,9.1-4.1,23.4-1.8,33.8,2.1,9.8,5.7.2,4.9-2.3-.6-2,1.6-24.5,4.2-36.1.2-.7,2.6-7.2,3.1-7.1s-.9,6.9-1,7.5C23.6,43.8,20.6,63,23.8,72.1c2.6,7.4,3.7-10.6,5.3-25.2,1.1-9.6,2.6-17.1,3.4-16.4s-1.1,6-1.3,15.2c-.3,12.5.2,29.5.8,32.7.1.2-.1.5-.4.5C30.5,78.9,28.2,78.7,27.3,77.6Z" style="fill:#3535ed"/><path class="implant" d="M13.7,40l14-2.2c0-.3-.3-.6-.7-.8a15.23,15.23,0,0,0-12.2,0,1.89,1.89,0,0,0-.9,1.6Zm-.1,4.1L28,41.9l-.1-2.5L13.8,41.6Zm-.1,4.1,14.7-2.3-.1-2.5L13.7,45.6Zm-.1,3.9,15-2.3-.1-2.5L13.6,49.5Zm-.1,4.1,15.3-2.4-.1-2.5-15,2.2ZM13.2,60l15.5-2.4-.1-2.5L13.3,57.5Zm-.1,5.2,15.8-2.4-.1-2.4L13.2,62.8ZM13,66H29l-.1-2.7L13,65.8Zm-1.5,2.8-.1,2H30.5v-2a.73.73,0,0,0-.2-.6.84.84,0,0,0-.7-.4H12.4a1.07,1.07,0,0,0-.9,1ZM11,73.4l.1,1.3c0,.6.3,1,.9,1H30.1a.92.92,0,0,0,.9-1V73.4a1,1,0,0,0-.5-.8c-.2-.1-.3-.2-.5-.2H12c-.2.1-.3.1-.5.2a.79.79,0,0,0-.5.8Z" style="fill:#3535ed"/><path class="rootMask" d="M6.8,79.7,8.3,49.4c1.1-9.3,4-16.7,9.4-21.2L18,28c1.3-.5,2,0,2,1.7-2.5,7.8-3.2,15.2-1.4,22.1-.1-9.5,1.5-17.7,5.3-24.5,1.4-2.4,2.8-2.5,4.2,0,.7,0-1.4,15.8-1.5,16-.2.4,3.3-12,3.3-12,1.6-2,3.3-1.4,4.9,2.2a35.13,35.13,0,0,1-.7,12.3,52,52,0,0,0,3.1,31.6" style="fill:#f8edc8;stroke:#292320;stroke-miterlimit:10;stroke-width:0.25px"/><path class="coronaLingual" d="M40.2,146.4c-3.5-3.9-7.9-5.4-13.5-3.6-2.3,1.2-5.1.7-8.2-1.2-4.6-1.3-8.4-.9-11.4,1.6-.3.1-.4.4-.6.6-5.2,8.6-1,14.1,3.8,19.4a5.22,5.22,0,0,0,1.9,1.4,35.33,35.33,0,0,0,24-.1,4,4,0,0,0,1.8-1.3c2.6-3.4,3.8-7.6,3.8-12.7A5.74,5.74,0,0,0,40.2,146.4Z" style="fill:#fff;stroke:#000;stroke-miterlimit:10;stroke-width:0.5px"/><path class="coronaLingualIncisalDistal" d="M30.8,141.9v3.6h8.6A11.47,11.47,0,0,0,30.8,141.9Z" style="fill:#3535ed"/><path class="coronaLingualIncisalMiddle" d="M15.5,145.5l15.5-.1v-3.6a15.58,15.58,0,0,0-4.2.8c-2.3,1.2-5.1.7-8.2-1.2a15.47,15.47,0,0,0-3.1-.6v4.7Z" style="fill:#3535ed"/><path class="coronaLingualIncisionMesial" d="M5.7,145.6h9.8v-4.7a10.18,10.18,0,0,0-8.2,2.2,1.17,1.17,0,0,0-.6.6,16.18,16.18,0,0,0-1,1.8Z" style="fill:#3535ed"/><path class="coronaLingualMiddleDistal" d="M41.8,150.4a6.2,6.2,0,0,0-1.6-4.1l-.8-.8H30.9v13.7h9.3A22.15,22.15,0,0,0,41.8,150.4Z" style="fill:#3535ed"/><path class="coronaLingualMiddleMiddle" d="M30.9,159.3H15.4V145.4H30.9Z" style="fill:#3535ed"/><path class="coronaLingualMiddleMesial" d="M15.5,159.2V145.4H5.7c-2.7,5.7-1.2,10,1.6,13.8Z" style="fill:#3535ed"/><path class="coronaLingualCervicalDistal" d="M40.1,159.1H30.8v6.6a35.77,35.77,0,0,0,5.4-1.4,3.22,3.22,0,0,0,1.8-1.2A11.8,11.8,0,0,0,40.1,159.1Z" style="fill:#3535ed"/><path class="coronaLingualCervicalMiddle" d="M30.9,165.9v-6.6H15.5v6.1A36.4,36.4,0,0,0,30.9,165.9Z" style="fill:#3535ed"/><path class="coronaLingualCervicalMesial" d="M15.5,165.3v-6.1H7.3a41.58,41.58,0,0,0,3.2,3.9,5,5,0,0,0,1.9,1.3A18.12,18.12,0,0,0,15.5,165.3Z" style="fill:#3535ed"/><path class="coronaLabial" d="M21.1,100.1l.9.6a16.72,16.72,0,0,0,3.2-9.9A26,26,0,0,1,21.1,100.1Zm15.4-4.2a7.46,7.46,0,0,0-.7,1.2c-1.4,3-3.8,4.2-7.5,2.6-2.5-.9-4.8-.9-6.8.7a15.4,15.4,0,0,1-11.1,1.9A9.75,9.75,0,0,1,4,95.9,30.12,30.12,0,0,1,2.9,88a10.64,10.64,0,0,1,2.3-7.1C13.8,72,24.9,75.2,28.7,77c1.9,1.8,4.6,1.3,7.4.3,1.8-.2,2.5,1.3,2.8,3.6C39.2,87.2,39,92.8,36.5,95.9Z" style="fill:#fff;stroke:#292320;stroke-miterlimit:10"/><path class="coronaLabialIncisalDistal" d="M35.3,97.9c-1.4,2.4-3.7,3.2-7,1.8-.2-.1-.5-.1-.7-.2V98Z" style="fill:#3535ed"/><path class="coronaLabialIncisalMiddle" d="M27.7,98v1.6a6.45,6.45,0,0,0-6,.9,14.88,14.88,0,0,1-8.2,2.2V98Z" style="fill:#3535ed"/><path class="coronaLabialIncisionMesial" d="M5.1,97.9h8.4v4.7a28.5,28.5,0,0,1-2.9-.3,9.62,9.62,0,0,1-5.5-4.4Z" style="fill:#3535ed"/><path class="coronaLabialMiddleDistal" d="M39,83.9c0,5-.4,9.4-2.4,12a7.46,7.46,0,0,0-.7,1.2c-.2.3-.3.6-.5.9H27.6V84Z" style="fill:#3535ed"/><path class="coronaLabialMiddleMiddle" d="M27.6,98H13.4V84H27.6Z" style="fill:#3535ed"/><path class="coronaLabialMiddleMesial" d="M13.5,83.9v14H5.1c-.3-.6-.6-1.3-.9-2A30.12,30.12,0,0,1,3.1,88a10.8,10.8,0,0,1,.6-4Z" style="fill:#3535ed"/><path class="coronaLabialCervicalDistal" d="M39,84H27.5V76.5a7.26,7.26,0,0,1,1.2.5c1.9,1.8,4.6,1.3,7.4.3,1.8-.2,2.5,1.3,2.8,3.6C39,82,39,83,39,84Z" style="fill:#3535ed"/><path class="coronaLabialCervicalMiddle" d="M27.6,76.5V84H13.5V75.8A21.94,21.94,0,0,1,27.6,76.5Z" style="fill:#3535ed"/><path class="coronaLabialCervicalMesial" d="M13.5,75.8V84H3.7a11.67,11.67,0,0,1,1.7-3.1A19.63,19.63,0,0,1,13.5,75.8Z" style="fill:#3535ed"/><path class="veneer" d="M23.6,96c-3.1,1.2-3.6,1.1-5.6-1.6l-1.4-1.8.8,2.1c1.2,3.1,1.1,3.6-1.6,5.6L14,101.7l2.1-.8c3.1-1.2,3.6-1.1,5.6,1.6l1.4,1.8-.8-2.1c-1.2-3.1-1.1-3.5,1.6-5.6l1.8-1.4ZM22.3,84.3c-2,.7-2.2.6-3.4-1l-1.4-1.8.8,2c.7,2,.6,2.2-1,3.4l-1.9,1.4,2.1-.8c2-.7,2.2-.6,3.4,1l1.3,1.8-.8-2.1c-.7-2-.6-2.2,1-3.4l1.8-1.4ZM10.9,87.2c-2,.7-2.2.6-3.4-1L5.9,84.4l.8,2.1c.8,2,.7,2.1-.9,3.4L4,91.3l2.1-.8c2-.7,2.2-.6,3.4,1l1.4,1.8-.8-2.1c-.7-2-.6-2.2,1-3.4l1.8-1.4Zm23.7,8.4c-1.9.7-2.1.6-3.4-1l-1.4-1.8.8,2.1c.7,2,.6,2.1-1,3.4l-1.8,1.4,2.1-.8c1.9-.7,2.1-.6,3.4,1l1.4,1.8-.8-2.1c-.7-2-.6-2.2,1-3.4l1.8-1.4Zm3.5-8.4c-2,.7-2.2.6-3.4-1l-1.4-1.8.8,2.1c.7,2,.6,2.1-1,3.4l-1.8,1.4,2.1-.8c2-.7,2.2-.6,3.4,1l1.4,1.8-.8-2.1c-.7-2-.6-2.2,1-3.4l1.8-1.4Z" style="fill:none;stroke:#3535ed;stroke-miterlimit:10"/><path class="coronaTop" d="M16.5,119.5l-5.7-5.2a13.56,13.56,0,0,1,19.1-.8l-5.2,5.7A5.83,5.83,0,0,0,16.5,119.5Zm.1,0a5.92,5.92,0,0,0,.3,8.2l-5.2,5.7a13.56,13.56,0,0,1-.8-19.1l5.7,5.2Zm8.6,7.9,5.7,5.2h0a13.56,13.56,0,0,1-19.1.8l5.2-5.7A5.92,5.92,0,0,0,25.2,127.4Zm4.7-13.9a13.56,13.56,0,0,1,.8,19.1L25,127.4a5.74,5.74,0,0,0-.3-8.2Zm-3.2,9.9a5.8,5.8,0,1,1-5.8-5.8A5.87,5.87,0,0,1,26.7,123.4Z" style="fill:#fff;stroke:#000;stroke-miterlimit:10"/><path class="coronaTopBuccal" d="M16.5,119.5l-5.7-5.2a13.56,13.56,0,0,1,19.1-.8l-5.2,5.7A5.83,5.83,0,0,0,16.5,119.5Z" style="fill:#3535ed"/><path class="coronaTopMedial" d="M16.6,119.5a5.92,5.92,0,0,0,.3,8.2l-5.2,5.7a13.56,13.56,0,0,1-.8-19.1l5.7,5.2Z" style="fill:#3535ed"/><path class="coronaTopLingual" d="M25.2,127.4l5.7,5.2h0a13.56,13.56,0,0,1-19.1.8l5.2-5.7A5.92,5.92,0,0,0,25.2,127.4Z" style="fill:#3535ed"/><path class="coronaTopDistal" d="M29.9,113.5a13.56,13.56,0,0,1,.8,19.1L25,127.4a5.74,5.74,0,0,0-.3-8.2Z" style="fill:#3535ed"/><path class="coronaTopOclusial" d="M26.7,123.4a5.8,5.8,0,1,1-5.8-5.8A5.87,5.87,0,0,1,26.7,123.4Z" style="fill:#3535ed"/><path class="silant" d="M27.7,128.9a16.09,16.09,0,0,1-5.9,1.3c-3.3,0-4.8-1.2-4.8-2.7s1.2-2.4,4.5-3.3c4.4-1.1,6.5-2.9,6.5-5.1,0-2.9-3.1-5.3-8.4-5.3a15.66,15.66,0,0,0-6,1.1l1.1,2.4a13.11,13.11,0,0,1,5-1c2.6,0,4.1,1.2,4.1,2.5,0,1.5-1.5,2.2-4.7,3.1-4.2,1.2-6.4,2.7-6.4,5.4,0,3.2,3.4,5.4,9.2,5.4a19,19,0,0,0,6.9-1.2Z" style="fill:#3535ed"/><path class="crown" d="M41.8,150.5c0,5.1-1.2,9.3-3.8,12.7a4,4,0,0,1-1.8,1.3,35.33,35.33,0,0,1-24,.1,5.22,5.22,0,0,1-1.9-1.4c-4.8-5.3-9-10.8-3.8-19.4.2-.2.3-.5.6-.6,3-2.5,6.8-2.9,11.4-1.6,3.1,1.9,5.9,2.4,8.2,1.2,5.6-1.8,10-.3,13.5,3.6A5.74,5.74,0,0,1,41.8,150.5ZM21.1,100.1l.9.6a16.72,16.72,0,0,0,3.2-9.9A26,26,0,0,1,21.1,100.1ZM38.9,80.9c-.3-2.3-1-3.8-2.8-3.6-2.8,1-5.5,1.5-7.4-.3-3.8-1.8-14.9-5-23.5,3.9A10.64,10.64,0,0,0,2.9,88,30.12,30.12,0,0,0,4,95.9a9.75,9.75,0,0,0,6.4,6.4,15.4,15.4,0,0,0,11.1-1.9c2-1.6,4.3-1.6,6.8-.7,3.7,1.6,6.1.4,7.5-2.6a7.46,7.46,0,0,1,.7-1.2C39,92.8,39.2,87.2,38.9,80.9ZM24.7,119.2l5.2-5.7a13.56,13.56,0,0,0-19.1.8l5.7,5.2A5.83,5.83,0,0,1,24.7,119.2Zm-8.1.3-5.7-5.2a13.56,13.56,0,0,0,.8,19.1l5.2-5.7a5.92,5.92,0,0,1-.3-8.2Zm.4,8.2-5.2,5.7a13.56,13.56,0,0,0,19.1-.8h0l-5.7-5.2A5.92,5.92,0,0,1,17,127.7Zm7.7-8.5a5.74,5.74,0,0,1,.3,8.2l5.7,5.2a13.56,13.56,0,0,0-.8-19.1Zm-3.8-1.6a5.8,5.8,0,1,0,5.8,5.8A5.87,5.87,0,0,0,20.9,117.6Z" style="fill:#fff;stroke:#000;stroke-miterlimit:10;stroke-width:0.5px"/><path class="braces" d="M23.8,88.4h0l.1,2.7a4.25,4.25,0,0,0-1.1-.2H21.6a3.55,3.55,0,0,0-1,.2V88.4h0a3.55,3.55,0,0,0,1,.2h1.1a2,2,0,0,0,1.1-.2m-4.6-3.9a.73.73,0,0,0-.6.7V89H0v1.3H18.5v3.8a.77.77,0,0,0,.7.8h1.1a.76.76,0,0,0,.6-.8v-.5a.77.77,0,0,1,.7-.8h1.1a.77.77,0,0,1,.7.8v.6c-.1.4.2.7.6.8h1.1a.77.77,0,0,0,.7-.8V90.4H44.4V89.1H25.8V85.3a.77.77,0,0,0-.7-.8H24a.76.76,0,0,0-.6.8v.5a.77.77,0,0,1-.7.8H21.6a.77.77,0,0,1-.7-.8v-.5c.1-.4-.2-.7-.6-.8Z"/><path class="gum" d="M44.4,77A86.35,86.35,0,0,0,31,78c-2-2-4.5-6-22-1H0" style="fill:none;stroke:#ffb900;stroke-linejoin:round;stroke-width:3px"/><path class="paradontit1" d="M44.4,77H40.6a5.85,5.85,0,0,1-1.3-.2C34.4,75.3,28.4,72,22.9,72c-9.6,0-12,3.1-17.3,4.8a5.07,5.07,0,0,1-1.3.2H0" style="fill:none;stroke:#ff822e;stroke-linejoin:round;stroke-width:3px"/><path class="paradontit2" d="M44.4,77H40.7a3.61,3.61,0,0,1-1.8-.3c-4.7-2-9.6-8.7-15-8.7C14.3,68,11,74.8,5.6,76.8a5.9,5.9,0,0,1-1.4.2H0" style="fill:none;stroke:#f9610d;stroke-linejoin:round;stroke-width:3px"/><path class="paradontit3" d="M44.4,77H40.7a3.61,3.61,0,0,1-1.8-.3c-4.7-2-9.3-14.1-14.7-14.1C14.6,62.6,11,74.8,5.6,76.8a5.9,5.9,0,0,1-1.4.2H0" style="fill:none;stroke:#f9610d;stroke-linejoin:round;stroke-width:3px"/><path class="paradontit4" d="M44.4,77H41.3a4.72,4.72,0,0,1-3.5-1.7c-3.6-4.5-7.2-17.6-15.6-17.6C13.3,57.7,11.4,72,6.8,76A4.19,4.19,0,0,1,4,77H0" style="fill:none;stroke:#f75403;stroke-linejoin:round;stroke-width:3px"/><path class="periodontit" d="M23,25.4a4.5,4.5,0,1,1-4.5-4.5A4.55,4.55,0,0,1,23,25.4Zm11.9,0a4.5,4.5,0,1,1-4.5-4.5A4.48,4.48,0,0,1,34.9,25.4Z" style="fill:#3535ed"/></g></g></g></svg>