<svg xmlns="http://www.w3.org/2000/svg" viewBox="0 0 28.5 180.8"><title>32tooth</title><g class="Слой_2" data-name="Слой 2"><g class="Слой_1-2" data-name="Слой 1"><g class="_32" data-name="32"><path class="background" d="M28.5,0V180.8H0v-77H0V0Z" style="fill:#9fdaff"/><path class="bone" d="M28.5,105.8v75H0v-32H0v-43Z" style="fill:#de82a7"/><path class="bridge" d="M0,80.4H28.5v4H0Zm0-46H28.5v-4H0Zm0,25H28.5v-4H0Z" style="fill:#3535ed"/><path class="root" d="M22.4,101.7c-3.6,18.9-4.4,35.9-1.2,50.4a8.31,8.31,0,0,1-.1,3.5c-.7,2.3-2.3,2.2-4.8-.5-5.1-3.6-6.9-31.2-8.7-56.2" style="fill:#f4ecc8;stroke:#111414;stroke-miterlimit:10;stroke-width:0.25px"/><path class="rootCanal" d="M19.2,156.8c-3.8-4.8-8.6-57.2-8.7-57.6,0,0,3-3.6,5.9-3.6a4,4,0,0,1,3.4,2.3,148.78,148.78,0,0,0-.5,54.4c.4,2.7.8,4.7.5,5h0S19.6,157.3,19.2,156.8Zm-2.7-61a3.31,3.31,0,0,1,3.1,2.3c-5.1,25-1.9,45.5-.5,54.3a26.3,26.3,0,0,1,.6,4.8,1.2,1.2,0,0,1-.4-.4c-3.7-4.6-8.4-54.8-8.6-57.5.5-.5,3.2-3.5,5.8-3.5h0m0-.3c-3,0-6.1,3.7-6.1,3.7s4.8,52.9,8.7,57.7a1.49,1.49,0,0,0,.7.6c1.7,0-6.8-25.3.2-59.5-1-1.9-2.3-2.5-3.5-2.5Z" style="fill:none"/><path class="implant" d="M22.7,140.7l-14,2a1.39,1.39,0,0,0,.7.8,15.23,15.23,0,0,0,12.2.1,1.9,1.9,0,0,0,1-1.6Zm0-4.2L8.3,138.7l.1,2.4,14.3-2Zm.2-3.8L8.2,134.9l.1,2.4,14.5-2.2Zm.2-4.2-15,2.2.1,2.5L23,131Zm.1-1.5v-2.5L8,126.8l.1,2.4L23.2,127Zm.3-6.5L7.9,122.8l.1,2.5L23.3,123Zm0-5.1L7.7,117.7l.1,2.5,15.7-2.3Zm.1-.7-16-.1.1,2.6,15.9-2.3Zm1.5-4.6h-.4L6.6,110H6.2v1.9a1.07,1.07,0,0,0,.2.6.91.91,0,0,0,.7.3H8.2l15,.1h1.1a.91.91,0,0,0,.7-.3,1.07,1.07,0,0,0,.2-.6Zm.8-4.1h0a1.08,1.08,0,0,0-1-1l-18.1-.1h0a.94.94,0,0,0-1,1v1.2a1.08,1.08,0,0,0,1,1l18.1.1a.6.6,0,0,0,.4-.1,1.49,1.49,0,0,0,.4-.9Z" style="fill:#3535ed"/><path class="rootMask" d="M22.4,101.7c-3.6,18.9-4.4,35.9-1.2,50.4a8.31,8.31,0,0,1-.1,3.5c-.7,2.3-2.3,2.2-4.8-.5-5.1-3.6-6.9-31.2-8.7-56.2" style="fill:#f4ecc8;stroke:#111414;stroke-miterlimit:10;stroke-width:0.25px"/><path class="coronaLingual" d="M18.6,10.7a138.29,138.29,0,0,1,5.7,20c.5,3.7.3,6.6-1.6,7.5L6.3,39.4c-2.5-.3-2.8-2.8-1.7-6.9,1.9-8.2,4-16,5.8-23a3.18,3.18,0,0,1,.3-.9c1.4-2.6,3.1-3.1,5.2-1.5A8.8,8.8,0,0,1,18.6,10.7Z" style="fill:#fff;stroke:#111414;stroke-miterlimit:10;stroke-width:0.5px"/><path class="coronaLingualIncisalDistal" d="M22.6,38l-5.2.4V29.8H24c.1.2.1.5.2.7C24.7,34.3,24.5,37.1,22.6,38Z" style="fill:#3535ed"/><path class="coronaLingualIncisalMiddle" d="M17.5,29.8v8.6l-6,.4v-9Z" style="fill:#3535ed"/><path class="coronaLingualIncisionMesial" d="M11.5,29.8v9l-5.2.4c-2.5-.3-2.8-2.8-1.7-6.9.2-.9.4-1.7.6-2.5Z" style="fill:#3535ed"/><path class="coronaLingualMiddleDistal" d="M24.1,29.9H17.5V16.2h3A130.18,130.18,0,0,1,24.1,29.9Z" style="fill:#3535ed"/><path class="coronaLingualMiddleMiddle" d="M17.5,16.2V29.9h-6V16.2Z" style="fill:#3535ed"/><path class="coronaLingualMiddleMesial" d="M11.5,16.2V29.9H5.3c1.1-4.8,2.3-9.3,3.4-13.7Z" style="fill:#3535ed"/><path class="coronaLingualCervicalDistal" d="M20.5,16.3h-3V8.7a7.5,7.5,0,0,1,1,2C19.2,12.6,19.9,14.5,20.5,16.3Z" style="fill:#3535ed"/><path class="coronaLingualCervicalMiddle" d="M17.5,8.6v7.6h-6V7.4c1.2-1.6,2.7-1.7,4.4-.4A4.89,4.89,0,0,1,17.5,8.6Z" style="fill:#3535ed"/><path class="coronaLingualCervicalMesial" d="M11.5,7.4v8.8H8.7c.6-2.3,1.2-4.6,1.8-6.8a3.18,3.18,0,0,1,.3-.9A4.13,4.13,0,0,1,11.5,7.4Z" style="fill:#3535ed"/><path class="coronaLabial" d="M22.2,101.5c-3.4,8-8,7.7-13.8-1.1a13,13,0,0,1-2-5.7A147.27,147.27,0,0,1,6,77.1C6.3,74.9,7.3,74,8.9,74l13.2.9a3.66,3.66,0,0,1,3,1.6,9.09,9.09,0,0,1,1.4,6.2A98.71,98.71,0,0,1,22.2,101.5Z" style="fill:#fff;stroke:#111414;stroke-miterlimit:10;stroke-width:0.5px"/><path class="coronaLabialIncisalDistal" d="M26.3,79.7H19.1v-5l3,.2a3.66,3.66,0,0,1,3,1.6A7.83,7.83,0,0,1,26.3,79.7Z" style="fill:#3535ed"/><path class="coronaLabialIncisalMiddle" d="M19.2,74.7v5H10.5V74.1Z" style="fill:#3535ed"/><path class="coronaLabialIncisionMesial" d="M10.5,74.1v5.6H5.9A21.75,21.75,0,0,0,6,77.1C6.3,74.9,7.3,74,8.9,74Z" style="fill:#3535ed"/><path class="coronaLabialMiddleDistal" d="M26.5,82.6A116.65,116.65,0,0,1,23.4,98H19.2V79.7h7.2A14.31,14.31,0,0,1,26.5,82.6Z" style="fill:#3535ed"/><path class="coronaLabialMiddleMiddle" d="M19.2,79.7V98H10.5V79.7Z" style="fill:#3535ed"/><path class="coronaLabialMiddleMesial" d="M10.5,79.7V98H7.3a12.26,12.26,0,0,1-.8-3.3,125.32,125.32,0,0,1-.5-15Z" style="fill:#3535ed"/><path class="coronaLabialCervicalDistal" d="M19.2,98.2h0l4.2-.1a35.8,35.8,0,0,1-1.1,3.5,12.45,12.45,0,0,1-3.1,4.7V98.2Z" style="fill:#3535ed"/><path class="coronaLabialCervicalMiddle" d="M19.2,98.1v8.1q-3.75,3.15-8.7-3V98.1Z" style="fill:#3535ed"/><path class="coronaLabialCervicalMesial" d="M10.5,98.1v5.1c-.6-.8-1.3-1.8-2-2.8a10.08,10.08,0,0,1-1.2-2.3Z" style="fill:#3535ed"/><path class="veneer" d="M14.3,81.8c2.6-1.2,2.8-1.1,4.5,1.6l1.1,1.7L19.3,83c-1-3.1-.9-3.4,1.3-5.4l1.5-1.3-1.7.8c-2.6,1.2-2.8,1.1-4.5-1.6l-1.1-1.8.6,2.1c1,3.1.9,3.4-1.3,5.4l-1.5,1.3Zm1.1,11.4c1.6-.7,1.7-.6,2.7,1L19.2,96l-.6-2.1c-.6-1.9-.5-2.1.8-3.3l1.5-1.3-1.7.8c-1.6.7-1.7.6-2.7-1l-1.1-1.8.6,2.1c.6,1.9.5,2.1-.8,3.3L13.7,94Zm6.3-4.9c1.7-.7,1.8-.6,2.8,1l1.1,1.8L25,89c-.6-1.9-.5-2.1.8-3.3l1.5-1.3-1.7.8c-1.6.7-1.7.6-2.7-1l-1.1-1.8.6,2.1c.6,1.9.5,2.1-.8,3.3l-1.5,1.3ZM5.1,82c1.6-.7,1.8-.6,2.8,1L9,84.8l-.6-2.1c-.6-1.9-.5-2.1.8-3.3l1.5-1.3L9,78.9c-1.6.7-1.7.6-2.7-1l-1-1.8.6,2.1c.6,1.9.5,2.1-.8,3.3L3.6,82.8ZM2.4,90.2c1.7-.7,1.8-.6,2.8,1L6.3,93l-.6-2.1c-.6-2-.5-2.1.8-3.3L8,86.3l-1.7.8c-1.6.7-1.7.6-2.7-1L2.5,84.3l.6,2.1c.6,2,.5,2.1-.8,3.3L.8,91Z" style="fill:#3535ed"/><path class="coronaTop" d="M10,60.7,4.3,65.9h0a13.56,13.56,0,0,0,19.1.8L18.2,61A5.92,5.92,0,0,1,10,60.7Zm0-.1a6,6,0,0,1,.3-8.3L5.1,46.7a13.56,13.56,0,0,0-.8,19.1L10,60.6Zm8.5-7.9,5.7-5.2a13.56,13.56,0,0,0-19.1-.8l5.2,5.7A5.83,5.83,0,0,1,18.5,52.7Zm5,14a13.56,13.56,0,0,0,.8-19.1l-5.7,5.2a5.83,5.83,0,0,1-.4,8.2Zm-6.4-5a5.78,5.78,0,1,1,2.1-7.9A5.85,5.85,0,0,1,17.1,61.7Z" style="fill:#fff;stroke:#000;stroke-miterlimit:10"/><path class="coronaTopBuccal" d="M10,60.7,4.3,65.9h0a13.56,13.56,0,0,0,19.1.8L18.2,61A5.92,5.92,0,0,1,10,60.7Z" style="fill:#3535ed"/><path class="coronaTopMedial" d="M10,60.6a6,6,0,0,1,.3-8.3L5.1,46.7a13.56,13.56,0,0,0-.8,19.1L10,60.6Z" style="fill:#3535ed"/><path class="coronaTopLingual" d="M18.5,52.7l5.7-5.2a13.56,13.56,0,0,0-19.1-.8l5.2,5.7A5.83,5.83,0,0,1,18.5,52.7Z" style="fill:#3535ed"/><path class="coronaTopDistal" d="M23.5,66.7a13.56,13.56,0,0,0,.8-19.1l-5.7,5.2a5.83,5.83,0,0,1-.4,8.2Z" style="fill:#3535ed"/><path class="coronaTopOclusial" d="M17.1,61.7a5.78,5.78,0,1,1,2.1-7.9A5.85,5.85,0,0,1,17.1,61.7Z" style="fill:#3535ed"/><path class="silant" d="M21.1,62.2a16.09,16.09,0,0,1-5.9,1.3c-3.3,0-4.8-1.2-4.8-2.7s1.2-2.4,4.5-3.3c4.4-1.1,6.5-2.9,6.5-5.1,0-2.9-3.1-5.3-8.4-5.3a15.66,15.66,0,0,0-6,1.1l1.1,2.4a13.11,13.11,0,0,1,5-1c2.6,0,4.1,1.2,4.1,2.5,0,1.5-1.5,2.2-4.7,3.1-4.2,1.2-6.4,2.7-6.4,5.4,0,3.2,3.4,5.4,9.2,5.4a19,19,0,0,0,6.9-1.2Z" style="fill:#3535ed"/><path class="crown" d="M18.6,10.7a138.29,138.29,0,0,1,5.7,20c.5,3.7.3,6.6-1.6,7.5L6.3,39.4c-2.5-.3-2.8-2.8-1.7-6.9,1.9-8.2,4-16,5.8-23a3.18,3.18,0,0,1,.3-.9c1.4-2.6,3.1-3.1,5.2-1.5A8.8,8.8,0,0,1,18.6,10.7Zm7.9,72a9.09,9.09,0,0,0-1.4-6.2,3.66,3.66,0,0,0-3-1.6L8.9,74c-1.6,0-2.6.9-2.9,3.1a147.27,147.27,0,0,0,.4,17.6,13,13,0,0,0,2,5.7c5.8,8.8,10.4,9.1,13.8,1.1A98.71,98.71,0,0,0,26.5,82.7ZM18.2,61l5.2,5.7a13.56,13.56,0,0,1-19.1-.8h0L10,60.7A5.92,5.92,0,0,0,18.2,61ZM10,60.6,4.3,65.8a13.56,13.56,0,0,1,.8-19.1l5.2,5.6a6,6,0,0,0-.3,8.3Zm.3-8.2L5.1,46.7a13.56,13.56,0,0,1,19.1.8l-5.7,5.2A5.83,5.83,0,0,0,10.3,52.4ZM18.2,61a5.83,5.83,0,0,0,.4-8.2l5.7-5.2a13.56,13.56,0,0,1-.8,19.1Zm1-7.2a5.78,5.78,0,1,0-2.1,7.9A5.85,5.85,0,0,0,19.2,53.8Z" style="fill:#fff;stroke:#111414;stroke-miterlimit:10;stroke-width:0.5px"/><path class="braces" d="M15.9,86.3h0V89a4.25,4.25,0,0,0-1.1-.2H13.6a3.55,3.55,0,0,0-1,.2V86.3h0a3.55,3.55,0,0,0,1,.2h1.2a2,2,0,0,0,1.1-.2m-4.6-3.9a.84.84,0,0,0-.7.7v3.8H0v1.3H10.6V92a.64.64,0,0,0,.6.8h1.1a.76.76,0,0,0,.6-.8v-.5a.64.64,0,0,1,.6-.8h1.2a.77.77,0,0,1,.7.8v.6c-.1.4.2.7.6.8h1.1a.77.77,0,0,0,.7-.8V88.3l10.7-.1V86.9L17.8,87V83.2a.77.77,0,0,0-.7-.8H16a.76.76,0,0,0-.6.8v.5a.77.77,0,0,1-.7.8H13.6c-.3,0-.6-.4-.6-.8v-.5c.1-.4-.2-.7-.6-.8Z"/><path class="gum" d="M28.5,106H21a4.34,4.34,0,0,1-4,2,11.92,11.92,0,0,1-6-2H0" style="fill:none;stroke:#ffb900;stroke-linejoin:round;stroke-width:3px"/><path class="paradontit1" d="M28.5,106H26.7a4.5,4.5,0,0,0-4.1,2.7c-1.3,2.8-4.5,3.5-7.4,3.5a8.21,8.21,0,0,1-7.4-4.1A4.53,4.53,0,0,0,4,106H0" style="fill:none;stroke:#ff822e;stroke-linejoin:round;stroke-width:3px"/><path class="paradontit2" d="M0,105.9c.2,0,6.1.2,6.8,2.5,2.1,3.8,2.4,8,9.4,8,3.8,0,5.1-4.2,7.3-7.5,1.6-2.3,3-2.9,5-2.9" style="fill:none;stroke:#f9610d;stroke-linejoin:round;stroke-width:3px"/><path class="paradontit3" d="M28.5,106s-3.5,0-4.4,1.7c-2.4,4.5-3.7,13.5-8.6,12.8-7-1-5.8-6.3-7.9-10C5.3,106,0,106,0,106" style="fill:none;stroke:#f9610d;stroke-linejoin:round;stroke-width:3px"/><path class="paradontit4" d="M28.5,106a4.38,4.38,0,0,0-4.2,3.6c-1.2,6-1.4,15-9.4,15s-6.6-10-8.8-15.7A4.42,4.42,0,0,0,1.9,106H0" style="fill:none;stroke:#f75403;stroke-linejoin:round;stroke-width:3px"/><path class="periodontit" d="M24,159.5a4.5,4.5,0,1,1-4.5-4.5A4.48,4.48,0,0,1,24,159.5Z" style="fill:#3535ed"/></g></g></g></svg>