<svg xmlns="http://www.w3.org/2000/svg" viewBox="0 0 32.4 180.8"><title>34tooth</title><g class="Слой_2" data-name="Слой 2"><g class="Слой_1-2" data-name="Слой 1"><g class="_34" data-name="34"><path class="background" d="M32.4,0V180.8H0V0Z" style="fill:#9fdaff"/><path class="bone" d="M32.4,105.8v75H0v-75Z" style="fill:#de82a7"/><path class="bridge" d="M0,59.4v-4H32.4v4Zm0-29v4H32.4v-4Zm0,50v4H32.4v-4Z" style="fill:#3535ed"/><path class="root" d="M27.3,102.3l-4.4,15.8c-2.4,11.6-3.5,22.9-1.9,33.2a5.37,5.37,0,0,1-.6,3.5c-1.1,2-2.6,1.5-4.4-1-4.4-4.3-4.6-13.4-4.6-22.9a14.77,14.77,0,0,0-.1-2.1L9.2,102.1" style="fill:#f4ecc8;stroke:#111414;stroke-miterlimit:10;stroke-width:0.25px"/><path class="rootCanal" d="M17.7,154.5c-4.3-9.2-5.1-55.3-4.2-56.4,0,0,2.7-2.7,5.4-2.7q2.4,0,3.9,2.7c-1,9.3-1.9,16.1-2.7,21.5-1.8,13-2.7,19-.5,36.1a.86.86,0,0,1-.6.3C18.5,156,18,155.5,17.7,154.5Zm1.2-58.9c1.5,0,2.8.9,3.9,2.6-1,9.3-1.9,16-2.7,21.4-1.8,13.1-2.7,19-.5,36.1-.2.1-.3.2-.5.2-.4,0-.8-.5-1-.9-4.3-7.5-5.4-54.5-4.5-56.7h0s2.6-2.7,5.3-2.7h0m0-.3c-2.8,0-5.5,2.8-5.5,2.8-1.2.1.1,58,5.6,58a1.33,1.33,0,0,0,.7-.3c-3.1-24.4,0-26.3,3.2-57.6-1.1-2.2-2.6-2.9-4-2.9Z" style="fill:none"/><path class="implant" d="M25.1,140.7l-14,2a1.39,1.39,0,0,0,.7.8,15.23,15.23,0,0,0,12.2.1,1.9,1.9,0,0,0,1-1.6Zm0-1.6v-2.5l-14.4,2.1.1,2.5,14.3-2.1Zm.2-6.6-14.7,2.1.1,2.5L25.2,135Zm.1-1.4v-2.5l-14.9,2.1.1,2.5,14.8-2.1Zm.2-6.6-15.2,2.3.1,2.5,15-2.3Zm.3-4-15.6,2.3.1,2.5L25.7,123Zm0-5.1-15.8,2.3.1,2.5,15.7-2.3Zm.1-.6-16-.1.1,2.7L26,115Zm1.4-4.8H27l-18.1-.1H8.5v1.9a1.85,1.85,0,0,0,.2.7.91.91,0,0,0,.7.3h1.1l15,.1h1.1a.94.94,0,0,0,1-1Zm1.1-2.8V106h0a1.08,1.08,0,0,0-1-1l-18.1-.1h0a.94.94,0,0,0-1,1v1.2a1,1,0,0,0,.4.9c.1,0,.2.1.4.1l18.1.1a.6.6,0,0,0,.4-.1,1.49,1.49,0,0,0,.4-.9Z" style="fill:#3535ed"/><path class="rootMask" d="M27.3,102.3l-4.4,15.8c-2.4,11.6-3.5,22.9-1.9,33.2a5.37,5.37,0,0,1-.6,3.5c-1.1,2-2.6,1.5-4.4-1-4.4-4.3-4.6-13.4-4.6-22.9a14.77,14.77,0,0,0-.1-2.1L9.2,102.1" style="fill:#f4ecc8;stroke:#111414;stroke-miterlimit:10;stroke-width:0.25px"/><path class="coronaLingual" d="M24.6,12.7c3.1,7.2,4.3,13,3.8,17.3a5.82,5.82,0,0,1-1.9,3.9c-6.8,6.7-13.7,6.8-20.6-.8a9.43,9.43,0,0,1-2.4-6c-.1-4.8,2-9.7,4.9-14.6a8.06,8.06,0,0,1,2.9-2.9c3.3-1.8,7-1.7,11.1.4A3.59,3.59,0,0,1,24.6,12.7Z" style="fill:#fff;stroke:#111414;stroke-miterlimit:10;stroke-width:0.5px"/><path class="coronaLingualIncisalDistal" d="M26.6,33.6a19.71,19.71,0,0,1-5.8,4.1V30.6h7.6A6.22,6.22,0,0,1,26.6,33.6Z" style="fill:#3535ed"/><path class="coronaLingualIncisalMiddle" d="M20.9,30.6v7.1a10.75,10.75,0,0,1-10-.8V30.6Z" style="fill:#3535ed"/><path class="coronaLingualIncisionMesial" d="M10.9,30.7V37a20.88,20.88,0,0,1-4.8-4.1,11.35,11.35,0,0,1-1.5-2.3Z" style="fill:#3535ed"/><path class="coronaLingualMiddleDistal" d="M28.6,29.8c-.1.3-.1.5-.2.8H20.8V16.9h5.7Q29.2,24.7,28.6,29.8Z" style="fill:#3535ed"/><path class="coronaLingualMiddleMiddle" d="M20.8,30.6h-10V16.9h10Z" style="fill:#3535ed"/><path class="coronaLingualMiddleMesial" d="M11,16.9V30.6H4.7a8.49,8.49,0,0,1-.9-3.8,22.92,22.92,0,0,1,2.4-9.9Z" style="fill:#3535ed"/><path class="coronaLingualCervicalDistal" d="M26.5,16.9H20.8V9.1a11.11,11.11,0,0,1,1.6.7,5.08,5.08,0,0,1,2.4,2.6C25.5,14,26,15.5,26.5,16.9Z" style="fill:#3535ed"/><path class="coronaLingualCervicalMiddle" d="M21,9.2V17H11V9.8a1,1,0,0,1,.5-.4C14.2,7.8,17.4,7.7,21,9.2Z" style="fill:#3535ed"/><path class="coronaLingualCervicalMesial" d="M11,9.7v7.2H6.2c.8-1.6,1.6-3.2,2.5-4.7A9.15,9.15,0,0,1,11,9.7Z" style="fill:#3535ed"/><path class="coronaLabial" d="M27.3,102.2a6.81,6.81,0,0,1-3.2,4.2c-4.3,2.5-8.8,1.6-13.5-2.5A9,9,0,0,1,9.1,102a52.43,52.43,0,0,1-3.3-9.4Q4,86.15,6.7,81.5c6.5-10.6,13.6-9.7,21.2.5a10.93,10.93,0,0,1,1.3,7.5A65.93,65.93,0,0,1,27.3,102.2Z" style="fill:#fff;stroke:#111414;stroke-miterlimit:10;stroke-width:0.5px"/><path class="coronaLabialIncisalDistal" d="M26,79.8H20.9V75.3A18.37,18.37,0,0,1,26,79.8Z" style="fill:#3535ed"/><path class="coronaLabialIncisalMiddle" d="M21,75.2v4.5H11.7V75.8A8,8,0,0,1,21,75.2Z" style="fill:#3535ed"/><path class="coronaLabialIncisionMesial" d="M11.7,75.9v3.9H8A17.14,17.14,0,0,1,11.7,75.9Z" style="fill:#3535ed"/><path class="coronaLabialMiddleDistal" d="M29.3,89.4A61.27,61.27,0,0,1,28.2,98H20.9V79.7h5.2c.6.7,1.2,1.5,1.8,2.3A11.39,11.39,0,0,1,29.3,89.4Z" style="fill:#3535ed"/><path class="coronaLabialMiddleMiddle" d="M20.9,98H11.6V79.7h9.3Z" style="fill:#3535ed"/><path class="coronaLabialMiddleMesial" d="M8,79.7l3.7.1V98.1H7.5a49.76,49.76,0,0,1-1.6-5.5q-1.8-6.45.9-11.1L8,79.7Z" style="fill:#3535ed"/><path class="coronaLabialCervicalDistal" d="M20.9,98.1h7.3c-.3,1.4-.6,2.7-1,4.1a6.81,6.81,0,0,1-3.2,4.2,9.08,9.08,0,0,1-3.1,1.2V98.1Z" style="fill:#3535ed"/><path class="coronaLabialCervicalMiddle" d="M21,98v9.5c-3,.6-6.1-.4-9.3-2.9V98Z" style="fill:#3535ed"/><path class="coronaLabialCervicalMesial" d="M7.5,98l4.2.1v6.6a9,9,0,0,0-1-.9,9,9,0,0,1-1.5-1.9C8.6,100.7,8,99.3,7.5,98Z" style="fill:#3535ed"/><path class="veneer" d="M17.6,81.6c2.8-1,3.1-.9,4.9,1.5l1.2,1.6L23,82.8c-1.1-2.8-1-3.2,1.4-5L26,76.6l-1.9.7c-2.8,1-3.1.9-4.9-1.5L18,74.2l.7,1.9c1.1,2.8,1,3.2-1.4,5l-1.6,1.2ZM18.7,92c1.7-.6,1.8-.6,2.9.9l1.2,1.6-.6-1.8c-.6-1.7-.5-1.9.9-3l1.6-1.2-1.9.7c-1.6.6-1.8.6-2.9-.9l-1.2-1.6.7,1.9c.6,1.7.5,1.9-.9,3l-1.6,1.2Zm7.1-4.5c1.7-.6,1.8-.6,2.9.9L29.9,90l-.7-1.9c-.6-1.7-.5-1.9.9-3l1.6-1.2-1.9.7c-1.6.6-1.8.5-2.9-.9l-1.2-1.6.7,1.9c.6,1.7.5,1.9-.9,3l-1.6,1.2Zm-18-5.6c1.8-.6,1.9-.6,3,.9L12,84.4l-.7-1.9c-.6-1.7-.5-1.9.9-3l1.6-1.2-1.9.7c-1.7.6-1.8.6-2.9-.9L7.9,76.5l.7,1.9c.6,1.7.5,1.9-.9,3L6.1,82.6Zm-3,7.3c1.7-.6,1.8-.6,2.9.9l1.2,1.6-.6-1.8c-.6-1.7-.5-1.9.9-3l1.6-1.2-1.9.7c-1.6.6-1.8.6-2.9-.9L4.8,83.9l.7,1.9c.6,1.7.5,1.9-.9,3L3,90Z" style="fill:#3535ed"/><path class="coronaTop" d="M11.9,61.2,6.2,66.4a13.56,13.56,0,0,0,19.1.8l-5.2-5.7A5.92,5.92,0,0,1,11.9,61.2Zm.1-.1a5.83,5.83,0,0,1,.3-8.2L7.1,47.2a13.56,13.56,0,0,0-.8,19.1L12,61.1Zm8.5-7.9L26.2,48a13.56,13.56,0,0,0-19.1-.8l5.2,5.7A5.93,5.93,0,0,1,20.5,53.2Zm4.9,14a13.56,13.56,0,0,0,.8-19.1l-5.7,5.2a5.83,5.83,0,0,1-.4,8.2Zm-6.3-5a5.78,5.78,0,0,1-5.8-10,5.76,5.76,0,0,1,7.9,2.1A5.85,5.85,0,0,1,19.1,62.2Z" style="fill:#fff;stroke:#000;stroke-miterlimit:10"/><path class="coronaTopBuccal" d="M11.9,61.2,6.2,66.4a13.56,13.56,0,0,0,19.1.8l-5.2-5.7A5.92,5.92,0,0,1,11.9,61.2Z" style="fill:#3535ed"/><path class="coronaTopMedial" d="M12,61.1a5.83,5.83,0,0,1,.3-8.2L7.1,47.2a13.56,13.56,0,0,0-.8,19.1L12,61.1Z" style="fill:#3535ed"/><path class="coronaTopLingual" d="M20.5,53.2,26.2,48a13.56,13.56,0,0,0-19.1-.8l5.2,5.7A5.93,5.93,0,0,1,20.5,53.2Z" style="fill:#3535ed"/><path class="coronaTopDistal" d="M25.4,67.2a13.56,13.56,0,0,0,.8-19.1l-5.7,5.2a5.83,5.83,0,0,1-.4,8.2Z" style="fill:#3535ed"/><path class="coronaTopOclusial" d="M19.1,62.2a5.78,5.78,0,0,1-5.8-10,5.76,5.76,0,0,1,7.9,2.1A5.85,5.85,0,0,1,19.1,62.2Z" style="fill:#3535ed"/><path class="silant" d="M23.1,62.8a16.09,16.09,0,0,1-5.9,1.3c-3.3,0-4.8-1.2-4.8-2.7s1.2-2.4,4.5-3.3c4.4-1.1,6.5-2.9,6.5-5.1,0-2.9-3.1-5.3-8.4-5.3a15.66,15.66,0,0,0-6,1.1l1.1,2.4a13.11,13.11,0,0,1,5-1c2.6,0,4.1,1.2,4.1,2.5,0,1.5-1.5,2.2-4.7,3.1-4.2,1.2-6.4,2.7-6.4,5.4,0,3.2,3.4,5.4,9.2,5.4a19,19,0,0,0,6.9-1.2Z" style="fill:#3535ed"/><path class="crown" d="M24.6,12.7c3.1,7.2,4.3,13,3.8,17.3a5.82,5.82,0,0,1-1.9,3.9c-6.8,6.7-13.7,6.8-20.6-.8a9.43,9.43,0,0,1-2.4-6c-.1-4.8,2-9.7,4.9-14.6a8.06,8.06,0,0,1,2.9-2.9c3.3-1.8,7-1.7,11.1.4A3.59,3.59,0,0,1,24.6,12.7Zm4.6,76.8A10.93,10.93,0,0,0,27.9,82c-7.6-10.2-14.7-11.1-21.2-.5Q4,86.15,5.8,92.6A52.43,52.43,0,0,0,9.1,102a9,9,0,0,0,1.5,1.9c4.7,4.1,9.2,5,13.5,2.5a6.81,6.81,0,0,0,3.2-4.2A65.93,65.93,0,0,0,29.2,89.5Zm-9.1-28,5.2,5.7a13.56,13.56,0,0,1-19.1-.8l5.7-5.2A5.92,5.92,0,0,0,20.1,61.5ZM12,61.1,6.3,66.3a13.56,13.56,0,0,1,.8-19.1l5.2,5.7a5.83,5.83,0,0,0-.3,8.2Zm.3-8.2L7.1,47.2a13.56,13.56,0,0,1,19.1.8l-5.7,5.2A5.93,5.93,0,0,0,12.3,52.9Zm7.8,8.6a5.83,5.83,0,0,0,.4-8.2l5.7-5.2a13.56,13.56,0,0,1-.8,19.1Zm1.1-7.2a5.76,5.76,0,0,0-7.9-2.1,5.78,5.78,0,0,0,5.8,10A5.85,5.85,0,0,0,21.2,54.3Z" style="fill:#fff;stroke:#111414;stroke-miterlimit:10;stroke-width:0.5px"/><path class="braces" d="M17.8,86.3h0V89a4.25,4.25,0,0,0-1.1-.2H15.5a3.55,3.55,0,0,0-1,.2V86.3h0a3.55,3.55,0,0,0,1,.2h1.2a2,2,0,0,0,1.1-.2m-4.6-3.9a1.39,1.39,0,0,0-.8.7v3.8L0,87v1.3l12.3-.1V92a.77.77,0,0,0,.7.8h1.1a.76.76,0,0,0,.6-.8v-.5a.77.77,0,0,1,.7-.8h1.2c.3,0,.6.4.6.8v.6c-.1.4.2.7.6.8h1.1c.3,0,.6-.4.6-.8V88.3l12.9-.1V86.9L19.5,87V83.2a.64.64,0,0,0-.6-.8H17.8a.76.76,0,0,0-.6.8v.5a.64.64,0,0,1-.6.8H15.5c-.3,0-.6-.4-.6-.8v-.5c.1-.4-.2-.7-.6-.8Z"/><path class="gum" d="M32.4,105.2H25.5s-2.5,2.5-8,3a10.5,10.5,0,0,1-6-2.6H0" style="fill:none;stroke:#ffb900;stroke-linejoin:round;stroke-width:3px"/><path class="paradontit1" d="M32.4,105.3h-4a4.44,4.44,0,0,0-3.8,2,7.64,7.64,0,0,1-5.7,3.8h-.6a9.56,9.56,0,0,1-7.1-3.8,4.41,4.41,0,0,0-3.6-1.8c-2.9,0-6.4.1-7.6.1" style="fill:none;stroke:#ff822e;stroke-linejoin:round;stroke-width:3px"/><path class="paradontit2" d="M32.4,105.2h-2a4.3,4.3,0,0,0-4,2.2c-1.5,2.8-3.3,7-8.3,7s-6.9-4.1-8.5-7.1c-.8-1.5-2.2-1.7-3.9-1.7H0" style="fill:none;stroke:#f9610d;stroke-linejoin:round;stroke-width:3px"/><path class="paradontit3" d="M32.4,105.4H30.5a4.15,4.15,0,0,0-4,2c-1.5,2.8-1.5,11-8.5,11s-6.7-8.1-8.3-11.1c-.8-1.5-2.3-1.5-4-1.5-2.2-.1-5.1-.1-5.7-.1" style="fill:none;stroke:#f9610d;stroke-linejoin:round;stroke-width:3px"/><path class="paradontit4" d="M32.4,105.3H30.9c-2.1,0-3.8,1.9-4.3,3.9-1.6,5.9-4.1,14.3-9.1,14.3s-7.3-8-8.5-14a4.59,4.59,0,0,0-4.4-3.8H0" style="fill:none;stroke:#f75403;stroke-linejoin:round;stroke-width:3px"/><path class="periodontit" d="M24.4,155.5a4.5,4.5,0,1,1-4.5-4.5A4.48,4.48,0,0,1,24.4,155.5Z" style="fill:#3535ed"/></g></g></g></svg>