<svg xmlns="http://www.w3.org/2000/svg" viewBox="0 0 46.4 180.8"><title>36tooth</title><g class="Слой_2" data-name="Слой 2"><g class="Слой_1-2" data-name="Слой 1"><g class="_36" data-name="36"><path class="background" d="M46.4,180.8H0V0H46.4Z" style="fill:#9fdaff"/><path class="bone" d="M46.4,180.8H0v-75H46.4Z" style="fill:#de82a7"/><path class="bridge" d="M0,80.4H46.4v4H0Zm0-46H46.4v-4H0Zm0,25H46.4v-4H0Z" style="fill:#3535ed"/><path class="root" d="M6,103.5c1.4,5.7,1.3,15.6.9,26.1a41,41,0,0,0,.6,8.6c1.7,10.1,4.5,18.5,10.7,21.6,3.2,2.4,4.1,1.5,3.6-1.6a14,14,0,0,0-1.4-3.9c-2.8-5.1-4.1-12.5-4.2-21.9-.9-6.8.4-11.2,4.4-13,1.6-1.1,3.1-.5,4.7,1.3a48.75,48.75,0,0,1,9.8,23c.8,7.5-1,13.9,2.8,19,2.7,2.5,4.4,1.4,4.9-4.1,0-9.2,1.6-11,.1-27.1s-4.1-19-2.1-26.2" style="fill:#f4ecc8;stroke:#111414;stroke-miterlimit:10;stroke-width:0.25px"/><path class="rootCanal" d="M17.5,152.9c-10.6-33,2-48.9,7.9-46.7,3,1.1,8.5,15.7,11.5,30.3,2.9,14,1.9,27.5,2.8,27.2s3-13.7.7-27.8c-2.9-17.8-6.2-32.3-6.2-32.3-2.8-.1-9.1.9-22-.3-2.2,6.2-3.1,22.8-1.7,32.2.3,9.7,8.1,26.7,10.3,25.9C21.8,161,18,155.1,17.5,152.9Z" style="fill:#3535ed"/><path class="implant" d="M31.5,140.7l-14,2a1.55,1.55,0,0,0,.8.8,15.23,15.23,0,0,0,12.2.1,1.61,1.61,0,0,0,.9-1.5Zm0-4-14.4,2.1.1,2.4,14.3-2.1Zm.1-4L17,134.8l.1,2.4,14.5-2.1Zm.3-4.1L17,130.8l.1,2.4,14.7-2.1Zm.2-4-15.2,2.2.1,2.4L32,127Zm.2-4-15.5,2.2.1,2.4L32.2,123Zm.2-5.2-15.8,2.3.1,2.4,15.6-2.3Zm0-.7-16-.1.1,2.6,15.9-2.3Zm1.8-4.7h-.5l-18.1-.1h-.5v1.9a1.42,1.42,0,0,0,.2.6.91.91,0,0,0,.8.4h1l15,.1h1a.92.92,0,0,0,.9-1Zm0-4.1c0-.6-.3-1-.9-1l-18.1-.1a.92.92,0,0,0-.9,1v1a1.05,1.05,0,0,0,.5.9c.2.1.3.2.5.2l18.1.1a.9.9,0,0,0,.5-.1.89.89,0,0,0,.5-.8C34.6,107.1,34.6,105.9,34.3,105.9Z" style="fill:#3535ed"/><path class="rootMask" d="M6,103.5c1.4,5.7,1.3,15.6.9,26.1a41,41,0,0,0,.6,8.6c1.7,10.1,4.5,18.5,10.7,21.6,3.2,2.4,4.1,1.5,3.6-1.6a14,14,0,0,0-1.4-3.9c-2.8-5.1-4.1-12.5-4.2-21.9-.9-6.8.4-11.2,4.4-13,1.6-1.1,3.1-.5,4.7,1.3a48.75,48.75,0,0,1,9.8,23c.8,7.5-1,13.9,2.8,19,2.7,2.5,4.4,1.4,4.9-4.1,0-9.2,1.6-11,.1-27.1s-4.1-19-2.1-26.2" style="fill:#f4ecc8;stroke:#111414;stroke-miterlimit:10;stroke-width:0.25px"/><path class="coronaLingual" d="M43.9,30.9c-.1,1.5-1.7,3-2.7,4C37,39,32.6,39.8,25.9,36.6a8.6,8.6,0,0,0-8.5-.4C9.5,38.3,3,37.8,2.3,25.6a47.37,47.37,0,0,1,2-9.8,7.38,7.38,0,0,1,3.5-4.4l1.8-1a75.87,75.87,0,0,1,27.7.6,5.41,5.41,0,0,1,3.2,1.8,9.68,9.68,0,0,1,1.8,3.1A41.74,41.74,0,0,1,43.9,30.9Z" style="fill:#fff;stroke:#111414;stroke-miterlimit:10;stroke-width:0.5px"/><path class="coronaLingualIncisalDistal" d="M35.3,31h8.5c-.2,1.4-1.6,2.6-2.6,3.6a12.28,12.28,0,0,1-5.9,3.5V31Z" style="fill:#3535ed"/><path class="coronaLingualIncisalMiddle" d="M15.4,31h20v7.1c-2.6.6-5.7.1-9.4-1.7a8.6,8.6,0,0,0-8.5-.4,16,16,0,0,1-2.1.5V31Z" style="fill:#3535ed"/><path class="coronaLingualIncisionMesial" d="M3.4,31h12v5.5c-5.5,1.2-10.1.4-12-5.5Z" style="fill:#3535ed"/><path class="coronaLingualMiddleDistal" d="M44,30.6c0,.2-.1.3-.1.4H35.3V17.3h7.5A49.59,49.59,0,0,1,44,30.6Z" style="fill:#3535ed"/><path class="coronaLingualMiddleMiddle" d="M35.3,31h-20V17.3h20Z" style="fill:#3535ed"/><path class="coronaLingualMiddleMesial" d="M4.1,17.3H15.5V31H3.5a26.18,26.18,0,0,1-.9-5.6,52.71,52.71,0,0,1,1.5-8.1Z" style="fill:#3535ed"/><path class="coronaLingualCervicalDistal" d="M42.7,17.3H35.2V10.5l2.1.4a5.41,5.41,0,0,1,3.2,1.8,9.68,9.68,0,0,1,1.8,3.1A4.19,4.19,0,0,1,42.7,17.3Z" style="fill:#3535ed"/><path class="coronaLingualCervicalMiddle" d="M35.4,10.5v6.8h-20V9.5A79,79,0,0,1,35.4,10.5Z" style="fill:#3535ed"/><path class="coronaLingualCervicalMesial" d="M15.5,9.5v7.8H4c.2-.6.3-1.1.5-1.7A7,7,0,0,1,8,11.2l1.8-1C11.6,9.9,13.5,9.7,15.5,9.5Z" style="fill:#3535ed"/><path class="coronaLabial" d="M43.1,102c-1.2,2.3-2.7,3.6-4.7,3.4H32.7a8.49,8.49,0,0,0-3.8.9c-2.9,1.5-5.7,1.8-8.2.2a10.6,10.6,0,0,0-4.5-1.6,16.93,16.93,0,0,0-5.5.1,5.38,5.38,0,0,1-6-3.1,7.94,7.94,0,0,1-.6-2.2A56.88,56.88,0,0,1,2.4,80a6.76,6.76,0,0,1,3.8-5.5c4.6-2,9.4-1.1,14.4,1.5a6,6,0,0,0,6.2-.5,19.68,19.68,0,0,1,12.9-.4c4.7,2,6.3,6,5.7,11.5A43.58,43.58,0,0,1,43.1,102Z" style="fill:#fff;stroke:#111414;stroke-miterlimit:10;stroke-width:0.5px"/><path class="coronaLabialIncisalDistal" d="M44.7,79.7H32.8V74.2a19.85,19.85,0,0,1,6.9.9A9.39,9.39,0,0,1,44.7,79.7Z" style="fill:#3535ed"/><path class="coronaLabialIncisalMiddle" d="M33,74.2v5.5H13V73.6a21.62,21.62,0,0,1,7.8,2.5,6,6,0,0,0,6.2-.5A18.85,18.85,0,0,1,33,74.2Z" style="fill:#3535ed"/><path class="coronaLabialIncisionMesial" d="M13,73.6v6.1H2.7a6.75,6.75,0,0,1,3.7-5.1A13.68,13.68,0,0,1,13,73.6Z" style="fill:#3535ed"/><path class="coronaLabialMiddleDistal" d="M45.4,86.5A49.3,49.3,0,0,1,44.3,98H32.9V79.7H44.7A13.27,13.27,0,0,1,45.4,86.5Z" style="fill:#3535ed"/><path class="coronaLabialMiddleMiddle" d="M32.9,98h-20V79.7h20Z" style="fill:#3535ed"/><path class="coronaLabialMiddleMesial" d="M13,79.7V98H4A57.43,57.43,0,0,1,2.7,80a.37.37,0,0,0,.1-.3Z" style="fill:#3535ed"/><path class="coronaLabialCervicalDistal" d="M44.4,98.1c-.3,1.3-.7,2.7-1.1,4-1.2,2.3-2.7,3.6-4.7,3.4H32.9V98.1Z" style="fill:#3535ed"/><path class="coronaLabialCervicalMiddle" d="M13,98.1H33v7.4h0a8.49,8.49,0,0,0-3.8.9c-2.9,1.5-5.7,1.8-8.2.2a10.6,10.6,0,0,0-4.5-1.6,20.48,20.48,0,0,0-3.5-.1V98.1Z" style="fill:#3535ed"/><path class="coronaLabialCervicalMesial" d="M4,98.1h9v6.8a13.55,13.55,0,0,0-2,.2A5.38,5.38,0,0,1,5,102a7.94,7.94,0,0,1-.6-2.2c-.1-.6-.3-1.1-.4-1.7Z" style="fill:#3535ed"/><path class="veneer" d="M26.3,81.8c3.1-1.2,3.5-1,5.5,1.6l1.3,1.8-.8-2.1c-1.2-3.1-1.1-3.5,1.6-5.5l1.8-1.3-2.1.8c-3.1,1.2-3.5,1-5.5-1.6l-1.3-1.8.8,2.1c1.2,3.1,1.1,3.5-1.6,5.5l-1.7,1.3Zm1.4,11.8c1.9-.7,2.1-.6,3.3,1l1.3,1.8-.8-2.1c-.7-1.9-.6-2.1,1-3.3l1.8-1.3-2.1.8c-1.9.7-2.1.6-3.3-1l-1.3-1.8.8,2.1c.7,1.9.6,2.1-1,3.3l-1.8,1.3Zm11.2-2.8c1.9-.7,2.1-.6,3.3,1l1.3,1.8-.8-2.1c-.7-1.9-.6-2.1,1-3.3l1.8-1.3-2.1.8c-1.9.7-2.1.6-3.3-1l-1.3-1.8.8,2.1c.7,1.9.6,2.1-1,3.3l-1.8,1.3ZM15.3,82.1c1.9-.7,2.1-.6,3.3,1l1.3,1.8-.7-2.1c-.7-1.9-.6-2.1,1-3.3L22,78.2l-2.1.8c-1.9.7-2.1.6-3.3-1l-1.3-1.8.8,2.1c.7,1.9.6,2.1-1,3.3l-1.8,1.3ZM12,90.6c1.9-.7,2.1-.6,3.3,1l1.3,1.8-.8-2.1c-.7-1.9-.6-2.1,1-3.3l1.8-1.3-2.1.8c-1.9.7-2.1.6-3.3-1l-1.3-1.8.8,2.1c.7,1.9.6,2.1-1,3.3L9.9,91.4Z" style="fill:#3535ed"/><path class="coronaTop" d="M19,60.6l-5.7,5.2h0a13.56,13.56,0,0,0,19.1.8l-5.2-5.7A5.83,5.83,0,0,1,19,60.6Zm0,0a5.83,5.83,0,0,1,.3-8.2l-5.2-5.7a13.56,13.56,0,0,0-.8,19.1L19,60.6Zm8.5-7.9,5.7-5.2a13.56,13.56,0,0,0-19.1-.8l5.2,5.7A5.83,5.83,0,0,1,27.5,52.7Zm4.9,13.9a13.56,13.56,0,0,0,.8-19.1l-5.7,5.2a5.74,5.74,0,0,1-.3,8.2Zm-3.2-9.9a5.8,5.8,0,1,1-5.8-5.8A5.8,5.8,0,0,1,29.2,56.7Z" style="fill:#fff;stroke:#000;stroke-miterlimit:10"/><path class="coronaTopBuccal" d="M19,60.6l-5.7,5.2h0a13.56,13.56,0,0,0,19.1.8l-5.2-5.7A5.83,5.83,0,0,1,19,60.6Z" style="fill:#3535ed"/><path class="coronaTopMedial" d="M19,60.6a5.83,5.83,0,0,1,.3-8.2l-5.2-5.7a13.56,13.56,0,0,0-.8,19.1L19,60.6Z" style="fill:#3535ed"/><path class="coronaTopLingual" d="M27.5,52.7l5.7-5.2a13.56,13.56,0,0,0-19.1-.8l5.2,5.7A5.83,5.83,0,0,1,27.5,52.7Z" style="fill:#3535ed"/><path class="coronaTopDistal" d="M32.4,66.6a13.56,13.56,0,0,0,.8-19.1l-5.7,5.2a5.74,5.74,0,0,1-.3,8.2Z" style="fill:#3535ed"/><path class="coronaTopOclusial" d="M29,56.6a5.8,5.8,0,1,1-5.8-5.8A5.8,5.8,0,0,1,29,56.6Z" style="fill:#3535ed"/><path class="silant" d="M30.1,62.2a16.09,16.09,0,0,1-5.9,1.3c-3.3,0-4.8-1.2-4.8-2.7s1.2-2.4,4.5-3.3c4.4-1.1,6.5-2.9,6.5-5.1,0-2.9-3.1-5.3-8.4-5.3a15.66,15.66,0,0,0-6,1.1l1.1,2.4a13.11,13.11,0,0,1,5-1c2.6,0,4.1,1.2,4.1,2.5,0,1.5-1.5,2.2-4.7,3.1-4.2,1.2-6.4,2.7-6.4,5.4,0,3.2,3.4,5.4,9.2,5.4a19,19,0,0,0,6.9-1.2Z" style="fill:#3535ed"/><path class="crown" d="M43.9,30.9c-.1,1.5-1.7,3-2.7,4C37,39,32.6,39.8,25.9,36.6a8.6,8.6,0,0,0-8.5-.4C9.5,38.3,3,37.8,2.3,25.6a47.37,47.37,0,0,1,2-9.8,7.38,7.38,0,0,1,3.5-4.4l1.8-1a75.87,75.87,0,0,1,27.7.6,5.41,5.41,0,0,1,3.2,1.8,9.68,9.68,0,0,1,1.8,3.1A41.74,41.74,0,0,1,43.9,30.9Zm1.5,55.7c.6-5.5-1-9.5-5.7-11.5a19.68,19.68,0,0,0-12.9.4,6,6,0,0,1-6.2.5c-5-2.6-9.8-3.5-14.4-1.5A6.76,6.76,0,0,0,2.4,80,56.88,56.88,0,0,0,4.1,99.7a7.94,7.94,0,0,0,.6,2.2,5.38,5.38,0,0,0,6,3.1,16.93,16.93,0,0,1,5.5-.1,10.6,10.6,0,0,1,4.5,1.6c2.5,1.6,5.3,1.3,8.2-.2a8.49,8.49,0,0,1,3.8-.9h5.7c2,.2,3.5-1.1,4.7-3.4A43.58,43.58,0,0,0,45.4,86.6ZM27.2,60.9l5.2,5.7a13.56,13.56,0,0,1-19.1-.8h0L19,60.6A5.83,5.83,0,0,0,27.2,60.9ZM19,60.6l-5.7,5.2a13.56,13.56,0,0,1,.8-19.1l5.2,5.7a5.83,5.83,0,0,0-.3,8.2Zm.3-8.2-5.2-5.7a13.56,13.56,0,0,1,19.1.8l-5.7,5.2A5.83,5.83,0,0,0,19.3,52.4Zm7.9,8.5a5.74,5.74,0,0,0,.3-8.2l5.7-5.2a13.56,13.56,0,0,1-.8,19.1Zm-3.8-10a5.8,5.8,0,1,0,5.8,5.8A5.8,5.8,0,0,0,23.4,50.9Z" style="fill:#fff;stroke:#111414;stroke-miterlimit:10;stroke-width:0.5px"/><path class="braces" d="M24.8,86.3h0V89a4.25,4.25,0,0,0-1.1-.2H22.5a3.55,3.55,0,0,0-1,.2V86.3h0a3.55,3.55,0,0,0,1,.2h1.2a2,2,0,0,0,1.1-.2m-4.6-3.9a1,1,0,0,0-.7.7v3.8H0v1.3H19.4V92a.77.77,0,0,0,.7.8h1.1a.76.76,0,0,0,.6-.8v-.5a.77.77,0,0,1,.7-.8h1.2a.77.77,0,0,1,.7.8v.6c-.1.4.2.7.6.8h1.1a.77.77,0,0,0,.7-.8V88.3H46.4V87H26.7V83.2a.77.77,0,0,0-.7-.8H24.9a.76.76,0,0,0-.6.8v.5a.77.77,0,0,1-.7.8H22.5c-.3,0-.6-.4-.6-.8v-.5c.1-.4-.2-.7-.6-.8Z"/><path class="gum" d="M46.4,105.1a52.61,52.61,0,0,0-5.9.3s-6-1.3-16.5,3.5c-7.5-3.8-9.5-3.8-16-3.5-2.3.1-5.8.1-8,.1" style="fill:none;stroke:#ffb900;stroke-linejoin:round;stroke-width:3px"/><path class="paradontit1" d="M46.4,105.1H42a4.2,4.2,0,0,0-2.6.8c-2.4,1.7-8.2,6.8-14.8,6.4-13.5-.5-15.1-6.9-16.6-6.9l-6.3.1a9.58,9.58,0,0,1-1.7,0" style="fill:none;stroke:#ff822e;stroke-linejoin:round;stroke-width:3px"/><path class="paradontit2" d="M46.4,105.1H42.7a4.48,4.48,0,0,0-3.4,1.5c-2.5,2.9-8.4,9.7-14.8,9.3C11,115.4,9.8,105.5,8.3,105.5H0" style="fill:none;stroke:#f9610d;stroke-linejoin:round;stroke-width:3px"/><path class="paradontit3" d="M46.4,105.1H42.6a4.48,4.48,0,0,0-3.4,1.5c-2.5,2.9-4.6,12.9-14.4,12.8-13.5-.5-15.3-14-16.8-14l-5.7.1H0" style="fill:none;stroke:#f9610d;stroke-linejoin:round;stroke-width:3px"/><path class="paradontit4" d="M46.4,105.1H43.3a4.88,4.88,0,0,0-4,2.8c-2.6,5-.9,15-15.9,15S9.5,105.5,8,105.5H0" style="fill:none;stroke:#f75403;stroke-linejoin:round;stroke-width:3px"/><path class="periodontit" d="M45.4,166.5a4.5,4.5,0,1,1-4.5-4.5A4.48,4.48,0,0,1,45.4,166.5Zm-20.9-3A4.5,4.5,0,1,1,20,159,4.55,4.55,0,0,1,24.5,163.5Z" style="fill:#3535ed"/></g></g></g></svg>