<svg xmlns="http://www.w3.org/2000/svg" viewBox="0 0 32.4 180.8"><title>44tooth</title><g class="Слой_2" data-name="Слой 2"><g class="Слой_1-2" data-name="Слой 1"><g class="_44" data-name="44"><path class="background" d="M0,0H32.4V180.8H0V0Z" style="fill:#9fdaff"/><path class="bone" d="M0,105.8H32.4v75H0v-75Z" style="fill:#de82a7"/><path class="bridge" d="M32.4,59.4H0v-4H32.4v4Zm0-29H0v4H32.4v-4Zm0,50H0v4H32.4v-4Z" style="fill:#3535ed"/><path class="root" d="M23.2,102.1l-2.1,26.7a14.77,14.77,0,0,0-.1,2.1c0,9.5-.2,18.6-4.6,22.9-1.8,2.5-3.3,3-4.4,1a5.37,5.37,0,0,1-.6-3.5c1.6-10.3.5-21.6-1.9-33.2L5.1,102.3" style="fill:#f4ecc8;stroke:#111414;stroke-miterlimit:10;stroke-width:0.25px"/><path class="rootCanal" d="M13.4,156a.86.86,0,0,1-.6-.3c2.2-17.1,1.3-23.1-.5-36.1-.8-5.4-1.7-12.2-2.7-21.5q1.5-2.7,3.9-2.7c2.7,0,5.4,2.7,5.4,2.7.9,1.1.1,47.2-4.2,56.4C14.4,155.5,13.9,156,13.4,156Zm.1-60.4h0c2.7,0,5.3,2.7,5.3,2.7h0c.9,2.2-.2,49.2-4.5,56.7-.2.4-.6.9-1,.9-.2,0-.3-.1-.5-.2,2.2-17.1,1.3-23-.5-36.1-.8-5.4-1.7-12.1-2.7-21.4,1.1-1.7,2.4-2.6,3.9-2.6m0-.3c-1.4,0-2.9.7-4,2.9,3.2,31.3,6.3,33.2,3.2,57.6a1.33,1.33,0,0,0,.7.3c5.5,0,6.8-57.9,5.6-58,0,0-2.7-2.8-5.5-2.8Z" style="fill:none"/><path class="implant" d="M7.4,142a1.9,1.9,0,0,0,1,1.6,15.23,15.23,0,0,0,12.2-.1,1.39,1.39,0,0,0,.7-.8l-14-2Zm-.1-2.9,14.3,2.1.1-2.5L7.3,136.6v2.5ZM7.2,135l14.5,2.1.1-2.5L7.1,132.5ZM7,131.1l14.8,2.1.1-2.5L7,128.6v2.5ZM6.9,127l15,2.3.1-2.5L6.8,124.5Zm-.2-4L22,125.3l.1-2.5L6.5,120.5Zm-.2-5.1,15.7,2.3.1-2.5L6.5,115.4ZM6.4,115l15.9,2.4.1-2.7-16,.1Zm-1.6-3.1a.94.94,0,0,0,1,1H6.9l15-.1H23a.91.91,0,0,0,.7-.3,1.85,1.85,0,0,0,.2-.7v-1.9h-.4L5.4,110H5Zm-.5-4.7a1.49,1.49,0,0,0,.4.9.6.6,0,0,0,.4.1l18.1-.1c.2,0,.3-.1.4-.1a1,1,0,0,0,.4-.9v-1.2a.94.94,0,0,0-1-1h0L4.9,105a1.08,1.08,0,0,0-1,1h0v1.2Z" style="fill:#3535ed"/><path class="rootMask" d="M23.2,102.1l-2.1,26.7a14.77,14.77,0,0,0-.1,2.1c0,9.5-.2,18.6-4.6,22.9-1.8,2.5-3.3,3-4.4,1a5.37,5.37,0,0,1-.6-3.5c1.6-10.3.5-21.6-1.9-33.2L5.1,102.3" style="fill:#f4ecc8;stroke:#111414;stroke-miterlimit:10;stroke-width:0.25px"/><path class="coronaLingual" d="M10,10c4.1-2.1,7.8-2.2,11.1-.4A8.06,8.06,0,0,1,24,12.5c2.9,4.9,5,9.8,4.9,14.6a9.43,9.43,0,0,1-2.4,6c-6.9,7.6-13.8,7.5-20.6.8A5.82,5.82,0,0,1,4,30c-.5-4.3.7-10.1,3.8-17.3A3.59,3.59,0,0,1,10,10Z" style="fill:#fff;stroke:#111414;stroke-miterlimit:10;stroke-width:0.5px"/><path class="coronaLingualIncisalDistal" d="M4,30.6h7.6v7.1a19.71,19.71,0,0,1-5.8-4.1A6.22,6.22,0,0,1,4,30.6Z" style="fill:#3535ed"/><path class="coronaLingualIncisalMiddle" d="M21.5,30.6v6.3a10.75,10.75,0,0,1-10,.8V30.6Z" style="fill:#3535ed"/><path class="coronaLingualIncisionMesial" d="M27.8,30.6a11.35,11.35,0,0,1-1.5,2.3A20.88,20.88,0,0,1,21.5,37V30.7Z" style="fill:#3535ed"/><path class="coronaLingualMiddleDistal" d="M5.9,16.9h5.7V30.6H4c-.1-.3-.1-.5-.2-.8Q3.2,24.7,5.9,16.9Z" style="fill:#3535ed"/><path class="coronaLingualMiddleMiddle" d="M11.6,16.9h10V30.6h-10Z" style="fill:#3535ed"/><path class="coronaLingualMiddleMesial" d="M26.2,16.9a22.92,22.92,0,0,1,2.4,9.9,8.49,8.49,0,0,1-.9,3.8H21.4V16.9Z" style="fill:#3535ed"/><path class="coronaLingualCervicalDistal" d="M7.6,12.4A5.08,5.08,0,0,1,10,9.8a11.11,11.11,0,0,1,1.6-.7v7.8H5.9C6.4,15.5,6.9,14,7.6,12.4Z" style="fill:#3535ed"/><path class="coronaLingualCervicalMiddle" d="M20.9,9.4a1,1,0,0,1,.5.4V17h-10V9.2C15,7.7,18.2,7.8,20.9,9.4Z" style="fill:#3535ed"/><path class="coronaLingualCervicalMesial" d="M23.7,12.2c.9,1.5,1.7,3.1,2.5,4.7H21.4V9.7A9.15,9.15,0,0,1,23.7,12.2Z" style="fill:#3535ed"/><path class="coronaLabial" d="M3.2,89.5A10.93,10.93,0,0,1,4.5,82c7.6-10.2,14.7-11.1,21.2-.5q2.7,4.65.9,11.1a52.43,52.43,0,0,1-3.3,9.4,9,9,0,0,1-1.5,1.9c-4.7,4.1-9.2,5-13.5,2.5a6.81,6.81,0,0,1-3.2-4.2A65.93,65.93,0,0,1,3.2,89.5Z" style="fill:#fff;stroke:#111414;stroke-miterlimit:10;stroke-width:0.5px"/><path class="coronaLabialIncisalDistal" d="M11.5,75.3v4.5H6.4A18.37,18.37,0,0,1,11.5,75.3Z" style="fill:#3535ed"/><path class="coronaLabialIncisalMiddle" d="M20.7,75.8v3.9H11.4V75.2A8,8,0,0,1,20.7,75.8Z" style="fill:#3535ed"/><path class="coronaLabialIncisionMesial" d="M24.4,79.8H20.7V75.9A17.14,17.14,0,0,1,24.4,79.8Z" style="fill:#3535ed"/><path class="coronaLabialMiddleDistal" d="M4.5,82c.6-.8,1.2-1.6,1.8-2.3h5.2V98H4.2a61.27,61.27,0,0,1-1.1-8.6A11.39,11.39,0,0,1,4.5,82Z" style="fill:#3535ed"/><path class="coronaLabialMiddleMiddle" d="M11.5,79.7h9.3V98H11.5Z" style="fill:#3535ed"/><path class="coronaLabialMiddleMesial" d="M24.4,79.7l1.2,1.8q2.7,4.65.9,11.1a49.76,49.76,0,0,1-1.6,5.5H20.7V79.8l3.7-.1Z" style="fill:#3535ed"/><path class="coronaLabialCervicalDistal" d="M11.5,98.1v9.5a9.08,9.08,0,0,1-3.1-1.2,6.81,6.81,0,0,1-3.2-4.2c-.4-1.4-.7-2.7-1-4.1Z" style="fill:#3535ed"/><path class="coronaLabialCervicalMiddle" d="M20.7,98v6.6c-3.2,2.5-6.3,3.5-9.3,2.9V98Z" style="fill:#3535ed"/><path class="coronaLabialCervicalMesial" d="M24.9,98c-.5,1.3-1.1,2.7-1.7,3.9a9,9,0,0,1-1.5,1.9,9,9,0,0,0-1,.9V98.1l4.2-.1Z" style="fill:#3535ed"/><path class="veneer" d="M16.7,82.3l-1.6-1.2c-2.4-1.8-2.5-2.2-1.4-5l.7-1.9-1.2,1.6c-1.8,2.4-2.1,2.5-4.9,1.5l-1.9-.7L8,77.8c2.4,1.8,2.5,2.2,1.4,5l-.7,1.9,1.2-1.6c1.8-2.4,2.1-2.5,4.9-1.5ZM15.5,92.8l-1.6-1.2c-1.4-1.1-1.5-1.3-.9-3l.7-1.9-1.2,1.6c-1.1,1.5-1.3,1.5-2.9.9l-1.9-.7,1.6,1.2c1.4,1.1,1.5,1.3.9,3l-.6,1.8,1.2-1.6c1.1-1.5,1.2-1.5,2.9-.9Zm-7-4.6L6.9,87c-1.4-1.1-1.5-1.3-.9-3l.7-1.9L5.5,83.7c-1.1,1.4-1.3,1.5-2.9.9L.7,83.9l1.6,1.2c1.4,1.1,1.5,1.3.9,3L2.5,90l1.2-1.6c1.1-1.5,1.2-1.5,2.9-.9Zm17.8-5.6-1.6-1.2c-1.4-1.1-1.5-1.3-.9-3l.7-1.9-1.1,1.6c-1.1,1.5-1.2,1.5-2.9.9l-1.9-.7,1.6,1.2c1.4,1.1,1.5,1.3.9,3l-.7,1.9,1.2-1.6c1.1-1.5,1.2-1.5,3-.9ZM29.4,90l-1.6-1.2c-1.4-1.1-1.5-1.3-.9-3l.7-1.9-1.2,1.6c-1.1,1.5-1.3,1.5-2.9.9l-1.9-.7,1.6,1.2c1.4,1.1,1.5,1.3.9,3l-.6,1.8,1.2-1.6c1.1-1.5,1.2-1.5,2.9-.9Z" style="fill:#3535ed"/><path class="coronaTop" d="M12.3,61.5,7.1,67.2a13.56,13.56,0,0,0,19.1-.8l-5.7-5.2A5.92,5.92,0,0,1,12.3,61.5Zm8.1-.4,5.7,5.2a13.56,13.56,0,0,0-.8-19.1l-5.2,5.7a5.83,5.83,0,0,1,.3,8.2Zm-.3-8.2,5.2-5.7A13.56,13.56,0,0,0,6.2,48l5.7,5.2A5.93,5.93,0,0,1,20.1,52.9Zm-7.8,8.6a5.83,5.83,0,0,1-.4-8.2L6.2,48.1A13.56,13.56,0,0,0,7,67.2Zm-1.1-7.2a5.76,5.76,0,0,1,7.9-2.1,5.78,5.78,0,0,1-5.8,10A5.85,5.85,0,0,1,11.2,54.3Z" style="fill:#fff;stroke:#000;stroke-miterlimit:10"/><path class="coronaTopBuccal" d="M12.3,61.5,7.1,67.2a13.56,13.56,0,0,0,19.1-.8l-5.7-5.2A5.92,5.92,0,0,1,12.3,61.5Z" style="fill:#3535ed"/><path class="coronaTopMedial" d="M20.4,61.1l5.7,5.2a13.56,13.56,0,0,0-.8-19.1l-5.2,5.7a5.83,5.83,0,0,1,.3,8.2Z" style="fill:#3535ed"/><path class="coronaTopLingual" d="M20.1,52.9l5.2-5.7A13.56,13.56,0,0,0,6.2,48l5.7,5.2A5.93,5.93,0,0,1,20.1,52.9Z" style="fill:#3535ed"/><path class="coronaTopDistal" d="M12.3,61.5a5.83,5.83,0,0,1-.4-8.2L6.2,48.1A13.56,13.56,0,0,0,7,67.2Z" style="fill:#3535ed"/><path class="coronaTopOclusial" d="M11.2,54.3a5.76,5.76,0,0,1,7.9-2.1,5.78,5.78,0,0,1-5.8,10A5.85,5.85,0,0,1,11.2,54.3Z" style="fill:#3535ed"/><path class="silant" d="M8.2,65.4a19,19,0,0,0,6.9,1.2c5.8,0,9.2-2.2,9.2-5.4,0-2.7-2.2-4.2-6.4-5.4-3.2-.9-4.7-1.6-4.7-3.1,0-1.3,1.5-2.5,4.1-2.5a13.11,13.11,0,0,1,5,1l1.1-2.4a15.66,15.66,0,0,0-6-1.1C12.1,47.7,9,50.1,9,53c0,2.2,2.1,4,6.5,5.1,3.3.9,4.5,1.8,4.5,3.3s-1.5,2.7-4.8,2.7a16.09,16.09,0,0,1-5.9-1.3Z" style="fill:#3535ed"/><path class="crown" d="M10,10c4.1-2.1,7.8-2.2,11.1-.4A8.06,8.06,0,0,1,24,12.5c2.9,4.9,5,9.8,4.9,14.6a9.43,9.43,0,0,1-2.4,6c-6.9,7.6-13.8,7.5-20.6.8A5.82,5.82,0,0,1,4,30c-.5-4.3.7-10.1,3.8-17.3A3.59,3.59,0,0,1,10,10ZM5.1,102.2a6.81,6.81,0,0,0,3.2,4.2c4.3,2.5,8.8,1.6,13.5-2.5a9,9,0,0,0,1.5-1.9,52.43,52.43,0,0,0,3.3-9.4q1.8-6.45-.9-11.1c-6.5-10.6-13.6-9.7-21.2.5a10.93,10.93,0,0,0-1.3,7.5A65.93,65.93,0,0,0,5.1,102.2Zm15.4-41,5.7,5.2a13.56,13.56,0,0,1-19.1.8l5.2-5.7A5.92,5.92,0,0,0,20.5,61.2Zm-.1-.1a5.83,5.83,0,0,0-.3-8.2l5.2-5.7a13.56,13.56,0,0,1,.8,19.1l-5.7-5.2Zm-8.5-7.9L6.2,48a13.56,13.56,0,0,1,19.1-.8l-5.2,5.7A5.93,5.93,0,0,0,11.9,53.2ZM7,67.2a13.56,13.56,0,0,1-.8-19.1l5.7,5.2a5.83,5.83,0,0,0,.4,8.2Zm6.3-5a5.78,5.78,0,0,0,5.8-10,5.76,5.76,0,0,0-7.9,2.1A5.85,5.85,0,0,0,13.3,62.2Z" style="fill:#fff;stroke:#111414;stroke-miterlimit:10;stroke-width:0.5px"/><path class="braces" d="M14.6,86.3a2,2,0,0,0,1.1.2h1.2a3.55,3.55,0,0,0,1-.2h0V89a3.55,3.55,0,0,0-1-.2H15.7a4.25,4.25,0,0,0-1.1.2V86.3h0m4.6-3.9H18.1c-.4.1-.7.4-.6.8v.5c0,.4-.3.8-.6.8H15.8a.64.64,0,0,1-.6-.8v-.5a.76.76,0,0,0-.6-.8H13.5a.64.64,0,0,0-.6.8V87L0,86.9v1.3l12.9.1v3.8c0,.4.3.8.6.8h1.1c.4-.1.7-.4.6-.8v-.6c0-.4.3-.8.6-.8H17a.77.77,0,0,1,.7.8V92a.76.76,0,0,0,.6.8h1.1a.77.77,0,0,0,.7-.8V88.2l12.3.1V87L20,86.9V83.1a1.39,1.39,0,0,0-.8-.7Z"/><path class="gum" d="M32.4,105.6H20.9a10.5,10.5,0,0,1-6,2.6c-5.5-.5-8-3-8-3H0" style="fill:none;stroke:#ffb900;stroke-linejoin:round;stroke-width:3px"/><path class="paradontit1" d="M32.4,105.6c-1.2,0-4.7-.1-7.6-.1a4.41,4.41,0,0,0-3.6,1.8,9.56,9.56,0,0,1-7.1,3.8h-.6a7.64,7.64,0,0,1-5.7-3.8,4.44,4.44,0,0,0-3.8-2H0" style="fill:none;stroke:#ff822e;stroke-linejoin:round;stroke-width:3px"/><path class="paradontit2" d="M32.4,105.6H26.7c-1.7,0-3.1.2-3.9,1.7-1.6,3-3.5,7.1-8.5,7.1s-6.8-4.2-8.3-7a4.3,4.3,0,0,0-4-2.2H0" style="fill:none;stroke:#f9610d;stroke-linejoin:round;stroke-width:3px"/><path class="paradontit3" d="M32.4,105.7c-.6,0-3.5,0-5.7.1-1.7,0-3.2,0-4,1.5-1.6,3-1.3,11.1-8.3,11.1s-7-8.2-8.5-11a4.15,4.15,0,0,0-4-2H0" style="fill:none;stroke:#f9610d;stroke-linejoin:round;stroke-width:3px"/><path class="paradontit4" d="M32.4,105.7H27.8a4.59,4.59,0,0,0-4.4,3.8c-1.2,6-3.5,14-8.5,14s-7.5-8.4-9.1-14.3c-.5-2-2.2-3.9-4.3-3.9H0" style="fill:none;stroke:#f75403;stroke-linejoin:round;stroke-width:3px"/><path class="periodontit" d="M12.5,151A4.5,4.5,0,1,1,8,155.5,4.48,4.48,0,0,1,12.5,151Z" style="fill:#3535ed"/></g></g></g></svg>