<svg xmlns="http://www.w3.org/2000/svg" viewBox="0 0 32.4 180.8"><title>45tooth</title><g class="Слой_2" data-name="Слой 2"><g class="Слой_1-2" data-name="Слой 1"><g class="_45" data-name="45"><path class="background" d="M0,0H32.4V180.8H0Z" style="fill:#9fdaff"/><path class="bone" d="M0,105.8H32.4v75H0Z" style="fill:#de82a7"/><path class="bridge" d="M32.4,84.4H0v-4H32.4Zm0-54H0v4H32.4Zm0,25H0v4H32.4Z" style="fill:#3535ed"/><path class="root" d="M26.3,98.1,22.7,130c-1.2,12.6-3,22.6-6.1,25.3-3.1,3.4-4.9,3.7-4.6-.9a107.55,107.55,0,0,0,0-34.9L7.7,101.1" style="fill:#f4ecc8;stroke:#111414;stroke-miterlimit:10;stroke-width:0.25px"/><path class="rootCanal" d="M21.2,103.8c-1.8,11.5-1.7,29-3.8,42.5A26.39,26.39,0,0,1,13.5,157c-.2.3-1.7,1.4-1.8,1.1s3.1-4.7,3.6-12.1c.8-13.6-3-30.9-4.2-42.3C12.9,99,17.4,92.7,21.2,103.8Z" style="fill:#3535ed;stroke:#201600;stroke-miterlimit:10;stroke-width:0.25px"/><path class="implant" d="M8.9,142a1.9,1.9,0,0,0,1,1.6,15.23,15.23,0,0,0,12.2-.1,1.39,1.39,0,0,0,.7-.8l-14-2Zm-.1-2.9,14.3,2,.1-2.4L8.8,136.5v2.6Zm-.1-4,14.5,2.2.1-2.5L8.6,132.6ZM8.5,131l14.8,2.2.1-2.4L8.5,128.6V131Zm-.1-4,15,2.2.1-2.4L8.3,124.5Zm-.2-4,15.3,2.3.1-2.5L8,120.5ZM8,117.9l15.7,2.3.1-2.4L8,115.5Zm-.1-3,15.9,2.3.1-2.6-16,.1ZM6.3,112a1.07,1.07,0,0,0,.2.6.91.91,0,0,0,.7.3H8.3l15-.1h1.1a.91.91,0,0,0,.7-.3,1.07,1.07,0,0,0,.2-.6V110h-.4l-18.1.1H6.4Zm-.5-4.8a1.49,1.49,0,0,0,.4.9.6.6,0,0,0,.4.1l18.1-.1c.2,0,.3,0,.4-.1a1,1,0,0,0,.4-.9v-1.2a.94.94,0,0,0-1-1h0L6.4,105a1.08,1.08,0,0,0-1,1v1.2Z" style="fill:#3535ed"/><path class="rootMask" d="M26.3,98.1,22.7,130c-1.2,12.6-3,22.6-6.1,25.3-3.1,3.4-4.9,3.7-4.6-.9a107.55,107.55,0,0,0,0-34.9L7.7,101.1" style="fill:#f4ecc8;stroke:#111414;stroke-miterlimit:10;stroke-width:0.25px"/><path class="coronaLingual" d="M11.2,10.9c4-1.6,7.7-1.9,10.9-.7a5.48,5.48,0,0,1,3,2.8c2.7,5.3,4,10.7,3.1,16.3a6,6,0,0,1-1.3,2.8c-7.1,7.8-14,7.7-20.7,1.5a5.32,5.32,0,0,1-1.7-3.1c-.8-4.5,1.3-10.3,3.4-16A5.6,5.6,0,0,1,11.2,10.9Z" style="fill:#fff;stroke:#111414;stroke-miterlimit:10;stroke-width:0.5px"/><path class="coronaLingualIncisalDistal" d="M4.7,30.9h7v6.2a16.77,16.77,0,0,1-5.4-3.7A5.41,5.41,0,0,1,4.7,30.9Z" style="fill:#3535ed"/><path class="coronaLingualIncisalMiddle" d="M21.4,30.8v5.6a11,11,0,0,1-10,.7V30.9Z" style="fill:#3535ed"/><path class="coronaLingualIncisionMesial" d="M27.4,30.8a4.44,4.44,0,0,1-.8,1.1,22.6,22.6,0,0,1-5.3,4.4V30.8Z" style="fill:#3535ed"/><path class="coronaLingualMiddleDistal" d="M6.7,17.2h4.8V30.9h-7c0-.2-.1-.3-.1-.5C3.6,26.6,5,22,6.7,17.2Z" style="fill:#3535ed"/><path class="coronaLingualMiddleMiddle" d="M11.4,17.2h10V30.9h-10Z" style="fill:#3535ed"/><path class="coronaLingualMiddleMesial" d="M26.8,17.2a24.5,24.5,0,0,1,1.2,12,4.42,4.42,0,0,1-.6,1.6H21.3V17.2Z" style="fill:#3535ed"/><path class="coronaLingualCervicalDistal" d="M7.8,14.5a6.5,6.5,0,0,1,3.5-3.6l.3-.1v6.5H6.8C7.1,16.4,7.5,15.5,7.8,14.5Z" style="fill:#3535ed"/><path class="coronaLingualCervicalMiddle" d="M21.4,9.9v7.3h-10V10.7C15,9.3,18.4,8.9,21.4,9.9Z" style="fill:#3535ed"/><path class="coronaLingualCervicalMesial" d="M21.8,10.1a5.48,5.48,0,0,1,3,2.8c.7,1.4,1.3,2.8,1.9,4.3H21.3V9.9C21.4,10,21.6,10,21.8,10.1Z" style="fill:#3535ed"/><path class="coronaLabial" d="M4.2,90a12.93,12.93,0,0,1,1.3-8.2c7.1-10.6,14.4-10.4,21.9-.9,1.4,1.6,1.9,3.8,1.4,6.6a39.21,39.21,0,0,1-2.1,9.6,9.84,9.84,0,0,1-2,3.4c-6.5,7.2-12,7.6-16.7,1.1A41.58,41.58,0,0,1,4.2,90Z" style="fill:#fff;stroke:#111414;stroke-miterlimit:10;stroke-width:0.5px"/><path class="coronaLabialIncisalDistal" d="M10.7,76.1v3.6H7.1A24.5,24.5,0,0,1,10.7,76.1Z" style="fill:#3535ed"/><path class="coronaLabialIncisalMiddle" d="M10.7,76.1c3.3-2.5,6.6-2.9,10-1.2v4.8h-10Z" style="fill:#3535ed"/><path class="coronaLabialIncisionMesial" d="M26.4,79.9H20.5V75.1A18.35,18.35,0,0,1,26.4,79.9Z" style="fill:#3535ed"/><path class="coronaLabialMiddleDistal" d="M5.6,81.8a19.08,19.08,0,0,1,1.5-2.1h3.6V98H6.5a45.21,45.21,0,0,1-2.2-8A12.93,12.93,0,0,1,5.6,81.8Z" style="fill:#3535ed"/><path class="coronaLabialMiddleMiddle" d="M10.7,79.7h10V98h-10Z" style="fill:#3535ed"/><path class="coronaLabialMiddleMesial" d="M26.4,79.7c.3.4.7.8,1,1.2,1.4,1.6,1.9,3.8,1.4,6.6a39.21,39.21,0,0,1-2.1,9.6,10.37,10.37,0,0,1-.4,1H20.6V79.8l5.8-.1Z" style="fill:#3535ed"/><path class="coronaLabialCervicalDistal" d="M10.7,98.1v6.3a13.74,13.74,0,0,1-2.6-2.8,22.13,22.13,0,0,1-1.6-3.5Z" style="fill:#3535ed"/><path class="coronaLabialCervicalMiddle" d="M20.6,98.1v6.1c-3.7,2.5-7,2.6-10,.2V98.1Z" style="fill:#3535ed"/><path class="coronaLabialCervicalMesial" d="M26.3,98.2a12.54,12.54,0,0,1-1.6,2.4,24.07,24.07,0,0,1-4.1,3.7V98.2Z" style="fill:#3535ed"/><path class="veneer" d="M18.1,81.6l-1.6-1.2c-2.4-1.8-2.5-2.1-1.4-4.9l.7-1.9-1.2,1.6c-1.8,2.4-2.1,2.5-4.9,1.4l-1.9-.7,1.6,1.2c2.4,1.8,2.5,2.1,1.4,4.9l-.7,1.9,1.2-1.6c1.8-2.4,2.1-2.5,4.9-1.4ZM16.9,92.1l-1.6-1.2c-1.4-1.1-1.5-1.3-.9-3l.7-1.9-1.2,1.6c-1.1,1.4-1.3,1.5-2.9.9l-1.9-.7L10.7,89c1.4,1.1,1.5,1.3.9,3l-.7,1.9,1.2-1.6c1.1-1.4,1.3-1.5,3-.9ZM10,87.5,8.4,86.3c-1.4-1.1-1.5-1.3-.9-3l.7-1.9L7,83c-1.1,1.4-1.3,1.5-2.9.9l-1.9-.7,1.6,1.2c1.4,1.1,1.5,1.3.9,3L4,89.3l1.2-1.6c1.1-1.4,1.3-1.5,2.9-.9Zm17.8-5.6-1.6-1.2c-1.4-1.1-1.5-1.3-.9-3l.7-1.9-1.1,1.6c-1.1,1.4-1.3,1.5-2.9.9l-1.9-.7,1.6,1.2c1.4,1.1,1.5,1.3.9,3l-.7,1.9,1.2-1.6c1.1-1.4,1.2-1.5,2.9-.9Zm3.1,7.4-1.6-1.2c-1.4-1.1-1.5-1.2-.9-3l.7-1.9-1.2,1.6c-1.1,1.4-1.3,1.5-2.9.9L23.1,85l1.6,1.2c1.4,1.1,1.5,1.2.9,3l-.7,1.9,1.2-1.6c1.1-1.4,1.3-1.5,2.9-.9Z" style="fill:#3535ed"/><path class="coronaTop" d="M12.2,61,7,66.7a13.56,13.56,0,0,0,19.1-.8h0l-5.7-5.2A5.92,5.92,0,0,1,12.2,61Zm8.2-.4,5.7,5.2a13.56,13.56,0,0,0-.8-19.1l-5.2,5.6a6,6,0,0,1,.3,8.3Zm-.3-8.2,5.2-5.7a13.56,13.56,0,0,0-19.1.8l5.7,5.2A5.83,5.83,0,0,1,20.1,52.4ZM12.2,61a5.83,5.83,0,0,1-.4-8.2L6.1,47.6a13.56,13.56,0,0,0,.8,19.1Zm-.9-7.2a5.78,5.78,0,1,1,2.1,7.9A5.76,5.76,0,0,1,11.3,53.8Z" style="fill:#fff;stroke:#000;stroke-miterlimit:10"/><path class="coronaTopBuccal" d="M12.2,61,7,66.7a13.56,13.56,0,0,0,19.1-.8h0l-5.7-5.2A5.92,5.92,0,0,1,12.2,61Z" style="fill:#3535ed"/><path class="coronaTopMedial" d="M20.4,60.6l5.7,5.2a13.56,13.56,0,0,0-.8-19.1l-5.2,5.6a6,6,0,0,1,.3,8.3Z" style="fill:#3535ed"/><path class="coronaTopLingual" d="M20.1,52.4l5.2-5.7a13.56,13.56,0,0,0-19.1.8l5.7,5.2A5.83,5.83,0,0,1,20.1,52.4Z" style="fill:#3535ed"/><path class="coronaTopDistal" d="M12.2,61a5.83,5.83,0,0,1-.4-8.2L6.1,47.6a13.56,13.56,0,0,0,.8,19.1Z" style="fill:#3535ed"/><path class="coronaTopOclusial" d="M11.2,53.7a5.78,5.78,0,1,1,2.1,7.9A5.83,5.83,0,0,1,11.2,53.7Z" style="fill:#3535ed"/><path class="silant" d="M8.2,64.8A19,19,0,0,0,15.1,66c5.8,0,9.2-2.2,9.2-5.4,0-2.7-2.2-4.2-6.4-5.4-3.2-.9-4.7-1.6-4.7-3.1,0-1.3,1.5-2.5,4.1-2.5a13.11,13.11,0,0,1,5,1l1.1-2.4a15.66,15.66,0,0,0-6-1.1c-5.3,0-8.4,2.4-8.4,5.3,0,2.2,2.1,4,6.5,5.1,3.3.9,4.5,1.8,4.5,3.3s-1.5,2.7-4.8,2.7a16.09,16.09,0,0,1-5.9-1.3Z" style="fill:#3535ed"/><path class="crown" d="M11.2,10.9c4-1.6,7.7-1.9,10.9-.7a5.48,5.48,0,0,1,3,2.8c2.7,5.3,4,10.7,3.1,16.3a6,6,0,0,1-1.3,2.8c-7.1,7.8-14,7.7-20.7,1.5a5.32,5.32,0,0,1-1.7-3.1c-.8-4.5,1.3-10.3,3.4-16A5.6,5.6,0,0,1,11.2,10.9ZM8,101.6c4.7,6.5,10.2,6.1,16.7-1.1a9.84,9.84,0,0,0,2-3.4,39.21,39.21,0,0,0,2.1-9.6c.5-2.8,0-5-1.4-6.6-7.5-9.5-14.8-9.7-21.9.9A12.93,12.93,0,0,0,4.2,90,41.58,41.58,0,0,0,8,101.6ZM20.4,60.7l5.7,5.2h0A13.56,13.56,0,0,1,7,66.7L12.2,61A5.92,5.92,0,0,0,20.4,60.7Zm0-.1a6,6,0,0,0-.3-8.3l5.2-5.6a13.56,13.56,0,0,1,.8,19.1l-5.7-5.2Zm-8.5-7.9L6.2,47.5a13.56,13.56,0,0,1,19.1-.8l-5.2,5.7A5.83,5.83,0,0,0,11.9,52.7Zm-5,14a13.56,13.56,0,0,1-.8-19.1l5.7,5.2a5.83,5.83,0,0,0,.4,8.2Zm6.5-5a5.78,5.78,0,1,0-2.1-7.9A5.76,5.76,0,0,0,13.4,61.7Z" style="fill:#fff;stroke:#111414;stroke-miterlimit:10;stroke-width:0.5px"/><path class="braces" d="M14.6,86.3a2,2,0,0,0,1.1.2h1.2a3.55,3.55,0,0,0,1-.2h0V89a3.55,3.55,0,0,0-1-.2H15.7a4.25,4.25,0,0,0-1.1.2V86.3h0m4.6-3.9H18.1c-.4.1-.7.4-.6.8v.5c0,.4-.3.8-.6.8H15.8a.77.77,0,0,1-.7-.8v-.5a.76.76,0,0,0-.6-.8H13.4a.77.77,0,0,0-.7.8V87L0,86.9v1.3l12.7.1v3.8a.77.77,0,0,0,.7.8h1.1c.4-.1.7-.4.6-.8v-.6a.77.77,0,0,1,.7-.8H17a.64.64,0,0,1,.6.8V92a.76.76,0,0,0,.6.8h1.1a.64.64,0,0,0,.6-.8l.1-3.8H32.4V86.9H19.9l-.1-3.8a.73.73,0,0,0-.6-.7Z"/><path class="gum" d="M32.4,105.3h-11a10,10,0,0,1-5,1.7c-5,0-7-1.7-7-1.7s-4.4.2-9.4.2" style="fill:none;stroke:#ffb900;stroke-linejoin:round;stroke-width:3px"/><path class="paradontit1" d="M32.4,105.3H25.9c-.8,0-5,4.5-8.9,5-3.3.4-6.3-3.1-6.6-3.5-.8-1.1-2.2-1.3-3.6-1.3H0" style="fill:none;stroke:#ff822e;stroke-linejoin:round;stroke-width:3px"/><path class="paradontit2" d="M32.4,105.3H28.8a4.08,4.08,0,0,0-3.6,1.7c-1.8,2.6-1.1,6.8-8.2,6.8s-6.9-3.9-8.4-6.5c-.8-1.4-2.2-1.8-3.8-1.8H0" style="fill:none;stroke:#f9610d;stroke-linejoin:round;stroke-width:3px"/><path class="paradontit3" d="M32.4,105.3H28.8a4.08,4.08,0,0,0-3.6,1.7c-1.8,2.6,1,9.8-7,10.8s-8.1-7.9-9.6-10.5c-.8-1.4-2.2-1.8-3.8-1.8H0" style="fill:none;stroke:#f9610d;stroke-linejoin:round;stroke-width:3px"/><path class="paradontit4" d="M32.4,105.3H30c-2.1,0-3.9,2.1-4.4,4.2C24,116.1,23,122.2,17,122.2s-7.6-5.9-8.9-12.6c-.4-2.1-2.2-4.1-4.3-4.1H0" style="fill:none;stroke:#f75403;stroke-linejoin:round;stroke-width:3px"/><path class="periodontit" d="M14.9,156a4.5,4.5,0,1,1-4.5,4.5A4.55,4.55,0,0,1,14.9,156Z" style="fill:#3535ed"/></g></g></g></svg>