<svg xmlns="http://www.w3.org/2000/svg" viewBox="0 0 45.9 180.7"><title>48tooth</title><g class="Слой_2" data-name="Слой 2"><g class="Слой_1-2" data-name="Слой 1"><g class="_48" data-name="48"><path class="background" d="M45.9,0V180.7H0V0Z" style="fill:#9fdaff"/><path class="bone" d="M45.9,105.7v75H0v-75Z" style="fill:#de82a7"/><path class="bridge" d="M45.9,59.3H0v-4H45.9Zm0-29H0v4H45.9Zm0,50.1H0v4H45.9Z" style="fill:#3535ed"/><path class="root" d="M11.5,102.4c.7,8.9,3.4,16.8.9,23.2L8.6,136.7c-2.7,6.9,1.6,10.2,5.4,10.2,5.5-.8,9.9-5.3,13.7-12.2a8.65,8.65,0,0,0,.7-1.7c3.5-11.6,3.8-22.1,7.6-29.1" style="fill:#f4ecc8;stroke:#111414;stroke-miterlimit:10;stroke-width:0.25px"/><path class="rootCanal" d="M11.4,146.4c-.1,0-.2,0-.2-.1-.3-.4.7-2.4,1.9-4.9,4.1-8.4,12.5-25.8,5.4-42.6,1.3-2.3,3.1-3.5,5.3-3.5a10,10,0,0,1,5.5,2.1c-.2,2-5.6,44.2-17.6,48.9A.37.37,0,0,1,11.4,146.4ZM23.9,95.5h0a10,10,0,0,1,5.4,2c-.3,2.8-5.7,44.1-17.5,48.8-.2.1-.2.1-.3.1h-.1c-.2-.4.8-2.5,1.9-4.8,4.1-8.4,12.6-25.8,5.4-42.6,1.3-2.4,3-3.5,5.2-3.5m0-.3c-1.9,0-3.9.9-5.5,3.6,10,23.3-10.2,47.7-7,47.7a.76.76,0,0,0,.4-.1c12.5-4.9,17.7-49.1,17.7-49.1a10.59,10.59,0,0,0-5.6-2.1Z" style="fill:none"/><path class="implant" d="M16.6,141.9a1.78,1.78,0,0,0,1,1.6,14.83,14.83,0,0,0,12.2-.1,1.27,1.27,0,0,0,.7-.9l-14-2.1v1.5Zm-.1-2.9,14.2,2.1.1-2.4-14.4-2.3Zm-.2-4,14.5,2.1.1-2.4-14.7-2.1Zm-.2-4,14.8,2.1.1-2.4-15-2.1Zm-.1-4,15.1,2.1.1-2.4-15.3-2.3Zm-.2-4,15.3,2.2.1-2.4-15.5-2.2Zm-.2-5.2L31.2,120l.1-2.4-15.8-2.3Zm-.1-2.9,15.9,2.3.1-2.6-16,.1Zm-1.6-3.1a1.07,1.07,0,0,0,.2.6,1.27,1.27,0,0,0,.7.4h1.1l15.1-.1h1.1a1,1,0,0,0,.7-.4,1.42,1.42,0,0,0,.2-.6v-2c-.2,0-.3.1-.5.1l-18.2.1h-.5Zm-.6-4.6a1.07,1.07,0,0,0,.9,1l18.2-.1a1.17,1.17,0,0,0,.9-1v-1.4a.92.92,0,0,0-.9-1l-18.2.1a.92.92,0,0,0-.9,1Z" style="fill:#3535ed"/><path class="rootMask" d="M11.5,102.4c.7,8.9,3.4,16.8.9,23.2L8.6,136.7c-2.7,6.9,1.6,10.2,5.4,10.2,5.5-.8,9.9-5.3,13.7-12.2a8.65,8.65,0,0,0,.7-1.7c3.5-11.6,3.8-22.1,7.6-29.1" style="fill:#f4ecc8;stroke:#111414;stroke-miterlimit:10;stroke-width:0.25px"/><path class="coronaLingual" d="M6,14.9a9,9,0,0,0,.6-2.2c.3-1.9,1.2-3.1,2.8-3.5a76.57,76.57,0,0,1,27,.8A7.49,7.49,0,0,1,40,15.5a39.3,39.3,0,0,1,1.7,13.2,10.14,10.14,0,0,1-2.3,6c-4.2,5-9.1,4.9-14.4,1.7a5.24,5.24,0,0,0-5.4,0c-4.3,2.9-8,3.5-11.1,1.2a9.14,9.14,0,0,1-3.4-5.7l-.5-2.6a20.86,20.86,0,0,1-.3-6.1A47,47,0,0,1,6,14.9Z" style="fill:#fff;stroke:#111414;stroke-miterlimit:10;stroke-width:0.5px"/><path class="coronaLingualIncisalDistal" d="M16.5,30.7V38c-3,1.3-5.7,1.2-8-.5a9.14,9.14,0,0,1-3.4-5.7L5,30.7Z" style="fill:#3535ed"/><path class="coronaLingualIncisalMiddle" d="M30.4,30.7v7.7A15,15,0,0,1,25,36.2a5.24,5.24,0,0,0-5.4,0A20.16,20.16,0,0,1,16.4,38V30.7Z" style="fill:#3535ed"/><path class="coronaLingualIncisionMesial" d="M41.3,30.6a10.46,10.46,0,0,1-1.9,3.8c-2.7,3.3-5.8,4.4-9,3.9V30.6Z" style="fill:#3535ed"/><path class="coronaLingualMiddleDistal" d="M4.3,23.1a43.08,43.08,0,0,1,1-6.1H16.5V30.7H5l-.3-1.5A25.06,25.06,0,0,1,4.3,23.1Z" style="fill:#3535ed"/><path class="coronaLingualMiddleMiddle" d="M16.5,17h14V30.7h-14Z" style="fill:#3535ed"/><path class="coronaLingualMiddleMesial" d="M40.4,17a39.87,39.87,0,0,1,1.2,11.4,7.8,7.8,0,0,1-.3,2.2H30.4V16.9l10,.1Z" style="fill:#3535ed"/><path class="coronaLingualCervicalDistal" d="M6,14.7a9,9,0,0,0,.6-2.2C6.9,10.6,7.8,9.4,9.4,9c2.4-.3,4.8-.6,7.1-.7V17H5.3A20.16,20.16,0,0,0,6,14.7Z" style="fill:#3535ed"/><path class="coronaLingualCervicalMiddle" d="M30.4,8.8V17h-14V8.3A72,72,0,0,1,30.4,8.8Z" style="fill:#3535ed"/><path class="coronaLingualCervicalMesial" d="M36.3,9.8a7.49,7.49,0,0,1,3.6,5.5c.2.6.3,1.2.5,1.8h-10V8.8C32.4,9.1,34.4,9.4,36.3,9.8Z" style="fill:#3535ed"/><path class="coronaLabial" d="M8.9,96.3,8.4,84.6a8.7,8.7,0,0,1,1.5-5.4,9,9,0,0,1,5.3-3.6,17.22,17.22,0,0,1,8.4.9,4.22,4.22,0,0,0,4.8.1c3.7-3.9,8.1-1.5,13.1,4.3,1.2,2.4.9,5.4,0,8.9-.3,1-.5,2-.7,3A24.68,24.68,0,0,1,36.7,103a3.63,3.63,0,0,1-3.3,2.1,32.8,32.8,0,0,1-10.6-2.5,12.45,12.45,0,0,0-7.4.1c-1.8,1.1-3.4.7-4.7-1A10.54,10.54,0,0,1,8.9,96.3Z" style="fill:#fff;stroke:#111414;stroke-miterlimit:10;stroke-width:0.5px"/><path class="coronaLabialIncisalDistal" d="M9.9,79.1a8.89,8.89,0,0,1,5.4-3.6,27.15,27.15,0,0,1,2.8-.1v4.3H9.6A1.63,1.63,0,0,1,9.9,79.1Z" style="fill:#3535ed"/><path class="coronaLabialIncisalMiddle" d="M23.6,76.5a4.22,4.22,0,0,0,4.8.1,5.57,5.57,0,0,1,3.5-1.9v5H18V75.4A15.1,15.1,0,0,1,23.6,76.5Z" style="fill:#3535ed"/><path class="coronaLabialIncisionMesial" d="M40.3,79.7H31.8v-5C34.4,74.5,37.3,76.4,40.3,79.7Z" style="fill:#3535ed"/><path class="coronaLabialMiddleDistal" d="M9.6,79.6H18V97.9H9.2A11,11,0,0,1,9,96.1L8.5,84.4A7.45,7.45,0,0,1,9.6,79.6Z" style="fill:#3535ed"/><path class="coronaLabialMiddleMiddle" d="M18,79.6H32V97.9H18Z" style="fill:#3535ed"/><path class="coronaLabialMiddleMesial" d="M40.4,79.6c.3.4.7.8,1,1.2,1.2,2.4.9,5.4,0,8.9-.3,1-.5,2-.7,3A24.62,24.62,0,0,1,39.2,98H31.9V79.7h8.5Z" style="fill:#3535ed"/><path class="coronaLabialCervicalDistal" d="M18,97.8v4a18.43,18.43,0,0,0-2.5.5c-1.8,1.1-3.4.7-4.7-1a8.63,8.63,0,0,1-1.6-3.5Z" style="fill:#3535ed"/><path class="coronaLabialCervicalMiddle" d="M31.9,97.8v6.8a29.19,29.19,0,0,1-9.1-2.4,10.15,10.15,0,0,0-4.9-.4v-4Z" style="fill:#3535ed"/><path class="coronaLabialCervicalMesial" d="M39.2,97.7a28.66,28.66,0,0,1-2.6,4.9,3.63,3.63,0,0,1-3.3,2.1c-.5,0-1-.1-1.4-.1V97.8l7.3-.1Z" style="fill:#3535ed"/><path class="veneer" d="M26.2,82.9l-1.8-1.4c-2.7-2.1-2.9-2.5-1.7-5.7l.8-2.1-1.4,1.8c-2.1,2.7-2.5,2.9-5.7,1.7l-2.1-.8,1.8,1.4c2.7,2.1,2.9,2.5,1.7,5.7L17,85.7l1.4-1.8c2.1-2.7,2.5-2.9,5.7-1.7ZM24.8,95,23,93.6c-1.7-1.3-1.7-1.5-1-3.4l.8-2.1-1.4,1.8c-1.3,1.7-1.5,1.7-3.4,1l-2.1-.8,1.8,1.4c1.7,1.3,1.7,1.5,1,3.4L17.9,97l1.4-1.8c1.3-1.7,1.5-1.7,3.4-1ZM13.2,92.1l-1.8-1.4c-1.7-1.3-1.7-1.5-1-3.4l.8-2.1L9.8,87c-1.3,1.7-1.5,1.7-3.4,1l-2.2-.8L6,88.6c1.7,1.3,1.7,1.5,1,3.4l-.8,2.1,1.4-1.8c1.3-1.7,1.4-1.7,3.4-1Zm24.2-8.9-1.8-1.4c-1.7-1.3-1.7-1.5-1-3.4l.8-2.1L34,78.1c-1.3,1.7-1.5,1.7-3.4,1l-2.1-.8,1.8,1.4c1.7,1.3,1.7,1.5,1,3.4l-.8,2.1,1.4-1.8c1.3-1.7,1.4-1.7,3.4-1Zm3.5,8.7-1.8-1.4c-1.7-1.3-1.7-1.5-1-3.4l.8-2.1-1.4,1.8c-1.3,1.7-1.5,1.7-3.4,1L32,87l1.8,1.4c1.7,1.3,1.7,1.5,1,3.4L34,93.9l1.4-1.8c1.3-1.7,1.5-1.7,3.4-1Z" style="fill:#3535ed"/><path class="coronaTop" d="M19.1,60.9l-5.2,5.7A13.56,13.56,0,0,0,33,65.9l.1-.1-5.7-5.2a6,6,0,0,1-8.3.3Zm8.2-.4L33,65.7a13.56,13.56,0,0,0-.8-19.1l-5.3,5.6a5.87,5.87,0,0,1,.4,8.3Zm-.4-8.2,5.2-5.7a13.56,13.56,0,0,0-19.1.8l5.7,5.2A5.83,5.83,0,0,1,26.9,52.3Zm-7.8,8.6a5.83,5.83,0,0,1-.4-8.2L13,47.5a13.56,13.56,0,0,0,.8,19.1ZM18,53.7a5.76,5.76,0,0,1,7.9-2.1A5.85,5.85,0,0,1,28,59.5a5.76,5.76,0,0,1-7.9,2.1A5.83,5.83,0,0,1,18,53.7Z" style="fill:#fff;stroke:#000;stroke-miterlimit:10"/><path class="coronaTopBuccal" d="M19.1,60.9l-5.2,5.7A13.56,13.56,0,0,0,33,65.9l.1-.1-5.7-5.2a6,6,0,0,1-8.3.3Z" style="fill:#3535ed"/><path class="coronaTopMedial" d="M27.3,60.5,33,65.7a13.56,13.56,0,0,0-.8-19.1l-5.3,5.6a5.87,5.87,0,0,1,.4,8.3Z" style="fill:#3535ed"/><path class="coronaTopLingual" d="M26.9,52.3l5.2-5.7a13.56,13.56,0,0,0-19.1.8l5.7,5.2A5.83,5.83,0,0,1,26.9,52.3Z" style="fill:#3535ed"/><path class="coronaTopDistal" d="M19.1,60.9a5.83,5.83,0,0,1-.4-8.2L13,47.5a13.56,13.56,0,0,0,.8,19.1Z" style="fill:#3535ed"/><path class="coronaTopOclusial" d="M18,53.7a5.76,5.76,0,0,1,7.9-2.1A5.85,5.85,0,0,1,28,59.5a5.76,5.76,0,0,1-7.9,2.1A5.83,5.83,0,0,1,18,53.7Z" style="fill:#3535ed"/><path class="silant" d="M15,64.7a19,19,0,0,0,6.9,1.2c5.8,0,9.2-2.2,9.2-5.4,0-2.7-2.2-4.2-6.4-5.4C21.5,54.2,20,53.5,20,52c0-1.3,1.5-2.5,4.1-2.5a13.11,13.11,0,0,1,5,1l1.1-2.4a15.66,15.66,0,0,0-6-1.1c-5.3,0-8.4,2.4-8.4,5.3,0,2.2,2.1,4,6.5,5.1,3.3.9,4.6,1.8,4.6,3.3s-1.5,2.7-4.8,2.7a16.09,16.09,0,0,1-5.9-1.3Z" style="fill:#3535ed"/><path class="crown" d="M8.5,37.6a9.14,9.14,0,0,1-3.4-5.7l-.5-2.6a20.86,20.86,0,0,1-.3-6.1A47,47,0,0,1,6,14.9a9,9,0,0,0,.6-2.2c.3-1.9,1.2-3.1,2.8-3.5a76.57,76.57,0,0,1,27,.8A7.49,7.49,0,0,1,40,15.5a39.3,39.3,0,0,1,1.7,13.2,10.14,10.14,0,0,1-2.3,6c-4.2,5-9.1,4.9-14.4,1.7a5.24,5.24,0,0,0-5.4,0C15.3,39.3,11.6,39.9,8.5,37.6Zm33,43.3c-5-5.8-9.4-8.2-13.1-4.3a4.22,4.22,0,0,1-4.8-.1,17.22,17.22,0,0,0-8.4-.9,9,9,0,0,0-5.3,3.6,8.7,8.7,0,0,0-1.5,5.4l.5,11.7a10.54,10.54,0,0,0,1.8,5.4c1.3,1.7,2.9,2.1,4.7,1a12.45,12.45,0,0,1,7.4-.1,29.94,29.94,0,0,0,5.8,1.8l-15.2.1a.94.94,0,0,0-1,1v1.4a1.08,1.08,0,0,0,1,1l19.9-.1a1.28,1.28,0,0,0,1-1v-1.4a.6.6,0,0,0-.1-.4,3.61,3.61,0,0,0,2.5-2,24.68,24.68,0,0,0,4.1-10.2c.2-1,.4-2,.7-3C42.4,86.3,42.7,83.3,41.5,80.9ZM33,65.9h0l-5.6-5.3a6,6,0,0,1-8.3.3l-5.2,5.7A13.56,13.56,0,0,0,33,65.9Zm0-.2a13.56,13.56,0,0,0-.8-19.1l-5.4,5.6,5.3-5.6a13.56,13.56,0,0,0-19.1.8l5.7,5.2a5.83,5.83,0,0,1,8.2-.3h0a5.85,5.85,0,0,1,.8,7.7l-.1.1c-.1.1-.2.3-.3.4ZM17.2,56.4a2.77,2.77,0,0,1,.1-.9,4.33,4.33,0,0,1,.1-.5c0-.2.1-.3.2-.5l.3-.6a.76.76,0,0,0,.2-.4,1.76,1.76,0,0,1,.4-.5c.1-.1.1-.2.2-.3L13,47.5a13.56,13.56,0,0,0,.8,19.1l5.3-5.7a6,6,0,0,1-1.9-4.5ZM28,59.5A5.77,5.77,0,0,0,18.5,53a1.76,1.76,0,0,1-.4.5c-.1.1-.1.2-.2.3a.1.1,0,0,1-.1.1l-.3.6c-.1.2-.1.3-.2.5a1.09,1.09,0,0,0-.1.5,2.77,2.77,0,0,0-.1.9h0A5.86,5.86,0,0,0,20,61.5,5.75,5.75,0,0,0,27.5,60l.1-.1C27.8,59.8,27.9,59.6,28,59.5Z" style="fill:#fff;stroke:#000;stroke-miterlimit:10;stroke-width:0.25px"/><path class="braces" d="M21.3,86.2a2,2,0,0,0,1.1.2h1.2a3.55,3.55,0,0,0,1-.2h0v2.7a3.55,3.55,0,0,0-1-.2H22.4a4.25,4.25,0,0,0-1.1.2V86.2h0m4.6-3.9H24.8c-.4.1-.7.4-.6.8v.5c0,.4-.3.8-.6.8H22.5a.64.64,0,0,1-.6-.8v-.5a.76.76,0,0,0-.6-.8H20a.64.64,0,0,0-.6.8v3.8H0v1.3H19.3V92c0,.4.3.8.6.8H21c.4-.1.7-.4.6-.8v-.6c0-.4.3-.8.6-.8h1.2a.64.64,0,0,1,.6.8v.5a.76.76,0,0,0,.6.8H26a.64.64,0,0,0,.6-.8V88.1H45.9V86.8H26.6V83a.84.84,0,0,0-.7-.7Z"/><path class="gum" d="M45.9,104.5H44.2c-.4,0-6.8.4-6.8.4s-6.5,1.8-12-2-13,0-16.5,2.3c-4.5-.3-8.9-.3-8.9-.3" style="fill:none;stroke:#ffb900;stroke-linejoin:round;stroke-width:3px"/><path class="paradontit1" d="M45.9,104.5H41.4c-3.5,0-10.8,2.8-18.1,3-5,.1-9.8-1.4-13.8-2.5a2.16,2.16,0,0,0-1.1-.1H0" style="fill:none;stroke:#ff822e;stroke-linejoin:round;stroke-width:3px"/><path class="paradontit2" d="M45.9,104.5H41.4c-3.5,0-6.9,6.5-17.9,6.5s-9.9-4.6-14-5.9a5.85,5.85,0,0,0-1.3-.2H0" style="fill:none;stroke:#f9610d;stroke-linejoin:round;stroke-width:3px"/><path class="paradontit3" d="M45.9,104.5H41.4c-6.4,0-3,11.4-18,10.4s-9.8-8.5-13.9-9.8a5.85,5.85,0,0,0-1.3-.2H0" style="fill:none;stroke:#f9610d;stroke-linejoin:round;stroke-width:3px"/><path class="paradontit4" d="M45.9,104.5H38.7c-6.6-.1-.4,15.4-15.4,14.4s-9.9-7-12.2-9.9a4.51,4.51,0,0,0-4.2-3.1H0" style="fill:none;stroke:#f75403;stroke-linejoin:round;stroke-width:3px"/><path class="periodontit" d="M11.5,145.4A4.5,4.5,0,1,1,7,149.9,4.48,4.48,0,0,1,11.5,145.4Z" style="fill:#3535ed"/></g></g></g></svg>