<svg xmlns="http://www.w3.org/2000/svg" viewBox="0 0 29.9 146.3"><title>61tooth</title><g class="Слой_2" data-name="Слой 2"><g class="Слой_1-2" data-name="Слой 1"><g class="_61" data-name="61"><path class="background" d="M29.6,146.3H.6V0h29Z" style="fill:#9fdaff"/><path class="bone" d="M29.6,57.3H.6V0h29Z" style="fill:#de82a7"/><path class="bridge" d="M.6,126v-4l29,.1v4Zm29-26V96H.6v4Zm0-27V69H.6v4Z" style="fill:#3535ed"/><path class="root" d="M6,57.5c2.5-11.9,5-26.4,7.4-42.2,1-2.9,2.4-3.4,4.1-2A5.12,5.12,0,0,1,19.2,17c-.1,15.3,2.8,31.6,6.5,41.7" style="fill:#f0e7be;stroke:#1a1715;stroke-miterlimit:10"/><path class="rootCanal" d="M11.6,58.3l.4-5.5c.2-1.4.9-28.2,3.3-39.9.2-1.1,1.5-.9,1.5.2-.1,11.7-1.1,40.1.7,40.1,3.2,4.5,1.4,6-1.8,5h-.3l-3.2.9C11.8,59.2,11.5,58.8,11.6,58.3Z" style="fill:#3535ed;stroke:#201600;stroke-miterlimit:10;stroke-width:0.25px"/><path class="implant" d="M8.3,20.4l14-2.2a1.39,1.39,0,0,0-.7-.8,15.23,15.23,0,0,0-12.2,0,1.9,1.9,0,0,0-1,1.6Zm0,1.5v2.5l14.4-2.3-.1-2.5L8.3,21.9Zm-.2,6.5,14.7-2.3-.1-2.5L8.2,25.9Zm-.1,4,14.9-2.3V27.7L8.1,30Zm-.2,4.2L23,34.2l-.1-2.5L7.9,34Zm0,1.5v2.5l15.4-2.4-.1-2.5L7.8,38.1Zm-.1,7.6,15.8-2.4-.1-2.5L7.7,43.2Zm-.2.3,16,.1-.1-2.6L7.5,46ZM5.9,51h19V49.1a1.07,1.07,0,0,0-.2-.6.91.91,0,0,0-.7-.3H6.9a.91.91,0,0,0-.7.3,1.07,1.07,0,0,0-.2.6Zm-.5,4.1h0a1.08,1.08,0,0,0,1,1H24.5a.94.94,0,0,0,1-1V53.8a1,1,0,0,0-.4-.9c-.1,0-.2-.1-.4-.1H6.6a.94.94,0,0,0-1,1Z" style="fill:#3535ed"/><path class="rootMask" d="M6,57.5c2.5-11.9,5-26.4,7.4-42.2,1-2.9,2.4-3.4,4.1-2A5.12,5.12,0,0,1,19.2,17c-.1,15.3,2.8,31.6,6.5,41.7" style="fill:#f0e7be;stroke:#1a1715;stroke-miterlimit:10"/><path class="coronaLingual" d="M25.8,117.7l-.1-.1a6.4,6.4,0,0,0-5.3-2.6H7.6c-3,.4-4.3.1-4.2,4.1a26.85,26.85,0,0,0,3.2,15.3,10.15,10.15,0,0,0,4.9,4.7c3.7,1.7,7.4,1.3,11.1-1.5a7.91,7.91,0,0,0,2.7-3.3,26.25,26.25,0,0,0,2-11.7A9.69,9.69,0,0,0,25.8,117.7Z" style="fill:#fff;stroke:#000;stroke-miterlimit:10"/><path class="coronaLingualIncisalDistal" d="M20.4,115.1H19.2v7h8a8.44,8.44,0,0,0-1.4-4.3l-.1-.1a6.4,6.4,0,0,0-5.3-2.6Z" style="fill:#3535ed"/><path class="coronaLingualIncisalMiddle" d="M19.2,122.2H11.7v-7.1h7.5Z" style="fill:#3535ed"/><path class="coronaLingualIncisionMesial" d="M3.3,122.1h8.5V115H7.5c-3,.4-4.3.1-4.2,4.1A15,15,0,0,0,3.3,122.1Z" style="fill:#3535ed"/><path class="coronaLingualMiddleDistal" d="M19.2,122.2v11.2h6.4a27,27,0,0,0,1.6-10.8v-.4Z" style="fill:#3535ed"/><path class="coronaLingualMiddleMiddle" d="M19.2,133.4H11.7V122.2h7.5Z" style="fill:#3535ed"/><path class="coronaLingualMiddleMesial" d="M6,133.4h5.7V122.2H3.2A26.12,26.12,0,0,0,6,133.4Z" style="fill:#3535ed"/><path class="coronaLingualCervicalDistal" d="M19.2,133.4v6a13.46,13.46,0,0,0,3.3-1.8,7.91,7.91,0,0,0,2.7-3.3,3.55,3.55,0,0,0,.4-.9Z" style="fill:#3535ed"/><path class="coronaLingualCervicalMiddle" d="M11.7,133.4v5.8a10.23,10.23,0,0,0,7.5.2v-6Z" style="fill:#3535ed"/><path class="coronaLingualCervicalMesial" d="M6,133.4a4.67,4.67,0,0,0,.5,1,10.15,10.15,0,0,0,4.9,4.7c.1,0,.2.1.3.1v-5.8Z" style="fill:#3535ed"/><path class="coronaLabial" d="M18.1,52.6a11.44,11.44,0,0,0-4.1-.2,10.9,10.9,0,0,0-8.3,6.7c-3.6,8.5-5.5,16,1.4,18,6.6.2,13.2.4,16.5-.8,4.2-3.1,4.9-8.1,3.5-14.1A12.75,12.75,0,0,0,18.1,52.6Z" style="fill:#fff;stroke:#000;stroke-miterlimit:10"/><path class="coronaLabialIncisalDistal" d="M20.4,69.6V77a22.05,22.05,0,0,0,3.2-.7,9.87,9.87,0,0,0,4-6.7Z" style="fill:#3535ed"/><path class="coronaLabialIncisalMiddle" d="M11.2,69.6v7.6a65.53,65.53,0,0,0,9.1-.2V69.6Z" style="fill:#3535ed"/><path class="coronaLabialIncisionMesial" d="M7,77.1c1.4,0,2.8.1,4.2.1V69.6H2.4C2.1,73.3,3.3,76,7,77.1Z" style="fill:#3535ed"/><path class="coronaLabialMiddleDistal" d="M20.4,58.5V69.7h7.2a21.31,21.31,0,0,0-.5-7.4,12.57,12.57,0,0,0-1.5-3.8Z" style="fill:#3535ed"/><path class="coronaLabialMiddleMiddle" d="M20.3,69.7H11.2V58.5h9.1Z" style="fill:#3535ed"/><path class="coronaLabialMiddleMesial" d="M2.4,69.7h8.8V58.5H5.9l-.3.6C4,63,2.7,66.6,2.4,69.7Z" style="fill:#3535ed"/><path class="coronaLabialCervicalDistal" d="M20.3,53.5v5h5.3A11.18,11.18,0,0,0,20.3,53.5Z" style="fill:#3535ed"/><path class="coronaLabialCervicalMiddle" d="M11.3,53.2v5.3h9.1v-5a11.72,11.72,0,0,0-2.4-.9,11.44,11.44,0,0,0-4.1-.2A6.63,6.63,0,0,0,11.3,53.2Z" style="fill:#3535ed"/><path class="coronaLabialCervicalMesial" d="M5.9,58.5h5.3V53.2A11.35,11.35,0,0,0,5.9,58.5Z" style="fill:#3535ed"/><path class="veneer" d="M27.5,71.8c-3.2,1.3-3.7,1.2-5.8-1.9l-1.4-2.1.8,2.4c1.2,3.6,1,4.1-1.7,6.5l-1.9,1.6,2.1-.9c3.2-1.3,3.7-1.2,5.8,1.9l1.4,2L26,78.9c-1.1-3.6-1-4.1,1.7-6.5l1.9-1.6ZM24.6,58c-2,.9-2.2.8-3.5-1.1l-1.4-2.1.8,2.4c.9,2.2.8,2.4-.9,3.9l-1.9,1.6,2.1-.9c2-.9,2.2-.8,3.5,1.1L24.7,65l-.8-2.4c-.7-2.3-.6-2.5,1.1-4L26.9,57ZM1.9,73.5l2.5-1c2.3-.9,2.5-.8,4,1L10,75.6l-.9-2.3c-.9-2.1-.8-2.4,1.1-3.8l2.1-1.6-2.5.9c-2.3.9-2.5.8-4-1L4.2,65.7,5.1,68c.9,2.2.8,2.5-1.1,3.9L1.9,73.5Z" style="fill:#3535ed"/><path class="coronaTop" d="M10.6,93.9,4.9,88.7A13.56,13.56,0,0,1,24,87.9l-5.2,5.7A5.83,5.83,0,0,0,10.6,93.9Zm0,0a5.83,5.83,0,0,0,.3,8.2l-5.2,5.7a13.56,13.56,0,0,1-.8-19.1l5.7,5.2Zm13.5-6a13.56,13.56,0,0,1,.8,19.1l-5.7-5.2a5.83,5.83,0,0,0-.4-8.2Zm-4.9,13.9,5.7,5.2h0a13.56,13.56,0,0,1-19.1.8l5.2-5.7A5.92,5.92,0,0,0,19.2,101.8Zm.4-1a5.78,5.78,0,1,1-2.1-7.9A5.74,5.74,0,0,1,19.6,100.8Z" style="fill:#fff;stroke:#000;stroke-miterlimit:10"/><path class="coronaTopBuccal" d="M10.6,93.9,4.9,88.7A13.56,13.56,0,0,1,24,87.9l-5.2,5.7A5.83,5.83,0,0,0,10.6,93.9Z" style="fill:#3535ed"/><path class="coronaTopMedial" d="M10.6,93.9a5.83,5.83,0,0,0,.3,8.2l-5.2,5.7a13.56,13.56,0,0,1-.8-19.1l5.7,5.2Z" style="fill:#3535ed"/><path class="coronaTopLingual" d="M19.2,101.8l5.7,5.2h0a13.56,13.56,0,0,1-19.1.8l5.2-5.7A5.92,5.92,0,0,0,19.2,101.8Z" style="fill:#3535ed"/><path class="coronaTopDistal" d="M24.1,87.9a13.56,13.56,0,0,1,.8,19.1l-5.7-5.2a5.83,5.83,0,0,0-.4-8.2Z" style="fill:#3535ed"/><path class="coronaTopOclusial" d="M19.5,101a5.78,5.78,0,1,1-2.1-7.9A5.74,5.74,0,0,1,19.5,101Z" style="fill:#3535ed"/><path class="silant" d="M21.8,103.3a16.09,16.09,0,0,1-5.9,1.3c-3.3,0-4.8-1.2-4.8-2.7s1.2-2.4,4.5-3.3c4.4-1.1,6.5-2.9,6.5-5.1,0-2.9-3.1-5.3-8.4-5.3a15.66,15.66,0,0,0-6,1.1l1.1,2.4a13.11,13.11,0,0,1,5-1c2.6,0,4.1,1.2,4.1,2.5,0,1.5-1.5,2.2-4.7,3.1C9,97.5,6.8,99,6.8,101.7c0,3.2,3.4,5.4,9.2,5.4a19,19,0,0,0,6.9-1.2Z" style="fill:#3535ed"/><path class="crown" d="M10.6,93.9,4.9,88.7A13.56,13.56,0,0,1,24,87.9l-5.2,5.7A5.83,5.83,0,0,0,10.6,93.9Zm0,0a5.83,5.83,0,0,0,.3,8.2l-5.2,5.7a13.56,13.56,0,0,1-.8-19.1l5.7,5.2Zm13.5-6a13.56,13.56,0,0,1,.8,19.1l-5.7-5.2a5.83,5.83,0,0,0-.4-8.2Zm-4.9,13.9,5.7,5.2h0a13.56,13.56,0,0,1-19.1.8l5.2-5.7A5.92,5.92,0,0,0,19.2,101.8Zm.4-1a5.78,5.78,0,1,1-2.1-7.9A5.74,5.74,0,0,1,19.6,100.8Zm6.2,16.9-.1-.1a6.4,6.4,0,0,0-5.3-2.6H7.6c-3,.4-4.3.1-4.2,4.1a26.85,26.85,0,0,0,3.2,15.3,10.15,10.15,0,0,0,4.9,4.7c3.7,1.7,7.4,1.3,11.1-1.5a7.91,7.91,0,0,0,2.7-3.3,26.25,26.25,0,0,0,2-11.7A9.69,9.69,0,0,0,25.8,117.7ZM18.1,52.6a11.44,11.44,0,0,0-4.1-.2,10.9,10.9,0,0,0-8.3,6.7c-3.6,8.5-5.5,16,1.4,18,6.6.2,13.2.4,16.5-.8,4.2-3.1,4.9-8.1,3.5-14.1A12.75,12.75,0,0,0,18.1,52.6Z" style="fill:#fff;stroke:#000;stroke-miterlimit:10"/><path class="braces" d="M17,64.8h0v2.7a4.25,4.25,0,0,0-1.1-.2H14.7a3.55,3.55,0,0,0-1,.2V64.8h0a3.55,3.55,0,0,0,1,.2h1.2a2,2,0,0,0,1.1-.2m-4.6-3.9c-.4,0-.7.4-.8.8l-.1,3.8H.6v1.3H11.4l.1,3.8a.77.77,0,0,0,.7.8h1.1a.76.76,0,0,0,.6-.8v-.5a.77.77,0,0,1,.7-.8h1.2c.3,0,.6.4.6.8v.5c-.1.4.2.7.6.8h1.1c.3,0,.6-.4.6-.8V66.8H29.6V65.5H18.7V61.7a.64.64,0,0,0-.6-.8H17a.76.76,0,0,0-.6.8v.5a.64.64,0,0,1-.6.8H14.7c-.3,0-.6-.4-.6-.8v-.5c.1-.4-.2-.7-.6-.8Z"/><path class="gum" d="M29.5,56.9H25.1a9.56,9.56,0,0,0-9.2-6.2c-7.2,0-9.3,6.7-9.3,6.7H.6" style="fill:none;stroke:#ffb900;stroke-linejoin:round;stroke-width:3px"/><path class="paradontit1" d="M29.6,56.9H28.4a3.86,3.86,0,0,1-3.6-3.6c-.8-5.2-3.9-8.1-9.1-8.1s-7.2,3.7-8.4,8.9a3.8,3.8,0,0,1-3.5,3.3H.6" style="fill:none;stroke:#ff822e;stroke-linejoin:round;stroke-width:3px"/><path class="paradontit2" d="M29.6,56.9a3.21,3.21,0,0,1-3-3C25.3,47.5,22,40.3,16.4,40.3S6.9,48,5.3,54.3a3.89,3.89,0,0,1-3.5,3.1H.6" style="fill:none;stroke:#f9610d;stroke-linejoin:round;stroke-width:3px"/><path class="paradontit3" d="M29.6,56.9a3.21,3.21,0,0,1-3-3c-1.3-6.4-5.2-18.5-10.7-18.5S6.9,48,5.3,54.3a3.89,3.89,0,0,1-3.5,3.1H.6" style="fill:none;stroke:#f9610d;stroke-linejoin:round;stroke-width:3px"/><path class="paradontit4" d="M29.6,56.9c-1.5,0-2.6-1.4-2.8-3.2-1.3-8.8-.9-25.2-11.4-24.2S6.4,44.9,5.1,53.7c-.3,2.1-1.8,3.7-3.6,3.7H.6" style="fill:none;stroke:#f75403;stroke-linejoin:round;stroke-width:3px"/><path class="periodontit" d="M20.4,8a4.5,4.5,0,1,1-4.5-4.5A4.48,4.48,0,0,1,20.4,8Z" style="fill:#3535ed"/></g></g></g></svg>