<svg xmlns="http://www.w3.org/2000/svg" viewBox="0 0 30.3 146.3"><title>63tooth</title><g class="Слой_2" data-name="Слой 2"><g class="Слой_1-2" data-name="Слой 1"><g class="_63" data-name="63"><path class="background" d="M30,146.3H0V0H30Z" style="fill:#9fdaff"/><path class="bone" d="M30,57.2H0V0H30Z" style="fill:#de82a7"/><path class="bridge" d="M0,126v-4l30,.1v4Zm30-25.9v-4L0,96v4Zm0-27v-4L0,69v4Z" style="fill:#3535ed"/><path class="root" d="M7.6,55.1c3.1-11.5,3.9-24.1,3-37.5a2.65,2.65,0,0,1,.8-2.2,3,3,0,0,1,3.3-.5,4.35,4.35,0,0,1,2.9,3.7c.7,14.9,2.1,28.1,4.9,37.5" style="fill:#f0e7be;stroke:#1a1715;stroke-miterlimit:10"/><path class="rootCanal" d="M18.8,54.5c.4-.7-1.4-2.4-2.1-3.1a.71.71,0,0,1-.3-.6c-.2-1.2,0-11.8-1-21-.4-3.1-.2-6.6-.8-9-.7-3.4-2.6-8-2.5-4.7a24.9,24.9,0,0,1,1.2,5,53.42,53.42,0,0,1,0,8.2C13.6,37.7,13,46.1,11,52a4.67,4.67,0,0,1-.5,1c-1.9,2.7-.5,2.8,1.6,2.2a12,12,0,0,1,3.8-.3c.4,0,.8.1,1.2.1C17.1,55,18.4,55.2,18.8,54.5Z" style="fill:#3535ed"/><path class="implant" d="M10.7,20.3l14-2.2a1.39,1.39,0,0,0-.7-.8,15.23,15.23,0,0,0-12.2,0,1.9,1.9,0,0,0-1,1.6Zm0,1.5v2.5L25.1,22,25,19.5,10.7,21.8Zm-.2,6.5L25.2,26l-.1-2.5L10.6,25.8Zm-.1,4L25.3,30V27.6L10.5,29.9Zm-.2,4.1L25.4,34l-.1-2.5-15,2.3Zm0,1.5v2.5L25.6,38l-.1-2.5L10.2,37.9Zm-.1,7.5L25.9,43l-.1-2.4L10.1,43Zm-.2.5c6.4.5,14,1.3,16,.1l-.1-2.6L9.9,45.9ZM8.4,50.8H27.3V48.9a1.17,1.17,0,0,0-.2-.7.91.91,0,0,0-.7-.3H9.3a.91.91,0,0,0-.7.3,1.85,1.85,0,0,0-.2.7ZM7.6,55h0a1.08,1.08,0,0,0,1,1H26.7a.94.94,0,0,0,1-1V53.8a1,1,0,0,0-.4-.9c-.1,0-.2-.1-.4-.1H8.8a.6.6,0,0,0-.4.1,1.49,1.49,0,0,0-.4.9Z" style="fill:#3535ed"/><path class="rootMask" d="M7.6,55.1c3.1-11.5,3.9-24.1,3-37.5a2.65,2.65,0,0,1,.8-2.2,3,3,0,0,1,3.3-.5,4.35,4.35,0,0,1,2.9,3.7c.7,14.9,2.1,28.1,4.9,37.5" style="fill:#f0e7be;stroke:#1a1715;stroke-miterlimit:10"/><path class="coronaLingual" d="M25.4,129.2a15.83,15.83,0,0,1-4,11.4c-4.3,4.4-8.7,4.1-13-.8-2.8-3.4-4-8-3.7-13.8a15.94,15.94,0,0,1,.6-3c4.5-12.6,10.5-11.9,17.5-1.8A15.21,15.21,0,0,1,25.4,129.2Z" style="fill:#fff;stroke:#1a1715;stroke-miterlimit:10;stroke-width:0.25px"/><path class="coronaLingualIncisionDistal" d="M19,116.6V122h4.3a3.51,3.51,0,0,0-.5-.8A49.06,49.06,0,0,0,19,116.6Z" style="fill:#3535ed"/><path class="coronaLingualIncisalMiddle" d="M10.8,122.1H19v-5.4c-3-2.9-5.7-3.8-8.2-2.3Z" style="fill:#3535ed"/><path class="coronaLingualIncisionMesial" d="M5.6,122.1h5.2v-7.7C8.9,115.5,7.2,118,5.6,122.1Z" style="fill:#3535ed"/><path class="coronaLingualMiddleDistal" d="M23.3,122.1H19v11.2h5.9a18.4,18.4,0,0,0,.4-4.1,13.59,13.59,0,0,0-2-7.1Z" style="fill:#3535ed"/><path class="coronaLingualMiddleMiddle" d="M19,133.3H10.8V122.1H19Z" style="fill:#3535ed"/><path class="coronaLingualMiddleMesial" d="M5.2,133.2h5.6V122H5.6a6.89,6.89,0,0,0-.4,1,15.94,15.94,0,0,0-.6,3A26.9,26.9,0,0,0,5.2,133.2Z" style="fill:#3535ed"/><path class="coronaLingualCervicalDistal" d="M24.9,133.3H19v9.1a12.84,12.84,0,0,0,2.3-1.9,15.84,15.84,0,0,0,3.6-7.2Z" style="fill:#3535ed"/><path class="coronaLingualCervicalMiddle" d="M10.8,133.3v8.8a6.91,6.91,0,0,0,8.2.3v-9.1Z" style="fill:#3535ed"/><path class="coronaLingualCervicalMesial" d="M5.2,133.3a15.72,15.72,0,0,0,3.1,6.5,17.43,17.43,0,0,0,2.5,2.3v-8.8Z" style="fill:#3535ed"/><path class="coronaLabial" d="M24.2,60.4c2.4,10.6.3,17.1-6.7,18.9H15.6a5.77,5.77,0,0,1-4-1.4A21,21,0,0,1,4.9,67.7c-1-4.3.4-8.6,3-12.9,4-4.1,7.8-4.5,11.6-1.8A12.09,12.09,0,0,1,24.2,60.4Z" style="fill:#fff;stroke:#1a1715;stroke-miterlimit:10"/><path class="coronaLabialIncisalDistal" d="M18.8,69.5v9.3c3.9-1.4,5.9-4.6,6.3-9.3Z" style="fill:#3535ed"/><path class="coronaLabialIncisalMiddle" d="M10.6,69.5v7.4a9,9,0,0,0,1,.9,6.28,6.28,0,0,0,4,1.4h1.9a5,5,0,0,0,1.3-.4V69.5Z" style="fill:#3535ed"/><path class="coronaLabialIncisionMesial" d="M5.6,69.5a19.81,19.81,0,0,0,5,7.4V69.5Z" style="fill:#3535ed"/><path class="coronaLabialMiddleDistal" d="M18.8,58.4V69.6h6.3a30.71,30.71,0,0,0-.9-9.1,8.3,8.3,0,0,0-.6-2.1Z" style="fill:#3535ed"/><path class="coronaLabialMiddleMiddle" d="M18.8,69.6H10.6V58.4h8.2Z" style="fill:#3535ed"/><path class="coronaLabialMiddleMesial" d="M5,67.7c.2.7.5,1.3.7,1.9h5V58.4H6.1A13.78,13.78,0,0,0,5,67.7Z" style="fill:#3535ed"/><path class="coronaLabialCervicalDistal" d="M18.9,52.5v5.8h4.7A11.93,11.93,0,0,0,19.5,53,2.65,2.65,0,0,1,18.9,52.5Z" style="fill:#3535ed"/><path class="coronaLabialCervicalMiddle" d="M10.6,52.6v5.8h8.2V52.6A7.23,7.23,0,0,0,10.6,52.6Z" style="fill:#3535ed"/><path class="coronaLabialCervicalMesial" d="M6,58.4h4.6V52.6a13.06,13.06,0,0,0-2.7,2.2C7.2,56,6.6,57.2,6,58.4Z" style="fill:#3535ed"/><path class="veneer" d="M26.5,70.2c-2.7,1-3.1.9-4.9-1.4l-1.2-1.6.7,1.8c1,2.7.9,3.1-1.4,4.9l-1.6,1.2,1.9-.7c2.7-1,3.1-.9,4.9,1.4l1.2,1.5-.7-1.8c-1-2.7-.9-3.1,1.4-4.9l1.6-1.2ZM24.4,59.8c-1.7.7-1.9.6-3-.8l-1.2-1.6.7,1.8c.6,1.6.5,1.8-.9,2.9l-1.6,1.2,1.9-.7c1.6-.7,1.8-.6,2.9.8L24.4,65l-.7-1.8c-.7-1.7-.6-1.9.8-3L26.1,59ZM9.3,67.2c-1.7.7-1.9.6-3-.8L5.1,64.8l.7,1.8c.7,1.7.6,1.9-.8,3L3.4,70.8l1.9-.7c1.6-.7,1.8-.6,2.9.8l1.2,1.6-.7-1.8c-.7-1.6-.6-1.8.8-2.9l1.6-1.2Z" style="fill:#3535ed"/><path class="coronaTop" d="M10.7,93.8,5,88.6a13.56,13.56,0,0,1,19.1-.8l-5.2,5.7A5.83,5.83,0,0,0,10.7,93.8ZM11,102l-5.2,5.7h0A13.56,13.56,0,0,1,5,88.6l5.7,5.2A5.83,5.83,0,0,0,11,102Zm8.3-.3,5.7,5.2h0a13.56,13.56,0,0,1-19.1.8l5.2-5.7A5.92,5.92,0,0,0,19.3,101.7Zm4.9-13.9a13.56,13.56,0,0,1,.8,19.1l-5.7-5.2h0a5.83,5.83,0,0,0-.4-8.2Zm-3.4,9.9A5.8,5.8,0,1,1,15,91.9,5.8,5.8,0,0,1,20.8,97.7Z" style="fill:#fff;stroke:#000;stroke-miterlimit:10"/><path class="coronaTopBuccal" d="M11.1,93.8,5.4,88.6a13.56,13.56,0,0,1,19.1-.8l-5.2,5.7A5.83,5.83,0,0,0,11.1,93.8Z" style="fill:#3535ed"/><path class="coronaTopMedial" d="M11.4,102l-5.2,5.7h0a13.56,13.56,0,0,1-.8-19.1l5.7,5.2A5.83,5.83,0,0,0,11.4,102Z" style="fill:#3535ed"/><path class="coronaTopLingual" d="M19.3,101.4l5.7,5.2h0a13.56,13.56,0,0,1-19.1.8l5.2-5.7A5.92,5.92,0,0,0,19.3,101.4Z" style="fill:#3535ed"/><path class="coronaTopDistal" d="M24.2,87.8a13.56,13.56,0,0,1,.8,19.1l-5.7-5.2h0a5.83,5.83,0,0,0-.4-8.2Z" style="fill:#3535ed"/><path class="coronaTopOclusial" d="M20.8,97.7A5.8,5.8,0,1,1,15,91.9,5.8,5.8,0,0,1,20.8,97.7Z" style="fill:#3535ed"/><path class="silant" d="M21.9,103.2a16.09,16.09,0,0,1-5.9,1.3c-3.3,0-4.8-1.2-4.8-2.7s1.2-2.4,4.5-3.3c4.4-1.1,6.5-2.9,6.5-5.1,0-2.9-3.1-5.3-8.4-5.3a15.66,15.66,0,0,0-6,1.1l1.1,2.4a13.11,13.11,0,0,1,5-1c2.6,0,4.1,1.2,4.1,2.5,0,1.5-1.5,2.2-4.7,3.1-4.2,1.2-6.4,2.7-6.4,5.4,0,3.2,3.4,5.4,9.2,5.4a19,19,0,0,0,6.9-1.2Z" style="fill:#3535ed"/><path class="crown" d="M10.7,93.8,5,88.6a13.56,13.56,0,0,1,19.1-.8l-5.2,5.7A5.83,5.83,0,0,0,10.7,93.8ZM11,102l-5.2,5.7h0A13.56,13.56,0,0,1,5,88.6l5.7,5.2A5.83,5.83,0,0,0,11,102Zm8.3-.3,5.7,5.2h0a13.56,13.56,0,0,1-19.1.8l5.2-5.7A5.92,5.92,0,0,0,19.3,101.7Zm4.9-13.9a13.56,13.56,0,0,1,.8,19.1l-5.7-5.2h0a5.83,5.83,0,0,0-.4-8.2Zm-3.4,9.9A5.8,5.8,0,1,1,15,91.9,5.8,5.8,0,0,1,20.8,97.7Zm1.9,23.5c-7-10-13-10.7-17.5,1.8a15.94,15.94,0,0,0-.6,3c-.3,5.8.9,10.5,3.7,13.8,4.3,4.9,8.7,5.2,13,.8a16.92,16.92,0,0,0,4-11.4A13.65,13.65,0,0,0,22.7,121.2ZM19.5,53c-3.8-2.7-7.7-2.3-11.6,1.8-2.7,4.3-4,8.6-3,12.9a21,21,0,0,0,6.7,10.2,6.28,6.28,0,0,0,4,1.4h1.9c7-1.9,9.1-8.3,6.7-18.9A12.09,12.09,0,0,0,19.5,53Z" style="fill:#fff;stroke:#000;stroke-miterlimit:10"/><path class="braces" d="M16.1,64.7h0v2.7a4.25,4.25,0,0,0-1.1-.2H13.8a3.55,3.55,0,0,0-1,.2V64.7h0a3.55,3.55,0,0,0,1,.2H15a2,2,0,0,0,1.1-.2m-4.6-3.9a.64.64,0,0,0-.6.8v3.8H0v1.3H10.8v3.8a.77.77,0,0,0,.7.8h1.1a.76.76,0,0,0,.6-.8V70a.77.77,0,0,1,.7-.8h1.2c.3,0,.6.4.6.8v.5c-.1.4.2.7.6.8h1.1c.3,0,.6-.4.6-.8V66.7H30V65.4H18V61.6a.64.64,0,0,0-.6-.8H16.1a.76.76,0,0,0-.6.8v.5a.64.64,0,0,1-.6.8H13.8c-.3,0-.6-.4-.6-.8v-.5c.1-.4-.2-.7-.6-.8Z"/><path class="gum" d="M30,56.8H24.8s-4.1-6.9-9.4-6.9-9.3,6.9-9.3,6.9H0" style="fill:none;stroke:#ffb900;stroke-linejoin:round;stroke-width:3px"/><path class="paradontit1" d="M30,56.9H26.6c-1.6,0-2.1-1.1-2.7-2.7-1.1-2.8-5.3-7.4-8.8-7.4-3.7,0-8,6.1-9.5,8.9-.7,1.3-.3,1.1-1.7,1.1H0" style="fill:none;stroke:#ff822e;stroke-linejoin:round;stroke-width:3px"/><path class="paradontit2" d="M29.8,56.7s-4.9-.3-5.4-1.6c-1.6-4.1-6-12.5-9.9-12.5S7,50.4,5.2,54.4c-.8,2-5.2,2-5.2,2" style="fill:none;stroke:#f9610d;stroke-linejoin:round;stroke-width:3px"/><path class="paradontit3" d="M30,56.8s-4,0-4.8-2.2c-1.6-4.1-4.3-15.2-10.6-15.2S7.5,50.9,5.7,54.9a3,3,0,0,1-2.4,1.9H0" style="fill:none;stroke:#f9610d;stroke-linejoin:round;stroke-width:3px"/><path class="paradontit4" d="M30,56.7H28.8a7.8,7.8,0,0,1-4.9-1.3c-2-1.3,1.5-20.1-8.8-20.1s-6,11.8-8.9,18.1C5,56.1,1.1,56.8,0,56.8" style="fill:none;stroke:#f75403;stroke-linejoin:round;stroke-width:3px"/><path class="periodontit" d="M17.7,10.6a4.5,4.5,0,1,1-4.5-4.5A4.48,4.48,0,0,1,17.7,10.6Z" style="fill:#3535ed"/></g></g></g></svg>