<svg xmlns="http://www.w3.org/2000/svg" viewBox="0 0 28.55 143.6"><title>82tooth</title><g class="Слой_2" data-name="Слой 2"><g class="Слой_1-2" data-name="Слой 1"><g class="_82" data-name="82"><path class="background" d="M28.55,0V82.4h0v61.2H.05V0Z" style="fill:#9fdaff"/><path class="bone" d="M28.55,88.5v31.6h0v23.5H.05V88.5Z" style="fill:#de82a7"/><path class="bridge" d="M28.55,74.9H.05v-4h28.5Zm0-54H.05v4h28.5Zm0,25H.05v4h28.5Z" style="fill:#3535ed"/><path class="root" d="M8.55,90.5a145.92,145.92,0,0,1,1.3,34.6c-.4,4.6.5,5.8,2.5,4.3a8.51,8.51,0,0,0,2.9-4.6c2.7-9.7,4.2-22,5-36" style="fill:#f0e7be;stroke:#1a1715;stroke-miterlimit:10"/><path class="rootCanal" d="M11.45,129.9c-.2-.2.1-1.7.4-3.4a97,97,0,0,0-.4-37.3,2.71,2.71,0,0,1,2.4-1.5c2,0,4.2,2.5,4.2,2.5-.1.3-3.5,36.2-6.2,39.5C11.55,129.8,11.45,129.8,11.45,129.9Zm2.3-42.2h0c1.8,0,3.7,1.9,4,2.4-.2,2.2-3.5,36.3-6.1,39.4-.1.1-.1.2-.2.2,0-.5.2-1.7.4-3.2a97,97,0,0,0-.4-37.3,2.81,2.81,0,0,1,2.3-1.5m0-.2a2.75,2.75,0,0,0-2.5,1.7c5,23.5-1.1,40.8.1,40.8.1,0,.3-.1.5-.4,2.8-3.3,6.2-39.6,6.2-39.6s-2.1-2.5-4.3-2.5Z" style="fill:none"/><path class="implant" d="M6,124.5a1.9,1.9,0,0,0,1,1.6,15.23,15.23,0,0,0,12.2-.1,1.39,1.39,0,0,0,.7-.8l-14-2Zm-.1-3,14.3,2,.1-2.4-14.4-2.2v2.6Zm-.1-3.9,14.5,2.2.1-2.4-14.7-2.2Zm-.2-4.1,14.8,2.2.1-2.5-15-2.2Zm-.2-4,15.1,2.2.1-2.4L5.35,107v2.5Zm-.1-4.1,15.3,2.3.1-2.5-15.6-2.3Zm-.2-5.1,15.7,2.3.1-2.5L5.05,97.8ZM5,97.4l15.9,2.3.1-2.6L5,97.2Zm-1.6-3a1.07,1.07,0,0,0,.2.6.91.91,0,0,0,.7.3h1.1l15-.1h1.1a.91.91,0,0,0,.7-.3,1.07,1.07,0,0,0,.2-.6V92.4H22l-18.1.1h-.4Zm-.6-4.7a1.49,1.49,0,0,0,.4.9.6.6,0,0,0,.4.1l18.1-.1a1.08,1.08,0,0,0,1-1V88.4a.94.94,0,0,0-1-1h0l-18.1.1a1.08,1.08,0,0,0-1,1h0Z" style="fill:#3535ed"/><path class="rootMask" d="M8.55,90.5a145.92,145.92,0,0,1,1.3,34.6c-.4,4.6.5,5.8,2.5,4.3a8.51,8.51,0,0,0,2.9-4.6c2.7-9.7,4.2-22,5-36" style="fill:#f0e7be;stroke:#1a1715;stroke-miterlimit:10"/><path class="coronaLingual" d="M7.45,8.7c2.5-4.6,5.2-5.4,8-3.2a9.66,9.66,0,0,1,3.4,5.6c1,4.4,1.8,9.1,2.5,14,.4,2,.1,3.5-1.3,4.1l-11.5-.4c-2.8-.1-3.2-2.5-3.2-7.3A29.76,29.76,0,0,1,7.45,8.7Z" style="fill:#fff;stroke:#1a1715;stroke-miterlimit:10;stroke-width:0.25px"/><path class="coronaLingualIncisionDistal" d="M5.35,24.5c.2,2.9,1,4.3,3.1,4.4h.4V24.5Z" style="fill:#3535ed"/><path class="coronaLingualIncisalMiddle" d="M16.75,24.5H8.85v4.4l7.9.3Z" style="fill:#3535ed"/><path class="coronaLingualIncisionMesial" d="M21.35,25.2c0-.2-.1-.4-.1-.7h-4.5v4.7l3.3.1C21.45,28.7,21.75,27.2,21.35,25.2Z" style="fill:#3535ed"/><path class="coronaLingualMiddleDistal" d="M6.15,12.9a31.39,31.39,0,0,0-.9,8.7,25.32,25.32,0,0,0,.1,2.9H9V12.9Z" style="fill:#3535ed"/><path class="coronaLingualMiddleMiddle" d="M8.85,12.9h7.8V24.5H8.85Z" style="fill:#3535ed"/><path class="coronaLingualMiddleMesial" d="M19.15,12.9h-2.4V24.5h4.5C20.65,20.5,20,16.6,19.15,12.9Z" style="fill:#3535ed"/><path class="coronaLingualCervicalDistal" d="M7.45,8.7c-.5,1.4-.9,2.8-1.3,4.2H9V6.4A9.13,9.13,0,0,0,7.45,8.7Z" style="fill:#3535ed"/><path class="coronaLingualCervicalMiddle" d="M16.75,6.9a8.64,8.64,0,0,0-1.3-1.4c-2.2-1.8-4.4-1.6-6.5.9v6.5h7.8Z" style="fill:#3535ed"/><path class="coronaLingualCervicalMesial" d="M18.75,11.1a10,10,0,0,0-2-4.3v6.1h2.4C19.05,12.3,18.85,11.7,18.75,11.1Z" style="fill:#3535ed"/><path class="coronaLabial" d="M6.55,75.9a11.89,11.89,0,0,1,1.3-4.5,4.87,4.87,0,0,1,3.9-2.4l8-.5c2.2-.3,3.3.6,2.5,3.7.2,5.6-.1,10.5-1.4,14.5A6.53,6.53,0,0,1,19,90.8c-2.2,2.2-4.4,3-6.6,2.5a6.3,6.3,0,0,1-4.8-5.8Z" style="fill:#fff;stroke:#1a1715;stroke-miterlimit:10;stroke-width:0.25px"/><path class="coronaLabialIncisalDistal" d="M7.85,71.4a10.07,10.07,0,0,0-1.1,3.2h4.6V69A5,5,0,0,0,7.85,71.4Z" style="fill:#3535ed"/><path class="coronaLabialIncisalMiddle" d="M11.75,69h-.4v5.6h6.8v-6Z" style="fill:#3535ed"/><path class="coronaLabialIncisionMesial" d="M22.25,72.2c.8-3.1-.3-4-2.5-3.7l-1.6.1v6h4.1Z" style="fill:#3535ed"/><path class="coronaLabialMiddleDistal" d="M6.75,74.6c-.1.4-.1.9-.2,1.3l.9,10.6h3.9V74.6Z" style="fill:#3535ed"/><path class="coronaLabialMiddleMiddle" d="M11.35,74.6h6.8V86.5h-6.8Z" style="fill:#3535ed"/><path class="coronaLabialMiddleMesial" d="M22.35,74.6h-4.1V86.5H21A41.79,41.79,0,0,0,22.35,74.6Z" style="fill:#3535ed"/><path class="coronaLabialCervicalDistal" d="M7.45,86.5l.1,1a6.62,6.62,0,0,0,3.8,5.5V86.6H7.45v-.1Z" style="fill:#3535ed"/><path class="coronaLabialCervicalMiddle" d="M11.35,86.5v6.4c.3.1.6.2,1,.3a6.76,6.76,0,0,0,5.8-1.8v-5h-6.8Z" style="fill:#3535ed"/><path class="coronaLabialCervicalMesial" d="M18.15,86.5v5c.3-.2.5-.5.8-.7a6.53,6.53,0,0,0,1.9-4.1v-.1l-2.7-.1Z" style="fill:#3535ed"/><path class="veneer" d="M12.65,73.2,11,74.3c-2.5,1.5-2.9,1.5-5.5-.3l-1.8-1.2,1.4,1.6c2.1,2.4,2.1,2.6.2,4.8L4,80.6l1.7-1.1c2.5-1.5,2.9-1.5,5.5.3L13,81l-1.3-1.5c-2.1-2.4-2.1-2.6-.2-4.8Zm10.7,4.4-1.7,1.1c-1.5.9-1.7.9-3.4-.2l-1.8-1.2,1.4,1.6c1.2,1.4,1.3,1.5.2,2.9l-1.3,1.4,1.7-1.1c1.5-.9,1.7-.9,3.4.2l1.8,1.2-1.4-1.6c-1.2-1.4-1.3-1.5-.2-2.9Zm-6.5,4.7-1.7,1.1c-1.5.9-1.7.9-3.4-.2L10,82l1.4,1.6c1.2,1.4,1.3,1.5.2,2.9l-1.3,1.4L12,86.8c1.5-.9,1.7-.9,3.4.2l1.8,1.2-1.4-1.6c-1.2-1.4-1.3-1.5-.2-3Zm-1.3-17.6-1.7,1.1c-1.5.9-1.7.9-3.4-.2l-1.8-1.2,1.4,1.5c1.2,1.4,1.3,1.5.2,2.9L9,70.2l1.7-1.1c1.5-.9,1.7-.9,3.4.2l1.8,1.2-1.4-1.6c-1.2-1.4-1.3-1.6-.2-3Zm8.6-.3-1.7,1.1c-1.5.9-1.6,1-3.4-.2l-1.8-1.2,1.4,1.6c1.2,1.4,1.3,1.5.2,2.9L17.55,70l1.7-1.1c1.5-.9,1.6-1,3.4.2l1.8,1.2-1.4-1.6c-1.2-1.4-1.3-1.5-.2-3Z" style="fill:#3535ed"/><path class="coronaTop" d="M10.35,51.5l-5.2,5.7a13.56,13.56,0,0,0,19.1-.8h0l-5.7-5.2A5.92,5.92,0,0,1,10.35,51.5Zm8.2-.4,5.7,5.2a13.56,13.56,0,0,0-.8-19.1l-5.2,5.6a6,6,0,0,1,.3,8.3Zm-.3-8.2,5.2-5.7a13.56,13.56,0,0,0-19.1.8l5.7,5.2A5.83,5.83,0,0,1,18.25,42.9Zm-7.9,8.6a5.83,5.83,0,0,1-.4-8.2l-5.7-5.2a13.56,13.56,0,0,0,.8,19.1Zm-1-7.2a5.78,5.78,0,1,1,2.1,7.9A5.85,5.85,0,0,1,9.35,44.3Z" style="fill:#fff;stroke:#000;stroke-miterlimit:10"/><path class="coronaTopBuccal" d="M10.35,51.5l-5.2,5.7a13.56,13.56,0,0,0,19.1-.8h0l-5.7-5.2A5.92,5.92,0,0,1,10.35,51.5Z" style="fill:#3535ed"/><path class="coronaTopMedial" d="M18.55,51.1l5.7,5.2a13.56,13.56,0,0,0-.8-19.1l-5.2,5.6a6,6,0,0,1,.3,8.3Z" style="fill:#3535ed"/><path class="coronaTopLingual" d="M18.25,42.9l5.2-5.7a13.56,13.56,0,0,0-19.1.8l5.7,5.2A5.83,5.83,0,0,1,18.25,42.9Z" style="fill:#3535ed"/><path class="coronaTopDistal" d="M10.35,51.5a5.83,5.83,0,0,1-.4-8.2l-5.7-5.2a13.56,13.56,0,0,0,.8,19.1Z" style="fill:#3535ed"/><path class="coronaTopOclusial" d="M9.35,44.3a5.78,5.78,0,1,1,2.1,7.9A5.85,5.85,0,0,1,9.35,44.3Z" style="fill:#3535ed"/><path class="silant" d="M6.35,55.3a19,19,0,0,0,6.9,1.2c5.8,0,9.2-2.2,9.2-5.4,0-2.7-2.2-4.2-6.4-5.4-3.2-.9-4.7-1.6-4.7-3.1,0-1.3,1.5-2.5,4.1-2.5a13.11,13.11,0,0,1,5,1l1.1-2.4a15.66,15.66,0,0,0-6-1.1c-5.3,0-8.4,2.4-8.4,5.3,0,2.2,2.1,4,6.5,5.1,3.3.9,4.5,1.8,4.5,3.3s-1.5,2.7-4.8,2.7a16.09,16.09,0,0,1-5.9-1.3Z" style="fill:#3535ed"/><path class="crown" d="M10.35,51.5l-5.2,5.7a13.56,13.56,0,0,0,19.1-.8h0l-5.7-5.2A5.92,5.92,0,0,1,10.35,51.5Zm8.2-.4,5.7,5.2a13.56,13.56,0,0,0-.8-19.1l-5.2,5.6a6,6,0,0,1,.3,8.3Zm-.3-8.2,5.2-5.7a13.56,13.56,0,0,0-19.1.8l5.7,5.2A5.83,5.83,0,0,1,18.25,42.9Zm-7.9,8.6a5.83,5.83,0,0,1-.4-8.2l-5.7-5.2a13.56,13.56,0,0,0,.8,19.1Zm-1-7.2a5.78,5.78,0,1,1,2.1,7.9A5.85,5.85,0,0,1,9.35,44.3ZM7.45,8.7c2.5-4.6,5.2-5.4,8-3.2a9.66,9.66,0,0,1,3.4,5.6c1,4.4,1.8,9.1,2.5,14,.4,2,.1,3.5-1.3,4.1l-11.5-.4c-2.8-.1-3.2-2.5-3.2-7.3A29.76,29.76,0,0,1,7.45,8.7Zm-.9,67.2a11.89,11.89,0,0,1,1.3-4.5,4.87,4.87,0,0,1,3.9-2.4l8-.5c2.2-.3,3.3.6,2.5,3.7.2,5.6-.1,10.5-1.4,14.5A6.53,6.53,0,0,1,19,90.8c-2.2,2.2-4.4,3-6.6,2.5a6.3,6.3,0,0,1-4.8-5.8Z" style="fill:#fff;stroke:#000;stroke-miterlimit:10"/><path class="braces" d="M12.15,76.8a2,2,0,0,0,1.1.2h1.2a3.55,3.55,0,0,0,1-.2h0v2.7a3.55,3.55,0,0,0-1-.2h-1.2a4.25,4.25,0,0,0-1.1.2V76.8h0m4.6-3.9h-1.1c-.4.1-.7.4-.6.8v.5c0,.4-.3.8-.6.8h-1.1a.64.64,0,0,1-.6-.8v-.5a.76.76,0,0,0-.6-.8h-1.1a.64.64,0,0,0-.6.8v3.8H.05v1.3h10.4v3.8c0,.4.3.8.6.8h1.1c.4-.1.7-.4.6-.8v-.5c0-.4.3-.8.6-.8h1.2a.77.77,0,0,1,.7.8v.5a.76.76,0,0,0,.6.8H17a.77.77,0,0,0,.7-.8V78.8h10.9V77.5h-11V73.7c-.2-.4-.5-.8-.8-.8Z"/><path class="gum" d="M28.55,88.5c-10.5,0-8.4,6.6-14.7,6.8-6.7.2-4.1-6.5-13.8-6.8" style="fill:none;stroke:#ffb900;stroke-linejoin:round;stroke-width:3px"/><path class="paradontit1" d="M28.55,88.5h-4a4.53,4.53,0,0,0-3.8,2.1c-1.8,2.8-3.7,7.8-6.9,7.8C11,98.4,7.25,94,6,91.2a4.5,4.5,0,0,0-4.1-2.7H.05" style="fill:none;stroke:#ff822e;stroke-linejoin:round;stroke-width:3px"/><path class="paradontit2" d="M.05,88.5c2,0,3.4.6,5,2.9,2.2,3.3,4.9,11.7,8.8,11.7,7,0,5.8-8.4,7.9-12.2.7-2.3,6.6-2.5,6.8-2.5" style="fill:none;stroke:#f9610d;stroke-linejoin:round;stroke-width:3px"/><path class="paradontit3" d="M28.55,88.5s-5.3,0-7.6,4.5c-2.1,3.7-1.1,13-8.1,14-4.9.7-6-12.3-8.4-16.8-.9-1.7-4.4-1.7-4.4-1.7" style="fill:none;stroke:#f9610d;stroke-linejoin:round;stroke-width:3px"/><path class="paradontit4" d="M28.55,88.5h-1.9a4.42,4.42,0,0,0-4.2,2.9c-2.2,5.7-.8,20.3-8.8,20.3s-8.2-13.6-9.4-19.6a4.38,4.38,0,0,0-4.2-3.6" style="fill:none;stroke:#f75403;stroke-linejoin:round;stroke-width:3px"/><path class="periodontit" d="M12.65,128a4.5,4.5,0,1,1-4.5,4.5A4.48,4.48,0,0,1,12.65,128Z" style="fill:#3535ed"/></g></g></g></svg>