<svg xmlns="http://www.w3.org/2000/svg" viewBox="0 0 44.9 143.6"><title>84tooth</title><g class="Слой_2" data-name="Слой 2"><g class="Слой_1-2" data-name="Слой 1"><g class="_84" data-name="84"><path class="background" d="M.5,0h44V143.6H.5V0Z" style="fill:#9fdaff"/><path class="bone" d="M.5,88.4h44v55.2H.5V88.4Z" style="fill:#de82a7"/><path class="bridge" d="M44.5,49.9H.5v-4h44v4Zm0-29H.5v4h44v-4Zm0,50H.5v4h44v-4Z" style="fill:#3535ed"/><path class="root" d="M10.4,90.9C7.2,103,4.9,114.6,5.1,124a15.51,15.51,0,0,0,1.1,5.6c.9,2.3,2,2.6,3.1.7a9.64,9.64,0,0,0,1-3L13,112.2a13.2,13.2,0,0,1,4.8-8.5,6.61,6.61,0,0,1,5.1-1.3,8.13,8.13,0,0,1,5,4c2.5,4.2,7.8,13.4,7.8,13.4,2.5,4.3,3.9,4.1,4.2-1.1.2-6.5-4.8-17.5-9.4-28.2" style="fill:#f0e7be;stroke:#1a1715;stroke-miterlimit:10"/><path class="rootCanal" d="M38.8,119.7c-1.6-9.7-9.4-20.4-11.2-29.1-.3-1.2-13.7,0-14,1-2.7,9.7-4.6,14.5-6.5,25.8-1,6.1-.1,15.9.8,13.7s-.5-6.4,1.3-12.7,2.9-11.2,6.9-17.3c2.1-3.2,9.5-3.5,11.5-.2,3.6,5.8,6.6,8.9,8.4,14.9C37.7,121.1,39.7,124.9,38.8,119.7Z" style="fill:#3535ed;stroke:#201600;stroke-miterlimit:10;stroke-width:0.25px"/><path class="implant" d="M13.7,124.5a1.9,1.9,0,0,0,1,1.6,15.23,15.23,0,0,0,12.2-.1,1.39,1.39,0,0,0,.7-.8l-14-2Zm-.1-2.9,14.3,2.1.1-2.5-14.4-2.1Zm-.1-4.1L28,119.6l.1-2.5L13.4,115Zm-.2-3.9,14.8,2.1.1-2.5-14.9-2.1Zm-.1-4.1,15,2.3.1-2.5L13.1,107Zm-.2-4.1,15.3,2.3.1-2.5-15.6-2.3Zm-.2-5,15.7,2.3.1-2.5L12.8,97.9Zm-.1-3,15.9,2.4.1-2.7-16,.1Zm-1.6-3a.94.94,0,0,0,1,1h1.1l15-.1h1.1A.91.91,0,0,0,30,95a1.85,1.85,0,0,0,.2-.7V92.4h-.4l-18.1.1h-.4Zm-.6-4.7a1.49,1.49,0,0,0,.4.9.6.6,0,0,0,.4.1l18.1-.1c.2,0,.3-.1.4-.1a1,1,0,0,0,.4-.9V88.4a.94.94,0,0,0-1-1h0l-18.1.1a1.08,1.08,0,0,0-1,1h0v1.2Z" style="fill:#3535ed"/><path class="rootMask" d="M10.4,90.9C7.2,103,4.9,114.6,5.1,124a15.51,15.51,0,0,0,1.1,5.6c.9,2.3,2,2.6,3.1.7a9.64,9.64,0,0,0,1-3L13,112.2a13.2,13.2,0,0,1,4.8-8.5,6.61,6.61,0,0,1,5.1-1.3,8.13,8.13,0,0,1,5,4c2.5,4.2,7.8,13.4,7.8,13.4,2.5,4.3,3.9,4.1,4.2-1.1.2-6.5-4.8-17.5-9.4-28.2" style="fill:#f0e7be;stroke:#1a1715;stroke-miterlimit:10"/><path class="coronaLingual" d="M8,27c-2.8-4-3.1-8.7-.4-14.1a11.52,11.52,0,0,1,4.3-4.7c7-4.2,12.9-4.9,17.8-2a8.83,8.83,0,0,1,2.6,2.5,17.78,17.78,0,0,1,1.8,15.9,3,3,0,0,1-.4.8c-2,3.1-5.6,3.9-10.1,3.3a9.14,9.14,0,0,0-7.6,0,6.56,6.56,0,0,1-4.6.6A6.69,6.69,0,0,1,8,27Z" style="fill:#fff;stroke:#1a1715;stroke-miterlimit:10;stroke-width:0.25px"/><path class="coronaLingualIncisionDistal" d="M6.7,24.5a14.92,14.92,0,0,0,1.4,2.4,5.1,5.1,0,0,0,3.5,2.2,7.56,7.56,0,0,0,3,0V24.5Z" style="fill:#3535ed"/><path class="coronaLingualIncisalMiddle" d="M14.5,24.5v4.6a5.23,5.23,0,0,0,1.6-.6c2.2-1.1,4.7-1.1,7.6,0a18,18,0,0,0,4.6.1V24.5Z" style="fill:#3535ed"/><path class="coronaLingualIncisionMesial" d="M28.3,24.5v4.1a7.37,7.37,0,0,0,5.5-3.4c.1-.2.3-.5.4-.7Z" style="fill:#3535ed"/><path class="coronaLingualMiddleDistal" d="M7.5,12.9c-2.1,4.3-2.3,8.2-.9,11.6h7.9V12.9Z" style="fill:#3535ed"/><path class="coronaLingualMiddleMiddle" d="M14.5,12.9H28.2V24.5H14.5Z" style="fill:#3535ed"/><path class="coronaLingualMiddleMesial" d="M34.3,12.9H28.2V24.5h5.9A17.78,17.78,0,0,0,34.3,12.9Z" style="fill:#3535ed"/><path class="coronaLingualCervicalDistal" d="M11.9,8.1a10.82,10.82,0,0,0-4.3,4.7.1.1,0,0,1-.1.1h7V6.6C13.7,7.1,12.8,7.5,11.9,8.1Z" style="fill:#3535ed"/><path class="coronaLingualCervicalMiddle" d="M28.3,5.4c-4-1.7-8.5-1.3-13.7,1.3V13H28.3Z" style="fill:#3535ed"/><path class="coronaLingualCervicalMesial" d="M32.3,8.6a7,7,0,0,0-2.6-2.5,10.09,10.09,0,0,0-1.5-.7V13h6.1A15.77,15.77,0,0,0,32.3,8.6Z" style="fill:#3535ed"/><path class="coronaLabial" d="M24.4,68.5c4.1-1.6,7.6-1.3,10.4,1,2.8,3.4,2.9,8.3.5,14.5a19.23,19.23,0,0,1-6.9,9c-5.4,3.7-11.1,3.3-17.1-1a11.18,11.18,0,0,1-4-4.9A24.1,24.1,0,0,1,5.8,75.3a8.62,8.62,0,0,1,2.1-5.1c2.4-2.6,5.6-2.6,9.5-.7C19.3,71.1,21.7,70.4,24.4,68.5Z" style="fill:#fff;stroke:#1a1715;stroke-miterlimit:10;stroke-width:0.25px"/><path class="coronaLabialIncisalDistal" d="M7.9,70.2a9,9,0,0,0-2.1,4.4h8.3V68.3A6.28,6.28,0,0,0,7.9,70.2Z" style="fill:#3535ed"/><path class="coronaLabialIncisalMiddle" d="M24.4,68.5c-2.7,1.9-5.1,2.6-7,1a15.21,15.21,0,0,0-3.2-1.1v6.3H29.5V67.6A12,12,0,0,0,24.4,68.5Z" style="fill:#3535ed"/><path class="coronaLabialIncisionMesial" d="M34.8,69.5a8.59,8.59,0,0,0-5.3-1.9v7.1h7.4A9,9,0,0,0,34.8,69.5Z" style="fill:#3535ed"/><path class="coronaLabialMiddleDistal" d="M5.9,74.6c0,.2-.1.4-.1.7A26.12,26.12,0,0,0,7.1,86.6h7.1V74.7H5.9Z" style="fill:#3535ed"/><path class="coronaLabialMiddleMiddle" d="M14.2,74.6H29.5V86.5H14.2Z" style="fill:#3535ed"/><path class="coronaLabialMiddleMesial" d="M36.9,74.6H29.5V86.5h4.6c.4-.8.8-1.7,1.2-2.5A20,20,0,0,0,36.9,74.6Z" style="fill:#3535ed"/><path class="coronaLabialCervicalDistal" d="M7.1,86.5c.1.2.1.3.2.5a11.31,11.31,0,0,0,4,4.9,22.87,22.87,0,0,0,2.9,1.8V86.5Z" style="fill:#3535ed"/><path class="coronaLabialCervicalMiddle" d="M14.2,86.5v7.2c5,2.5,9.7,2.3,14.3-.8l1.1-.8V86.5Z" style="fill:#3535ed"/><path class="coronaLabialCervicalMesial" d="M34.1,86.5H29.5v5.6A16.68,16.68,0,0,0,34.1,86.5Z" style="fill:#3535ed"/><path class="veneer" d="M23,78.8l-1.6-1.2c-2.4-1.8-2.5-2.2-1.4-5l.7-1.9-1.2,1.6c-1.8,2.4-2.1,2.5-4.9,1.5l-1.9-.7,1.6,1.2c2.4,1.8,2.5,2.2,1.4,5L15,81.2l1.2-1.6c1.8-2.4,2.1-2.5,4.9-1.5ZM21.8,89.3l-1.6-1.2c-1.4-1.1-1.5-1.3-.9-3l.7-1.9-1.2,1.6c-1.1,1.5-1.3,1.5-2.9.9L14,85l1.6,1.2c1.4,1.1,1.5,1.3.9,3L15.9,91l1.2-1.6c1.1-1.5,1.2-1.5,2.9-.9Zm-7-4.6-1.6-1.2c-1.4-1.1-1.5-1.3-.9-3l.7-1.9-1.2,1.6c-1.1,1.4-1.3,1.5-2.9.9L7,80.4l1.6,1.2c1.4,1.1,1.5,1.3.9,3l-.7,1.9L10,84.9c1.1-1.5,1.2-1.5,2.9-.9Zm17.8-5.6L31,77.9c-1.4-1.1-1.5-1.3-.9-3l.7-1.9-1.1,1.6c-1.1,1.5-1.2,1.5-2.9.9l-1.9-.7L26.5,76c1.4,1.1,1.5,1.3.9,3l-.7,1.9,1.2-1.6c1.1-1.5,1.2-1.5,3-.9Zm3.1,7.4-1.6-1.2c-1.4-1.1-1.5-1.3-.9-3l.7-1.9L32.7,82c-1.1,1.5-1.3,1.5-2.9.9l-1.9-.7,1.6,1.2c1.4,1.1,1.5,1.3.9,3l-.6,1.8L31,86.6c1.1-1.5,1.2-1.5,2.9-.9Z" style="fill:#3535ed"/><path class="coronaTop" d="M18.6,52l-5.2,5.7a13.56,13.56,0,0,0,19.1-.8l-5.7-5.2A5.92,5.92,0,0,1,18.6,52Zm8.1-.4,5.7,5.2a13.56,13.56,0,0,0-.8-19.1l-5.2,5.7a5.83,5.83,0,0,1,.3,8.2Zm-.3-8.2,5.2-5.7a13.56,13.56,0,0,0-19.1.8l5.7,5.2A5.93,5.93,0,0,1,26.4,43.4ZM18.6,52a5.83,5.83,0,0,1-.4-8.2l-5.7-5.2a13.56,13.56,0,0,0,.8,19.1Zm-1.1-7.2a5.76,5.76,0,0,1,7.9-2.1,5.78,5.78,0,1,1-7.9,2.1Z" style="fill:#fff;stroke:#000;stroke-miterlimit:10"/><path class="coronaTopBuccal" d="M18.6,52l-5.2,5.7a13.56,13.56,0,0,0,19.1-.8l-5.7-5.2A5.92,5.92,0,0,1,18.6,52Z" style="fill:#3535ed"/><path class="coronaTopMedial" d="M26.7,51.6l5.7,5.2a13.56,13.56,0,0,0-.8-19.1l-5.2,5.7a5.83,5.83,0,0,1,.3,8.2Z" style="fill:#3535ed"/><path class="coronaTopLingual" d="M26.4,43.4l5.2-5.7a13.56,13.56,0,0,0-19.1.8l5.7,5.2A5.93,5.93,0,0,1,26.4,43.4Z" style="fill:#3535ed"/><path class="coronaTopDistal" d="M18.6,52a5.83,5.83,0,0,1-.4-8.2l-5.7-5.2a13.56,13.56,0,0,0,.8,19.1Z" style="fill:#3535ed"/><path class="coronaTopOclusial" d="M17.5,44.8a5.76,5.76,0,0,1,7.9-2.1,5.78,5.78,0,1,1-7.9,2.1Z" style="fill:#3535ed"/><path class="silant" d="M14.5,55.9a19,19,0,0,0,6.9,1.2c5.8,0,9.2-2.2,9.2-5.4,0-2.7-2.2-4.2-6.4-5.4-3.2-.9-4.7-1.6-4.7-3.1,0-1.3,1.5-2.5,4.1-2.5a13.11,13.11,0,0,1,5,1l1.1-2.4a15.66,15.66,0,0,0-6-1.1c-5.3,0-8.4,2.4-8.4,5.3,0,2.2,2.1,4,6.5,5.1,3.3.9,4.5,1.8,4.5,3.3s-1.5,2.7-4.8,2.7a16.09,16.09,0,0,1-5.9-1.3Z" style="fill:#3535ed"/><path class="crown" d="M18.6,52l-5.2,5.7a13.56,13.56,0,0,0,19.1-.8l-5.7-5.2A5.92,5.92,0,0,1,18.6,52Zm8.1-.4,5.7,5.2a13.56,13.56,0,0,0-.8-19.1l-5.2,5.7a5.83,5.83,0,0,1,.3,8.2Zm-.3-8.2,5.2-5.7a13.56,13.56,0,0,0-19.1.8l5.7,5.2A5.93,5.93,0,0,1,26.4,43.4ZM18.6,52a5.83,5.83,0,0,1-.4-8.2l-5.7-5.2a13.56,13.56,0,0,0,.8,19.1Zm-1.1-7.2a5.76,5.76,0,0,1,7.9-2.1,5.78,5.78,0,1,1-7.9,2.1ZM8,27c-2.8-4-3.1-8.7-.4-14.1a11.52,11.52,0,0,1,4.3-4.7c7-4.2,12.9-4.9,17.8-2a8.83,8.83,0,0,1,2.6,2.5,17.78,17.78,0,0,1,1.8,15.9,3,3,0,0,1-.4.8c-2,3.1-5.6,3.9-10.1,3.3a9.14,9.14,0,0,0-7.6,0,6.56,6.56,0,0,1-4.6.6A6.69,6.69,0,0,1,8,27ZM24.4,68.5c4.1-1.6,7.6-1.3,10.4,1,2.8,3.4,2.9,8.3.5,14.5a19.23,19.23,0,0,1-6.9,9c-5.4,3.7-11.1,3.3-17.1-1a11.18,11.18,0,0,1-4-4.9A24.1,24.1,0,0,1,5.8,75.3a8.62,8.62,0,0,1,2.1-5.1c2.4-2.6,5.6-2.6,9.5-.7C19.3,71.1,21.7,70.4,24.4,68.5Z" style="fill:#fff;stroke:#000;stroke-miterlimit:10"/><path class="braces" d="M20.9,76.8A2,2,0,0,0,22,77h1.2a3.55,3.55,0,0,0,1-.2h0v2.7a3.55,3.55,0,0,0-1-.2H22a4.25,4.25,0,0,0-1.1.2V76.8h0m4.6-3.9H24.4c-.4.1-.7.4-.6.8v.5a.77.77,0,0,1-.7.8H22a.64.64,0,0,1-.6-.8v-.5a.76.76,0,0,0-.6-.8H19.5a.77.77,0,0,0-.7.8v3.8H.5v1.3H18.9v3.8a.77.77,0,0,0,.7.8h1.1c.4-.1.7-.4.6-.8v-.5c0-.4.3-.8.6-.8h1.2a.64.64,0,0,1,.6.8v.5a.76.76,0,0,0,.6.8h1.1a.64.64,0,0,0,.6-.8V78.8H44.5V77.5H26.1V73.7c0-.4-.3-.8-.6-.8Z"/><path class="gum" d="M44.5,88.1H43.4l-8.8.1c-1.1-.1-4,7.3-14.2,7.3-7.2,0-12.8-7.7-12.8-7.7H.5" style="fill:none;stroke:#ffb900;stroke-linejoin:round;stroke-width:3px"/><path class="paradontit1" d="M44.5,88.1H40.3c-1.9,0-6.2-.6-9,5.1-5.1,10.3-15.9,7.3-18.4,1.7-1.9-4.2-6.6-7-12.4-7" style="fill:none;stroke:#ff822e;stroke-linejoin:round;stroke-width:3px"/><path class="paradontit2" d="M44.5,88.1H38.4c-2.3,0-4.1,3-5.2,4.5-2.2,3-4.8,10.9-11.6,10.9s-9.1-8-11.2-10.8c-1.1-1.5-4-4.8-6.3-4.8H.5" style="fill:none;stroke:#f9610d;stroke-linejoin:round;stroke-width:3px"/><path class="paradontit3" d="M44.5,88.1H43.2L40.9,88c-2.3,0-5.3-.9-6.4.6-2.2,3-3.6,17.1-13.1,17.1S10.5,92.6,8.5,89.8c-1.1-1.5-3.1-2-5.4-2H.5" style="fill:none;stroke:#f9610d;stroke-linejoin:round;stroke-width:3px"/><path class="paradontit4" d="M44.5,88.2H38.3c-3,0-5.4,1.7-6,3.8-1.6,6-5.1,20.8-11.9,20.8s-9.8-15.2-12-21.1a6.26,6.26,0,0,0-5.8-3.9H.5" style="fill:none;stroke:#f75403;stroke-linejoin:round;stroke-width:3px"/><path class="periodontit" d="M38.9,121.9a4.5,4.5,0,1,1-4.5,4.5A4.48,4.48,0,0,1,38.9,121.9ZM3.4,135a4.5,4.5,0,1,0,4.5-4.5A4.48,4.48,0,0,0,3.4,135Z" style="fill:#3535ed"/></g></g></g></svg>