<?xml version="1.0" encoding="utf-8"?>
<!-- Generator: Adobe Illustrator 22.0.0, SVG Export Plug-In . SVG Version: 6.00 Build 0)  -->
<svg version="1.1" id="Слой_1" xmlns="http://www.w3.org/2000/svg" xmlns:xlink="http://www.w3.org/1999/xlink" x="0px" y="0px"
	 viewBox="0 0 115.6 73.3" style="enable-background:new 0 0 115.6 73.3;" xml:space="preserve">
<style type="text/css">
	.st0{fill:none;stroke:#74777F;stroke-width:3;stroke-linecap:round;stroke-linejoin:round;}
</style>
<title>Brush Paste</title>
<g id="Слой_2_1_">
	<g id="_лой_1">
		<g id="_Группа_">
			<g id="_Группа_2">
				<path id="_Контур_" class="st0" d="M112.4,48.4h-4.9L79.2,58h-69c-3.8,0.3-6.7,3.7-6.3,7.5c0.3,3.4,3,6,6.3,6.3h66.7
					c1.5,0,3.1-0.2,4.5-0.7l29.4-9.5h3.3"/>
				<polyline id="_Контур_2" class="st0" points="14.2,35.6 14.2,29.4 24.2,29.4 29.9,37.1 36,29.4 60.4,29.4 				"/>
				<polyline id="_Контур_3" class="st0" points="72,29.4 76.7,29.4 76.7,35 				"/>
				<line id="_Контур_4" class="st0" x1="29.9" y1="37.1" x2="29.9" y2="48.6"/>
				<line id="_Контур_5" class="st0" x1="11.6" y1="58" x2="6.1" y2="29.4"/>
				<line id="_Контур_6" class="st0" x1="76.1" y1="58" x2="85.3" y2="32.2"/>
				<polyline id="_Контур_7" class="st0" points="60.4,29.4 66.2,35.3 72,29.4 				"/>
				<line id="_Контур_8" class="st0" x1="66.2" y1="35.2" x2="66.2" y2="42.8"/>
				<line id="_Контур_9" class="st0" x1="52.5" y1="29.4" x2="52.5" y2="36"/>
			</g>
			<path id="_Контур_10" class="st0" d="M87.6,26.6c1.6-1.8,2.7-3.9,3.1-6.2c0.6-3.5-0.2-7.2-2.2-10.1
				c-14.7,8.8-30.3,11.7-45,1.4c-8-5.6-8.7-7.1-14-8.9C28.2,2.3,16.7-1.3,8.3,6c-7,6.1-6.8,15.3-6.8,16.8h13.9"/>
		</g>
	</g>
</g>
</svg>
