<?xml version="1.0" encoding="utf-8"?>
<!-- Generator: Adobe Illustrator 22.0.0, SVG Export Plug-In . SVG Version: 6.00 Build 0)  -->
<svg version="1.1" id="Слой_1" xmlns="http://www.w3.org/2000/svg" xmlns:xlink="http://www.w3.org/1999/xlink" x="0px" y="0px"
	 viewBox="0 0 102.6 96.9" style="enable-background:new 0 0 102.6 96.9;" xml:space="preserve">
<style type="text/css">
	.st0{fill:none;stroke:#74777F;stroke-width:3;stroke-linecap:round;stroke-linejoin:round;}
</style>
<title>Health Tooth</title>
<g id="Слой_2_1_">
	<g id="_лой_1">
		<g id="_Группа_">
			<g id="_Группа_2">
				<path id="_Контур_" class="st0" d="M37.1,66.8c-0.6,0.5-1.1,1.2-1.3,1.9L34.7,72c-1.2,3.5-1.8,7.3-1.8,11v8.3
					c0,2.3-1.8,4.1-4.1,4.1l0,0c-1.5,0-2.8-0.8-3.6-2.1l-2.9-5c-4.8-8.3-7.6-17.5-8.5-27c-0.4-4.1-1.6-8.1-3.7-11.7l-4.3-7.5
					c-2.8-4.8-4.3-10.4-4.3-16l0,0c-0.1-5.4,1.2-10.7,3.8-15.3C8.7,4.9,15,1.4,21.7,1.5l0,0c1.1,0,2.2,0.1,3.3,0.3l15.1,2.7"/>
				<path id="_Контур_2" class="st0" d="M40.1,4.4l15-2.7c1.1-0.2,2.2-0.3,3.3-0.3l0,0c6.7-0.1,13,3.5,16.4,9.2
					c2.6,4.7,3.9,10,3.8,15.3l0,0"/>
				<path id="_Контур_3" class="st0" d="M36.4,13.3l-9.1-2c-4-0.9-8.2,0.4-10.9,3.5c-0.2,0.2-0.4,0.5-0.6,0.7
					c-1.5,2.2-2.3,4.8-2.2,7.4"/>
			</g>
			<g id="_Группа_3">
				<path id="_Контур_4" class="st0" d="M101.1,74V63.8h-8.9c-1.8,0-3.5-0.9-4.5-2.5c-6.9-11.2-10.6-13-13.5-14.6
					c-1.8-1-3.3-3.4-4.2-5.4c-0.6-1.4-1.1-2.8-1.3-4.3c-0.4-2.9-1.8-4.1-3-4.6c-1.1-0.4-2.4-0.3-3.4,0.2c-1.5,0.7-2.7,1.8-3.6,3.2
					c-2.6,4.3-1,11.2,4.5,16.9c0.5,0.5,0.7,1.1,0.8,1.8c0,1.4-1.1,2.6-2.5,2.6l0,0H48.9c-2.9,0.4-5.3,2.6-5.8,5.5
					c-0.3,2.4,0.6,4.7,2.3,6.3c-1.3,1-2.2,2.5-2.2,4.1c0,1.9,1.1,3.6,2.8,4.5c-1.3,1.5-1.6,3.5-1,5.3c0.6,1.7,2,2.9,3.7,3.4
					c-1,1.2-1.4,2.8-1,4.3c0.6,1.9,2.2,3.2,4.2,3.4h35.6c1,0,1.9-0.2,2.8-0.6s1.7-0.9,2.5-1.6h8.3v-4"/>
				<line id="_Контур_5" class="st0" x1="45.2" y1="68.7" x2="49.9" y2="68.7"/>
				<line id="_Контур_6" class="st0" x1="45.7" y1="77.2" x2="50.9" y2="77.2"/>
				<line id="_Контур_7" class="st0" x1="48.3" y1="86.1" x2="52.8" y2="86.1"/>
				<line id="_Контур_8" class="st0" x1="92.2" y1="63.8" x2="92.2" y2="74"/>
				<line id="_Контур_9" class="st0" x1="92.8" y1="91.8" x2="92.8" y2="86.1"/>
			</g>
		</g>
	</g>
</g>
</svg>
