<?xml version="1.0" encoding="utf-8"?>
<!-- Generator: Adobe Illustrator 22.0.0, SVG Export Plug-In . SVG Version: 6.00 Build 0)  -->
<svg version="1.1" id="Слой_1" xmlns="http://www.w3.org/2000/svg" xmlns:xlink="http://www.w3.org/1999/xlink" x="0px" y="0px"
	 viewBox="0 0 99.2 109.4" style="enable-background:new 0 0 99.2 109.4;" xml:space="preserve">
<style type="text/css">
	.st0{fill:none;stroke:#74777F;stroke-width:3;stroke-linecap:round;stroke-linejoin:round;}
</style>
<title>Point</title>
<g id="Слой_2_1_">
	<g id="_лой_1">
		<g id="_Группа_">
			<g id="_Группа_2">
				<path id="_Контур_" class="st0" d="M39.4,96c0,0,3,2.6,1.4,10.8c0,0,19.3,4.4,31.7-3.8"/>
				<line id="_Контур_2" class="st0" x1="12.8" y1="75.3" x2="17.7" y2="75.3"/>
				<path id="_Контур_3" class="st0" d="M86.6,49c0.8-2.4,1.4-4.8,1.8-7.2c1.2-7.6-1-16.5-4.9-23.1C78.8,10.7,71.1,5.5,62.3,3
					c-1.8-0.5-24.5-6.5-40.6,9c-5.3,5.2-9,11.8-10.8,19c-0.5,1.9-0.7,3.8-0.7,5.7v0.1c0,1.2,0.1,2.4,0.3,3.7
					c0.1,0.8,0.1,1.7,0.1,2.5l0,0c-0.2,3.2-1.1,6.2-2.6,9c-2.2,4-4.6,8-6.5,11.9H11l-0.1,4.7c0,0.9-0.3,1.7-0.8,2.4
					c-0.3,0.5-0.5,1.1-0.4,1.7c0.1,1.1,0.8,2,1.9,2.2l1.4,0.4c-1.3,0.2-2.3,1.1-2.7,2.3v0.1c-0.3,1.2,0.4,2.5,1.6,2.9
					c0.7,0.2,1.3,0.7,1.7,1.4c0.8,1.4,0.3,3.8-1.6,5.4c-0.2,0.2-0.3,0.3-0.4,0.5c-0.8,1.6-0.1,3.6,1.5,4.4c0.2,0.1,0.4,0.2,0.6,0.2
					c2.3,0.6,4.7,1,7.2,1.2c4,0.4,8.1-0.3,11.8-1.9"/>
			</g>
			<path id="_Контур_4" class="st0" d="M97.7,86.8c0,2.3-1.2,4.5-3.2,5.7l0,0c-1.8,1.1-3.9,1.7-6,1.7H67.9
				c-1.5,0-2.8-0.6-3.8-1.7c-1-1.3-1.4-3.4,2.2-5.9H63c-1.8,0.1-3.5-1.1-4-2.9c-0.1-0.4-0.1-0.7-0.1-1.1c0.1-2,3.2-3.9,3.6-4.3H59
				c-1.7,0.1-3.2-1-3.7-2.6c-0.1-0.4-0.1-0.8-0.1-1.2c0.2-1.4,1-2.5,2.3-3.1l1.8-0.8H43.1c-2,0.1-3.8-1.3-4.3-3.2
				c0-0.2-0.1-0.4-0.1-0.6c0-0.4,0-0.8,0.1-1.2c0.5-1.9,2.3-3.2,4.2-3.1h25.8c0.4,0,0.8-0.1,1.1-0.4c0.3-0.4,0.4-0.9,0.2-1.3
				l-3.7-2.5c0,0-3.9-1.9-4.3-4.8c-0.1-1.1,0.8-2.1,1.9-2.1c0.3,0,0.6,0,0.8,0.1L93.4,63c0.9,0.4,1.7,0.9,2.4,1.6l0,0
				c1.2,1.2,1.8,2.9,1.8,4.6"/>
			<path id="_Контур_5" class="st0" d="M49.2,83.2c-8.4,5.5-19.6,3.1-25.1-5.3S21,58.3,29.4,52.8c6.5-4.2,15-3.8,21.1,1"/>
			<path id="_Контур_6" class="st0" d="M45.5,75.6c-1.6,1.2-3.6,1.9-5.7,1.9c-5.3,0-9.5-4.3-9.5-9.5s4.3-9.5,9.5-9.5"/>
		</g>
	</g>
</g>
</svg>
