<?xml version="1.0" encoding="utf-8"?>
<!-- Generator: Adobe Illustrator 22.0.0, SVG Export Plug-In . SVG Version: 6.00 Build 0)  -->
<svg version="1.1" id="Слой_1" xmlns="http://www.w3.org/2000/svg" xmlns:xlink="http://www.w3.org/1999/xlink" x="0px" y="0px"
	 viewBox="0 0 110.7 96.9" style="enable-background:new 0 0 110.7 96.9;" xml:space="preserve">
<style type="text/css">
	.st0{fill:none;stroke:#74777F;stroke-width:3;stroke-linecap:round;stroke-linejoin:round;}
</style>
<title>Tooth Star</title>
<g id="Слой_2_1_">
	<g id="_лой_1">
		<g id="_Группа_">
			<g id="_Группа_2">
				<path id="_Контур_" class="st0" d="M55,93.4c-0.7,1.3-2.1,2.1-3.6,2.1l0,0c-2.3,0-4.1-1.8-4.1-4.1l0,0v-7.9
					c0-4-0.7-8-2.1-11.8l-1.1-3.1c-0.6-1.7-2.3-2.9-4.2-2.9l0,0c-1.9,0-3.6,1.2-4.2,3L34.6,72c-1.2,3.5-1.8,7.3-1.8,11v8.3
					c0,2.3-1.8,4.1-4.1,4.1l0,0c-1.5,0-2.8-0.8-3.6-2.1l-2.9-5c-4.8-8.3-7.6-17.5-8.5-27c-0.4-4.1-1.6-8.1-3.7-11.7l-4.3-7.5
					c-2.7-4.8-4.2-10.4-4.2-16l0,0c-0.1-5.4,1.2-10.7,3.8-15.3C8.7,4.9,15,1.4,21.7,1.5l0,0c1.1,0,2.2,0.1,3.3,0.3l15.1,2.7"/>
				<path id="_Контур_2" class="st0" d="M40.1,4.4l15-2.7c1.1-0.2,2.2-0.3,3.3-0.3l0,0c6.7-0.1,13,3.5,16.4,9.2
					c2.6,4.7,3.9,10,3.8,15.3l0,0c0,2.4-0.3,4.7-0.8,7"/>
				<path id="_Контур_3" class="st0" d="M36.4,13.3l-9.1-2c-4-0.9-8.2,0.4-10.9,3.5c-0.2,0.2-0.4,0.5-0.6,0.7
					c-1.5,2.2-2.3,4.8-2.2,7.4"/>
			</g>
			<g id="_Группа_3">
				<polyline id="_Контур_4" class="st0" points="64.3,78.8 65,74.7 50.3,60.4 70.7,57.5 79.8,39 88.8,57.5 93.5,58.1 				"/>
				<polyline id="_Контур_5" class="st0" points="101.4,59.3 109.2,60.4 94.5,74.7 97.9,95 79.8,85.4 61.6,95 62.6,88.8 				
					"/>
			</g>
		</g>
	</g>
</g>
</svg>
