<?xml version="1.0" encoding="utf-8"?>
<!-- Generator: Adobe Illustrator 22.0.0, SVG Export Plug-In . SVG Version: 6.00 Build 0)  -->
<svg version="1.1" id="Слой_1" xmlns="http://www.w3.org/2000/svg" xmlns:xlink="http://www.w3.org/1999/xlink" x="0px" y="0px"
	 viewBox="0 0 113.1 102.5" style="enable-background:new 0 0 113.1 102.5;" xml:space="preserve">
<style type="text/css">
	.st0{fill:none;stroke:#74777F;stroke-width:3;stroke-linecap:round;stroke-linejoin:round;}
</style>
<title>Tooth Bacteria</title>
<g id="Слой_2_1_">
	<g id="_лой_1">
		<g id="_Группа_">
			<path id="_Контур_" class="st0" d="M32.9,8.8L25,7.4c-1.1-0.2-2.2-0.3-3.3-0.3l0,0C15,7,8.7,10.5,5.3,16.3
				c-2.6,4.7-3.9,10-3.8,15.3l0,0c0,5.7,1.5,11.2,4.3,16.1l4.3,7.5c2.1,3.6,3.3,7.6,3.7,11.7c0.8,9.5,3.7,18.7,8.5,27l2.9,5
				c0.8,1.3,2.1,2,3.6,2l0,0c2.3,0,4.1-1.8,4.1-4.1V89c0-4,0.7-8,2.1-11.8l1.1-3.1c0.6-1.7,2.3-2.9,4.1-2.9l0,0c1.9,0,3.6,1.2,4.2,3
				l1.1,3.3c1.2,3.5,1.8,7.3,1.8,11V97c0,2.2,1.9,4,4.1,4l0,0c1.5,0,2.8-0.8,3.5-2l2.9-5c4.8-8.3,7.7-17.5,8.5-27
				c0.4-4.1,1.6-8.1,3.7-11.7"/>
			<path id="_Контур_2" class="st0" d="M88,43.1l1.2,1.1l7,6.2l5.4,4.8l8,7c2.3,2,2.7,5.4,0.8,7.8c-0.1,0.2-0.3,0.3-0.4,0.5
				l-0.1,0.1c-2.2,2.2-5.6,2.3-7.9,0.2l-7.9-7L88.7,59l-7-6.2l-1.2-1.1l1.2-1.4l4.9-5.6L88,43.1z"/>
			<path id="_Составной_контур_" class="st0" d="M84.2,29.2c0.6-4.9-0.2-9.8-2.4-14.2c-1.4-2.8-3.3-5.3-5.7-7.4
				c-2.4-2.2-5.3-3.8-8.3-4.8c-9.4-3.2-19.8-0.4-26.3,7c-2.9,3.3-4.9,7.4-5.7,11.7c-0.2,0.8-0.3,1.6-0.4,2.5
				c-0.1,1.8-0.1,3.6,0.2,5.4c1.9,13.4,14.3,22.8,27.7,20.9C74.2,48.8,82.8,40.1,84.2,29.2L84.2,29.2z"/>
			<path id="_Контур_3" class="st0" d="M48.3,39.2c-3.1-2.8-5.2-6.6-5.7-10.7c-0.2-1.3-0.2-2.6-0.1-3.9c0-0.6,0.1-1.2,0.2-1.8
				C43.9,16,49.2,10.5,56.1,9c1.2-0.3,2.5-0.4,3.8-0.4c1.9,0,3.8,0.3,5.7,0.9"/>
			<path id="_Контур_4" class="st0" d="M71.4,12.9c1.7,1.5,3.1,3.3,4.1,5.3c4.3,8.6,0.9,19.1-7.7,23.5c-1.9,1-4,1.6-6.2,1.8
				c-0.6,0.1-1.2,0.1-1.8,0.1l0,0"/>
			<line id="_Контур_5" class="st0" x1="78.2" y1="42.5" x2="84.2" y2="47.7"/>
			<path id="_Контур_6" class="st0" d="M66.9,18.2c0,1.2-1,2.2-2.2,2.2c-1.2,0-2.2-1-2.2-2.2s1-2.2,2.2-2.2
				C65.9,16,66.9,17,66.9,18.2L66.9,18.2z"/>
			<path id="_Контур_7" class="st0" d="M61.3,34.7c0,1.2-1,2.2-2.2,2.2s-2.2-1-2.2-2.2s1-2.2,2.2-2.2S61.3,33.5,61.3,34.7
				L61.3,34.7z"/>
			<path id="_Контур_8" class="st0" d="M50.1,26.6c0,0.2-0.1,0.3-0.3,0.4l0,0c-0.2,0-0.3-0.2-0.3-0.4s0.2-0.4,0.3-0.4
				S50.1,26.4,50.1,26.6z"/>
			<path id="_Контур_9" class="st0" d="M64.7,29.1c0.3-1.3,1.1-2.3,2.2-2.9c1.3-0.6,2.8-0.4,4,0.3"/>
			<path id="_Контур_10" class="st0" d="M53.5,17.6c1.3,0,2.5,0.6,3.3,1.6c0.8,1.2,1,2.6,0.5,3.9"/>
			<path id="_Контур_11" class="st0" d="M25,16.9c-4-0.9-8.2,0.4-10.9,3.5c-0.2,0.2-0.4,0.5-0.6,0.7c-1.5,2.2-2.3,4.8-2.2,7.4
				"/>
		</g>
	</g>
</g>
</svg>
