<?xml version="1.0" encoding="utf-8"?>
<!-- Generator: Adobe Illustrator 22.0.0, SVG Export Plug-In . SVG Version: 6.00 Build 0)  -->
<svg version="1.1" id="Слой_1" xmlns="http://www.w3.org/2000/svg" xmlns:xlink="http://www.w3.org/1999/xlink" x="0px" y="0px"
	 viewBox="0 0 100.5 99.2" style="enable-background:new 0 0 100.5 99.2;" xml:space="preserve">
<style type="text/css">
	.st0{fill:none;stroke:#74777F;stroke-width:3;stroke-linecap:round;stroke-linejoin:round;}
</style>
<title>Tooth Dental Floss</title>
<g id="Слой_2_1_">
	<g id="_лой_1">
		<g id="_Группа_">
			<g id="_Группа_2">
				<path id="_Контур_" class="st0" d="M63.7,12.6l-6.3-1.4c-2.8-0.7-5.7,0.3-7.6,2.4c-0.1,0.2-0.3,0.3-0.4,0.5
					c-1.1,1.5-1.6,3.3-1.6,5.1"/>
				<g id="_Группа_3">
					<path id="_Контур_2" class="st0" d="M68.7,3.8l11.8-2.1c0.9-0.2,1.7-0.2,2.6-0.2l0,0C88.4,1.4,93.3,4.2,96,8.8
						c2,3.7,3.1,7.8,3,12l0,0c0,4.5-1.2,8.8-3.4,12.7l-3.4,5.9c-1.6,2.8-2.6,5.9-2.9,9.1c-0.6,7.5-2.9,14.7-6.7,21.2l-2.2,3.9
						c-0.6,1-1.6,1.6-2.8,1.6l0,0c-1.8,0-3.2-1.4-3.2-3.2l0,0v-6.2c0-3.2-0.6-6.3-1.7-9.2l-0.9-2.4C71.3,52.9,70,52,68.6,52l0,0
						c-1.5,0-2.8,0.9-3.3,2.3l-0.9,2.6c-0.9,2.8-1.4,5.7-1.4,8.6V72c0,1.8-1.4,3.2-3.2,3.2l0,0l0,0c-1.1,0-2.2-0.6-2.8-1.6l-2.2-3.9
						c-3.7-6.5-6-13.7-6.7-21.2c-0.3-3.2-1.3-6.3-2.9-9.1l-3.4-5.9c-2.2-3.9-3.4-8.2-3.4-12.7l0,0c-0.1-4.2,1-8.3,3-12
						c2.7-4.5,7.5-7.3,12.8-7.3l0,0c0.9,0,1.7,0.1,2.6,0.2L68.7,3.8"/>
				</g>
			</g>
			<g id="_Группа_4">
				<path id="_Контур_3" class="st0" d="M1.5,66.6v14.8c0,9,7.3,16.3,16.3,16.3l0,0l0,0c9,0,16.3-7.3,16.3-16.3l0,0V66.6
					c0-6-4.9-10.9-10.9-10.9h-11C6.3,55.7,1.5,60.6,1.5,66.6z"/>
				<path id="_Контур_4" class="st0" d="M17.8,62.6L17.8,62.6c1.5,0,2.7,1.2,2.7,2.7v2.6c0,1.5-1.2,2.7-2.7,2.7l0,0
					c-1.5,0-2.7-1.2-2.7-2.7l0,0v-2.6C15.2,63.8,16.4,62.6,17.8,62.6L17.8,62.6z"/>
			</g>
			<path id="_Контур_5" class="st0" d="M17.9,55.7v-6.6c0-4.5,3.7-8.2,8.2-8.2l0,0h11.4"/>
		</g>
	</g>
</g>
</svg>
