<svg xmlns="http://www.w3.org/2000/svg" viewBox="0 0 106.29 99.76"><title>Tooth World</title><g id="Слой_2" data-name="Слой 2"><g id="_лой_1" data-name="—лой_1"><g id="_Группа_" data-name="&lt;Группа&gt;"><g id="_Группа_2" data-name="&lt;Группа&gt;"><path id="_Контур_" data-name="&lt;Контур&gt;" d="M74.21,42.7l-5.49-1.21a6.73,6.73,0,0,0-6.59,2.1,4.71,4.71,0,0,0-.33.42,7.56,7.56,0,0,0-1.36,4.47" style="fill:none;stroke:#74777f;stroke-linecap:round;stroke-linejoin:round;stroke-width:3px"/><g id="_Группа_3" data-name="&lt;Группа&gt;"><path id="_Контур_2" data-name="&lt;Контур&gt;" d="M78.51,35.05l10.26-1.81A13.3,13.3,0,0,1,91,33h0a12.8,12.8,0,0,1,11.16,6.3,20.68,20.68,0,0,1,2.58,10.44h0a22.12,22.12,0,0,1-2.93,11l-2.93,5.13a19.35,19.35,0,0,0-2.5,7.93,44.67,44.67,0,0,1-5.78,18.4l-2,3.4A2.8,2.8,0,0,1,86.27,97h0a2.8,2.8,0,0,1-2.8-2.8V88.88a23,23,0,0,0-1.44-8l-.78-2.09a3,3,0,0,0-2.82-2h0a3,3,0,0,0-2.84,2l-.78,2.26a22.82,22.82,0,0,0-1.25,7.46v5.66a2.8,2.8,0,0,1-2.8,2.8h0a2.8,2.8,0,0,1-2.43-1.4l-2-3.4a44.67,44.67,0,0,1-5.78-18.4,19.35,19.35,0,0,0-2.5-7.93l-2.93-5.13a22.12,22.12,0,0,1-2.93-11h0a20.62,20.62,0,0,1,2.59-10.46A12.8,12.8,0,0,1,66,33h0a13.3,13.3,0,0,1,2.27.2l10.25,1.81" style="fill:none;stroke:#74777f;stroke-linecap:round;stroke-linejoin:round;stroke-width:3px"/></g></g><g id="_Группа_4" data-name="&lt;Группа&gt;"><path id="_Контур_3" data-name="&lt;Контур&gt;" d="M57.76,97.61A48.38,48.38,0,1,1,92.19,26.4" style="fill:none;stroke:#74777f;stroke-linecap:round;stroke-linejoin:round;stroke-width:3px"/><line id="_Контур_4" data-name="&lt;Контур&gt;" x1="49.88" y1="63.37" x2="49.88" y2="98.26" style="fill:none;stroke:#74777f;stroke-linecap:round;stroke-linejoin:round;stroke-width:3px"/><line id="_Контур_5" data-name="&lt;Контур&gt;" x1="49.88" y1="1.5" x2="49.88" y2="18.1" style="fill:none;stroke:#74777f;stroke-linecap:round;stroke-linejoin:round;stroke-width:3px"/><line id="_Контур_6" data-name="&lt;Контур&gt;" x1="1.5" y1="49.88" x2="23.81" y2="49.88" style="fill:none;stroke:#74777f;stroke-linecap:round;stroke-linejoin:round;stroke-width:3px"/><path id="_Контур_7" data-name="&lt;Контур&gt;" d="M18.16,13.36a108.73,108.73,0,0,0,32,4.75,108.53,108.53,0,0,0,31.4-4.75" style="fill:none;stroke:#74777f;stroke-linecap:round;stroke-linejoin:round;stroke-width:3px"/><path id="_Контур_8" data-name="&lt;Контур&gt;" d="M18.24,86.47a95.07,95.07,0,0,1,30.91-5.42H56" style="fill:none;stroke:#74777f;stroke-linecap:round;stroke-linejoin:round;stroke-width:3px"/><path id="_Контур_9" data-name="&lt;Контур&gt;" d="M38.48,2.86a82.67,82.67,0,0,0,0,94" style="fill:none;stroke:#74777f;stroke-linecap:round;stroke-linejoin:round;stroke-width:3px"/><path id="_Контур_10" data-name="&lt;Контур&gt;" d="M61.29,2.86a83.22,83.22,0,0,1,10.76,22" style="fill:none;stroke:#74777f;stroke-linecap:round;stroke-linejoin:round;stroke-width:3px"/><line id="_Контур_11" data-name="&lt;Контур&gt;" x1="50.19" y1="18.11" x2="50.19" y2="34.72" style="fill:none;stroke:#74777f;stroke-linecap:round;stroke-linejoin:round;stroke-width:3px"/><line id="_Контур_12" data-name="&lt;Контур&gt;" x1="23.81" y1="49.97" x2="44.37" y2="49.97" style="fill:none;stroke:#74777f;stroke-linecap:round;stroke-linejoin:round;stroke-width:3px"/></g></g></g></g></svg>