<svg xmlns="http://www.w3.org/2000/svg" viewBox="0 0 93.23 120.15"><title>WDoctor2</title><g id="Слой_2" data-name="Слой 2"><g id="_лой_1" data-name="—лой_1"><g id="_Группа_" data-name="&lt;Группа&gt;"><path id="_Контур_" data-name="&lt;Контур&gt;" d="M57.62,7.94,56.51,19.3H24.32L23.09,8A3.92,3.92,0,0,1,26,3.78l2.64-.71a45.31,45.31,0,0,1,24,.09l2.2.62A3.92,3.92,0,0,1,57.62,7.94Z" style="fill:none;stroke:#74777f;stroke-linecap:round;stroke-linejoin:round;stroke-width:3px"/><line id="_Контур_2" data-name="&lt;Контур&gt;" x1="40.53" y1="6.47" x2="40.53" y2="14.33" style="fill:none;stroke:#74777f;stroke-linecap:round;stroke-linejoin:round;stroke-width:3px"/><line id="_Контур_3" data-name="&lt;Контур&gt;" x1="44.43" y1="10.4" x2="40.85" y2="10.4" style="fill:none;stroke:#74777f;stroke-linecap:round;stroke-linejoin:round;stroke-width:3px"/><line id="_Контур_4" data-name="&lt;Контур&gt;" x1="40.53" y1="10.4" x2="36.57" y2="10.4" style="fill:none;stroke:#74777f;stroke-linecap:round;stroke-linejoin:round;stroke-width:3px"/><path id="_Контур_5" data-name="&lt;Контур&gt;" d="M19.11,20.59a25.4,25.4,0,0,0-3,11.91c0,2.31.08,4.73.29,7.28a91.67,91.67,0,0,0,3.67,19.35,4.56,4.56,0,0,1-5.6,5.74,9.06,9.06,0,0,1-2.65-1.32s.42,6.64,8,7.84l11.61-2.25a2.63,2.63,0,0,0,.94-.63,2.69,2.69,0,0,0,.48-.63,4,4,0,0,0,.21-.47,3.43,3.43,0,0,0,.14-.5,5.51,5.51,0,0,0,.13-1.26c0-.18,0-.35,0-.5a1.64,1.64,0,0,0,0-.4,5.56,5.56,0,0,0-.13-.8" style="fill:none;stroke:#74777f;stroke-linecap:round;stroke-linejoin:round;stroke-width:3px"/><path id="_Контур_6" data-name="&lt;Контур&gt;" d="M48.66,63.9s0,.07,0,.11,0,.15,0,.25a1.5,1.5,0,0,0,0,.22,2.77,2.77,0,0,0,0,.3c-.07,1.41.15,3.6,2,4.36l11.55,2.24c7.52-1.24,7.94-7.83,7.94-7.83a9.35,9.35,0,0,1-2.66,1.32,4.74,4.74,0,0,1-1.76.18,3.82,3.82,0,0,1-1.13-.28A4.37,4.37,0,0,1,62,60.51l.17-4.09,2-6.54a93.75,93.75,0,0,0,1.38-10.1c.2-2.55.3-5,.3-7.28A25.42,25.42,0,0,0,62,19.07" style="fill:none;stroke:#74777f;stroke-linecap:round;stroke-linejoin:round;stroke-width:3px"/><path id="_Контур_7" data-name="&lt;Контур&gt;" d="M19.87,71.39l-2.74.53L9.94,73.31A11.32,11.32,0,0,0,1.5,80.4v26.48l27.25,11.77h63L80.57,80.4a11.31,11.31,0,0,0-8.43-7.09L66,72.12" style="fill:none;stroke:#74777f;stroke-linecap:round;stroke-linejoin:round;stroke-width:3px"/><path id="_Контур_8" data-name="&lt;Контур&gt;" d="M35.22,24.72a20.29,20.29,0,0,1-11.66,14v.74A27,27,0,0,0,24.1,45l0,.15a43.23,43.23,0,0,0,5.81,14.2,18.7,18.7,0,0,0,3.6,3.91,14.87,14.87,0,0,0,4.77,2.64,13,13,0,0,0,1.68.43,7.41,7.41,0,0,0,1.08.08,9.51,9.51,0,0,0,1.09-.07,9.07,9.07,0,0,0,1.68-.44,16.6,16.6,0,0,0,4.49-2.73,26.29,26.29,0,0,0,3.93-4A33.06,33.06,0,0,0,58,45.1s0,0,0-.05a27.9,27.9,0,0,0,.56-5.62v-.55C37.54,38.63,35.22,24.72,35.22,24.72Z" style="fill:none;stroke:#74777f;stroke-linecap:round;stroke-linejoin:round;stroke-width:3px"/><path id="_Контур_9" data-name="&lt;Контур&gt;" d="M62.14,71.38l-.18,0" style="fill:none;stroke:#74777f;stroke-linecap:round;stroke-linejoin:round;stroke-width:3px"/><path id="_Контур_10" data-name="&lt;Контур&gt;" d="M56.16,80l-4.39.14L52.24,83l-10.62,22L29.7,83.2l.51-2.5-5.42.59-11.63-8.6L20,71.41l-.1,0,11.61-2.25,10.14,23.6,9-23.6,11.54,2.24,7.94,1.53Z" style="fill:none;stroke:#74777f;stroke-linecap:round;stroke-linejoin:round;stroke-width:3px"/><line id="_Контур_11" data-name="&lt;Контур&gt;" x1="31.34" y1="69.36" x2="19.97" y2="71.41" style="fill:none;stroke:#74777f;stroke-linecap:round;stroke-linejoin:round;stroke-width:3px"/><path id="_Контур_12" data-name="&lt;Контур&gt;" d="M43.32,112a1.66,1.66,0,1,1-1.66-1.66A1.66,1.66,0,0,1,43.32,112Z" style="fill:none;stroke:#74777f;stroke-linecap:round;stroke-linejoin:round;stroke-width:3px"/></g></g></g></svg>