<?xml version="1.0" encoding="utf-8"?>
<!-- Generator: Adobe Illustrator 22.0.0, SVG Export Plug-In . SVG Version: 6.00 Build 0)  -->
<svg version="1.1" id="Слой_1" xmlns="http://www.w3.org/2000/svg" xmlns:xlink="http://www.w3.org/1999/xlink" x="0px" y="0px"
	 viewBox="0 0 71.9 100.4" style="enable-background:new 0 0 71.9 100.4;" xml:space="preserve">
<style type="text/css">
	.st0{fill:none;stroke:#74777F;stroke-width:3;stroke-linecap:round;stroke-linejoin:round;}
</style>
<title>X ray</title>
<g id="Слой_2_1_">
	<g id="_лой_1">
		<g id="_Группа_">
			<g id="_Группа_2">
				<g id="_Группа_3">
					<path id="_Контур_" class="st0" d="M36,32.9l5.8-0.9c0.4-0.1,0.8-0.1,1.2-0.1l0,0c2.5-0.1,4.9,1.2,6.3,3.3
						c1,1.7,1.5,3.6,1.5,5.5l0,0c0,2.1-0.6,4.1-1.7,5.8l-1.7,2.7c-0.8,1.3-1.3,2.7-1.4,4.2c-0.3,3.4-1.4,6.8-3.2,9.7l-1.1,1.8
						c-0.3,0.5-0.8,0.7-1.4,0.7l0,0c-0.8,0-1.6-0.6-1.6-1.5l0,0v-2.8c0-1.4-0.2-2.9-0.7-4.2L37.5,56c-0.3-0.6-0.9-1-1.6-1l0,0
						c-0.7,0-1.3,0.4-1.6,1l-0.4,1.2c-0.5,1.3-0.7,2.6-0.7,3.9v3c0,0.8-0.7,1.5-1.6,1.5l0,0l0,0c-0.6,0-1.1-0.3-1.4-0.7l-1.1-1.8
						c-1.8-2.9-2.9-6.3-3.3-9.7c-0.1-1.5-0.6-2.9-1.4-4.2l-1.6-2.7c-1.1-1.7-1.6-3.8-1.6-5.8l0,0c0-1.9,0.5-3.8,1.5-5.5
						c1.4-2.1,3.8-3.4,6.3-3.3l0,0c0.4,0,0.9,0,1.3,0.1L36,32.9"/>
				</g>
			</g>
			<g id="_Группа_4">
				<path id="_Прямоугольник_" class="st0" d="M33.6,89.3h4.9c0.9,0,1.7,0.8,1.7,1.7v1.8c0,0.9-0.8,1.7-1.7,1.7h-4.9
					c-0.9,0-1.7-0.8-1.7-1.7V91C32,90,32.7,89.3,33.6,89.3z"/>
				<g id="_Группа_5">
					<path id="_Контур_2" class="st0" d="M64.9,1.5H7C4,1.5,1.5,4,1.5,7v86.4c0,3,2.5,5.5,5.5,5.5h57.9c3.1,0,5.5-2.5,5.5-5.5
						V7C70.4,4,68,1.5,64.9,1.5z"/>
					<rect id="_Контур_3" x="11.6" y="13.3" class="st0" width="48.9" height="68.2"/>
				</g>
			</g>
		</g>
	</g>
</g>
</svg>
