<?xml version="1.0" encoding="utf-8"?>
<!-- Generator: Adobe Illustrator 22.0.0, SVG Export Plug-In . SVG Version: 6.00 Build 0)  -->
<svg version="1.1" id="Слой_1" xmlns="http://www.w3.org/2000/svg" xmlns:xlink="http://www.w3.org/1999/xlink" x="0px" y="0px"
	 viewBox="0 0 121.4 63.9" style="enable-background:new 0 0 121.4 63.9;" xml:space="preserve">
<style type="text/css">
	.st0{fill:none;stroke:#74777F;stroke-width:3;stroke-linecap:round;stroke-linejoin:round;}
</style>
<title>Brekets</title>
<g id="Слой_2_1_">
	<g id="_лой_1">
		<g id="_Группа_">
			<path id="_Контур_" class="st0" d="M23.2,62.1c-2.7,0-5.3,0.2-7,0.3c-2.8,0.1-5.4-1.5-6.4-4.1c-1-2.2-1.7-5.5-1.6-10.5
				C8.2,47,8.3,32,16.9,24c2.4-2.2,5.4-3.3,8.6-3.3h0.3c3.2,0,6.3,1.1,8.6,3.3c8.6,8,8.7,23,8.7,23.7c0.2,3.3-0.2,6.6-1.1,9.8
				c-0.9,3-3.7,4.9-6.7,4.8c-2-0.1-4.9-0.3-7.1-0.3L23.2,62.1L23.2,62.1z"/>
			<path id="_Контур_2" class="st0" d="M58.9,62.1c-2.7,0-5.3,0.2-7,0.3c-2.8,0.1-5.4-1.5-6.4-4.1c-1-2.2-1.7-5.5-1.5-10.5
				C44,47,44,32,52.6,24c2.4-2.2,5.4-3.3,8.6-3.3h0.3c3.2,0,6.3,1.1,8.6,3.3c8.6,8,8.7,23.1,8.7,23.8c0.2,3.3-0.2,6.6-1.1,9.8
				c-0.9,3-3.7,4.9-6.8,4.8c-2-0.1-4.9-0.3-7.1-0.3H58.9z"/>
			<path id="_Контур_3" class="st0" d="M93.8,62.1c-2.7,0-5.3,0.2-7,0.3c-2.8,0.1-5.4-1.5-6.4-4.1c-1-2.2-1.7-5.5-1.6-10.5
				C78.9,47,79,32,87.5,24c2.4-2.2,5.4-3.3,8.6-3.3h0.3c3.2,0,6.3,1.1,8.7,3.3c8.6,8,8.7,23.1,8.7,23.8c0.2,3.3-0.2,6.6-1.1,9.8
				c-0.9,2.9-3.7,4.9-6.7,4.8c-2-0.1-4.9-0.3-7.1-0.3H93.8z"/>
			<path id="_Контур_4" class="st0" d="M54.3,44.2c-7.7-0.2-15.2-0.5-22.4-1"/>
			<path id="_Контур_5" class="st0" d="M89.9,43.7C82.6,44,75,44.2,67.2,44.2"/>
			<rect id="_Прямоугольник_" x="18.8" y="36.5" class="st0" width="12.9" height="12.9"/>
			<rect id="_Прямоугольник_2" x="54.3" y="36.5" class="st0" width="12.9" height="12.9"/>
			<rect id="_Прямоугольник_3" x="89.9" y="36.5" class="st0" width="12.9" height="12.9"/>
			<path id="_Контур_6" class="st0" d="M8.2,44.3c-3.7,0-6.7-3-6.7-6.7c0-0.4,0-0.9,0.1-1.3L4.1,23
				c2.4-12.5,13.3-21.5,26-21.5h61.3c12.7,0,23.6,9,25.9,21.5l2.5,13.3c0.7,3.6-1.7,7.2-5.3,7.9c-0.3,0.1-0.6,0.1-0.9,0.1"/>
			<line id="_Контур_7" class="st0" x1="18.8" y1="42.2" x2="9.1" y2="40.9"/>
			<line id="_Контур_8" class="st0" x1="102.8" y1="42.9" x2="112.5" y2="41.5"/>
			<line id="_Контур_9" class="st0" x1="60.7" y1="36.5" x2="60.7" y2="32"/>
			<line id="_Контур_10" class="st0" x1="60.7" y1="49.4" x2="60.7" y2="53.7"/>
			<line id="_Контур_11" class="st0" x1="96.3" y1="36.5" x2="96.3" y2="32"/>
			<line id="_Контур_12" class="st0" x1="96.3" y1="49.4" x2="96.3" y2="53.7"/>
			<line id="_Контур_13" class="st0" x1="25.2" y1="36.5" x2="25.2" y2="32"/>
			<line id="_Контур_14" class="st0" x1="25.2" y1="49.4" x2="25.2" y2="53.7"/>
		</g>
	</g>
</g>
</svg>
