<?xml version="1.0" encoding="utf-8"?>
<!-- Generator: Adobe Illustrator 22.0.0, SVG Export Plug-In . SVG Version: 6.00 Build 0)  -->
<svg version="1.1" id="Слой_1" xmlns="http://www.w3.org/2000/svg" xmlns:xlink="http://www.w3.org/1999/xlink" x="0px" y="0px"
	 viewBox="0 0 112.2 76.1" style="enable-background:new 0 0 112.2 76.1;" xml:space="preserve">
<style type="text/css">
	.st0{fill:none;stroke:#74777F;stroke-width:3;stroke-linecap:round;stroke-linejoin:round;}
</style>
<title>Corons</title>
<g id="Слой_2_1_">
	<g id="_лой_1">
		<g id="_Группа_">
			<path id="_Контур_" class="st0" d="M79.3,38.9l6.3-1c0.5-0.1,0.9-0.1,1.4-0.1l0,0c2.7-0.1,5.3,1.2,6.9,3.4
				c1.1,1.6,1.6,3.6,1.6,5.5l0,0c0,2.1-0.6,4.1-1.8,5.8L92,55.2c-0.9,1.3-1.4,2.7-1.6,4.2c-0.4,3.5-1.6,6.8-3.6,9.8L85.7,71
				c-0.3,0.5-0.9,0.8-1.5,0.8l0,0c-0.9,0.1-1.7-0.6-1.7-1.5v-2.9c0-1.5-0.3-2.9-0.9-4.2L81,62.1c-0.3-0.6-1-1-1.7-1l0,0
				c-0.8,0-1.5,0.4-1.8,1.1L77,63.3c-0.5,1.3-0.8,2.6-0.8,4v3c-0.1,0.9-0.8,1.5-1.7,1.5l0,0c-0.6,0-1.2-0.3-1.5-0.8l-1.2-1.8
				c-2-2.9-3.2-6.3-3.6-9.8c-0.2-1.5-0.7-2.9-1.6-4.2l-1.8-2.7c-1.2-1.7-1.8-3.7-1.8-5.8l0,0c0-2,0.5-3.9,1.6-5.5
				c1.6-2.2,4.2-3.4,6.9-3.3l0,0c0.5,0,0.9,0,1.4,0.1L79.3,38.9"/>
			<path id="_Контур_2" class="st0" d="M33.5,26c-2.7-1-5.6-1.3-8.5-0.8c-1.7,0.3-3.4,0.9-4.9,1.7l-0.3-1
				C19,23.2,18,20.6,17.1,18c-0.6-1.6-0.9-3.4-0.9-5.1c0-2.5,0.6-4.9,1.8-7.1c1.6-2.7,4.5-4.3,7.6-4.3l0,0c0.5,0,1,0,1.5,0.1l7,1.2
				l7-1.2c0.5-0.1,1-0.1,1.5-0.1l0,0c3.1,0,6,1.6,7.6,4.3c0.5,1,0.9,2,1.2,3.1c0.3,1.3,0.5,2.7,0.5,4c0,1.7-0.3,3.5-0.9,5.1
				c-1,2.8-1.5,3.8-2.8,8.1c-0.1,0.3-0.2,0.6-0.2,0.8"/>
			<path id="_Контур_3" class="st0" d="M66,26.9c0-0.2-0.1-0.5-0.2-0.8C64.5,21.8,64,20.8,63,18c-0.6-1.6-0.9-3.4-0.9-5.1
				c0-1.4,0.2-2.7,0.5-4.1c0.3-1.1,0.7-2.1,1.2-3.1c1.6-2.7,4.5-4.3,7.6-4.3l0,0c0.5,0,1,0.1,1.5,0.2l7,1.2l7-1.2
				c0.5-0.1,1-0.1,1.5-0.1l0,0c3.1,0,6,1.6,7.6,4.3c1.2,2.2,1.8,4.6,1.8,7.1c0,1.7-0.3,3.5-0.9,5.1c-0.9,2.6-1.9,5.2-2.7,7.8l-0.3,1
				c-1.5-0.8-3.2-1.4-4.9-1.7c-2.8-0.5-5.8-0.2-8.5,0.8"/>
			<path id="_Контур_4" class="st0" d="M34,38.9l6.3-1c0.5-0.1,0.9-0.1,1.4-0.1l0,0c2.7-0.1,5.3,1.2,6.9,3.3
				c1.1,1.6,1.6,3.6,1.6,5.5l0,0c0,2.1-0.6,4.1-1.8,5.8l-1.8,2.7c-0.9,1.3-1.4,2.7-1.5,4.2c-0.4,3.5-1.6,6.8-3.6,9.8L40.3,71
				c-0.3,0.5-0.9,0.8-1.5,0.8l0,0c-0.9,0.1-1.7-0.6-1.7-1.5v-2.9c0-1.5-0.3-2.9-0.9-4.2l-0.5-1.1c-0.3-0.6-1-1-1.7-1l0,0
				c-0.8,0-1.5,0.4-1.8,1.1l-0.5,1.2c-0.5,1.3-0.8,2.6-0.8,4v3c-0.1,0.9-0.9,1.5-1.7,1.5l0,0c-0.6,0-1.2-0.3-1.5-0.8l-1.2-1.8
				c-2-2.9-3.2-6.3-3.6-9.8c-0.2-1.5-0.7-2.9-1.5-4.2l-1.8-2.7c-1.2-1.7-1.8-3.7-1.8-5.8l0,0c0-2,0.5-3.9,1.6-5.5
				c1.6-2.2,4.2-3.4,6.9-3.3l0,0c0.5,0,0.9,0,1.4,0.1l6.4,1"/>
			<path id="_Контур_5" class="st0" d="M48.7,41.2c4.7-3.5,11.3-3.5,16,0"/>
			<path id="_Контур_6" class="st0" d="M19.3,41.2c-3.4-2.4-7.6-3.3-11.6-2.7H7.6C4,39.2,1.5,42.4,1.5,46v25.7"/>
			<path id="_Контур_7" class="st0" d="M94,41.2c2.7-1.3,5.7-2,8.8-1.9c0.4,0,0.8,0,1.1,0.1c3.9,0.4,6.9,3.8,6.8,7.7v27.6"/>
		</g>
	</g>
</g>
</svg>
