<?xml version="1.0" encoding="utf-8"?>
<!-- Generator: Adobe Illustrator 22.0.0, SVG Export Plug-In . SVG Version: 6.00 Build 0)  -->
<svg version="1.1" id="Слой_1" xmlns="http://www.w3.org/2000/svg" xmlns:xlink="http://www.w3.org/1999/xlink" x="0px" y="0px"
	 viewBox="0 0 82.4 130.6" style="enable-background:new 0 0 82.4 130.6;" xml:space="preserve">
<style type="text/css">
	.st0{fill:none;stroke:#74777F;stroke-width:3;stroke-linecap:round;stroke-linejoin:round;}
</style>
<title>E ToothBrush</title>
<g id="Слой_2_1_">
	<g id="_лой_1">
		<g id="_Группа_">
			<g id="_Группа_2">
				<polygon id="_Контур_" class="st0" points="14.3,12.8 14.3,28 27.6,30.4 27.6,9.7 				"/>
				<path id="_Контур_2" class="st0" d="M14.3,11.3c0,0,12.9-5.7,13.3-9.8"/>
				<path id="_Контур_3" class="st0" d="M14.3,29.6c0,0,13.9,5.6,13.3,10"/>
				<polyline id="_Контур_4" class="st0" points="14.3,28 14.3,51.4 7.4,51.6 7.4,5.1 12.2,5 				"/>
				<path id="_Контур_5" class="st0" d="M13.6,51.6L13.6,51.6c2.1,2.1,3.7,4.4,5,6.9"/>
				<path id="_Контур_6" class="st0" d="M20,81.7v38.8c0,0.9-0.1,1.8-0.2,2.7v5.9h-18v-5.9c-0.2-0.9-0.2-1.8-0.2-2.7l0.1-51.4
					c-0.2-6.4,2-12.6,6.3-17.5l0.1-0.1"/>
				<path id="_Контур_7" class="st0" d="M16.3,74.7h7.6c1.4-3.1,1.4-6.7,0-9.8h-7.4C14.9,67.9,14.8,71.5,16.3,74.7z"/>
			</g>
			<path id="_Контур_8" class="st0" d="M31.8,59.3c16.7-8.4,37.1-1.6,45.5,15.1s1.6,37.1-15.1,45.5
				c-11.7,5.9-25.8,4.5-36.2-3.6"/>
			<polyline id="_Контур_9" class="st0" points="54.8,66.9 42,89.5 56.8,89.5 40.6,112.2 			"/>
		</g>
	</g>
</g>
</svg>
