<?xml version="1.0" encoding="utf-8"?>
<!-- Generator: Adobe Illustrator 22.0.0, SVG Export Plug-In . SVG Version: 6.00 Build 0)  -->
<svg version="1.1" id="Слой_1" xmlns="http://www.w3.org/2000/svg" xmlns:xlink="http://www.w3.org/1999/xlink" x="0px" y="0px"
	 viewBox="0 0 95.5 108.3" style="enable-background:new 0 0 95.5 108.3;" xml:space="preserve">
<style type="text/css">
	.st0{fill:none;stroke:#74777F;stroke-width:3;stroke-linecap:round;stroke-linejoin:round;}
</style>
<title>Floss</title>
<g id="Слой_2_1_">
	<g id="_лой_1">
		<g id="_Группа_">
			<g id="_Группа_2">
				<circle id="_Контур_" class="st0" cx="63.3" cy="70.9" r="21.9"/>
				<path id="_Контур_2" class="st0" d="M63.3,83.5c-6.9,0-12.6-5.6-12.6-12.6s5.6-12.6,12.6-12.6S75.9,64,75.9,70.9l0,0
					C75.9,77.9,70.2,83.5,63.3,83.5z"/>
				<path id="_Контур_3" class="st0" d="M63.3,74.2c-1.8,0-3.2-1.5-3.2-3.2c0-1.8,1.5-3.2,3.2-3.2c1.8,0,3.2,1.5,3.2,3.2l0,0
					C66.5,72.7,65.1,74.2,63.3,74.2z"/>
				<path id="_Контур_4" class="st0" d="M82.2,28.9L82.2,28.9c0-8.8-7.2-16-16-16H27c-14.1,0-25.5,11.4-25.5,25.5
					c0,0,0,0,0,0.1v25.2"/>
				<line id="_Контур_5" class="st0" x1="85.1" y1="68.7" x2="85.1" y2="41.4"/>
			</g>
			<path id="_Контур_6" class="st0" d="M90.6,41.3h0.7c1.5,0,2.7,1.2,2.7,2.7v35.6c0,15-12.2,27.1-27.1,27.1h-7.3
				c-15,0-27.1-12.2-27.1-27.1v-35l0,0c0-1.8,1.4-3.2,3.2-3.2h40.2"/>
			<path id="_Контур_7" class="st0" d="M47.5,7c4.7-3.6,10.4-5.5,16.3-5.5l0,0c14.8,0,26.8,12,26.8,26.8v13"/>
			<path id="_Контур_8" class="st0" d="M37,41.3v-13c0-2.9,0.5-5.7,1.4-8.5"/>
			<path id="_Контур_9" class="st0" d="M73.5,41.3L73.5,41.3c0-5.7,4.6-10.3,10.3-10.3h6.8"/>
		</g>
	</g>
</g>
</svg>
