<?xml version="1.0" encoding="utf-8"?>
<!-- Generator: Adobe Illustrator 22.0.0, SVG Export Plug-In . SVG Version: 6.00 Build 0)  -->
<svg version="1.1" id="Слой_1" xmlns="http://www.w3.org/2000/svg" xmlns:xlink="http://www.w3.org/1999/xlink" x="0px" y="0px"
	 viewBox="0 0 84.7 110.2" style="enable-background:new 0 0 84.7 110.2;" xml:space="preserve">
<style type="text/css">
	.st0{fill:none;stroke:#74777F;stroke-width:3;stroke-linecap:round;stroke-linejoin:round;}
</style>
<title>Mask</title>
<g id="Слой_2_1_">
	<g id="_лой_1">
		<g id="_Группа_">
			<path id="_Контур_" class="st0" d="M54.4,71.4c-0.1-4.7-0.5-11.7-0.6-16.3c4.3-4.2,7.5-9.5,9.2-15.2
				c0.8-2.9,5.1-17.2-4-28.4C48.9-1,31.8,1.7,30.3,1.9c-5.7,1-11.1,3.5-15.5,7.2l0,0"/>
			<path id="_Контур_2" class="st0" d="M5.4,31.4c0.1,1.8,0.2,3.6,0.5,5.4c0.5,3.1-0.5,6.3-2.6,8.7h-1c0,0-1.9,3.5,0.3,10.2
				c0,0,5.8,17,17.3,26.9L37.5,72c2.7-1.6,4.7-4.1,5.8-7.1L51,43.8"/>
			<path id="_Контур_3" class="st0" d="M3.2,45.5c7.2,0.6,14.4,0.4,21.5-0.5c3.5-0.5,9.1-1.3,13.1-7.2"/>
			<path id="_Контур_4" class="st0" d="M33.6,42.1c0,0-2.2,16.6,8.4,23.5"/>
			<line id="_Контур_5" class="st0" x1="26.5" y1="78.8" x2="27" y2="85.6"/>
			<path id="_Контур_6" class="st0" d="M57.7,70.1c0,0-23.7,8.5-42.3,25.8c0,0,0.8,9.8-0.7,12.8l42.9-31.9L57.7,70.1
				L57.7,70.1z"/>
			<path id="_Контур_7" class="st0" d="M56,78.1L56,78.1c-0.1,5.1,1.2,10,3.7,14.4l5.1,9"/>
			<path id="_Контур_8" class="st0" d="M28.6,25.5c0.6,1.9,0.8,3.9,0.4,5.9H3.2c0-21,11.5-22.2,11.5-22.2
				c2.8,1,5.2,2.9,6.8,5.5"/>
			<path id="_Контур_9" class="st0" d="M29.2,30.2c0.4,1.2,0.9,2.3,1.4,3.4c0.4,1.4,1.3,2.7,2.6,3.6c1.1,0.6,2.4,0.9,3.6,0.8
				c2.5-0.1,5-0.8,7.5-0.4c4.6,0.7,7,5.2,7.5,9.5c0.3,2.2-0.5,6.8,2,8"/>
			<path id="_Контур_10" class="st0" d="M68.2,41.4c0.7,0.2,1.5,0.2,2.2,0.2c7.1,0,12.8-7.1,12.8-15.9S77.5,9.9,70.4,9.9
				c-2,0-4,0.6-5.7,1.6"/>
			<path id="_Контур_11" class="st0" d="M1.5,50.9c0,0,15.9,4.3,31.9-2.9"/>
			<path id="_Контур_12" class="st0" d="M15.7,78.5l13-7.2c3.8-2.3,7.2-5.2,10.1-8.5l0,0"/>
		</g>
	</g>
</g>
</svg>
