<?xml version="1.0" encoding="utf-8"?>
<!-- Generator: Adobe Illustrator 22.0.0, SVG Export Plug-In . SVG Version: 6.00 Build 0)  -->
<svg version="1.1" id="Слой_1" xmlns="http://www.w3.org/2000/svg" xmlns:xlink="http://www.w3.org/1999/xlink" x="0px" y="0px"
	 viewBox="0 0 103.9 116.5" style="enable-background:new 0 0 103.9 116.5;" xml:space="preserve">
<style type="text/css">
	.st0{fill:none;stroke:#74777F;stroke-width:3;stroke-linecap:round;stroke-linejoin:round;}
</style>
<title>MDoctor</title>
<g id="Слой_2_1_">
	<g id="_лой_1">
		<g id="_Группа_">
			<g id="_Группа_2">
				<g id="_Группа_3">
					<g id="_Группа_4">
						<path id="_Прямоугольник_" class="st0" d="M39.7,30.7h7c1.1,0,2,0.9,2,2V35c0,1.1-0.9,2-2,2h-7c-1.1,0-2-0.9-2-2
							v-2.3C37.7,31.6,38.6,30.7,39.7,30.7z"/>
						<path id="_Прямоугольник_2" class="st0" d="M55.1,30.7h7c1.1,0,2,0.9,2,2V35c0,1.1-0.9,2-2,2h-7
							c-1.1,0-2-0.9-2-2v-2.3C53.1,31.6,54,30.7,55.1,30.7z"/>
						<line id="_Контур_" class="st0" x1="48.6" y1="33.4" x2="53.1" y2="33.4"/>
					</g>
					<g id="_Группа_5">
						<path id="_Контур_2" class="st0" d="M32.4,28.6c0,0.9,0,2.5-0.1,5.7c-0.1,4.6-0.2,6.7,1,7.4c0.6,0.3,1.2,0.3,1.8,0.1
							c0,0,0.8,12.2,12.2,15.8c2,0.6,4.1,0.7,6.1,0.3c6.7-1.5,11.9-7.7,13.3-16.1c0.5,0.1,1.1,0,1.6-0.3c1.2-0.8,1-3,0.8-6.7
							c0-1.5-0.1-3.6,0-6.4V25"/>
						<path id="_Контур_3" class="st0" d="M70.8,20.1C72,13.7,70.7,7,67.1,1.5c-0.1,2.1-1,2.6-2.2,2.8c-1.7,0.3-3.4,0.2-5-0.1
							c-2.4-0.5-10.6-2.5-16.5-1.3C43,3,35.5,4.7,32.6,10.8c-1.5,3.1-1.4,6.4-1.3,8.7"/>
						<path id="_Контур_4" class="st0" d="M32.4,28.6c1.1-0.1,2.1-0.5,3-1.2c2.5-2.1,1.2-5.7,3.4-8.3c1.8-2.1,5-2.3,5.8-2.3
							c5.1-0.2,6.1,4.1,13.5,7.6c4.2,2,11.3,0.5,11.3,0.5"/>
					</g>
				</g>
				<path id="_Прямоугольник_3" class="st0" d="M52.1,64.8l3,3c0.5,0.5,0.5,1.3,0,1.8l-3,3c-0.5,0.5-1.3,0.5-1.8,0
					l-3-3c-0.5-0.5-0.5-1.3,0-1.8l3-3C50.8,64.3,51.6,64.3,52.1,64.8z"/>
				<line id="_Контур_5" class="st0" x1="38.8" y1="61.6" x2="47.2" y2="68"/>
				<line id="_Контур_6" class="st0" x1="55.4" y1="68.1" x2="63.6" y2="61.7"/>
				<line id="_Контур_7" class="st0" x1="42.4" y1="86.6" x2="50.1" y2="72.4"/>
				<line id="_Контур_8" class="st0" x1="52.5" y1="72.2" x2="59.9" y2="86.9"/>
				<g id="_Группа_6">
					<line id="_Контур_9" class="st0" x1="85" y1="68.9" x2="61" y2="88.1"/>
					<g id="_Группа_7">
						<rect id="_Контур_10" x="72.9" y="89.6" class="st0" width="19.3" height="5.4"/>
						<polyline id="_Контур_11" class="st0" points="72.9,93.6 72.9,104.8 92.2,104.8 92.2,93.6 						"/>
					</g>
					<line id="_Контур_12" class="st0" x1="17.5" y1="68.9" x2="41.5" y2="88.1"/>
					<polyline id="_Контур_13" class="st0" points="51.9,115 67.4,64.9 85,68.9 					"/>
					<path id="_Контур_14" class="st0" d="M85,68.9l3.2,0.7c0.4,0.1,0.8,0.2,1.1,0.3c6.6,2.2,11.1,8.4,11,15.4l2,29.6H22.6
						L1.5,93.5l0.6-8.1c-0.1-7,4.4-13.1,11-15.3c0.4-0.1,0.7-0.2,1.1-0.3l3.3-0.8l17.6-4l6.5,23.2L51.9,115"/>
				</g>
				<line id="_Контур_15" class="st0" x1="38.7" y1="51.6" x2="39" y2="61.6"/>
				<line id="_Контур_16" class="st0" x1="63.4" y1="50.5" x2="63.7" y2="61.7"/>
				<line id="_Контур_17" class="st0" x1="38.8" y1="61.6" x2="35.1" y2="64.9"/>
				<line id="_Контур_18" class="st0" x1="63.6" y1="61.7" x2="67.4" y2="64.9"/>
			</g>
		</g>
	</g>
</g>
</svg>
