<?xml version="1.0" encoding="utf-8"?>
<!-- Generator: Adobe Illustrator 22.0.0, SVG Export Plug-In . SVG Version: 6.00 Build 0)  -->
<svg version="1.1" id="Слой_1" xmlns="http://www.w3.org/2000/svg" xmlns:xlink="http://www.w3.org/1999/xlink" x="0px" y="0px"
	 viewBox="0 0 99.7 109" style="enable-background:new 0 0 99.7 109;" xml:space="preserve">
<style type="text/css">
	.st0{fill:none;stroke:#74777F;stroke-width:4;stroke-linecap:round;stroke-linejoin:round;}
</style>
<title>Palm Face</title>
<g id="Слой_2_1_">
	<g id="_лой_1">
		<g id="_Группа_">
			<g id="_Группа_2">
				<path id="_Контур_" class="st0" d="M71,105.1l10.4,2c4.1,0.9,8.4-0.2,11.7-2.8c2.9-2.4,4.7-5.8,5.1-9.5
					c-1.3,1-2.8,1.7-4.4,2.2c-0.9,0.3-1.9,0.4-2.9,0.3c-0.6-0.1-1.3-0.2-1.9-0.4c-2.8-1.2-4.5-4.1-4.3-7.1l0,0c0.2-4.5,1-9,2.3-13.3
					l1.3-4.3c1.1-5.5,1.8-11.1,2.3-16.8c0.3-4.2,0.5-8.3,0.5-12.1c0-2.3-0.2-4.6-0.6-6.8c-0.9-5.5-2.9-10.7-5.8-15.5
					C75.8,7.2,60-0.2,44.4,1.9C24.2,4.5,14.6,21.6,13.5,23.5c-3.2,6.1-4.9,12.9-4.9,19.8c0,3.8,0.1,7.9,0.5,12.1
					C10,66.3,12,77,15.2,87.5c1.7,5.7-3.6,11.3-9.3,9.6c-1.6-0.5-3.1-1.2-4.4-2.2c0.4,3.7,2.3,7.2,5.2,9.6c3.3,2.6,7.6,3.6,11.7,2.8
					l12-2.3"/>
				<path id="_Контур_2" class="st0" d="M77.2,67.8c0.4-1.8,0.7-3.4,1-4.9c0,0,0,0,0-0.1c0.6-3.3,0.9-6.6,0.9-10v-1
					c-35-0.5-38.8-25.3-38.8-25.3S37.6,43.5,21,51.5v1.3c0,3.3,0.3,6.6,0.9,9.9c0,0.1,0,0.2,0,0.3c1.1,6.4,3.2,12.7,6.1,18.5"/>
			</g>
			<g id="_Группа_3">
				<path id="_Контур_3" class="st0" d="M33.5,86.3c-0.8,0-1.6,0-2.4,0.1c-2,0.2-2.6,3.4-1.4,4.7c0.7,0.7,1.7,1.1,2.7,1.1
					l15.1,0.2"/>
				<path id="_Контур_4" class="st0" d="M33.5,86.3C33,85.2,33,84,33.4,82.8l0.1-0.2c1.3-2.6,6.9-2.3,9.3-2.4
					c3.4-0.2,7,0.3,10.3,0c2,0,4.1-0.4,6-1c0.8-0.1,1.4-0.6,1.9-1.2c0.4-0.7,0.4-1.6,0-2.4c-1.5-2.6-8.8,0.3-12.7-2.6
					c-1.1-0.8-1.1-1.5-1.1-1.7c0-1.3,1.8-2.2,2.1-2.3h4.1c7.3,0,11.6-0.3,14.7-0.2c0.7,0,1.4,0.1,2.1,0.3c1.2,0.5,1.6,1,3.6,3.5
					c1.4,1.8,3.1,3.3,5,4.4l0,0"/>
				<path id="_Контур_5" class="st0" d="M31.3,92.2c-0.9,1-1.1,2.5-0.5,3.7c0.2,0.5,0.6,0.9,1,1.2c0.9,0.7,1.8,0.7,3.8,0.9
					c3.1,0.2,2.7,0.2,3,0.2c3.3,0.1,6.6,0.1,8.4,0"/>
				<path id="_Контур_6" class="st0" d="M78.9,99.7c-1.5,0-4.4-1-6.3-0.3c-4.3,1.6-8.7,2.9-13.1,4c-1.5,0.4-3.1,0.6-4.7,0.6
					h-8.2h-2.1l-5.3-0.1c-1.3,0.1-2.7-0.4-3.5-1.5c-0.6-1-0.6-2.3,0.1-3.3c0.3-0.4,0.6-0.6,1.1-0.8"/>
				<path id="_Контур_7" class="st0" d="M33.4,86.3c5.2,0.2,10.6,0.1,15.7,0.2"/>
			</g>
		</g>
	</g>
</g>
</svg>
