<?xml version="1.0" encoding="utf-8"?>
<!-- Generator: Adobe Illustrator 22.0.0, SVG Export Plug-In . SVG Version: 6.00 Build 0)  -->
<svg version="1.1" id="Слой_1" xmlns="http://www.w3.org/2000/svg" xmlns:xlink="http://www.w3.org/1999/xlink" x="0px" y="0px"
	 viewBox="0 0 105.3 92" style="enable-background:new 0 0 105.3 92;" xml:space="preserve">
<style type="text/css">
	.st0{fill:none;stroke:#74777F;stroke-width:3;stroke-linecap:round;stroke-linejoin:round;}
</style>
<title>Tablets</title>
<g id="Слой_2_1_">
	<g id="_лой_1">
		<g id="_Группа_">
			<line id="_Контур_" class="st0" x1="42.7" y1="57.3" x2="42.7" y2="90.4"/>
			<path id="_Контур_2" class="st0" d="M34.7,57.3v-9l0.1-24.7c0.1-8.7-6.7-16-15.4-16.5c-0.6,0-1.3,0-1.9,0h-0.3
				C8.4,7.6,1.7,14.8,1.7,23.5L1.6,48.2L1.5,72.9v0.2"/>
			<line id="_Контур_3" class="st0" x1="1.6" y1="48.2" x2="34.7" y2="48.3"/>
			<path id="_Контур_4" class="st0" d="M18,57.2l49.4,0.2c8.7,0,15.9,6.7,16.4,15.4c0,0.1,0,0.2,0,0.3c0,0.6,0,1.3,0,1.9
				c-0.5,8.7-7.8,15.5-16.5,15.4l-49.4-0.2C9.2,90.4,2,83.6,1.5,74.9c0-0.5,0-1,0-1.6V73C1.9,64.1,9.2,57.2,18,57.2z"/>
			<path id="_Контур_5" class="st0" d="M40.1,10.2C57-3.4,81.6-0.7,95.2,16.2c12.8,16,11.2,39.1-3.7,53.1"/>
			<line id="_Контур_6" class="st0" x1="65.9" y1="1.5" x2="65.9" y2="50.2"/>
		</g>
	</g>
</g>
</svg>
