<?xml version="1.0" encoding="utf-8"?>
<!-- Generator: Adobe Illustrator 22.0.0, SVG Export Plug-In . SVG Version: 6.00 Build 0)  -->
<svg version="1.1" id="Слой_1" xmlns="http://www.w3.org/2000/svg" xmlns:xlink="http://www.w3.org/1999/xlink" x="0px" y="0px"
	 viewBox="0 0 124.1 217.4" style="enable-background:new 0 0 124.1 217.4;" xml:space="preserve">
<style type="text/css">
	.st0{fill:none;stroke:#74777F;stroke-width:12;stroke-linecap:round;stroke-linejoin:round;}
	.st1{fill:none;stroke:#74777F;stroke-width:7;stroke-linecap:round;stroke-linejoin:round;}
	.st2{fill:none;}
</style>
<title>Tooth</title>
<g id="Слой_2_1_">
	<g id="_лой_1">
		<g id="_Группа_">
			<path id="_Контур_" class="st0" d="M62.3,140.2l22.4,4c1.6,0.3,3.3,0.4,5,0.4l0,0c10,0.1,19.3-5.2,24.4-13.8
				c3.9-7,5.8-14.9,5.6-22.8l0,0c0-8.4-2.2-16.8-6.4-24.1L107,72.6c-3.1-5.3-4.9-11.2-5.5-17.4C100.3,41.1,96,27.4,88.9,15l-4.3-7.5
				c-1.1-1.9-3.1-3.1-5.3-3.1l0,0c-3.4,0-6.1,2.7-6.1,6.1l0,0v11.7c0,6-1.1,11.9-3.2,17.5l-1.7,4.6c-1,2.6-3.4,4.3-6.2,4.3l0,0
				c-2.8,0-5.3-1.8-6.2-4.5l-1.7-4.9c-1.8-5.3-2.8-10.8-2.7-16.4V10.5c0-3.4-2.7-6.1-6.1-6.1l0,0c-2.2,0-4.2,1.2-5.3,3.1L35.8,15
				c-7.2,12.3-11.5,26-12.7,40.2c-0.5,6.1-2.4,12.1-5.4,17.4l-6.4,11.2C7,91.2,4.8,99.5,4.8,107.9l0,0c-0.2,8,1.8,15.9,5.7,22.9
				c5.1,8.6,14.4,13.9,24.4,13.7l0,0c1.7,0,3.3-0.1,5-0.4L62.3,140.2"/>
			<path id="_Контур_2" class="st1" d="M56.9,127l-13.6,3c-6,1.4-12.2-0.6-16.3-5.2c-0.3-0.3-0.6-0.7-0.8-1.1
				c-2.3-3.2-3.4-7.1-3.4-11.1"/>
		</g>
	</g>
</g>
<path class="st1" d="M88,163.5H36.5c-14.2,0-25.7,11.5-25.7,25.7S22.3,215,36.5,215H88c14.2,0,25.7-11.5,25.7-25.7
	S102.2,163.5,88,163.5z M36.5,204.7c-8.5,0-15.4-6.9-15.4-15.4s6.9-15.4,15.4-15.4S52,180.7,52,189.2S45.1,204.7,36.5,204.7z"/>
<path class="st2" d="M48.2,58h24v24h-24C48.2,82,48.2,58,48.2,58z"/>
</svg>
