<?xml version="1.0" encoding="utf-8"?>
<!-- Generator: Adobe Illustrator 22.0.0, SVG Export Plug-In . SVG Version: 6.00 Build 0)  -->
<svg version="1.1" id="Слой_1" xmlns="http://www.w3.org/2000/svg" xmlns:xlink="http://www.w3.org/1999/xlink" x="0px" y="0px"
	 viewBox="0 0 80.1 96.9" style="enable-background:new 0 0 80.1 96.9;" xml:space="preserve">
<style type="text/css">
	.st0{fill:none;stroke:#74777F;stroke-width:3;stroke-linecap:round;stroke-linejoin:round;}
</style>
<title>Tooth</title>
<g id="Слой_2_1_">
	<g id="_лой_1">
		<g id="_Группа_">
			<path id="_Контур_" class="st0" d="M40.1,4.4l15-2.7c1.1-0.2,2.2-0.3,3.3-0.3l0,0c6.7-0.1,13,3.5,16.4,9.2
				c2.6,4.7,3.9,10,3.8,15.3l0,0c0,5.7-1.5,11.2-4.3,16.2L70,49.8c-2.1,3.6-3.3,7.5-3.7,11.6c-0.8,9.5-3.7,18.7-8.5,27l-2.9,5
				c-0.7,1.3-2.1,2.1-3.6,2.1l0,0c-2.3,0-4.1-1.8-4.1-4.1l0,0v-7.9c0-4-0.7-8-2.1-11.8L44,68.6c-0.6-1.7-2.3-2.9-4.2-2.9l0,0
				c-1.9,0-3.6,1.2-4.2,3L34.5,72c-1.2,3.5-1.8,7.3-1.8,11v8.3c0,2.3-1.8,4.1-4.1,4.1l0,0c-1.5,0-2.8-0.8-3.6-2.1l-2.9-5
				c-4.8-8.3-7.6-17.5-8.5-27c-0.4-4.1-1.6-8.1-3.6-11.7l-4.3-7.5c-2.7-4.8-4.2-10.4-4.2-16l0,0c-0.1-5.4,1.2-10.7,3.8-15.3
				C8.7,4.9,15,1.4,21.7,1.5l0,0c1.1,0,2.2,0.1,3.3,0.3L40.1,4.4"/>
			<path id="_Контур_2" class="st0" d="M36.4,13.3l-9.1-2c-4-0.9-8.2,0.4-10.9,3.5c-0.2,0.2-0.4,0.5-0.6,0.7
				c-1.5,2.2-2.3,4.8-2.2,7.4"/>
		</g>
	</g>
</g>
</svg>
