<svg xmlns="http://www.w3.org/2000/svg" viewBox="0 0 145.43 70.72"><title>Tooth Wings</title><g id="Слой_2" data-name="Слой 2"><g id="_лой_1" data-name="—лой_1"><g id="_Группа_" data-name="&lt;Группа&gt;"><g id="_Группа_2" data-name="&lt;Группа&gt;"><path id="_Контур_" data-name="&lt;Контур&gt;" d="M72.58,3.62,83.43,1.71a13.73,13.73,0,0,1,2.4-.21h0a13.53,13.53,0,0,1,11.8,6.67,21.87,21.87,0,0,1,2.73,11h0a23.42,23.42,0,0,1-3.1,11.64l-3.1,5.43a20.24,20.24,0,0,0-2.65,8.39,47.19,47.19,0,0,1-6.11,19.47l-2.07,3.59a3,3,0,0,1-2.57,1.49h0a3,3,0,0,1-3-3V60.58a24.48,24.48,0,0,0-1.52-8.47l-.82-2.21a3.19,3.19,0,0,0-3-2.07h0a3.18,3.18,0,0,0-3,2.14l-.82,2.4a24.12,24.12,0,0,0-1.32,7.9v6a3,3,0,0,1-3,3h0a3,3,0,0,1-2.56-1.49l-2.07-3.59a47.19,47.19,0,0,1-6.11-19.47A20.54,20.54,0,0,0,51,36.28l-3.1-5.43a23.42,23.42,0,0,1-3.1-11.64h0A21.82,21.82,0,0,1,47.52,8.15,13.53,13.53,0,0,1,59.31,1.5h0a13.9,13.9,0,0,1,2.4.21L72.58,3.62" style="fill:none;stroke:#74777f;stroke-linecap:round;stroke-linejoin:round;stroke-width:3px"/><path id="_Контур_2" data-name="&lt;Контур&gt;" d="M70.54,11.28,64,9.83a8,8,0,0,0-7.87,2.51c-.14.16-.27.33-.4.51a9,9,0,0,0-1.63,5.33" style="fill:none;stroke:#74777f;stroke-linecap:round;stroke-linejoin:round;stroke-width:3px"/></g><g id="_Группа_3" data-name="&lt;Группа&gt;"><path id="_Контур_3" data-name="&lt;Контур&gt;" d="M48.6,46l-3.16,0c-5.52-.32-7.33-5.74-6.87-10.25h0l-10.88-.17c-3.34,0-6-4-6-8.92v-1.5l-2.75,0c-3.33,0-6-4-6-8.93l-8.66-.13c-1.58,0-2.86-1.93-2.84-4.27S2.8,7.66,4.38,7.66h0l35.79.52" style="fill:none;stroke:#74777f;stroke-linecap:round;stroke-linejoin:round;stroke-width:3px"/><line id="_Контур_4" data-name="&lt;Контур&gt;" x1="13" y1="16.22" x2="25.81" y2="16.22" style="fill:none;stroke:#74777f;stroke-linecap:round;stroke-linejoin:round;stroke-width:3px"/><line id="_Контур_5" data-name="&lt;Контур&gt;" x1="21.73" y1="25.19" x2="39.74" y2="25.19" style="fill:none;stroke:#74777f;stroke-linecap:round;stroke-linejoin:round;stroke-width:3px"/><line id="_Контур_6" data-name="&lt;Контур&gt;" x1="38.57" y1="35.78" x2="45.42" y2="35.78" style="fill:none;stroke:#74777f;stroke-linecap:round;stroke-linejoin:round;stroke-width:3px"/></g><g id="_Группа_4" data-name="&lt;Группа&gt;"><path id="_Контур_7" data-name="&lt;Контур&gt;" d="M96.83,46,100,46c5.52-.32,7.33-5.74,6.87-10.25h0l10.89-.17c3.33,0,6-4,6-8.92v-1.5l2.75,0c3.33,0,6-4,6-8.93l8.66-.13c1.57,0,2.85-1.93,2.84-4.27s-1.3-4.16-2.88-4.16h0l-35.79.52" style="fill:none;stroke:#74777f;stroke-linecap:round;stroke-linejoin:round;stroke-width:3px"/><line id="_Контур_8" data-name="&lt;Контур&gt;" x1="132.43" y1="16.22" x2="119.61" y2="16.22" style="fill:none;stroke:#74777f;stroke-linecap:round;stroke-linejoin:round;stroke-width:3px"/><line id="_Контур_9" data-name="&lt;Контур&gt;" x1="123.7" y1="25.19" x2="105.69" y2="25.19" style="fill:none;stroke:#74777f;stroke-linecap:round;stroke-linejoin:round;stroke-width:3px"/><line id="_Контур_10" data-name="&lt;Контур&gt;" x1="106.85" y1="35.78" x2="100.01" y2="35.78" style="fill:none;stroke:#74777f;stroke-linecap:round;stroke-linejoin:round;stroke-width:3px"/></g></g></g></g></svg>