<svg xmlns="http://www.w3.org/2000/svg" viewBox="0 0 95.47 121.06"><title>WDoctor</title><g id="Слой_2" data-name="Слой 2"><g id="_лой_1" data-name="—лой_1"><g id="_Группа_" data-name="&lt;Группа&gt;"><path id="_Контур_" data-name="&lt;Контур&gt;" d="M39.06,64.86h0" style="fill:none;stroke:#74777f;stroke-linecap:round;stroke-linejoin:round;stroke-width:3px"/><path id="_Контур_2" data-name="&lt;Контур&gt;" d="M40.83,24.61a21.25,21.25,0,0,1-12.19,14.6V40a28,28,0,0,0,.56,5.78l0,.16A45,45,0,0,0,35.3,60.76a19.86,19.86,0,0,0,3.76,4.1,15.89,15.89,0,0,0,5,2.76,15.55,15.55,0,0,0,1.75.45,8,8,0,0,0,1.13.08,10.26,10.26,0,0,0,1.14-.07,9.74,9.74,0,0,0,1.75-.46,17.42,17.42,0,0,0,4.7-2.85,27.33,27.33,0,0,0,4.11-4.2c4.12-5.44,5.3-11.1,6-14.65,0,0,0,0,0-.05A29,29,0,0,0,65.28,40v-.57C43.25,39.15,40.83,24.61,40.83,24.61Z" style="fill:none;stroke:#74777f;stroke-linecap:round;stroke-linejoin:round;stroke-width:3px"/><g id="_Группа_2" data-name="&lt;Группа&gt;"><g id="_Группа_3" data-name="&lt;Группа&gt;"><path id="_Контур_3" data-name="&lt;Контур&gt;" d="M44.77,43.38v3.14A1.44,1.44,0,0,1,43.33,48H35.66a1.44,1.44,0,0,1-1.43-1.45V43.38a1.44,1.44,0,0,1,1.43-1.44h7.67A1.44,1.44,0,0,1,44.77,43.38Z" style="fill:none;stroke:#74777f;stroke-linecap:round;stroke-linejoin:round;stroke-width:3px"/><path id="_Контур_4" data-name="&lt;Контур&gt;" d="M59.69,43.38v3.14A1.45,1.45,0,0,1,58.25,48H50.58a1.45,1.45,0,0,1-1.44-1.45V43.38a1.45,1.45,0,0,1,1.44-1.44h7.67A1.45,1.45,0,0,1,59.69,43.38Z" style="fill:none;stroke:#74777f;stroke-linecap:round;stroke-linejoin:round;stroke-width:3px"/><line id="_Контур_5" data-name="&lt;Контур&gt;" x1="44.77" y1="44.54" x2="49.14" y2="44.54" style="fill:none;stroke:#74777f;stroke-linecap:round;stroke-linejoin:round;stroke-width:3px"/></g><path id="_Контур_6" data-name="&lt;Контур&gt;" d="M59.69,46.52A1.45,1.45,0,0,1,58.25,48H50.58a1.45,1.45,0,0,1-1.44-1.45V43.38a1.45,1.45,0,0,1,1.44-1.44h7.67a1.45,1.45,0,0,1,1.44,1.44Z" style="fill:none;stroke:#74777f;stroke-linecap:round;stroke-linejoin:round;stroke-width:3px"/></g><path id="_Контур_7" data-name="&lt;Контур&gt;" d="M58.67,72.6a7.71,7.71,0,0,1-4.14-7.82c.31-.26.61-.51.88-.76s.69-.64,1-.94.77-.79,1.08-1.13l.29-.32c.48-.55.78-.94.85-1l0,0c.25-.34.5-.68.73-1a11.88,11.88,0,0,0,.67-1c.2-.32.39-.63.57-.94.4-.71.77-1.42,1.1-2.11.11-.24.22-.47.32-.71l.27-.66a32,32,0,0,0,1.34-3.87c.11-.41.22-.8.32-1.19.2-.77.37-1.49.51-2.17.06-.33.13-.65.2-1a.2.2,0,0,1,0,0,2.34,2.34,0,0,0,0-.26A29.48,29.48,0,0,0,65.27,40v-.58l-1,0c-.25,0-.5,0-.73,0l-.44,0-.39,0-.39,0-.4,0-.83-.08c-.28,0-.54,0-.82-.1-.52-.06-1-.14-1.55-.22l-.8-.15c-.47-.09-.94-.19-1.38-.3-.23,0-.46-.11-.68-.18l-.23,0-.23-.07L54.83,38l-.1,0c-.2-.07-.4-.12-.58-.19h0a2.08,2.08,0,0,1-.3-.12l-.25-.09a4.5,4.5,0,0,1-.58-.21c-.19-.06-.36-.14-.55-.22a5.09,5.09,0,0,1-.54-.22l-.52-.22h0L51,36.47c-.55-.26-1.07-.55-1.56-.83a.5.5,0,0,1-.12-.08,1.5,1.5,0,0,1-.32-.19,2.62,2.62,0,0,1-.43-.27c-.12-.08-.23-.16-.34-.22l-.84-.58L47,34l-.42-.35-.26-.22L45.88,33S45.83,33,45.8,33l-.55-.54c-.16-.16-.32-.33-.46-.49a8.94,8.94,0,0,1-.59-.68c-.19-.22-.37-.44-.53-.66v0c-.34-.45-.64-.89-.9-1.31-.09-.14-.18-.28-.26-.43s-.2-.35-.28-.52l-.17-.3c0-.09-.1-.2-.13-.29a1.17,1.17,0,0,1-.13-.28c-.07-.15-.12-.28-.19-.41s-.11-.25-.15-.37-.12-.32-.18-.47l-.12-.34c-.07-.22-.12-.4-.18-.57a0,0,0,0,0,0,0c0-.08,0-.16,0-.21s0-.12-.05-.18a.2.2,0,0,1,0-.07l0-.14h0" style="fill:none;stroke:#74777f;stroke-linecap:round;stroke-linejoin:round;stroke-width:3px"/><path id="_Контур_8" data-name="&lt;Контур&gt;" d="M40.82,24.61v0a20.43,20.43,0,0,1-3.28,7.3c-.14.21-.3.41-.44.6q-.47.61-1,1.23c-.28.3-.55.61-.85.91L35,35c-.19.19-.41.39-.63.59a17.37,17.37,0,0,1-1.4,1.14,20.81,20.81,0,0,1-4.29,2.52V40c0,.49,0,1,0,1.47s.06,1,.1,1.45a25.48,25.48,0,0,0,.43,2.87s0,.06,0,.08a.12.12,0,0,1,0,.07h0c.16.76.34,1.5.53,2.23l.3,1.08c.11.35.21.69.33,1s.22.7.34,1,.23.67.35,1c.25.66.51,1.29.77,1.9h0c.26.62.54,1.22.81,1.81s.57,1.14.86,1.68c0,0,0,0,0,0,.58,1.09,1.17,2.12,1.77,3.06.11.16.23.3.35.46.23.32.49.66.78,1a15,15,0,0,0,1.35,1.47l.46.44c.27.24.54.48.83.72" style="fill:none;stroke:#74777f;stroke-linecap:round;stroke-linejoin:round;stroke-width:3px"/><path id="_Контур_9" data-name="&lt;Контур&gt;" d="M69.9,41.32q.28-3.78.28-7.21c0-13.2-10.28-24.4-23.48-25l-.47,0h0l-.48,0c-13.19.58-23.47,11.78-23.47,25,0,2.29.08,4.69.28,7.21" style="fill:none;stroke:#74777f;stroke-linecap:round;stroke-linejoin:round;stroke-width:3px"/><path id="_Контур_10" data-name="&lt;Контур&gt;" d="M38.24,64.14a8.72,8.72,0,0,1-.37,4.22,8.91,8.91,0,0,1-4.09,4.75" style="fill:none;stroke:#74777f;stroke-linecap:round;stroke-linejoin:round;stroke-width:3px"/><path id="_Контур_11" data-name="&lt;Контур&gt;" d="M58.42,12.78a7,7,0,0,0,.3-2c0-5.11-5.6-9.24-12.49-9.24S33.74,5.63,33.74,10.74a7,7,0,0,0,.31,2" style="fill:none;stroke:#74777f;stroke-linecap:round;stroke-linejoin:round;stroke-width:3px"/><g id="_Группа_4" data-name="&lt;Группа&gt;"><line id="_Контур_12" data-name="&lt;Контур&gt;" x1="76.55" y1="76.36" x2="46.96" y2="104" style="fill:none;stroke:#74777f;stroke-linecap:round;stroke-linejoin:round;stroke-width:3px"/><g id="_Группа_5" data-name="&lt;Группа&gt;"><rect id="_Контур_13" data-name="&lt;Контур&gt;" x="65.76" y="94.78" width="17.21" height="4.78" style="fill:none;stroke:#74777f;stroke-linecap:round;stroke-linejoin:round;stroke-width:3px"/><polyline id="_Контур_14" data-name="&lt;Контур&gt;" points="65.76 98.33 65.76 108.26 82.97 108.26 82.97 98.33" style="fill:none;stroke:#74777f;stroke-linecap:round;stroke-linejoin:round;stroke-width:3px"/></g><line id="_Контур_15" data-name="&lt;Контур&gt;" x1="16.48" y1="76.36" x2="46.96" y2="104" style="fill:none;stroke:#74777f;stroke-linecap:round;stroke-linejoin:round;stroke-width:3px"/><path id="_Контур_16" data-name="&lt;Контур&gt;" d="M2.79,87.86A14.25,14.25,0,0,1,13.54,77l19.19-6.12L47,104l12.4-33.24L79.43,77A14.27,14.27,0,0,1,90.18,87.86L94,119.56H22.27L1.5,103.71Z" style="fill:none;stroke:#74777f;stroke-linecap:round;stroke-linejoin:round;stroke-width:3px"/></g><path id="_Контур_17" data-name="&lt;Контур&gt;" d="M48.15,111.1A1.2,1.2,0,1,1,47,109.9,1.19,1.19,0,0,1,48.15,111.1Z" style="fill:none;stroke:#74777f;stroke-linecap:round;stroke-linejoin:round;stroke-width:3px"/></g></g></g></svg>