<?xml version="1.0" encoding="utf-8"?>
<!-- Generator: Adobe Illustrator 22.0.0, SVG Export Plug-In . SVG Version: 6.00 Build 0)  -->
<svg version="1.1" id="Слой_1" xmlns="http://www.w3.org/2000/svg" xmlns:xlink="http://www.w3.org/1999/xlink" x="0px" y="0px"
	 viewBox="0 0 84 103.3" style="enable-background:new 0 0 84 103.3;" xml:space="preserve">
<style type="text/css">
	.st0{fill:none;stroke:#74777F;stroke-width:3;stroke-linecap:round;stroke-linejoin:round;}
</style>
<title>Apple</title>
<g id="Слой_2_1_">
	<g id="_лой_1">
		<g id="_Группа_">
			<path id="_Контур_" class="st0" d="M42.3,33.6c2.7,0,5.5-0.3,8.1-0.9c10.9-2.1,22.3,0.8,28.5,11.6
				c3.8,6.7,4.2,14.4,2.8,21.9c-1.7,9.4-6.2,18-12.8,24.9l-5.3,5.6c-4.7,4.9-11.7,6.5-17.7,3.7c-1.4-0.7-2.7-1.4-4-2.3
				c-1.1,0.8-2.3,1.5-3.5,2.1c-6.1,3-13.5,1.5-18.1-3.5L15,91.1C8.4,84.3,4,75.6,2.2,66.3c-1.4-7.5-1-15.1,2.8-21.8
				c6.2-10.8,17.6-13.7,28.5-11.6c2.7,0.5,5.4,0.8,8.1,0.9L42.3,33.6z"/>
			<path id="_Контур_2" class="st0" d="M17.5,45.1c0.7-0.9,1.5-1.7,2.4-2.3c3.4-2.5,7.2-2.2,9.2-2.1c2.8,0.2,3.3,0.9,7,1.7
				c2.7,0.6,5.5,1,8.3,1H45"/>
			<path id="_Контур_3" class="st0" d="M42.4,32.3c-1.2,0.3-9.4,1.9-15.9-3.7c-3.6-3.3-5.8-7.8-6.1-12.6
				c4.7-1.1,9.7-0.3,13.9,2.2C41.5,22.8,42.3,31.1,42.4,32.3z"/>
			<path id="_Контур_4" class="st0" d="M42.4,32.3c1.2,0.3,9.4,1.9,15.9-3.7c3.6-3.3,5.8-7.8,6.1-12.6
				c-4.7-1.1-9.7-0.3-13.8,2.2C43.2,22.8,42.5,31.1,42.4,32.3z"/>
			<path id="_Контур_5" class="st0" d="M42.3,33.6V21.1c0-3-0.7-6-2-8.8l0,0c-1.7-3.5-4.4-6.5-7.8-8.5l-3.9-2.4"/>
		</g>
	</g>
</g>
</svg>
