<?xml version="1.0" encoding="utf-8"?>
<!-- Generator: Adobe Illustrator 22.0.0, SVG Export Plug-In . SVG Version: 6.00 Build 0)  -->
<svg version="1.1" id="Слой_1" xmlns="http://www.w3.org/2000/svg" xmlns:xlink="http://www.w3.org/1999/xlink" x="0px" y="0px"
	 viewBox="0 0 111.3 93.3" style="enable-background:new 0 0 111.3 93.3;" xml:space="preserve">
<style type="text/css">
	.st0{fill:none;stroke:#74777F;stroke-width:3;stroke-linecap:round;stroke-linejoin:round;}
</style>
<title>Burger Prohibited</title>
<g id="Слой_2_1_">
	<g id="_лой_1">
		<g id="_Группа_">
			<circle id="_Контур_" class="st0" cx="85.6" cy="67.6" r="24.2"/>
			<g id="_Группа_2">
				<path id="_Контур_2" class="st0" d="M102.7,41.3C100.2,19,78.5,1.5,52.1,1.5S4.1,19,1.5,41.3c-0.2,2.2,1.3,4.1,3.5,4.3
					c0.1,0,0.3,0,0.4,0h53.5"/>
			</g>
			<path id="_Контур_3" class="st0" d="M32.7,64.1H9.4c-0.7,0-1.4-0.1-2.1-0.4c-2.9-1.1-4.4-4.4-3.3-7.4
				c0.8-2.2,3-3.6,5.3-3.6H16"/>
			<path id="_Контур_4" class="st0" d="M55.7,77.8c-2.2,2.1-3.6,3.4-3.6,3.4c-3-4.6-11.5-11.3-19.4-17.1
				C24,57.8,16,52.7,16,52.7h42.2"/>
			<path id="_Контур_5" class="st0" d="M19.6,34.2c-1.1,1-2.7,1-3.9,0.1c-1.3-1-1.5-2.9-0.5-4.2l0,0c0.8-0.8,1.9-1.3,3-1.1
				c1.5,0.2,3.7,2.1,5,3"/>
			<path id="_Контур_6" class="st0" d="M34.5,18.5c-1.1,1-2.8,1-3.9,0.1c-1.3-1-1.5-2.9-0.5-4.2l0,0c0.7-0.9,1.9-1.3,3-1.1
				c1.5,0.2,3.7,2.1,5,3"/>
			<path id="_Контур_7" class="st0" d="M43.1,36.1c-1.1,1-2.7,1-3.9,0.1c-1.3-1-1.5-2.9-0.5-4.2l0,0c0.8-0.8,1.9-1.2,3-1.1
				c1.5,0.2,3.7,2.1,5,3"/>
			<path id="_Контур_8" class="st0" d="M56.4,14.9c-1.1,1-2.7,1-3.9,0.1c-1.3-1-1.5-2.9-0.5-4.2l0,0c0.8-0.8,1.9-1.2,3-1.1
				c1.5,0.2,3.7,2.1,5,3"/>
			<path id="_Контур_9" class="st0" d="M68.6,34.2c-1.1,1-2.8,1-3.9,0.1c-1.3-1-1.5-2.9-0.5-4.2l0,0c0.8-0.8,1.9-1.3,3-1.1
				c1.6,0.2,3.7,2.1,5,3"/>
			<path id="_Контур_10" class="st0" d="M79,21.5c-1.1,1-2.8,1-3.9,0.1c-1.3-1-1.5-2.9-0.5-4.2l0,0c0.8-0.8,1.9-1.3,3-1.1
				c1.6,0.2,3.7,2.1,5,3"/>
			<path id="_Контур_11" class="st0" d="M65.2,89.2h-55c-4.8,0-8.6-3.9-8.6-8.6v-5.2C1.3,73.2,2.8,71.3,5,71
				c0.1,0,0.3,0,0.4,0h27.3"/>
			<g id="_Группа_3">
				<line id="_Контур_12" class="st0" x1="72.8" y1="54.8" x2="98.4" y2="80.4"/>
				<line id="_Контур_13" class="st0" x1="98.4" y1="54.8" x2="72.8" y2="80.4"/>
			</g>
		</g>
	</g>
</g>
</svg>
