<?xml version="1.0" encoding="utf-8"?>
<!-- Generator: Adobe Illustrator 22.0.0, SVG Export Plug-In . SVG Version: 6.00 Build 0)  -->
<svg version="1.1" id="Слой_1" xmlns="http://www.w3.org/2000/svg" xmlns:xlink="http://www.w3.org/1999/xlink" x="0px" y="0px"
	 viewBox="0 0 101.5 112.6" style="enable-background:new 0 0 101.5 112.6;" xml:space="preserve">
<style type="text/css">
	.st0{fill:none;stroke:#74777F;stroke-width:3;stroke-linecap:round;stroke-linejoin:round;}
</style>
<title>Candy Tablet</title>
<g id="Слой_2_1_">
	<g id="_лой_1">
		<g id="_Группа_">
			<g id="_Группа_2">
				<circle id="_Контур_" class="st0" cx="77.6" cy="76.6" r="22.4"/>
				<g id="_Группа_3">
					<line id="_Контур_2" class="st0" x1="65.8" y1="64.8" x2="89.4" y2="88.4"/>
					<line id="_Контур_3" class="st0" x1="89.4" y1="64.8" x2="65.8" y2="88.4"/>
				</g>
			</g>
			<g id="_Группа_4">
				<path id="_Контур_4" class="st0" d="M48.8,84.5c-3,4.5-9.2,5.7-13.7,2.7l0,0l-11.8-7.9c-4.5-3-5.7-9.2-2.7-13.7l0,0
					l24.6-36.7c3-4.5,9.2-5.8,13.7-2.7l0,0l11.8,7.9c4.5,3,5.7,9.2,2.7,13.7"/>
				<g id="_Группа_5">
					<path id="_Контур_5" class="st0" d="M57.8,25.4l3.5-23.8c0,0,7.9-1.8,11.7,7.9c1.4,3.5,4.5,5.1,8,5.7
						c3.8,0.7,6.2,1.3,9.3,3.9L71.8,34.8"/>
					<line id="_Контур_6" class="st0" x1="73.1" y1="9.5" x2="69.4" y2="16.7"/>
					<line id="_Контур_7" class="st0" x1="81.8" y1="15.3" x2="69.9" y2="25.9"/>
				</g>
				<g id="_Группа_6">
					<path id="_Контур_8" class="st0" d="M22.2,78.5L1.5,90.8c0,0,1.3,8,11.7,7.9c3.7,0,6.4,2.3,8.3,5.2
						c2.1,3.3,3.5,5.3,7.1,7.1l7.5-23.2"/>
					<line id="_Контур_9" class="st0" x1="13.2" y1="98.7" x2="18.5" y2="92.6"/>
					<line id="_Контур_10" class="st0" x1="21.9" y1="104.5" x2="27.2" y2="89.5"/>
				</g>
			</g>
		</g>
	</g>
</g>
</svg>
