<?xml version="1.0" encoding="utf-8"?>
<!-- Generator: Adobe Illustrator 22.0.0, SVG Export Plug-In . SVG Version: 6.00 Build 0)  -->
<svg version="1.1" id="Слой_1" xmlns="http://www.w3.org/2000/svg" xmlns:xlink="http://www.w3.org/1999/xlink" x="0px" y="0px"
	 viewBox="0 0 99.9 101.8" style="enable-background:new 0 0 99.9 101.8;" xml:space="preserve">
<style type="text/css">
	.st0{fill:none;stroke:#74777F;stroke-width:3;stroke-linecap:round;stroke-linejoin:round;}
</style>
<title>Card</title>
<g id="Слой_2_1_">
	<g id="_лой_1">
		<g id="_Группа_">
			<g id="_Группа_2">
				<g id="_Группа_3">
					<path id="_Контур_" class="st0" d="M48.2,54.7l5.5-0.9c0.4-0.1,0.8-0.1,1.2-0.1l0,0c2.4,0,4.6,1.1,5.9,3.1
						c0.9,1.6,1.4,3.4,1.4,5.2l0,0c0,1.9-0.5,3.8-1.5,5.5l-1.6,2.6c-0.7,1.2-1.2,2.6-1.3,4c-0.3,3.2-1.4,6.4-3.1,9.2l-1,1.7
						c-0.3,0.4-0.8,0.7-1.3,0.7l0,0c-0.8,0-1.5-0.6-1.5-1.4v-2.7c0-1.4-0.3-2.7-0.8-4l-0.4-1c-0.2-0.6-0.8-1-1.5-1l0,0
						c-0.7,0-1.3,0.4-1.5,1l-0.4,1.1c-0.4,1.2-0.7,2.5-0.7,3.7v2.8c0,0.8-0.7,1.4-1.5,1.4l0,0c-0.5,0-1-0.3-1.3-0.7l-1-1.7
						C40,80.4,39,77.3,38.7,74c-0.1-1.4-0.6-2.8-1.3-4l-1.6-2.6c-1-1.6-1.6-3.5-1.6-5.5l0,0c0-1.8,0.4-3.6,1.4-5.2
						c1.3-2,3.6-3.2,5.9-3.1l0,0c0.4,0,0.8,0,1.2,0.1L48.2,54.7"/>
				</g>
			</g>
			<g id="_Группа_4">
				<path id="_Контур_2" class="st0" d="M33.3,28c-0.1,2-0.9,3.9-2.3,5.3l0,0c-0.6,0.6-1.4,1-2.3,1c-0.8,0-1.6-0.3-2.1-0.8
					C25,32,24,30.1,23.9,28c0-2.6,2.1-4.7,4.7-4.7S33.3,25.4,33.3,28z"/>
				<path id="_Контур_3" class="st0" d="M39,39v5.7H18.8V39c0-2,1.3-3.8,3.2-4.3l4.4-1.3c0.6,0.5,1.4,0.8,2.1,0.8
					c0.9,0,1.7-0.4,2.3-1l0,0l4.7,1.4C37.6,35.2,39,37,39,39z"/>
			</g>
			<line id="_Контур_4" class="st0" x1="48.9" y1="27.4" x2="60.4" y2="27.4"/>
			<line id="_Контур_5" class="st0" x1="48.9" y1="35.8" x2="60.4" y2="35.8"/>
			<line id="_Контур_6" class="st0" x1="48.9" y1="44.7" x2="60.4" y2="44.7"/>
			<line id="_Контур_7" class="st0" x1="17.1" y1="67.9" x2="28.6" y2="67.9"/>
			<line id="_Контур_8" class="st0" x1="17.1" y1="76.2" x2="28.6" y2="76.2"/>
			<line id="_Контур_9" class="st0" x1="17.1" y1="85.2" x2="28.6" y2="85.2"/>
			<polyline id="_Контур_10" class="st0" points="52.6,6.4 52.6,1.5 25.6,1.5 25.6,6.4 			"/>
			<path id="_Контур_11" class="st0" d="M25.6,6.4c0,5.1,4.1,9.2,9.2,9.2l0,0h8.5c5.1,0,9.2-4.1,9.2-9.2"/>
			<line id="_Контур_12" class="st0" x1="34.6" y1="8.2" x2="43.8" y2="8.2"/>
			<polyline id="_Контур_13" class="st0" points="18.3,1.5 1.5,1.5 1.5,100.3 76.2,100.3 76.2,1.5 58.2,1.5 			"/>
			<polyline id="_Контур_14" class="st0" points="17.9,8.2 9.9,8.2 9.9,92.3 68.4,92.3 68.4,8.2 59.3,8.2 			"/>
			<g id="_Группа_5">
				<rect id="_Контур_15" x="90" y="44.2" class="st0" width="8.4" height="43.7"/>
				<polyline id="_Контур_16" class="st0" points="90,44.2 94.2,31.1 98.4,44.2 				"/>
				<path id="_Контур_17" class="st0" d="M90,87.9v5.2c0,2.3,1.9,4.2,4.2,4.2l0,0l0,0c2.3,0,4.2-1.9,4.2-4.2l0,0v-5.2"/>
			</g>
		</g>
	</g>
</g>
</svg>
