<?xml version="1.0" encoding="utf-8"?>
<!-- Generator: Adobe Illustrator 22.0.0, SVG Export Plug-In . SVG Version: 6.00 Build 0)  -->
<svg version="1.1" id="Слой_1" xmlns="http://www.w3.org/2000/svg" xmlns:xlink="http://www.w3.org/1999/xlink" x="0px" y="0px"
	 viewBox="0 0 107.2 104.1" style="enable-background:new 0 0 107.2 104.1;" xml:space="preserve">
<style type="text/css">
	.st0{fill:none;stroke:#74777F;stroke-width:3;stroke-linecap:round;stroke-linejoin:round;}
</style>
<title>Caries Candy</title>
<g id="Слой_2_1_">
	<g id="_лой_1">
		<g id="_Группа_">
			<g id="_Группа_2">
				<path id="_Контур_" class="st0" d="M33.8,3.3l-8.5-1.5c-1.1-0.2-2.2-0.3-3.3-0.3l0,0C15.2,1.4,8.8,5,5.3,10.8
					c-2.6,4.8-4,10.1-3.8,15.5c0,2.9,0.4,5.7,1.1,8.5s1.8,5.4,3.2,7.9l4.4,7.6c2.1,3.6,3.3,7.6,3.7,11.8c0.8,9.6,3.8,19,8.6,27.4
					l2.9,5c1.1,2,3.7,2.7,5.7,1.5c0.3-0.2,0.6-0.4,0.9-0.7c0.8-0.8,1.2-1.8,1.2-2.9V84c0-3.8,0.6-7.5,1.9-11.1l1.1-3.4
					c0.8-2.3,3.3-3.6,5.7-2.8c1.3,0.4,2.3,1.4,2.7,2.7c0.8,2.1,1.3,4.2,1.5,6.4l0.9,8.1"/>
				<path id="_Контур_2" class="st0" d="M47.3,3.3l8.5-1.5c1.1-0.2,2.2-0.3,3.4-0.3l0,0C66,1.4,72.3,5,75.8,10.9"/>
				<path id="_Контур_3" class="st0" d="M47.3,3.3c4.2,3.7,4.6,10.2,0.8,14.4c-3.7,4.2-10.2,4.6-14.4,0.8S29.2,8.3,33,4.1
					c0.3-0.3,0.5-0.6,0.8-0.8"/>
			</g>
			<g id="_Группа_3">
				<path id="_Прямоугольник_" class="st0" d="M58.1,70.4l15.3-31.8c1.6-3.2,5.4-4.6,8.6-3l11.4,5.5
					c3.2,1.6,4.6,5.4,3,8.6L81.2,81.6c-1.6,3.2-5.4,4.6-8.6,3l-11.4-5.5C57.9,77.5,56.6,73.6,58.1,70.4z"/>
				<g id="_Группа_4">
					<path id="_Контур_4" class="st0" d="M82,35.6l0.1-18.1c0,0,5.7-2.2,9.6,4.6c1.4,2.4,3.9,3.3,6.6,3.4
						c2.9,0.1,4.8,0.3,7.3,1.9L93.4,41.1"/>
					<line id="_Контур_5" class="st0" x1="98.8" y1="25.5" x2="93.1" y2="32.3"/>
				</g>
				<g id="_Группа_5">
					<path id="_Контур_6" class="st0" d="M61.1,79L47,90.4c0,0,1.8,5.8,9.6,4.6c2.8-0.4,5,1,6.8,3c1.9,2.2,3.2,3.6,6.1,4.6
						l3.1-18.1"/>
					<line id="_Контур_7" class="st0" x1="56.6" y1="95.1" x2="59.8" y2="89.9"/>
				</g>
			</g>
		</g>
	</g>
</g>
</svg>
