<?xml version="1.0" encoding="utf-8"?>
<!-- Generator: Adobe Illustrator 22.0.0, SVG Export Plug-In . SVG Version: 6.00 Build 0)  -->
<svg version="1.1" id="Слой_1" xmlns="http://www.w3.org/2000/svg" xmlns:xlink="http://www.w3.org/1999/xlink" x="0px" y="0px"
	 viewBox="0 0 111.9 45.6" style="enable-background:new 0 0 111.9 45.6;" xml:space="preserve">
<style type="text/css">
	.st0{fill:none;stroke:#74777F;stroke-width:3;stroke-linecap:round;stroke-linejoin:round;}
</style>
<title>Smile</title>
<g id="Слой_2_1_">
	<g id="_лой_1">
		<g id="_Группа_">
			<path id="_Контур_" class="st0" d="M110.4,10.4c-5.1-0.9-10.3-1.9-15.5-3c-5.2-1-10.3-3-15.4-4.8C74.4,1,69,1.1,64.1,3
				c-1,0.4-1.9,0.8-2.9,1.1c-3.4,1.2-7.1,1.2-10.5,0c-1-0.3-1.9-0.7-2.9-1.1c-4.9-1.9-10.4-2-15.4-0.4C27.3,4.4,22.1,6.4,17,7.4
				s-10.4,2-15.5,3c17.8,3.4,35.8,5.2,53.9,5.2C73.9,15.6,92.3,13.9,110.4,10.4z"/>
			<path id="_Контур_2" class="st0" d="M9.2,14l4,10c4,9.9,12.8,16.9,23.3,18.5c6.4,1,12.9,1.5,19.5,1.5
				c6.5,0,13-0.5,19.5-1.5C86,40.9,94.8,33.8,98.8,24l4-10"/>
			<path id="_Контур_3" class="st0" d="M17.6,15.6L17.6,15.6l1.7,2.4c3.1,4.3,7.3,7.8,12,10.3c4,2,8.3,3.3,12.8,3.6
				c1,0.1,2,0.1,2.9,0.1h17.9c1.8,0,3.5-0.1,5.2-0.4c4.3-0.7,8.4-2.1,12.1-4.4c4.1-2.4,7.7-5.7,10.5-9.6l1.5-2.1"/>
			<line id="_Контур_4" class="st0" x1="57.2" y1="32" x2="57.2" y2="15.6"/>
			<line id="_Контур_5" class="st0" x1="70.2" y1="31.6" x2="70.2" y2="15.6"/>
			<line id="_Контур_6" class="st0" x1="44.2" y1="31.9" x2="44.2" y2="15.3"/>
			<line id="_Контур_7" class="st0" x1="31.4" y1="28.2" x2="31.4" y2="14.6"/>
			<line id="_Контур_8" class="st0" x1="82.3" y1="27.3" x2="82.3" y2="14.4"/>
		</g>
	</g>
</g>
</svg>
