<?xml version="1.0" encoding="utf-8"?>
<!-- Generator: Adobe Illustrator 22.0.0, SVG Export Plug-In . SVG Version: 6.00 Build 0)  -->
<svg version="1.1" id="Слой_1" xmlns="http://www.w3.org/2000/svg" xmlns:xlink="http://www.w3.org/1999/xlink" x="0px" y="0px"
	 viewBox="0 0 95.2 94.4" style="enable-background:new 0 0 95.2 94.4;" xml:space="preserve">
<style type="text/css">
	.st0{fill:none;stroke:#74777F;stroke-width:3;stroke-linecap:round;stroke-linejoin:round;}
</style>
<title>Syringe</title>
<g id="Слой_2_1_">
	<g id="_лой_1">
		<g id="_Группа_">
			<path id="_Контур_" class="st0" d="M26,56.5l33.2-32.9c0.7-0.7,1.7-1.2,2.7-1.4l11,11.2c-0.2,1-0.7,1.9-1.4,2.6L38.3,68.9"
				/>
			<line id="_Контур_2" class="st0" x1="74.3" y1="20.8" x2="93.7" y2="1.5"/>
			<polyline id="_Контур_3" class="st0" points="28,49.5 24.8,46.3 20.4,50.8 44,74.6 48.5,70.2 45.5,67.2 			"/>
			<polyline id="_Контур_4" class="st0" points="25.9,62.9 5,83.4 10.9,89.3 31.5,68.8 			"/>
			<line id="_Контур_5" class="st0" x1="1.5" y1="79.8" x2="14.5" y2="92.9"/>
			<line id="_Контур_6" class="st0" x1="55" y1="27.7" x2="59.2" y2="31.9"/>
			<line id="_Контур_7" class="st0" x1="46.4" y1="36.3" x2="48.8" y2="38.7"/>
			<line id="_Контур_8" class="st0" x1="42.1" y1="40.5" x2="44.2" y2="42.6"/>
			<line id="_Контур_9" class="st0" x1="37.9" y1="44.8" x2="40" y2="46.9"/>
			<line id="_Контур_10" class="st0" x1="50.4" y1="32.3" x2="53.2" y2="35.2"/>
			<line id="_Контур_11" class="st0" x1="33.9" y1="48.7" x2="36.9" y2="51.6"/>
			
				<rect id="_Прямоугольник_" x="66" y="21.7" transform="matrix(0.7049 -0.7093 0.7093 0.7049 3.6705 57.4813)" class="st0" width="9.8" height="5.2"/>
		</g>
	</g>
</g>
</svg>
