<?xml version="1.0" encoding="utf-8"?>
<!-- Generator: Adobe Illustrator 22.0.0, SVG Export Plug-In . SVG Version: 6.00 Build 0)  -->
<svg version="1.1" id="Слой_1" xmlns="http://www.w3.org/2000/svg" xmlns:xlink="http://www.w3.org/1999/xlink" x="0px" y="0px"
	 viewBox="0 0 119 95.9" style="enable-background:new 0 0 119 95.9;" xml:space="preserve">
<style type="text/css">
	.st0{fill:none;stroke:#74777F;stroke-width:3;stroke-linecap:round;stroke-linejoin:round;}
</style>
<title>Tooth Burger</title>
<g id="Слой_2_1_">
	<g id="_лой_1">
		<g id="_Группа_">
			<g id="_Группа_2">
				<path id="_Контур_" class="st0" d="M94.5,37.4l5.8-1.3c2.5-0.6,5.2,0.2,6.9,2.2c0.1,0.1,0.2,0.3,0.3,0.5
					c1,1.4,1.5,3,1.4,4.7"/>
				<g id="_Группа_3">
					<path id="_Контур_2" class="st0" d="M90,29.4l-10.8-1.9c-0.8-0.1-1.6-0.2-2.4-0.2l0,0c-4.8-0.1-9.3,2.5-11.7,6.6
						c-1.9,3.4-2.8,7.2-2.7,11l0,0c0,4,1.1,8,3.1,11.5l3.1,5.4c1.5,2.5,2.4,5.4,2.6,8.3c0.6,6.8,2.7,13.4,6.1,19.3l2.1,3.6
						c0.5,0.9,1.5,1.5,2.5,1.5l0,0c1.6,0,2.9-1.3,2.9-2.9l0,0v-5.7c0-2.9,0.5-5.7,1.5-8.4l0.8-2.2c0.5-1.2,1.7-2.1,3-2.1l0,0
						c1.4,0,2.6,0.9,3,2.1l0.8,2.4c0.9,2.5,1.3,5.2,1.3,7.8v5.9c0,1.6,1.3,2.9,2.9,2.9l0,0c1,0,2-0.6,2.5-1.4l2-3.6
						c3.4-5.9,5.5-12.5,6.1-19.3c0.3-2.9,1.2-5.8,2.6-8.3l3.1-5.4c2-3.5,3.1-7.5,3.1-11.5l0,0c0.1-3.8-0.8-7.6-2.7-11
						c-2.4-4.1-6.9-6.6-11.7-6.6l0,0c-0.8,0-1.6,0.1-2.4,0.2L90,29.4"/>
				</g>
			</g>
			<g id="_Группа_4">
				<g id="_Группа_5">
					<path id="_Контур_3" class="st0" d="M71.5,93.8c-17,0.5-40.3,0.2-46-0.8c-2.3-0.3-4.6-0.8-6.8-1.5
						c-5.6-1.7-9.3-6.9-9.3-12.8v0.5"/>
				</g>
				<path id="_Контур_4" class="st0" d="M55.8,50.7H14.3c-3,0-5.5,2.5-5.5,5.5"/>
				<path id="_Контур_5" class="st0" d="M20.7,50.7c0,0,28.8,18.2,34.9,27.5c0,0,2.7-2.7,6.8-6.4"/>
				<g id="_Группа_6">
					<g id="_Группа_7">
						<path id="_Контур_6" class="st0" d="M96,20C87.2,8.8,72.4,1.5,55.6,1.5C30.1,1.5,9.2,18.4,6.8,39.9
							c-0.2,2.1,1.3,4,3.3,4.2c0.1,0,0.3,0,0.4,0h45.1"/>
					</g>
					<path id="_Контур_7" class="st0" d="M24.2,33.1c-1.1,0.9-2.7,1-3.8,0.1c-1.2-1-1.4-2.9-0.4-4.1l0,0
						c0.7-0.8,1.8-1.2,2.9-1.1c1.5,0.2,3.6,2.1,4.8,2.9"/>
					<path id="_Контур_8" class="st0" d="M38.6,17.9c-1.1,0.9-2.6,1-3.8,0.1c-1.3-1-1.4-2.9-0.4-4.1l0,0
						c0.7-0.8,1.8-1.2,2.9-1.1c1.5,0.2,3.6,2.1,4.8,2.9"/>
					<path id="_Контур_9" class="st0" d="M46.9,34.9c-1.1,0.9-2.7,1-3.8,0.1c-1.2-1-1.4-2.9-0.4-4.1l0,0
						c0.7-0.8,1.8-1.2,2.9-1.1c1.5,0.2,3.6,2.1,4.8,2.9"/>
					<path id="_Контур_10" class="st0" d="M59.7,14.4c-1.1,0.9-2.7,1-3.8,0.1c-1.2-1-1.4-2.9-0.4-4.1l0,0
						c0.7-0.8,1.8-1.2,2.9-1.1c1.5,0.2,3.6,2.1,4.8,2.9"/>
					<path id="_Контур_11" class="st0" d="M81.5,20.8c-1.1,0.9-2.7,1-3.8,0.1c-1.2-1-1.4-2.9-0.4-4.1l0,0
						c0.7-0.8,1.8-1.2,2.9-1.1c1.5,0.2,3.6,2.1,4.8,2.9"/>
				</g>
				<path id="_Контур_12" class="st0" d="M44.9,74.6c-0.6,1.9-2,3.5-3.8,4.4c-1.4,0.7-3,0.9-4.5,0.4c-1.4-0.5-2.5-1.4-3.3-2.6
					c-0.4,4.3-4.2,7.5-8.6,7.1c-1-0.1-1.9-0.4-2.8-0.8c-2-1-3.6-3.7-2.4-5.5C19,78.1,11.9,81,6.2,77.2c-1.1-0.7-4.7-3.1-4.7-7.2
					c0-9.6,10.4-7.1,10.9-7.5h15.3"/>
			</g>
		</g>
	</g>
</g>
</svg>
