<?xml version="1.0" encoding="utf-8"?>
<!-- Generator: Adobe Illustrator 22.0.0, SVG Export Plug-In . SVG Version: 6.00 Build 0)  -->
<svg version="1.1" id="Слой_1" xmlns="http://www.w3.org/2000/svg" xmlns:xlink="http://www.w3.org/1999/xlink" x="0px" y="0px"
	 viewBox="0 0 114.3 105.9" style="enable-background:new 0 0 114.3 105.9;" xml:space="preserve">
<style type="text/css">
	.st0{fill:none;stroke:#74777F;stroke-width:3;stroke-linecap:round;stroke-linejoin:round;}
</style>
<title>Tooth Renew</title>
<g id="Слой_2_1_">
	<g id="_лой_1">
		<g id="_Группа_">
			<g id="_Группа_2">
				<path id="_Контур_" class="st0" d="M52.8,39.9l8.7-1.5c0.6-0.1,1.3-0.2,1.9-0.2l0,0c3.9,0,7.4,2,9.4,5.3
					c1.5,2.7,2.2,5.7,2.2,8.8l0,0c0,3.3-0.9,6.5-2.5,9.3L70,65.9c-1.2,2.1-1.9,4.3-2,6.7c-0.5,5.5-2.1,10.8-4.9,15.5L61.4,91
					c-0.4,0.7-1.2,1.2-2,1.2l0,0c-1.3,0-2.4-1-2.4-2.3c0,0,0,0,0-0.1v-4.5c0-2.3-0.4-4.6-1.2-6.8l-0.7-1.8c-0.4-1-1.3-1.7-2.4-1.7
					l0,0c-1.1,0-2,0.7-2.4,1.7l-0.7,1.9c-0.7,2-1.1,4.2-1.1,6.3v4.8c0,1.3-1,2.3-2.3,2.4l0,0c-0.8,0-1.6-0.5-2-1.2L42.5,88
					c-2.7-4.8-4.4-10.1-4.9-15.5c-0.2-2.4-0.9-4.6-2.1-6.7L33,61.5c-1.6-2.8-2.5-6-2.5-9.3l0,0c-0.1-3.1,0.7-6.1,2.2-8.8
					c2-3.3,5.5-5.3,9.4-5.3l0,0c0.6,0,1.3,0.1,1.9,0.2L52.8,39.9"/>
			</g>
			<path id="_Контур_2" class="st0" d="M78.8,94.7c3.9-3.9,6.9-8.6,9-13.7c1-2.7,1.7-5.5,2.1-8.4L81.8,72L99,49.7l13.9,24.5
				l-7.1-0.5c-0.5,1.4-1.1,2.9-1.7,4.2c-5.7,12.1-16.4,21-29.3,24.5l-7.3,2l3.7-2.9C73.9,99.5,76.4,97.2,78.8,94.7z"/>
			<path id="_Контур_3" class="st0" d="M65.9,19.9c-5.4-1.3-10.9-1.4-16.4-0.5c-2.8,0.5-5.6,1.4-8.2,2.6l3.2,6.1l-27.5-2
				L30.7,1.5L34,7.8c1.5-0.3,3-0.6,4.5-0.8C51.8,5.6,65,10,74.7,19.2l5.5,5.2l-4.4-1.7C72.6,21.5,69.3,20.6,65.9,19.9z"/>
			<path id="_Контур_4" class="st0" d="M8.7,60.9c0.7,5.5,2.5,10.7,5.3,15.5c1.5,2.5,3.3,4.7,5.4,6.8L24,78l7.9,26.4l-27.9-4
				l4.8-5.3c-0.8-1.3-1.6-2.6-2.3-3.9C0.4,79.3-0.1,65.3,5,53l2.9-7c0,1.6,0,3.1,0,4.7C7.8,54.1,8.1,57.5,8.7,60.9z"/>
		</g>
	</g>
</g>
</svg>
