<?xml version="1.0" encoding="utf-8"?>
<!-- Generator: Adobe Illustrator 22.0.0, SVG Export Plug-In . SVG Version: 6.00 Build 0)  -->
<svg version="1.1" id="Слой_1" xmlns="http://www.w3.org/2000/svg" xmlns:xlink="http://www.w3.org/1999/xlink" x="0px" y="0px"
	 viewBox="0 0 62.3 102.4" style="enable-background:new 0 0 62.3 102.4;" xml:space="preserve">
<style type="text/css">
	.st0{fill:none;stroke:#74777F;stroke-width:3;stroke-linecap:round;stroke-linejoin:round;}
</style>
<title>Tooth Brush_1</title>
<g id="Слой_2_1_">
	<g id="_лой_1">
		<g id="_Группа_">
			<g id="_Группа_2">
				<polyline id="_Контур_" class="st0" points="29.4,41 32.3,100.2 1.5,100.2 5.2,24.9 28.6,24.9 29,32 				"/>
				<polyline id="_Контур_2" class="st0" points="5.2,24.9 12.5,16.6 21.3,16.6 28.6,24.9 				"/>
				<polyline id="_Контур_3" class="st0" points="12.5,16.6 12.5,4.7 21.3,4.7 21.3,16.6 				"/>
				<line id="_Контур_4" class="st0" x1="2" y1="89.5" x2="26.8" y2="89.5"/>
				<line id="_Контур_5" class="st0" x1="9.2" y1="89.5" x2="9.2" y2="94.1"/>
				<line id="_Контур_6" class="st0" x1="16.9" y1="89.5" x2="16.9" y2="93.7"/>
				<line id="_Контур_7" class="st0" x1="24.1" y1="89.5" x2="24.1" y2="93.7"/>
				<line id="_Контур_8" class="st0" x1="12.5" y1="24.9" x2="11.2" y2="56.5"/>
			</g>
			<g id="_Группа_3">
				<path id="_Контур_9" class="st0" d="M39.4,5.4v21.1c0,3,0.9,5.9,2.6,8.3l4,5.6c1.3,2.5,2,5.3,2,8.1v48
					c0,2.4,1.9,4.3,4.3,4.3l0,0l0,0c2.4,0,4.3-1.9,4.3-4.3l0,0V45.4c0-3.1-0.8-6.1-2.4-8.7l-4-5.1c-2-2.5-3-5.6-3-8.8V5.4
					c0-2.2-1.7-3.9-3.9-3.9l0,0C41.2,1.5,39.4,3.2,39.4,5.4L39.4,5.4z"/>
				<polyline id="_Контур_10" class="st0" points="60.8,14 60.8,29.2 47.6,25.9 				"/>
				<polyline id="_Контур_11" class="st0" points="47.3,5.4 60.8,1.5 60.8,6.3 				"/>
				<polyline id="_Контур_12" class="st0" points="60.8,6.3 57.8,10.1 60.8,14 				"/>
				<line id="_Контур_13" class="st0" x1="57.8" y1="10.1" x2="53.4" y2="10.1"/>
				<line id="_Контур_14" class="st0" x1="60.8" y1="20.3" x2="53.4" y2="20.3"/>
			</g>
		</g>
	</g>
</g>
</svg>
