<?xml version="1.0" encoding="utf-8"?>
<!-- Generator: Adobe Illustrator 22.0.0, SVG Export Plug-In . SVG Version: 6.00 Build 0)  -->
<svg version="1.1" id="Слой_1" xmlns="http://www.w3.org/2000/svg" xmlns:xlink="http://www.w3.org/1999/xlink" x="0px" y="0px"
	 viewBox="0 0 102.3 55.1" style="enable-background:new 0 0 102.3 55.1;" xml:space="preserve">
<style type="text/css">
	.st0{fill:none;stroke:#74777F;stroke-width:3;stroke-linecap:round;stroke-linejoin:round;}
</style>
<title>Tooth ROw</title>
<g id="Слой_2_1_">
	<g id="_лой_1">
		<g id="_Группа_">
			<path id="_Контур_" class="st0" d="M14.1,33c0.4,2.9,2.7,5.2,5.6,5.5h0.1c0.6,0.1,1.1,0.1,1.7,0c2.8-0.4,5-2.6,5.4-5.3
				c1.2-7.7,2.5-15.5,3.7-23.2c0.4-2.2-0.9-4.3-3-5c-2.1-0.8-4.4-1.1-6.6-1.2c-2.6,0-5.2,0.4-7.7,1.2c-2.2,0.6-3.5,2.8-3.2,5
				C11.3,17.7,12.9,25.4,14.1,33z"/>
			<path id="_Контур_2" class="st0" d="M34.6,30.7c0.4,2.9,2.7,5.2,5.6,5.5h0.1c0.6,0.1,1.1,0.1,1.7,0c2.8-0.4,5-2.5,5.4-5.3
				c1.2-7.7,2.4-15.4,3.7-23.2c0.3-2.2-0.9-4.3-3-5c-2.1-0.8-4.3-1.2-6.5-1.2c-2.6,0-5.2,0.4-7.7,1.2c-2.2,0.7-3.5,2.8-3.2,5
				C31.8,15.4,33.5,23,34.6,30.7z"/>
			<path id="_Контур_3" class="st0" d="M55.1,30.7c0.4,2.9,2.7,5.2,5.6,5.5h0.1c0.6,0.1,1.1,0.1,1.7,0
				c2.8-0.3,5.1-2.5,5.5-5.4c1.2-7.7,2.4-15.4,3.6-23.2c0.4-2.2-0.9-4.3-2.9-5c-2.1-0.7-4.4-1.1-6.6-1.1c-2.6,0-5.2,0.4-7.7,1.2
				c-2.1,0.7-3.5,2.8-3.2,5C52.4,15.4,54,23,55.1,30.7z"/>
			<path id="_Контур_4" class="st0" d="M75.7,33.4c0.4,2.9,2.7,5.2,5.6,5.5h0.1c0.6,0.1,1.1,0.1,1.7,0c2.8-0.4,5-2.5,5.4-5.3
				c1.2-7.7,2.5-15.5,3.7-23.2c0.4-2.2-0.9-4.3-3-5s-4.4-1.1-6.6-1.1c-2.6,0-5.1,0.4-7.6,1.2c-2.2,0.7-3.5,2.8-3.2,5
				C72.9,18.1,74.5,25.7,75.7,33.4z"/>
			<path id="_Контур_5" class="st0" d="M7.6,24.6c28.8-9,59.6-9,88.3,0.2"/>
			<path id="_Контур_6" class="st0" d="M1.5,39.8l1.4,5.1c1.4,5.1,6,8.7,11.4,8.7h73.1c4.8,0,9.2-2.9,11-7.4l2.5-6.3"/>
		</g>
	</g>
</g>
</svg>
