<svg xmlns="http://www.w3.org/2000/svg" viewBox="0 0 109.14 123.02"><title>Tooth Washing</title><g id="Слой_2" data-name="Слой 2"><g id="_лой_1" data-name="—лой_1"><g id="_Группа_" data-name="&lt;Группа&gt;"><path id="_Контур_" data-name="&lt;Контур&gt;" d="M77.71,29l6.43-1.14a18.49,18.49,0,0,1,3.33-.29h0a18.8,18.8,0,0,1,16.37,9.22,27.37,27.37,0,0,1,2.69,6.61,33.73,33.73,0,0,1,1.09,8.74,32.74,32.74,0,0,1-4.28,16.16l-4.31,7.52a28.36,28.36,0,0,0-3.67,11.65,65.55,65.55,0,0,1-8.49,27l-2.87,5a4.1,4.1,0,0,1-7.66-2V109.1a33.49,33.49,0,0,0-1.84-11l-1.13-3.33a4.42,4.42,0,0,0-8.32-.09l-1.14,3a33.57,33.57,0,0,0-2.13,11.77v7.87a4.07,4.07,0,0,1-1.2,2.9,4,4,0,0,1-2.9,1.21,4.15,4.15,0,0,1-3.56-2.06l-2.87-5a65.54,65.54,0,0,1-8.48-27,27.8,27.8,0,0,0-1.61-7.21" style="fill:none;stroke:#74777f;stroke-linecap:round;stroke-linejoin:round;stroke-width:3px"/><path id="_Контур_2" data-name="&lt;Контур&gt;" d="M31.74,60.84a0,0,0,0,0,0,0" style="fill:none;stroke:#74777f;stroke-linecap:round;stroke-linejoin:round;stroke-width:3px"/><path id="_Контур_3" data-name="&lt;Контур&gt;" d="M38.18,50.21a6.5,6.5,0,0,1-.06,1,6,6,0,0,0-1,.53c.28.14.57.28.87.4a16.13,16.13,0,0,0,17.57-3.54" style="fill:none;stroke:#74777f;stroke-linecap:round;stroke-linejoin:round;stroke-width:3px"/><path id="_Контур_4" data-name="&lt;Контур&gt;" d="M58,43.08c4.17-7,0-14.21,0-14.21A16.17,16.17,0,0,0,28.6,41.81a10.39,10.39,0,0,1,1.13-.07,8.42,8.42,0,0,1,5.63,2.15" style="fill:none;stroke:#74777f;stroke-linecap:round;stroke-linejoin:round;stroke-width:3px"/><path id="_Контур_5" data-name="&lt;Контур&gt;" d="M50.3,39.29c.57,6,6.17,11.3,12.35,10.63a10.79,10.79,0,0,0,9-7.48,11.15,11.15,0,0,0-5.72-13" style="fill:none;stroke:#74777f;stroke-linecap:round;stroke-linejoin:round;stroke-width:3px"/><path id="_Контур_6" data-name="&lt;Контур&gt;" d="M49.29,52.48a10.71,10.71,0,0,1,4.09,6.85,8.83,8.83,0,0,1,.17,1.79,10.87,10.87,0,0,1-5,9.15A10.75,10.75,0,0,1,42.64,72,10.9,10.9,0,0,1,31.73,61.12a10,10,0,0,1,.38-2.81,10.89,10.89,0,0,1,5-6.58,6,6,0,0,1,1-.53" style="fill:none;stroke:#74777f;stroke-linecap:round;stroke-linejoin:round;stroke-width:3px"/><path id="_Контур_7" data-name="&lt;Контур&gt;" d="M28.6,41.81a8.46,8.46,0,0,0,1.13,16.85,8.16,8.16,0,0,0,2.38-.35" style="fill:none;stroke:#74777f;stroke-linecap:round;stroke-linejoin:round;stroke-width:3px"/><path id="_Контур_8" data-name="&lt;Контур&gt;" d="M38,52.13a5.65,5.65,0,0,0,.17-.93,6,6,0,0,0-1,.53" style="fill:none;stroke:#74777f;stroke-linecap:round;stroke-linejoin:round;stroke-width:3px"/><path id="_Контур_9" data-name="&lt;Контур&gt;" d="M53.38,59.33a8.22,8.22,0,0,1,3.07-.58,8.72,8.72,0,0,1,2,17.13c-.62.15-4.89,1.09-8.27-1.65a8.73,8.73,0,0,1-2.54-3.43" style="fill:none;stroke:#74777f;stroke-linecap:round;stroke-linejoin:round;stroke-width:3px"/><circle id="_Контур_10" data-name="&lt;Контур&gt;" cx="71.49" cy="12.52" r="7.7" transform="translate(12.09 54.22) rotate(-45)" style="fill:none;stroke:#74777f;stroke-linecap:round;stroke-linejoin:round;stroke-width:3px"/><circle id="_Контур_11" data-name="&lt;Контур&gt;" cx="9.2" cy="41.81" r="7.7" transform="translate(-26.87 18.75) rotate(-45)" style="fill:none;stroke:#74777f;stroke-linecap:round;stroke-linejoin:round;stroke-width:3px"/><path id="_Контур_12" data-name="&lt;Контур&gt;" d="M46.36,7A5.51,5.51,0,1,1,40.85,1.5,5.51,5.51,0,0,1,46.36,7Z" style="fill:none;stroke:#74777f;stroke-linecap:round;stroke-linejoin:round;stroke-width:3px"/><path id="_Контур_13" data-name="&lt;Контур&gt;" d="M27.91,77.54A5.51,5.51,0,1,1,22.4,72,5.51,5.51,0,0,1,27.91,77.54Z" style="fill:none;stroke:#74777f;stroke-linecap:round;stroke-linejoin:round;stroke-width:3px"/></g></g></g></svg>