<?xml version="1.0" encoding="utf-8"?>
<!-- Generator: Adobe Illustrator 22.0.0, SVG Export Plug-In . SVG Version: 6.00 Build 0)  -->
<svg version="1.1" id="Слой_1" xmlns="http://www.w3.org/2000/svg" xmlns:xlink="http://www.w3.org/1999/xlink" x="0px" y="0px"
	 viewBox="0 0 97.2 94.9" style="enable-background:new 0 0 97.2 94.9;" xml:space="preserve">
<style type="text/css">
	.st0{fill:none;stroke:#74777F;stroke-width:3;stroke-linecap:round;stroke-linejoin:round;}
</style>
<title>Tooth Paste</title>
<g id="Слой_2_1_">
	<g id="_лой_1">
		<g id="_Группа_">
			<g id="_Группа_2">
				<g id="_Группа_3">
					<polyline id="_Контур_" class="st0" points="40.1,63.7 52.5,78.6 65.9,67.4 86.6,77.6 95.7,70 					"/>
					<polyline id="_Контур_2" class="st0" points="49.9,75.4 37.5,60.6 50.9,49.5 44.5,27.2 76.2,1.5 					"/>
					<path id="_Контур_3" class="st0" d="M86.6,77.6C80.7,68.2,74.1,59.3,67,50.8c-7-8.3-14.5-16.2-22.5-23.5"/>
					<line id="_Контур_4" class="st0" x1="65.9" y1="67.4" x2="50.9" y2="49.5"/>
					<path id="_Контур_5" class="st0" d="M54,77.3l-3.7-9.5c-1.7-4.4-4.1-8.4-7.1-12l0,0"/>
					<path id="_Контур_6" class="st0" d="M60.1,72.2l-3.7-9.5c-1.7-4.4-4.1-8.4-7.1-12l0,0"/>
				</g>
			</g>
			<polyline id="_Контур_7" class="st0" points="78.8,11.5 60.1,26.6 62.8,29.7 			"/>
			<path id="_Контур_8" class="st0" d="M52.3,78.6c-1.5-0.4-3.1-0.5-4.7-0.5c-16.2,0-16.2,15.3-32.4,15.3
				c-9.3,0-15.1-8.9-13.4-8.9C18,84.5,18,69.2,34.2,69.2"/>
		</g>
	</g>
</g>
</svg>
