<?xml version="1.0" encoding="utf-8"?>
<!-- Generator: Adobe Illustrator 23.0.1, SVG Export Plug-In . SVG Version: 6.00 Build 0)  -->
<svg version="1.1" id="Слой_1" xmlns="http://www.w3.org/2000/svg" xmlns:xlink="http://www.w3.org/1999/xlink" x="0px" y="0px"
	 viewBox="0 0 80.1 96.9" style="enable-background:new 0 0 80.1 96.9;" xml:space="preserve">
<title>Tooth</title>
<g id="Слой_2_1_">
	<g id="_лой_1">
		<g id="_Группа_">
			<path id="_Контур_" style="fill:none;stroke:#74777F;stroke-width:3;stroke-linecap:round;stroke-linejoin:round;" d="
				M40.1,24.5l8.1-1.5c0.6-0.1,1.2-0.2,1.8-0.2l0,0c3.6-0.1,7.1,1.9,8.9,5c1.4,2.6,2.1,5.4,2.1,8.3l0,0c0,3.1-0.8,6.1-2.3,8.8
				l-2.3,4.2c-1.1,2-1.8,4.1-2,6.3c-0.4,5.2-2,10.2-4.6,14.7l-1.6,2.7c-0.4,0.7-1.1,1.1-2,1.1l0,0c-1.2,0-2.2-1-2.2-2.2l0,0v-4.3
				c0-2.2-0.4-4.3-1.1-6.4l-0.6-1.7c-0.3-0.9-1.2-1.6-2.3-1.6l0,0c-1,0-2,0.7-2.3,1.6L37,61.2c-0.7,1.9-1,4-1,6v4.5
				c0,1.2-1,2.2-2.2,2.2l0,0c-0.8,0-1.5-0.4-2-1.1l-1.6-2.7c-2.6-4.5-4.1-9.5-4.6-14.7c-0.2-2.2-0.9-4.4-2-6.4L21.4,45
				c-1.5-2.6-2.3-5.6-2.3-8.7l0,0c-0.1-2.9,0.7-5.8,2.1-8.3c1.8-3.2,5.3-5.1,8.9-5l0,0c0.6,0,1.2,0.1,1.8,0.2L40.1,24.5"/>
			<path id="_Контур_2" style="fill:none;stroke:#74777F;stroke-width:3;stroke-linecap:round;stroke-linejoin:round;" d="
				M38.1,29.4l-4.9-1.1c-2.2-0.5-4.5,0.2-5.9,1.9c-0.1,0.1-0.2,0.3-0.3,0.4c-0.8,1.2-1.2,2.6-1.2,4"/>
		</g>
	</g>
</g>
</svg>
