<?xml version="1.0" encoding="utf-8"?>
<!-- Generator: Adobe Illustrator 22.0.0, SVG Export Plug-In . SVG Version: 6.00 Build 0)  -->
<svg version="1.1" id="Слой_1" xmlns="http://www.w3.org/2000/svg" xmlns:xlink="http://www.w3.org/1999/xlink" x="0px" y="0px"
	 viewBox="0 0 91 117.3" style="enable-background:new 0 0 91 117.3;" xml:space="preserve">
<style type="text/css">
	.st0{fill:none;stroke:#74777F;stroke-width:3;stroke-linecap:round;stroke-linejoin:round;}
</style>
<title>Tooth Clean</title>
<g id="Слой_2_1_">
	<g id="_лой_1">
		<g id="_Группа_">
			<line id="_Контур_" class="st0" x1="54.4" y1="13.2" x2="44.2" y2="15.1"/>
			<path id="_Контур_2" class="st0" d="M44.2,15.1l-16.7-3c-1.2-0.2-2.4-0.3-3.7-0.3l0,0C16.4,11.7,9.5,15.6,5.7,22
				c-2.9,5.2-4.3,11.1-4.2,17l0,0c0,6.3,1.6,12.4,4.8,17.9l4.8,8.3c2.3,3.9,3.7,8.3,4.1,12.9c0.9,10.5,4.1,20.8,9.4,29.9l3.2,5.5
				c0.8,1.4,2.4,2.3,4,2.3l0,0c2.5,0,4.6-2,4.6-4.5l0,0v-8.7c0-4.4,0.8-8.8,2.3-13l1.3-3.4c0.7-1.9,2.5-3.2,4.6-3.2l0,0
				c2.1,0,3.9,1.3,4.6,3.3l1.3,3.7c1.3,3.9,2,8,2,12.1v9.2c0,2.5,2,4.6,4.5,4.6l0,0l0,0c1.6,0,3.1-0.9,3.9-2.3l3.2-5.5
				c5.3-9.2,8.5-19.4,9.4-29.9c0.4-4.5,1.8-8.9,4.1-12.9l4.8-8.3c3.1-5.4,4.8-11.6,4.8-17.9l0,0c0-1.7-0.1-3.3-0.3-5"/>
			<path id="_Контур_3" class="st0" d="M28.7,22.5c-4.4-1-9.1,0.4-12.1,3.9c-0.2,0.2-0.4,0.5-0.6,0.8
				c-1.7,2.4-2.5,5.3-2.5,8.2"/>
			<path id="_Контур_4" class="st0" d="M89.5,25.1c0,0-0.7,0.3-2,0.7c-1.8,0.6-3.6,1-5.4,1.4c-1.9,0.4-4.1,0.8-6.4,1
				c-3.5,0.4-6.3,3.2-6.7,6.7c-0.2,2.3-0.6,4.5-1,6.5c-0.4,1.8-0.8,3.6-1.4,5.3c-0.4,1.3-0.7,2-0.7,2s-0.3-0.7-0.7-2
				c-0.6-1.8-1-3.5-1.4-5.3c-0.4-2.2-0.8-4.4-1-6.6c-0.4-3.5-3.1-6.3-6.7-6.7c-2.4-0.3-4.9-0.6-6.4-0.9c-1.8-0.4-3.6-0.8-5.4-1.4
				c-1.3-0.4-2-0.7-2-0.7s0.8-0.3,2-0.7c1.8-0.6,3.5-1,5.3-1.4c1.9-0.4,4.1-0.8,6.5-1c3.5-0.4,6.3-3.2,6.7-6.7
				c0.3-2.4,0.6-4.5,1-6.4c0.4-1.8,0.8-3.6,1.4-5.3c0.4-1.3,0.7-2,0.7-2s0.3,0.7,0.7,2c0.6,1.8,1,3.5,1.4,5.3c0.4,1.9,0.8,4.2,1,6.6
				c0.4,3.5,3.2,6.3,6.7,6.7c2.4,0.2,4.9,0.6,6.4,0.9c1.8,0.4,3.6,0.8,5.4,1.4C88.2,24.6,88.8,24.9,89.5,25.1z"/>
		</g>
	</g>
</g>
</svg>
