<svg xmlns="http://www.w3.org/2000/svg" viewBox="0 0 103.86 116.47"><title>Ресурс 1</title><g id="Слой_2" data-name="Слой 2"><g id="Слой_1-2" data-name="Слой 1"><rect x="37.7" y="30.7" width="10.91" height="6.24" rx="1.95" stroke-width="3" stroke="#74777f" stroke-linecap="round" stroke-linejoin="round" fill="none"/><rect x="53.14" y="30.7" width="10.91" height="6.24" rx="1.95" stroke-width="3" stroke="#74777f" stroke-linecap="round" stroke-linejoin="round" fill="none"/><line x1="48.61" y1="33.39" x2="53.14" y2="33.39" fill="none" stroke="#74777f" stroke-linecap="round" stroke-linejoin="round" stroke-width="3"/><path d="M32.39,28.59c0,.87,0,2.48-.08,5.7-.11,4.59-.23,6.72,1,7.41a2.32,2.32,0,0,0,1.8.08S35.88,54,47.34,57.61a11.69,11.69,0,0,0,6.07.29c6.69-1.54,11.93-7.74,13.34-16.12a2.26,2.26,0,0,0,1.57-.27c1.24-.81,1-3,.85-6.72,0-1.45-.07-3.65,0-6.39V25" fill="none" stroke="#74777f" stroke-linecap="round" stroke-linejoin="round" stroke-width="3"/><path d="M70.81,20.13A26,26,0,0,0,67.14,1.5c-.12,2.11-1,2.55-2.21,2.79a12.4,12.4,0,0,1-5-.14C57.56,3.63,49.29,1.63,43.4,2.89,43,3,35.55,4.69,32.61,10.81c-1.5,3.12-1.38,6.45-1.3,8.69" fill="none" stroke="#74777f" stroke-linecap="round" stroke-linejoin="round" stroke-width="3"/><path d="M32.39,28.59a5.74,5.74,0,0,0,3-1.21c2.54-2.15,1.23-5.7,3.41-8.27,1.83-2.15,5-2.28,5.85-2.31,5.07-.21,6.08,4.06,13.55,7.64,4.25,2,11.29.54,11.29.54" fill="none" stroke="#74777f" stroke-linecap="round" stroke-linejoin="round" stroke-width="3"/><rect x="47.85" y="65.32" width="6.77" height="6.77" rx="1.27" transform="translate(63.6 -16.11) rotate(45)" stroke-width="3" stroke="#74777f" stroke-linecap="round" stroke-linejoin="round" fill="none"/><line x1="38.84" y1="61.56" x2="47.17" y2="68" fill="none" stroke="#74777f" stroke-linecap="round" stroke-linejoin="round" stroke-width="3"/><line x1="55.36" y1="68.06" x2="63.58" y2="61.71" fill="none" stroke="#74777f" stroke-linecap="round" stroke-linejoin="round" stroke-width="3"/><line x1="42.4" y1="86.62" x2="50.1" y2="72.36" fill="none" stroke="#74777f" stroke-linecap="round" stroke-linejoin="round" stroke-width="3"/><line x1="52.5" y1="72.25" x2="59.9" y2="86.89" fill="none" stroke="#74777f" stroke-linecap="round" stroke-linejoin="round" stroke-width="3"/><line x1="85.04" y1="68.91" x2="61.03" y2="88.06" fill="none" stroke="#74777f" stroke-linecap="round" stroke-linejoin="round" stroke-width="3"/><rect x="72.9" y="89.61" width="19.34" height="5.37" stroke-width="3" stroke="#74777f" stroke-linecap="round" stroke-linejoin="round" fill="none"/><polyline points="72.9 93.6 72.9 104.76 92.24 104.76 92.24 93.6" fill="none" stroke="#74777f" stroke-linecap="round" stroke-linejoin="round" stroke-width="3"/><line x1="17.53" y1="68.91" x2="41.53" y2="88.06" fill="none" stroke="#74777f" stroke-linecap="round" stroke-linejoin="round" stroke-width="3"/><polyline points="51.93 114.97 67.41 64.9 85.01 68.92" fill="none" stroke="#74777f" stroke-linecap="round" stroke-linejoin="round" stroke-width="3"/><path d="M85,68.92l3.24.74c.39.08.76.18,1.12.29a16,16,0,0,1,11,15.44l2,29.58H22.64L1.5,93.47l.63-8.14A16,16,0,0,1,13.11,70c.37-.11.74-.21,1.11-.29l3.3-.76,17.56-4,6.46,23.16L51.93,115" fill="none" stroke="#74777f" stroke-linecap="round" stroke-linejoin="round" stroke-width="3"/><line x1="38.69" y1="51.61" x2="38.99" y2="61.56" fill="none" stroke="#74777f" stroke-linecap="round" stroke-linejoin="round" stroke-width="3"/><line x1="63.43" y1="50.54" x2="63.73" y2="61.71" fill="none" stroke="#74777f" stroke-linecap="round" stroke-linejoin="round" stroke-width="3"/><line x1="38.84" y1="61.56" x2="35.07" y2="64.9" fill="none" stroke="#74777f" stroke-linecap="round" stroke-linejoin="round" stroke-width="3"/><line x1="63.58" y1="61.71" x2="67.41" y2="64.9" fill="none" stroke="#74777f" stroke-linecap="round" stroke-linejoin="round" stroke-width="3"/></g></g></svg>