<?xml version="1.0" encoding="utf-8"?>
<!-- Generator: Adobe Illustrator 22.0.0, SVG Export Plug-In . SVG Version: 6.00 Build 0)  -->
<svg version="1.1" id="Слой_1" xmlns="http://www.w3.org/2000/svg" xmlns:xlink="http://www.w3.org/1999/xlink" x="0px" y="0px"
	 viewBox="0 0 62.5 109.6" style="enable-background:new 0 0 62.5 109.6;" xml:space="preserve">
<style type="text/css">
	.st0{fill:none;stroke:#74777F;stroke-width:3;stroke-linecap:round;stroke-linejoin:round;}
</style>
<title>Herbal Medicine</title>
<g id="Слой_2_1_">
	<g id="_лой_1">
		<g id="_Группа_">
			<g id="_Группа_2">
				<path id="_Контур_" class="st0" d="M36.8,64.4c0,17-11.5,31.8-27.9,36"/>
				<path id="_Контур_2" class="st0" d="M37.3,63.9c5.5-0.4,10.6-3,14.1-7.2c5.5-6.8,4.1-14.9,3.9-16.3
					c-1.4,0.1-9.6,0.6-14.9,7.6c-3.3,4.4-4.6,10-3.8,15.4"/>
				<path id="_Контур_3" class="st0" d="M32.8,84.1c4.7,2.8,10.4,3.7,15.7,2.3c8.5-2.4,12-9.8,12.6-11.1
					c-1.2-0.7-8.2-5-16.6-2.4c-5.2,1.7-9.6,5.5-12,10.4"/>
				<path id="_Контур_4" class="st0" d="M16.2,99.1c3.1,4.6,7.8,7.8,13.2,8.8c8.7,1.4,15-3.7,16.1-4.6
					c-0.7-1.2-5.2-8-13.9-9.3c-5.5-0.7-11,0.9-15.3,4.3"/>
			</g>
			<g id="_Группа_3">
				<g id="_Группа_4">
					<g id="_Группа_5">
						<path id="_Контур_5" class="st0" d="M6.9,94.4C5.3,93.2,4,91.7,3,90c-1-1.5-1.5-3.3-1.5-5.1l0.2-41.6
							c0-5.5,2.2-10.8,6.2-14.7l8.1-8l17,0.1l8,8.1c1.9,1.9,3.4,4.2,4.5,6.8"/>
						<line id="_Контур_6" class="st0" x1="33" y1="11.6" x2="33" y2="20.6"/>
						<line id="_Контур_7" class="st0" x1="15.9" y1="11.6" x2="15.9" y2="20.6"/>
					</g>
				</g>
				<path id="_Прямоугольник_" class="st0" d="M15,1.5h18.3c0.9,0,1.7,0.7,1.7,1.7l0,0v8.4l0,0H13.4l0,0V3.2
					C13.3,2.3,14.1,1.5,15,1.5z"/>
			</g>
			<polyline id="_Контур_8" class="st0" points="24.2,81.1 10.3,81.1 10.3,47.9 32.5,47.9 			"/>
		</g>
	</g>
</g>
</svg>
