<?xml version="1.0" encoding="utf-8"?>
<!-- Generator: Adobe Illustrator 22.0.0, SVG Export Plug-In . SVG Version: 6.00 Build 0)  -->
<svg version="1.1" id="Слой_1" xmlns="http://www.w3.org/2000/svg" xmlns:xlink="http://www.w3.org/1999/xlink" x="0px" y="0px"
	 viewBox="0 0 64.5 118.5" style="enable-background:new 0 0 64.5 118.5;" xml:space="preserve">
<style type="text/css">
	.st0{fill:none;stroke:#74777F;stroke-width:3;stroke-linecap:round;stroke-linejoin:round;}
</style>
<title>Implant</title>
<g id="Слой_2_1_">
	<g id="_лой_1">
		<g id="_Группа_">
			<path id="_Контур_" class="st0" d="M8.1,45.2l-0.5-1.8c-1.3-4.6-3-9-4.6-13.5c-1-2.8-1.5-5.8-1.5-8.8
				c-0.1-4.3,0.9-8.5,3-12.2c2.7-4.6,7.7-7.4,13.1-7.4l0,0c0.9,0,1.8,0.1,2.6,0.2l12,2.1l12-2.1c0.9-0.2,1.8-0.2,2.7-0.2l0,0
				C52.3,1.4,57.3,4.2,60,8.9c0.9,1.7,1.7,3.4,2.2,5.3c0.6,2.3,0.9,4.6,0.9,7c0,3-0.5,6-1.5,8.8c-1.7,4.6-3.4,9.2-4.8,13.9l-0.4,1.3
				"/>
			<rect id="_Контур_2" x="8.1" y="45.2" class="st0" width="48.2" height="19.1"/>
			<g id="_Группа_2">
				<path id="_Контур_3" class="st0" d="M13.1,64.3l6.6,5V102c0,2.4,1,4.7,2.9,6.3l9.7,8.7"/>
				<path id="_Контур_4" class="st0" d="M51.3,64.3l-6.6,5V102c0,2.4-1,4.7-2.8,6.3l-9.7,8.7"/>
			</g>
			<path id="_Контур_5" class="st0" d="M19.6,69.3l12,2.5c4.3,0.9,8.4,2.6,12.1,5.1l1,0.7"/>
			<path id="_Контур_6" class="st0" d="M19.6,81.4l12,2.5c4.7,1,9.1,2.8,13.1,5.3"/>
			<path id="_Контур_7" class="st0" d="M19.6,93.3l12,2.5c2.2,0.4,4.3,1.1,6.3,1.9c2.4,0.9,4.7,2.1,6.8,3.4"/>
			<path id="_Контур_8" class="st0" d="M19.8,103.8L19.8,103.8l11.8,2.4c3.2,0.7,6.2,1.7,9.1,3.1"/>
			<polyline id="_Контур_9" class="st0" points="15.4,51.2 15.4,56.7 33.6,56.7 			"/>
			<path id="_Контур_10" class="st0" d="M33.6,12l8.7-1.9c3.8-0.9,7.9,0.4,10.5,3.3c0.2,0.2,0.4,0.4,0.5,0.7
				c1.5,2.1,2.2,4.6,2.2,7.1"/>
		</g>
	</g>
</g>
</svg>
