<?xml version="1.0" encoding="utf-8"?>
<!-- Generator: Adobe Illustrator 22.0.0, SVG Export Plug-In . SVG Version: 6.00 Build 0)  -->
<svg version="1.1" id="Слой_1" xmlns="http://www.w3.org/2000/svg" xmlns:xlink="http://www.w3.org/1999/xlink" x="0px" y="0px"
	 viewBox="0 0 96.2 90.2" style="enable-background:new 0 0 96.2 90.2;" xml:space="preserve">
<style type="text/css">
	.st0{fill:none;stroke:#74777F;stroke-width:3;stroke-linecap:round;stroke-linejoin:round;}
</style>
<title>Tartar</title>
<g id="Слой_2_1_">
	<g id="_лой_1">
		<g id="_Группа_">
			<g id="_Группа_2">
				<path id="_Контур_" class="st0" d="M47.3,5.2c4.7,0.1,5.2-2.3,14.5-3.4c1-0.2,2.1-0.2,3.1-0.3c5.5,0,11.4,2.7,14.3,7.6
					c3.8,6.4,0.4,14.1-2.3,20.3c-2.1,4.8-4.5,9.5-6.5,14.3c-1.8,4.2-4,8.8-4.7,13.4c-1.6,11-3.4,24.3-3.8,28.1
					c-0.1,1-0.7,1.9-1.5,2.4c-1.8,1-4.1,0.4-5.2-1.4c-0.3-0.6-0.5-1.2-0.5-1.9c-1.2-9.9-2.5-19.9-3.7-29.8c-0.1-1.3-1-2.4-2.2-2.8
					c-1.4-0.4-2.9,0.1-3.8,1.3c-0.3,0.5-0.5,1-0.6,1.6l-3.1,29.8c0,2.1-1.7,3.8-3.8,3.8c-0.5,0-1-0.1-1.5-0.3
					c-1.1-0.5-1.8-1.5-1.9-2.7c-0.4-3.8-1.7-16.1-3.1-26.6c-1-7.5-5.2-14.9-8.2-21.8c-3.7-8.5-12.1-19-5.9-28.3
					c2.5-3.7,8.4-6.7,14.1-6.8c1,0,2,0.1,3,0.3C42.4,2.8,42.8,5.1,47.3,5.2z"/>
			</g>
			<path id="_Контур_2" class="st0" d="M33.5,45.5l1.5-1.2c1.2-1,3-1.3,4.4-0.6l0.2,0.1c1.4,0.6,3,0.1,3.9-1.1l2.7-4.3
				c0.7-1.2,2.3-1.5,3.4-0.8c0.3,0.2,0.6,0.5,0.8,0.8l2.7,4.1c0.7,1.4,2.4,2,3.8,1.5l0.8-0.3c1.2-0.4,2.5-0.3,3.6,0.4l1.7,1"/>
			<path id="_Контур_3" class="st0" d="M23.6,59.8c-0.3-3.3-1.9-6.3-4.5-8.4c-2.4-1.9-5.4-2.7-8.4-2.3
				c-1.5,0.2-2.9,0.8-4.2,1.6c-3.2,2.1-5,5.7-4.9,9.5v28.5"/>
			<path id="_Контур_4" class="st0" d="M72.7,59.8c0.3-3.3,1.9-6.3,4.5-8.4c2.4-1.9,5.4-2.7,8.4-2.3c1.5,0.2,2.9,0.8,4.2,1.6
				c3.2,2.1,5,5.7,4.9,9.5v28.5"/>
		</g>
	</g>
</g>
</svg>
