<?xml version="1.0" encoding="utf-8"?>
<!-- Generator: Adobe Illustrator 22.0.0, SVG Export Plug-In . SVG Version: 6.00 Build 0)  -->
<svg version="1.1" id="Слой_1" xmlns="http://www.w3.org/2000/svg" xmlns:xlink="http://www.w3.org/1999/xlink" x="0px" y="0px"
	 viewBox="0 0 83.8 98.5" style="enable-background:new 0 0 83.8 98.5;" xml:space="preserve">
<style type="text/css">
	.st0{fill:none;stroke:#74777F;stroke-width:3;stroke-linecap:round;stroke-linejoin:round;}
</style>
<title>Tooth Dimond</title>
<g id="Слой_2_1_">
	<g id="_лой_1">
		<g id="_Группа_">
			<path id="_Контур_" class="st0" d="M36.1,96.2c-6.3,0.1-12.2,0.4-16.2,0.7c-6.4,0.3-12.4-3.5-14.8-9.5
				c-2.2-5-3.8-12.6-3.6-24c0-1.6,0.2-36,20-54.3c5.5-5,12.6-7.7,20-7.6h0.8c7.4-0.1,14.5,2.6,20,7.6c19.8,18.3,20,52.8,20,54.3
				c0.3,10.3-0.8,17.5-2.5,22.5C77.3,93,70.9,97.4,64.2,97c-4.5-0.3-11.3-0.6-16.5-0.8H36.1z"/>
			<g id="_Группа_2">
				<polygon id="_Контур_2" class="st0" points="41.4,83.8 31.4,66.5 41.4,49.2 61.3,49.2 71.2,66.5 61.3,83.8 				"/>
				<polygon id="_Контур_3" class="st0" points="47.9,72.4 44.5,66.5 47.9,60.6 54.7,60.6 58.1,66.5 54.7,72.4 				"/>
				<line id="_Контур_4" class="st0" x1="47.9" y1="60.6" x2="41.4" y2="49.2"/>
				<line id="_Контур_5" class="st0" x1="54.7" y1="60.6" x2="61.3" y2="49.2"/>
				<line id="_Контур_6" class="st0" x1="58.1" y1="66.5" x2="71.2" y2="66.5"/>
				<line id="_Контур_7" class="st0" x1="54.7" y1="72.4" x2="61.3" y2="83.8"/>
				<line id="_Контур_8" class="st0" x1="47.9" y1="72.4" x2="41.4" y2="83.8"/>
				<line id="_Контур_9" class="st0" x1="44.5" y1="66.5" x2="31.4" y2="66.5"/>
			</g>
		</g>
	</g>
</g>
</svg>
