<?xml version="1.0" encoding="utf-8"?>
<!-- Generator: Adobe Illustrator 22.0.0, SVG Export Plug-In . SVG Version: 6.00 Build 0)  -->
<svg version="1.1" id="Слой_1" xmlns="http://www.w3.org/2000/svg" xmlns:xlink="http://www.w3.org/1999/xlink" x="0px" y="0px"
	 viewBox="0 0 89.4 97.2" style="enable-background:new 0 0 89.4 97.2;" xml:space="preserve">
<style type="text/css">
	.st0{fill:none;stroke:#74777F;stroke-width:3;stroke-linecap:round;stroke-linejoin:round;}
</style>
<title>Tooth Pain</title>
<g id="Слой_2_1_">
	<g id="_лой_1">
		<g id="_Группа_">
			<g id="_Группа_2">
				<g id="_Группа_3">
					<path id="_Контур_" class="st0" d="M32.5,31.8l6.1-1c0.5-0.1,0.9-0.1,1.4-0.1l0,0c2.6-0.1,5.1,1.3,6.6,3.5
						c1,1.7,1.6,3.7,1.5,5.8l0,0c0,2.1-0.6,4.2-1.8,6.1l-1.7,2.8c-0.8,1.3-1.3,2.8-1.5,4.4c-0.3,3.6-1.5,7.1-3.4,10.2l-1.2,1.9
						c-0.3,0.5-0.9,0.8-1.4,0.8l0,0c-0.9,0-1.6-0.7-1.6-1.5l0,0v-3c0-1.5-0.3-3-0.8-4.4l-0.5-1.2c-0.3-0.7-0.9-1.1-1.7-1.1l0,0
						c-0.8,0-1.4,0.5-1.7,1.2l-0.5,1.2c-0.5,1.3-0.7,2.7-0.7,4.1v3.1c0,0.9-0.8,1.5-1.6,1.5l0,0c-0.6,0-1.1-0.3-1.4-0.8l-1.1-1.9
						c-1.9-3.1-3.1-6.5-3.4-10.2c-0.1-1.6-0.7-3-1.5-4.4L18.8,46c-1.1-1.8-1.8-3.9-1.8-6.1l0,0c0-2,0.5-4,1.5-5.8
						c1.5-2.2,3.9-3.5,6.6-3.5l0,0c0.4,0,0.9,0,1.3,0.1L32.5,31.8"/>
				</g>
			</g>
			<path id="_Контур_2" class="st0" d="M44.4,95.7V84.4c0-5.5,4.4-9.9,9.8-10c6.5-0.1,15.1-0.4,20.5-0.6
				c2.9-0.1,5.1-2.5,5-5.4c0-0.1,0-0.3,0-0.4c-0.2-1.7-0.6-3.4-1.3-5c-0.4-0.9-0.7-1.8-0.7-2.8c0-1.6,0.9-3,2.3-3.7l0,0
				c0.5-0.3,0.8-0.8,0.9-1.3c0.2-1.6-0.6-3.1-2-3.8l-8.2-4.1c0,0,11.6-4.7,11-6s-2.4-5.9-2.4-5.9c0-0.5,3.5-2.4,3.5-2.4
				c4.2-2.5,5.2-4.9,5.2-6.7c0-0.2,0-0.4-0.1-0.6c-0.2-1.3-1-2.4-2.2-3c-1.5-0.8-3.6-2-5.8-3.5c-4.8-3.2-7.2-4.9-9-7.6
				c-1.8-3-2.6-6.4-2.4-9.9"/>
			<path id="_Контур_3" class="st0" d="M9.4,42c0.2,2,0.7,4,1.6,5.8c0.8,1.7,1.8,3.2,3.1,4.6"/>
			<path id="_Контур_4" class="st0" d="M2.1,39C1,42.4,1.4,46.9,3.4,51.3s5.3,7.6,8.6,9"/>
			<path id="_Контур_5" class="st0" d="M55.2,42c-0.1,2-0.6,4-1.5,5.8c-0.8,1.7-1.8,3.2-3.1,4.6"/>
			<path id="_Контур_6" class="st0" d="M62.5,39c1.1,3.4,0.8,8-1.2,12.3s-5.3,7.6-8.6,9"/>
		</g>
	</g>
</g>
</svg>
