<?xml version="1.0" encoding="utf-8"?>
<!-- Generator: Adobe Illustrator 22.0.0, SVG Export Plug-In . SVG Version: 6.00 Build 0)  -->
<svg version="1.1" id="Слой_1" xmlns="http://www.w3.org/2000/svg" xmlns:xlink="http://www.w3.org/1999/xlink" x="0px" y="0px"
	 viewBox="0 0 90 97.4" style="enable-background:new 0 0 90 97.4;" xml:space="preserve">
<style type="text/css">
	.st0{fill:none;stroke:#74777F;stroke-width:3;stroke-linecap:round;stroke-linejoin:round;}
</style>
<title>Tooth Card</title>
<g id="Слой_2_1_">
	<g id="_лой_1">
		<g id="_Группа_">
			<g id="_Группа_2">
				<path id="_Контур_" class="st0" d="M56.4,3.2l9.1-1.5c0.7-0.1,1.3-0.2,2-0.2l0,0c4-0.1,7.7,1.9,9.9,5.2
					c1.6,2.6,2.3,5.6,2.3,8.6l0,0c0,3.2-0.9,6.4-2.6,9.1l-2.6,4.2c-1.2,2-2,4.2-2.2,6.6c-0.5,5.4-2.3,10.6-5.1,15.2l-1.7,2.8
					c-0.5,0.7-1.3,1.2-2.1,1.2l0,0c-1.3,0-2.4-1-2.5-2.3v-4.4c0-2.3-0.4-4.5-1.3-6.6l-0.7-1.7c-0.4-1-1.4-1.6-2.5-1.6l0,0
					c-1.1,0-2.1,0.6-2.5,1.7l-0.7,1.9c-0.7,2-1.1,4.1-1.1,6.2v4.7c0,1.3-1.2,2.3-2.5,2.3l0,0c-0.9,0-1.7-0.4-2.2-1.2l-1.7-2.8
					c-2.9-4.6-4.6-9.8-5.1-15.2c-0.2-2.3-1-4.6-2.2-6.5l-2.6-4.2c-1.7-2.7-2.6-5.9-2.6-9.1l0,0c-0.1-3,0.8-6,2.3-8.6
					c2.2-3.3,5.9-5.3,9.9-5.2l0,0c0.7,0,1.3,0.1,2,0.2L56.4,3.2"/>
			</g>
			<path id="_Контур_2" class="st0" d="M39.2,72.1h41.9v12.2H33.8c-4.3,0-7.7-3.5-7.7-7.7c0-1.3,0.3-2.6,0.9-3.7L33.6,61
				L22.2,28l-4.7-13.7H4.3c-1.5,0-2.8,1.2-2.8,2.8l0,0V23h9.7"/>
			<polyline id="_Контур_3" class="st0" points="61.7,28 51.5,28 31.8,28 22.2,28 			"/>
			<polyline id="_Контур_4" class="st0" points="33.6,61 81.6,61 88.5,28 82.5,28 			"/>
			<path id="_Контур_5" class="st0" d="M49.6,90.4c0,3-2.5,5.5-5.5,5.5s-5.5-2.5-5.5-5.5"/>
			<path id="_Контур_6" class="st0" d="M73,90.4c0,3-2.5,5.5-5.5,5.5S62,93.4,62,90.4"/>
		</g>
	</g>
</g>
</svg>
