<svg xmlns="http://www.w3.org/2000/svg" viewBox="0 0 36.3 179.9"><title>11tooth</title><g class="Слой_2" data-name="Слой 2"><g class="Слой_1-2" data-name="Слой 1"><g class="_11" data-name="11"><path class="background" d="M0,0H35.9V179.9H0Z" style="fill:#9fdaff"/><path class="bone" d="M0,0H35.9V77H0Z" style="fill:#de82a7"/><path class="bridge" d="M0,151.7v-4l35.9-.1v4Zm35.9-26.1v-4H0v4Zm0-27v-4H0v4Z" style="fill:#3535ed"/><path class="root" d="M6.8,72.1a355.25,355.25,0,0,0,4.8-50.5c.7-5.8,2.5-7.1,6-1.7,3,2.4,3.9,8.2,4.1,15.2,0,.6.1,1.1.1,1.7l5.7,38.1" style="fill:#f8edc8;stroke:#292320;stroke-miterlimit:10;stroke-width:0.25px"/><path class="rootCanal" d="M19.6,64l-3.7-.9h-.3c-3.8,1-5.9-.5-2.1-5,2.1,0,.7-28.7.3-40.5a.91.91,0,0,1,1.8-.2c3,11.8,4.1,38.9,4.4,40.3l.5,5.6A.7.7,0,0,1,19.6,64Z" style="fill:#3535ed;stroke:#201600;stroke-miterlimit:10;stroke-width:0.25px"/><path class="implant" d="M24.6,38.6a1.9,1.9,0,0,0-1-1.6,15.23,15.23,0,0,0-12.2,0,1.39,1.39,0,0,0-.7.8l14,2.2Zm.1,3L10.4,39.3l-.1,2.5,14.4,2.3Zm.1,3.9L10.3,43.2l-.1,2.5L24.9,48Zm.1,4.1L10.1,47.3v2.4L25,52Zm.2,4-15-2.3L10,53.8l15.2,2.4Zm.1,4.1L9.9,55.3l-.1,2.5,15.4,2.4Zm.1,5.1L9.6,60.4l-.1,2.5,15.8,2.4V62.8Zm.2,2.8L9.6,63.1l-.1,2.6h16ZM27,68.7a1.07,1.07,0,0,0-.2-.6.91.91,0,0,0-.7-.3H9a.91.91,0,0,0-.7.3,1.07,1.07,0,0,0-.2.6v1.9h19Zm.4,4.8a.94.94,0,0,0-1-1H8.3c-.2,0-.3.1-.4.1a1,1,0,0,0-.4.9v1.2a.94.94,0,0,0,1,1H26.6a1.08,1.08,0,0,0,1-1h0Z" style="fill:#3535ed"/><path class="rootMusk" d="M6.8,72.1a355.25,355.25,0,0,0,4.8-50.5c.7-5.8,2.5-7.1,6-1.7,3,2.4,3.9,8.2,4.1,15.2,0,.6.1,1.1.1,1.7l5.7,38.1" style="fill:#f8edc8;stroke:#292320;stroke-miterlimit:10;stroke-width:0.25px"/><path class="coronaLingual" d="M14.4,174.3a97.38,97.38,0,0,1-9.8-22.7c-.8-4.3-.3-8.2,2.5-8.8,6.9-1.1,13.8-.9,20.6-.9,3.6.2,5.7,1.8,5,6.2a109.54,109.54,0,0,1-6.5,23.2,10.57,10.57,0,0,1-3.3,4.5c-2.4,2-4.6,2-6.6.7A13,13,0,0,1,14.4,174.3Z" style="fill:#fff;stroke:#000;stroke-miterlimit:10;stroke-width:0.25px"/><path class="coronaLingualIncisalDistal" d="M7.1,142.7a50.75,50.75,0,0,1,6.7-.7v6.5H4.3C4.2,145.5,5,143.1,7.1,142.7Z" style="fill:#3535ed"/><path class="coronaLingualIncisalMiddle" d="M13.8,141.9c3.5-.2,6.9-.2,10.3-.2v6.7H13.8Z" style="fill:#3535ed"/><path class="coronaLingualIncisionMesial" d="M24,141.7h3.6c3.6.2,5.7,1.8,5,6.2l-.1.5H24Z" style="fill:#3535ed"/><path class="coronaLingualMiddleDistal" d="M13.8,148.4v12.3h-6c-1.2-3-2.2-6.1-3.2-9.3a29.09,29.09,0,0,1-.4-3.1l9.6.1Z" style="fill:#3535ed"/><path class="coronaLingualMiddleMiddle" d="M13.8,148.4H24.1v12.3H13.8Z" style="fill:#3535ed"/><path class="coronaLingualMiddleMesial" d="M32.7,148.4a100.06,100.06,0,0,1-2.9,12.3H24.1V148.4Z" style="fill:#3535ed"/><path class="coronaLingualCervicalDistal" d="M7.8,160.7h6v12.4A88.68,88.68,0,0,1,7.8,160.7Z" style="fill:#3535ed"/><path class="coronaLingualCervicalMiddle" d="M24.1,160.5v13.8l-1.2,1.2c-2.4,2-4.6,2-6.6.7a8,8,0,0,1-2-2.1l-.6-1V160.7H24.1Z" style="fill:#3535ed"/><path class="coronaLingualCervicalMesial" d="M29.8,160.7a98.38,98.38,0,0,1-3.6,10.4,10.32,10.32,0,0,1-2.1,3.3V160.6l5.7.1Z" style="fill:#3535ed"/><path class="coronaLabial" d="M16,104.2a31.82,31.82,0,0,1-8.3-.9c-2.8-1-4.8-4-5.6-8.2a20.14,20.14,0,0,1,1-10.6A79.56,79.56,0,0,0,6.6,71.9c1.7-5.4,5.3-8.7,9.7-8.7s8.4,3.2,10.6,8.7a131.52,131.52,0,0,0,5.8,20.4c1.1,4.7.2,8.2-2.6,10.4a3.92,3.92,0,0,1-2.6.9c-1.1.1-2.2.1-3.2.2A80.69,80.69,0,0,1,16,104.2Zm.4-40.8c4,0,8.1,2.9,10.5,8.6a140.16,140.16,0,0,0,5.8,20.4c1.1,4.7.2,8.1-2.6,10.3a3.84,3.84,0,0,1-2.5.9c-4.1.2-8,.5-11.6.5a29.87,29.87,0,0,1-8.2-.9c-2.7-1-4.7-3.9-5.5-8.1a19.86,19.86,0,0,1,1-10.5A78.44,78.44,0,0,0,6.8,72c1.8-5.8,5.6-8.6,9.6-8.6m0-.3h0c-4.4,0-8.1,3.3-9.8,8.8A79.56,79.56,0,0,1,3.1,84.5a20,20,0,0,0-1,10.6c.8,4.2,2.9,7.3,5.7,8.3a31.3,31.3,0,0,0,8.3.9c2.6,0,5.4-.2,8.4-.3,1.1-.1,2.1-.1,3.2-.2h0a3.54,3.54,0,0,0,2.6-1q4.35-3.45,2.7-10.5a134.72,134.72,0,0,1-5.8-20.4h0c-2.4-5.5-6.4-8.8-10.8-8.8Z" style="fill:none"/><path class="coronaLabialIncisalDistal" d="M11.2,91.8v12.1a20.54,20.54,0,0,1-3.4-.7c-2.7-1-4.7-3.9-5.5-8.1A18.41,18.41,0,0,1,2,91.8Z" style="fill:#3535ed"/><path class="coronaLabialIncisalMiddle" d="M24.5,91.8v12a73.85,73.85,0,0,1-13.3,0v-12Z" style="fill:#3535ed"/><path class="coronaLabialIncisionMesial" d="M32.5,91.8c.1.2.1.4.2.6,1.1,4.7.2,8.1-2.6,10.3a3.84,3.84,0,0,1-2.5.9l-3.1.2v-12Z" style="fill:#3535ed"/><path class="coronaLabialMiddleDistal" d="M3.3,84.7c.4-1.2.8-2.3,1.2-3.5h6.7V91.9H2A19.54,19.54,0,0,1,3.3,84.7Z" style="fill:#3535ed"/><path class="coronaLabialMiddleMiddle" d="M11.2,80.7H24.5V91.9H11.2Z" style="fill:#3535ed"/><path class="coronaLabialMiddleMesial" d="M24.5,81.2h4.6c1,3.6,2.1,7.2,3.4,10.7h-8Z" style="fill:#3535ed"/><path class="coronaLabialCervicalDistal" d="M6.8,72.1a13,13,0,0,1,4.3-6.7V81.2H4.5A71.3,71.3,0,0,0,6.8,72.1Z" style="fill:#3535ed"/><path class="coronaLabialCervicalMiddle" d="M11.1,65.4c4.1-3.2,9.5-2.3,13.3,2.5V81.1H11.1Z" style="fill:#3535ed"/><path class="coronaLabialCervicalMesial" d="M24.3,68a17.55,17.55,0,0,1,2.4,4.2,84.48,84.48,0,0,0,2.2,9H24.3Z" style="fill:#3535ed"/><path class="veneer" d="M3.6,92.5l1.9,1.6c2.8,2.4,2.9,2.9,1.7,6.5L6.3,103l1.5-2c2.2-3.1,2.7-3.2,6-1.9l2.2.9-1.9-1.6c-2.8-2.4-3-2.9-1.7-6.5l.9-2.4-1.5,2.1c-2.2,3.1-2.7,3.2-6,1.9ZM6.4,78.6l1.9,1.6c1.7,1.5,1.8,1.7,1.1,4l-.9,2.4L10,84.5c1.3-1.9,1.6-2,3.7-1.1l2.2.9L14,82.7c-1.7-1.5-1.8-1.7-1-3.9l.9-2.4-1.5,2.1c-1.3,1.9-1.6,2-3.7,1.1ZM34,94.5l-1.9-1.6c-1.7-1.5-1.8-1.7-1-4l.9-2.4-1.5,2.1c-1.3,1.9-1.6,2-3.7,1.1l-2.3-.9,1.9,1.6c1.7,1.5,1.8,1.7,1,3.9l-.9,2.4L28,94.6c1.3-1.9,1.6-2,3.7-1.1l2.3,1Z" style="fill:#3535ed"/><path class="coronaTop" d="M14.2,119.2,9,113.5a13.56,13.56,0,0,1,19.1.8l-5.7,5.2A5.83,5.83,0,0,0,14.2,119.2Zm8.2.3,5.7-5.2a13.56,13.56,0,0,1-.8,19.1l-5.2-5.7a5.83,5.83,0,0,0,.3-8.2Zm-.4,8.2,5.2,5.7a13.56,13.56,0,0,1-19.1-.8h0l5.7-5.2A5.92,5.92,0,0,0,22,127.7Zm-7.8-8.5a5.83,5.83,0,0,0-.4,8.2l-5.7,5.2a13.56,13.56,0,0,1,.8-19.1Zm1.3-.7a5.78,5.78,0,1,1-2.1,7.9A5.74,5.74,0,0,1,15.5,118.5Z" style="fill:#fff;stroke:#000;stroke-miterlimit:10"/><path class="coronaTopBuccal" d="M14.2,119.2,9,113.5a13.56,13.56,0,0,1,19.1.8l-5.7,5.2A5.83,5.83,0,0,0,14.2,119.2Z" style="fill:#3535ed"/><path class="coronaTopMedial" d="M22.4,119.5l5.7-5.2a13.56,13.56,0,0,1-.8,19.1l-5.2-5.7a5.83,5.83,0,0,0,.3-8.2Z" style="fill:#3535ed"/><path class="coronaTopLingual" d="M22,127.7l5.2,5.7a13.56,13.56,0,0,1-19.1-.8h0l5.7-5.2A5.92,5.92,0,0,0,22,127.7Z" style="fill:#3535ed"/><path class="coronaTopDistal" d="M14.2,119.2a5.83,5.83,0,0,0-.4,8.2l-5.7,5.2a13.56,13.56,0,0,1,.8-19.1Z" style="fill:#3535ed"/><path class="coronaTopOclusial" d="M15.6,118.7a5.78,5.78,0,1,1-2.1,7.9A5.74,5.74,0,0,1,15.6,118.7Z" style="fill:#3535ed"/><path class="silant" d="M10.1,131.5a19,19,0,0,0,6.9,1.2c5.8,0,9.2-2.2,9.2-5.4,0-2.7-2.2-4.2-6.4-5.4-3.2-.9-4.7-1.6-4.7-3.1,0-1.3,1.5-2.5,4.1-2.5a13.11,13.11,0,0,1,5,1l1.1-2.4a15.66,15.66,0,0,0-6-1.1c-5.3,0-8.4,2.4-8.4,5.3,0,2.2,2.1,4,6.5,5.1,3.3.9,4.5,1.8,4.5,3.3s-1.5,2.7-4.8,2.7a16.09,16.09,0,0,1-5.9-1.3Z" style="fill:#3535ed"/><path class="crown" d="M14.4,174.3a97.38,97.38,0,0,1-9.8-22.7c-.8-4.3-.3-8.2,2.5-8.8,6.9-1.1,13.8-.9,20.6-.9,3.6.2,5.7,1.8,5,6.2a109.54,109.54,0,0,1-6.5,23.2,10.57,10.57,0,0,1-3.3,4.5c-2.4,2-4.6,2-6.6.7A13,13,0,0,1,14.4,174.3ZM26.9,72C22.1,60.6,10.4,60.5,6.8,72A78.44,78.44,0,0,1,3.3,84.6a19.86,19.86,0,0,0-1,10.5c.8,4.2,2.8,7.1,5.5,8.1,5.2,1.5,12.1.8,19.8.4a3.84,3.84,0,0,0,2.5-.9c2.8-2.2,3.7-5.6,2.6-10.3A140.16,140.16,0,0,1,26.9,72Zm-4.5,47.5,5.7-5.2A13.56,13.56,0,0,0,9,113.5l5.2,5.7A5.83,5.83,0,0,1,22.4,119.5Zm0,0a5.83,5.83,0,0,1-.3,8.2l5.2,5.7a13.56,13.56,0,0,0,.8-19.1l-5.7,5.2Zm-8.6,7.9-5.7,5.2h0a13.56,13.56,0,0,0,19.1.8L22,127.7A5.92,5.92,0,0,1,13.8,127.4ZM8.9,113.5a13.56,13.56,0,0,0-.8,19.1l5.7-5.2a5.83,5.83,0,0,1,.4-8.2Zm4.5,12.9a5.78,5.78,0,1,0,2.1-7.9A5.74,5.74,0,0,0,13.4,126.4Z" style="fill:#fff;stroke:#201600;stroke-miterlimit:10;stroke-width:0.25px"/><path class="braces" d="M16.3,88.4a2,2,0,0,0,1.1.2h1.2a3.55,3.55,0,0,0,1-.2h0v2.7a3.55,3.55,0,0,0-1-.2H17.4a4.25,4.25,0,0,0-1.1.2V88.4h0m4.6-3.9H19.8c-.4.1-.7.4-.6.8v.5c0,.4-.3.8-.6.8H17.5a.64.64,0,0,1-.6-.8v-.5a.76.76,0,0,0-.6-.8H15.2a.64.64,0,0,0-.6.8v3.8H.3v1.3H14.6v3.8c0,.4.3.8.6.8h1.1c.4-.1.7-.4.6-.8v-.6c0-.4.3-.8.6-.8h1.2a.64.64,0,0,1,.6.8v.5a.76.76,0,0,0,.6.8H21a.77.77,0,0,0,.7-.8V90.3H36V89H21.7V85.2a1.14,1.14,0,0,0-.8-.7Z"/><path class="gum" d="M35.9,77H28.5S25.3,62.9,16.3,62.9,5.5,76.5,5.5,76.5H0" style="fill:none;stroke:#ffb900;stroke-linejoin:round;stroke-width:3px"/><path class="paradontit1" d="M35.9,77H32a4.39,4.39,0,0,1-4.3-3.3C26.2,68.5,24,59,17.4,59,11,59,7,67.7,6,72.9a4.41,4.41,0,0,1-4.4,3.6H0" style="fill:none;stroke:#ff822e;stroke-linejoin:round;stroke-width:3px"/><path class="paradontit2" d="M35.9,77H34.4a4.54,4.54,0,0,1-4.3-3.1c-2-6.3-6-18.9-12.9-18.9S5.3,67.1,3.7,73.5a3.74,3.74,0,0,1-3.7,3" style="fill:none;stroke:#f9610d;stroke-linejoin:round;stroke-width:3px"/><path class="paradontit3" d="M35.9,77H34.4a4.54,4.54,0,0,1-4.3-3.1c-2-6.3-6-24.2-12.9-24.2S5.3,67.1,3.7,73.5a3.67,3.67,0,0,1-3.7,3" style="fill:none;stroke:#f9610d;stroke-linejoin:round;stroke-width:3px"/><path class="paradontit4" d="M35.9,77H34.8a4.42,4.42,0,0,1-4.4-3.7c-1.6-8.8.2-27.9-12.8-28.9S5.2,64.5,3.6,73.3A3.66,3.66,0,0,1,0,76.5" style="fill:none;stroke:#f75403;stroke-linejoin:round;stroke-width:3px"/><path class="periodontit" d="M13.5,8.9A4.5,4.5,0,1,1,9,13.4,4.48,4.48,0,0,1,13.5,8.9Z" style="fill:#3535ed"/></g></g></g></svg>