<svg xmlns="http://www.w3.org/2000/svg" viewBox="0 0 28.6 180"><title>12tooth</title><g class="Слой_2" data-name="Слой 2"><g class="Слой_1-2" data-name="Слой 1"><g class="_12" data-name="12"><path class="background" d="M0,0H28.5V180H0V0Z" style="fill:#9fdaff"/><path class="bone" d="M0,0H28.5V77.1H0V0Z" style="fill:#de82a7"/><path class="bridge" d="M0,151.7v-4l28.5-.1v4Zm28.5-26.1v-4L0,121.7v4Zm0-27v-4L0,94.7v4Z" style="fill:#3535ed"/><path class="root" d="M5.4,76c.7-21.7-1.8-39.7,3-51.4a6.13,6.13,0,0,1,1.5-2.3c1.4-1.3,2.3-1,3,.6a7.91,7.91,0,0,1,.3,4.3c-2.6,13,3.1,29.6,5,47.2" style="fill:#f8edc8;stroke:#292320;stroke-miterlimit:10;stroke-width:0.25px"/><path class="rootCanal" d="M8.2,73.2c2.2-.2,3.5-.3,3.5-.3,5.3,1.6,9.8,1.5,4.7-4.9-9.1-11.9-3.7-46.1-4.8-46.6C8.4,20.1,7.3,63.6,8.2,66.3L7,71.7A1.11,1.11,0,0,0,8.2,73.2Z" style="fill:#3535ed;stroke:#201600;stroke-miterlimit:10;stroke-width:0.25px"/><path class="implant" d="M21.1,38.6a1.9,1.9,0,0,0-1-1.6A15.23,15.23,0,0,0,7.9,37a1.39,1.39,0,0,0-.7.8l14,2.2Zm.1,2.9L6.9,39.2l-.1,2.5L21.2,44Zm.1,4L6.8,43.2l-.1,2.5L21.4,48Zm.1,4.1L6.6,47.3v2.4L21.5,52Zm.2,3.9-15-2.3-.1,2.5,15.2,2.4Zm.1,4.1L6.4,55.2l-.1,2.5,15.6,2.4Zm.1,5.1L6.1,60.3,6,62.7l15.8,2.4Zm.2,3L6.1,63.2,6,65.8H22Zm1.5,2.9a1.85,1.85,0,0,0-.2-.7.91.91,0,0,0-.7-.3H5.5a.91.91,0,0,0-.7.3,1.17,1.17,0,0,0-.2.7v1.9H23.5Zm.5,4.9a1.19,1.19,0,0,0-.5-.9.6.6,0,0,0-.4-.1H5c-.2,0-.3.1-.4.1a1,1,0,0,0-.4.9v1.2a.94.94,0,0,0,1,1H23.3a1.08,1.08,0,0,0,1-1Z" style="fill:#3535ed"/><path class="rootMusk" d="M5.4,76c.7-21.7-1.8-39.7,3-51.4a6.13,6.13,0,0,1,1.5-2.3c1.4-1.3,2.3-1,3,.6a7.91,7.91,0,0,1,.3,4.3c-2.6,13,3.1,29.6,5,47.2" style="fill:#f8edc8;stroke:#292320;stroke-miterlimit:10;stroke-width:0.25px"/><path class="coronaLingual" d="M12.4,173.2a3.47,3.47,0,0,0,4.4-.1,7.11,7.11,0,0,0,2.3-2.6c3.7-6.9,6.3-23.6,6.3-23.6v-.1a8.08,8.08,0,0,0,0-3.1,2.76,2.76,0,0,0-1.2-1.9,5,5,0,0,0-2.7-.4L9.4,142.5a5,5,0,0,0-4,3.5,7.61,7.61,0,0,0-.3,2.1c1.6,8.1,3.4,16.7,5.9,22.8A3.64,3.64,0,0,0,12.4,173.2Z" style="fill:#fff;stroke:#000;stroke-miterlimit:10;stroke-width:0.5px"/><path class="coronaLingualIncisalDistal" d="M5.7,151.7h5.9v-9.4l-2.2.2a5,5,0,0,0-4,3.5,7.61,7.61,0,0,0-.3,2.1Z" style="fill:#3535ed"/><path class="coronaLingualIncisalMiddle" d="M18.8,151.7v-10l-7.3.6v9.4Z" style="fill:#3535ed"/><path class="coronaLingualIncisionMesial" d="M24.4,151.7c.5-2.8.9-4.8.9-4.8v-.1a8.08,8.08,0,0,0,0-3.1,2.76,2.76,0,0,0-1.2-1.9,5,5,0,0,0-2.7-.4l-2.6.2v10Z" style="fill:#3535ed"/><path class="coronaLingualMiddleDistal" d="M8.9,165.4h2.6V151.6H5.6C6.6,156.5,7.7,161.2,8.9,165.4Z" style="fill:#3535ed"/><path class="coronaLingualMiddleMiddle" d="M11.5,151.7h7.2v13.8H11.5Z" style="fill:#3535ed"/><path class="coronaLingualMiddleMesial" d="M21.1,165.4a126.35,126.35,0,0,0,3.4-13.8H18.7v13.8Z" style="fill:#3535ed"/><path class="coronaLingualCervicalDistal" d="M10.8,171a7.46,7.46,0,0,0,.7,1.2v-6.8H8.9C9.5,167.4,10.1,169.3,10.8,171Z" style="fill:#3535ed"/><path class="coronaLingualCervicalMiddle" d="M12.4,173.1a3.47,3.47,0,0,0,4.4-.1,6.06,6.06,0,0,0,1.9-2v-5.5H11.5v6.8A6.47,6.47,0,0,0,12.4,173.1Z" style="fill:#3535ed"/><path class="coronaLingualCervicalMesial" d="M19.1,170.4a30.68,30.68,0,0,0,2-5H18.7V171A2.09,2.09,0,0,0,19.1,170.4Z" style="fill:#3535ed"/><path class="coronaLabial" d="M17.9,72.8c-3.3-3.3-6.4-3.8-9.1-1a9.54,9.54,0,0,0-2.7,6.4,106.94,106.94,0,0,1-1,12.7,11.08,11.08,0,0,0-.2,1.9l-.1,2.9A12.53,12.53,0,0,0,6,101.1a2.42,2.42,0,0,0,1.8,1.3,51.59,51.59,0,0,0,13.6.7c2.3-1,3-2.7,2.9-5.1L20.7,78.1A10.15,10.15,0,0,0,17.9,72.8Z" style="fill:#fff;stroke:#000;stroke-miterlimit:10;stroke-width:0.5px"/><path class="coronaLabialIncisalDistal" d="M9.3,97.9v4.7l-1.5-.2A3,3,0,0,1,6,101.1,11.24,11.24,0,0,1,5,98Z" style="fill:#3535ed"/><path class="coronaLabialIncisalMiddle" d="M18,98v5.3a43.43,43.43,0,0,1-8.8-.6V98Z" style="fill:#3535ed"/><path class="coronaLabialIncisionMesial" d="M24.2,98h0c.1,2.5-.6,4.1-2.9,5.1-1.1.1-2.3.1-3.4.1V98Z" style="fill:#3535ed"/><path class="coronaLabialMiddleDistal" d="M4.8,95.7l.1-2.9a12.25,12.25,0,0,1,.2-1.9c.3-2.3.6-4.6.7-6.9H9.2V98H5A19.53,19.53,0,0,1,4.8,95.7Z" style="fill:#3535ed"/><path class="coronaLabialMiddleMiddle" d="M9.2,84H18V98H9.2V84Z" style="fill:#3535ed"/><path class="coronaLabialMiddleMesial" d="M21.7,84l2.5,14H18V84Z" style="fill:#3535ed"/><path class="coronaLabialCervicalDistal" d="M6.1,78.2a9.54,9.54,0,0,1,2.7-6.4,1,1,0,0,1,.5-.4V84H5.9C5.9,82.1,6,80.1,6.1,78.2Z" style="fill:#3535ed"/><path class="coronaLabialCervicalMiddle" d="M17.9,72.8h0L18,84H9.2V71.4C11.9,69.1,14.8,69.7,17.9,72.8Z" style="fill:#3535ed"/><path class="coronaLabialCervicalMesial" d="M20.5,78.2l1.1,5.9H17.8V73A10.88,10.88,0,0,1,20.5,78.2Z" style="fill:#3535ed"/><path class="veneer" d="M4.5,97.1l1.6,1.2c2.3,1.8,2.4,2.2,1.4,4.9L6.8,105,8,103.5c1.8-2.3,2.2-2.4,4.9-1.4l1.9.7-1.6-1.2c-2.3-1.8-2.4-2.2-1.4-4.9l.7-1.8-1.2,1.6c-1.8,2.3-2.2,2.4-4.9,1.4ZM5.8,86.7l1.6,1.2c1.4,1.1,1.5,1.3.8,3l-.7,1.8,1.2-1.6c1.1-1.4,1.3-1.5,3-.8l1.8.7-1.6-1.2c-1.4-1.1-1.5-1.3-.8-2.9l.7-1.8-1.2,1.6c-1.1,1.4-1.3,1.5-2.9.8Zm10,2.6,1.6,1.2c1.4,1.1,1.5,1.3.8,2.9l-.7,1.8,1.2-1.6c1.1-1.4,1.3-1.5,3-.8l1.8.7-1.6-1.2c-1.4-1.1-1.5-1.3-.8-3l.7-1.8-1.2,1.6c-1.1,1.4-1.3,1.5-2.9.8Z" style="fill:#3535ed"/><path class="coronaTop" d="M10.8,119.3l-5-5.5a13.08,13.08,0,0,1,18.4.8l-5.5,5A5.65,5.65,0,0,0,10.8,119.3Zm7.9.3,5.5-5a13.21,13.21,0,0,1-.8,18.5h0l-5-5.5A5.59,5.59,0,0,0,18.7,119.6Zm-.4,8,5,5.5a13.08,13.08,0,0,1-18.4-.8h0l5.5-5A5.75,5.75,0,0,0,18.3,127.6Zm-7.5-8.3a5.65,5.65,0,0,0-.4,7.9l-5.5,5a13.21,13.21,0,0,1,.8-18.5Zm3.8-1.5A5.6,5.6,0,1,1,9,123.4,5.59,5.59,0,0,1,14.6,117.8Z" style="fill:#fff;stroke:#000;stroke-miterlimit:10"/><path class="coronaTopBuccal" d="M10.8,119.3l-5-5.5a13.08,13.08,0,0,1,18.4.8l-5.5,5A5.65,5.65,0,0,0,10.8,119.3Z" style="fill:#3535ed"/><path class="coronaTopMedial" d="M18.7,119.6l5.5-5a13.21,13.21,0,0,1-.8,18.5h0l-5-5.5A5.59,5.59,0,0,0,18.7,119.6Z" style="fill:#3535ed"/><path class="coronaTopLingual" d="M18.3,127.6l5,5.5a13.08,13.08,0,0,1-18.4-.8h0l5.5-5A5.75,5.75,0,0,0,18.3,127.6Z" style="fill:#3535ed"/><path class="coronaTopDistal" d="M10.8,119.3a5.65,5.65,0,0,0-.4,7.9l-5.5,5a13.21,13.21,0,0,1,.8-18.5Z" style="fill:#3535ed"/><path class="coronaTopOclusial" d="M14.6,117.8A5.6,5.6,0,1,1,9,123.4,5.59,5.59,0,0,1,14.6,117.8Z" style="fill:#3535ed"/><path class="silant" d="M5.6,131.5a19,19,0,0,0,6.9,1.2c5.8,0,9.2-2.2,9.2-5.4,0-2.7-2.2-4.2-6.4-5.4-3.2-.9-4.7-1.6-4.7-3.1,0-1.3,1.5-2.5,4.1-2.5a13.11,13.11,0,0,1,5,1l1.1-2.4a15.66,15.66,0,0,0-6-1.1c-5.3,0-8.4,2.4-8.4,5.3,0,2.2,2.1,4,6.5,5.1,3.3.9,4.5,1.8,4.5,3.3s-1.5,2.7-4.8,2.7a16.09,16.09,0,0,1-5.9-1.3Z" style="fill:#3535ed"/><path class="crown" d="M11,170.9c-2.5-6.1-4.3-14.7-5.9-22.8a7.61,7.61,0,0,1,.3-2.1,5,5,0,0,1,4-3.5l12.1-1.1a5,5,0,0,1,2.7.4,2.76,2.76,0,0,1,1.2,1.9,8.08,8.08,0,0,1,0,3.1v.1s-2.6,16.7-6.3,23.6a7.11,7.11,0,0,1-2.3,2.6,3.47,3.47,0,0,1-4.4.1A3.64,3.64,0,0,1,11,170.9Zm6.9-98.1c-3.3-3.3-6.4-3.8-9.1-1a9.54,9.54,0,0,0-2.7,6.4,106.94,106.94,0,0,1-1,12.7,11.08,11.08,0,0,0-.2,1.9l-.1,2.9A12.53,12.53,0,0,0,6,101.1a2.42,2.42,0,0,0,1.8,1.3,51.59,51.59,0,0,0,13.6.7c2.3-1,3-2.7,2.9-5.1L20.7,78.1A10.15,10.15,0,0,0,17.9,72.8Zm.8,46.8,5.5-5a13.08,13.08,0,0,0-18.4-.8l5,5.5A5.65,5.65,0,0,1,18.7,119.6Zm-.3,8,5,5.5h0a13.21,13.21,0,0,0,.8-18.5l-5.5,5A5.59,5.59,0,0,1,18.4,127.6Zm-8-.3-5.5,5h0a13.08,13.08,0,0,0,18.4.8l-5-5.5A5.75,5.75,0,0,1,10.4,127.3ZM5.7,113.7a13.21,13.21,0,0,0-.8,18.5l5.5-5a5.65,5.65,0,0,1,.4-7.9ZM9,123.4a5.6,5.6,0,1,0,5.6-5.6A5.59,5.59,0,0,0,9,123.4Z" style="fill:#fff;stroke:#000;stroke-miterlimit:10;stroke-width:0.5px"/><path class="braces" d="M12.6,88.4a2,2,0,0,0,1.1.2h1.2a3.55,3.55,0,0,0,1-.2h0v2.7a3.55,3.55,0,0,0-1-.2H13.7a4.25,4.25,0,0,0-1.1.2V88.4h0m4.6-3.9H16.1c-.4.1-.7.4-.6.8v.5c0,.4-.3.8-.6.8H13.8a.64.64,0,0,1-.6-.8v-.5a.76.76,0,0,0-.6-.8H11.5a.64.64,0,0,0-.6.8v3.8H.3v1.3H10.9v3.8c0,.4.3.8.6.8h1.1c.4-.1.7-.4.6-.8v-.6c0-.4.3-.8.6-.8H15a.77.77,0,0,1,.7.8v.5a.76.76,0,0,0,.6.8h1.1a.64.64,0,0,0,.6-.8V90.3H28.6V89H18V85.2a1.14,1.14,0,0,0-.8-.7Z"/><path class="gum" d="M28.5,76.5H22s-4.5-7-9-7-8,7-8,7H0" style="fill:none;stroke:#ffb900;stroke-linejoin:round;stroke-width:3px"/><path class="paradontit1" d="M28.5,76.5H24.6a4.53,4.53,0,0,1-3.8-2.1c-1.8-2.8-5.2-10.7-8.4-10.7-2.9,0-5.1,7.2-6.4,10.1a4.5,4.5,0,0,1-4.1,2.7H0" style="fill:none;stroke:#ff822e;stroke-linejoin:round;stroke-width:3px"/><path class="paradontit2" d="M28.5,76.5c-1.2,0-5.4-.4-6.2-1.8C20.2,71,16.9,59.5,11.8,59.5c-5.3,0-5.6,10.9-7.2,14.8C4,76.6,2,76.5,0,76.5" style="fill:none;stroke:#f9610d;stroke-linejoin:round;stroke-width:3px"/><path class="paradontit3" d="M28.5,76.5c-1,0-5.4-.4-6.2-1.8-2.1-3.7-6-19.5-11.1-19.5-5.9,0-5,15.2-6.6,19.1.3.7-3.2,2.2-4.6,2.2" style="fill:none;stroke:#f9610d;stroke-linejoin:round;stroke-width:3px"/><path class="paradontit4" d="M28.5,76.5c-2,0-5.4-.6-6.1-2.4C20.2,68.3,18.5,50,10.5,50S5.4,67.4,4.2,73.4A4,4,0,0,1,0,76.5" style="fill:none;stroke:#f75403;stroke-linejoin:round;stroke-width:3px"/><path class="periodontit" d="M12,12.9a4.5,4.5,0,1,1-4.5,4.5A4.48,4.48,0,0,1,12,12.9Z" style="fill:#3535ed"/></g></g></g></svg>