<svg xmlns="http://www.w3.org/2000/svg" viewBox="0 0 33.9 180"><title>13tooth</title><g class="Слой_2" data-name="Слой 2"><g class="Слой_1-2" data-name="Слой 1"><g class="_13" data-name="13"><path class="background" d="M0,0H33.9V180H0Z" style="fill:#9fdaff"/><path class="bone" d="M0,0H33.9V77H0Z" style="fill:#de82a7"/><path class="bridge" d="M0,151.8v-4l33.9-.1v4Zm33.9-26.1v-4L0,121.8v4Zm0-27v-4L0,94.8v4Z" style="fill:#3535ed"/><path class="root" d="M7,75.5c-.9-11.6.1-25,2.5-39.6C11,27,11.7,22.6,10.6,15.6a6.87,6.87,0,0,1,.2-3.2c.7-1.9,1.5-1.7,2.4,0a4.44,4.44,0,0,0,.8,1.1c3,4.1,3.4,7.5,3.8,16.5l2.1,23.1L22.3,74" style="fill:#f8edc8;stroke:#292320;stroke-miterlimit:10;stroke-width:0.25px"/><path class="rootCanal" d="M18.2,74.8c-1.5-.2-2.8-.3-3.5-.4a2.54,2.54,0,0,0-1.2.2C10,76,6.7,77,10.3,71c2.7-9.4,3.6-23.4,3.2-37.2a126.58,126.58,0,0,0,.1-13.1c-.3-4-1.6-7.4-1.6-8-.1-5.3,2.2,2.1,3.2,7.4.7,3.8.5,9.4,1,14.3,1.3,14.7,1,31.6,1.2,33.5a1.78,1.78,0,0,0,.4,1c.9,1,3.2,3.8,2.6,4.9A2.06,2.06,0,0,1,18.2,74.8Z" style="fill:#3535ed"/><path class="implant" d="M21.1,38.6a1.9,1.9,0,0,0-1-1.6A15.23,15.23,0,0,0,7.9,37a1.39,1.39,0,0,0-.7.8l14,2.2Zm.1,2.9L6.9,39.2l-.1,2.5L21.2,44V41.5Zm.1,4L6.8,43.2l-.1,2.5L21.4,48Zm.1,4.1L6.6,47.3v2.4L21.5,52Zm.2,3.9-15-2.3-.1,2.5,15.2,2.4Zm.1,4.1L6.4,55.2l-.1,2.5,15.4,2.4V57.6Zm.1,5.1L6.1,60.3,6,62.7l15.8,2.4Zm.2,3L6.1,63.2,6,65.8H22Zm1.5,2.9a1.85,1.85,0,0,0-.2-.7.91.91,0,0,0-.7-.3H5.5a.91.91,0,0,0-.7.3,1.17,1.17,0,0,0-.2.7v1.9H23.4Zm.4,4.9a1.49,1.49,0,0,0-.4-.9.6.6,0,0,0-.4-.1H5c-.2,0-.3.1-.4.1a1,1,0,0,0-.4.9v1.2a.94.94,0,0,0,1,1H23.3a1.08,1.08,0,0,0,1-1h0Z" style="fill:#3535ed"/><path class="rootMusk" d="M7,75.5c-.9-11.6.1-25,2.5-39.6C11,27,11.7,22.6,10.6,15.6a6.87,6.87,0,0,1,.2-3.2c.7-1.9,1.5-1.7,2.4,0a4.44,4.44,0,0,0,.8,1.1c3,4.1,3.4,7.5,3.8,16.5l2.1,23.1L22.3,74" style="fill:#f8edc8;stroke:#292320;stroke-miterlimit:10;stroke-width:0.25px"/><path class="coronaLingual" d="M12.7,174.8a8.31,8.31,0,0,1-3.2-3.5c-2.1-4.3-3.4-8.8-5-13.4a13,13,0,0,1-.4-6.2,7.16,7.16,0,0,1,2-3.6c2.6-2.7,4.2-5.1,6.3-6,3.5-2.1,5.8-2.1,7.8,0a25.3,25.3,0,0,1,5.7,7.7,16,16,0,0,1,0,11.8A35.85,35.85,0,0,1,20,173.5C17.5,175.8,15,176.1,12.7,174.8Z" style="fill:none"/><path class="coronaLingualIncisalDistal" d="M11.5,153.6V142.4c-1.7,1.2-3.2,3.2-5.4,5.5a7.16,7.16,0,0,0-2,3.6,14.92,14.92,0,0,0-.2,2.1Z" style="fill:#3535ed"/><path class="coronaLingualIncisalMiddle" d="M19.3,153.6V141c-1.8-1.3-3.8-1-6.9.8a4.05,4.05,0,0,0-.9.5v11.2l7.8.1Z" style="fill:#3535ed"/><path class="coronaLingualIncisionMesial" d="M27,153.6a14.65,14.65,0,0,0-1.1-4.1,27.05,27.05,0,0,0-5.7-7.7,6.47,6.47,0,0,0-.9-.8v12.6Z" style="fill:#3535ed"/><path class="coronaLingualMiddleDistal" d="M4.5,157.7c1.2,3.3,2.2,6.5,3.4,9.7h3.6V153.6H3.9A14,14,0,0,0,4.5,157.7Z" style="fill:#3535ed"/><path class="coronaLingualMiddleMiddle" d="M11.4,153.4h7.9v14H11.4Z" style="fill:#3535ed"/><path class="coronaLingualMiddleMesial" d="M23.6,167.4a39.2,39.2,0,0,0,2.3-6,17,17,0,0,0,1.1-7.8H19.3v13.9Z" style="fill:#3535ed"/><path class="coronaLingualCervicalDistal" d="M9.5,171.1a10.52,10.52,0,0,0,2,2.7v-6.4H7.9C8.4,168.6,8.9,169.8,9.5,171.1Z" style="fill:#3535ed"/><path class="coronaLingualCervicalMiddle" d="M12.7,174.6c2.1,1.2,4.3,1,6.6-.7v-6.5H11.5v6.4C11.9,174.1,12.3,174.3,12.7,174.6Z" style="fill:#3535ed"/><path class="coronaLingualCervicalMesial" d="M20.1,173.2a32.09,32.09,0,0,0,3.6-5.9H19.3v6.5A3.28,3.28,0,0,0,20.1,173.2Z" style="fill:#3535ed"/><path class="coronaLabial" d="M5.4,99.7c-2.8-3.2-3.3-7.4-1.9-12.5A55.31,55.31,0,0,0,6.7,76.7a9.88,9.88,0,0,1,5.8-7.2,7.3,7.3,0,0,1,5.8.1A8.44,8.44,0,0,1,23,76.4a57.81,57.81,0,0,0,2.7,13,8.54,8.54,0,0,1-.9,7.3C17.8,107.9,13.4,109.3,5.4,99.7Z" style="fill:none"/><path class="coronaLabialIncisalDistal" d="M10.3,98v6.5a36.31,36.31,0,0,1-4.9-4.7A5.67,5.67,0,0,1,4.2,98Z" style="fill:#3535ed"/><path class="coronaLabialIncisalMiddle" d="M20,98v5.3c-3.3,3.3-6.2,3.7-9.8,1.2V98Z" style="fill:#3535ed"/><path class="coronaLabialIncisionMesial" d="M24.1,98a35.64,35.64,0,0,1-4.1,5.3V98Z" style="fill:#3535ed"/><path class="coronaLabialMiddleDistal" d="M3.5,87.2c.4-1.1.8-2.2,1.2-3.2h5.6V98H4.2C2.5,95.1,2.4,91.5,3.5,87.2Z" style="fill:#3535ed"/><path class="coronaLabialMiddleMiddle" d="M10.3,84h9.8V98H10.3Z" style="fill:#3535ed"/><path class="coronaLabialMiddleMesial" d="M24.2,84a49.45,49.45,0,0,0,1.5,5.5,8.54,8.54,0,0,1-.9,7.3,10.54,10.54,0,0,1-.7,1.1H20v-14Z" style="fill:#3535ed"/><path class="coronaLabialCervicalDistal" d="M6.7,76.8a9.7,9.7,0,0,1,3.6-5.9V84H4.7A64.44,64.44,0,0,0,6.7,76.8Z" style="fill:#3535ed"/><path class="coronaLabialCervicalMiddle" d="M12.5,69.6a7.3,7.3,0,0,1,5.8.1A6.19,6.19,0,0,1,20,70.8V84H10.2V70.9A7.55,7.55,0,0,1,12.5,69.6Z" style="fill:#3535ed"/><path class="coronaLabialCervicalMesial" d="M23,76.6c.3,2.6.7,5.1,1.2,7.4H20V70.8A8.68,8.68,0,0,1,23,76.6Z" style="fill:#3535ed"/><path class="veneer" d="M3.5,95.1l1.6,1.2c2.3,1.8,2.4,2.2,1.4,4.9L5.8,103,7,101.5c1.8-2.3,2.2-2.4,4.9-1.4l1.9.7-1.6-1.2c-2.3-1.8-2.4-2.2-1.4-4.9l.7-1.8-1.2,1.6c-1.8,2.3-2.2,2.4-4.9,1.4ZM5.8,84.7l1.6,1.2c1.4,1.1,1.5,1.3.8,3l-.7,1.8,1.2-1.6c1.1-1.4,1.3-1.5,2.9-.8l1.9.7-1.6-1.2c-1.4-1.1-1.5-1.3-.9-2.9l.7-1.8-1.2,1.6c-1.1,1.4-1.3,1.5-3,.8Zm15,7.6,1.6,1.2c1.4,1.1,1.5,1.3.8,2.9l-.7,1.8,1.2-1.6c1.1-1.4,1.3-1.5,2.9-.8l1.9.7-1.6-1.2c-1.4-1.1-1.5-1.3-.8-3l.7-1.8-1.2,1.6c-1.1,1.4-1.3,1.5-3,.8Z" style="fill:#3535ed"/><path class="coronaTop" d="M10.7,119.2l-5.2-5.7a13.56,13.56,0,0,1,19.1.8l-5.7,5.2A5.83,5.83,0,0,0,10.7,119.2Zm8.2.3,5.7-5.2a13.56,13.56,0,0,1-.8,19.1h0l-5.2-5.7A5.83,5.83,0,0,0,18.9,119.5Zm-.4,8.2,5.2,5.7a13.56,13.56,0,0,1-19.1-.8h0l5.7-5.2A5.92,5.92,0,0,0,18.5,127.7Zm-7.8-8.5a5.83,5.83,0,0,0-.4,8.2h0l-5.7,5.2a13.56,13.56,0,0,1,.8-19.1Zm3.9-1.6a5.8,5.8,0,1,1-5.8,5.8A5.8,5.8,0,0,1,14.6,117.6Z" style="fill:#fff;stroke:#000;stroke-miterlimit:10"/><path class="coronaTopBuccal" d="M10.7,119.2l-5.2-5.7a13.56,13.56,0,0,1,19.1.8l-5.7,5.2A5.83,5.83,0,0,0,10.7,119.2Z" style="fill:#3535ed"/><path class="coronaTopMedial" d="M18.9,119.5l5.7-5.2a13.56,13.56,0,0,1-.8,19.1h0l-5.2-5.7A5.83,5.83,0,0,0,18.9,119.5Z" style="fill:#3535ed"/><path class="coronaTopLingual" d="M18.5,127.7l5.2,5.7a13.56,13.56,0,0,1-19.1-.8h0l5.7-5.2A5.92,5.92,0,0,0,18.5,127.7Z" style="fill:#3535ed"/><path class="coronaTopDistal" d="M10.7,119.2a5.83,5.83,0,0,0-.4,8.2h0l-5.7,5.2a13.56,13.56,0,0,1,.8-19.1Z" style="fill:#3535ed"/><path class="coronaTopOclusial" d="M14.6,117.6a5.8,5.8,0,1,1-5.8,5.8A5.8,5.8,0,0,1,14.6,117.6Z" style="fill:#3535ed"/><path class="silant" d="M6.6,131.5a19,19,0,0,0,6.9,1.2c5.8,0,9.2-2.2,9.2-5.4,0-2.7-2.2-4.2-6.4-5.4-3.2-.9-4.7-1.6-4.7-3.1,0-1.3,1.5-2.5,4.1-2.5a13.11,13.11,0,0,1,5,1l1.1-2.4a15.66,15.66,0,0,0-6-1.1c-5.3,0-8.4,2.4-8.4,5.3,0,2.2,2.1,4,6.5,5.1,3.3.9,4.5,1.8,4.5,3.3s-1.5,2.7-4.8,2.7a16.09,16.09,0,0,1-5.9-1.3Z" style="fill:#3535ed"/><path class="crown" d="M12.7,174.8a8.31,8.31,0,0,1-3.2-3.5c-2.1-4.3-3.4-8.8-5-13.4a13,13,0,0,1-.4-6.2,7.16,7.16,0,0,1,2-3.6c2.6-2.7,4.2-5.1,6.3-6,3.5-2.1,5.8-2.1,7.8,0a25.3,25.3,0,0,1,5.7,7.7,16,16,0,0,1,0,11.8A35.85,35.85,0,0,1,20,173.5C17.5,175.8,15,176.1,12.7,174.8ZM24.8,96.7a8.54,8.54,0,0,0,.9-7.3,57.81,57.81,0,0,1-2.7-13,8.44,8.44,0,0,0-4.7-6.8,7.3,7.3,0,0,0-5.8-.1,9.88,9.88,0,0,0-5.8,7.2A55.31,55.31,0,0,1,3.5,87.2c-1.4,5.1-.9,9.3,1.9,12.5C13.4,109.3,17.8,107.9,24.8,96.7Zm-5.9,22.8,5.7-5.2a13.56,13.56,0,0,0-19.1-.8l5.2,5.7A5.83,5.83,0,0,1,18.9,119.5Zm-.3,8.2,5.2,5.7h0a13.56,13.56,0,0,0,.8-19.1l-5.7,5.2A5.83,5.83,0,0,1,18.6,127.7Zm-8.3-.3-5.7,5.2h0a13.56,13.56,0,0,0,19.1.8l-5.2-5.7A5.92,5.92,0,0,1,10.3,127.4ZM5.4,113.5a13.56,13.56,0,0,0-.8,19.1l5.7-5.2h0a5.83,5.83,0,0,1,.4-8.2Zm3.4,9.9a5.8,5.8,0,1,0,5.8-5.8A5.8,5.8,0,0,0,8.8,123.4Z" style="fill:#fff;stroke:#201600;stroke-miterlimit:10;stroke-width:0.25px"/><path class="braces" d="M15.3,88.4a2,2,0,0,0,1.1.2h1.2a3.55,3.55,0,0,0,1-.2h0v2.7a3.55,3.55,0,0,0-1-.2H16.4a4.25,4.25,0,0,0-1.1.2V88.4h0m4.6-3.9H18.8c-.4.1-.7.4-.6.8v.5c0,.4-.3.8-.6.8H16.5a.77.77,0,0,1-.7-.8v-.5a.76.76,0,0,0-.6-.8H14a.77.77,0,0,0-.7.8v3.8H0v1.3H13.3v3.8a.77.77,0,0,0,.7.8h1.1c.4-.1.7-.4.6-.8v-.6a.77.77,0,0,1,.7-.8h1.2a.64.64,0,0,1,.6.8v.5a.76.76,0,0,0,.6.8h1.1a.64.64,0,0,0,.6-.8V90.3H33.8V89H20.5V85.2c.1-.3-.2-.6-.6-.7Z"/><path class="gum" d="M33.9,76.5h-9s-4-8-10-8-9,8-9,8H0" style="fill:none;stroke:#ffb900;stroke-linejoin:round;stroke-width:3px"/><path class="paradontit1" d="M33.9,76.5H27.5a4.41,4.41,0,0,1-3.8-2.1c-1.7-2.8-5.2-9-9.3-9-3.9,0-6.3,5.6-7.5,8.4a4.5,4.5,0,0,1-4.1,2.7H0" style="fill:none;stroke:#ff822e;stroke-linejoin:round;stroke-width:3px"/><path class="paradontit2" d="M33.9,76.5s-7.6,0-8.6-2c-2-4-6.4-14-10.8-14S6.4,70.2,4.6,74.3C3.7,76.5,0,76.5,0,76.5" style="fill:none;stroke:#f9610d;stroke-linejoin:round;stroke-width:3px"/><path class="paradontit3" d="M33.9,76.5H29.3c-.5,0-3.2-.5-4-2-2-4-6.5-18.7-10.9-18.7s-8,14.4-9.8,18.5C3.7,76.5,0,76.5,0,76.5" style="fill:none;stroke:#f9610d;stroke-linejoin:round;stroke-width:3px"/><path class="paradontit4" d="M33.9,76.5s-7.7,0-8.4-2.9C23.6,66.6,22.4,51,14.4,51S5.8,66.4,4.2,73.5c-.5,2.1-2.1,3-4.2,3" style="fill:none;stroke:#f75403;stroke-linejoin:round;stroke-width:3px"/><path class="periodontit" d="M12,2.9A4.5,4.5,0,1,1,7.5,7.4,4.48,4.48,0,0,1,12,2.9Z" style="fill:#3535ed"/></g></g></g></svg>