<svg xmlns="http://www.w3.org/2000/svg" viewBox="0 0 32.7 180"><title>14tooth</title><g class="Слой_2" data-name="Слой 2"><g class="Слой_1-2" data-name="Слой 1"><g class="_14" data-name="14"><path class="background" d="M.1,0H32.5V180H.1V0Z" style="fill:#9fdaff"/><path class="bone" d="M.1,0H32.5V77H.1V0Z" style="fill:#de82a7"/><path class="bridge" d="M.1,125.9v-4l32.4-.1v4Zm32.4,25.9v-4l-32.4.1v4Zm0-53v-4L.1,94.9v4Z" style="fill:#3535ed"/><path class="root" d="M6.2,80.8a154,154,0,0,0,4.3-35.1A96.77,96.77,0,0,0,8.9,30.4a8.94,8.94,0,0,1,.9-6c1.3-2.2,2.9-2.4,4.7-.6a9.64,9.64,0,0,1,2.8,6.4,109.08,109.08,0,0,0,2.1,18.1,125.51,125.51,0,0,1,2.8,31.2" style="fill:#f8edc8;stroke:#292320;stroke-miterlimit:10;stroke-width:0.25px"/><path class="rootCanal" d="M18.8,74.8l-4.1-.5c-3.9,1.6-6.1,2.6-2.3-3.8,4.1-6.3-1.4-36.3-1.6-46.2,0-1.6,2.4-1.9,2.6-.4,1.3,11,6.1,42.5,5.3,44.8l.9,5.2c.1.1.4.4-.8.9" style="fill:#3535ed"/><path class="implant" d="M21.7,38.6a1.9,1.9,0,0,0-1-1.6A15.23,15.23,0,0,0,8.5,37a1.39,1.39,0,0,0-.7.8l14,2.2Zm.1,2.9L7.5,39.2l-.1,2.5L21.8,44V41.5Zm.1,4L7.4,43.2l-.1,2.5L22,48Zm.1,4.1L7.2,47.3v2.4L22.1,52Zm.2,3.9-15-2.3-.1,2.5,15.2,2.4Zm.1,4.1L7,55.2l-.1,2.5,15.4,2.4V57.6Zm0,5.1L6.6,60.3l-.1,2.5,15.8,2.5Zm.2,3L6.6,63.2l-.1,2.6h16Zm1.5,3a1.85,1.85,0,0,0-.2-.7.91.91,0,0,0-.7-.3H6a1.08,1.08,0,0,0-1,1v1.9H23.9Zm.4,4.8a1.49,1.49,0,0,0-.4-.9.6.6,0,0,0-.4-.1H5.5c-.2,0-.3.1-.4.1a1,1,0,0,0-.4.9v1.2a.94.94,0,0,0,1,1H23.8a1.08,1.08,0,0,0,1-1Z" style="fill:#3535ed"/><path class="rootMusk" d="M6.2,80.8a154,154,0,0,0,4.3-35.1A96.77,96.77,0,0,0,8.9,30.4a8.94,8.94,0,0,1,.9-6c1.3-2.2,2.9-2.4,4.7-.6a9.64,9.64,0,0,1,2.8,6.4,109.08,109.08,0,0,0,2.1,18.1,125.51,125.51,0,0,1,2.8,31.2" style="fill:#f8edc8;stroke:#292320;stroke-miterlimit:10;stroke-width:0.25px"/><path class="coronaLingual" d="M8.9,169.1c3.7,3.2,7.1,4,10.2,2.2a6.14,6.14,0,0,0,1.9-1.7,11.18,11.18,0,0,0,1.1-2.5,35.45,35.45,0,0,1,3-6.2,10.84,10.84,0,0,0,1.4-5.8,13.94,13.94,0,0,0-1.8-6.9c-7-9.3-13.6-9.7-19.6,0a5.09,5.09,0,0,0-.7,1.7c-1,4.6,0,9.8,1.9,15.4A9.23,9.23,0,0,0,8.9,169.1Z" style="fill:#fff;stroke:#000;stroke-miterlimit:10;stroke-width:0.5px"/><path class="coronaLingualIncisalDistal" d="M11.6,150.9v-9.1c-2.2,1-4.4,3.1-6.4,6.5a5.09,5.09,0,0,0-.7,1.7,2.77,2.77,0,0,0-.1.9Z" style="fill:#3535ed"/><path class="coronaLingualIncisalMiddle" d="M19.4,150.9v-8.1c-2.7-1.8-5.2-2.2-7.8-1v9.1Z" style="fill:#3535ed"/><path class="coronaLingualIncisionMesial" d="M25.8,150.9c-.3-.9-.7-1.8-1.1-2.7a23.07,23.07,0,0,0-5.4-5.4v8.1Z" style="fill:#3535ed"/><path class="coronaLingualMiddleDistal" d="M6.2,164.6h5.4V150.8H4.3C3.6,155.1,4.5,159.7,6.2,164.6Z" style="fill:#3535ed"/><path class="coronaLingualMiddleMiddle" d="M11.6,150.9h7.8v13.8H11.6Z" style="fill:#3535ed"/><path class="coronaLingualMiddleMesial" d="M23,164.6a27.54,27.54,0,0,1,2-3.8,10.84,10.84,0,0,0,1.4-5.8,12.34,12.34,0,0,0-.7-4.2H19.2v13.8Z" style="fill:#3535ed"/><path class="coronaLingualCervicalDistal" d="M6.4,165.3A9.35,9.35,0,0,0,8.9,169a13.09,13.09,0,0,0,2.7,1.9v-6.4H6.2A1.55,1.55,0,0,0,6.4,165.3Z" style="fill:#3535ed"/><path class="coronaLingualCervicalMiddle" d="M19.1,171.2c.1-.1.2-.1.3-.2v-6.4H11.6V171C14.3,172.5,16.8,172.6,19.1,171.2Z" style="fill:#3535ed"/><path class="coronaLingualCervicalMesial" d="M21,169.5a11.18,11.18,0,0,0,1.1-2.5,25.57,25.57,0,0,1,1.1-2.4H19.4V171A7.52,7.52,0,0,0,21,169.5Z" style="fill:#3535ed"/><path class="coronaLabial" d="M8.7,77.1c3.8-3.2,7.2-4,10.4-2.2A5.19,5.19,0,0,1,21,76.6a8,8,0,0,1,1.1,2.5,39.86,39.86,0,0,0,3.1,6.2,11.4,11.4,0,0,1,1.5,5.8,13.39,13.39,0,0,1-1.9,6.8c-7.2,9.3-13.9,9.7-20,0a5.09,5.09,0,0,1-.7-1.7c-1-4.6,0-9.8,2-15.4A10.79,10.79,0,0,1,8.7,77.1Z" style="fill:#fff;stroke:#000;stroke-miterlimit:10;stroke-width:0.5px"/><path class="coronaLabialIncisalDistal" d="M5,98H9.6v5.3A19.33,19.33,0,0,1,5,98Z" style="fill:#3535ed"/><path class="coronaLabialIncisalMiddle" d="M19.4,98v5.5c-3.4,2.2-6.6,2.2-9.8-.1V98Z" style="fill:#3535ed"/><path class="coronaLabialIncisionMesial" d="M24.8,98a20.57,20.57,0,0,1-5.6,5.4V98Z" style="fill:#3535ed"/><path class="coronaLabialMiddleDistal" d="M5.1,84H9.6V98H5v-.1a5.09,5.09,0,0,1-.7-1.7C3.4,92.5,3.9,88.4,5.1,84Z" style="fill:#3535ed"/><path class="coronaLabialMiddleMiddle" d="M9.6,84h9.8V98H9.6Z" style="fill:#3535ed"/><path class="coronaLabialMiddleMesial" d="M24.4,84a10,10,0,0,0,.8,1.4,11.4,11.4,0,0,1,1.5,5.8A13.39,13.39,0,0,1,24.8,98H19.2V84Z" style="fill:#3535ed"/><path class="coronaLabialCervicalDistal" d="M6.2,80.8a8.64,8.64,0,0,1,2.6-3.7l.9-.7V84H5.2C5.5,83,5.8,81.9,6.2,80.8Z" style="fill:#3535ed"/><path class="coronaLabialCervicalMiddle" d="M19.2,74.9c.1,0,.1.1.2.1v9H9.6V76.4C13,73.8,16.2,73.2,19.2,74.9Z" style="fill:#3535ed"/><path class="coronaLabialCervicalMesial" d="M21.1,76.7a8,8,0,0,1,1.1,2.5,54,54,0,0,0,2.3,4.9H19.3v-9A4.55,4.55,0,0,1,21.1,76.7Z" style="fill:#3535ed"/><path class="veneer" d="M10.1,100.1l1.6,1.2c2.3,1.8,2.4,2.2,1.4,4.9l-.7,1.8,1.2-1.5c1.8-2.3,2.2-2.4,4.9-1.4l1.8.7-1.6-1.2c-2.3-1.8-2.4-2.2-1.4-4.9l.7-1.8-1.2,1.6c-1.8,2.3-2.2,2.4-4.9,1.4Zm1.3-10.4L13,90.9c1.4,1.1,1.5,1.3.8,3l-.7,1.8,1.2-1.6c1.1-1.4,1.3-1.5,2.9-.8l1.9.7-1.6-1.2c-1.4-1.1-1.5-1.3-.8-2.9l.7-1.8-1.2,1.6c-1.1,1.4-1.3,1.5-3,.8Zm10,2.6L23,93.5c1.4,1.1,1.5,1.3.8,2.9l-.7,1.8,1.2-1.6c1.1-1.4,1.3-1.5,2.9-.8l1.9.7-1.6-1.2c-1.4-1.1-1.5-1.3-.8-3l.7-1.8-1.2,1.6c-1.1,1.4-1.3,1.5-3,.8Z" style="fill:#3535ed"/><path class="coronaTop" d="M11.3,119.2l-5.2-5.7a13.56,13.56,0,0,1,19.1.8l-5.7,5.2A5.83,5.83,0,0,0,11.3,119.2Zm8.2.3,5.7-5.2a13.56,13.56,0,0,1-.8,19.1l-5.2-5.7A5.92,5.92,0,0,0,19.5,119.5Zm-.4,8.2,5.2,5.7a13.56,13.56,0,0,1-19.1-.8h0l5.7-5.2A5.92,5.92,0,0,0,19.1,127.7Zm-7.8-8.5a5.83,5.83,0,0,0-.4,8.2h0l-5.7,5.2A13.56,13.56,0,0,1,6,113.5H6Zm3.9-1.6a5.8,5.8,0,1,1-5.8,5.8A5.8,5.8,0,0,1,15.2,117.6Z" style="fill:#fff;stroke:#000;stroke-miterlimit:10"/><path class="coronaTopBuccal" d="M11.3,119.2l-5.2-5.7a13.56,13.56,0,0,1,19.1.8l-5.7,5.2A5.83,5.83,0,0,0,11.3,119.2Z" style="fill:#3535ed"/><path class="coronaTopMedial" d="M19.5,119.5l5.7-5.2a13.56,13.56,0,0,1-.8,19.1l-5.2-5.7A5.92,5.92,0,0,0,19.5,119.5Z" style="fill:#3535ed"/><path class="coronaTopLingual" d="M19.1,127.7l5.2,5.7a13.56,13.56,0,0,1-19.1-.8h0l5.7-5.2A5.92,5.92,0,0,0,19.1,127.7Z" style="fill:#3535ed"/><path class="coronaTopDistal" d="M11.3,119.2a5.83,5.83,0,0,0-.4,8.2h0l-5.7,5.2A13.56,13.56,0,0,1,6,113.5H6Z" style="fill:#3535ed"/><path class="coronaTopOclusial" d="M15.2,117.6a5.8,5.8,0,1,1-5.8,5.8A5.8,5.8,0,0,1,15.2,117.6Z" style="fill:#3535ed"/><path class="silant" d="M7.2,131.5a19,19,0,0,0,6.9,1.2c5.8,0,9.2-2.2,9.2-5.4,0-2.7-2.2-4.2-6.4-5.4-3.2-.9-4.7-1.6-4.7-3.1,0-1.3,1.5-2.5,4.1-2.5a13.11,13.11,0,0,1,5,1l1.1-2.4a15.66,15.66,0,0,0-6-1.1c-5.3,0-8.4,2.4-8.4,5.3,0,2.2,2.1,4,6.5,5.1,3.3.9,4.5,1.8,4.5,3.3s-1.5,2.7-4.8,2.7a16.09,16.09,0,0,1-5.9-1.3Z" style="fill:#3535ed"/><path class="crown" d="M6.3,165.3c-1.9-5.6-2.9-10.8-1.9-15.4a5.09,5.09,0,0,1,.7-1.7c6-9.7,12.6-9.3,19.6,0a13.94,13.94,0,0,1,1.8,6.9,10.84,10.84,0,0,1-1.4,5.8,35.45,35.45,0,0,0-3,6.2,11.18,11.18,0,0,1-1.1,2.5,6.14,6.14,0,0,1-1.9,1.7c-3.1,1.8-6.5,1-10.2-2.2A9.23,9.23,0,0,1,6.3,165.3ZM6.1,80.8c-2,5.6-3,10.8-2,15.4a5.09,5.09,0,0,0,.7,1.7c6.1,9.7,12.8,9.3,20,0a13.39,13.39,0,0,0,1.9-6.8,11.4,11.4,0,0,0-1.5-5.8,39.86,39.86,0,0,1-3.1-6.2A8,8,0,0,0,21,76.6a5.19,5.19,0,0,0-1.9-1.7c-3.2-1.8-6.6-1-10.4,2.2A10.79,10.79,0,0,0,6.1,80.8Zm13.4,38.7,5.7-5.2a13.56,13.56,0,0,0-19.1-.8l5.2,5.7A5.83,5.83,0,0,1,19.5,119.5Zm-.3,8.2,5.2,5.7a13.56,13.56,0,0,0,.8-19.1l-5.7,5.2A5.92,5.92,0,0,1,19.2,127.7Zm-8.3-.3-5.7,5.2h0a13.56,13.56,0,0,0,19.1.8l-5.2-5.7A5.92,5.92,0,0,1,10.9,127.4ZM6,113.5H6a13.56,13.56,0,0,0-.8,19.1l5.7-5.2h0a5.83,5.83,0,0,1,.4-8.2Zm3.4,9.9a5.8,5.8,0,1,0,5.8-5.8A5.8,5.8,0,0,0,9.4,123.4Z" style="fill:#fff;stroke:#000;stroke-miterlimit:10;stroke-width:0.5px"/><path class="braces" d="M14.7,88.4a2,2,0,0,0,1.1.2H17a3.55,3.55,0,0,0,1-.2h0v2.7a3.55,3.55,0,0,0-1-.2H15.8a4.25,4.25,0,0,0-1.1.2V88.4h0m4.6-3.9H18.2c-.4.1-.7.4-.6.8v.5c0,.4-.3.8-.6.8H15.9a.64.64,0,0,1-.6-.8v-.5a.76.76,0,0,0-.6-.8H13.6a.64.64,0,0,0-.6.8v3.8H.4v1.3H13v3.8c0,.4.3.8.6.8h1.1c.4-.1.7-.4.6-.8v-.6c0-.4.3-.8.6-.8h1.2a.77.77,0,0,1,.7.8v.5a.76.76,0,0,0,.6.8h1.1a.77.77,0,0,0,.7-.8V90.3H32.7V89H20.1V85.2a1.39,1.39,0,0,0-.8-.7Z"/><path class="gum" d="M32.5,76.5h-10S21,74,15,74c-5.5.5-8,3-8,3H.1" style="fill:none;stroke:#ffb900;stroke-linejoin:round;stroke-width:3px"/><path class="paradontit1" d="M32.5,76.5H24.9a4.41,4.41,0,0,1-3.6-1.8c-1.7-2.3-2.8-5.9-7.1-5.9s-5.1,3.8-6.3,5.9C7,77.1.1,77,.1,77" style="fill:none;stroke:#ff822e;stroke-linejoin:round;stroke-width:3px"/><path class="paradontit2" d="M32.5,76.5s-8.3,0-9.6-1.9c-1.6-3-4.3-10.8-8.4-10.8-3.7.3-6.9,7.9-8.4,10.7a4.57,4.57,0,0,1-4,2.5H.1" style="fill:none;stroke:#f9610d;stroke-linejoin:round;stroke-width:3px"/><path class="paradontit3" d="M32.5,76.5s-8.5,0-9.6-1.9c-1.7-3-3.6-17-7.6-17-3.7.3-7.7,14.1-9.2,16.9a4.57,4.57,0,0,1-4,2.5H.1" style="fill:none;stroke:#f9610d;stroke-linejoin:round;stroke-width:3px"/><path class="paradontit4" d="M32.5,76.5s-7.9,0-9.1-3.1c-1.2-6-2.8-20.7-7.8-20.7s-8.2,15.1-9.8,21A4.39,4.39,0,0,1,1.5,77H.1" style="fill:none;stroke:#f75403;stroke-linejoin:round;stroke-width:3px"/><path class="periodontit" d="M12.6,14.9a4.5,4.5,0,1,1-4.5,4.5A4.48,4.48,0,0,1,12.6,14.9Z" style="fill:#3535ed"/></g></g></g></svg>