<svg xmlns="http://www.w3.org/2000/svg" viewBox="0 0 46.5 180"><title>16tooth</title><g class="Слой_2" data-name="Слой 2"><g class="Слой_1-2" data-name="Слой 1"><g class="_16" data-name="16"><path class="background" d="M0,0H46.4V180H0Z" style="fill:#9fdaff"/><path class="bone" d="M0,0H46.4V77H0Z" style="fill:#de82a7"/><path class="bridge" d="M0,152.2v-4l46.4-.1v4Zm46.4-26.1v-4L0,122.2v4Zm0-27v-4L0,95.2v4Z" style="fill:#3535ed"/><path class="root" d="M36.4,76.9c1.4-20.1,3.7-43.3,1.4-51-1.1-2.8-2.5-3.5-4-2.3a4.84,4.84,0,0,0-1.6,3.6c-.1,9.5-1.5,17.7-5.5,23.7l-6.1.2a52.07,52.07,0,0,1-6.5-23.5,6.18,6.18,0,0,0-2.2-4.7,2.45,2.45,0,0,0-3.6,0,4.88,4.88,0,0,0-1.2,4.8c5,23.1,6.4,42.5-2.1,52.1M17.4,43.7c3.8-7.6,4.2-16,2.3-25A4.24,4.24,0,0,1,20,16c.9-1.7,2.2-1.3,3.7.8a84.4,84.4,0,0,1,7.4,22.6L26.8,50.7l-6.1.2" style="fill:#f8edc8;stroke:#292320;stroke-miterlimit:10;stroke-width:0.25px"/><path class="rootCanal" d="M14.4,76.8A1.3,1.3,0,0,1,13.1,75c4.4-12.2-4.6-51.7-4.6-51.7,4.6-3.3,10,58.2,12.7,47.8,5-13.5-.2-49.1-.2-54.7,4.4-5.2,6.3,46.2,6.8,49s.4,12.9,2.7,2.6c1.9-8.7,3.3-33.4,4.3-44.1a.9.9,0,0,1,1.8.1c-.1,6.9-1.1,36.6-1.3,40a53.84,53.84,0,0,1-1.8,12h0s-.2.3-3.1-.2l-2.1-.3a18.86,18.86,0,0,0-6.1.3h-.1A26.3,26.3,0,0,1,14.4,76.8Z" style="fill:#3535ed"/><path class="implant" d="M29.6,38.6a1.78,1.78,0,0,0-1-1.6,15.23,15.23,0,0,0-12.2,0,2,2,0,0,0-.8.8L29.5,40l.1-1.4Zm.2,2.9L15.6,39.3l-.1,2.4,14.4,2.2Zm.1,4.1L15.4,43.3l-.1,2.4L29.9,48Zm.2,3.9L15.5,47.2l-.1,2.4L30.3,52Zm.1,4.1-15-2.4-.1,2.4L30.3,56Zm.1,4L14.9,55.2l-.1,2.4L30.2,60l.1-2.4Zm.1,5.1L14.8,60.3l-.1,2.4,15.8,2.4Zm.2,3L14.7,63.3l-.1,2.6h16Zm1.6,3.1a1.85,1.85,0,0,0-.2-.7.75.75,0,0,0-.7-.4H14.1a.75.75,0,0,0-.7.4.84.84,0,0,0-.2.7v2c.2,0,.4,0,.4-.1H31.7c.2,0,.4,0,.4.1l.1-2Zm.4,4.7a.89.89,0,0,0-.4-.8c-.2-.1-.3-.2-.4-.2H13.7c-.2,0-.4.1-.4.2a.91.91,0,0,0-.4.8v1.2a.94.94,0,0,0,1,1H32a1.08,1.08,0,0,0,1-1Z" style="fill:#3535ed"/><path class="rootMusk" d="M36.4,76.9c1.4-20.1,3.7-43.3,1.4-51-1.1-2.8-2.5-3.5-4-2.3a4.84,4.84,0,0,0-1.6,3.6c-.1,9.5-1.5,17.7-5.5,23.7l-6.1.2a52.07,52.07,0,0,1-6.5-23.5,6.18,6.18,0,0,0-2.2-4.7,2.45,2.45,0,0,0-3.6,0,4.88,4.88,0,0,0-1.2,4.8c5,23.1,6.4,42.5-2.1,52.1M17.4,43.7c3.8-7.6,4.2-16,2.3-25A4.24,4.24,0,0,1,20,16c.9-1.7,2.2-1.3,3.7.8a84.4,84.4,0,0,1,7.4,22.6L26.8,50.7l-6.1.2" style="fill:#f8edc8;stroke:#292320;stroke-miterlimit:10;stroke-width:0.25px"/><path class="coronaLingual" d="M17.9,170.2A95.2,95.2,0,0,1,35.5,168a4.55,4.55,0,0,0,3.6-1.8c3.3-4.4,4.7-10.5,4.7-17.6-.8-4.4-2.8-5.7-5.6-5.1a2,2,0,0,1-1.3-.1l-3.3-1a10.12,10.12,0,0,0-10.1,0,5.72,5.72,0,0,0-1.6,1.1c-1,1.1-2.4,1.1-3.9.6a9.25,9.25,0,0,0-7.8.1c-2.6,1.3-6.4,4-7.2,7-1.9,6.9,2,12.8,8.2,17.6A8.91,8.91,0,0,0,17.9,170.2Z" style="fill:#fff;stroke:#000;stroke-miterlimit:10;stroke-width:0.5px"/><path class="coronaLingualIncisalDistal" d="M14.5,149v-6a8,8,0,0,0-4.3.9A17.34,17.34,0,0,0,3.9,149Z" style="fill:#3535ed"/><path class="coronaLingualIncisalMiddle" d="M31.2,149v-7.8a10.64,10.64,0,0,0-7.8,1,5.72,5.72,0,0,0-1.6,1.1c-1,1.1-2.4,1.1-3.9.6a10.5,10.5,0,0,0-3.5-.8v6Z" style="fill:#3535ed"/><path class="coronaLingualIncisionMesial" d="M43.7,149v-.6c-.8-4.4-2.8-5.7-5.6-5.1a2,2,0,0,1-1.3-.1l-3.3-1a9.43,9.43,0,0,0-2.3-1V149Z" style="fill:#3535ed"/><path class="coronaLingualMiddleDistal" d="M5.5,162.8h9V149H3.9a6.63,6.63,0,0,0-.9,1.9C1.8,155.3,3,159.3,5.5,162.8Z" style="fill:#3535ed"/><path class="coronaLingualMiddleMiddle" d="M14.5,149H31.3v13.8H14.5Z" style="fill:#3535ed"/><path class="coronaLingualMiddleMesial" d="M41,162.8A32.4,32.4,0,0,0,43.7,149H31.1v13.8Z" style="fill:#3535ed"/><path class="coronaLingualCervicalDistal" d="M35.5,167.9a4.55,4.55,0,0,0,3.6-1.8,13.5,13.5,0,0,0,1.9-3.3H31.1v5.3C32.6,168,34,167.9,35.5,167.9Z" style="fill:#3535ed"/><path class="coronaLingualCervicalMiddle" d="M17.9,170.1a99.25,99.25,0,0,1,13.3-2v-5.3H14.4v7.3A10.28,10.28,0,0,0,17.9,170.1Z" style="fill:#3535ed"/><path class="coronaLingualCervicalMesial" d="M11.3,168.5a10.67,10.67,0,0,0,3.2,1.6v-7.3h-9A28.51,28.51,0,0,0,11.3,168.5Z" style="fill:#3535ed"/><path class="coronaLabial" d="M4,98.9C1.1,94.8.9,89.1,3,82a7.53,7.53,0,0,1,3.6-4.4l3-1.7a3.45,3.45,0,0,1,1.8-.5,31.09,31.09,0,0,0,6-.9c3.7-1.5,6.9-1.8,9.7-.4a2.89,2.89,0,0,0,1.8.3c4.4-.3,7.8.5,9.3,3.4l3.4,8.9a13.56,13.56,0,0,1,1,7.7c-2.5,6.4-6.9,9.5-12.8,10.4a6.56,6.56,0,0,1-4.3-1c-3.3-2.2-6.6-2.5-9.8-.3C11.4,105.7,7.6,103.4,4,98.9Z" style="fill:#fff;stroke:#000;stroke-miterlimit:10;stroke-width:0.5px"/><path class="coronaLabialIncisalDistal" d="M13.8,98v6.2c-3.4.9-6.7-1.4-9.8-5.2a8.79,8.79,0,0,1-.6-1Z" style="fill:#3535ed"/><path class="coronaLabialIncisalMiddle" d="M30.7,98v6.5a5,5,0,0,1-1.2.2,6.56,6.56,0,0,1-4.3-1c-3.3-2.2-6.6-2.5-9.8-.3a8.65,8.65,0,0,1-1.7.7V98Z" style="fill:#3535ed"/><path class="coronaLabialIncisionMesial" d="M40.4,98a14.81,14.81,0,0,1-9.8,6.5V98Z" style="fill:#3535ed"/><path class="coronaLabialMiddleDistal" d="M2.5,84H13.8V98H3.5C1.4,94.4,1.1,89.7,2.5,84Z" style="fill:#3535ed"/><path class="coronaLabialMiddleMiddle" d="M13.8,84h17V98h-17Z" style="fill:#3535ed"/><path class="coronaLabialMiddleMesial" d="M40.3,84l1,2.7a13.56,13.56,0,0,1,1,7.7A15.47,15.47,0,0,1,40.4,98H30.6V84Z" style="fill:#3535ed"/><path class="coronaLabialCervicalDistal" d="M3,82a7.53,7.53,0,0,1,3.6-4.4l3-1.7a3.45,3.45,0,0,1,1.8-.5,17.91,17.91,0,0,0,2.4-.2v8.9H2.4Z" style="fill:#3535ed"/><path class="coronaLabialCervicalMiddle" d="M17.2,74.4c3.7-1.5,6.9-1.8,9.7-.4a2.89,2.89,0,0,0,1.8.3h2V84h-17V75.1A13.59,13.59,0,0,0,17.2,74.4Z" style="fill:#3535ed"/><path class="coronaLabialCervicalMesial" d="M37.9,77.8,40.2,84H30.6V74.3C34.1,74.4,36.7,75.3,37.9,77.8Z" style="fill:#3535ed"/><path class="veneer" d="M20.6,99.4l1.9,1.4c2.8,2.2,2.9,2.6,1.7,5.9l-.8,2.2,1.4-1.9c2.2-2.8,2.6-2.9,5.9-1.7l2.2.8L31,104.7c-2.8-2.2-2.9-2.6-1.7-5.9l.8-2.2-1.4,1.9c-2.2,2.8-2.6,2.9-5.9,1.7ZM22.1,87,24,88.4c1.7,1.3,1.8,1.5,1,3.6l-.8,2.2,1.4-1.9c1.3-1.7,1.5-1.8,3.6-1l2.2.8-1.9-1.4c-1.7-1.3-1.8-1.5-1-3.6l.8-2.2-1.4,1.9c-1.3,1.7-1.5,1.8-3.6,1Zm12.1,3.1,1.9,1.4c1.7,1.3,1.8,1.5,1,3.6l-.8,2.2,1.5-1.9c1.3-1.7,1.5-1.8,3.6-1l2.2.8-1.9-1.4c-1.7-1.3-1.8-1.5-1-3.6l.9-2.2-1.4,1.9c-1.3,1.7-1.5,1.8-3.6,1ZM9,99l1.9,1.4c1.7,1.3,1.8,1.5,1,3.6l-.8,2.2,1.4-1.9c1.3-1.7,1.5-1.8,3.6-1l2.2.8-1.9-1.4c-1.7-1.3-1.8-1.5-1-3.6l.7-2.2-1.4,1.9c-1.3,1.7-1.5,1.8-3.6,1ZM5.3,90.1l1.9,1.4c1.7,1.3,1.8,1.5,1,3.6l-.8,2.2,1.4-1.9c1.3-1.7,1.5-1.8,3.6-1l2.2.8-1.9-1.4c-1.7-1.3-1.8-1.5-1-3.6l.8-2.2-1.4,1.9c-1.3,1.7-1.5,1.8-3.6,1Z" style="fill:#3535ed"/><path class="coronaTop" d="M20.1,119.2l-5.2-5.7a13.56,13.56,0,0,1,19.1.8l-5.7,5.2A5.83,5.83,0,0,0,20.1,119.2Zm8.2.3,5.7-5.2a13.56,13.56,0,0,1-.8,19.1h0L28,127.7a5.92,5.92,0,0,0,.3-8.2Zm-.4,8.2,5.2,5.7a13.56,13.56,0,0,1-19.1-.8h0l5.7-5.2A5.92,5.92,0,0,0,27.9,127.7Zm-7.8-8.5a5.74,5.74,0,0,0-.3,8.2l-5.7,5.2a13.56,13.56,0,0,1,.8-19.1Zm3.9-1.6a5.8,5.8,0,1,1-5.8,5.8A5.8,5.8,0,0,1,24,117.6Z" style="fill:#fff;stroke:#000;stroke-miterlimit:10"/><path class="coronaTopBuccal" d="M20.1,119.2l-5.2-5.7a13.56,13.56,0,0,1,19.1.8l-5.7,5.2A5.83,5.83,0,0,0,20.1,119.2Z" style="fill:#3535ed"/><path class="coronaTopMedial" d="M28.3,119.5l5.7-5.2a13.56,13.56,0,0,1-.8,19.1h0L28,127.7a5.92,5.92,0,0,0,.3-8.2Z" style="fill:#3535ed"/><path class="coronaTopLingual" d="M27.9,127.7l5.2,5.7a13.56,13.56,0,0,1-19.1-.8h0l5.7-5.2A5.92,5.92,0,0,0,27.9,127.7Z" style="fill:#3535ed"/><path class="coronaTopDistal" d="M20.1,119.2a5.74,5.74,0,0,0-.3,8.2l-5.7,5.2a13.56,13.56,0,0,1,.8-19.1Z" style="fill:#3535ed"/><path class="coronaTopOclusial" d="M24,117.6a5.8,5.8,0,1,1-5.8,5.8A5.8,5.8,0,0,1,24,117.6Z" style="fill:#3535ed"/><path class="silant" d="M16.1,131.5a19,19,0,0,0,6.9,1.2c5.8,0,9.2-2.2,9.2-5.4,0-2.7-2.2-4.2-6.4-5.4-3.2-.9-4.7-1.6-4.7-3.1,0-1.3,1.5-2.5,4.1-2.5a13.11,13.11,0,0,1,5,1l1.1-2.4a15.66,15.66,0,0,0-6-1.1c-5.3,0-8.4,2.4-8.4,5.3,0,2.2,2.1,4,6.5,5.1,3.3.9,4.5,1.8,4.5,3.3s-1.5,2.7-4.8,2.7a16.09,16.09,0,0,1-5.9-1.3Z" style="fill:#3535ed"/><path class="crown" d="M11.2,168.8C5,164,1.1,158.1,3,151.2c.8-3,4.6-5.7,7.2-7a9.25,9.25,0,0,1,7.8-.1c1.5.5,2.9.5,3.9-.6a5.72,5.72,0,0,1,1.6-1.1,10.12,10.12,0,0,1,10.1,0l3.3,1a2,2,0,0,0,1.3.1c2.8-.6,4.8.7,5.6,5.1,0,7.1-1.4,13.2-4.7,17.6a4.55,4.55,0,0,1-3.6,1.8,95.2,95.2,0,0,0-17.6,2.2A8.91,8.91,0,0,1,11.2,168.8Zm4.5-65.3c3.2-2.2,6.5-1.9,9.8.3a6.56,6.56,0,0,0,4.3,1c5.9-.9,10.3-4,12.8-10.4a13.56,13.56,0,0,0-1-7.7l-3.4-8.9c-1.5-2.9-4.9-3.7-9.3-3.4a2.89,2.89,0,0,1-1.8-.3c-2.8-1.4-6-1.1-9.7.4a31.09,31.09,0,0,1-6,.9,3.45,3.45,0,0,0-1.8.5l-3,1.7A7.53,7.53,0,0,0,3,82C.9,89.1,1.1,94.8,4,98.9,7.6,103.4,11.4,105.7,15.7,103.5Zm12.6,16,5.7-5.2a13.56,13.56,0,0,0-19.1-.8l5.2,5.7A5.83,5.83,0,0,1,28.3,119.5Zm0,0a5.92,5.92,0,0,1-.3,8.2l5.2,5.7h0a13.56,13.56,0,0,0,.8-19.1l-5.7,5.2Zm-8.6,7.9L14,132.6h0a13.56,13.56,0,0,0,19.1.8l-5.2-5.7A5.92,5.92,0,0,1,19.7,127.4Zm-4.8-13.9a13.56,13.56,0,0,0-.8,19.1l5.7-5.2a5.74,5.74,0,0,1,.3-8.2Zm3.3,9.9a5.8,5.8,0,1,0,5.8-5.8A5.8,5.8,0,0,0,18.2,123.4Z" style="fill:#fff;stroke:#000;stroke-miterlimit:10;stroke-width:0.5px"/><path class="braces" d="M21.6,88.4a2,2,0,0,0,1.1.2h1.2a3.55,3.55,0,0,0,1-.2h0v2.7a3.55,3.55,0,0,0-1-.2H22.7a4.25,4.25,0,0,0-1.1.2V88.4h0m4.6-3.9H25.1c-.4.1-.7.4-.6.8v.5c0,.4-.3.8-.6.8H22.8a.77.77,0,0,1-.7-.8v-.5a.76.76,0,0,0-.6-.8H20.4a.77.77,0,0,0-.7.8v3.8H0v1.3H19.6v3.8a.77.77,0,0,0,.7.8h1.1c.4-.1.7-.4.6-.8v-.6a.77.77,0,0,1,.7-.8h1.2a.77.77,0,0,1,.7.8v.5a.76.76,0,0,0,.6.8h1.1a.77.77,0,0,0,.7-.8V90.3H46.5V89H26.9V85.2a1,1,0,0,0-.7-.7Z"/><path class="gum" d="M46.4,77h-8c-1.5,0-2.5-3-16-3.5C13.9,73,5.9,77,5.9,77H0" style="fill:none;stroke:#ffb900;stroke-linejoin:round;stroke-width:3px"/><path class="paradontit1" d="M46.4,77h-8c-1.5,0-2.8-7.5-16.3-8C15.5,68.6,9.4,74.4,7,76.1a4.32,4.32,0,0,1-2.6.9H0" style="fill:none;stroke:#ff822e;stroke-linejoin:round;stroke-width:3px"/><path class="paradontit2" d="M46.4,77h-8c-1.5,0-2.7-11.6-16.2-12.1-6.4-.4-12.5,7.6-15,10.5A4.58,4.58,0,0,1,3.8,77H0" style="fill:none;stroke:#f9610d;stroke-linejoin:round;stroke-width:3px"/><path class="paradontit3" d="M46.4,77h-8C36.9,77,35,60.7,21.5,60.2,15.1,59.8,9.7,72.5,7.2,75.4A4.58,4.58,0,0,1,3.8,77H0" style="fill:none;stroke:#f9610d;stroke-linejoin:round;stroke-width:3px"/><path class="paradontit4" d="M46.4,77h-8c-1.5,0-.2-21.6-15.2-21.6S9.7,69.6,7.1,74.6a4.47,4.47,0,0,1-4,2.4H0" style="fill:none;stroke:#f75403;stroke-linejoin:round;stroke-width:3px"/><path class="periodontit" d="M35.4,14.9a4.5,4.5,0,1,1-4.5,4.5A4.48,4.48,0,0,1,35.4,14.9Zm-15-7a4.5,4.5,0,1,1-4.5,4.5A4.55,4.55,0,0,1,20.4,7.9Zm-10.9,6A4.5,4.5,0,1,1,5,18.4,4.48,4.48,0,0,1,9.5,13.9Z" style="fill:#3535ed"/></g></g></g></svg>