<svg xmlns="http://www.w3.org/2000/svg" viewBox="0 0 44.4 180"><title>17tooth</title><g class="Слой_2" data-name="Слой 2"><g class="Слой_1-2" data-name="Слой 1"><g class="_17" data-name="17"><path class="background" d="M0,0H44.4V180H0Z" style="fill:#9fdaff"/><path class="bone" d="M0,0H44.4V77H0Z" style="fill:#de82a7"/><path class="bridge" d="M0,99.3v-4l44.4-.1v4Zm44.4,52.9v-4L0,148.4v4Zm0-26v-4L0,122.4v4Z" style="fill:#3535ed"/><path class="root" d="M7.2,77.4a52,52,0,0,0,3.1-31.6,35.13,35.13,0,0,1-.7-12.3c1.6-3.6,3.3-4.2,4.9-2.2,0,0,3.5,12.4,3.3,12-.1-.2-2.2-16-1.5-16,1.4-2.5,2.8-2.4,4.2,0,3.8,6.8,5.4,15,5.3,24.5,1.8-6.9,1.1-14.3-1.4-22.1,0-1.7.7-2.2,2-1.7l.3.2c5.4,4.5,8.3,11.9,9.4,21.2l1.5,30.3" style="fill:#f8edc8;stroke:#292320;stroke-miterlimit:10;stroke-width:0.25px"/><path class="rootCanal" d="M12.8,78.9c-.3,0-.5-.3-.4-.5.6-3.2,1.1-20.2.8-32.7-.2-9.2-2.1-14.5-1.3-15.2s2.3,6.8,3.4,16.4c1.6,14.6,2.7,32.6,5.3,25.2,3.2-9.1.2-28.3-1.7-38.8-.1-.6-1.5-7.4-1-7.5s2.9,6.4,3.1,7.1C23.6,44.5,25.8,67,25.2,69c-.8,2.5,2.8,12.1,4.9,2.3,2.3-10.4.1-24.7-1.8-33.8-.2-.7-3.1-10.1-1.9-8.9,2.9,3,6.3,16.9,6.8,20.5,1,7,2,26.2,2.3,29.8a.87.87,0,0,1-.5.9,6.16,6.16,0,0,1-4.8.5h-.1c-2.6-1.2-4.9-2.5-7.3-3.9-.1,0-.1-.1-.2-.1-.7-.1-4.6-.4-5.5,1.3C16.2,78.7,13.9,78.9,12.8,78.9Z" style="fill:#3535ed"/><path class="implant" d="M30.5,38.6a1.89,1.89,0,0,0-.9-1.6,15.23,15.23,0,0,0-12.2,0c-.4.2-.7.5-.7.8l14,2.2Zm.1,3L16.5,39.4l-.1,2.5,14.4,2.2Zm.1,4L16.3,43.4l-.1,2.5,14.7,2.3Zm.1,3.9L16.1,47.3,16,49.8l15,2.3Zm.1,4-15-2.2-.1,2.5,15.3,2.4Zm.2,4L15.8,55.1l-.1,2.5L31.2,60Zm.1,5.3L15.6,60.4l-.1,2.4,15.8,2.4Zm.2,3L15.5,63.3,15.4,66h16Zm1.5,3a1.07,1.07,0,0,0-.9-1H14.8a.84.84,0,0,0-.7.4.73.73,0,0,0-.2.6v2H33l-.1-2Zm.5,4.6a.79.79,0,0,0-.5-.8c-.2-.1-.3-.1-.5-.2h-18c-.2,0-.3.1-.5.2a1,1,0,0,0-.5.8v1.3a.92.92,0,0,0,.9,1H32.4c.6,0,.9-.4.9-1l.1-1.3Z" style="fill:#3535ed"/><path class="rootMusk" d="M7.2,77.4a52,52,0,0,0,3.1-31.6,35.13,35.13,0,0,1-.7-12.3c1.6-3.6,3.3-4.2,4.9-2.2,0,0,3.5,12.4,3.3,12-.1-.2-2.2-16-1.5-16,1.4-2.5,2.8-2.4,4.2,0,3.8,6.8,5.4,15,5.3,24.5,1.8-6.9,1.1-14.3-1.4-22.1,0-1.7.7-2.2,2-1.7l.3.2c5.4,4.5,8.3,11.9,9.4,21.2l1.5,30.3" style="fill:#f8edc8;stroke:#292320;stroke-miterlimit:10;stroke-width:0.25px"/><path class="coronaLingual" d="M2.6,150.5c0,5.1,1.2,9.3,3.8,12.7a4,4,0,0,0,1.8,1.3,35.33,35.33,0,0,0,24,.1,5.22,5.22,0,0,0,1.9-1.4c4.8-5.3,9-10.8,3.8-19.4-.2-.2-.3-.5-.6-.6-3-2.5-6.8-2.9-11.4-1.6-3.1,1.9-5.9,2.4-8.2,1.2-5.6-1.8-10-.3-13.5,3.6A5.74,5.74,0,0,0,2.6,150.5Z" style="fill:#fff;stroke:#000;stroke-miterlimit:10;stroke-width:0.5px"/><path class="coronaLingualIncisalDistal" d="M5,145.5h8.6v-3.6A11.47,11.47,0,0,0,5,145.5Z" style="fill:#3535ed"/><path class="coronaLingualIncisalMiddle" d="M28.9,145.5v-4.7a15.47,15.47,0,0,0-3.1.6c-3.1,1.9-5.9,2.4-8.2,1.2a15.58,15.58,0,0,0-4.2-.8v3.6l15.5.1Z" style="fill:#3535ed"/><path class="coronaLingualIncisionMesial" d="M38.7,145.5a16.18,16.18,0,0,0-1-1.8,1.17,1.17,0,0,0-.6-.6,10.18,10.18,0,0,0-8.2-2.2v4.7h9.8Z" style="fill:#3535ed"/><path class="coronaLingualMiddleDistal" d="M4.2,159.2h9.3V145.5H5l-.8.8a6.2,6.2,0,0,0-1.6,4.1A22.15,22.15,0,0,0,4.2,159.2Z" style="fill:#3535ed"/><path class="coronaLingualMiddleMiddle" d="M13.5,145.4H29v13.9H13.5Z" style="fill:#3535ed"/><path class="coronaLingualMiddleMesial" d="M37.1,159.2c2.8-3.8,4.3-8.1,1.6-13.8H28.9v13.8Z" style="fill:#3535ed"/><path class="coronaLingualCervicalDistal" d="M6.4,163.1a3.22,3.22,0,0,0,1.8,1.2,35.77,35.77,0,0,0,5.4,1.4v-6.6H4.3A11.8,11.8,0,0,0,6.4,163.1Z" style="fill:#3535ed"/><path class="coronaLingualCervicalMiddle" d="M28.9,165.4v-6.1H13.5v6.6A36.4,36.4,0,0,0,28.9,165.4Z" style="fill:#3535ed"/><path class="coronaLingualCervicalMesial" d="M32,164.4a5,5,0,0,0,1.9-1.3,41.58,41.58,0,0,0,3.2-3.9H28.9v6.1A18.12,18.12,0,0,0,32,164.4Z" style="fill:#3535ed"/><path class="coronaLabial" d="M19.2,90.8a16.72,16.72,0,0,0,3.2,9.9l.9-.6A26,26,0,0,1,19.2,90.8ZM5.5,80.9c.3-2.3,1-3.8,2.8-3.6,2.8,1,5.5,1.5,7.4-.3,3.8-1.8,14.9-5,23.5,3.9A10.64,10.64,0,0,1,41.5,88a30.12,30.12,0,0,1-1.1,7.9,9.75,9.75,0,0,1-6.4,6.4,15.4,15.4,0,0,1-11.1-1.9c-2-1.6-4.3-1.6-6.8-.7-3.7,1.6-6.1.4-7.5-2.6a7.46,7.46,0,0,0-.7-1.2C5.4,92.8,5.2,87.2,5.5,80.9Z" style="fill:#fff;stroke:#292320;stroke-miterlimit:10"/><path class="coronaLabialIncisalDistal" d="M16.8,98v1.5c-.2.1-.5.1-.7.2-3.3,1.4-5.6.6-7-1.8Z" style="fill:#3535ed"/><path class="coronaLabialIncisalMiddle" d="M30.9,98v4.7a14.88,14.88,0,0,1-8.2-2.2,6.45,6.45,0,0,0-6-.9V98Z" style="fill:#3535ed"/><path class="coronaLabialIncisionMesial" d="M39.3,97.9a9.62,9.62,0,0,1-5.5,4.4,28.5,28.5,0,0,1-2.9.3V97.9Z" style="fill:#3535ed"/><path class="coronaLabialMiddleDistal" d="M16.8,84V98H9c-.2-.3-.3-.6-.5-.9a7.46,7.46,0,0,0-.7-1.2c-2-2.6-2.4-7-2.4-12Z" style="fill:#3535ed"/><path class="coronaLabialMiddleMiddle" d="M16.8,84H31V98H16.8Z" style="fill:#3535ed"/><path class="coronaLabialMiddleMesial" d="M40.7,84a10.8,10.8,0,0,1,.6,4,30.12,30.12,0,0,1-1.1,7.9c-.3.7-.6,1.4-.9,2H30.9v-14Z" style="fill:#3535ed"/><path class="coronaLabialCervicalDistal" d="M5.5,80.9c.3-2.3,1-3.8,2.8-3.6,2.8,1,5.5,1.5,7.4-.3a7.26,7.26,0,0,1,1.2-.5V84H5.4C5.4,83,5.4,82,5.5,80.9Z" style="fill:#3535ed"/><path class="coronaLabialCervicalMiddle" d="M30.9,75.8V84H16.8V76.5A21.94,21.94,0,0,1,30.9,75.8Z" style="fill:#3535ed"/><path class="coronaLabialCervicalMesial" d="M39,80.9A11.67,11.67,0,0,1,40.7,84H30.9V75.8A19.63,19.63,0,0,1,39,80.9Z" style="fill:#3535ed"/><path class="veneer" d="M18.7,95.2l1.8,1.4c2.7,2.1,2.8,2.5,1.6,5.6l-.8,2.1,1.4-1.8c2-2.7,2.5-2.8,5.6-1.6l2.1.8-1.8-1.4c-2.7-2-2.8-2.5-1.6-5.6l.8-2.1-1.4,1.8c-2,2.7-2.5,2.8-5.6,1.6Zm1.5-11.8L22,84.8c1.6,1.2,1.7,1.4,1,3.4l-.8,2.1,1.3-1.8c1.2-1.6,1.4-1.7,3.4-1l2.1.8-1.9-1.4c-1.6-1.2-1.7-1.4-1-3.4l.8-2-1.4,1.8c-1.2,1.6-1.4,1.7-3.4,1Zm11.3,3,1.8,1.4c1.6,1.2,1.7,1.4,1,3.4l-.8,2.1,1.4-1.8c1.2-1.6,1.4-1.7,3.4-1l2.1.8-1.8-1.4c-1.6-1.3-1.7-1.4-.9-3.4l.8-2.1-1.6,1.8c-1.2,1.6-1.4,1.7-3.4,1ZM7.7,94.8l1.8,1.4c1.6,1.2,1.7,1.4,1,3.4l-.8,2.1,1.4-1.8c1.3-1.6,1.5-1.7,3.4-1l2.1.8-1.8-1.4c-1.6-1.3-1.7-1.4-1-3.4l.8-2.1-1.4,1.8c-1.3,1.6-1.5,1.7-3.4,1ZM4.2,86.4,6,87.8c1.6,1.2,1.7,1.4,1,3.4l-.8,2.1,1.4-1.8c1.2-1.6,1.4-1.7,3.4-1l2.1.8-1.8-1.4c-1.6-1.3-1.7-1.4-1-3.4l.8-2.1L9.7,86.2c-1.2,1.6-1.4,1.7-3.4,1Z" style="fill:none;stroke:#3535ed;stroke-miterlimit:10"/><path class="coronaTop" d="M19.7,119.2l-5.2-5.7a13.56,13.56,0,0,1,19.1.8l-5.7,5.2A5.83,5.83,0,0,0,19.7,119.2Zm8.1.3,5.7-5.2a13.56,13.56,0,0,1-.8,19.1l-5.2-5.7a5.92,5.92,0,0,0,.3-8.2Zm-.4,8.2,5.2,5.7a13.56,13.56,0,0,1-19.1-.8h0l5.7-5.2A5.92,5.92,0,0,0,27.4,127.7Zm-7.7-8.5a5.74,5.74,0,0,0-.3,8.2l-5.7,5.2a13.56,13.56,0,0,1,.8-19.1Zm3.8-1.6a5.8,5.8,0,1,1-5.8,5.8A5.87,5.87,0,0,1,23.5,117.6Z" style="fill:#fff;stroke:#000;stroke-miterlimit:10"/><path class="coronaTopBuccal" d="M19.7,119.2l-5.2-5.7a13.56,13.56,0,0,1,19.1.8l-5.7,5.2A5.83,5.83,0,0,0,19.7,119.2Z" style="fill:#3535ed"/><path class="coronaTopMedial" d="M27.8,119.5l5.7-5.2a13.56,13.56,0,0,1-.8,19.1l-5.2-5.7a5.92,5.92,0,0,0,.3-8.2Z" style="fill:#3535ed"/><path class="coronaTopLingual" d="M27.4,127.7l5.2,5.7a13.56,13.56,0,0,1-19.1-.8h0l5.7-5.2A5.92,5.92,0,0,0,27.4,127.7Z" style="fill:#3535ed"/><path class="coronaTopDistal" d="M19.7,119.2a5.74,5.74,0,0,0-.3,8.2l-5.7,5.2a13.56,13.56,0,0,1,.8-19.1Z" style="fill:#3535ed"/><path class="coronaTopOclusial" d="M23.5,117.6a5.8,5.8,0,1,1-5.8,5.8A5.87,5.87,0,0,1,23.5,117.6Z" style="fill:#3535ed"/><path class="silant" d="M15.6,131.5a19,19,0,0,0,6.9,1.2c5.8,0,9.2-2.2,9.2-5.4,0-2.7-2.2-4.2-6.4-5.4-3.2-.9-4.7-1.6-4.7-3.1,0-1.3,1.5-2.5,4.1-2.5a13.11,13.11,0,0,1,5,1l1.1-2.4a15.66,15.66,0,0,0-6-1.1c-5.3,0-8.4,2.4-8.4,5.3,0,2.2,2.1,4,6.5,5.1,3.3.9,4.5,1.8,4.5,3.3s-1.5,2.7-4.8,2.7a16.09,16.09,0,0,1-5.9-1.3Z" style="fill:#3535ed"/><path class="crown" d="M4.2,146.4c3.5-3.9,7.9-5.4,13.5-3.6,2.3,1.2,5.1.7,8.2-1.2,4.6-1.3,8.4-.9,11.4,1.6.3.1.4.4.6.6,5.2,8.6,1,14.1-3.8,19.4a5.22,5.22,0,0,1-1.9,1.4,35.33,35.33,0,0,1-24-.1,4,4,0,0,1-1.8-1.3c-2.6-3.4-3.8-7.6-3.8-12.7A5.74,5.74,0,0,1,4.2,146.4Zm15-55.6a16.72,16.72,0,0,0,3.2,9.9l.9-.6A26,26,0,0,1,19.2,90.8ZM7.9,95.9a7.46,7.46,0,0,1,.7,1.2c1.4,3,3.8,4.2,7.5,2.6,2.5-.9,4.8-.9,6.8.7A15.4,15.4,0,0,0,34,102.3a9.75,9.75,0,0,0,6.4-6.4A30.12,30.12,0,0,0,41.5,88a10.64,10.64,0,0,0-2.3-7.1C30.6,72,19.5,75.2,15.7,77c-1.9,1.8-4.6,1.3-7.4.3-1.8-.2-2.5,1.3-2.8,3.6C5.2,87.2,5.4,92.8,7.9,95.9Zm20,23.6,5.7-5.2a13.56,13.56,0,0,0-19.1-.8l5.2,5.7A5.83,5.83,0,0,1,27.9,119.5Zm-.1,0a5.92,5.92,0,0,1-.3,8.2l5.2,5.7a13.56,13.56,0,0,0,.8-19.1l-5.7,5.2Zm-8.6,7.9-5.7,5.2h0a13.56,13.56,0,0,0,19.1.8l-5.2-5.7A5.92,5.92,0,0,1,19.2,127.4Zm-4.7-13.9a13.56,13.56,0,0,0-.8,19.1l5.7-5.2a5.74,5.74,0,0,1,.3-8.2Zm3.2,9.9a5.8,5.8,0,1,0,5.8-5.8A5.87,5.87,0,0,0,17.7,123.4Z" style="fill:#fff;stroke:#000;stroke-miterlimit:10;stroke-width:0.5px"/><path class="braces" d="M20.6,88.4a2,2,0,0,0,1.1.2h1.1a3.55,3.55,0,0,0,1-.2h0v2.7a3.55,3.55,0,0,0-1-.2H21.6a4.25,4.25,0,0,0-1.1.2l.1-2.7h0m4.6-3.9H24.1c-.4.1-.7.4-.6.8v.5a.77.77,0,0,1-.7.8H21.7a.77.77,0,0,1-.7-.8v-.5a.76.76,0,0,0-.6-.8H19.3a.77.77,0,0,0-.7.8v3.8H0v1.3H18.6v3.8a.77.77,0,0,0,.7.8h1.1c.4-.1.7-.4.6-.8v-.6a.77.77,0,0,1,.7-.8h1.1a.77.77,0,0,1,.7.8v.5a.76.76,0,0,0,.6.8h1.1a.77.77,0,0,0,.7-.8V90.3H44.4V89H25.8V85.2a.73.73,0,0,0-.6-.7Z"/><path class="gum" d="M44.4,77h-9c-17.5-5-20-1-22,1A86.35,86.35,0,0,0,0,77" style="fill:none;stroke:#ffb900;stroke-linejoin:round;stroke-width:3px"/><path class="paradontit1" d="M44.4,77H40.1a5.07,5.07,0,0,1-1.3-.2C33.5,75.1,31.1,72,21.5,72,16,72,10,75.3,5.1,76.8a5.85,5.85,0,0,1-1.3.2H0" style="fill:none;stroke:#ff822e;stroke-linejoin:round;stroke-width:3px"/><path class="paradontit2" d="M44.4,77H40.2a5.9,5.9,0,0,1-1.4-.2c-5.4-2-8.7-8.8-18.3-8.8-5.4,0-10.3,6.7-15,8.7a3.61,3.61,0,0,1-1.8.3H0" style="fill:none;stroke:#f9610d;stroke-linejoin:round;stroke-width:3px"/><path class="paradontit3" d="M44.4,77H40.2a5.9,5.9,0,0,1-1.4-.2c-5.4-2-9-14.2-18.6-14.2-5.4,0-10,12.1-14.7,14.1a3.61,3.61,0,0,1-1.8.3H0" style="fill:none;stroke:#f9610d;stroke-linejoin:round;stroke-width:3px"/><path class="paradontit4" d="M44.4,77h-4a4.19,4.19,0,0,1-2.8-1C33,72,31.1,57.7,22.2,57.7c-8.4,0-12,13.1-15.6,17.6A4.72,4.72,0,0,1,3.1,77H0" style="fill:none;stroke:#f75403;stroke-linejoin:round;stroke-width:3px"/><path class="periodontit" d="M25.9,20.9a4.5,4.5,0,1,1-4.5,4.5A4.55,4.55,0,0,1,25.9,20.9ZM14,20.9a4.5,4.5,0,1,1-4.5,4.5A4.48,4.48,0,0,1,14,20.9Z" style="fill:#3535ed"/></g></g></g></svg>