<svg xmlns="http://www.w3.org/2000/svg" viewBox="0 0 36.3 179.9"><title>21tooth</title><g class="Слой_2" data-name="Слой 2"><g class="Слой_1-2" data-name="Слой 1"><g class="_21" data-name="21"><path class="background" d="M36.3,0H.4V179.9H36.3Z" style="fill:#9fdaff"/><path class="bone" d="M36.3,0H.4V77H36.3Z" style="fill:#de82a7"/><path class="bridge" d="M.4,151.6v-4l35.9.1v4Zm35.9-26v-4H.4v4Zm0-27v-4H.4v4Z" style="fill:#3535ed"/><path class="root" d="M29.5,72.1a355.25,355.25,0,0,1-4.8-50.5c-.7-5.8-2.5-7.1-6-1.7-3,2.4-3.9,8.2-4.1,15.2,0,.6-.1,1.1-.1,1.7L8.8,74.9" style="fill:#f8edc8;stroke:#292320;stroke-miterlimit:10;stroke-width:0.25px"/><path class="rootCanal" d="M16.7,64l3.7-.9h.3c3.8,1,5.9-.5,2.1-5-2.1,0-.7-28.7-.3-40.5a.91.91,0,0,0-1.8-.2c-3,11.8-4.1,38.9-4.4,40.3l-.5,5.6A.7.7,0,0,0,16.7,64Z" style="fill:#3535ed;stroke:#201600;stroke-miterlimit:10;stroke-width:0.25px"/><path class="implant" d="M11.6,40l14-2.2a1.39,1.39,0,0,0-.7-.8,15.23,15.23,0,0,0-12.2,0,2,2,0,0,0-1,1.6Zm0,4.1L26,41.8l-.1-2.5L11.6,41.6ZM11.4,48l14.7-2.3L26,43.2,11.5,45.5Zm-.1,4,14.9-2.3V47.3L11.4,49.6Zm-.2,4.2,15.2-2.4-.1-2.5-15,2.3Zm0,4,15.4-2.4-.1-2.5L11.1,57.7ZM11,65.3l15.8-2.4-.1-2.5L11,62.8v2.5Zm-.2.4h16l-.1-2.6L10.8,65.6ZM9.3,70.6h19V68.7c0-.2-.1-.3-.2-.6a.91.91,0,0,0-.7-.3H10.3a.91.91,0,0,0-.7.3.85.85,0,0,0-.2.6Zm-.5,4.1h0a.94.94,0,0,0,1,1H27.9a1.08,1.08,0,0,0,1-1V73.5c0-.5-.1-.7-.4-.9-.1,0-.2-.1-.4-.1H10a1.08,1.08,0,0,0-1,1Z" style="fill:#3535ed"/><path class="rootMusk" d="M29.5,72.1a355.25,355.25,0,0,1-4.8-50.5c-.7-5.8-2.5-7.1-6-1.7-3,2.4-3.9,8.2-4.1,15.2,0,.6-.1,1.1-.1,1.7L8.8,74.9" style="fill:#f8edc8;stroke:#292320;stroke-miterlimit:10;stroke-width:0.25px"/><path class="coronaLingual" d="M21.9,174.3a97.38,97.38,0,0,0,9.8-22.7c.8-4.3.3-8.2-2.5-8.8-6.9-1.1-13.8-.9-20.6-.9-3.6.2-5.7,1.8-5,6.2a109.54,109.54,0,0,0,6.5,23.2,10.57,10.57,0,0,0,3.3,4.5c2.4,2,4.6,2,6.6.7A13,13,0,0,0,21.9,174.3Z" style="fill:#fff;stroke:#000;stroke-miterlimit:10;stroke-width:0.25px"/><path class="coronaLingualIncisalDistal" d="M29.2,142.7a50.75,50.75,0,0,0-6.7-.7v6.5H32C32.1,145.5,31.3,143.1,29.2,142.7Z" style="fill:#3535ed"/><path class="coronaLingualIncisalMiddle" d="M22.5,141.9c-3.5-.2-6.9-.2-10.3-.2v6.7H22.5Z" style="fill:#3535ed"/><path class="coronaLingualIncisionMesial" d="M12.3,141.7H8.7c-3.6.2-5.7,1.8-5,6.2l.1.5h8.5Z" style="fill:#3535ed"/><path class="coronaLingualMiddleDistal" d="M22.5,148.4v12.3h6c1.2-3,2.2-6.1,3.2-9.3a29.09,29.09,0,0,0,.4-3.1l-9.6.1Z" style="fill:#3535ed"/><path class="coronaLingualMiddleMiddle" d="M22.5,148.4H12.2v12.3H22.5Z" style="fill:#3535ed"/><path class="coronaLingualMiddleMesial" d="M3.6,148.4a100.06,100.06,0,0,0,2.9,12.3h5.7V148.4Z" style="fill:#3535ed"/><path class="coronaLingualCervicalDistal" d="M28.5,160.7h-6v12.4A88.68,88.68,0,0,0,28.5,160.7Z" style="fill:#3535ed"/><path class="coronaLingualCervicalMiddle" d="M12.2,160.5v13.8l1.2,1.2c2.4,2,4.6,2,6.6.7a8,8,0,0,0,2-2.1l.6-1V160.7H12.2v-.2Z" style="fill:#3535ed"/><path class="coronaLingualCervicalMesial" d="M6.5,160.7a98.38,98.38,0,0,0,3.6,10.4,10.32,10.32,0,0,0,2.1,3.3V160.6l-5.7.1Z" style="fill:#3535ed"/><path class="coronaLabial" d="M20.3,104.2c-2.6,0-5.4-.2-8.4-.3-1.1-.1-2.1-.1-3.2-.2h0a3.92,3.92,0,0,1-2.6-.9c-2.8-2.2-3.7-5.7-2.6-10.4A131.52,131.52,0,0,0,9.3,72c2.3-5.4,6.3-8.7,10.6-8.7s8,3.2,9.7,8.7a79.56,79.56,0,0,0,3.5,12.6,20,20,0,0,1,1,10.6c-.8,4.2-2.8,7.2-5.6,8.2a35.92,35.92,0,0,1-8.2.8Zm-.4-40.8c4,0,7.8,2.9,9.6,8.6A78.44,78.44,0,0,0,33,84.6a19.86,19.86,0,0,1,1,10.5c-.8,4.2-2.8,7.1-5.5,8.1a29.87,29.87,0,0,1-8.2.9c-3.5,0-7.4-.3-11.6-.5a3.84,3.84,0,0,1-2.5-.9c-2.8-2.2-3.7-5.6-2.6-10.3A140.16,140.16,0,0,0,9.4,72c2.4-5.7,6.5-8.6,10.5-8.6m0-.3c-4.4,0-8.5,3.3-10.8,8.7h0A134.72,134.72,0,0,1,3.3,92.2C2.2,97,3.1,100.5,6,102.8a4.27,4.27,0,0,0,2.7,1c1.1.1,2.2.1,3.2.2q4.5.3,8.4.3a31.3,31.3,0,0,0,8.3-.9c2.8-1,4.9-4.1,5.7-8.3a20,20,0,0,0-1-10.6,76.73,76.73,0,0,1-3.5-12.6c-1.8-5.5-5.4-8.8-9.9-8.8Z" style="fill:none"/><path class="coronaLabialIncisalDistal" d="M25.1,91.8v12.1a20.54,20.54,0,0,0,3.4-.7c2.7-1,4.7-3.9,5.5-8.1a18.41,18.41,0,0,0,.3-3.3Z" style="fill:#3535ed"/><path class="coronaLabialIncisalMiddle" d="M11.8,91.8v12a73.85,73.85,0,0,0,13.3,0v-12Z" style="fill:#3535ed"/><path class="coronaLabialIncisionMesial" d="M3.8,91.8c-.1.2-.1.4-.2.6-1.1,4.7-.2,8.1,2.6,10.3a3.84,3.84,0,0,0,2.5.9l3.1.2v-12Z" style="fill:#3535ed"/><path class="coronaLabialMiddleDistal" d="M33,84.7c-.4-1.2-.8-2.3-1.2-3.5H25.1V91.9h9.2A19.54,19.54,0,0,0,33,84.7Z" style="fill:#3535ed"/><path class="coronaLabialMiddleMiddle" d="M25.1,80.7H11.8V91.9H25.1Z" style="fill:#3535ed"/><path class="coronaLabialMiddleMesial" d="M11.8,81.2H7.2c-1,3.6-2.1,7.2-3.4,10.7h8Z" style="fill:#3535ed"/><path class="coronaLabialCervicalDistal" d="M29.5,72.1a13,13,0,0,0-4.3-6.7V81.2h6.6A71.3,71.3,0,0,1,29.5,72.1Z" style="fill:#3535ed"/><path class="coronaLabialCervicalMiddle" d="M25.2,65.4c-4.1-3.2-9.5-2.3-13.3,2.5V81.1H25.2Z" style="fill:#3535ed"/><path class="coronaLabialCervicalMesial" d="M12,68a17.55,17.55,0,0,0-2.4,4.2,84.48,84.48,0,0,1-2.2,9H12Z" style="fill:#3535ed"/><path class="veneer" d="M30.6,93.5c-3.3,1.3-3.8,1.2-6-1.9l-1.5-2.1.9,2.4c1.3,3.6,1.1,4.1-1.7,6.5L20.4,100l2.2-.9c3.3-1.3,3.8-1.2,6,1.9l1.5,2-.9-2.4c-1.2-3.6-1.1-4.1,1.7-6.5l1.9-1.6Zm-3-13.8c-2.1.9-2.3.8-3.7-1.1l-1.5-2.1.9,2.4c.9,2.1.7,2.4-1,3.9l-1.9,1.6,2.2-.9c2.1-.9,2.3-.8,3.7,1.1l1.5,2.1-.9-2.4c-.7-2.3-.6-2.5,1.1-4l1.9-1.6ZM2.3,94.5l2.3-1.1c2.1-.9,2.3-.8,3.7,1.1l1.5,2.1-.9-2.4c-.9-2.1-.7-2.4,1-3.9l1.9-1.6-2.3.9c-2.1.9-2.3.8-3.7-1.1L4.3,86.4l.9,2.4c.9,2.3.7,2.5-1,4L2.3,94.5Z" style="fill:#3535ed"/><path class="coronaTop" d="M13.9,119.5l-5.7-5.2a13.56,13.56,0,0,1,19.1-.8l-5.2,5.7A5.83,5.83,0,0,0,13.9,119.5Zm0,0a5.83,5.83,0,0,0,.3,8.2L9,133.4a13.56,13.56,0,0,1-.8-19.1l5.7,5.2Zm8.6,7.9,5.7,5.2h0a13.56,13.56,0,0,1-19.1.8l5.2-5.7A5.92,5.92,0,0,0,22.5,127.4Zm4.9-13.9a13.56,13.56,0,0,1,.8,19.1l-5.7-5.2a5.83,5.83,0,0,0-.4-8.2Zm-4.5,12.9a5.78,5.78,0,1,1-2.1-7.9A5.74,5.74,0,0,1,22.9,126.4Z" style="fill:#fff;stroke:#000;stroke-miterlimit:10"/><path class="coronaTopBuccal" d="M22.1,119.2l5.2-5.7a13.56,13.56,0,0,0-19.1.8l5.7,5.2A5.83,5.83,0,0,1,22.1,119.2Z" style="fill:#3535ed"/><path class="coronaTopMedial" d="M13.9,119.5l-5.7-5.2A13.56,13.56,0,0,0,9,133.4l5.2-5.7a5.83,5.83,0,0,1-.3-8.2Z" style="fill:#3535ed"/><path class="coronaTopLingual" d="M14.3,127.7l-5.2,5.7a13.56,13.56,0,0,0,19.1-.8h0l-5.7-5.2A5.92,5.92,0,0,1,14.3,127.7Z" style="fill:#3535ed"/><path class="coronaTopDistal" d="M22.1,119.2a5.83,5.83,0,0,1,.4,8.2l5.7,5.2a13.56,13.56,0,0,0-.8-19.1Z" style="fill:#3535ed"/><path class="coronaTopOclusial" d="M20.7,118.7a5.78,5.78,0,1,0,2.1,7.9A5.74,5.74,0,0,0,20.7,118.7Z" style="fill:#3535ed"/><path class="silant" d="M26.2,131.5a19,19,0,0,1-6.9,1.2c-5.8,0-9.2-2.2-9.2-5.4,0-2.7,2.2-4.2,6.4-5.4,3.2-.9,4.7-1.6,4.7-3.1,0-1.3-1.5-2.5-4.1-2.5a13.11,13.11,0,0,0-5,1L11,114.9a15.66,15.66,0,0,1,6-1.1c5.3,0,8.4,2.4,8.4,5.3,0,2.2-2.1,4-6.5,5.1-3.3.9-4.5,1.8-4.5,3.3s1.5,2.7,4.8,2.7a16.09,16.09,0,0,0,5.9-1.3Z" style="fill:#3535ed"/><path class="crown" d="M20,176.5c-2,1.3-4.2,1.3-6.6-.7a10.57,10.57,0,0,1-3.3-4.5,109.54,109.54,0,0,1-6.5-23.2c-.7-4.4,1.4-6,5-6.2,6.8,0,13.7-.2,20.6.9,2.8.6,3.3,4.5,2.5,8.8a97.38,97.38,0,0,1-9.8,22.7A13,13,0,0,1,20,176.5ZM3.6,92.4c-1.1,4.7-.2,8.1,2.6,10.3a3.84,3.84,0,0,0,2.5.9c7.7.4,14.6,1.1,19.8-.4,2.7-1,4.7-3.9,5.5-8.1a19.86,19.86,0,0,0-1-10.5A78.44,78.44,0,0,1,29.5,72C25.9,60.5,14.2,60.6,9.4,72A140.16,140.16,0,0,1,3.6,92.4Zm18.5,26.8,5.2-5.7a13.56,13.56,0,0,0-19.1.8l5.7,5.2A5.83,5.83,0,0,1,22.1,119.2Zm-8.2.3-5.7-5.2A13.56,13.56,0,0,0,9,133.4l5.2-5.7a5.83,5.83,0,0,1-.3-8.2Zm.4,8.2-5.2,5.7a13.56,13.56,0,0,0,19.1-.8h0l-5.7-5.2A5.92,5.92,0,0,1,14.3,127.7Zm7.8-8.5a5.83,5.83,0,0,1,.4,8.2l5.7,5.2a13.56,13.56,0,0,0-.8-19.1Zm-1.3-.7a5.78,5.78,0,1,0,2.1,7.9A5.74,5.74,0,0,0,20.8,118.5Z" style="fill:#fff;stroke:#201600;stroke-miterlimit:10;stroke-width:0.25px"/><path class="braces" d="M20,88.4h0v2.7a2,2,0,0,0-1.1-.2H17.7a3.55,3.55,0,0,0-1,.2V88.4h0a3.55,3.55,0,0,0,1,.2h1.2a4.25,4.25,0,0,0,1.1-.2m-4.6-3.9a.64.64,0,0,0-.6.8v3.8H.4v1.3H14.7v3.8c0,.4.3.8.6.8h1.1c.4-.1.7-.4.6-.8v-.6a.77.77,0,0,1,.7-.8h1.2a.64.64,0,0,1,.6.8v.5a.76.76,0,0,0,.6.8h1.1a.64.64,0,0,0,.6-.8V90.3H36.1V89H21.8V85.2c0-.4-.3-.8-.6-.8H20.1c-.4.1-.7.4-.6.8v.5c0,.4-.3.8-.6.8H17.8a.64.64,0,0,1-.6-.8v-.5a.76.76,0,0,0-.6-.8l-1.2.1Z"/><path class="gum" d="M.4,77H7.8S11,62.9,20,62.9,30.8,76.5,30.8,76.5h5.5" style="fill:none;stroke:#ffb900;stroke-linejoin:round;stroke-width:3px"/><path class="paradontit1" d="M.4,77H4.3a4.39,4.39,0,0,0,4.3-3.3C10.1,68.5,12.3,59,18.9,59c6.4,0,10.4,8.7,11.4,13.9a4.41,4.41,0,0,0,4.4,3.6h1.6" style="fill:none;stroke:#ff822e;stroke-linejoin:round;stroke-width:3px"/><path class="paradontit2" d="M.4,77H1.9a4.54,4.54,0,0,0,4.3-3.1c2-6.3,6-18.9,12.9-18.9S31,67.1,32.6,73.5a3.74,3.74,0,0,0,3.7,3" style="fill:none;stroke:#f9610d;stroke-linejoin:round;stroke-width:3px"/><path class="paradontit3" d="M.4,77H1.9a4.54,4.54,0,0,0,4.3-3.1c2-6.3,6-24.2,12.9-24.2S31,67.1,32.6,73.5a3.67,3.67,0,0,0,3.7,3" style="fill:none;stroke:#f9610d;stroke-linejoin:round;stroke-width:3px"/><path class="paradontit4" d="M.4,77H1.5a4.42,4.42,0,0,0,4.4-3.7c1.6-8.8-.2-27.9,12.8-28.9s12.4,20.1,14,28.9a3.66,3.66,0,0,0,3.6,3.2" style="fill:none;stroke:#f75403;stroke-linejoin:round;stroke-width:3px"/><path class="periodontit" d="M22.8,8.9a4.5,4.5,0,1,0,4.5,4.5A4.48,4.48,0,0,0,22.8,8.9Z" style="fill:#3535ed"/></g></g></g></svg>