<svg xmlns="http://www.w3.org/2000/svg" viewBox="0 0 28.5 180"><title>22tooth</title><g class="Слой_2" data-name="Слой 2"><g class="Слой_1-2" data-name="Слой 1"><g class="_22" data-name="22"><path class="background" d="M28.5,0H0V180H28.5V0Z" style="fill:#9fdaff"/><path class="bone" d="M28.5,0H0V77.1H28.5V0Z" style="fill:#de82a7"/><path class="bridge" d="M0,151.6v-4l28.5.1v4Zm28.5-25.9v-4L0,121.6v4Zm0-27v-4L0,94.6v4Z" style="fill:#3535ed"/><path class="root" d="M23.1,76c-.7-21.7,1.8-39.7-3-51.4a6.13,6.13,0,0,0-1.5-2.3c-1.4-1.3-2.3-1-3,.6a7.91,7.91,0,0,0-.3,4.3c2.6,13-3.1,29.6-5,47.2" style="fill:#f8edc8;stroke:#292320;stroke-miterlimit:10;stroke-width:0.25px"/><path class="rootCanal" d="M20.3,73.2c-2.2-.2-3.5-.3-3.5-.3C11.5,74.5,7,74.4,12.1,68c9.1-11.9,3.7-46.1,4.8-46.6,3.2-1.3,4.3,42.2,3.4,44.9l1.2,5.4A1.11,1.11,0,0,1,20.3,73.2Z" style="fill:#3535ed;stroke:#201600;stroke-miterlimit:10;stroke-width:0.25px"/><path class="implant" d="M7.3,40l14-2.2a1.39,1.39,0,0,0-.7-.8A15.23,15.23,0,0,0,8.4,37a2,2,0,0,0-1,1.6Zm0,4,14.4-2.3-.1-2.5L7.3,41.5Zm-.2,4,14.7-2.3-.1-2.5L7.2,45.5ZM7,52l14.9-2.3V47.3L7.1,49.6Zm-.2,4.1L22,53.7l-.1-2.5-15,2.3Zm-.1,4,15.6-2.4-.1-2.5L6.9,57.6Zm0,5,15.8-2.4-.1-2.4L6.7,62.7v2.4Zm-.2.7h16l-.1-2.6L6.5,65.7ZM5.1,70.5H24V68.6a1.45,1.45,0,0,0-.2-.7.91.91,0,0,0-.7-.3H5.9a.91.91,0,0,0-.7.3,1.85,1.85,0,0,0-.2.7Zm-.8,4.2a.94.94,0,0,0,1,1H23.4a1.08,1.08,0,0,0,1-1V73.5c0-.5-.1-.7-.4-.9-.1,0-.2-.1-.4-.1H5.5a.6.6,0,0,0-.4.1,1.19,1.19,0,0,0-.5.9Z" style="fill:#3535ed"/><path class="rootMusk" d="M23.1,76c-.7-21.7,1.8-39.7-3-51.4a6.13,6.13,0,0,0-1.5-2.3c-1.4-1.3-2.3-1-3,.6a7.91,7.91,0,0,0-.3,4.3c2.6,13-3.1,29.6-5,47.2" style="fill:#f8edc8;stroke:#292320;stroke-miterlimit:10;stroke-width:0.25px"/><path class="coronaLingual" d="M16.1,173.2a3.47,3.47,0,0,1-4.4-.1,7.11,7.11,0,0,1-2.3-2.6c-3.7-6.9-6.3-23.6-6.3-23.6v-.1a8.08,8.08,0,0,1,0-3.1,2.76,2.76,0,0,1,1.2-1.9,5,5,0,0,1,2.7-.4l12.1,1.1a5,5,0,0,1,4,3.5,7.61,7.61,0,0,1,.3,2.1c-1.6,8.1-3.4,16.7-5.9,22.8A3.64,3.64,0,0,1,16.1,173.2Z" style="fill:#fff;stroke:#000;stroke-miterlimit:10;stroke-width:0.5px"/><path class="coronaLingualIncisalDistal" d="M22.8,151.7H16.9v-9.4l2.2.2a5,5,0,0,1,4,3.5,7.61,7.61,0,0,1,.3,2.1Z" style="fill:#3535ed"/><path class="coronaLingualIncisalMiddle" d="M9.7,151.7v-10l7.3.6v9.4Z" style="fill:#3535ed"/><path class="coronaLingualIncisionMesial" d="M4.1,151.7c-.5-2.8-.9-4.8-.9-4.8v-.1a8.08,8.08,0,0,1,0-3.1,2.76,2.76,0,0,1,1.2-1.9,5,5,0,0,1,2.7-.4l2.6.2v10Z" style="fill:#3535ed"/><path class="coronaLingualMiddleDistal" d="M19.6,165.4H17V151.6h5.9C21.9,156.5,20.8,161.2,19.6,165.4Z" style="fill:#3535ed"/><path class="coronaLingualMiddleMiddle" d="M17,151.7H9.8v13.8H17Z" style="fill:#3535ed"/><path class="coronaLingualMiddleMesial" d="M7.4,165.4A126.35,126.35,0,0,1,4,151.6H9.8v13.8Z" style="fill:#3535ed"/><path class="coronaLingualCervicalDistal" d="M17.7,171a7.46,7.46,0,0,1-.7,1.2v-6.8h2.6C19,167.4,18.4,169.3,17.7,171Z" style="fill:#3535ed"/><path class="coronaLingualCervicalMiddle" d="M16.1,173.1a3.47,3.47,0,0,1-4.4-.1,6.06,6.06,0,0,1-1.9-2v-5.5H17v6.8A6.47,6.47,0,0,1,16.1,173.1Z" style="fill:#3535ed"/><path class="coronaLingualCervicalMesial" d="M9.4,170.4a30.68,30.68,0,0,1-2-5H9.8V171A2.09,2.09,0,0,1,9.4,170.4Z" style="fill:#3535ed"/><path class="coronaLabial" d="M10.6,72.8c3.3-3.3,6.4-3.8,9.1-1a9.54,9.54,0,0,1,2.7,6.4,106.94,106.94,0,0,0,1,12.7,11.08,11.08,0,0,1,.2,1.9l.1,2.9a12.53,12.53,0,0,1-1.2,5.4,2.42,2.42,0,0,1-1.8,1.3,51.59,51.59,0,0,1-13.6.7c-2.3-1-3-2.7-2.9-5.1L7.8,78.1A10.15,10.15,0,0,1,10.6,72.8Z" style="fill:#fff;stroke:#000;stroke-miterlimit:10;stroke-width:0.5px"/><path class="coronaLabialIncisalDistal" d="M19.2,97.9v4.7l1.5-.2a3,3,0,0,0,1.8-1.3,11.24,11.24,0,0,0,1-3.1Z" style="fill:#3535ed"/><path class="coronaLabialIncisalMiddle" d="M10.5,98v5.3a43.43,43.43,0,0,0,8.8-.6V98Z" style="fill:#3535ed"/><path class="coronaLabialIncisionMesial" d="M4.3,98h0c-.1,2.5.6,4.1,2.9,5.1,1.1.1,2.3.1,3.4.1V98Z" style="fill:#3535ed"/><path class="coronaLabialMiddleDistal" d="M23.7,95.7l-.1-2.9a12.25,12.25,0,0,0-.2-1.9c-.3-2.3-.6-4.6-.7-6.9H19.3V98h4.2A19.53,19.53,0,0,0,23.7,95.7Z" style="fill:#3535ed"/><path class="coronaLabialMiddleMiddle" d="M19.3,84H10.5V98h8.8Z" style="fill:#3535ed"/><path class="coronaLabialMiddleMesial" d="M6.8,84,4.3,98h6.2V84Z" style="fill:#3535ed"/><path class="coronaLabialCervicalDistal" d="M22.4,78.2a9.54,9.54,0,0,0-2.7-6.4,1,1,0,0,0-.5-.4V84h3.4C22.6,82.1,22.5,80.1,22.4,78.2Z" style="fill:#3535ed"/><path class="coronaLabialCervicalMiddle" d="M10.6,72.8h0L10.5,84h8.8V71.4C16.6,69.1,13.7,69.7,10.6,72.8Z" style="fill:#3535ed"/><path class="coronaLabialCervicalMesial" d="M8,78.2,6.9,84.1h3.8V73A10.88,10.88,0,0,0,8,78.2Z" style="fill:#3535ed"/><path class="veneer" d="M22.1,97.9c-2.7,1-3.1.9-4.9-1.4L16,94.9l.7,1.8c1,2.7.9,3.1-1.4,4.9l-1.6,1.2,1.9-.7c2.7-1,3.1-.9,4.9,1.4l1.2,1.5-.7-1.8c-1-2.7-.9-3.1,1.4-4.9L24,97.1ZM20.8,87.5c-1.6.7-1.8.6-2.9-.8l-1.2-1.6.7,1.8c.7,1.6.6,1.8-.8,2.9L15,91l1.8-.7c1.7-.7,1.9-.6,3,.8L21,92.7l-.7-1.8c-.7-1.7-.6-1.9.8-3l1.6-1.2Zm-10,2.4c-1.6.7-1.8.6-2.9-.8L6.7,87.5l.7,1.8c.7,1.7.6,1.9-.8,3L5,93.5l1.8-.7c1.7-.7,1.9-.6,3,.8L11,95.2l-.7-1.8c-.7-1.6-.6-1.8.8-2.9l1.6-1.2Z" style="fill:#3535ed"/><path class="coronaTop" d="M9.8,119.6l-5.5-5a13.08,13.08,0,0,1,18.4-.8l-5,5.5A5.65,5.65,0,0,0,9.8,119.6Zm.3,8-5,5.5h0a13.21,13.21,0,0,1-.8-18.5l5.5,5A5.59,5.59,0,0,0,10.1,127.6Zm8-.3,5.5,5h0a13.08,13.08,0,0,1-18.4.8l5-5.5A5.75,5.75,0,0,0,18.1,127.3Zm4.7-13.6a13.21,13.21,0,0,1,.8,18.5l-5.5-5a5.65,5.65,0,0,0-.4-7.9Zm-3.3,9.7a5.6,5.6,0,1,1-5.6-5.6A5.59,5.59,0,0,1,19.5,123.4Z" style="fill:#fff;stroke:#000;stroke-miterlimit:10"/><path class="coronaTopBuccal" d="M17.7,119.3l5-5.5a13.08,13.08,0,0,0-18.4.8l5.5,5A5.65,5.65,0,0,1,17.7,119.3Z" style="fill:#3535ed"/><path class="coronaTopMedial" d="M9.8,119.6l-5.5-5a13.21,13.21,0,0,0,.8,18.5h0l5-5.5A5.59,5.59,0,0,1,9.8,119.6Z" style="fill:#3535ed"/><path class="coronaTopLingual" d="M10.2,127.6l-5,5.5a13.08,13.08,0,0,0,18.4-.8h0l-5.5-5A5.75,5.75,0,0,1,10.2,127.6Z" style="fill:#3535ed"/><path class="coronaTopDistal" d="M17.7,119.3a5.65,5.65,0,0,1,.4,7.9l5.5,5a13.21,13.21,0,0,0-.8-18.5Z" style="fill:#3535ed"/><path class="coronaTopOclusial" d="M13.9,117.8a5.6,5.6,0,1,0,5.6,5.6A5.59,5.59,0,0,0,13.9,117.8Z" style="fill:#3535ed"/><path class="silant" d="M22.9,131.5a19,19,0,0,1-6.9,1.2c-5.8,0-9.2-2.2-9.2-5.4,0-2.7,2.2-4.2,6.4-5.4,3.2-.9,4.7-1.6,4.7-3.1,0-1.3-1.5-2.5-4.1-2.5a13.11,13.11,0,0,0-5,1l-1.1-2.4a15.66,15.66,0,0,1,6-1.1c5.3,0,8.4,2.4,8.4,5.3,0,2.2-2.1,4-6.5,5.1-3.3.9-4.5,1.8-4.5,3.3s1.5,2.7,4.8,2.7a16.09,16.09,0,0,0,5.9-1.3Z" style="fill:#3535ed"/><path class="crown" d="M16.1,173.2a3.47,3.47,0,0,1-4.4-.1,7.11,7.11,0,0,1-2.3-2.6c-3.7-6.9-6.3-23.6-6.3-23.6v-.1a8.08,8.08,0,0,1,0-3.1,2.76,2.76,0,0,1,1.2-1.9,5,5,0,0,1,2.7-.4l12.1,1.1a5,5,0,0,1,4,3.5,7.61,7.61,0,0,1,.3,2.1c-1.6,8.1-3.4,16.7-5.9,22.8A3.64,3.64,0,0,1,16.1,173.2ZM7.8,78.1,4.2,98c-.1,2.4.6,4.1,2.9,5.1a51.59,51.59,0,0,0,13.6-.7,2.42,2.42,0,0,0,1.8-1.3,12.53,12.53,0,0,0,1.2-5.4l-.1-2.9a11.08,11.08,0,0,0-.2-1.9,106.94,106.94,0,0,1-1-12.7,9.54,9.54,0,0,0-2.7-6.4c-2.7-2.8-5.8-2.3-9.1,1A10.15,10.15,0,0,0,7.8,78.1Zm9.9,41.2,5-5.5a13.08,13.08,0,0,0-18.4.8l5.5,5A5.65,5.65,0,0,1,17.7,119.3Zm-7.9.3-5.5-5a13.21,13.21,0,0,0,.8,18.5h0l5-5.5A5.59,5.59,0,0,1,9.8,119.6Zm.4,8-5,5.5a13.08,13.08,0,0,0,18.4-.8h0l-5.5-5A5.75,5.75,0,0,1,10.2,127.6Zm7.5-8.3a5.65,5.65,0,0,1,.4,7.9l5.5,5a13.21,13.21,0,0,0-.8-18.5Zm-3.8-1.5a5.6,5.6,0,1,0,5.6,5.6A5.59,5.59,0,0,0,13.9,117.8Z" style="fill:#fff;stroke:#000;stroke-miterlimit:10;stroke-width:0.5px"/><path class="braces" d="M15.9,88.4h0v2.7a2,2,0,0,0-1.1-.2H13.6a3.55,3.55,0,0,0-1,.2V88.4h0a3.55,3.55,0,0,0,1,.2h1.2a4.25,4.25,0,0,0,1.1-.2m-4.6-3.9a.64.64,0,0,0-.6.8v3.8H.1v1.3H10.7v3.8c0,.4.3.8.6.8h1.1c.4-.1.7-.4.6-.8v-.6c0-.4.3-.8.6-.8h1.2a.64.64,0,0,1,.6.8v.5a.76.76,0,0,0,.6.8h1.1a.77.77,0,0,0,.7-.8V90.3H28.4V89H17.8V85.2a.77.77,0,0,0-.7-.8H16c-.4.1-.7.4-.6.8v.5c0,.4-.3.8-.6.8H13.7a.64.64,0,0,1-.6-.8v-.5a.76.76,0,0,0-.6-.8l-1.2.1Z"/><path class="gum" d="M0,76.5H6.5s4.5-7,9-7,8,7,8,7h5" style="fill:none;stroke:#ffb900;stroke-linejoin:round;stroke-width:3px"/><path class="paradontit1" d="M0,76.5H3.9a4.53,4.53,0,0,0,3.8-2.1c1.8-2.8,5.2-10.7,8.4-10.7,2.9,0,5.1,7.2,6.4,10.1a4.5,4.5,0,0,0,4.1,2.7h1.9" style="fill:none;stroke:#ff822e;stroke-linejoin:round;stroke-width:3px"/><path class="paradontit2" d="M0,76.5c1.2,0,5.4-.4,6.2-1.8C8.3,71,11.6,59.5,16.7,59.5c5.3,0,5.6,10.9,7.2,14.8.6,2.3,2.6,2.2,4.6,2.2" style="fill:none;stroke:#f9610d;stroke-linejoin:round;stroke-width:3px"/><path class="paradontit3" d="M0,76.5c1,0,5.4-.4,6.2-1.8,2.1-3.7,6-19.5,11.1-19.5,5.9,0,5,15.2,6.6,19.1-.3.7,3.2,2.2,4.6,2.2" style="fill:none;stroke:#f9610d;stroke-linejoin:round;stroke-width:3px"/><path class="paradontit4" d="M0,76.5c2,0,5.4-.6,6.1-2.4C8.3,68.3,10,50,18,50s5.1,17.4,6.3,23.4a4,4,0,0,0,4.2,3.1" style="fill:none;stroke:#f75403;stroke-linejoin:round;stroke-width:3px"/><path class="periodontit" d="M16.5,12.9A4.5,4.5,0,1,0,21,17.4,4.48,4.48,0,0,0,16.5,12.9Z" style="fill:#3535ed"/></g></g></g></svg>