<svg xmlns="http://www.w3.org/2000/svg" viewBox="0 0 28.5 180"><title>22tooth</title><g class="Слой_2" data-name="Слой 2"><g class="Слой_1-2" data-name="Слой 1"><g class="_22" data-name="22"><path class="background" d="M28.5,0V180H0V0Z" style="fill:#9fdaff"/><path class="bone" d="M28.5,0V77.1H0V0Z" style="fill:#de82a7"/><path class="bridge" d="M0,151.6v-4l28.5.1v4Zm28.5-25.9v-4L0,121.6v4Zm0-27v-4L0,94.6v4Z" style="fill:#3535ed"/><path class="root" d="M10.3,74.4c1.9-17.6,7.6-34.2,5-47.2a7.91,7.91,0,0,1,.3-4.3c.7-1.6,1.6-1.9,3-.6a6.13,6.13,0,0,1,1.5,2.3c4.8,11.7,2.3,29.7,3,51.4" style="fill:#f8edc8;stroke:#292320;stroke-miterlimit:10;stroke-width:0.25px"/><path class="rootCanal" d="M21.5,71.7l-1.2-5.4c.9-2.7-.2-46.2-3.4-44.9-1.1.5,4.3,34.7-4.8,46.6-5.1,6.4-.6,6.5,4.7,4.9,0,0,1.3.1,3.5.3A1.11,1.11,0,0,0,21.5,71.7Z" style="fill:#3535ed;stroke:#201600;stroke-miterlimit:10;stroke-width:0.25px"/><path class="implant" d="M7.3,40l14-2.2a1.39,1.39,0,0,0-.7-.8A15.23,15.23,0,0,0,8.4,37a1.9,1.9,0,0,0-1,1.6Zm0,4,14.4-2.3-.1-2.5L7.3,41.5Zm-.2,4,14.7-2.3-.1-2.5L7.2,45.5ZM7,52l14.9-2.3V47.3L7.1,49.6Zm-.2,4.1L22,53.7l-.1-2.5-15,2.3Zm-.2,4,15.6-2.4-.1-2.5L6.8,57.6Zm.1,5,15.8-2.4-.1-2.4L6.7,62.7Zm-.2.7h16l-.1-2.6L6.5,65.7ZM5,70.5H23.9V68.6a1.17,1.17,0,0,0-.2-.7.91.91,0,0,0-.7-.3H5.9a.91.91,0,0,0-.7.3,1.85,1.85,0,0,0-.2.7Zm-.8,4.2a1.08,1.08,0,0,0,1,1H23.3a.94.94,0,0,0,1-1V73.5a1,1,0,0,0-.4-.9c-.1,0-.2-.1-.4-.1H5.4a.6.6,0,0,0-.4.1,1.19,1.19,0,0,0-.5.9Z" style="fill:#3535ed"/><path class="rootMask" d="M10.3,74.4c1.9-17.6,7.6-34.2,5-47.2a7.91,7.91,0,0,1,.3-4.3c.7-1.6,1.6-1.9,3-.6a6.13,6.13,0,0,1,1.5,2.3c4.8,11.7,2.3,29.7,3,51.4" style="fill:#f8edc8;stroke:#292320;stroke-miterlimit:10;stroke-width:0.25px"/><path class="coronaLingual" d="M17.5,170.9c2.5-6.1,4.3-14.7,5.9-22.8a7.61,7.61,0,0,0-.3-2.1,5,5,0,0,0-4-3.5L7,141.4a5,5,0,0,0-2.7.4,2.76,2.76,0,0,0-1.2,1.9,8.08,8.08,0,0,0,0,3.1v.1s2.6,16.7,6.3,23.6a7.11,7.11,0,0,0,2.3,2.6,3.47,3.47,0,0,0,4.4.1A3.64,3.64,0,0,0,17.5,170.9Z" style="fill:#fff;stroke:#000;stroke-miterlimit:10;stroke-width:0.5px"/><path class="coronaLingualIncisalDistal" d="M23.4,148.1a7.61,7.61,0,0,0-.3-2.1,5,5,0,0,0-4-3.5l-2.2-.2v9.4h5.9Z" style="fill:#3535ed"/><path class="coronaLingualIncisalMiddle" d="M17,151.7v-9.4l-7.3-.6v10Z" style="fill:#3535ed"/><path class="coronaLingualIncisionMesial" d="M9.7,151.6v-10l-2.6-.2a5,5,0,0,0-2.7.4,2.76,2.76,0,0,0-1.2,1.9,8.08,8.08,0,0,0,0,3.1v.1s.4,2,.9,4.8Z" style="fill:#3535ed"/><path class="coronaLingualMiddleDistal" d="M22.9,151.6H17v13.8h2.6C20.8,161.2,21.9,156.5,22.9,151.6Z" style="fill:#3535ed"/><path class="coronaLingualMiddleMiddle" d="M17,165.5H9.8V151.7H17Z" style="fill:#3535ed"/><path class="coronaLingualMiddleMesial" d="M9.8,165.4V151.6H4a126.35,126.35,0,0,0,3.4,13.8Z" style="fill:#3535ed"/><path class="coronaLingualCervicalDistal" d="M19.6,165.4H17v6.8a7.46,7.46,0,0,0,.7-1.2C18.4,169.3,19,167.4,19.6,165.4Z" style="fill:#3535ed"/><path class="coronaLingualCervicalMiddle" d="M17,172.3v-6.8H9.8V171a6.06,6.06,0,0,0,1.9,2,3.47,3.47,0,0,0,4.4.1A6.47,6.47,0,0,0,17,172.3Z" style="fill:#3535ed"/><path class="coronaLingualCervicalMesial" d="M9.8,171v-5.6H7.4a30.68,30.68,0,0,0,2,5A2.09,2.09,0,0,0,9.8,171Z" style="fill:#3535ed"/><path class="coronaLabial" d="M7.8,78.1,4.2,98c-.1,2.4.6,4.1,2.9,5.1a51.59,51.59,0,0,0,13.6-.7,2.42,2.42,0,0,0,1.8-1.3,12.53,12.53,0,0,0,1.2-5.4l-.1-2.9a11.08,11.08,0,0,0-.2-1.9,106.94,106.94,0,0,1-1-12.7,9.54,9.54,0,0,0-2.7-6.4c-2.7-2.8-5.8-2.3-9.1,1A10.15,10.15,0,0,0,7.8,78.1Z" style="fill:#fff;stroke:#000;stroke-miterlimit:10;stroke-width:0.5px"/><path class="coronaLabialIncisalDistal" d="M23.5,98a11.24,11.24,0,0,1-1,3.1,3,3,0,0,1-1.8,1.3l-1.5.2V97.9Z" style="fill:#3535ed"/><path class="coronaLabialIncisalMiddle" d="M19.3,98v4.7a43.43,43.43,0,0,1-8.8.6V98Z" style="fill:#3535ed"/><path class="coronaLabialIncisionMesial" d="M10.6,98v5.2c-1.1,0-2.3,0-3.4-.1-2.3-1-3-2.6-2.9-5.1h6.3Z" style="fill:#3535ed"/><path class="coronaLabialMiddleDistal" d="M23.5,98H19.3V84h3.4c.1,2.3.4,4.6.7,6.9a12.25,12.25,0,0,1,.2,1.9l.1,2.9A19.53,19.53,0,0,1,23.5,98Z" style="fill:#3535ed"/><path class="coronaLabialMiddleMiddle" d="M19.3,84V98H10.5V84Z" style="fill:#3535ed"/><path class="coronaLabialMiddleMesial" d="M10.5,84V98H4.3L6.8,84Z" style="fill:#3535ed"/><path class="coronaLabialCervicalDistal" d="M22.6,84H19.2V71.4a1,1,0,0,1,.5.4,9.54,9.54,0,0,1,2.7,6.4C22.5,80.1,22.6,82.1,22.6,84Z" style="fill:#3535ed"/><path class="coronaLabialCervicalMiddle" d="M19.3,71.4V84H10.5l.1-11.2h0C13.7,69.7,16.6,69.1,19.3,71.4Z" style="fill:#3535ed"/><path class="coronaLabialCervicalMesial" d="M10.7,73V84.1H6.9L8,78.2A10.88,10.88,0,0,1,10.7,73Z" style="fill:#3535ed"/><path class="veneer" d="M22.1,97.9c-2.7,1-3.1.9-4.9-1.4L16,94.9l.7,1.8c1,2.7.9,3.1-1.4,4.9l-1.6,1.2,1.9-.7c2.7-1,3.1-.9,4.9,1.4l1.2,1.5-.7-1.8c-1-2.7-.9-3.1,1.4-4.9L24,97.1ZM20.8,87.5c-1.6.7-1.8.6-2.9-.8l-1.2-1.6.7,1.8c.7,1.6.6,1.8-.8,2.9L15,91l1.8-.7c1.7-.7,1.9-.6,3,.8L21,92.7l-.7-1.8c-.7-1.7-.6-1.9.8-3l1.6-1.2Zm-10,2.4c-1.6.7-1.8.6-2.9-.8L6.7,87.5l.7,1.8c.7,1.7.6,1.9-.8,3L5,93.5l1.8-.7c1.7-.7,1.9-.6,3,.8L11,95.2l-.7-1.8c-.7-1.6-.6-1.8.8-2.9l1.6-1.2Z" style="fill:#3535ed"/><path class="coronaTop" d="M9.8,119.6l-5.5-5a13.08,13.08,0,0,1,18.4-.8l-5,5.5A5.65,5.65,0,0,0,9.8,119.6Zm.3,8-5,5.5h0a13.21,13.21,0,0,1-.8-18.5l5.5,5A5.59,5.59,0,0,0,10.1,127.6Zm8-.3,5.5,5h0a13.08,13.08,0,0,1-18.4.8l5-5.5A5.75,5.75,0,0,0,18.1,127.3Zm4.7-13.6a13.21,13.21,0,0,1,.8,18.5l-5.5-5a5.65,5.65,0,0,0-.4-7.9Zm-3.3,9.7a5.6,5.6,0,1,1-5.6-5.6A5.59,5.59,0,0,1,19.5,123.4Z" style="fill:#fff;stroke:#000;stroke-miterlimit:10"/><path class="coronaTopBuccal" d="M9.8,119.6l-5.5-5a13.08,13.08,0,0,1,18.4-.8l-5,5.5A5.65,5.65,0,0,0,9.8,119.6Z" style="fill:#3535ed"/><path class="coronaTopMedial" d="M10.1,127.6l-5,5.5h0a13.21,13.21,0,0,1-.8-18.5l5.5,5A5.59,5.59,0,0,0,10.1,127.6Z" style="fill:#3535ed"/><path class="coronaTopLingual" d="M18.1,127.3l5.5,5h0a13.08,13.08,0,0,1-18.4.8l5-5.5A5.75,5.75,0,0,0,18.1,127.3Z" style="fill:#3535ed"/><path class="coronaTopDistal" d="M22.8,113.7a13.21,13.21,0,0,1,.8,18.5l-5.5-5a5.65,5.65,0,0,0-.4-7.9Z" style="fill:#3535ed"/><path class="coronaTopOclusial" d="M19.5,123.4a5.6,5.6,0,1,1-5.6-5.6A5.59,5.59,0,0,1,19.5,123.4Z" style="fill:#3535ed"/><path class="silant" d="M21.8,128.9a16.09,16.09,0,0,1-5.9,1.3c-3.3,0-4.8-1.2-4.8-2.7s1.2-2.4,4.5-3.3c4.4-1.1,6.5-2.9,6.5-5.1,0-2.9-3.1-5.3-8.4-5.3a15.66,15.66,0,0,0-6,1.1l1.1,2.4a13.11,13.11,0,0,1,5-1c2.6,0,4.1,1.2,4.1,2.5,0,1.5-1.5,2.2-4.7,3.1-4.2,1.2-6.4,2.7-6.4,5.4,0,3.2,3.4,5.4,9.2,5.4a19,19,0,0,0,6.9-1.2Z" style="fill:#3535ed"/><path class="crown" d="M16.1,173.2a3.47,3.47,0,0,1-4.4-.1,7.11,7.11,0,0,1-2.3-2.6c-3.7-6.9-6.3-23.6-6.3-23.6v-.1a8.08,8.08,0,0,1,0-3.1,2.76,2.76,0,0,1,1.2-1.9,5,5,0,0,1,2.7-.4l12.1,1.1a5,5,0,0,1,4,3.5,7.61,7.61,0,0,1,.3,2.1c-1.6,8.1-3.4,16.7-5.9,22.8A3.64,3.64,0,0,1,16.1,173.2ZM7.8,78.1,4.2,98c-.1,2.4.6,4.1,2.9,5.1a51.59,51.59,0,0,0,13.6-.7,2.42,2.42,0,0,0,1.8-1.3,12.53,12.53,0,0,0,1.2-5.4l-.1-2.9a11.08,11.08,0,0,0-.2-1.9,106.94,106.94,0,0,1-1-12.7,9.54,9.54,0,0,0-2.7-6.4c-2.7-2.8-5.8-2.3-9.1,1A10.15,10.15,0,0,0,7.8,78.1Zm9.9,41.2,5-5.5a13.08,13.08,0,0,0-18.4.8l5.5,5A5.65,5.65,0,0,1,17.7,119.3Zm-7.9.3-5.5-5a13.21,13.21,0,0,0,.8,18.5h0l5-5.5A5.59,5.59,0,0,1,9.8,119.6Zm.4,8-5,5.5a13.08,13.08,0,0,0,18.4-.8h0l-5.5-5A5.75,5.75,0,0,1,10.2,127.6Zm7.5-8.3a5.65,5.65,0,0,1,.4,7.9l5.5,5a13.21,13.21,0,0,0-.8-18.5Zm-3.8-1.5a5.6,5.6,0,1,0,5.6,5.6A5.59,5.59,0,0,0,13.9,117.8Z" style="fill:#fff;stroke:#000;stroke-miterlimit:10;stroke-width:0.5px"/><path class="braces" d="M15.9,88.4h0v2.7a4.25,4.25,0,0,0-1.1-.2H13.6a3.55,3.55,0,0,0-1,.2V88.4h0a3.55,3.55,0,0,0,1,.2h1.2a2,2,0,0,0,1.1-.2m-4.6-3.9a1.14,1.14,0,0,0-.8.7V89L0,89.1v1.3l10.5-.1v3.8a.64.64,0,0,0,.6.8h1.1a.76.76,0,0,0,.6-.8v-.5a.77.77,0,0,1,.7-.8h1.2c.3,0,.6.4.6.8v.6c-.1.4.2.7.6.8H17c.3,0,.6-.4.6-.8V90.4H28.5V89.1H17.6V85.3a.64.64,0,0,0-.6-.8H15.9a.76.76,0,0,0-.6.8v.5a.64.64,0,0,1-.6.8H13.6c-.3,0-.6-.4-.6-.8v-.5c.1-.4-.2-.7-.6-.8Z"/><path class="gum" d="M28.5,76.5h-5s-3.5-7-8-7-9,7-9,7H0" style="fill:none;stroke:#ffb900;stroke-linejoin:round;stroke-width:3px"/><path class="paradontit1" d="M28.5,76.5H26.6a4.5,4.5,0,0,1-4.1-2.7c-1.3-2.9-3.5-10.1-6.4-10.1-3.2,0-6.6,7.9-8.4,10.7a4.53,4.53,0,0,1-3.8,2.1H0" style="fill:none;stroke:#ff822e;stroke-linejoin:round;stroke-width:3px"/><path class="paradontit2" d="M28.5,76.5c-2,0-4,.1-4.6-2.2-1.6-3.9-1.9-14.8-7.2-14.8C11.6,59.5,8.3,71,6.2,74.7c-.8,1.4-5,1.8-6.2,1.8" style="fill:none;stroke:#f9610d;stroke-linejoin:round;stroke-width:3px"/><path class="paradontit3" d="M28.5,76.5c-1.4,0-4.9-1.5-4.6-2.2-1.6-3.9-.7-19.1-6.6-19.1-5.1,0-9,15.8-11.1,19.5C5.4,76.1,1,76.5,0,76.5" style="fill:none;stroke:#f9610d;stroke-linejoin:round;stroke-width:3px"/><path class="paradontit4" d="M28.5,76.5a4,4,0,0,1-4.2-3.1C23.1,67.4,26,50,18,50S8.3,68.3,6.1,74.1C5.4,75.9,2,76.5,0,76.5" style="fill:none;stroke:#f75403;stroke-linejoin:round;stroke-width:3px"/><path class="periodontit" d="M21,17.4a4.5,4.5,0,1,1-4.5-4.5A4.48,4.48,0,0,1,21,17.4Z" style="fill:#3535ed"/></g></g></g></svg>