<svg xmlns="http://www.w3.org/2000/svg" viewBox="0 0 33.9 180"><title>23tooth</title><g class="Слой_2" data-name="Слой 2"><g class="Слой_1-2" data-name="Слой 1"><g class="_23" data-name="23"><path class="background" d="M33.9,0H0V180H33.9Z" style="fill:#9fdaff"/><path class="bone" d="M33.9,0H0V77H33.9Z" style="fill:#de82a7"/><path class="bridge" d="M0,151.7v-4l33.9.1v4Zm33.9-25.9v-4L0,121.7v4Zm0-27v-4L0,94.7v4Z" style="fill:#3535ed"/><path class="root" d="M26.9,75.5c.9-11.6-.1-25-2.5-39.6-1.5-8.9-2.2-13.3-1.1-20.3a6.87,6.87,0,0,0-.2-3.2c-.7-1.9-1.5-1.7-2.4,0a4.44,4.44,0,0,1-.8,1.1c-3,4.1-3.4,7.5-3.8,16.5L14,53.1,11.6,74" style="fill:#f8edc8;stroke:#292320;stroke-miterlimit:10;stroke-width:0.25px"/><path class="rootCanal" d="M15.7,74.8c1.5-.2,2.8-.3,3.5-.4a2.54,2.54,0,0,1,1.2.2C23.9,76,27.2,77,23.6,71c-2.7-9.4-3.6-23.4-3.2-37.2a126.58,126.58,0,0,1-.1-13.1c.3-4,1.6-7.4,1.6-8,.1-5.3-2.2,2.1-3.2,7.4-.7,3.8-.5,9.4-1,14.3-1.3,14.7-1,31.6-1.2,33.5a1.78,1.78,0,0,1-.4,1c-.9,1-3.2,3.8-2.6,4.9A2.06,2.06,0,0,0,15.7,74.8Z" style="fill:#3535ed"/><path class="implant" d="M12.7,40l14-2.2A1.39,1.39,0,0,0,26,37a15.23,15.23,0,0,0-12.2,0,2,2,0,0,0-1,1.6Zm0,4,14.4-2.3L27,39.2,12.7,41.5Zm-.2,4,14.7-2.3-.1-2.5L12.6,45.5Zm-.1,4,14.9-2.3V47.3L12.5,49.6Zm-.2,4.1,15.2-2.4-.1-2.5-15,2.3Zm0,4,15.4-2.4-.1-2.5L12.2,57.6Zm-.1,5,15.8-2.4-.1-2.4L12.1,62.7v2.4Zm-.2.7h16l-.1-2.6L11.9,65.7Zm-1.4,4.7H29.4V68.6a1.45,1.45,0,0,0-.2-.7.91.91,0,0,0-.7-.3H11.4a.91.91,0,0,0-.7.3,1.85,1.85,0,0,0-.2.7Zm-.8,4.2h0a.94.94,0,0,0,1,1H28.8a1.08,1.08,0,0,0,1-1V73.5c0-.5-.1-.7-.4-.9-.1,0-.2-.1-.4-.1H10.9a.6.6,0,0,0-.4.1,1.49,1.49,0,0,0-.4.9Z" style="fill:#3535ed"/><path class="rootMusk" d="M26.9,75.5c.9-11.6-.1-25-2.5-39.6-1.5-8.9-2.2-13.3-1.1-20.3a6.87,6.87,0,0,0-.2-3.2c-.7-1.9-1.5-1.7-2.4,0a4.44,4.44,0,0,1-.8,1.1c-3,4.1-3.4,7.5-3.8,16.5L14,53.1,11.6,74" style="fill:#f8edc8;stroke:#292320;stroke-miterlimit:10;stroke-width:0.25px"/><path class="coronaLingual" d="M21.2,174.8a8.31,8.31,0,0,0,3.2-3.5c2.1-4.3,3.4-8.8,5-13.4a13,13,0,0,0,.4-6.2,7.16,7.16,0,0,0-2-3.6c-2.6-2.7-4.2-5.1-6.3-6-3.5-2.1-5.8-2.1-7.8,0A25.3,25.3,0,0,0,8,149.8a16,16,0,0,0,0,11.8,35.85,35.85,0,0,0,5.9,11.9C16.4,175.8,18.9,176.1,21.2,174.8Z" style="fill:none"/><path class="coronaLingualIncisalDistal" d="M22.4,153.6V142.4c1.7,1.2,3.2,3.2,5.4,5.5a7.16,7.16,0,0,1,2,3.6,14.92,14.92,0,0,1,.2,2.1Z" style="fill:#3535ed"/><path class="coronaLingualIncisalMiddle" d="M14.6,153.6V141c1.8-1.3,3.8-1,6.9.8a4.05,4.05,0,0,1,.9.5v11.2l-7.8.1Z" style="fill:#3535ed"/><path class="coronaLingualIncisionMesial" d="M6.9,153.6A14.65,14.65,0,0,1,8,149.5a27.05,27.05,0,0,1,5.7-7.7,6.47,6.47,0,0,1,.9-.8v12.6Z" style="fill:#3535ed"/><path class="coronaLingualMiddleDistal" d="M29.4,157.7c-1.2,3.3-2.2,6.5-3.4,9.7H22.4V153.6H30A14,14,0,0,1,29.4,157.7Z" style="fill:#3535ed"/><path class="coronaLingualMiddleMiddle" d="M22.5,153.4H14.6v14h7.9Z" style="fill:#3535ed"/><path class="coronaLingualMiddleMesial" d="M10.3,167.4a39.2,39.2,0,0,1-2.3-6,17,17,0,0,1-1.1-7.8h7.7v13.9Z" style="fill:#3535ed"/><path class="coronaLingualCervicalDistal" d="M24.4,171.1a10.52,10.52,0,0,1-2,2.7v-6.4H26C25.5,168.6,25,169.8,24.4,171.1Z" style="fill:#3535ed"/><path class="coronaLingualCervicalMiddle" d="M21.2,174.6c-2.1,1.2-4.3,1-6.6-.7v-6.5h7.8v6.4C22,174.1,21.6,174.3,21.2,174.6Z" style="fill:#3535ed"/><path class="coronaLingualCervicalMesial" d="M13.8,173.2a32.09,32.09,0,0,1-3.6-5.9h4.4v6.5A3.28,3.28,0,0,1,13.8,173.2Z" style="fill:#3535ed"/><path class="coronaLabial" d="M28.5,99.7c2.8-3.2,3.3-7.4,1.9-12.5a55.31,55.31,0,0,1-3.2-10.5,9.88,9.88,0,0,0-5.8-7.2,7.3,7.3,0,0,0-5.8.1,8.44,8.44,0,0,0-4.7,6.8,57.81,57.81,0,0,1-2.7,13,8.54,8.54,0,0,0,.9,7.3C16.1,107.9,20.5,109.3,28.5,99.7Z" style="fill:none"/><path class="coronaLabialIncisalDistal" d="M23.6,98v6.5a36.31,36.31,0,0,0,4.9-4.7A5.67,5.67,0,0,0,29.7,98Z" style="fill:#3535ed"/><path class="coronaLabialIncisalMiddle" d="M13.9,98v5.3c3.3,3.3,6.2,3.7,9.8,1.2V98Z" style="fill:#3535ed"/><path class="coronaLabialIncisionMesial" d="M9.8,98a35.64,35.64,0,0,0,4.1,5.3V98Z" style="fill:#3535ed"/><path class="coronaLabialMiddleDistal" d="M30.4,87.2c-.4-1.1-.8-2.2-1.2-3.2H23.6V98h6.1C31.4,95.1,31.5,91.5,30.4,87.2Z" style="fill:#3535ed"/><path class="coronaLabialMiddleMiddle" d="M23.6,84H13.8V98h9.8Z" style="fill:#3535ed"/><path class="coronaLabialMiddleMesial" d="M9.7,84a49.45,49.45,0,0,1-1.5,5.5,8.54,8.54,0,0,0,.9,7.3,10.54,10.54,0,0,0,.7,1.1h4.1v-14Z" style="fill:#3535ed"/><path class="coronaLabialCervicalDistal" d="M27.2,76.8a9.7,9.7,0,0,0-3.6-5.9V84h5.6A64.44,64.44,0,0,1,27.2,76.8Z" style="fill:#3535ed"/><path class="coronaLabialCervicalMiddle" d="M21.4,69.6a7.3,7.3,0,0,0-5.8.1,6.19,6.19,0,0,0-1.7,1.1V84h9.8V70.9A7.55,7.55,0,0,0,21.4,69.6Z" style="fill:#3535ed"/><path class="coronaLabialCervicalMesial" d="M10.9,76.6c-.3,2.6-.7,5.1-1.2,7.4h4.2V70.8A8.68,8.68,0,0,0,10.9,76.6Z" style="fill:#3535ed"/><path class="veneer" d="M28.5,95.9c-2.7,1-3.1.9-4.9-1.4l-1.2-1.6.7,1.8c1,2.7.9,3.1-1.4,4.9l-1.6,1.2,1.9-.7c2.7-1,3.1-.9,4.9,1.4l1.2,1.5-.7-1.8c-1-2.7-.9-3.1,1.4-4.9l1.6-1.2ZM26.4,85.5c-1.7.7-1.9.6-3-.8l-1.2-1.6.7,1.8c.6,1.6.5,1.8-.9,2.9L20.4,89l1.9-.7c1.6-.7,1.8-.6,2.9.8l1.2,1.6-.7-1.8c-.7-1.7-.6-1.9.8-3l1.6-1.2ZM11.3,92.9c-1.7.7-1.9.6-3-.8L7.1,90.5l.7,1.8c.7,1.7.6,1.9-.8,3L5.4,96.5l1.9-.7c1.6-.7,1.8-.6,2.9.8l1.2,1.6-.7-1.8c-.7-1.6-.6-1.8.8-2.9l1.6-1.2Z" style="fill:#3535ed"/><path class="coronaTop" d="M15,119.5l-5.7-5.2a13.56,13.56,0,0,1,19.1-.8l-5.2,5.7A5.83,5.83,0,0,0,15,119.5Zm.3,8.2-5.2,5.7h0a13.56,13.56,0,0,1-.8-19.1l5.7,5.2A5.83,5.83,0,0,0,15.3,127.7Zm8.3-.3,5.7,5.2h0a13.56,13.56,0,0,1-19.1.8l5.2-5.7A5.92,5.92,0,0,0,23.6,127.4Zm4.9-13.9a13.56,13.56,0,0,1,.8,19.1l-5.7-5.2h0a5.83,5.83,0,0,0-.4-8.2Zm-3.4,9.9a5.8,5.8,0,1,1-5.8-5.8A5.8,5.8,0,0,1,25.1,123.4Z" style="fill:#fff;stroke:#000;stroke-miterlimit:10"/><path class="coronaTopBuccal" d="M23.2,119.2l5.2-5.7a13.56,13.56,0,0,0-19.1.8l5.7,5.2A5.83,5.83,0,0,1,23.2,119.2Z" style="fill:#3535ed"/><path class="coronaTopMedial" d="M15,119.5l-5.7-5.2a13.56,13.56,0,0,0,.8,19.1h0l5.2-5.7A5.83,5.83,0,0,1,15,119.5Z" style="fill:#3535ed"/><path class="coronaTopLingual" d="M15.4,127.7l-5.2,5.7a13.56,13.56,0,0,0,19.1-.8h0l-5.7-5.2A5.92,5.92,0,0,1,15.4,127.7Z" style="fill:#3535ed"/><path class="coronaTopDistal" d="M23.2,119.2a5.83,5.83,0,0,1,.4,8.2h0l5.7,5.2a13.56,13.56,0,0,0-.8-19.1Z" style="fill:#3535ed"/><path class="coronaTopOclusial" d="M19.3,117.6a5.8,5.8,0,1,0,5.8,5.8A5.8,5.8,0,0,0,19.3,117.6Z" style="fill:#3535ed"/><path class="silant" d="M27.3,131.5a19,19,0,0,1-6.9,1.2c-5.8,0-9.2-2.2-9.2-5.4,0-2.7,2.2-4.2,6.4-5.4,3.2-.9,4.7-1.6,4.7-3.1,0-1.3-1.5-2.5-4.1-2.5a13.11,13.11,0,0,0-5,1l-1.1-2.4a15.66,15.66,0,0,1,6-1.1c5.3,0,8.4,2.4,8.4,5.3,0,2.2-2.1,4-6.5,5.1-3.3.9-4.5,1.8-4.5,3.3s1.5,2.7,4.8,2.7a16.09,16.09,0,0,0,5.9-1.3Z" style="fill:#3535ed"/><path class="crown" d="M13.9,173.5A35.85,35.85,0,0,1,8,161.6a16,16,0,0,1,0-11.8,25.3,25.3,0,0,1,5.7-7.7c2-2.1,4.3-2.1,7.8,0,2.1.9,3.7,3.3,6.3,6a7.16,7.16,0,0,1,2,3.6,13,13,0,0,1-.4,6.2c-1.6,4.6-2.9,9.1-5,13.4a8.31,8.31,0,0,1-3.2,3.5C18.9,176.1,16.4,175.8,13.9,173.5ZM28.5,99.7c2.8-3.2,3.3-7.4,1.9-12.5a55.31,55.31,0,0,1-3.2-10.5,9.88,9.88,0,0,0-5.8-7.2,7.3,7.3,0,0,0-5.8.1,8.44,8.44,0,0,0-4.7,6.8,57.81,57.81,0,0,1-2.7,13,8.54,8.54,0,0,0,.9,7.3C16.1,107.9,20.5,109.3,28.5,99.7Zm-5.3,19.5,5.2-5.7a13.56,13.56,0,0,0-19.1.8l5.7,5.2A5.83,5.83,0,0,1,23.2,119.2Zm-8.2.3-5.7-5.2a13.56,13.56,0,0,0,.8,19.1h0l5.2-5.7A5.83,5.83,0,0,1,15,119.5Zm.4,8.2-5.2,5.7a13.56,13.56,0,0,0,19.1-.8h0l-5.7-5.2A5.92,5.92,0,0,1,15.4,127.7Zm7.8-8.5a5.83,5.83,0,0,1,.4,8.2h0l5.7,5.2a13.56,13.56,0,0,0-.8-19.1Zm-3.9-1.6a5.8,5.8,0,1,0,5.8,5.8A5.8,5.8,0,0,0,19.3,117.6Z" style="fill:#fff;stroke:#201600;stroke-miterlimit:10;stroke-width:0.25px"/><path class="braces" d="M18.6,88.4h0v2.7a2,2,0,0,0-1.1-.2H16.3a3.55,3.55,0,0,0-1,.2V88.4h0a3.55,3.55,0,0,0,1,.2h1.2a4.25,4.25,0,0,0,1.1-.2M14,84.5a.64.64,0,0,0-.6.8v3.8H.1v1.3H13.4v3.8c0,.4.3.8.6.8h1.1c.4-.1.7-.4.6-.8v-.6a.77.77,0,0,1,.7-.8h1.2a.64.64,0,0,1,.6.8v.5a.76.76,0,0,0,.6.8h1.1a.64.64,0,0,0,.6-.8V90.3H33.8V89H20.5V85.2c0-.4-.3-.8-.6-.8H18.8c-.4.1-.7.4-.6.8v.5c0,.4-.3.8-.6.8H16.5a.64.64,0,0,1-.6-.8v-.5a.76.76,0,0,0-.6-.8l-1.3.1Z"/><path class="gum" d="M0,76.5H9s4-8,10-8,9,8,9,8h5.9" style="fill:none;stroke:#ffb900;stroke-linejoin:round;stroke-width:3px"/><path class="paradontit1" d="M0,76.5H6.4a4.41,4.41,0,0,0,3.8-2.1c1.7-2.8,5.2-9,9.3-9,3.9,0,6.3,5.6,7.5,8.4a4.5,4.5,0,0,0,4.1,2.7h2.8" style="fill:none;stroke:#ff822e;stroke-linejoin:round;stroke-width:3px"/><path class="paradontit2" d="M0,76.5s7.6,0,8.6-2c2-4,6.4-14,10.8-14s8.1,9.7,9.9,13.8c.9,2.2,4.6,2.2,4.6,2.2" style="fill:none;stroke:#f9610d;stroke-linejoin:round;stroke-width:3px"/><path class="paradontit3" d="M0,76.5H4.6c.5,0,3.2-.5,4-2,2-4,6.5-18.7,10.9-18.7s8,14.4,9.8,18.5c.9,2.2,4.6,2.2,4.6,2.2" style="fill:none;stroke:#f9610d;stroke-linejoin:round;stroke-width:3px"/><path class="paradontit4" d="M0,76.5s7.7,0,8.4-2.9c1.9-7,3.1-22.6,11.1-22.6s8.6,15.4,10.2,22.5c.5,2.1,2.1,3,4.2,3" style="fill:none;stroke:#f75403;stroke-linejoin:round;stroke-width:3px"/><path class="periodontit" d="M21.9,2.9a4.5,4.5,0,1,0,4.5,4.5A4.48,4.48,0,0,0,21.9,2.9Z" style="fill:#3535ed"/></g></g></g></svg>