<svg xmlns="http://www.w3.org/2000/svg" viewBox="0 0 32.5 180"><title>24tooth</title><g class="Слой_2" data-name="Слой 2"><g class="Слой_1-2" data-name="Слой 1"><g class="_24" data-name="24"><path class="background" d="M32.4,0V180H0V0Z" style="fill:#9fdaff"/><path class="bone" d="M32.4,0V77H0V0Z" style="fill:#de82a7"/><path class="bridge" d="M0,125.8v-4l32.4.1v4Zm32.4,26.1v-4L0,147.8v4Zm0-53v-4L0,94.8v4Z" style="fill:#3535ed"/><path class="root" d="M10.3,79.5a125.51,125.51,0,0,1,2.8-31.2,109.08,109.08,0,0,0,2.1-18.1A9.64,9.64,0,0,1,18,23.8c1.8-1.8,3.4-1.6,4.7.6a8.94,8.94,0,0,1,.9,6A96.77,96.77,0,0,0,22,45.7a154,154,0,0,0,4.3,35.1" style="fill:#f8edc8;stroke:#292320;stroke-miterlimit:10;stroke-width:0.25px"/><path class="rootCanal" d="M13.7,74.8c-1.2-.5-.9-.8-.8-.9l.9-5.2c-.8-2.3,4-33.8,5.3-44.8.2-1.5,2.6-1.2,2.6.4-.2,9.9-5.7,39.9-1.6,46.2,3.8,6.4,1.6,5.4-2.3,3.8l-4.1.5" style="fill:#3535ed"/><path class="implant" d="M10.7,40l14-2.2A1.39,1.39,0,0,0,24,37a15.23,15.23,0,0,0-12.2,0,1.9,1.9,0,0,0-1,1.6Zm0,1.5V44l14.4-2.3L25,39.2,10.7,41.5ZM10.5,48l14.7-2.3-.1-2.5L10.6,45.5Zm-.1,4,14.9-2.3V47.3L10.5,49.6Zm-.2,4.1,15.2-2.4-.1-2.5-15,2.3Zm0,1.5v2.5l15.4-2.4-.1-2.5L10.2,57.6Zm0,7.7L26,62.8l-.1-2.5L10.2,62.7Zm-.2.5H26l-.1-2.6L10,65.7ZM8.6,70.6H27.5V68.7a1.08,1.08,0,0,0-1-1H9.4a.91.91,0,0,0-.7.3,1.85,1.85,0,0,0-.2.7Zm-.9,4.1a1.08,1.08,0,0,0,1,1H26.8a.94.94,0,0,0,1-1V73.5a1,1,0,0,0-.4-.9c-.1,0-.2-.1-.4-.1H8.9a.6.6,0,0,0-.4.1,1.49,1.49,0,0,0-.4.9Z" style="fill:#3535ed"/><path class="coronaLingual" d="M26.2,165.3c1.9-5.6,2.9-10.8,1.9-15.4a5.09,5.09,0,0,0-.7-1.7c-6-9.7-12.6-9.3-19.6,0A13.94,13.94,0,0,0,6,155.1a10.84,10.84,0,0,0,1.4,5.8,35.45,35.45,0,0,1,3,6.2,11.18,11.18,0,0,0,1.1,2.5,6.14,6.14,0,0,0,1.9,1.7c3.1,1.8,6.5,1,10.2-2.2A9.23,9.23,0,0,0,26.2,165.3Z" style="fill:#fff;stroke:#000;stroke-miterlimit:10;stroke-width:0.5px"/><path class="coronaLingualIncisalDistal" d="M20.9,150.9h7.2a2.77,2.77,0,0,0-.1-.9,5.09,5.09,0,0,0-.7-1.7c-2-3.4-4.2-5.5-6.4-6.5v9.1Z" style="fill:#3535ed"/><path class="coronaLingualIncisalMiddle" d="M20.9,150.9v-9.1c-2.6-1.2-5.1-.8-7.8,1v8.1Z" style="fill:#3535ed"/><path class="coronaLingualIncisionMesial" d="M6.7,150.9h6.5v-8.1a23.07,23.07,0,0,0-5.4,5.4c-.4.9-.8,1.8-1.1,2.7Z" style="fill:#3535ed"/><path class="coronaLingualMiddleDistal" d="M28.2,150.8H20.9v13.8h5.4C28,159.7,28.9,155.1,28.2,150.8Z" style="fill:#3535ed"/><path class="coronaLingualMiddleMiddle" d="M20.9,164.7H13.1V150.9h7.8Z" style="fill:#3535ed"/><path class="coronaLingualMiddleMesial" d="M13.3,164.6V150.8H6.8a12.34,12.34,0,0,0-.7,4.2,10.84,10.84,0,0,0,1.4,5.8,27.54,27.54,0,0,1,2,3.8Z" style="fill:#3535ed"/><path class="coronaLingualCervicalDistal" d="M26.3,164.5H20.9v6.4a13.09,13.09,0,0,0,2.7-1.9,9.35,9.35,0,0,0,2.5-3.7A1.55,1.55,0,0,0,26.3,164.5Z" style="fill:#3535ed"/><path class="coronaLingualCervicalMiddle" d="M20.9,171v-6.4H13.1V171c.1.1.2.1.3.2C15.7,172.6,18.2,172.5,20.9,171Z" style="fill:#3535ed"/><path class="coronaLingualCervicalMesial" d="M13.1,171v-6.4H9.3a25.57,25.57,0,0,1,1.1,2.4,11.18,11.18,0,0,0,1.1,2.5A7.52,7.52,0,0,0,13.1,171Z" style="fill:#3535ed"/><path class="coronaLabial" d="M26.4,80.8c2,5.6,3,10.8,2,15.4a5.09,5.09,0,0,1-.7,1.7c-6.1,9.7-12.8,9.3-20,0a13.39,13.39,0,0,1-1.9-6.8,11.4,11.4,0,0,1,1.5-5.8,39.86,39.86,0,0,0,3.1-6.2,8,8,0,0,1,1.1-2.5,5.19,5.19,0,0,1,1.9-1.7c3.2-1.8,6.6-1,10.4,2.2A10.79,10.79,0,0,1,26.4,80.8Z" style="fill:#fff;stroke:#000;stroke-miterlimit:10;stroke-width:0.5px"/><path class="coronaLabialIncisalDistal" d="M22.9,103.3V98h4.6A19.33,19.33,0,0,1,22.9,103.3Z" style="fill:#3535ed"/><path class="coronaLabialIncisalMiddle" d="M22.9,98v5.4c-3.2,2.3-6.4,2.3-9.8.1V98Z" style="fill:#3535ed"/><path class="coronaLabialIncisionMesial" d="M13.3,98v5.4A20.57,20.57,0,0,1,7.7,98Z" style="fill:#3535ed"/><path class="coronaLabialMiddleDistal" d="M28.2,96.2a5.09,5.09,0,0,1-.7,1.7V98H22.9V84h4.5C28.6,88.4,29.1,92.5,28.2,96.2Z" style="fill:#3535ed"/><path class="coronaLabialMiddleMiddle" d="M22.9,98H13.1V84h9.8Z" style="fill:#3535ed"/><path class="coronaLabialMiddleMesial" d="M13.3,84V98H7.7a13.39,13.39,0,0,1-1.9-6.8,11.4,11.4,0,0,1,1.5-5.8A10,10,0,0,0,8.1,84Z" style="fill:#3535ed"/><path class="coronaLabialCervicalDistal" d="M27.3,84H22.8V76.4l.9.7a8.64,8.64,0,0,1,2.6,3.7C26.7,81.9,27,83,27.3,84Z" style="fill:#3535ed"/><path class="coronaLabialCervicalMiddle" d="M22.9,76.4V84H13.1V75c.1,0,.1-.1.2-.1C16.3,73.2,19.5,73.8,22.9,76.4Z" style="fill:#3535ed"/><path class="coronaLabialCervicalMesial" d="M13.2,75.1v9H8a54,54,0,0,0,2.3-4.9,8,8,0,0,1,1.1-2.5A4.55,4.55,0,0,1,13.2,75.1Z" style="fill:#3535ed"/><path class="veneer" d="M20.6,100.9c-2.7,1-3.1.9-4.9-1.4l-1.2-1.6.7,1.8c1,2.7.9,3.1-1.4,4.9l-1.6,1.2,1.8-.7c2.7-1,3.1-.9,4.9,1.4l1.2,1.5-.7-1.8c-1-2.7-.9-3.1,1.4-4.9l1.6-1.2ZM19.3,90.5c-1.7.7-1.9.6-3-.8l-1.2-1.6.7,1.8c.7,1.6.6,1.8-.8,2.9L13.4,94l1.9-.7c1.6-.7,1.8-.6,2.9.8l1.2,1.6-.7-1.8c-.7-1.7-.6-1.9.8-3l1.6-1.2Zm-10,2.4c-1.7.7-1.9.6-3-.8L5.1,90.5l.7,1.8c.7,1.7.6,1.9-.8,3L3.4,96.5l1.9-.7c1.6-.7,1.8-.6,2.9.8l1.2,1.6-.7-1.8c-.7-1.6-.6-1.8.8-2.9l1.6-1.2Z" style="fill:#3535ed"/><path class="coronaTop" d="M13,119.5l-5.7-5.2a13.56,13.56,0,0,1,19.1-.8l-5.2,5.7A5.83,5.83,0,0,0,13,119.5Zm.3,8.2-5.2,5.7a13.56,13.56,0,0,1-.8-19.1l5.7,5.2A5.92,5.92,0,0,0,13.3,127.7Zm8.3-.3,5.7,5.2h0a13.56,13.56,0,0,1-19.1.8l5.2-5.7A5.92,5.92,0,0,0,21.6,127.4Zm4.9-13.9h0a13.56,13.56,0,0,1,.8,19.1l-5.7-5.2h0a5.83,5.83,0,0,0-.4-8.2Zm-3.4,9.9a5.8,5.8,0,1,1-5.8-5.8A5.8,5.8,0,0,1,23.1,123.4Z" style="fill:#fff;stroke:#000;stroke-miterlimit:10"/><path class="coronaTopBuccal" d="M13,119.5l-5.7-5.2a13.56,13.56,0,0,1,19.1-.8l-5.2,5.7A5.83,5.83,0,0,0,13,119.5Z" style="fill:#3535ed"/><path class="coronaTopMedial" d="M13.3,127.7l-5.2,5.7a13.56,13.56,0,0,1-.8-19.1l5.7,5.2A5.92,5.92,0,0,0,13.3,127.7Z" style="fill:#3535ed"/><path class="coronaTopLingual" d="M21.6,127.4l5.7,5.2h0a13.56,13.56,0,0,1-19.1.8l5.2-5.7A5.92,5.92,0,0,0,21.6,127.4Z" style="fill:#3535ed"/><path class="coronaTopDistal" d="M26.5,113.5h0a13.56,13.56,0,0,1,.8,19.1l-5.7-5.2h0a5.83,5.83,0,0,0-.4-8.2Z" style="fill:#3535ed"/><path class="coronaTopOclusial" d="M23.1,123.4a5.8,5.8,0,1,1-5.8-5.8A5.8,5.8,0,0,1,23.1,123.4Z" style="fill:#3535ed"/><path class="silant" d="M24.2,128.9a16.09,16.09,0,0,1-5.9,1.3c-3.3,0-4.8-1.2-4.8-2.7s1.2-2.4,4.5-3.3c4.4-1.1,6.5-2.9,6.5-5.1,0-2.9-3.1-5.3-8.4-5.3a15.66,15.66,0,0,0-6,1.1l1.1,2.4a13.11,13.11,0,0,1,5-1c2.6,0,4.1,1.2,4.1,2.5,0,1.5-1.5,2.2-4.7,3.1-4.2,1.2-6.4,2.7-6.4,5.4,0,3.2,3.4,5.4,9.2,5.4a19,19,0,0,0,6.9-1.2Z" style="fill:#3535ed"/><path class="rootMask" d="M10.3,79.5a125.51,125.51,0,0,1,2.8-31.2,109.08,109.08,0,0,0,2.1-18.1A9.64,9.64,0,0,1,18,23.8c1.8-1.8,3.4-1.6,4.7.6a8.94,8.94,0,0,1,.9,6A96.77,96.77,0,0,0,22,45.7a154,154,0,0,0,4.3,35.1" style="fill:#f8edc8;stroke:#292320;stroke-miterlimit:10;stroke-width:0.25px"/><path class="crown" d="M23.6,169.1c-3.7,3.2-7.1,4-10.2,2.2a6.14,6.14,0,0,1-1.9-1.7,11.18,11.18,0,0,1-1.1-2.5,35.45,35.45,0,0,0-3-6.2A10.84,10.84,0,0,1,6,155.1a13.94,13.94,0,0,1,1.8-6.9c7-9.3,13.6-9.7,19.6,0a5.09,5.09,0,0,1,.7,1.7c1,4.6,0,9.8-1.9,15.4A9.23,9.23,0,0,1,23.6,169.1Zm.2-92c-3.8-3.2-7.2-4-10.4-2.2a5.19,5.19,0,0,0-1.9,1.7,8,8,0,0,0-1.1,2.5,39.86,39.86,0,0,1-3.1,6.2,11.4,11.4,0,0,0-1.5,5.8,13.39,13.39,0,0,0,1.9,6.8c7.2,9.3,13.9,9.7,20,0a5.09,5.09,0,0,0,.7-1.7c1-4.6,0-9.8-2-15.4A10.79,10.79,0,0,0,23.8,77.1Zm-2.6,42.1,5.2-5.7a13.56,13.56,0,0,0-19.1.8l5.7,5.2A5.83,5.83,0,0,1,21.2,119.2Zm-8.2.3-5.7-5.2a13.56,13.56,0,0,0,.8,19.1l5.2-5.7A5.92,5.92,0,0,1,13,119.5Zm.4,8.2-5.2,5.7a13.56,13.56,0,0,0,19.1-.8h0l-5.7-5.2A5.92,5.92,0,0,1,13.4,127.7Zm7.8-8.5a5.83,5.83,0,0,1,.4,8.2h0l5.7,5.2a13.56,13.56,0,0,0-.8-19.1h0Zm-3.9-1.6a5.8,5.8,0,1,0,5.8,5.8A5.8,5.8,0,0,0,17.3,117.6Z" style="fill:#fff;stroke:#000;stroke-miterlimit:10;stroke-width:0.5px"/><path class="braces" d="M17.8,88.4h0v2.7a4.25,4.25,0,0,0-1.1-.2H15.5a3.55,3.55,0,0,0-1,.2V88.4h0a3.55,3.55,0,0,0,1,.2h1.2a2,2,0,0,0,1.1-.2m-4.4-3.8a1.39,1.39,0,0,0-.8.7v3.8H0v1.3H12.5v3.8a.77.77,0,0,0,.7.8h1.1a.76.76,0,0,0,.6-.8v-.5a.77.77,0,0,1,.7-.8h1.2c.3,0,.6.4.6.8v.6c-.1.4.2.7.6.8h1.1c.3,0,.6-.4.6-.8V90.5l12.7-.1V89.1l-12.7.1V85.4a.64.64,0,0,0-.6-.8H18a.76.76,0,0,0-.6.8v.5a.64.64,0,0,1-.6.8H15.7c-.3,0-.6-.4-.6-.8v-.5c.1-.4-.2-.7-.6-.8Z"/><path class="gum" d="M32.4,77H25.5s-2.5-2.5-8-3c-6,0-7.5,2.5-7.5,2.5H0" style="fill:none;stroke:#ffb900;stroke-linejoin:round;stroke-width:3px"/><path class="paradontit1" d="M32.4,77s-6.9.1-7.8-2.3c-1.2-2.1-2-5.9-6.3-5.9s-5.4,3.6-7.1,5.9a4.41,4.41,0,0,1-3.6,1.8H0" style="fill:none;stroke:#ff822e;stroke-linejoin:round;stroke-width:3px"/><path class="paradontit2" d="M32.4,77h-2a4.57,4.57,0,0,1-4-2.5c-1.5-2.8-4.7-10.4-8.4-10.7-4.1,0-6.8,7.8-8.4,10.8C8.3,76.5,0,76.5,0,76.5" style="fill:none;stroke:#f9610d;stroke-linejoin:round;stroke-width:3px"/><path class="paradontit3" d="M32.4,77h-2a4.57,4.57,0,0,1-4-2.5c-1.5-2.8-5.5-16.6-9.2-16.9-4,0-5.9,14-7.6,17C8.5,76.5,0,76.5,0,76.5" style="fill:none;stroke:#f9610d;stroke-linejoin:round;stroke-width:3px"/><path class="paradontit4" d="M32.4,77H31a4.39,4.39,0,0,1-4.3-3.3c-1.6-5.9-4.8-21-9.8-21S10.3,67.4,9.1,73.4C7.9,76.5,0,76.5,0,76.5" style="fill:none;stroke:#f75403;stroke-linejoin:round;stroke-width:3px"/><path class="periodontit" d="M24.4,19.4a4.5,4.5,0,1,1-4.5-4.5A4.48,4.48,0,0,1,24.4,19.4Z" style="fill:#3535ed"/></g></g></g></svg>