<svg xmlns="http://www.w3.org/2000/svg" viewBox="0 0 32.5 180"><title>24tooth</title><g class="Слой_2" data-name="Слой 2"><g class="Слой_1-2" data-name="Слой 1"><g class="_24" data-name="24"><path class="background" d="M32.4,0H0V180H32.4V0Z" style="fill:#9fdaff"/><path class="bone" d="M32.4,0H0V77H32.4V0Z" style="fill:#de82a7"/><path class="bridge" d="M0,125.8v-4l32.4.1v4Zm32.4,26.1v-4L0,147.8v4Zm0-53v-4L0,94.8v4Z" style="fill:#3535ed"/><path class="root" d="M26.3,80.8A154,154,0,0,1,22,45.7a96.77,96.77,0,0,1,1.6-15.3,8.94,8.94,0,0,0-.9-6c-1.3-2.2-2.9-2.4-4.7-.6a9.64,9.64,0,0,0-2.8,6.4,109.08,109.08,0,0,1-2.1,18.1,125.51,125.51,0,0,0-2.8,31.2" style="fill:#f8edc8;stroke:#292320;stroke-miterlimit:10;stroke-width:0.25px"/><path class="rootCanal" d="M13.7,74.8l4.1-.5c3.9,1.6,6.1,2.6,2.3-3.8-4.1-6.3,1.4-36.3,1.6-46.2,0-1.6-2.4-1.9-2.6-.4-1.3,11-6.1,42.5-5.3,44.8l-.9,5.2c-.1.1-.4.4.8.9" style="fill:#3535ed"/><path class="implant" d="M10.7,40l14-2.2A1.39,1.39,0,0,0,24,37a15.23,15.23,0,0,0-12.2,0,2,2,0,0,0-1,1.6Zm0,4,14.4-2.3L25,39.2,10.7,41.5Zm-.2,4,14.7-2.3-.1-2.5L10.6,45.5Zm-.1,4,14.9-2.3V47.3L10.5,49.6Zm-.2,4.1,15.2-2.4-.1-2.5-15,2.3Zm0,4,15.4-2.4-.1-2.5L10.2,57.6Zm0,5.2L26,62.8l-.1-2.5L10.2,62.7v2.6Zm-.2.5H26l-.1-2.6L10,65.7ZM8.6,70.6H27.5V68.7a.94.94,0,0,0-1-1H9.4a.91.91,0,0,0-.7.3,1.85,1.85,0,0,0-.2.7Zm-.8,4.1a.94.94,0,0,0,1,1H26.9a1.08,1.08,0,0,0,1-1V73.5c0-.5-.1-.7-.4-.9-.1,0-.2-.1-.4-.1H8.9a.6.6,0,0,0-.4.1,1.49,1.49,0,0,0-.4.9Z" style="fill:#3535ed"/><path class="rootMusk" d="M26.3,80.8A154,154,0,0,1,22,45.7a96.77,96.77,0,0,1,1.6-15.3,8.94,8.94,0,0,0-.9-6c-1.3-2.2-2.9-2.4-4.7-.6a9.64,9.64,0,0,0-2.8,6.4,109.08,109.08,0,0,1-2.1,18.1,125.51,125.51,0,0,0-2.8,31.2" style="fill:#f8edc8;stroke:#292320;stroke-miterlimit:10;stroke-width:0.25px"/><path class="coronaLingual" d="M23.6,169.1c-3.7,3.2-7.1,4-10.2,2.2a6.14,6.14,0,0,1-1.9-1.7,11.18,11.18,0,0,1-1.1-2.5,35.45,35.45,0,0,0-3-6.2A10.84,10.84,0,0,1,6,155.1a13.94,13.94,0,0,1,1.8-6.9c7-9.3,13.6-9.7,19.6,0a5.09,5.09,0,0,1,.7,1.7c1,4.6,0,9.8-1.9,15.4A9.23,9.23,0,0,1,23.6,169.1Z" style="fill:#fff;stroke:#000;stroke-miterlimit:10;stroke-width:0.5px"/><path class="coronaLingualIncisalDistal" d="M20.9,150.9v-9.1c2.2,1,4.4,3.1,6.4,6.5A5.09,5.09,0,0,1,28,150a2.77,2.77,0,0,1,.1.9Z" style="fill:#3535ed"/><path class="coronaLingualIncisalMiddle" d="M13.1,150.9v-8.1c2.7-1.8,5.2-2.2,7.8-1v9.1Z" style="fill:#3535ed"/><path class="coronaLingualIncisionMesial" d="M6.7,150.9c.3-.9.7-1.8,1.1-2.7a23.07,23.07,0,0,1,5.4-5.4v8.1Z" style="fill:#3535ed"/><path class="coronaLingualMiddleDistal" d="M26.3,164.6H20.9V150.8h7.3C28.9,155.1,28,159.7,26.3,164.6Z" style="fill:#3535ed"/><path class="coronaLingualMiddleMiddle" d="M20.9,150.9H13.1v13.8h7.8Z" style="fill:#3535ed"/><path class="coronaLingualMiddleMesial" d="M9.5,164.6a27.54,27.54,0,0,0-2-3.8A10.84,10.84,0,0,1,6.1,155a12.34,12.34,0,0,1,.7-4.2h6.5v13.8Z" style="fill:#3535ed"/><path class="coronaLingualCervicalDistal" d="M26.1,165.3a9.35,9.35,0,0,1-2.5,3.7,13.09,13.09,0,0,1-2.7,1.9v-6.4h5.4A1.55,1.55,0,0,1,26.1,165.3Z" style="fill:#3535ed"/><path class="coronaLingualCervicalMiddle" d="M13.4,171.2c-.1-.1-.2-.1-.3-.2v-6.4h7.8V171C18.2,172.5,15.7,172.6,13.4,171.2Z" style="fill:#3535ed"/><path class="coronaLingualCervicalMesial" d="M11.5,169.5a11.18,11.18,0,0,1-1.1-2.5,25.57,25.57,0,0,0-1.1-2.4h3.8V171A7.52,7.52,0,0,1,11.5,169.5Z" style="fill:#3535ed"/><path class="coronaLabial" d="M23.8,77.1c-3.8-3.2-7.2-4-10.4-2.2a5.19,5.19,0,0,0-1.9,1.7,8,8,0,0,0-1.1,2.5,39.86,39.86,0,0,1-3.1,6.2,11.4,11.4,0,0,0-1.5,5.8,13.39,13.39,0,0,0,1.9,6.8c7.2,9.3,13.9,9.7,20,0a5.09,5.09,0,0,0,.7-1.7c1-4.6,0-9.8-2-15.4A10.79,10.79,0,0,0,23.8,77.1Z" style="fill:#fff;stroke:#000;stroke-miterlimit:10;stroke-width:0.5px"/><path class="coronaLabialIncisalDistal" d="M27.5,98H22.9v5.3A19.33,19.33,0,0,0,27.5,98Z" style="fill:#3535ed"/><path class="coronaLabialIncisalMiddle" d="M13.1,98v5.5c3.4,2.2,6.6,2.2,9.8-.1V98Z" style="fill:#3535ed"/><path class="coronaLabialIncisionMesial" d="M7.7,98a20.57,20.57,0,0,0,5.6,5.4V98Z" style="fill:#3535ed"/><path class="coronaLabialMiddleDistal" d="M27.4,84H22.9V98h4.6v-.1a5.09,5.09,0,0,0,.7-1.7C29.1,92.5,28.6,88.4,27.4,84Z" style="fill:#3535ed"/><path class="coronaLabialMiddleMiddle" d="M22.9,84H13.1V98h9.8Z" style="fill:#3535ed"/><path class="coronaLabialMiddleMesial" d="M8.1,84a10,10,0,0,1-.8,1.4,11.4,11.4,0,0,0-1.5,5.8A13.39,13.39,0,0,0,7.7,98h5.6V84Z" style="fill:#3535ed"/><path class="coronaLabialCervicalDistal" d="M26.3,80.8a8.64,8.64,0,0,0-2.6-3.7l-.9-.7V84h4.5C27,83,26.7,81.9,26.3,80.8Z" style="fill:#3535ed"/><path class="coronaLabialCervicalMiddle" d="M13.3,74.9c-.1,0-.1.1-.2.1v9h9.8V76.4C19.5,73.8,16.3,73.2,13.3,74.9Z" style="fill:#3535ed"/><path class="coronaLabialCervicalMesial" d="M11.4,76.7a8,8,0,0,0-1.1,2.5A54,54,0,0,1,8,84.1h5.2v-9A4.55,4.55,0,0,0,11.4,76.7Z" style="fill:#3535ed"/><path class="veneer" d="M20.6,100.9c-2.7,1-3.1.9-4.9-1.4l-1.2-1.6.7,1.8c1,2.7.9,3.1-1.4,4.9l-1.6,1.2,1.8-.7c2.7-1,3.1-.9,4.9,1.4l1.2,1.5-.7-1.8c-1-2.7-.9-3.1,1.4-4.9l1.6-1.2ZM19.3,90.5c-1.7.7-1.9.6-3-.8l-1.2-1.6.7,1.8c.7,1.6.6,1.8-.8,2.9L13.4,94l1.9-.7c1.6-.7,1.8-.6,2.9.8l1.2,1.6-.7-1.8c-.7-1.7-.6-1.9.8-3l1.6-1.2Zm-10,2.4c-1.7.7-1.9.6-3-.8L5.1,90.5l.7,1.8c.7,1.7.6,1.9-.8,3L3.4,96.5l1.9-.7c1.6-.7,1.8-.6,2.9.8l1.2,1.6-.7-1.8c-.7-1.6-.6-1.8.8-2.9l1.6-1.2Z" style="fill:#3535ed"/><path class="coronaTop" d="M13,119.5l-5.7-5.2a13.56,13.56,0,0,1,19.1-.8l-5.2,5.7A5.83,5.83,0,0,0,13,119.5Zm.3,8.2-5.2,5.7a13.56,13.56,0,0,1-.8-19.1l5.7,5.2A5.92,5.92,0,0,0,13.3,127.7Zm8.3-.3,5.7,5.2h0a13.56,13.56,0,0,1-19.1.8l5.2-5.7A5.92,5.92,0,0,0,21.6,127.4Zm4.9-13.9h0a13.56,13.56,0,0,1,.8,19.1l-5.7-5.2h0a5.83,5.83,0,0,0-.4-8.2Zm-3.4,9.9a5.8,5.8,0,1,1-5.8-5.8A5.8,5.8,0,0,1,23.1,123.4Z" style="fill:#fff;stroke:#000;stroke-miterlimit:10"/><path class="coronaTopBuccal" d="M21.2,119.2l5.2-5.7a13.56,13.56,0,0,0-19.1.8l5.7,5.2A5.83,5.83,0,0,1,21.2,119.2Z" style="fill:#3535ed"/><path class="coronaTopMedial" d="M13,119.5l-5.7-5.2a13.56,13.56,0,0,0,.8,19.1l5.2-5.7A5.92,5.92,0,0,1,13,119.5Z" style="fill:#3535ed"/><path class="coronaTopLingual" d="M13.4,127.7l-5.2,5.7a13.56,13.56,0,0,0,19.1-.8h0l-5.7-5.2A5.92,5.92,0,0,1,13.4,127.7Z" style="fill:#3535ed"/><path class="coronaTopDistal" d="M21.2,119.2a5.83,5.83,0,0,1,.4,8.2h0l5.7,5.2a13.56,13.56,0,0,0-.8-19.1h0Z" style="fill:#3535ed"/><path class="coronaTopOclusial" d="M17.3,117.6a5.8,5.8,0,1,0,5.8,5.8A5.8,5.8,0,0,0,17.3,117.6Z" style="fill:#3535ed"/><path class="silant" d="M25.3,131.5a19,19,0,0,1-6.9,1.2c-5.8,0-9.2-2.2-9.2-5.4,0-2.7,2.2-4.2,6.4-5.4,3.2-.9,4.7-1.6,4.7-3.1,0-1.3-1.5-2.5-4.1-2.5a13.11,13.11,0,0,0-5,1l-1.1-2.4a15.66,15.66,0,0,1,6-1.1c5.3,0,8.4,2.4,8.4,5.3,0,2.2-2.1,4-6.5,5.1-3.3.9-4.5,1.8-4.5,3.3s1.5,2.7,4.8,2.7a16.09,16.09,0,0,0,5.9-1.3Z" style="fill:#3535ed"/><path class="crown" d="M23.6,169.1c-3.7,3.2-7.1,4-10.2,2.2a6.14,6.14,0,0,1-1.9-1.7,11.18,11.18,0,0,1-1.1-2.5,35.45,35.45,0,0,0-3-6.2A10.84,10.84,0,0,1,6,155.1a13.94,13.94,0,0,1,1.8-6.9c7-9.3,13.6-9.7,19.6,0a5.09,5.09,0,0,1,.7,1.7c1,4.6,0,9.8-1.9,15.4A9.23,9.23,0,0,1,23.6,169.1Zm.2-92c-3.8-3.2-7.2-4-10.4-2.2a5.19,5.19,0,0,0-1.9,1.7,8,8,0,0,0-1.1,2.5,39.86,39.86,0,0,1-3.1,6.2,11.4,11.4,0,0,0-1.5,5.8,13.39,13.39,0,0,0,1.9,6.8c7.2,9.3,13.9,9.7,20,0a5.09,5.09,0,0,0,.7-1.7c1-4.6,0-9.8-2-15.4A10.79,10.79,0,0,0,23.8,77.1Zm-2.6,42.1,5.2-5.7a13.56,13.56,0,0,0-19.1.8l5.7,5.2A5.83,5.83,0,0,1,21.2,119.2Zm-8.2.3-5.7-5.2a13.56,13.56,0,0,0,.8,19.1l5.2-5.7A5.92,5.92,0,0,1,13,119.5Zm.4,8.2-5.2,5.7a13.56,13.56,0,0,0,19.1-.8h0l-5.7-5.2A5.92,5.92,0,0,1,13.4,127.7Zm7.8-8.5a5.83,5.83,0,0,1,.4,8.2h0l5.7,5.2a13.56,13.56,0,0,0-.8-19.1h0Zm-3.9-1.6a5.8,5.8,0,1,0,5.8,5.8A5.8,5.8,0,0,0,17.3,117.6Z" style="fill:#fff;stroke:#000;stroke-miterlimit:10;stroke-width:0.5px"/><path class="braces" d="M17.8,88.4h0v2.7a2,2,0,0,0-1.1-.2H15.5a3.55,3.55,0,0,0-1,.2V88.4h0a3.55,3.55,0,0,0,1,.2h1.2a3.59,3.59,0,0,0,1.1-.2m-4.6-3.9a.64.64,0,0,0-.6.8v3.8H0v1.3H12.5v3.8c0,.4.3.8.6.8h1.1c.4-.1.7-.4.6-.8v-.6c0-.4.3-.8.6-.8h1.2a.77.77,0,0,1,.7.8v.5a.76.76,0,0,0,.6.8H19a.64.64,0,0,0,.6-.8V90.3H32.2V89H19.6V85.2c0-.4-.3-.8-.6-.8H17.9c-.4.1-.7.4-.6.8v.5a.77.77,0,0,1-.7.8H15.5a.64.64,0,0,1-.6-.8v-.5a.76.76,0,0,0-.6-.8l-1.1.1Z"/><path class="gum" d="M0,76.5H10S11.5,74,17.5,74c5.5.5,8,3,8,3h6.9" style="fill:none;stroke:#ffb900;stroke-linejoin:round;stroke-width:3px"/><path class="paradontit1" d="M0,76.5H7.6a4.41,4.41,0,0,0,3.6-1.8c1.7-2.3,2.8-5.9,7.1-5.9s5.1,3.8,6.3,5.9c.9,2.4,7.8,2.3,7.8,2.3" style="fill:none;stroke:#ff822e;stroke-linejoin:round;stroke-width:3px"/><path class="paradontit2" d="M0,76.5s8.3,0,9.6-1.9c1.6-3,4.3-10.8,8.4-10.8,3.7.3,6.9,7.9,8.4,10.7a4.57,4.57,0,0,0,4,2.5h2" style="fill:none;stroke:#f9610d;stroke-linejoin:round;stroke-width:3px"/><path class="paradontit3" d="M0,76.5s8.5,0,9.6-1.9c1.7-3,3.5-17,7.6-17,3.7.3,7.6,14.1,9.1,16.9a4.57,4.57,0,0,0,4,2.5h2" style="fill:none;stroke:#f9610d;stroke-linejoin:round;stroke-width:3px"/><path class="paradontit4" d="M0,76.5s7.9,0,9.1-3.1c1.2-6,2.8-20.7,7.8-20.7s8.2,15.1,9.8,21A4.39,4.39,0,0,0,31,77h1.4" style="fill:none;stroke:#f75403;stroke-linejoin:round;stroke-width:3px"/><path class="periodontit" d="M19.9,14.9a4.5,4.5,0,1,0,4.5,4.5A4.48,4.48,0,0,0,19.9,14.9Z" style="fill:#3535ed"/></g></g></g></svg>