<svg xmlns="http://www.w3.org/2000/svg" viewBox="0 0 32.4 180"><title>25tooth</title><g class="Слой_2" data-name="Слой 2"><g class="Слой_1-2" data-name="Слой 1"><g class="_25" data-name="25"><path class="background" d="M32.4,0H0V180H32.4Z" style="fill:#9fdaff"/><path class="bone" d="M32.4,0H0V77H32.4Z" style="fill:#de82a7"/><path class="bridge" d="M0,151.9v-4l32.4.2v4Zm32.4-25.8v-4L0,121.9v4Zm0-27v-4L0,94.9v4Z" style="fill:#3535ed"/><path class="root" d="M24.4,80.7a200.08,200.08,0,0,1-3.7-49.8,7.35,7.35,0,0,0-1-4.1c-1.5-2.3-2.9-1.7-4.3,1.3-2.3,4.8-5,20.7-8.1,53.2" style="fill:#f8edc8;stroke:#292320;stroke-miterlimit:10;stroke-width:0.25px"/><path class="rootCanal" d="M13.5,74.7l3.9-.5c3.9,1.6,6.1,2.6,2.3-3.8-5.5-9.3-1.9-34.1-.9-43.3a.88.88,0,0,0-1.7-.4c-3.1,8.1-3.6,39.8-3.9,41.8l-2.7,4.3a.71.71,0,0,0,.3,1l2.2.8C13.2,74.7,13.4,74.8,13.5,74.7Z" style="fill:#3535ed"/><path class="implant" d="M9.3,40l14-2.2a1.39,1.39,0,0,0-.7-.8,15.23,15.23,0,0,0-12.2,0,2,2,0,0,0-1,1.6Zm0,4,14.4-2.3-.1-2.5L9.3,41.5Zm-.2,4,14.7-2.3-.1-2.5L9.2,45.5ZM9,52l14.9-2.3V47.3L9.1,49.6Zm-.2,4.1L24,53.7l-.1-2.5-15,2.3Zm0,4,15.4-2.4-.1-2.5L8.8,57.6Zm-.1,5.2,15.8-2.5-.1-2.5L8.7,62.7v2.6Zm-.2.5h16l-.1-2.6L8.5,65.7ZM7.1,70.6H26V68.7a1.45,1.45,0,0,0-.2-.7.91.91,0,0,0-.7-.3H8a.91.91,0,0,0-.7.3,1.85,1.85,0,0,0-.2.7Zm-.8,4.1a.94.94,0,0,0,1,1H25.4a1.08,1.08,0,0,0,1-1V73.5c0-.5-.1-.7-.4-.9-.1,0-.2-.1-.4-.1H7.6a1.08,1.08,0,0,0-1,1Z" style="fill:#3535ed"/><path class="rootMusk" d="M24.4,80.7a200.08,200.08,0,0,1-3.7-49.8,7.35,7.35,0,0,0-1-4.1c-1.5-2.3-2.9-1.7-4.3,1.3-2.3,4.8-5,20.7-8.1,53.2" style="fill:#f8edc8;stroke:#292320;stroke-miterlimit:10;stroke-width:0.25px"/><path class="coronaLingual" d="M20.8,142.4c-3.5-2.9-7-1.8-10.6.5-6.4,2.6-9.2,6.9-6,13.6L9,168a5.7,5.7,0,0,0,2.5,2.8c2.6,1.5,5.1,1.9,7.4,1.1a5.38,5.38,0,0,0,3.4-3.9,43.08,43.08,0,0,1,4.8-12,9.71,9.71,0,0,0-.2-8,5.26,5.26,0,0,0-1.6-2Z" style="fill:#fff;stroke:#000;stroke-miterlimit:10;stroke-width:0.5px"/><path class="coronaLingualIncisalDistal" d="M19.7,152.5v-11a7.63,7.63,0,0,1,1.1.8l4.4,3.7a6.52,6.52,0,0,1,1.6,2.1,9.76,9.76,0,0,1,1,4.4Z" style="fill:#3535ed"/><path class="coronaLingualIncisalMiddle" d="M10.2,152.5v-9.7h0c3.1-2.1,6.3-3.2,9.5-1.3v11Z" style="fill:#3535ed"/><path class="coronaLingualIncisionMesial" d="M3,152.5c-.6-4.5,2.2-7.6,7.2-9.7v9.7Z" style="fill:#3535ed"/><path class="coronaLingualMiddleDistal" d="M27,156a43.36,43.36,0,0,0-4.3,10.2h-3V152.5h8A10.39,10.39,0,0,1,27,156Z" style="fill:#3535ed"/><path class="coronaLingualMiddleMiddle" d="M19.7,152.5H10.2v13.8h9.5Z" style="fill:#3535ed"/><path class="coronaLingualMiddleMesial" d="M8.3,166.2l-4.1-9.8A13.56,13.56,0,0,1,3,152.5h7.2v13.8l-1.9-.1Z" style="fill:#3535ed"/><path class="coronaLingualCervicalDistal" d="M22.2,168a5,5,0,0,1-2.6,3.4v-5.2h3C22.5,166.8,22.3,167.4,22.2,168Z" style="fill:#3535ed"/><path class="coronaLingualCervicalMiddle" d="M18.9,171.9c-2.3.8-4.8.4-7.4-1.1a6.42,6.42,0,0,1-1.3-1v-3.6h9.5v5.3A2,2,0,0,1,18.9,171.9Z" style="fill:#3535ed"/><path class="coronaLingualCervicalMesial" d="M9,167.9l-.7-1.7h2v3.6A5,5,0,0,1,9,167.9Z" style="fill:#3535ed"/><path class="coronaLabial" d="M21.8,78c5.1,6.4,7.3,13.1,6,20.2a14,14,0,0,1-6,6.7c-2.7,1.6-5.2,1.7-7.4-.3a39.16,39.16,0,0,1-9.3-8.4A5.68,5.68,0,0,1,4.4,94a11.46,11.46,0,0,1,.9-6.3,18.16,18.16,0,0,0,1.4-3.9A10.59,10.59,0,0,1,11,77.2C14.5,75,18.1,75.5,21.8,78Z" style="fill:#fff;stroke:#000;stroke-miterlimit:10;stroke-width:0.5px"/><path class="coronaLabialIncisalDistal" d="M21.1,98v7.2a4.88,4.88,0,0,1,.7-.3,13.53,13.53,0,0,0,6-6.7V98Z" style="fill:#3535ed"/><path class="coronaLabialIncisalMiddle" d="M11.5,98v4.3a34.57,34.57,0,0,0,3.1,2.2c2,1.8,4.2,1.8,6.7.7V98Z" style="fill:#3535ed"/><path class="coronaLabialIncisionMesial" d="M6.9,98a31.25,31.25,0,0,0,4.6,4.3V98Z" style="fill:#3535ed"/><path class="coronaLabialMiddleDistal" d="M25.7,84H21.2V98h6.7A22.58,22.58,0,0,0,25.7,84Z" style="fill:#3535ed"/><path class="coronaLabialMiddleMiddle" d="M21.2,84H11.4V98h9.8Z" style="fill:#3535ed"/><path class="coronaLabialMiddleMesial" d="M6.8,83.9a16.27,16.27,0,0,1-1.3,3.7,9.72,9.72,0,0,0-.9,6.3,5.68,5.68,0,0,0,.7,2.2A14.62,14.62,0,0,0,6.9,98h4.6V84l-4.7-.1Z" style="fill:#3535ed"/><path class="coronaLabialCervicalDistal" d="M21.8,78l-.7-.4V84h4.5A31.85,31.85,0,0,0,21.8,78Z" style="fill:#3535ed"/><path class="coronaLabialCervicalMiddle" d="M11.5,77v7h9.8V77.6C17.8,75.5,14.5,75.2,11.5,77Z" style="fill:#3535ed"/><path class="coronaLabialCervicalMesial" d="M11.2,77.2a10.59,10.59,0,0,0-4.3,6.6l-.1.2h4.7V77Z" style="fill:#3535ed"/><path class="veneer" d="M20.1,100.9c-2.7,1-3.1.9-4.9-1.4L14,97.9l.7,1.8c1,2.7.9,3.1-1.4,4.9l-1.6,1.2,1.8-.7c2.7-1,3.1-.9,4.9,1.4l1.2,1.5-.7-1.8c-1-2.7-.9-3.1,1.4-4.9l1.6-1.2ZM18.9,90.5c-1.6.7-1.8.6-2.9-.8l-1.2-1.6.7,1.8c.7,1.6.6,1.8-.8,2.9L13.1,94l1.8-.7c1.6-.7,1.8-.6,2.9.8L19,95.7l-.7-1.8c-.7-1.7-.6-1.9.8-3l1.6-1.2ZM8.8,92.9c-1.6.7-1.8.6-2.9-.8L4.7,90.5l.7,1.8c.7,1.7.6,1.9-.8,3L3,96.5l1.9-.7c1.6-.7,1.8-.6,2.9.8L9,98.2l-.7-1.8c-.7-1.6-.6-1.8.8-2.9l1.6-1.2Z" style="fill:#3535ed"/><path class="coronaTop" d="M12.6,119.5l-5.7-5.2a13.56,13.56,0,0,1,19.1-.8l-5.2,5.7A5.74,5.74,0,0,0,12.6,119.5Zm.3,8.2-5.2,5.7h0a13.56,13.56,0,0,1-.8-19.1l5.7,5.2A5.92,5.92,0,0,0,12.9,127.7Zm8.3-.3,5.7,5.2h0a13.56,13.56,0,0,1-19.1.8l5.2-5.7A5.92,5.92,0,0,0,21.2,127.4Zm4.9-13.9a13.56,13.56,0,0,1,.8,19.1l-5.7-5.2a5.83,5.83,0,0,0-.4-8.2Zm-3.4,9.9a5.8,5.8,0,1,1-5.8-5.8A5.87,5.87,0,0,1,22.7,123.4Z" style="fill:none;stroke:#000;stroke-miterlimit:10"/><path class="coronaTopBuccal" d="M20.8,119.2l5.2-5.7a13.56,13.56,0,0,0-19.1.8l5.7,5.2A5.74,5.74,0,0,1,20.8,119.2Z" style="fill:#3535ed"/><path class="coronaTopMedial" d="M12.6,119.5l-5.7-5.2a13.56,13.56,0,0,0,.8,19.1h0l5.2-5.7A5.92,5.92,0,0,1,12.6,119.5Z" style="fill:#3535ed"/><path class="coronaTopLingual" d="M13,127.7l-5.2,5.7a13.56,13.56,0,0,0,19.1-.8h0l-5.7-5.2A5.92,5.92,0,0,1,13,127.7Z" style="fill:#3535ed"/><path class="coronaTopDistal" d="M20.8,119.2a5.83,5.83,0,0,1,.4,8.2l5.7,5.2a13.56,13.56,0,0,0-.8-19.1Z" style="fill:#3535ed"/><path class="coronaTopOclusial" d="M16.9,117.6a5.8,5.8,0,1,0,5.8,5.8A5.87,5.87,0,0,0,16.9,117.6Z" style="fill:#3535ed"/><path class="silant" d="M24.8,131.5a19,19,0,0,1-6.9,1.2c-5.8,0-9.2-2.2-9.2-5.4,0-2.7,2.2-4.2,6.4-5.4,3.2-.9,4.7-1.6,4.7-3.1,0-1.3-1.5-2.5-4.1-2.5a13.11,13.11,0,0,0-5,1l-1.1-2.4a15.66,15.66,0,0,1,6-1.1c5.3,0,8.4,2.4,8.4,5.3,0,2.2-2.1,4-6.5,5.1-3.3.9-4.5,1.8-4.5,3.3s1.5,2.7,4.8,2.7a16.09,16.09,0,0,0,5.9-1.3Z" style="fill:#3535ed"/><path class="crown" d="M25.3,146a5.26,5.26,0,0,1,1.6,2,9.71,9.71,0,0,1,.2,8,43.08,43.08,0,0,0-4.8,12,5.38,5.38,0,0,1-3.4,3.9c-2.3.8-4.8.4-7.4-1.1A5.7,5.7,0,0,1,9,168L4.2,156.5c-3.2-6.7-.4-11,6-13.6,3.6-2.3,7.1-3.4,10.6-.5ZM11,77.2a10.59,10.59,0,0,0-4.3,6.6,18.16,18.16,0,0,1-1.4,3.9A11.46,11.46,0,0,0,4.4,94a5.68,5.68,0,0,0,.7,2.2,39.16,39.16,0,0,0,9.3,8.4c2.2,2,4.7,1.9,7.4.3a14,14,0,0,0,6-6.7c1.3-7.1-.9-13.8-6-20.2C18.1,75.5,14.5,75,11,77.2Zm9.8,42,5.2-5.7a13.56,13.56,0,0,0-19.1.8l5.7,5.2A5.74,5.74,0,0,1,20.8,119.2Zm-8.2.3-5.7-5.2a13.56,13.56,0,0,0,.8,19.1h0l5.2-5.7A5.92,5.92,0,0,1,12.6,119.5Zm.4,8.2-5.2,5.7a13.56,13.56,0,0,0,19.1-.8h0l-5.7-5.2A5.92,5.92,0,0,1,13,127.7Zm7.8-8.5a5.83,5.83,0,0,1,.4,8.2l5.7,5.2a13.56,13.56,0,0,0-.8-19.1Zm-3.9-1.6a5.8,5.8,0,1,0,5.8,5.8A5.87,5.87,0,0,0,16.9,117.6Z" style="fill:#fff;stroke:#000;stroke-miterlimit:10;stroke-width:0.5px"/><path class="braces" d="M17.8,88.4h0v2.7a2,2,0,0,0-1.1-.2H15.5a3.55,3.55,0,0,0-1,.2V88.4h0a3.55,3.55,0,0,0,1,.2h1.2a3.59,3.59,0,0,0,1.1-.2m-4.6-3.9a.64.64,0,0,0-.6.8v3.8H0v1.3H12.5v3.8c0,.4.3.8.6.8h1.1c.4-.1.7-.4.6-.8v-.6a.77.77,0,0,1,.7-.8h1.2a.64.64,0,0,1,.6.8v.5a.76.76,0,0,0,.6.8H19a.64.64,0,0,0,.6-.8V90.3H32.2V89H19.6V85.2c0-.4-.3-.8-.6-.8H17.9c-.4.1-.7.4-.6.8v.5c0,.4-.3.8-.6.8H15.6a.64.64,0,0,1-.6-.8v-.5a.76.76,0,0,0-.6-.8l-1.2.1Z"/><path class="gum" d="M0,77H9s2-3,7-3,7,3,7,3h9.4" style="fill:none;stroke:#ffb900;stroke-linejoin:round;stroke-width:3px"/><path class="paradontit1" d="M0,77H6.4A4.41,4.41,0,0,0,10,75.2c3.1-10.4,11.6-4.5,12,0A4.36,4.36,0,0,0,25.5,77h6.9" style="fill:none;stroke:#ff822e;stroke-linejoin:round;stroke-width:3px"/><path class="paradontit2" d="M0,77H3.5a4.51,4.51,0,0,0,3.7-2c1.8-2.6,5.1-10.3,8.6-10.3s6.5,7.4,8,10A4.54,4.54,0,0,0,27.7,77h4.7" style="fill:none;stroke:#f9610d;stroke-linejoin:round;stroke-width:3px"/><path class="paradontit3" d="M0,77H3.5a4.51,4.51,0,0,0,3.7-2c1.8-2.6,5.5-16.3,9-16.3s6.1,13.4,7.6,16A4.54,4.54,0,0,0,27.7,77h4.7" style="fill:none;stroke:#f9610d;stroke-linejoin:round;stroke-width:3px"/><path class="paradontit4" d="M0,77H2.4a4.5,4.5,0,0,0,4.4-3.4C8.4,67,10,53.1,16,53.1s7,13.7,8.3,20.4A4.41,4.41,0,0,0,28.7,77h3.7" style="fill:none;stroke:#f75403;stroke-linejoin:round;stroke-width:3px"/><path class="periodontit" d="M18.5,17.9A4.5,4.5,0,1,0,23,22.4,4.55,4.55,0,0,0,18.5,17.9Z" style="fill:#3535ed"/></g></g></g></svg>