<svg xmlns="http://www.w3.org/2000/svg" viewBox="0 0 46.4 180"><title>26tooth</title><g class="Слой_2" data-name="Слой 2"><g class="Слой_1-2" data-name="Слой 1"><g class="_26" data-name="26"><path class="background" d="M46.4,0H0V180H46.4Z" style="fill:#9fdaff"/><path class="bone" d="M46.4,0H0V77H46.4Z" style="fill:#de82a7"/><path class="bridge" d="M0,152.1v-4l46.4.1v4Zm46.4-25.9v-4L0,122.1v4Zm0-27v-4L0,95.1v4Z" style="fill:#3535ed"/><path class="root" d="M41.4,79.8c-8.5-9.6-7.1-29-2.1-52.1a4.88,4.88,0,0,0-1.2-4.8,2.45,2.45,0,0,0-3.6,0,6.18,6.18,0,0,0-2.2,4.7,52.07,52.07,0,0,1-6.5,23.5l-6.1-.2c-4-6-5.4-14.2-5.5-23.7a4.84,4.84,0,0,0-1.6-3.6c-1.5-1.2-2.9-.5-4,2.3-2.3,7.7,0,30.9,1.4,51m15.7-26-6.1-.2L15.3,39.4a84.4,84.4,0,0,1,7.4-22.6c1.5-2.1,2.8-2.5,3.7-.8a4.24,4.24,0,0,1,.3,2.7c-1.9,9-1.5,17.4,2.3,25" style="fill:#f8edc8;stroke:#292320;stroke-miterlimit:10;stroke-width:0.25px"/><path class="rootCanal" d="M32,76.8A1.3,1.3,0,0,0,33.3,75c-4.4-12.2,4.6-51.7,4.6-51.7-4.6-3.3-10,58.2-12.7,47.8-5-13.5.2-49.1.2-54.7-4.4-5.2-6.3,46.2-6.8,49s-.4,12.9-2.7,2.6c-1.9-8.7-3.3-33.4-4.3-44.1a.9.9,0,0,0-1.8.1c.1,6.9,1.1,36.6,1.3,40a53.84,53.84,0,0,0,1.8,12h0s.2.3,3.1-.2l2.1-.3a18.86,18.86,0,0,1,6.1.3h.1A26.3,26.3,0,0,0,32,76.8Z" style="fill:#3535ed"/><path class="implant" d="M16.8,40l13.9-2.2c-.2-.4-.4-.7-.8-.8a15.23,15.23,0,0,0-12.2,0,1.78,1.78,0,0,0-1,1.6V40Zm-.3,4,14.4-2.2-.1-2.4L16.6,41.6Zm-.1,4L31,45.7l-.1-2.4L16.5,45.6Zm-.3,4.1L31,49.7l-.1-2.4L16.3,49.6Zm0,3.9,15.2-2.4-.1-2.4-15,2.4Zm0,4.1,15.4-2.4-.1-2.4L16,57.7v2.4Zm-.2,5.2,15.8-2.4-.1-2.4L16,62.9Zm-.1.5h16l-.1-2.6L15.8,65.6Zm-1.6,4.9a.6.6,0,0,1,.4-.1H32.7a.6.6,0,0,0,.4.1v-2a.84.84,0,0,0-.2-.7.75.75,0,0,0-.7-.4H15a.75.75,0,0,0-.7.4,1.85,1.85,0,0,0-.2.7v2Zm-.6,4a.94.94,0,0,0,1,1H32.7a1.08,1.08,0,0,0,1-1V73.5a.89.89,0,0,0-.4-.8.76.76,0,0,0-.4-.2H14.8a.52.52,0,0,0-.4.2.91.91,0,0,0-.4.8Z" style="fill:#3535ed"/><path class="rootMusk" d="M41.4,79.8c-8.5-9.6-7.1-29-2.1-52.1a4.88,4.88,0,0,0-1.2-4.8,2.45,2.45,0,0,0-3.6,0,6.18,6.18,0,0,0-2.2,4.7,52.07,52.07,0,0,1-6.5,23.5l-6.1-.2c-4-6-5.4-14.2-5.5-23.7a4.84,4.84,0,0,0-1.6-3.6c-1.5-1.2-2.9-.5-4,2.3-2.3,7.7,0,30.9,1.4,51m15.7-26-6.1-.2L15.3,39.4a84.4,84.4,0,0,1,7.4-22.6c1.5-2.1,2.8-2.5,3.7-.8a4.24,4.24,0,0,1,.3,2.7c-1.9,9-1.5,17.4,2.3,25" style="fill:#f8edc8;stroke:#292320;stroke-miterlimit:10;stroke-width:0.25px"/><path class="coronaLingual" d="M28.5,170.2A95.2,95.2,0,0,0,10.9,168a4.55,4.55,0,0,1-3.6-1.8c-3.3-4.4-4.7-10.5-4.7-17.6.8-4.4,2.8-5.7,5.6-5.1a2,2,0,0,0,1.3-.1l3.3-1a10.12,10.12,0,0,1,10.1,0,5.72,5.72,0,0,1,1.6,1.1c1,1.1,2.4,1.1,3.9.6a9.25,9.25,0,0,1,7.8.1c2.6,1.3,6.4,4,7.2,7,1.9,6.9-2,12.8-8.2,17.6A8.91,8.91,0,0,1,28.5,170.2Z" style="fill:#fff;stroke:#000;stroke-miterlimit:10;stroke-width:0.5px"/><path class="coronaLingualIncisalDistal" d="M31.9,149v-6a8,8,0,0,1,4.3.9,17.34,17.34,0,0,1,6.3,5.1Z" style="fill:#3535ed"/><path class="coronaLingualIncisalMiddle" d="M15.2,149v-7.8a10.64,10.64,0,0,1,7.8,1,5.72,5.72,0,0,1,1.6,1.1c1,1.1,2.4,1.1,3.9.6a10.5,10.5,0,0,1,3.5-.8v6Z" style="fill:#3535ed"/><path class="coronaLingualIncisionMesial" d="M2.7,149v-.6c.8-4.4,2.8-5.7,5.6-5.1a2,2,0,0,0,1.3-.1l3.3-1a9.43,9.43,0,0,1,2.3-1V149Z" style="fill:#3535ed"/><path class="coronaLingualMiddleDistal" d="M40.9,162.8h-9V149H42.5a6.63,6.63,0,0,1,.9,1.9C44.6,155.3,43.4,159.3,40.9,162.8Z" style="fill:#3535ed"/><path class="coronaLingualMiddleMiddle" d="M31.9,149H15.1v13.8H31.9Z" style="fill:#3535ed"/><path class="coronaLingualMiddleMesial" d="M5.4,162.8A32.4,32.4,0,0,1,2.7,149H15.3v13.8Z" style="fill:#3535ed"/><path class="coronaLingualCervicalDistal" d="M10.9,167.9a4.55,4.55,0,0,1-3.6-1.8,13.5,13.5,0,0,1-1.9-3.3h9.9v5.3C13.8,168,12.4,167.9,10.9,167.9Z" style="fill:#3535ed"/><path class="coronaLingualCervicalMiddle" d="M28.5,170.1a99.25,99.25,0,0,0-13.3-2v-5.3H32v7.3A10.28,10.28,0,0,1,28.5,170.1Z" style="fill:#3535ed"/><path class="coronaLingualCervicalMesial" d="M35.1,168.5a10.67,10.67,0,0,1-3.2,1.6v-7.3h9A28.51,28.51,0,0,1,35.1,168.5Z" style="fill:#3535ed"/><path class="coronaLabial" d="M42.4,98.9c2.9-4.1,3.1-9.8,1-16.9a7.53,7.53,0,0,0-3.6-4.4l-3-1.7a3.45,3.45,0,0,0-1.8-.5,31.09,31.09,0,0,1-6-.9c-3.7-1.5-6.9-1.8-9.7-.4a2.89,2.89,0,0,1-1.8.3c-4.4-.3-7.8.5-9.3,3.4L4.8,86.7a13.56,13.56,0,0,0-1,7.7c2.5,6.4,6.9,9.5,12.8,10.4a6.56,6.56,0,0,0,4.3-1c3.3-2.2,6.6-2.5,9.8-.3C35,105.7,38.8,103.4,42.4,98.9Z" style="fill:#fff;stroke:#000;stroke-miterlimit:10;stroke-width:0.5px"/><path class="coronaLabialIncisalDistal" d="M32.6,98v6.2c3.4.9,6.7-1.4,9.8-5.2a8.79,8.79,0,0,0,.6-1Z" style="fill:#3535ed"/><path class="coronaLabialIncisalMiddle" d="M15.7,98v6.5a5,5,0,0,0,1.2.2,6.56,6.56,0,0,0,4.3-1c3.3-2.2,6.6-2.5,9.8-.3a8.65,8.65,0,0,0,1.7.7V98Z" style="fill:#3535ed"/><path class="coronaLabialIncisionMesial" d="M6,98a14.81,14.81,0,0,0,9.8,6.5V98Z" style="fill:#3535ed"/><path class="coronaLabialMiddleDistal" d="M43.9,84H32.6V98H42.9C45,94.4,45.3,89.7,43.9,84Z" style="fill:#3535ed"/><path class="coronaLabialMiddleMiddle" d="M32.6,84h-17V98h17Z" style="fill:#3535ed"/><path class="coronaLabialMiddleMesial" d="M6.1,84l-1,2.7a13.56,13.56,0,0,0-1,7.7A15.47,15.47,0,0,0,6,98h9.8V84Z" style="fill:#3535ed"/><path class="coronaLabialCervicalDistal" d="M43.4,82a7.53,7.53,0,0,0-3.6-4.4l-3-1.7a3.45,3.45,0,0,0-1.8-.5,17.91,17.91,0,0,1-2.4-.2v8.9H44Z" style="fill:#3535ed"/><path class="coronaLabialCervicalMiddle" d="M29.2,74.4c-3.7-1.5-6.9-1.8-9.7-.4a2.89,2.89,0,0,1-1.8.3h-2V84h17V75.1A13.59,13.59,0,0,1,29.2,74.4Z" style="fill:#3535ed"/><path class="coronaLabialCervicalMesial" d="M8.5,77.8,6.2,84h9.6V74.3C12.3,74.4,9.7,75.3,8.5,77.8Z" style="fill:#3535ed"/><path class="veneer" d="M23.6,100.2c-3.3,1.2-3.7,1.1-5.9-1.7l-1.4-1.9.8,2.2c1.2,3.3,1.1,3.7-1.7,5.9l-1.9,1.4,2.2-.8c3.3-1.2,3.7-1.1,5.9,1.7l1.4,1.9-.8-2.2c-1.2-3.3-1.1-3.7,1.7-5.9l1.9-1.4ZM22.1,87.8c-2.1.8-2.3.7-3.6-1l-1.4-1.9.8,2.2c.8,2.1.7,2.3-1,3.6L15,92.1l2.2-.8c2.1-.8,2.3-.7,3.6,1l1.4,1.9L21.4,92c-.8-2.1-.7-2.3,1-3.6L24.3,87ZM9.8,90.9c-2.1.8-2.3.7-3.6-1L4.8,88l.9,2.2c.8,2.1.7,2.3-1,3.6L2.8,95.2,5,94.4c2.1-.8,2.3-.7,3.6,1l1.5,1.9-.8-2.2c-.8-2.1-.7-2.3,1-3.6l1.9-1.4Zm25.5,8.9c-2.1.8-2.3.7-3.6-1l-1.4-1.9.7,2.2c.8,2.1.7,2.3-1,3.6l-1.9,1.4,2.2-.8c2.1-.8,2.3-.7,3.6,1l1.4,1.9-.8-2.2c-.8-2.1-.7-2.3,1-3.6L37.4,99Zm3.6-8.9c-2.1.8-2.3.7-3.6-1L33.9,88l.8,2.2c.8,2.1.7,2.3-1,3.6l-1.9,1.4,2.2-.8c2.1-.8,2.3-.7,3.6,1L39,97.3l-.8-2.2c-.8-2.1-.7-2.3,1-3.6l1.9-1.4Z" style="fill:#3535ed"/><path class="coronaTop" d="M18.1,119.5l-5.7-5.2a13.56,13.56,0,0,1,19.1-.8l-5.2,5.7A5.83,5.83,0,0,0,18.1,119.5Zm0,0a5.92,5.92,0,0,0,.3,8.2l-5.2,5.7h0a13.56,13.56,0,0,1-.8-19.1l5.7,5.2Zm8.6,7.9,5.7,5.2h0a13.56,13.56,0,0,1-19.1.8l5.2-5.7A5.92,5.92,0,0,0,26.7,127.4Zm4.8-13.9a13.56,13.56,0,0,1,.8,19.1l-5.7-5.2a5.74,5.74,0,0,0-.3-8.2Zm-3.3,9.9a5.8,5.8,0,1,1-5.8-5.8A5.8,5.8,0,0,1,28.2,123.4Z" style="fill:#fff;stroke:#000;stroke-miterlimit:10"/><path class="coronaTopBuccal" d="M26.3,119.2l5.2-5.7a13.56,13.56,0,0,0-19.1.8l5.7,5.2A5.83,5.83,0,0,1,26.3,119.2Z" style="fill:#3535ed"/><path class="coronaTopMedial" d="M18.1,119.5l-5.7-5.2a13.56,13.56,0,0,0,.8,19.1h0l5.2-5.7a5.92,5.92,0,0,1-.3-8.2Z" style="fill:#3535ed"/><path class="coronaTopLingual" d="M18.5,127.7l-5.2,5.7a13.56,13.56,0,0,0,19.1-.8h0l-5.7-5.2A5.92,5.92,0,0,1,18.5,127.7Z" style="fill:#3535ed"/><path class="coronaTopDistal" d="M26.3,119.2a5.74,5.74,0,0,1,.3,8.2l5.7,5.2a13.56,13.56,0,0,0-.8-19.1Z" style="fill:#3535ed"/><path class="coronaTopOclusial" d="M22.4,117.6a5.8,5.8,0,1,0,5.8,5.8A5.8,5.8,0,0,0,22.4,117.6Z" style="fill:#3535ed"/><path class="silant" d="M30.3,131.5a19,19,0,0,1-6.9,1.2c-5.8,0-9.2-2.2-9.2-5.4,0-2.7,2.2-4.2,6.4-5.4,3.2-.9,4.7-1.6,4.7-3.1,0-1.3-1.5-2.5-4.1-2.5a13.11,13.11,0,0,0-5,1l-1.1-2.4a15.66,15.66,0,0,1,6-1.1c5.3,0,8.4,2.4,8.4,5.3,0,2.2-2.1,4-6.5,5.1-3.3.9-4.5,1.8-4.5,3.3s1.5,2.7,4.8,2.7a16.09,16.09,0,0,0,5.9-1.3Z" style="fill:#3535ed"/><path class="crown" d="M28.5,170.2A95.2,95.2,0,0,0,10.9,168a4.55,4.55,0,0,1-3.6-1.8c-3.3-4.4-4.7-10.5-4.7-17.6.8-4.4,2.8-5.7,5.6-5.1a2,2,0,0,0,1.3-.1l3.3-1a10.12,10.12,0,0,1,10.1,0,5.72,5.72,0,0,1,1.6,1.1c1,1.1,2.4,1.1,3.9.6a9.25,9.25,0,0,1,7.8.1c2.6,1.3,6.4,4,7.2,7,1.9,6.9-2,12.8-8.2,17.6A8.91,8.91,0,0,1,28.5,170.2ZM42.4,98.9c2.9-4.1,3.1-9.8,1-16.9a7.53,7.53,0,0,0-3.6-4.4l-3-1.7a3.45,3.45,0,0,0-1.8-.5,31.09,31.09,0,0,1-6-.9c-3.7-1.5-6.9-1.8-9.7-.4a2.89,2.89,0,0,1-1.8.3c-4.4-.3-7.8.5-9.3,3.4L4.8,86.7a13.56,13.56,0,0,0-1,7.7c2.5,6.4,6.9,9.5,12.8,10.4a6.56,6.56,0,0,0,4.3-1c3.3-2.2,6.6-2.5,9.8-.3C35,105.7,38.8,103.4,42.4,98.9ZM26.3,119.2l5.2-5.7a13.56,13.56,0,0,0-19.1.8l5.7,5.2A5.83,5.83,0,0,1,26.3,119.2Zm-8.2.3-5.7-5.2a13.56,13.56,0,0,0,.8,19.1h0l5.2-5.7a5.92,5.92,0,0,1-.3-8.2Zm.4,8.2-5.2,5.7a13.56,13.56,0,0,0,19.1-.8h0l-5.7-5.2A5.92,5.92,0,0,1,18.5,127.7Zm7.8-8.5a5.74,5.74,0,0,1,.3,8.2l5.7,5.2a13.56,13.56,0,0,0-.8-19.1Zm-3.9-1.6a5.8,5.8,0,1,0,5.8,5.8A5.8,5.8,0,0,0,22.4,117.6Z" style="fill:#fff;stroke:#000;stroke-miterlimit:10;stroke-width:0.5px"/><path class="braces" d="M24.8,88.4h0v2.7a2,2,0,0,0-1.1-.2H22.5a3.55,3.55,0,0,0-1,.2V88.4h0a3.55,3.55,0,0,0,1,.2h1.2a3.59,3.59,0,0,0,1.1-.2m-4.6-3.9a.64.64,0,0,0-.6.8v3.8H0v1.3H19.5v3.8a.77.77,0,0,0,.7.8h1.1c.4-.1.7-.4.6-.8v-.6c0-.4.3-.8.6-.8h1.2a.64.64,0,0,1,.6.8v.5a.76.76,0,0,0,.6.8H26a.64.64,0,0,0,.6-.8V90.3H46.2V89H26.6V85.2c0-.4-.3-.8-.6-.8H24.9c-.4.1-.7.4-.6.8v.5c0,.4-.3.8-.6.8H22.6a.64.64,0,0,1-.6-.8v-.5a.76.76,0,0,0-.6-.8l-1.2.1Z"/><path class="gum" d="M0,77H8c1.5,0,2.5-3,16-3.5C32.5,73,40.5,77,40.5,77h5.9" style="fill:none;stroke:#ffb900;stroke-linejoin:round;stroke-width:3px"/><path class="paradontit1" d="M0,77H8c1.5,0,2.8-7.5,16.3-8,6.6-.4,12.7,5.4,15.1,7.1A4.32,4.32,0,0,0,42,77h4.4" style="fill:none;stroke:#ff822e;stroke-linejoin:round;stroke-width:3px"/><path class="paradontit2" d="M0,77H8c1.5,0,2.7-11.6,16.2-12.1,6.4-.4,12.5,7.6,15,10.5A4.58,4.58,0,0,0,42.6,77h3.8" style="fill:none;stroke:#f9610d;stroke-linejoin:round;stroke-width:3px"/><path class="paradontit3" d="M0,77H8c1.5,0,3.4-16.3,16.9-16.8,6.4-.4,11.8,12.3,14.3,15.2A4.58,4.58,0,0,0,42.6,77h3.8" style="fill:none;stroke:#f9610d;stroke-linejoin:round;stroke-width:3px"/><path class="paradontit4" d="M0,77H8c1.5,0,.2-21.6,15.2-21.6S36.7,69.6,39.3,74.6a4.47,4.47,0,0,0,4,2.4h3.1" style="fill:none;stroke:#f75403;stroke-linejoin:round;stroke-width:3px"/><path class="periodontit" d="M15.5,19.4A4.5,4.5,0,1,1,11,14.9,4.48,4.48,0,0,1,15.5,19.4Zm15-7A4.5,4.5,0,1,1,26,7.9,4.55,4.55,0,0,1,30.5,12.4Zm10.9,6a4.5,4.5,0,1,1-4.5-4.5A4.48,4.48,0,0,1,41.4,18.4Z" style="fill:#3535ed"/></g></g></g></svg>