<svg xmlns="http://www.w3.org/2000/svg" viewBox="0 0 44.5 180"><title>27tooth</title><g class="Слой_2" data-name="Слой 2"><g class="Слой_1-2" data-name="Слой 1"><g class="_27" data-name="27"><path class="background" d="M44.5,0H.1V180H44.5Z" style="fill:#9fdaff"/><path class="bone" d="M44.5,0H.1V77H44.5Z" style="fill:#de82a7"/><path class="bridge" d="M.1,99.2v-4l44.4.1v4Zm44.4,53.2v-4L.1,148.2v4Zm0-26v-4L.1,122.2v4Z" style="fill:#3535ed"/><path class="root" d="M37.3,77.4a52,52,0,0,1-3.1-31.6,35.13,35.13,0,0,0,.7-12.3c-1.6-3.6-3.3-4.2-4.9-2.2,0,0-3.5,12.4-3.3,12,.1-.2,2.2-16,1.5-16-1.4-2.5-2.8-2.4-4.2,0-3.8,6.8-5.4,15-5.3,24.5-1.8-6.9-1.1-14.3,1.4-22.1,0-1.7-.7-2.2-2-1.7l-.3.2c-5.4,4.5-8.3,11.9-9.4,21.2L6.9,79.7" style="fill:#f8edc8;stroke:#292320;stroke-miterlimit:10;stroke-width:0.25px"/><path class="rootCanal" d="M31.7,78.9c.3,0,.5-.3.4-.5-.6-3.2-1.1-20.2-.8-32.7.2-9.2,2.1-14.5,1.3-15.2s-2.3,6.8-3.4,16.4c-1.6,14.6-2.7,32.6-5.3,25.2-3.2-9.1-.2-28.3,1.7-38.8.1-.6,1.5-7.4,1-7.5s-2.9,6.4-3.1,7.1C20.9,44.5,18.7,67,19.3,69c.8,2.5-2.8,12.1-4.9,2.3-2.3-10.4-.1-24.7,1.8-33.8.2-.7,3.1-10.1,1.9-8.9-2.9,3-6.3,16.9-6.8,20.5-1,7-2,26.2-2.3,29.8a.87.87,0,0,0,.5.9,6.16,6.16,0,0,0,4.8.5h.1c2.6-1.2,4.9-2.5,7.3-3.9.1,0,.1-.1.2-.1.7-.1,4.6-.4,5.5,1.3C28.3,78.7,30.6,78.9,31.7,78.9Z" style="fill:#3535ed"/><path class="implant" d="M13.9,40l14-2.2a1.78,1.78,0,0,0-.7-.8A15.23,15.23,0,0,0,15,37a1.7,1.7,0,0,0-.9,1.6Zm-.2,4.1,14.4-2.2L28,39.4,13.9,41.6Zm0,4.1,14.7-2.3-.1-2.5L13.9,45.6Zm-.2,3.9,15-2.3-.1-2.5L13.7,49.5Zm-.1,4.1,15.3-2.4-.1-2.5-15,2.2ZM13.3,60l15.5-2.4-.1-2.5L13.4,57.5Zm-.1,5.2L29,62.8l-.1-2.4L13.3,62.8Zm-.1.8h16L29,63.3,13.1,65.8Zm-1.6,2.8v2H30.6v-2a.73.73,0,0,0-.2-.6,1.27,1.27,0,0,0-.7-.4H12.6a1.27,1.27,0,0,0-1.1,1Zm-.4,4.6v1.3a.92.92,0,0,0,.9,1H30.1c.6,0,.9-.4.9-1V73.4a1,1,0,0,0-.5-.8c-.2-.1-.3-.2-.5-.2H12c-.2.1-.3.1-.5.2a.89.89,0,0,0-.4.8Z" style="fill:#3535ed"/><path class="rootMusk" d="M37.3,77.4a52,52,0,0,1-3.1-31.6,35.13,35.13,0,0,0,.7-12.3c-1.6-3.6-3.3-4.2-4.9-2.2,0,0-3.5,12.4-3.3,12,.1-.2,2.2-16,1.5-16-1.4-2.5-2.8-2.4-4.2,0-3.8,6.8-5.4,15-5.3,24.5-1.8-6.9-1.1-14.3,1.4-22.1,0-1.7-.7-2.2-2-1.7l-.3.2c-5.4,4.5-8.3,11.9-9.4,21.2L6.9,79.7" style="fill:#f8edc8;stroke:#292320;stroke-miterlimit:10;stroke-width:0.25px"/><path class="coronaLingual" d="M41.9,150.5c0,5.1-1.2,9.3-3.8,12.7a4,4,0,0,1-1.8,1.3,35.33,35.33,0,0,1-24,.1,5.22,5.22,0,0,1-1.9-1.4c-4.8-5.3-9-10.8-3.8-19.4.2-.2.3-.5.6-.6,3-2.5,6.8-2.9,11.4-1.6,3.1,1.9,5.9,2.4,8.2,1.2,5.6-1.8,10-.3,13.5,3.6A5.74,5.74,0,0,1,41.9,150.5Z" style="fill:#fff;stroke:#000;stroke-miterlimit:10;stroke-width:0.5px"/><path class="coronaLingualIncisalDistal" d="M39.5,145.5H30.9v-3.6A11.47,11.47,0,0,1,39.5,145.5Z" style="fill:#3535ed"/><path class="coronaLingualIncisalMiddle" d="M15.6,145.5v-4.7a15.47,15.47,0,0,1,3.1.6c3.1,1.9,5.9,2.4,8.2,1.2a15.58,15.58,0,0,1,4.2-.8v3.6l-15.5.1Z" style="fill:#3535ed"/><path class="coronaLingualIncisionMesial" d="M5.8,145.5a16.18,16.18,0,0,1,1-1.8,1.17,1.17,0,0,1,.6-.6,10.18,10.18,0,0,1,8.2-2.2v4.7H5.8Z" style="fill:#3535ed"/><path class="coronaLingualMiddleDistal" d="M40.3,159.2H31V145.5h8.5l.8.8a6.2,6.2,0,0,1,1.6,4.1A22.15,22.15,0,0,1,40.3,159.2Z" style="fill:#3535ed"/><path class="coronaLingualMiddleMiddle" d="M31,145.4H15.5v13.9H31Z" style="fill:#3535ed"/><path class="coronaLingualMiddleMesial" d="M7.4,159.2c-2.8-3.8-4.3-8.1-1.6-13.8h9.8v13.8Z" style="fill:#3535ed"/><path class="coronaLingualCervicalDistal" d="M38.1,163.1a3.22,3.22,0,0,1-1.8,1.2,35.77,35.77,0,0,1-5.4,1.4v-6.6h9.3A11.8,11.8,0,0,1,38.1,163.1Z" style="fill:#3535ed"/><path class="coronaLingualCervicalMiddle" d="M15.6,165.4v-6.1H31v6.6A36.4,36.4,0,0,1,15.6,165.4Z" style="fill:#3535ed"/><path class="coronaLingualCervicalMesial" d="M12.5,164.4a5,5,0,0,1-1.9-1.3,41.58,41.58,0,0,1-3.2-3.9h8.2v6.1A18.12,18.12,0,0,1,12.5,164.4Z" style="fill:#3535ed"/><path class="coronaLabial" d="M21.2,100.1l.9.6a16.72,16.72,0,0,0,3.2-9.9A26,26,0,0,1,21.2,100.1Zm15.4-4.2a7.46,7.46,0,0,0-.7,1.2c-1.4,3-3.8,4.2-7.5,2.6-2.5-.9-4.8-.9-6.8.7a15.4,15.4,0,0,1-11.1,1.9,9.75,9.75,0,0,1-6.4-6.4A30.12,30.12,0,0,1,3,88a10.64,10.64,0,0,1,2.3-7.1C13.9,72,25,75.2,28.8,77c1.9,1.8,4.6,1.3,7.4.3,1.8-.2,2.5,1.3,2.8,3.6C39.3,87.2,39.1,92.8,36.6,95.9Z" style="fill:#fff;stroke:#292320;stroke-miterlimit:10"/><path class="coronaLabialIncisalDistal" d="M27.7,98v1.5c.2.1.5.1.7.2,3.3,1.4,5.6.6,7-1.8Z" style="fill:#3535ed"/><path class="coronaLabialIncisalMiddle" d="M13.6,98v4.7a14.88,14.88,0,0,0,8.2-2.2,6.45,6.45,0,0,1,6-.9V98Z" style="fill:#3535ed"/><path class="coronaLabialIncisionMesial" d="M5.2,97.9a9.62,9.62,0,0,0,5.5,4.4,28.5,28.5,0,0,0,2.9.3V97.9Z" style="fill:#3535ed"/><path class="coronaLabialMiddleDistal" d="M27.7,84V98h7.8c.2-.3.3-.6.5-.9a7.46,7.46,0,0,1,.7-1.2c2-2.6,2.4-7,2.4-12Z" style="fill:#3535ed"/><path class="coronaLabialMiddleMiddle" d="M27.7,84H13.5V98H27.7Z" style="fill:#3535ed"/><path class="coronaLabialMiddleMesial" d="M3.8,84a10.8,10.8,0,0,0-.6,4,30.12,30.12,0,0,0,1.1,7.9c.3.7.6,1.4.9,2h8.4v-14Z" style="fill:#3535ed"/><path class="coronaLabialCervicalDistal" d="M39,80.9c-.3-2.3-1-3.8-2.8-3.6-2.8,1-5.5,1.5-7.4-.3a7.26,7.26,0,0,0-1.2-.5V84H39.1C39.1,83,39.1,82,39,80.9Z" style="fill:#3535ed"/><path class="coronaLabialCervicalMiddle" d="M13.6,75.8V84H27.7V76.5A21.94,21.94,0,0,0,13.6,75.8Z" style="fill:#3535ed"/><path class="coronaLabialCervicalMesial" d="M5.5,80.9A11.67,11.67,0,0,0,3.8,84h9.8V75.8A19.63,19.63,0,0,0,5.5,80.9Z" style="fill:#3535ed"/><path class="veneer" d="M23.7,96c-3.1,1.2-3.6,1.1-5.6-1.6l-1.4-1.8.8,2.1c1.2,3.1,1.1,3.6-1.6,5.6l-1.8,1.4,2.1-.8c3.1-1.2,3.6-1.1,5.6,1.6l1.4,1.8-.8-2.1c-1.2-3.1-1.1-3.5,1.6-5.6l1.8-1.4ZM22.4,84.3c-2,.7-2.2.6-3.4-1l-1.4-1.8.8,2c.7,2,.6,2.2-1,3.4l-1.9,1.4,2.1-.8c2-.7,2.2-.6,3.4,1l1.3,1.8-.8-2.1c-.7-2-.6-2.2,1-3.4l1.8-1.4ZM11,87.2c-2,.7-2.2.6-3.4-1L6,84.4l.8,2.1c.8,2,.7,2.1-.9,3.4L4.1,91.3l2.1-.8c2-.7,2.2-.6,3.4,1L11,93.3l-.8-2.1c-.7-2-.6-2.2,1-3.4L13,86.4Zm23.7,8.4c-1.9.7-2.1.6-3.4-1l-1.4-1.8.8,2.1c.7,2,.6,2.1-1,3.4l-1.8,1.4,2.1-.8c1.9-.7,2.1-.6,3.4,1l1.4,1.8L34,99.6c-.7-2-.6-2.2,1-3.4l1.8-1.4Zm3.5-8.4c-2,.7-2.2.6-3.4-1l-1.4-1.8.8,2.1c.7,2,.6,2.1-1,3.4l-1.8,1.4,2.1-.8c2-.7,2.2-.6,3.4,1l1.4,1.8-.8-2.1c-.7-2-.6-2.2,1-3.4l1.8-1.4Z" style="fill:none;stroke:#3535ed;stroke-miterlimit:10"/><path class="coronaTop" d="M16.6,119.5l-5.7-5.2a13.56,13.56,0,0,1,19.1-.8l-5.2,5.7A5.83,5.83,0,0,0,16.6,119.5Zm.1,0a5.92,5.92,0,0,0,.3,8.2l-5.2,5.7a13.56,13.56,0,0,1-.8-19.1l5.7,5.2Zm8.6,7.9,5.7,5.2h0a13.56,13.56,0,0,1-19.1.8l5.2-5.7A5.92,5.92,0,0,0,25.3,127.4ZM30,113.5a13.56,13.56,0,0,1,.8,19.1l-5.7-5.2a5.74,5.74,0,0,0-.3-8.2Zm-3.2,9.9a5.8,5.8,0,1,1-5.8-5.8A5.87,5.87,0,0,1,26.8,123.4Z" style="fill:#fff;stroke:#000;stroke-miterlimit:10"/><path class="coronaTopBuccal" d="M24.8,119.2l5.2-5.7a13.56,13.56,0,0,0-19.1.8l5.7,5.2A5.83,5.83,0,0,1,24.8,119.2Z" style="fill:#3535ed"/><path class="coronaTopMedial" d="M16.7,119.5,11,114.3a13.56,13.56,0,0,0,.8,19.1l5.2-5.7a5.92,5.92,0,0,1-.3-8.2Z" style="fill:#3535ed"/><path class="coronaTopLingual" d="M17.1,127.7l-5.2,5.7a13.56,13.56,0,0,0,19.1-.8h0l-5.7-5.2A5.92,5.92,0,0,1,17.1,127.7Z" style="fill:#3535ed"/><path class="coronaTopDistal" d="M24.8,119.2a5.74,5.74,0,0,1,.3,8.2l5.7,5.2a13.56,13.56,0,0,0-.8-19.1Z" style="fill:#3535ed"/><path class="coronaTopOclusial" d="M21,117.6a5.8,5.8,0,1,0,5.8,5.8A5.87,5.87,0,0,0,21,117.6Z" style="fill:#3535ed"/><path class="silant" d="M28.9,131.5a19,19,0,0,1-6.9,1.2c-5.8,0-9.2-2.2-9.2-5.4,0-2.7,2.2-4.2,6.4-5.4,3.2-.9,4.7-1.6,4.7-3.1,0-1.3-1.5-2.5-4.1-2.5a13.11,13.11,0,0,0-5,1l-1.1-2.4a15.66,15.66,0,0,1,6-1.1c5.3,0,8.4,2.4,8.4,5.3,0,2.2-2.1,4-6.5,5.1-3.3.9-4.5,1.8-4.5,3.3s1.5,2.7,4.8,2.7a16.09,16.09,0,0,0,5.9-1.3Z" style="fill:#3535ed"/><path class="crown" d="M41.9,150.5c0,5.1-1.2,9.3-3.8,12.7a4,4,0,0,1-1.8,1.3,35.33,35.33,0,0,1-24,.1,5.22,5.22,0,0,1-1.9-1.4c-4.8-5.3-9-10.8-3.8-19.4.2-.2.3-.5.6-.6,3-2.5,6.8-2.9,11.4-1.6,3.1,1.9,5.9,2.4,8.2,1.2,5.6-1.8,10-.3,13.5,3.6A5.74,5.74,0,0,1,41.9,150.5ZM21.2,100.1l.9.6a16.72,16.72,0,0,0,3.2-9.9A26,26,0,0,1,21.2,100.1ZM39,80.9c-.3-2.3-1-3.8-2.8-3.6-2.8,1-5.5,1.5-7.4-.3C25,75.2,13.9,72,5.3,80.9A10.64,10.64,0,0,0,3,88a30.12,30.12,0,0,0,1.1,7.9,9.75,9.75,0,0,0,6.4,6.4,15.4,15.4,0,0,0,11.1-1.9c2-1.6,4.3-1.6,6.8-.7,3.7,1.6,6.1.4,7.5-2.6a7.46,7.46,0,0,1,.7-1.2C39.1,92.8,39.3,87.2,39,80.9ZM24.8,119.2l5.2-5.7a13.56,13.56,0,0,0-19.1.8l5.7,5.2A5.83,5.83,0,0,1,24.8,119.2Zm-8.1.3L11,114.3a13.56,13.56,0,0,0,.8,19.1l5.2-5.7a5.92,5.92,0,0,1-.3-8.2Zm.4,8.2-5.2,5.7a13.56,13.56,0,0,0,19.1-.8h0l-5.7-5.2A5.92,5.92,0,0,1,17.1,127.7Zm7.7-8.5a5.74,5.74,0,0,1,.3,8.2l5.7,5.2a13.56,13.56,0,0,0-.8-19.1ZM21,117.6a5.8,5.8,0,1,0,5.8,5.8A5.87,5.87,0,0,0,21,117.6Z" style="fill:#fff;stroke:#000;stroke-miterlimit:10;stroke-width:0.5px"/><path class="braces" d="M23.9,88.4h0v2.7a2,2,0,0,0-1.1-.2H21.6a3.55,3.55,0,0,0-1,.2V88.4h0a3.55,3.55,0,0,0,1,.2h1.2a3.59,3.59,0,0,0,1.1-.2m-4.6-3.9a.77.77,0,0,0-.7.8v3.8H0v1.3H18.5v3.8c0,.4.3.8.6.8h1.1c.4-.1.7-.4.6-.8v-.6c0-.4.3-.8.6-.8h1.2a.64.64,0,0,1,.6.8v.5a.76.76,0,0,0,.6.8h1.1a.77.77,0,0,0,.7-.8V90.3H44.2V89H25.7V85.2a.77.77,0,0,0-.7-.8H23.9c-.4.1-.7.4-.6.8v.5c0,.4-.3.8-.6.8H21.6a.77.77,0,0,1-.7-.8v-.5a.76.76,0,0,0-.6-.8l-1,.1Z"/><path class="gum" d="M.1,77h9c17.5-5,20-1,22,1a86.35,86.35,0,0,1,13.4-1" style="fill:none;stroke:#ffb900;stroke-linejoin:round;stroke-width:3px"/><path class="paradontit1" d="M.1,77H4.4a5.07,5.07,0,0,0,1.3-.2C11,75.1,13.4,72,23,72c5.5,0,11.5,3.3,16.4,4.8a5.85,5.85,0,0,0,1.3.2h3.8" style="fill:none;stroke:#ff822e;stroke-linejoin:round;stroke-width:3px"/><path class="paradontit2" d="M.1,77H4.3a5.9,5.9,0,0,0,1.4-.2c5.4-2,8.7-8.8,18.3-8.8,5.4,0,10.3,6.7,15,8.7a3.61,3.61,0,0,0,1.8.3h3.7" style="fill:none;stroke:#f9610d;stroke-linejoin:round;stroke-width:3px"/><path class="paradontit3" d="M.1,77H4.3a5.9,5.9,0,0,0,1.4-.2c5.4-2,9-14.2,18.6-14.2,5.4,0,10,12.1,14.7,14.1a3.61,3.61,0,0,0,1.8.3h3.7" style="fill:none;stroke:#f9610d;stroke-linejoin:round;stroke-width:3px"/><path class="paradontit4" d="M.1,77h4a4.19,4.19,0,0,0,2.8-1c4.6-4,6.5-18.3,15.4-18.3,8.4,0,12,13.1,15.6,17.6A4.72,4.72,0,0,0,41.4,77h3.1" style="fill:none;stroke:#f75403;stroke-linejoin:round;stroke-width:3px"/><path class="periodontit" d="M23.1,25.4a4.5,4.5,0,1,1-4.5-4.5A4.55,4.55,0,0,1,23.1,25.4Zm11.9,0a4.5,4.5,0,1,1-4.5-4.5A4.48,4.48,0,0,1,35,25.4Z" style="fill:#3535ed"/></g></g></g></svg>