<svg xmlns="http://www.w3.org/2000/svg" viewBox="0 0 45.9 180"><title>28tooth</title><g class="Слой_2" data-name="Слой 2"><g class="Слой_1-2" data-name="Слой 1"><g class="_28" data-name="28"><path class="background" d="M45.9,0H0V180H45.9Z" style="fill:#9fdaff"/><path class="bone" d="M45.9,0H0V77H45.9Z" style="fill:#de82a7"/><path class="bridge" d="M0,99.3v-4l45.9.2v4Zm45.9,53.2v-4L0,148.4v4Zm0-26.1v-4H0v4Z" style="fill:#3535ed"/><path class="root" d="M4.9,79.8c5.6-11.9,8.6-26,9.9-41.6.6-8.8,2.8-15.2,7.5-18.3,5.4-2,7.1,1.2,7.2,6.5a190.59,190.59,0,0,0,0,23.9,106.16,106.16,0,0,0,5.2,28.4M29.2,23.5c2.9-1.6,4.9-1,6,1.7a7,7,0,0,1,.4,3.8,92.11,92.11,0,0,1-6.2,21.2" style="fill:#f8edc8;stroke:#292320;stroke-miterlimit:10;stroke-width:0.25px"/><path class="rootCanal" d="M14.8,78.4a1.66,1.66,0,0,1-1.2-2.1c5.9-16.6,7.7-54.1,11.6-56.1,3.3-1.7-3.7,30-.3,56.2a2.09,2.09,0,0,1-1.2,2.1,19.06,19.06,0,0,1-3.4,1,1.73,1.73,0,0,1-1-.1C18.8,79.3,17.5,79,14.8,78.4Z" style="fill:#3535ed"/><path class="implant" d="M15.9,39.9l14-2.1a2.36,2.36,0,0,0-.8-.9,15.85,15.85,0,0,0-12.1,0,1.78,1.78,0,0,0-1,1.6ZM15.7,44l14.4-2.3L30,39.3,15.9,41.5Zm-.1,3.9,14.6-2.3-.1-2.4L15.6,45.5Zm-.2,4.2,14.9-2.3V47.4L15.7,49.7Zm0,3.9,15.1-2.3-.1-2.4L15.5,53.6Zm-.2,4.1,15.4-2.4-.1-2.4L15.2,57.6Zm-.1,5.1,15.7-2.4-.2-2.5L15.1,62.7Zm-.1.6V66H30.9l-.1-2.7L15,65.8Zm-1.5,3v1.9a.9.9,0,0,1,.5-.1H32c.2,0,.3.1.5.1v-2a1.42,1.42,0,0,0-.2-.6,1.08,1.08,0,0,0-.7-.3h-17a1,1,0,0,0-1.1,1Zm-.6,4.7v1.2h0a1,1,0,0,0,1,1H32a1,1,0,0,0,1-1V73.5a1.19,1.19,0,0,0-.5-.9c-.2-.1-.3-.2-.5-.2H14a1.39,1.39,0,0,0-1.1,1.1Z" style="fill:#3535ed"/><path class="rootMusk" d="M4.9,79.8c5.6-11.9,8.6-26,9.9-41.6.6-8.8,2.8-15.2,7.5-18.3,5.4-2,7.1,1.2,7.2,6.5a190.59,190.59,0,0,0,0,23.9,106.16,106.16,0,0,0,5.2,28.4M29.2,23.5c2.9-1.6,4.9-1,6,1.7a7,7,0,0,1,.4,3.8,92.11,92.11,0,0,1-6.2,21.2" style="fill:#f8edc8;stroke:#292320;stroke-miterlimit:10;stroke-width:0.25px"/><path class="coronaLingual" d="M11.8,170.2a25.64,25.64,0,0,0,21.5-.1,7.91,7.91,0,0,0,3.3-2.7,20.39,20.39,0,0,0,2.9-18.2,5.61,5.61,0,0,0-2.2-3.1,6.29,6.29,0,0,0-4.2-1.2,8.17,8.17,0,0,1-4.2-1.7,4,4,0,0,0-1.8-1c-3.3-1.1-6.2-.7-8.6,1.3a2,2,0,0,1-1.4.6l-4,.5a6.15,6.15,0,0,1-1.4-.1c-4-1.2-6.5.2-7.5,4.3-1.6,6.1-.1,12.3,3.9,18.4A9.65,9.65,0,0,0,11.8,170.2Z" style="fill:#fff;stroke:#000;stroke-miterlimit:10;stroke-width:0.5px"/><path class="coronaLingualIncisalDistal" d="M29.9,149.9v-6a8,8,0,0,0,3,.9,5.79,5.79,0,0,1,4.2,1.2,5.91,5.91,0,0,1,2.2,3.1c.1.3.1.6.2.8Z" style="fill:#3535ed"/><path class="coronaLingualIncisalMiddle" d="M14.4,149.9v-5.5l2.8-.3a3.51,3.51,0,0,0,1.4-.6c2.4-2,5.2-2.4,8.5-1.3a4,4,0,0,1,1.8,1,4.44,4.44,0,0,0,1.1.8v6Z" style="fill:#3535ed"/><path class="coronaLingualIncisionMesial" d="M4.1,149.9c.1-.4.1-.8.2-1.2,1-4.1,3.6-5.5,7.5-4.3a2.29,2.29,0,0,0,1.4.1l1.2-.1v5.5Z" style="fill:#3535ed"/><path class="coronaLingualMiddleDistal" d="M38.6,163.6H30.1V149.8h9.6A20.43,20.43,0,0,1,38.6,163.6Z" style="fill:#3535ed"/><path class="coronaLingualMiddleMiddle" d="M30.1,149.9H14.3v13.8H30.1Z" style="fill:#3535ed"/><path class="coronaLingualMiddleMesial" d="M6.3,163.6a21.32,21.32,0,0,1-2.2-13.8H14.5v13.8Z" style="fill:#3535ed"/><path class="coronaLingualCervicalDistal" d="M36.5,167.3a7.91,7.91,0,0,1-3.3,2.7c-1,.5-2.1.8-3.1,1.2v-7.6h8.4A16.49,16.49,0,0,1,36.5,167.3Z" style="fill:#3535ed"/><path class="coronaLingualCervicalMiddle" d="M14.5,171.1v-7.5H30.1v7.6A24.49,24.49,0,0,1,14.5,171.1Z" style="fill:#3535ed"/><path class="coronaLingualCervicalMesial" d="M11.9,170.1a8.11,8.11,0,0,1-3.6-3,39.72,39.72,0,0,1-2-3.5h8.2v7.5A13.89,13.89,0,0,1,11.9,170.1Z" style="fill:#3535ed"/><path class="coronaLabial" d="M34.1,100.7c-2.2,3.7-5.3,3.9-9.2,1.5-3.2-2.4-6.1-2.1-8.8.3a7,7,0,0,1-4.9,2c-3-.1-5.5-2.2-7.4-6.7C-.2,90.2.3,84.2,5,79.8c2.8-1.6,6.1-1.8,9.6-1.1a6.31,6.31,0,0,1,2.3.8c2.5,1.5,5.5.8,8.6-1.1a8.6,8.6,0,0,1,2.7-.9l2.2-.3a5.18,5.18,0,0,1,3.8.9,8.35,8.35,0,0,1,2.7,4.6A22.79,22.79,0,0,1,34.1,100.7Zm-17.3.2.9.8c1-1.1,4.2-5,4.4-10A21.22,21.22,0,0,1,16.8,100.9Z" style="fill:#fff;stroke:#000;stroke-miterlimit:10;stroke-width:0.5px"/><path class="coronaLabialIncisalDistal" d="M27.8,98v5.6c2.6.7,4.7-.1,6.3-2.9.5-.9,1-1.8,1.4-2.7Z" style="fill:#3535ed"/><path class="coronaLabialIncisalMiddle" d="M10.5,98v6.5c.3,0,.5.1.8.1a7,7,0,0,0,4.9-2c2.7-2.4,5.6-2.7,8.8-.3a10.76,10.76,0,0,0,2.9,1.3V98Z" style="fill:#3535ed"/><path class="coronaLabialIncisionMesial" d="M4,98c1.7,4,3.9,6.1,6.5,6.5V98Z" style="fill:#3535ed"/><path class="coronaLabialMiddleDistal" d="M37.2,84H27.9V98h7.7A22.52,22.52,0,0,0,37.2,84Z" style="fill:#3535ed"/><path class="coronaLabialMiddleMiddle" d="M27.9,83.9H10.3V98H27.9Z" style="fill:#3535ed"/><path class="coronaLabialMiddleMesial" d="M2.2,84C.5,87.8,1.1,92.4,3.9,97.9V98h6.5V84Z" style="fill:#3535ed"/><path class="coronaLabialCervicalDistal" d="M36.9,82.7a8.35,8.35,0,0,0-2.7-4.6,5.18,5.18,0,0,0-3.8-.9l-2.2.3a.76.76,0,0,0-.4.1V84h9.4C37.1,83.6,37,83.1,36.9,82.7Z" style="fill:#3535ed"/><path class="coronaLabialCervicalMiddle" d="M25.6,78.5c-3.1,1.9-6.1,2.6-8.6,1.1a6.31,6.31,0,0,0-2.3-.8,20.24,20.24,0,0,0-4.3-.4V84H27.9V77.6A9.17,9.17,0,0,0,25.6,78.5Z" style="fill:#3535ed"/><path class="coronaLabialCervicalMesial" d="M5.1,79.9A11.42,11.42,0,0,0,2.2,84h8.3V78.4A12.86,12.86,0,0,0,5.1,79.9Z" style="fill:#3535ed"/><path class="veneer" d="M24.3,96.7c-3.7,1.4-4.1,1.3-6.5-1.8l-1.6-2,.9,2.4c1.4,3.6,1.3,4.1-1.8,6.4l-2,1.6,2.4-.9c3.7-1.4,4.1-1.3,6.5,1.8l1.6,2-.9-2.4c-1.4-3.7-1.3-4.1,1.8-6.5l2-1.6ZM22.7,83c-2.2.8-2.5.8-3.9-1.1l-1.6-2,.9,2.4c.8,2.2.8,2.4-1.1,3.9l-2,1.6,2.4-.9c2.3-.8,2.5-.8,3.9,1.1l1.6,2-1-2.3c-.8-2.2-.8-2.5,1.1-3.9l2-1.6ZM9.6,86.4c-2.2.8-2.5.8-3.9-1.1l-1.6-2L5,85.7c.8,2.2.8,2.5-1.1,3.9l-2,1.6,2.4-.9c2.2-.8,2.5-.8,3.9,1.1l1.6,2L8.9,91c-.8-2.2-.8-2.5,1.1-3.9l2-1.6ZM16.5,89a.75.75,0,0,0,.1.5,2.51,2.51,0,0,0-1.9-.5,1.9,1.9,0,0,0,.5-1.9,2.51,2.51,0,0,0,1.9.5,2,2,0,0,0-.6,1.4ZM37,96.1c-2.2.8-2.5.8-3.9-1.1l-1.6-2,.9,2.4c.8,2.2.8,2.5-1.1,3.9l-2,1.6,2.4-.9c2.3-.8,2.5-.8,3.9,1.1l1.6,2.1-.9-2.4c-.8-2.2-.8-2.5,1.1-3.9l2.1-1.6Zm5-9.8c-2.2.8-2.5.8-3.9-1.1l-1.6-2,.9,2.4c.8,2.2.8,2.5-1.1,3.9l-2,1.6,2.4-.9c2.2-.8,2.5-.7,3.9,1.2l1.6,2L41.3,91c-.8-2.2-.8-2.5,1.1-3.9l2-1.6ZM30,89a.75.75,0,0,0,.1.5,2.51,2.51,0,0,0-1.9-.5,1.9,1.9,0,0,0,.5-1.9,2.51,2.51,0,0,0,1.9.5A2,2,0,0,0,30,89Z" style="fill:#3535ed"/><path class="coronaTop" d="M17,119.5l-5.7-5.2a13.56,13.56,0,0,1,19.1-.8l-5.2,5.7A5.83,5.83,0,0,0,17,119.5Zm.3,8.2-5.2,5.7h0a13.56,13.56,0,0,1-.8-19.1l5.7,5.2A6.13,6.13,0,0,0,17.3,127.7Zm8.3-.3,5.7,5.2h0a13.56,13.56,0,0,1-19.1.8l5.2-5.7A5.92,5.92,0,0,0,25.6,127.4Zm4.9-13.9a13.56,13.56,0,0,1,.8,19.1l-5.7-5.2h0a5.83,5.83,0,0,0-.4-8.2Zm-3.4,9.9a5.8,5.8,0,1,1-5.8-5.8A5.8,5.8,0,0,1,27.1,123.4Z" style="fill:#fff;stroke:#000;stroke-miterlimit:10"/><path class="coronaTopBuccal" d="M25.2,119.2l5.2-5.7a13.56,13.56,0,0,0-19.1.8l5.7,5.2A5.83,5.83,0,0,1,25.2,119.2Z" style="fill:#3535ed"/><path class="coronaTopMedial" d="M17,119.5l-5.7-5.2a13.56,13.56,0,0,0,.8,19.1h0l5.2-5.7A6.13,6.13,0,0,1,17,119.5Z" style="fill:#3535ed"/><path class="coronaTopLingual" d="M17.4,127.7l-5.2,5.7a13.56,13.56,0,0,0,19.1-.8h0l-5.7-5.2A5.92,5.92,0,0,1,17.4,127.7Z" style="fill:#3535ed"/><path class="coronaTopDistal" d="M25.2,119.2a5.83,5.83,0,0,1,.4,8.2h0l5.7,5.2a13.56,13.56,0,0,0-.8-19.1Z" style="fill:#3535ed"/><path class="coronaTopOclusial" d="M21.3,117.6a5.8,5.8,0,1,0,5.8,5.8A5.8,5.8,0,0,0,21.3,117.6Z" style="fill:#3535ed"/><path class="silant" d="M30.3,131.5a19,19,0,0,1-6.9,1.2c-5.8,0-9.2-2.2-9.2-5.4,0-2.7,2.2-4.2,6.4-5.4,3.2-.9,4.7-1.6,4.7-3.1,0-1.3-1.5-2.5-4.1-2.5a13.11,13.11,0,0,0-5,1l-1.1-2.4a15.66,15.66,0,0,1,6-1.1c5.3,0,8.4,2.4,8.4,5.3,0,2.2-2.1,4-6.5,5.1-3.3.9-4.6,1.8-4.6,3.3s1.5,2.7,4.8,2.7a16.09,16.09,0,0,0,5.9-1.3Z" style="fill:#3535ed"/><path class="crown" d="M8.1,167.2c-4-6.1-5.5-12.3-3.9-18.4,1-4.1,3.5-5.5,7.5-4.3a6.15,6.15,0,0,0,1.4.1l4-.5a2,2,0,0,0,1.4-.6c2.4-2,5.3-2.4,8.6-1.3a4,4,0,0,1,1.8,1,8.17,8.17,0,0,0,4.2,1.7,6.29,6.29,0,0,1,4.2,1.2,5.61,5.61,0,0,1,2.2,3.1,20.39,20.39,0,0,1-2.9,18.2,7.91,7.91,0,0,1-3.3,2.7,25.64,25.64,0,0,1-21.5.1A9.65,9.65,0,0,1,8.1,167.2ZM36.9,82.7a8.35,8.35,0,0,0-2.7-4.6,5.18,5.18,0,0,0-3.8-.9l-2.2.3a8.6,8.6,0,0,0-2.7.9c-3.1,1.9-6.1,2.6-8.6,1.1a6.31,6.31,0,0,0-2.3-.8c-3.5-.7-6.8-.5-9.6,1.1C.3,84.2-.2,90.2,3.8,97.8c1.9,4.5,4.4,6.6,7.4,6.7a7,7,0,0,0,4.9-2c2.7-2.4,5.6-2.7,8.8-.3,3.9,2.4,7,2.2,9.2-1.5A22.79,22.79,0,0,0,36.9,82.7Zm-14.8,9c-.2,5-3.4,8.9-4.4,10l-.9-.8A21.22,21.22,0,0,0,22.1,91.7Zm3.1,27.5,5.2-5.7a13.56,13.56,0,0,0-19.1.8l5.7,5.2A5.83,5.83,0,0,1,25.2,119.2Zm-8.2.3-5.7-5.2a13.56,13.56,0,0,0,.8,19.1h0l5.2-5.7A6.13,6.13,0,0,1,17,119.5Zm.4,8.2-5.2,5.7a13.56,13.56,0,0,0,19.1-.8h0l-5.7-5.2A5.92,5.92,0,0,1,17.4,127.7Zm7.8-8.5a5.83,5.83,0,0,1,.4,8.2h0l5.7,5.2a13.56,13.56,0,0,0-.8-19.1Zm-3.9-1.6a5.8,5.8,0,1,0,5.8,5.8A5.8,5.8,0,0,0,21.3,117.6Z" style="fill:#fff;stroke:#000;stroke-miterlimit:10;stroke-width:0.5px"/><path class="braces" d="M24.6,88.4h0v2.7a2,2,0,0,0-1.1-.2H22.3a3.55,3.55,0,0,0-1,.2V88.4h0a3.55,3.55,0,0,0,1,.2h1.2a4.25,4.25,0,0,0,1.1-.2M20,84.5a.77.77,0,0,0-.7.8v3.8H0v1.3H19.3v3.8a.77.77,0,0,0,.7.8h1.1c.4-.1.7-.4.6-.8v-.6c0-.4.3-.8.6-.8h1.2a.77.77,0,0,1,.7.8v.5a.76.76,0,0,0,.6.8h1.1a.64.64,0,0,0,.6-.8V90.3l19.3.2V89.2L26.5,89V85.2c0-.4-.3-.8-.6-.8H24.8c-.4.1-.7.4-.6.8v.5a.77.77,0,0,1-.7.8H22.4a.77.77,0,0,1-.7-.8v-.5a.76.76,0,0,0-.6-.8l-1.1.1Z"/><path class="gum" d="M0,77c1.5,0,3,.1,4.5.1A44.84,44.84,0,0,1,20,80.6c4,2,7.1-6,17-3.5l8.4-.1" style="fill:none;stroke:#ffb900;stroke-linejoin:round;stroke-width:3px"/><path class="paradontit1" d="M0,77H4.5c3.5,0,10.9-5.1,18.2-5.3,5-.1,9.7,4.1,13.7,5.1a5.16,5.16,0,0,0,1.1.2h8" style="fill:none;stroke:#ff822e;stroke-linejoin:round;stroke-width:3px"/><path class="paradontit2" d="M0,77H4.5C8,77,15.4,66.6,22.7,66.5c4.9-.1,9.6,9,13.7,10.4a5.85,5.85,0,0,0,1.3.2h7.7" style="fill:none;stroke:#f9610d;stroke-linejoin:round;stroke-width:3px"/><path class="paradontit3" d="M0,77H4.5c3.5,0,6-14.3,17.8-14.3s10,12.8,14.1,14.1a5.85,5.85,0,0,0,1.3.2h7.8" style="fill:none;stroke:#f9610d;stroke-linejoin:round;stroke-width:3px"/><path class="paradontit4" d="M0,77H4.5C8,77,6.8,56.7,21.8,57.7S32.5,71,34.8,73.9A4.51,4.51,0,0,0,39,77h6.9" style="fill:none;stroke:#f75403;stroke-linejoin:round;stroke-width:3px"/><path class="periodontit" d="M24.9,10.9a4.48,4.48,0,0,0-4.5,4.5,4.5,4.5,0,0,0,9,0A4.48,4.48,0,0,0,24.9,10.9Z" style="fill:#3535ed"/></g></g></g></svg>