<svg xmlns="http://www.w3.org/2000/svg" viewBox="0 0 35.95 180.9"><title>31tooth</title><g class="Слой_2" data-name="Слой 2"><g class="Слой_1-2" data-name="Слой 1"><g class="_31" data-name="31"><path class="background" d="M36,0H.05V180.8H36Z" style="fill:#9fdaff"/><path class="bone" d="M36,105.9H.05v75H36Z" style="fill:#de82a7"/><path class="bridge" d="M.05,80.4H36v4H.05Zm0-21H36v-4H.05Zm0-25H36v-4H.05Z" style="fill:#3535ed"/><path class="root" d="M11.45,98.7c1.7,25,3.4,52.5,8.1,56.1,2.4,2.7,3.8,2.8,4.5.5a6.92,6.92,0,0,0,0-3.5c-3-14.5-2.3-31.5,1.1-50.3" style="fill:#f4ecc8;stroke:#111414;stroke-miterlimit:10;stroke-width:0.25px"/><path class="rootCanal" d="M14.25,98.9c-.6.2,2.7,45.1,7.3,57.2a.52.52,0,0,0,1-.3c-1.7-12.2-4.3-53.4-2.7-55.2C14.35,99.9,14.25,98.9,14.25,98.9Z" style="fill:#3535ed;stroke:#201600;stroke-miterlimit:10;stroke-width:0.25px"/><path class="implant" d="M24.65,140.6l-14,2a1.39,1.39,0,0,0,.7.8,15.23,15.23,0,0,0,12.2.1,2,2,0,0,0,1-1.6Zm0-4-14.4,2.2.1,2.4,14.3-2Zm.2-4-14.7,2.2.1,2.4,14.5-2Zm.1-4-14.9,2.2.1,2.4L25,131Zm.2-4.1L10,126.8l.1,2.4,15-2.2Zm.2-3.9-15.6,2.3.1,2.4,15.3-2.3Zm.1-5.2-15.8,2.3.1,2.5,15.7-2.3v-2.5Zm.1-.6-16-.1.1,2.6,15.9-2.3Zm1.5-4.9h-.4l-18.1-.1h-.4v1.9c0,.2.1.3.2.6a.91.91,0,0,0,.7.3h1.1l15,.1h1.1a.91.91,0,0,0,.7-.3,1.61,1.61,0,0,0,.4-.7Zm.6-2.6.1-1.4h0a.94.94,0,0,0-1-1l-18.1-.1a1.08,1.08,0,0,0-1,1V107c0,.5.1.7.4.9.1,0,.2.1.4.1l18.1.1a.6.6,0,0,0,.4-.1.68.68,0,0,0,.7-.7Z" style="fill:#3535ed"/><path class="rootMusk" d="M11.45,98.7c1.7,25,3.4,52.5,8.1,56.1,2.4,2.7,3.8,2.8,4.5.5a6.92,6.92,0,0,0,0-3.5c-3-14.5-2.3-31.5,1.1-50.3" style="fill:#f4ecc8;stroke:#111414;stroke-miterlimit:10;stroke-width:0.25px"/><path class="coronaLingual" d="M20.85,5.9c-2.5-2.8-4.7-3.5-6.8-1.7a4.94,4.94,0,0,0-1.7,3.6,116.67,116.67,0,0,1-2.9,17.7,21.74,21.74,0,0,0,0,8.8c.2,1.9,1.5,2.9,3.6,3.1h11.4c2.1-.5,2.8-2.5,2.7-5.3-1.3-8-2.9-15.9-4.9-23.7A10.1,10.1,0,0,0,20.85,5.9Z" style="fill:#fff;stroke:#111414;stroke-miterlimit:10;stroke-width:0.5px"/><path class="coronaLingualIncisalDistal" d="M27,32.2c-.2-1.5-.5-3.1-.8-4.6h-5.5v9.9h3.6C26.45,37,27.15,35,27,32.2Z" style="fill:#3535ed"/><path class="coronaLingualIncisalMiddle" d="M20.65,27.6H15v9.9h5.7Z" style="fill:#3535ed"/><path class="coronaLingualIncisionMesial" d="M9.05,27.6a19.37,19.37,0,0,0,.3,6.8c.2,1.9,1.5,2.9,3.6,3.1h2.1V27.6Z" style="fill:#3535ed"/><path class="coronaLingualMiddleDistal" d="M23.45,13.9h-2.7V27.6h5.5C25.35,23,24.45,18.5,23.45,13.9Z" style="fill:#3535ed"/><path class="coronaLingualMiddleMiddle" d="M20.75,13.9h-5.7V27.6h5.7Z" style="fill:#3535ed"/><path class="coronaLingualMiddleMesial" d="M11.55,14c-.5,3.8-1.3,7.7-2.2,11.6-.1.7-.2,1.4-.3,2h6V14Z" style="fill:#3535ed"/><path class="coronaLingualCervicalDistal" d="M22.05,8.5A6,6,0,0,0,20.75,6l-.1-.1V14h2.8C23,12.1,22.55,10.3,22.05,8.5Z" style="fill:#3535ed"/><path class="coronaLingualCervicalMiddle" d="M15.05,3.6V14h5.7V5.9C18.65,3.6,16.75,2.8,15.05,3.6Z" style="fill:#3535ed"/><path class="coronaLingualCervicalMesial" d="M14,4.4c-.9,1-.9,0-1.7,3.6-.1,2-.4,4-.7,6h3.5V3.7A6.73,6.73,0,0,0,14,4.4Z" style="fill:#3535ed"/><path class="coronaLabial" d="M26.75,75.6l-.2-.3a2.69,2.69,0,0,0-2.4-1.4l-11.4-.2a3.84,3.84,0,0,0-2.5.9h0a1.61,1.61,0,0,0-.6,1.3,81.68,81.68,0,0,0,1.9,22.6,13.69,13.69,0,0,0,1.9,4.7c2,3.1,4.6,3.9,7.5,2.7a5.78,5.78,0,0,0,3.5-4.1c1.8-6.9,2.5-15.2,2.9-24.1A4.34,4.34,0,0,0,26.75,75.6Z" style="fill:#fff;stroke:#111414;stroke-miterlimit:10;stroke-width:0.5px"/><path class="coronaLabialIncisalDistal" d="M27.25,77.9a4.55,4.55,0,0,0-.5-2l-.2-.3a2.69,2.69,0,0,0-2.4-1.4h-2v5.9h5.1Z" style="fill:#3535ed"/><path class="coronaLabialIncisalMiddle" d="M15.15,73.9V80h7V74.1Z" style="fill:#3535ed"/><path class="coronaLabialIncisionMesial" d="M12.75,73.9a3.84,3.84,0,0,0-2.5.9,1.61,1.61,0,0,0-.6,1.3c-.1,1.3-.1,2.6-.1,3.9h5.7V73.9Z" style="fill:#3535ed"/><path class="coronaLabialMiddleDistal" d="M27.15,80h-5.1V98.3h3.1A111.39,111.39,0,0,0,27.15,80Z" style="fill:#3535ed"/><path class="coronaLabialMiddleMiddle" d="M22.15,80h-7V98.3h7Z" style="fill:#3535ed"/><path class="coronaLabialMiddleMesial" d="M9.65,80a86.21,86.21,0,0,0,2,18.3h3.6V80Z" style="fill:#3535ed"/><path class="coronaLabialCervicalDistal" d="M22.15,98.2v7a6.13,6.13,0,0,0,2.3-3.4c.3-1.1.5-2.4.8-3.6Z" style="fill:#3535ed"/><path class="coronaLabialCervicalMiddle" d="M15.15,98.2v7a5.34,5.34,0,0,0,5.8.7,7.46,7.46,0,0,0,1.2-.7v-7Z" style="fill:#3535ed"/><path class="coronaLabialCervicalMesial" d="M11.45,98.2a.76.76,0,0,0,.1.4,13.69,13.69,0,0,0,1.9,4.7,10.61,10.61,0,0,0,1.7,2v-7Z" style="fill:#3535ed"/><path class="veneer" d="M18.25,80.9c2.8-1.1,3.1-1,4.9,1.4l1.2,1.6-.7-1.9c-1.1-2.8-1-3.1,1.4-4.9l1.6-1.2-1.9.7c-2.8,1-3.1.9-4.9-1.5l-1.2-1.6.7,1.9c1,2.8.9,3.1-1.5,4.9l-1.6,1.2Zm1,10.4c1.7-.6,1.9-.5,3,.9l1.2,1.6-.7-1.9c-.6-1.7-.5-1.9.9-3l1.6-1.2-1.9.7c-1.7.6-1.8.5-2.9-.9l-1.2-1.6.7,1.9c.6,1.7.5,1.8-.9,2.9l-1.6,1.2Zm7-4.7c1.7-.6,1.9-.5,3,.9l1.2,1.6-.7-1.9c-.6-1.8-.5-1.9.9-3l1.6-1.2-1.9.7c-1.7.6-1.8.5-2.9-.9l-1.2-1.6.7,1.9c.6,1.8.5,1.9-.9,3l-1.6,1.2ZM8.35,81c1.7-.6,1.9-.5,3,.9l1.2,1.6-.7-1.9c-.6-1.7-.5-1.9.9-3l1.3-1-1.6.5c-1.7.6-1.9.5-3-.9l-1.1-1.6.7,1.9c.6,1.7.5,1.9-.9,3l-1.6,1.2Zm-3.1,7.5c1.7-.6,1.9-.5,3,.9L9.45,91l-.7-1.9c-.6-1.8-.5-1.9.9-3l1.6-1.2-1.9.7c-1.7.6-1.8.5-2.9-.9l-1.2-1.6L6,85c.6,1.7.5,1.8-.9,2.9l-1.6,1.2Z" style="fill:#3535ed"/><path class="coronaTop" d="M13.55,60.6l-5.7,5.2a13.56,13.56,0,0,0,19.1.8l-5.2-5.7A5.92,5.92,0,0,1,13.55,60.6Zm.3-8.3-5.2-5.7h0a13.56,13.56,0,0,0-.8,19.1l5.7-5.2A5.83,5.83,0,0,1,13.85,52.3Zm8.3.3,5.7-5.2h0a13.56,13.56,0,0,0-19.1-.8L14,52.3A5.92,5.92,0,0,1,22.15,52.6Zm4.9,14a13.56,13.56,0,0,0,.8-19.1l-5.7,5.2a5.83,5.83,0,0,1-.4,8.2Zm-3.3-10A5.8,5.8,0,1,1,18,50.8,5.8,5.8,0,0,1,23.75,56.6Z" style="fill:#fff;stroke:#000;stroke-miterlimit:10"/><path class="coronaTopBuccal" d="M21.75,60.9,27,66.6a13.56,13.56,0,0,1-19.1-.8l5.7-5.2A5.92,5.92,0,0,0,21.75,60.9Z" style="fill:#3535ed"/><path class="coronaTopMedial" d="M13.55,60.5l-5.7,5.2a13.56,13.56,0,0,1,.8-19.1h0l5.2,5.7A5.83,5.83,0,0,0,13.55,60.5Z" style="fill:#3535ed"/><path class="coronaTopLingual" d="M14,52.3l-5.2-5.7a13.56,13.56,0,0,1,19.1.8h0l-5.7,5.2A5.92,5.92,0,0,0,14,52.3Z" style="fill:#3535ed"/><path class="coronaTopDistal" d="M21.75,60.9a5.83,5.83,0,0,0,.4-8.2l5.7-5.2a13.56,13.56,0,0,1-.8,19.1Z" style="fill:#3535ed"/><path class="coronaTopOclusial" d="M18,50.9a5.8,5.8,0,1,0,5.8,5.8A5.8,5.8,0,0,0,18,50.9Z" style="fill:#3535ed"/><path class="silant" d="M26.35,64.6a19,19,0,0,1-6.9,1.2c-5.8,0-9.2-2.2-9.2-5.4,0-2.7,2.2-4.2,6.4-5.4,3.2-.9,4.7-1.6,4.7-3.1,0-1.3-1.5-2.5-4.1-2.5a13.11,13.11,0,0,0-5,1L11.15,48a15.66,15.66,0,0,1,6-1.1c5.3,0,8.4,2.4,8.4,5.3,0,2.2-2.1,4-6.5,5.1-3.3.9-4.5,1.8-4.5,3.3s1.5,2.7,4.8,2.7a16.09,16.09,0,0,0,5.9-1.3Z" style="fill:#3535ed"/><path class="crown" d="M22.25,8.4c2,7.8,3.6,15.7,4.9,23.7.1,2.8-.6,4.8-2.7,5.3H13.05c-2.1-.2-3.4-1.2-3.6-3.1a21.74,21.74,0,0,1,0-8.8,116.67,116.67,0,0,0,2.9-17.7,4.94,4.94,0,0,1,1.7-3.6c2.1-1.8,4.3-1.1,6.8,1.7A10.1,10.1,0,0,1,22.25,8.4Zm4.5,67.2-.2-.3a2.69,2.69,0,0,0-2.4-1.4l-11.4-.2a3.84,3.84,0,0,0-2.5.9h0a1.61,1.61,0,0,0-.6,1.3,81.68,81.68,0,0,0,1.9,22.6,13.69,13.69,0,0,0,1.9,4.7c2,3.1,4.6,3.9,7.5,2.7a5.78,5.78,0,0,0,3.5-4.1c1.8-6.9,2.5-15.2,2.9-24.1A4.34,4.34,0,0,0,26.75,75.6Zm-5-14.7L27,66.6a13.56,13.56,0,0,1-19.1-.8l5.7-5.2A5.92,5.92,0,0,0,21.75,60.9Zm-8.2-.4-5.7,5.2a13.56,13.56,0,0,1,.8-19.1h0l5.2,5.7A5.83,5.83,0,0,0,13.55,60.5Zm.4-8.2-5.2-5.7a13.56,13.56,0,0,1,19.1.8h0l-5.7,5.2A5.92,5.92,0,0,0,14,52.3Zm7.8,8.6a5.83,5.83,0,0,0,.4-8.2l5.7-5.2a13.56,13.56,0,0,1-.8,19.1ZM18,50.8a5.8,5.8,0,1,0,5.8,5.8A5.8,5.8,0,0,0,18,50.8Z" style="fill:#fff;stroke:#111414;stroke-miterlimit:10;stroke-width:0.5px"/><path class="braces" d="M19.65,86.3h0V89a2,2,0,0,0-1.1-.2h-1.2a3.55,3.55,0,0,0-1,.2V86.3h0a3.55,3.55,0,0,0,1,.2h1.2a4.25,4.25,0,0,0,1.1-.2m-4.6-3.9a.64.64,0,0,0-.6.8V87l-14.3.1v1.3l14.3-.1v3.8c0,.4.3.8.6.8h1.1c.4-.1.7-.4.6-.8v-.6a.77.77,0,0,1,.7-.8h1.2a.64.64,0,0,1,.6.8V92a.76.76,0,0,0,.6.8H21a.64.64,0,0,0,.6-.8V88.2h14.3V86.9H21.55V83.1c0-.4-.3-.8-.6-.8h-1.1c-.4.1-.7.4-.6.8v.5c0,.4-.3.8-.6.8h-1.1a.64.64,0,0,1-.6-.8v-.5a.76.76,0,0,0-.6-.8l-1.3.1Z"/><path class="gum" d="M.05,105l12-.1a8.73,8.73,0,0,0,6,2,12.41,12.41,0,0,0,5-1H36" style="fill:none;stroke:#ffb900;stroke-linejoin:round;stroke-width:3px"/><path class="paradontit1" d="M36,106a25.82,25.82,0,0,0-10.6,1.3c-2.4.8-3,4.9-7.4,4.9s-4.1-3.5-7.3-5.3c-3-1.7-7.7-1.6-10.6-1.7" style="fill:none;stroke:#ff822e;stroke-linejoin:round;stroke-width:3px"/><path class="paradontit2" d="M.05,105h1.5c2,0,3.5,2.1,4.3,3.1s8.2,7.9,9.6,8.2c2.5.6,7.5.9,10.8-5.8,2.8-5.9,7.4-4.6,9.7-4.6" style="fill:none;stroke:#f9610d;stroke-linejoin:round;stroke-width:3px"/><path class="paradontit3" d="M.05,105c2,0,6.8,1,7.4,2.9,2,6.3,2.1,12,9.1,13s6.6-4.4,8.1-10.8c1.1-4.2,8.5-4.2,11.3-4.2" style="fill:none;stroke:#f9610d;stroke-linejoin:round;stroke-width:3px"/><path class="paradontit4" d="M.05,105.1s7.7,0,8.9,3.9c1.6,8.8.5,17.1,8.5,17.1s7.9-9.3,9.5-18.1c.4-1.9,6.2-2,9-2" style="fill:none;stroke:#f75403;stroke-linejoin:round;stroke-width:3px"/><path class="periodontit" d="M21.45,154a4.5,4.5,0,1,0,4.5,4.5A4.48,4.48,0,0,0,21.45,154Z" style="fill:#3535ed"/></g></g></g></svg>