<svg xmlns="http://www.w3.org/2000/svg" viewBox="0 0 35.9 180.8"><title>31tooth</title><g class="Слой_2" data-name="Слой 2"><g class="Слой_1-2" data-name="Слой 1"><g class="_31" data-name="31"><path class="background" d="M35.9,180.8H0V0H35.9Z" style="fill:#9fdaff"/><path class="bone" d="M35.9,180.8H0v-75H35.9Z" style="fill:#de82a7"/><path class="bridge" d="M0,80.4H35.9v4H0Zm0-21H35.9v-4H0Zm0-25H35.9v-4H0Z" style="fill:#3535ed"/><path class="root" d="M25.1,101.5c-3.4,18.8-4.1,35.8-1.1,50.3a6.92,6.92,0,0,1,0,3.5c-.7,2.3-2.1,2.2-4.5-.5-4.7-3.6-6.4-31.1-8.1-56.1" style="fill:#f4ecc8;stroke:#111414;stroke-miterlimit:10;stroke-width:0.25px"/><path class="rootCanal" d="M19.8,100.6c-1.6,1.8,1,43,2.7,55.2a.52.52,0,0,1-1,.3c-4.6-12.1-7.9-57-7.3-57.2C14.2,98.9,14.3,99.9,19.8,100.6Z" style="fill:#3535ed;stroke:#201600;stroke-miterlimit:10;stroke-width:0.25px"/><path class="implant" d="M24.6,140.7l-14,2a1.39,1.39,0,0,0,.7.8,15.23,15.23,0,0,0,12.2.1,1.9,1.9,0,0,0,1-1.6Zm0-4.2-14.4,2.2.1,2.4,14.3-2Zm.2-4-14.7,2.2.1,2.4,14.5-2Zm.1-3.9L10,130.8l.1,2.4L24.9,131Zm.2-4.1L9.9,126.8l.1,2.4L25,127Zm.3-3.9L9.8,122.9l.1,2.4L25.2,123Zm0-2.7v-2.5L9.6,117.7l.1,2.5,15.7-2.3Zm.1-3.1-16-.1.1,2.6L25.5,115Zm1.5-4.9h-.4l-18.1-.1H8.1v1.9a1.07,1.07,0,0,0,.2.6.91.91,0,0,0,.7.3h1.1l15,.1h1.1a.91.91,0,0,0,.7-.3,1.61,1.61,0,0,0,.4-.7Zm.6-2.6.3-1.3h0a1.08,1.08,0,0,0-1-1l-18.1-.1a.94.94,0,0,0-1,1v1.2a1,1,0,0,0,.4.9c.1,0,.2.1.4.1l18.1.1a.6.6,0,0,0,.4-.1.89.89,0,0,0,.5-.8Z" style="fill:#3535ed"/><path class="rootMask" d="M25.1,101.5c-3.4,18.8-4.1,35.8-1.1,50.3a6.92,6.92,0,0,1,0,3.5c-.7,2.3-2.1,2.2-4.5-.5-4.7-3.6-6.4-31.1-8.1-56.1" style="fill:#f4ecc8;stroke:#111414;stroke-miterlimit:10;stroke-width:0.25px"/><path class="coronaLingual" d="M22.2,8.4c2,7.8,3.6,15.7,4.9,23.7.1,2.8-.6,4.8-2.7,5.3H13c-2.1-.2-3.4-1.2-3.6-3.1a21.74,21.74,0,0,1,0-8.8A116.67,116.67,0,0,0,12.3,7.8,4.94,4.94,0,0,1,14,4.2c2.1-1.8,4.3-1.1,6.8,1.7A10.1,10.1,0,0,1,22.2,8.4Z" style="fill:#fff;stroke:#111414;stroke-miterlimit:10;stroke-width:0.5px"/><path class="coronaLingualIncisalDistal" d="M24.2,37.5H20.6V27.6h5.5c.3,1.5.6,3.1.8,4.6C27.1,35,26.4,37,24.2,37.5Z" style="fill:#3535ed"/><path class="coronaLingualIncisalMiddle" d="M20.6,37.5H14.9V27.6h5.7Z" style="fill:#3535ed"/><path class="coronaLingualIncisionMesial" d="M9,27.6h6v9.9H12.9c-2.1-.2-3.4-1.2-3.6-3.1A19.37,19.37,0,0,1,9,27.6Z" style="fill:#3535ed"/><path class="coronaLingualMiddleDistal" d="M26.2,27.6H20.7V13.9h2.7C24.4,18.5,25.3,23,26.2,27.6Z" style="fill:#3535ed"/><path class="coronaLingualMiddleMiddle" d="M20.7,27.6H15V13.9h5.7Z" style="fill:#3535ed"/><path class="coronaLingualMiddleMesial" d="M15,14V27.6H9c.1-.6.2-1.3.3-2,.9-3.9,1.7-7.8,2.2-11.6Z" style="fill:#3535ed"/><path class="coronaLingualCervicalDistal" d="M23.4,14H20.6V5.9l.1.1A6,6,0,0,1,22,8.5C22.5,10.3,22.9,12.1,23.4,14Z" style="fill:#3535ed"/><path class="coronaLingualCervicalMiddle" d="M20.7,5.9V14H15V3.6C16.7,2.8,18.6,3.6,20.7,5.9Z" style="fill:#3535ed"/><path class="coronaLingualCervicalMesial" d="M15,3.7V14H11.5c.3-2,.6-4,.7-6,.8-3.6.8-2.6,1.7-3.6A6.73,6.73,0,0,1,15,3.7Z" style="fill:#3535ed"/><path class="coronaLabial" d="M27.3,77.7c-.4,8.9-1.1,17.2-2.9,24.1a5.78,5.78,0,0,1-3.5,4.1c-2.9,1.2-5.5.4-7.5-2.7a13.69,13.69,0,0,1-1.9-4.7A81.68,81.68,0,0,1,9.6,75.9a1.61,1.61,0,0,1,.6-1.3h0a3.84,3.84,0,0,1,2.5-.9l11.4.2a2.69,2.69,0,0,1,2.4,1.4l.2.3A4.34,4.34,0,0,1,27.3,77.7Z" style="fill:#fff;stroke:#111414;stroke-miterlimit:10;stroke-width:0.5px"/><path class="coronaLabialIncisalDistal" d="M27.2,80.1H22.1V74.2h2a2.69,2.69,0,0,1,2.4,1.4l.2.3a4.55,4.55,0,0,1,.5,2Z" style="fill:#3535ed"/><path class="coronaLabialIncisalMiddle" d="M22.1,74.1V80h-7V73.9Z" style="fill:#3535ed"/><path class="coronaLabialIncisionMesial" d="M12.7,73.9h2.5V80H9.5c0-1.3,0-2.6.1-3.9a1.61,1.61,0,0,1,.6-1.3,3.84,3.84,0,0,1,2.5-.9Z" style="fill:#3535ed"/><path class="coronaLabialMiddleDistal" d="M25.1,98.3H22V80h5.1A111.39,111.39,0,0,1,25.1,98.3Z" style="fill:#3535ed"/><path class="coronaLabialMiddleMiddle" d="M22.1,98.3h-7V80h7Z" style="fill:#3535ed"/><path class="coronaLabialMiddleMesial" d="M15.2,80V98.3H11.6A86.21,86.21,0,0,1,9.6,80Z" style="fill:#3535ed"/><path class="coronaLabialCervicalDistal" d="M25.2,98.2c-.3,1.2-.5,2.5-.8,3.6a6.13,6.13,0,0,1-2.3,3.4v-7Z" style="fill:#3535ed"/><path class="coronaLabialCervicalMiddle" d="M22.1,98.2v7a7.46,7.46,0,0,1-1.2.7,5.34,5.34,0,0,1-5.8-.7v-7Z" style="fill:#3535ed"/><path class="coronaLabialCervicalMesial" d="M15.1,98.3v7a10.61,10.61,0,0,1-1.7-2,13.69,13.69,0,0,1-1.9-4.7.76.76,0,0,1-.1-.4Z" style="fill:#3535ed"/><path class="veneer" d="M18.2,80.9c2.8-1.1,3.1-1,4.9,1.4l1.2,1.6L23.6,82c-1.1-2.8-1-3.1,1.4-4.9l1.6-1.2-1.9.7c-2.8,1-3.1.9-4.9-1.5l-1.2-1.6.7,1.9c1,2.8.9,3.1-1.5,4.9l-1.6,1.2Zm1,10.4c1.7-.6,1.9-.5,3,.9l1.2,1.6-.7-1.9c-.6-1.7-.5-1.9.9-3l1.6-1.2-1.9.7c-1.7.6-1.8.5-2.9-.9l-1.2-1.6.7,1.9c.6,1.7.5,1.8-.9,2.9l-1.6,1.2Zm7-4.7c1.7-.6,1.9-.5,3,.9l1.2,1.6-.7-1.9c-.6-1.8-.5-1.9.9-3L32.2,83l-1.9.7c-1.7.6-1.8.5-2.9-.9l-1.2-1.6.7,1.9c.6,1.8.5,1.9-.9,3l-1.6,1.2ZM8.3,81c1.7-.6,1.9-.5,3,.9l1.2,1.6-.7-1.9c-.6-1.7-.5-1.9.9-3l1.3-1-1.6.5c-1.7.6-1.9.5-3-.9L8.3,75.6,9,77.5c.6,1.7.5,1.9-.9,3L6.5,81.7ZM5.2,88.5c1.7-.6,1.9-.5,3,.9L9.4,91l-.7-1.9c-.6-1.8-.5-1.9.9-3l1.6-1.2-1.9.7c-1.7.6-1.8.5-2.9-.9L5.2,83.1,5.9,85c.6,1.7.5,1.8-.9,2.9L3.4,89.1Z" style="fill:#3535ed"/><path class="coronaTop" d="M13.5,60.6,7.8,65.8a13.56,13.56,0,0,0,19.1.8l-5.2-5.7A5.92,5.92,0,0,1,13.5,60.6Zm.3-8.3L8.6,46.6h0a13.56,13.56,0,0,0-.8,19.1l5.7-5.2A5.83,5.83,0,0,1,13.8,52.3Zm8.3.3,5.7-5.2h0a13.56,13.56,0,0,0-19.1-.8l5.2,5.7A5.92,5.92,0,0,1,22.1,52.6Zm4.9,14a13.56,13.56,0,0,0,.8-19.1l-5.7,5.2a5.83,5.83,0,0,1-.4,8.2Zm-3.3-10a5.8,5.8,0,1,1-5.8-5.8A5.8,5.8,0,0,1,23.7,56.6Z" style="fill:#fff;stroke:#000;stroke-miterlimit:10"/><path class="coronaTopBuccal" d="M13.5,60.6,7.8,65.8a13.56,13.56,0,0,0,19.1.8l-5.2-5.7A5.92,5.92,0,0,1,13.5,60.6Z" style="fill:#3535ed"/><path class="coronaTopMedial" d="M13.8,52.3,8.6,46.6h0a13.56,13.56,0,0,0-.8,19.1l5.7-5.2A5.83,5.83,0,0,1,13.8,52.3Z" style="fill:#3535ed"/><path class="coronaTopLingual" d="M22.1,52.6l5.7-5.2h0a13.56,13.56,0,0,0-19.1-.8l5.2,5.7A5.92,5.92,0,0,1,22.1,52.6Z" style="fill:#3535ed"/><path class="coronaTopDistal" d="M27,66.6a13.56,13.56,0,0,0,.8-19.1l-5.7,5.2a5.83,5.83,0,0,1-.4,8.2Z" style="fill:#3535ed"/><path class="coronaTopOclusial" d="M23.7,56.7a5.8,5.8,0,1,1-5.8-5.8A5.8,5.8,0,0,1,23.7,56.7Z" style="fill:#3535ed"/><path class="silant" d="M25.2,62a16.09,16.09,0,0,1-5.9,1.3c-3.3,0-4.8-1.2-4.8-2.7s1.2-2.4,4.5-3.3c4.4-1.1,6.5-2.9,6.5-5.1,0-2.9-3.1-5.3-8.4-5.3a15.66,15.66,0,0,0-6,1.1l1.1,2.4a13.11,13.11,0,0,1,5-1c2.6,0,4.1,1.2,4.1,2.5,0,1.5-1.5,2.2-4.7,3.1-4.2,1.2-6.4,2.7-6.4,5.4,0,3.2,3.4,5.4,9.2,5.4a19,19,0,0,0,6.9-1.2Z" style="fill:#3535ed"/><path class="crown" d="M22.2,8.4c2,7.8,3.6,15.7,4.9,23.7.1,2.8-.6,4.8-2.7,5.3H13c-2.1-.2-3.4-1.2-3.6-3.1a21.74,21.74,0,0,1,0-8.8A116.67,116.67,0,0,0,12.3,7.8,4.94,4.94,0,0,1,14,4.2c2.1-1.8,4.3-1.1,6.8,1.7A10.1,10.1,0,0,1,22.2,8.4Zm4.5,67.2-.2-.3a2.69,2.69,0,0,0-2.4-1.4l-11.4-.2a3.84,3.84,0,0,0-2.5.9h0a1.61,1.61,0,0,0-.6,1.3,81.68,81.68,0,0,0,1.9,22.6,13.69,13.69,0,0,0,1.9,4.7c2,3.1,4.6,3.9,7.5,2.7a5.78,5.78,0,0,0,3.5-4.1c1.8-6.9,2.5-15.2,2.9-24.1A4.34,4.34,0,0,0,26.7,75.6Zm-5-14.7,5.2,5.7a13.56,13.56,0,0,1-19.1-.8l5.7-5.2A5.92,5.92,0,0,0,21.7,60.9Zm-8.2-.4L7.8,65.7a13.56,13.56,0,0,1,.8-19.1h0l5.2,5.7A5.83,5.83,0,0,0,13.5,60.5Zm.4-8.2L8.7,46.6a13.56,13.56,0,0,1,19.1.8h0l-5.7,5.2A5.92,5.92,0,0,0,13.9,52.3Zm7.8,8.6a5.83,5.83,0,0,0,.4-8.2l5.7-5.2A13.56,13.56,0,0,1,27,66.6ZM17.9,50.8a5.8,5.8,0,1,0,5.8,5.8A5.8,5.8,0,0,0,17.9,50.8Z" style="fill:#fff;stroke:#111414;stroke-miterlimit:10;stroke-width:0.5px"/><path class="braces" d="M19.6,86.3h0V89a4.25,4.25,0,0,0-1.1-.2H17.3a3.55,3.55,0,0,0-1,.2V86.3h0a3.55,3.55,0,0,0,1,.2h1.2a2,2,0,0,0,1.1-.2M15,82.4a1.14,1.14,0,0,0-.8.7v3.8H0v1.3H14.2V92a.77.77,0,0,0,.7.8H16a.76.76,0,0,0,.6-.8v-.5a.64.64,0,0,1,.6-.8h1.2c.3,0,.6.4.6.8v.6c-.1.4.2.7.6.8h1.1c.3,0,.6-.4.6-.8V88.3l14.6-.1V86.9L21.3,87V83.2a.64.64,0,0,0-.6-.8H19.6a.76.76,0,0,0-.6.8v.5a.64.64,0,0,1-.6.8H17.3c-.3,0-.6-.4-.6-.8v-.5c.1-.4-.2-.7-.6-.8Z"/><path class="gum" d="M35.9,105.9H23a12.41,12.41,0,0,1-5,1,8.73,8.73,0,0,1-6-2c-4.5,0-10.6.1-12,.1" style="fill:none;stroke:#ffb900;stroke-linejoin:round;stroke-width:3px"/><path class="paradontit1" d="M0,105.2c2.1,0,7.4,0,10.6,1.7s2.9,5.3,7.3,5.3,5-4.1,7.4-4.9A25.82,25.82,0,0,1,35.9,106" style="fill:none;stroke:#ff822e;stroke-linejoin:round;stroke-width:3px"/><path class="paradontit2" d="M35.9,105.9c-2.3,0-6.9-1.3-9.7,4.6-3.3,6.7-8.3,6.4-10.8,5.8-1.4-.3-8.8-7.2-9.6-8.2S3.5,105,1.5,105H0" style="fill:none;stroke:#f9610d;stroke-linejoin:round;stroke-width:3px"/><path class="paradontit3" d="M35.9,105.9c-2.8,0-10.2,0-11.3,4.2-1.5,6.4-1.1,11.8-8.1,10.8s-7.1-6.7-9.1-13C6.8,106,2,105,0,105" style="fill:none;stroke:#f9610d;stroke-linejoin:round;stroke-width:3px"/><path class="paradontit4" d="M35.9,106c-2.8,0-8.6.1-9,2-1.6,8.8-1.5,18.1-9.5,18.1s-6.9-8.3-8.5-17.1c-1.2-3.9-8.9-3.9-8.9-3.9" style="fill:none;stroke:#f75403;stroke-linejoin:round;stroke-width:3px"/><path class="periodontit" d="M25.9,158.5a4.5,4.5,0,1,1-4.5-4.5A4.48,4.48,0,0,1,25.9,158.5Z" style="fill:#3535ed"/></g></g></g></svg>