<svg xmlns="http://www.w3.org/2000/svg" viewBox="0 0 28.5 180.9"><title>32tooth</title><g class="Слой_2" data-name="Слой 2"><g class="Слой_1-2" data-name="Слой 1"><g class="_32" data-name="32"><path class="background" d="M0,0V103.8H0v77H28.5V0Z" style="fill:#9fdaff"/><path class="bone" d="M0,105.9v43H0v32H28.5v-75Z" style="fill:#de82a7"/><path class="bridge" d="M0,80.4H28.5v4H0Zm0-46H28.5v-4H0Zm0,25H28.5v-4H0Z" style="fill:#3535ed"/><path class="root" d="M7.6,98.9c1.8,25,3.6,52.6,8.7,56.2,2.5,2.7,4.1,2.8,4.8.5a8.31,8.31,0,0,0,.1-3.5c-3.2-14.5-2.4-31.5,1.2-50.4" style="fill:#f4ecc8;stroke:#111414;stroke-miterlimit:10;stroke-width:0.25px"/><path class="rootCanal" d="M19.8,157.3s-.2,0-.6-.5c-3.8-4.7-8.6-57.1-8.7-57.6h0s3-3.5,5.9-3.5c1.4,0,2.5.8,3.4,2.4-5.1,24.9-1.9,45.5-.5,54.3.5,2.6.8,4.6.5,4.9ZM16.5,95.8a3.69,3.69,0,0,1,3.2,2.3c-5.1,25-1.9,45.5-.5,54.3a27.27,27.27,0,0,1,.6,4.8c-.1,0-.2-.2-.4-.4-3.7-4.6-8.4-54.8-8.6-57.5.4-.6,3.1-3.5,5.7-3.5m0-.3c-3,0-6,3.7-6,3.7s4.8,52.9,8.7,57.7c.3.4.5.6.7.6,1.7,0-6.9-25.3.2-59.5-1.1-1.9-2.4-2.5-3.6-2.5Z" style="fill:none"/><path class="implant" d="M22.7,140.6l-14,2a1.39,1.39,0,0,0,.7.8,15.23,15.23,0,0,0,12.2.1,2,2,0,0,0,1-1.6Zm0-4L8.3,138.8l.1,2.4,14.3-2Zm.2-3.9L8.2,134.9l.1,2.4,14.5-2.2Zm.2-4.2-15,2.2.1,2.5L23,131Zm.1-4L8,126.8l.1,2.4L23.2,127Zm.2-4L7.8,122.8l.1,2.5L23.2,123Zm.1-5.1L7.7,117.7l.1,2.5,15.7-2.3v-2.5Zm.1-.7-16-.1.1,2.6,15.9-2.3Zm1.5-4.7h-.4l-18.1-.1H6.2v1.9c0,.2.1.3.2.6a.91.91,0,0,0,.7.3H8.2l15,.1h1.1a.91.91,0,0,0,.7-.3.85.85,0,0,0,.2-.6Zm.8-4.1h0a.94.94,0,0,0-1-1l-18.1-.1h0a1.08,1.08,0,0,0-1,1V107a.94.94,0,0,0,1,1l18.1.1a.6.6,0,0,0,.4-.1,1.49,1.49,0,0,0,.4-.9Z" style="fill:#3535ed"/><path class="rootMusk" d="M7.6,98.9c1.8,25,3.6,52.6,8.7,56.2,2.5,2.7,4.1,2.8,4.8.5a8.31,8.31,0,0,0,.1-3.5c-3.2-14.5-2.4-31.5,1.2-50.4" style="fill:#f4ecc8;stroke:#111414;stroke-miterlimit:10;stroke-width:0.25px"/><path class="coronaLingual" d="M15.9,7.1C13.8,5.5,12.1,6,10.7,8.6a3.18,3.18,0,0,0-.3.9c-1.8,7-3.9,14.8-5.8,23-1.1,4.1-.8,6.6,1.7,6.9l16.4-1.2c1.9-.9,2.1-3.8,1.6-7.5a138.29,138.29,0,0,0-5.7-20A8.8,8.8,0,0,0,15.9,7.1Z" style="fill:#fff;stroke:#111414;stroke-miterlimit:10;stroke-width:0.5px"/><path class="coronaLingualIncisalDistal" d="M24.2,30.5c-.1-.2-.1-.5-.2-.7H17.4v8.6l5.2-.4C24.5,37.1,24.7,34.3,24.2,30.5Z" style="fill:#3535ed"/><path class="coronaLingualIncisalMiddle" d="M11.5,29.8v9l6-.4V29.8Z" style="fill:#3535ed"/><path class="coronaLingualIncisionMesial" d="M5.2,29.8c-.2.8-.4,1.6-.6,2.5-1.1,4.1-.8,6.6,1.7,6.9l5.2-.4v-9Z" style="fill:#3535ed"/><path class="coronaLingualMiddleDistal" d="M20.5,16.2h-3V29.9h6.6A130.18,130.18,0,0,0,20.5,16.2Z" style="fill:#3535ed"/><path class="coronaLingualMiddleMiddle" d="M17.5,16.2h-6V29.9h6Z" style="fill:#3535ed"/><path class="coronaLingualMiddleMesial" d="M8.7,16.2c-1.1,4.4-2.3,8.9-3.4,13.7h6.2V16.2Z" style="fill:#3535ed"/><path class="coronaLingualCervicalDistal" d="M18.5,10.7a7.5,7.5,0,0,0-1-2v7.6h3C19.9,14.5,19.2,12.6,18.5,10.7Z" style="fill:#3535ed"/><path class="coronaLingualCervicalMiddle" d="M15.9,7c-1.7-1.3-3.2-1.2-4.4.4v8.8h6V8.6A4.89,4.89,0,0,0,15.9,7Z" style="fill:#3535ed"/><path class="coronaLingualCervicalMesial" d="M10.8,8.5a3.18,3.18,0,0,0-.3.9c-.6,2.2-1.2,4.5-1.8,6.8h2.8V7.4A4.13,4.13,0,0,0,10.8,8.5Z" style="fill:#3535ed"/><path class="coronaLabial" d="M26.5,82.7a9.09,9.09,0,0,0-1.4-6.2,3.66,3.66,0,0,0-3-1.6L8.9,74c-1.6,0-2.6.9-2.9,3.1a147.27,147.27,0,0,0,.4,17.6,13,13,0,0,0,2,5.7c5.8,8.8,10.4,9.1,13.8,1.1A98.71,98.71,0,0,0,26.5,82.7Z" style="fill:#fff;stroke:#111414;stroke-miterlimit:10;stroke-width:0.5px"/><path class="coronaLabialIncisalDistal" d="M25.1,76.5a3.66,3.66,0,0,0-3-1.6l-3-.2v5h7.2A7.83,7.83,0,0,0,25.1,76.5Z" style="fill:#3535ed"/><path class="coronaLabialIncisalMiddle" d="M10.5,74.1v5.6h8.7v-5Z" style="fill:#3535ed"/><path class="coronaLabialIncisionMesial" d="M8.9,74c-1.6,0-2.6.9-2.9,3.1a21.75,21.75,0,0,1-.1,2.6h4.6V74.1Z" style="fill:#3535ed"/><path class="coronaLabialMiddleDistal" d="M26.4,79.7H19.2V98h4.2a116.65,116.65,0,0,0,3.1-15.4A14.31,14.31,0,0,0,26.4,79.7Z" style="fill:#3535ed"/><path class="coronaLabialMiddleMiddle" d="M19.2,79.7H10.5V98h8.7Z" style="fill:#3535ed"/><path class="coronaLabialMiddleMesial" d="M6,79.7a125.32,125.32,0,0,0,.5,15A12.26,12.26,0,0,0,7.3,98h3.2V79.7Z" style="fill:#3535ed"/><path class="coronaLabialCervicalDistal" d="M19.2,98.2v8.1a12.45,12.45,0,0,0,3.1-4.7,35.8,35.8,0,0,0,1.1-3.5l-4.2.1Z" style="fill:#3535ed"/><path class="coronaLabialCervicalMiddle" d="M10.5,98.1v5.1q5,6.15,8.7,3V98.1Z" style="fill:#3535ed"/><path class="coronaLabialCervicalMesial" d="M7.3,98.1a10.08,10.08,0,0,0,1.2,2.3c.7,1,1.4,2,2,2.8V98.1Z" style="fill:#3535ed"/><path class="veneer" d="M14.3,81.8c2.6-1.2,2.8-1.1,4.5,1.6l1.1,1.7L19.3,83c-1-3.1-.9-3.4,1.3-5.4l1.5-1.3-1.7.8c-2.6,1.2-2.8,1.1-4.5-1.6l-1.1-1.8.6,2.1c1,3.1.9,3.4-1.3,5.4l-1.5,1.3Zm1.1,11.4c1.6-.7,1.7-.6,2.7,1L19.2,96l-.6-2.1c-.6-1.9-.5-2.1.8-3.3l1.5-1.3-1.7.8c-1.6.7-1.7.6-2.7-1l-1.1-1.8.6,2.1c.6,1.9.5,2.1-.8,3.3L13.7,94Zm6.3-4.9c1.7-.7,1.8-.6,2.8,1l1.1,1.8L25,89c-.6-1.9-.5-2.1.8-3.3l1.5-1.3-1.7.8c-1.6.7-1.7.6-2.7-1l-1.1-1.8.6,2.1c.6,1.9.5,2.1-.8,3.3l-1.5,1.3ZM5.1,82c1.6-.7,1.8-.6,2.8,1L9,84.8l-.6-2.1c-.6-1.9-.5-2.1.8-3.3l1.5-1.3L9,78.9c-1.6.7-1.7.6-2.7-1l-1-1.8.6,2.1c.6,1.9.5,2.1-.8,3.3L3.6,82.8ZM2.4,90.2c1.7-.7,1.8-.6,2.8,1L6.3,93l-.6-2.1c-.6-2-.5-2.1.8-3.3L8,86.3l-1.7.8c-1.6.7-1.7.6-2.7-1L2.5,84.3l.6,2.1c.6,2,.5,2.1-.8,3.3L.8,91Z" style="fill:#3535ed"/><path class="coronaTop" d="M10,60.7,4.3,65.9h0a13.56,13.56,0,0,0,19.1.8L18.2,61A5.92,5.92,0,0,1,10,60.7Zm0-.1a6,6,0,0,1,.3-8.3L5.1,46.7a13.56,13.56,0,0,0-.8,19.1L10,60.6Zm8.5-7.9,5.7-5.2a13.56,13.56,0,0,0-19.1-.8l5.2,5.7A5.83,5.83,0,0,1,18.5,52.7Zm5,14a13.56,13.56,0,0,0,.8-19.1l-5.7,5.2a5.83,5.83,0,0,1-.4,8.2Zm-6.4-5a5.78,5.78,0,1,1,2.1-7.9A5.85,5.85,0,0,1,17.1,61.7Z" style="fill:#fff;stroke:#000;stroke-miterlimit:10"/><path class="coronaTopBuccal" d="M18.2,61l5.2,5.7a13.56,13.56,0,0,1-19.1-.8h0L10,60.7A5.92,5.92,0,0,0,18.2,61Z" style="fill:#3535ed"/><path class="coronaTopMedial" d="M10,60.6,4.3,65.8a13.56,13.56,0,0,1,.8-19.1l5.2,5.6a6,6,0,0,0-.3,8.3Z" style="fill:#3535ed"/><path class="coronaTopLingual" d="M10.3,52.4,5.1,46.7a13.56,13.56,0,0,1,19.1.8l-5.7,5.2A5.83,5.83,0,0,0,10.3,52.4Z" style="fill:#3535ed"/><path class="coronaTopDistal" d="M18.2,61a5.83,5.83,0,0,0,.4-8.2l5.7-5.2a13.56,13.56,0,0,1-.8,19.1Z" style="fill:#3535ed"/><path class="coronaTopOclusial" d="M19.2,53.8a5.78,5.78,0,1,0-2.1,7.9A5.85,5.85,0,0,0,19.2,53.8Z" style="fill:#3535ed"/><path class="silant" d="M22.2,64.8A19,19,0,0,1,15.3,66c-5.8,0-9.2-2.2-9.2-5.4,0-2.7,2.2-4.2,6.4-5.4,3.2-.9,4.7-1.6,4.7-3.1,0-1.3-1.5-2.5-4.1-2.5a13.11,13.11,0,0,0-5,1L7,48.2a15.66,15.66,0,0,1,6-1.1c5.3,0,8.4,2.4,8.4,5.3,0,2.2-2.1,4-6.5,5.1-3.3.9-4.5,1.8-4.5,3.3s1.5,2.7,4.8,2.7a16.09,16.09,0,0,0,5.9-1.3Z" style="fill:#3535ed"/><path class="crown" d="M18.6,10.7a138.29,138.29,0,0,1,5.7,20c.5,3.7.3,6.6-1.6,7.5L6.3,39.4c-2.5-.3-2.8-2.8-1.7-6.9,1.9-8.2,4-16,5.8-23a3.18,3.18,0,0,1,.3-.9c1.4-2.6,3.1-3.1,5.2-1.5A8.8,8.8,0,0,1,18.6,10.7Zm7.9,72a9.09,9.09,0,0,0-1.4-6.2,3.66,3.66,0,0,0-3-1.6L8.9,74c-1.6,0-2.6.9-2.9,3.1a147.27,147.27,0,0,0,.4,17.6,13,13,0,0,0,2,5.7c5.8,8.8,10.4,9.1,13.8,1.1A98.71,98.71,0,0,0,26.5,82.7ZM18.2,61l5.2,5.7a13.56,13.56,0,0,1-19.1-.8h0L10,60.7A5.92,5.92,0,0,0,18.2,61ZM10,60.6,4.3,65.8a13.56,13.56,0,0,1,.8-19.1l5.2,5.6a6,6,0,0,0-.3,8.3Zm.3-8.2L5.1,46.7a13.56,13.56,0,0,1,19.1.8l-5.7,5.2A5.83,5.83,0,0,0,10.3,52.4ZM18.2,61a5.83,5.83,0,0,0,.4-8.2l5.7-5.2a13.56,13.56,0,0,1-.8,19.1Zm1-7.2a5.78,5.78,0,1,0-2.1,7.9A5.85,5.85,0,0,0,19.2,53.8Z" style="fill:#fff;stroke:#111414;stroke-miterlimit:10;stroke-width:0.5px"/><path class="braces" d="M15.9,86.3h0V89a2,2,0,0,0-1.1-.2H13.6a3.55,3.55,0,0,0-1,.2V86.3h0a3.55,3.55,0,0,0,1,.2h1.2a4.25,4.25,0,0,0,1.1-.2m-4.6-3.9a.64.64,0,0,0-.6.8V87H.1v1.3H10.7v3.8a.77.77,0,0,0,.7.8h1.1c.4-.1.7-.4.6-.8v-.6c0-.4.3-.8.6-.8h1.2a.64.64,0,0,1,.6.8V92a.76.76,0,0,0,.6.8h1.1a.64.64,0,0,0,.6-.8V88.2H28.4V86.9H17.9V83.1c0-.4-.3-.8-.6-.8H16.2c-.4.1-.7.4-.6.8v.5c0,.4-.3.8-.6.8H13.9a.64.64,0,0,1-.6-.8v-.5a.76.76,0,0,0-.6-.8l-1.4.1Z"/><path class="gum" d="M0,106H11a11.92,11.92,0,0,0,6,2,4.34,4.34,0,0,0,4-2h7.5" style="fill:none;stroke:#ffb900;stroke-linejoin:round;stroke-width:3px"/><path class="paradontit1" d="M0,106H4a4.53,4.53,0,0,1,3.8,2.1,8.21,8.21,0,0,0,7.4,4.1c2.9,0,6.1-.7,7.4-3.5a4.5,4.5,0,0,1,4.1-2.7h1.8" style="fill:none;stroke:#ff822e;stroke-linejoin:round;stroke-width:3px"/><path class="paradontit2" d="M28.5,106c-2,0-3.4.6-5,2.9-2.2,3.3-3.5,7.5-7.3,7.5-7,0-7.3-4.2-9.4-8-.7-2.3-6.6-2.5-6.8-2.5" style="fill:none;stroke:#f9610d;stroke-linejoin:round;stroke-width:3px"/><path class="paradontit3" d="M0,106s5.3,0,7.6,4.5c2.1,3.7.9,9,7.9,10,4.9.7,6.2-8.3,8.6-12.8.9-1.7,4.4-1.7,4.4-1.7" style="fill:none;stroke:#f9610d;stroke-linejoin:round;stroke-width:3px"/><path class="paradontit4" d="M0,106H1.9a4.42,4.42,0,0,1,4.2,2.9c2.2,5.7.8,15.7,8.8,15.7s8.2-9,9.4-15a4.38,4.38,0,0,1,4.2-3.6" style="fill:none;stroke:#f75403;stroke-linejoin:round;stroke-width:3px"/><path class="periodontit" d="M19.5,155a4.5,4.5,0,1,0,4.5,4.5A4.48,4.48,0,0,0,19.5,155Z" style="fill:#3535ed"/></g></g></g></svg>