<svg xmlns="http://www.w3.org/2000/svg" viewBox="0 0 33.9 180.8"><title>33tooth</title><g class="Слой_2" data-name="Слой 2"><g class="Слой_1-2" data-name="Слой 1"><g class="_33" data-name="33"><path class="background" d="M33.9,0V180.8H0V0Z" style="fill:#9fdaff"/><path class="bone" d="M33.9,105.8v75H0v-75Z" style="fill:#de82a7"/><path class="bridge" d="M0,30.4H33.9v4H0Zm0,29H33.9v-4H0Zm0,25H33.9v-4H0Z" style="fill:#3535ed"/><path class="root" d="M9.4,99.7c1.2,26.2,3.3,50.3,8.8,66a14.25,14.25,0,0,0,2.5,4.3c2,2.3,3.6,2.4,4.6.2a7.57,7.57,0,0,0,.4-4.7c-3.4-14.9-.5-37.3,2.3-59.5" style="fill:#f4ecc8;stroke:#111414;stroke-miterlimit:10;stroke-width:0.25px"/><path class="rootCanal" d="M22.6,170.9c-2.3-6.5-4.9-17.4-9.1-70.6,0,0,3-3.6,5.9-3.6A4,4,0,0,1,22.8,99c-3.9,26.5-.5,61.7.6,71.8,0,.1,0,.1-.1.2a.37.37,0,0,1-.3.1A.4.4,0,0,1,22.6,170.9ZM19.3,96.5v.3A3.57,3.57,0,0,1,22.5,99c-3.9,26.6-.5,61.7.6,71.8v.1c0,.1-.1.1-.2.1l-.2-.2c-2.3-6.6-4.9-17.4-9.1-70.6.5-.5,3.2-3.5,5.8-3.5v-.2m0,0c-3,0-6,3.7-6,3.6,4.1,52.7,6.8,64.1,9.1,70.8a.55.55,0,0,0,.5.3.47.47,0,0,0,.5-.5c-2.1-18.3-4-48.7-.6-71.8a4,4,0,0,0-3.5-2.4Z" style="fill:none"/><path class="implant" d="M26.1,140.6l-14,2.1a1.39,1.39,0,0,0,.7.8,15.23,15.23,0,0,0,12.2.1,1.78,1.78,0,0,0,1-1.6Zm0-1.6v-2.5l-14.4,2.2.1,2.4L26.1,139Zm.2-6.4-14.7,2.2.1,2.4L26.2,135Zm.2-4-15,2.2.1,2.4L26.4,131Zm.1-4.2-15.2,2.3.1,2.4,15-2.2Zm.3-3.9-15.6,2.3.1,2.4,15.3-2.3Zm0-5.1-15.8,2.3.1,2.4,15.7-2.3Zm.1-.6-16-.1.1,2.6L27,115Zm1.5-4.7h-.4L10,110H9.6v1.9a1.07,1.07,0,0,0,.2.6.91.91,0,0,0,.7.3h1.1l15,.1h1.1a.91.91,0,0,0,.7-.3,1.07,1.07,0,0,0,.2-.6Zm1-2.9v-1.3h0a1.08,1.08,0,0,0-1-1l-18.1-.1h0a.94.94,0,0,0-1,1v1.3a.91.91,0,0,0,.4.8c.1,0,.2.1.4.1l18.1.1a.6.6,0,0,0,.4-.1,1,1,0,0,0,.4-.8Z" style="fill:#3535ed"/><path class="rootMask" d="M9.4,99.7c1.2,26.2,3.3,50.3,8.8,66a14.25,14.25,0,0,0,2.5,4.3c2,2.3,3.6,2.4,4.6.2a7.57,7.57,0,0,0,.4-4.7c-3.4-14.9-.5-37.3,2.3-59.5" style="fill:#f4ecc8;stroke:#111414;stroke-miterlimit:10;stroke-width:0.25px"/><path class="coronaLingual" d="M21.8,7c3.5,8.7,8.3,17.8,6.4,24.8a6.14,6.14,0,0,1-1.5,2.6c-7.1,7.4-13.8,7.4-20.1-.1a6.73,6.73,0,0,1-.7-1.1C3,26.8,8.1,16.4,12,6.6a6.34,6.34,0,0,1,1.9-2.4c2.2-1.6,4.5-1.2,6.9,1.1A2.7,2.7,0,0,1,21.8,7Z" style="fill:#fff;stroke:#111414;stroke-miterlimit:10;stroke-width:0.5px"/><path class="coronaLingualIncisalDistal" d="M21.3,28.6h7.3a10.32,10.32,0,0,1-.4,3,6.14,6.14,0,0,1-1.5,2.6,21.83,21.83,0,0,1-5.4,4.2V28.6Z" style="fill:#3535ed"/><path class="coronaLingualIncisalMiddle" d="M21.3,28.6v9.8a9.77,9.77,0,0,1-7.3,1V28.6Z" style="fill:#3535ed"/><path class="coronaLingualIncisionMesial" d="M14.1,28.5V39.3c-2.5-.6-5-2.4-7.4-5.3A3.59,3.59,0,0,1,6,33a11.08,11.08,0,0,1-.8-4.4Z" style="fill:#3535ed"/><path class="coronaLingualMiddleDistal" d="M28.6,28.6H21.3V14.9h3.9C27.1,19.7,28.7,24.4,28.6,28.6Z" style="fill:#3535ed"/><path class="coronaLingualMiddleMiddle" d="M21.3,28.6H14V14.9h7.3Z" style="fill:#3535ed"/><path class="coronaLingualMiddleMesial" d="M14,14.9V28.6H5.1c0-4,1.6-8.8,3.5-13.7Z" style="fill:#3535ed"/><path class="coronaLingualCervicalDistal" d="M25.2,14.9H21.3V5.7a2.07,2.07,0,0,1,.6,1C23,9.4,24.2,12.2,25.2,14.9Z" style="fill:#3535ed"/><path class="coronaLingualCervicalMiddle" d="M21.3,5.7v9.2H14V3.9c2.2-1.5,4.5-1,6.8,1.2A2.65,2.65,0,0,1,21.3,5.7Z" style="fill:#3535ed"/><path class="coronaLingualCervicalMesial" d="M14.2,4l.1,10.9H8.9c1.1-2.8,2.3-5.7,3.4-8.5A5.66,5.66,0,0,1,14.2,4Z" style="fill:#3535ed"/><path class="coronaLabial" d="M28,105.9a8.86,8.86,0,0,1-.8,1.7c-3.8,5.5-8.4,6-14.2-.4a11.73,11.73,0,0,1-1.9-3,58.48,58.48,0,0,1-3.4-11C7,87.7,7.5,83,9.6,79.7c4.2-9.4,11.1-7.5,19.5,0a13.16,13.16,0,0,1,2.4,7.9A103.71,103.71,0,0,1,28,105.9Z" style="fill:#fff;stroke:#111414;stroke-miterlimit:10;stroke-width:0.5px"/><path class="coronaLabialIncisalDistal" d="M29,79.8l-5.5.1V75.6A32,32,0,0,1,29,79.8Z" style="fill:#3535ed"/><path class="coronaLabialIncisalMiddle" d="M23.6,75.4v4.4h-10V74.4C16.3,72.5,19.7,73.1,23.6,75.4Z" style="fill:#3535ed"/><path class="coronaLabialIncisionMesial" d="M13.7,74.4v5.3h-4l.1-.1A11.24,11.24,0,0,1,13.7,74.4Z" style="fill:#3535ed"/><path class="coronaLabialMiddleDistal" d="M29.9,98.1H23.5V79.8h5.6a12.06,12.06,0,0,1,2.4,7.8A105.38,105.38,0,0,1,29.9,98.1Z" style="fill:#3535ed"/><path class="coronaLabialMiddleMiddle" d="M23.6,98h-10V79.7h10Z" style="fill:#3535ed"/><path class="coronaLabialMiddleMesial" d="M13.7,79.7V98.1H9c-.4-1.6-.8-3.3-1.2-5C7.2,87.7,7.6,83,9.7,79.7Z" style="fill:#3535ed"/><path class="coronaLabialCervicalDistal" d="M29.9,98.1a73.76,73.76,0,0,1-1.9,7.8,8.86,8.86,0,0,1-.8,1.7,10.34,10.34,0,0,1-3.6,3.6v-13Z" style="fill:#3535ed"/><path class="coronaLabialCervicalMiddle" d="M23.6,97.9v13c-2.9,1.5-6.2.6-10-3.4V97.8Z" style="fill:#3535ed"/><path class="coronaLabialCervicalMesial" d="M9.1,98.2h4.6v9.7l-.6-.6a11.73,11.73,0,0,1-1.9-3,62.63,62.63,0,0,1-2.1-6.1Z" style="fill:#3535ed"/><path class="veneer" d="M19.6,80.7c2.8-1.1,3.1-.9,4.9,1.4l1.2,1.6L25,81.9c-1.1-2.8-1-3.1,1.4-4.9L28,75.8l-1.9.7c-2.8,1-3.1.9-4.9-1.4L20,73.5l.7,1.8c1.1,2.8,1,3.1-1.4,4.9l-1.6,1.2ZM20.8,91c1.7-.6,1.8-.5,2.9.9l1.2,1.6-.7-1.8c-.6-1.7-.5-1.8.9-2.9l1.6-1.2-1.9.7c-1.7.6-1.8.5-2.9-.9l-1.2-1.6.7,1.8c.6,1.7.5,1.8-.9,2.9l-1.6,1.2Zm6.9-4.5c1.8-.6,1.9-.5,3,.9L31.9,89l-.7-1.8c-.6-1.7-.5-1.8.9-2.9l1.6-1.2-1.9.7c-1.7.6-1.8.5-2.9-.9l-1.2-1.6.7,1.8c.6,1.7.5,1.8-.9,2.9l-1.6,1.2ZM9.8,80.9c1.8-.6,1.9-.5,3,.9L14,83.4l-.7-1.8c-.6-1.7-.5-1.8.9-2.9l1.6-1.2-1.9.7c-1.7.6-1.8.5-2.9-.9L9.9,75.7l.7,1.8c.6,1.7.5,1.8-.9,2.9L8.1,81.6Zm-3,7.4c1.8-.6,1.9-.5,3,.9L11,90.8,10.3,89c-.6-1.7-.5-1.8.9-2.9l1.6-1.2-1.9.7c-1.7.6-1.8.5-2.9-.9L6.8,83.1l.7,1.8c.6,1.7.5,1.8-.9,2.9L5,89Z" style="fill:#3535ed"/><path class="coronaTop" d="M12.6,60.7,6.9,65.9a13.56,13.56,0,0,0,19.1.8L20.8,61A5.83,5.83,0,0,1,12.6,60.7Zm0,0a5.92,5.92,0,0,1,.3-8.2L7.7,46.8a13.56,13.56,0,0,0-.8,19.1l5.7-5.2Zm8.6-7.9,5.7-5.2h0a13.56,13.56,0,0,0-19.1-.8L13,52.5A5.83,5.83,0,0,1,21.2,52.8Zm4.9,13.9a13.56,13.56,0,0,0,.8-19.1l-5.7,5.2a5.83,5.83,0,0,1-.4,8.2Zm-6.2-5A5.78,5.78,0,1,1,22,53.8,5.76,5.76,0,0,1,19.9,61.7Z" style="fill:#fff;stroke:#000;stroke-miterlimit:10"/><path class="coronaTopBuccal" d="M12.6,60.7,6.9,65.9a13.56,13.56,0,0,0,19.1.8L20.8,61A5.83,5.83,0,0,1,12.6,60.7Z" style="fill:#3535ed"/><path class="coronaTopMedial" d="M12.6,60.7a5.92,5.92,0,0,1,.3-8.2L7.7,46.8a13.56,13.56,0,0,0-.8,19.1l5.7-5.2Z" style="fill:#3535ed"/><path class="coronaTopLingual" d="M21.2,52.8l5.7-5.2h0a13.56,13.56,0,0,0-19.1-.8L13,52.5A5.83,5.83,0,0,1,21.2,52.8Z" style="fill:#3535ed"/><path class="coronaTopDistal" d="M26.1,66.7a13.56,13.56,0,0,0,.8-19.1l-5.7,5.2a5.83,5.83,0,0,1-.4,8.2Z" style="fill:#3535ed"/><path class="coronaTopOclusial" d="M19.9,61.7A5.78,5.78,0,1,1,22,53.8,5.76,5.76,0,0,1,19.9,61.7Z" style="fill:#3535ed"/><path class="silant" d="M23.8,62.2a16.09,16.09,0,0,1-5.9,1.3c-3.3,0-4.8-1.2-4.8-2.7s1.2-2.4,4.5-3.3c4.4-1.1,6.5-2.9,6.5-5.1,0-2.9-3.1-5.3-8.4-5.3a15.66,15.66,0,0,0-6,1.1l1.1,2.4a13.11,13.11,0,0,1,5-1c2.6,0,4.1,1.2,4.1,2.5,0,1.5-1.5,2.2-4.7,3.1-4.2,1.2-6.4,2.7-6.4,5.4,0,3.2,3.4,5.4,9.2,5.4a19,19,0,0,0,6.9-1.2Z" style="fill:#3535ed"/><path class="crown" d="M21.8,7c3.5,8.7,8.3,17.8,6.4,24.8a6.14,6.14,0,0,1-1.5,2.6c-7.1,7.4-13.8,7.4-20.1-.1a6.73,6.73,0,0,1-.7-1.1C3,26.8,8.1,16.4,12,6.6a6.34,6.34,0,0,1,1.9-2.4c2.2-1.6,4.5-1.2,6.9,1.1A2.7,2.7,0,0,1,21.8,7Zm9.7,80.6a13.16,13.16,0,0,0-2.4-7.9c-8.4-7.5-15.3-9.4-19.5,0C7.5,83,7,87.7,7.7,93.2a58.48,58.48,0,0,0,3.4,11,11.73,11.73,0,0,0,1.9,3c5.8,6.4,10.4,5.9,14.2.4a8.86,8.86,0,0,0,.8-1.7A103.71,103.71,0,0,0,31.5,87.6ZM20.8,61,26,66.7a13.56,13.56,0,0,1-19.1-.8l5.7-5.2A5.83,5.83,0,0,0,20.8,61Zm-8.2-.3L6.9,65.9a13.56,13.56,0,0,1,.8-19.1l5.2,5.7a5.92,5.92,0,0,0-.3,8.2Zm.4-8.2L7.8,46.8a13.56,13.56,0,0,1,19.1.8h0l-5.7,5.2A5.83,5.83,0,0,0,13,52.5ZM20.8,61a5.83,5.83,0,0,0,.4-8.2l5.7-5.2a13.56,13.56,0,0,1-.8,19.1ZM22,53.8a5.78,5.78,0,1,0-2.1,7.9A5.76,5.76,0,0,0,22,53.8Z" style="fill:#fff;stroke:#111414;stroke-miterlimit:10;stroke-width:0.5px"/><path class="braces" d="M18.6,86.3h0V89a4.25,4.25,0,0,0-1.1-.2H16.3a3.55,3.55,0,0,0-1,.2V86.3h0a3.55,3.55,0,0,0,1,.2h1.2a2,2,0,0,0,1.1-.2M14,82.4c-.4.1-.7.4-.6.7v3.8H0v1.3H13.4V92a.64.64,0,0,0,.6.8h1.1a.76.76,0,0,0,.6-.8v-.5a.64.64,0,0,1,.6-.8h1.2a.77.77,0,0,1,.7.8v.6c-.1.4.2.7.6.8h1.1a.77.77,0,0,0,.7-.8V88.3H33.9V87H20.6V83.2a.77.77,0,0,0-.7-.8H18.7a.76.76,0,0,0-.6.8v.5a.77.77,0,0,1-.7.8H16.3c-.3,0-.6-.4-.6-.8v-.5c.1-.4-.2-.7-.6-.8Z"/><path class="gum" d="M33.9,105.8H28.3s-1.5,6.2-7.7,6.2-9.3-6-9.3-6H0" style="fill:none;stroke:#ffb900;stroke-linejoin:round;stroke-width:3px"/><path class="paradontit1" d="M33.9,105.7H31.4a4.65,4.65,0,0,0-4.2,2.7c-1.2,2.8-3.4,7.6-7.4,7.6-4.2,0-8.1-5.4-9.9-8.2A4.23,4.23,0,0,0,6,106H0" style="fill:none;stroke:#ff822e;stroke-linejoin:round;stroke-width:3px"/><path class="paradontit2" d="M33.9,105.6s-3.2,0-4.2,2.1c-1.8,4.1-3.6,12.7-10.8,11.7s-8.5-7.9-10.6-11.9C7.5,106,6.2,106,4.4,106H0" style="fill:none;stroke:#f9610d;stroke-linejoin:round;stroke-width:3px"/><path class="paradontit3" d="M33.9,105.6a13.19,13.19,0,0,0-2.7.3c-1,.2-3.1,17.7-11.4,17.7s-9.3-12.1-11.4-16.1c-.8-1.5-2.2-1.5-4-1.5H.1" style="fill:none;stroke:#f9610d;stroke-linejoin:round;stroke-width:3px"/><path class="paradontit4" d="M33.9,105.9c-1.7,0-3.2,1.7-3.7,3.6-1.7,7.1-2.8,18.2-11.1,18.2s-9-11.3-11-18.3A4.71,4.71,0,0,0,3.6,106H0" style="fill:none;stroke:#f75403;stroke-linejoin:round;stroke-width:3px"/><path class="periodontit" d="M27.4,173.5a4.5,4.5,0,0,1-9,0c0-4.2,1.8-4.1,4.5-4.5A4.3,4.3,0,0,1,27.4,173.5Z" style="fill:#3535ed"/></g></g></g></svg>