<svg xmlns="http://www.w3.org/2000/svg" viewBox="0 0 32.43 180.9"><title>34tooth</title><g class="Слой_2" data-name="Слой 2"><g class="Слой_1-2" data-name="Слой 1"><g class="_34" data-name="34"><path class="background" d="M32.43,0H0V180.8h32.4V0Z" style="fill:#9fdaff"/><path class="bone" d="M32.43,105.9H0v75h32.4v-75Z" style="fill:#de82a7"/><path class="bridge" d="M0,59.4v-4h32.4v4Zm0-29v4h32.4v-4Zm0,50v4h32.4v-4Z" style="fill:#3535ed"/><path class="root" d="M9.23,102.1l2.1,26.7a14.77,14.77,0,0,1,.1,2.1c0,9.5.2,18.6,4.6,22.9,1.8,2.5,3.3,3,4.4,1a5.37,5.37,0,0,0,.6-3.5c-1.6-10.3-.5-21.6,1.9-33.2l4.4-15.8" style="fill:#f4ecc8;stroke:#111414;stroke-miterlimit:10;stroke-width:0.25px"/><path class="rootCanal" d="M19,156c-.5,0-.9-.5-1.4-1.5-4.3-9.2-5.1-55.3-4.2-56.4.1,0,2.7-2.8,5.5-2.8,1.6,0,2.9.9,3.9,2.8-1,9.2-1.9,16-2.7,21.4-1.8,13-2.7,19-.5,36.1a.72.72,0,0,1-.6.4Zm-.1-60.4c1.5,0,2.8.9,3.8,2.7-1,9.2-1.9,16-2.7,21.4-1.8,13-2.7,19-.5,36.1-.2.1-.3.2-.5.2-.4,0-.8-.5-1-.9-4.3-7.5-5.3-54.5-4.5-56.7h0c.1-.2,2.7-2.8,5.4-2.8m0-.3c-2.8,0-5.5,2.8-5.5,2.8-1.2.1.1,58,5.6,58a1.08,1.08,0,0,0,.7-.3c-3.1-24.4-.1-26.3,3.2-57.6-1.2-2.2-2.6-2.9-4-2.9Z" style="fill:none"/><path class="implant" d="M25.13,140.7l-14,2a1.39,1.39,0,0,0,.7.8,15.23,15.23,0,0,0,12.2.1,2,2,0,0,0,1-1.6Zm0-4.1-14.4,2.1.1,2.5,14.3-2.1Zm.2-4.1-14.7,2.1.1,2.5,14.5-2.1Zm.1-3.9-14.9,2.1.1,2.5,14.8-2.1Zm.2-4.1-15.2,2.3.1,2.5,15-2.3Zm.2-4-15.6,2.3.1,2.5,15.3-2.3Zm.1-5.1-15.8,2.3.1,2.5,15.7-2.3v-2.5Zm.1-.7-16-.1.1,2.7L26,114.9Zm1.5-4.7h-.4L9,109.9h-.4v1.9a1.85,1.85,0,0,0,.2.7.91.91,0,0,0,.7.3h1.1l15,.1h1.1a1.08,1.08,0,0,0,1-1Zm.9-2.8V106h0a.94.94,0,0,0-1-1l-18.1-.1h0a1.08,1.08,0,0,0-1,1v1.2c0,.5.1.7.4.9.1,0,.2.1.4.1l18.1.1a.6.6,0,0,0,.4-.1,1.49,1.49,0,0,0,.4-.9Z" style="fill:#3535ed"/><path class="rootMusk" d="M9.23,102.1l2.1,26.7a14.77,14.77,0,0,1,.1,2.1c0,9.5.2,18.6,4.6,22.9,1.8,2.5,3.3,3,4.4,1a5.37,5.37,0,0,0,.6-3.5c-1.6-10.3-.5-21.6,1.9-33.2l4.4-15.8" style="fill:#f4ecc8;stroke:#111414;stroke-miterlimit:10;stroke-width:0.25px"/><path class="coronaLingual" d="M22.43,10c-4.1-2.1-7.8-2.2-11.1-.4a8.06,8.06,0,0,0-2.9,2.9c-2.9,4.9-5,9.8-4.9,14.6a9.43,9.43,0,0,0,2.4,6c6.9,7.6,13.8,7.5,20.6.8a5.82,5.82,0,0,0,1.9-3.9c.5-4.3-.7-10.1-3.8-17.3A3.59,3.59,0,0,0,22.43,10Z" style="fill:#fff;stroke:#111414;stroke-miterlimit:10;stroke-width:0.5px"/><path class="coronaLingualIncisalDistal" d="M28.43,30.6h-7.6v7.1a19.71,19.71,0,0,0,5.8-4.1A6.22,6.22,0,0,0,28.43,30.6Z" style="fill:#3535ed"/><path class="coronaLingualIncisalMiddle" d="M10.93,30.6v6.3a10.75,10.75,0,0,0,10,.8V30.6Z" style="fill:#3535ed"/><path class="coronaLingualIncisionMesial" d="M4.63,30.6a11.35,11.35,0,0,0,1.5,2.3,20.88,20.88,0,0,0,4.8,4.1V30.7Z" style="fill:#3535ed"/><path class="coronaLingualMiddleDistal" d="M26.53,16.9h-5.7V30.6h7.6c.1-.3.1-.5.2-.8Q29.23,24.7,26.53,16.9Z" style="fill:#3535ed"/><path class="coronaLingualMiddleMiddle" d="M20.83,16.9h-10V30.6h10Z" style="fill:#3535ed"/><path class="coronaLingualMiddleMesial" d="M6.23,16.9a22.92,22.92,0,0,0-2.4,9.9,8.49,8.49,0,0,0,.9,3.8H11V16.9Z" style="fill:#3535ed"/><path class="coronaLingualCervicalDistal" d="M24.83,12.4a5.08,5.08,0,0,0-2.4-2.6,11.11,11.11,0,0,0-1.6-.7v7.8h5.7C26,15.5,25.53,14,24.83,12.4Z" style="fill:#3535ed"/><path class="coronaLingualCervicalMiddle" d="M11.53,9.4a1,1,0,0,0-.5.4V17H21V9.2C17.43,7.7,14.23,7.8,11.53,9.4Z" style="fill:#3535ed"/><path class="coronaLingualCervicalMesial" d="M8.73,12.2c-.9,1.5-1.7,3.1-2.5,4.7H11V9.7A9.15,9.15,0,0,0,8.73,12.2Z" style="fill:#3535ed"/><path class="coronaLabial" d="M29.23,89.5a10.93,10.93,0,0,0-1.3-7.5c-7.6-10.2-14.7-11.1-21.2-.5Q4,86.15,5.83,92.6a52.43,52.43,0,0,0,3.3,9.4,9,9,0,0,0,1.5,1.9c4.7,4.1,9.2,5,13.5,2.5a6.81,6.81,0,0,0,3.2-4.2A65.93,65.93,0,0,0,29.23,89.5Z" style="fill:#fff;stroke:#111414;stroke-miterlimit:10;stroke-width:0.5px"/><path class="coronaLabialIncisalDistal" d="M20.93,75.3v4.5H26A18.37,18.37,0,0,0,20.93,75.3Z" style="fill:#3535ed"/><path class="coronaLabialIncisalMiddle" d="M11.73,75.8v3.9H21V75.2A8,8,0,0,0,11.73,75.8Z" style="fill:#3535ed"/><path class="coronaLabialIncisionMesial" d="M8,79.8h3.7V75.9A17.14,17.14,0,0,0,8,79.8Z" style="fill:#3535ed"/><path class="coronaLabialMiddleDistal" d="M27.93,82c-.6-.8-1.2-1.6-1.8-2.3h-5.2V98h7.3a61.27,61.27,0,0,0,1.1-8.6A11.39,11.39,0,0,0,27.93,82Z" style="fill:#3535ed"/><path class="coronaLabialMiddleMiddle" d="M20.93,79.7h-9.3V98h9.3Z" style="fill:#3535ed"/><path class="coronaLabialMiddleMesial" d="M8,79.7l-1.2,1.8q-2.7,4.65-.9,11.1a49.76,49.76,0,0,0,1.6,5.5h4.2V79.8L8,79.7Z" style="fill:#3535ed"/><path class="coronaLabialCervicalDistal" d="M20.93,98.1v9.5a9.08,9.08,0,0,0,3.1-1.2,6.81,6.81,0,0,0,3.2-4.2c.4-1.4.7-2.7,1-4.1Z" style="fill:#3535ed"/><path class="coronaLabialCervicalMiddle" d="M11.73,98v6.6c3.2,2.5,6.3,3.5,9.3,2.9V98Z" style="fill:#3535ed"/><path class="coronaLabialCervicalMesial" d="M7.53,98c.5,1.3,1.1,2.7,1.7,3.9a9,9,0,0,0,1.5,1.9,9,9,0,0,1,1,.9V98.1L7.53,98Z" style="fill:#3535ed"/><path class="veneer" d="M17.63,81.6c2.8-1,3.1-.9,4.9,1.5l1.2,1.6L23,82.8c-1.1-2.8-1-3.2,1.4-5L26,76.6l-1.9.7c-2.8,1-3.1.9-4.9-1.5L18,74.2l.7,1.9c1.1,2.8,1,3.2-1.4,5l-1.6,1.2ZM18.73,92c1.7-.6,1.8-.6,2.9.9l1.2,1.6-.6-1.8c-.6-1.7-.5-1.9.9-3l1.6-1.2-1.9.7c-1.6.6-1.8.6-2.9-.9l-1.2-1.6.7,1.9c.6,1.7.5,1.9-.9,3l-1.6,1.2Zm7.1-4.5c1.7-.6,1.8-.6,2.9.9l1.2,1.6-.7-1.9c-.6-1.7-.5-1.9.9-3l1.6-1.2-1.9.7c-1.6.6-1.8.5-2.9-.9l-1.2-1.6.7,1.9c.6,1.7.5,1.9-.9,3l-1.6,1.2Zm-18-5.6c1.8-.6,1.9-.6,3,.9L12,84.4l-.7-1.9c-.6-1.7-.5-1.9.9-3l1.6-1.2-1.9.7c-1.7.6-1.8.6-2.9-.9l-1.1-1.6.7,1.9c.6,1.7.5,1.9-.9,3l-1.6,1.2Zm-3,7.3c1.7-.6,1.8-.6,2.9.9l1.2,1.6-.6-1.8c-.6-1.7-.5-1.9.9-3l1.6-1.2-1.9.7c-1.6.6-1.8.6-2.9-.9l-1.2-1.6.7,1.9c.6,1.7.5,1.9-.9,3L3,90Z" style="fill:#3535ed"/><path class="coronaTop" d="M11.93,61.2l-5.7,5.2a13.56,13.56,0,0,0,19.1.8l-5.2-5.7A5.92,5.92,0,0,1,11.93,61.2Zm.1-.1a5.83,5.83,0,0,1,.3-8.2l-5.2-5.7a13.56,13.56,0,0,0-.8,19.1L12,61.1Zm8.5-7.9,5.7-5.2a13.56,13.56,0,0,0-19.1-.8l5.2,5.7A5.93,5.93,0,0,1,20.53,53.2Zm4.9,14a13.56,13.56,0,0,0,.8-19.1l-5.7,5.2a5.83,5.83,0,0,1-.4,8.2Zm-6.3-5a5.78,5.78,0,0,1-5.8-10,5.76,5.76,0,0,1,7.9,2.1A5.85,5.85,0,0,1,19.13,62.2Z" style="fill:#fff;stroke:#000;stroke-miterlimit:10"/><path class="coronaTopBuccal" d="M20.13,61.5l5.2,5.7a13.56,13.56,0,0,1-19.1-.8l5.7-5.2A5.92,5.92,0,0,0,20.13,61.5Z" style="fill:#3535ed"/><path class="coronaTopMedial" d="M12,61.1l-5.7,5.2a13.56,13.56,0,0,1,.8-19.1l5.2,5.7a5.83,5.83,0,0,0-.3,8.2Z" style="fill:#3535ed"/><path class="coronaTopLingual" d="M12.33,52.9l-5.2-5.7a13.56,13.56,0,0,1,19.1.8l-5.7,5.2A5.93,5.93,0,0,0,12.33,52.9Z" style="fill:#3535ed"/><path class="coronaTopDistal" d="M20.13,61.5a5.83,5.83,0,0,0,.4-8.2l5.7-5.2a13.56,13.56,0,0,1-.8,19.1Z" style="fill:#3535ed"/><path class="coronaTopOclusial" d="M21.23,54.3a5.76,5.76,0,0,0-7.9-2.1,5.78,5.78,0,0,0,5.8,10A5.85,5.85,0,0,0,21.23,54.3Z" style="fill:#3535ed"/><path class="silant" d="M24.23,65.4a19,19,0,0,1-6.9,1.2c-5.8,0-9.2-2.2-9.2-5.4,0-2.7,2.2-4.2,6.4-5.4,3.2-.9,4.7-1.6,4.7-3.1,0-1.3-1.5-2.5-4.1-2.5a13.11,13.11,0,0,0-5,1L9,48.8a15.66,15.66,0,0,1,6-1.1c5.3,0,8.4,2.4,8.4,5.3,0,2.2-2.1,4-6.5,5.1-3.3.9-4.5,1.8-4.5,3.3s1.5,2.7,4.8,2.7a16.09,16.09,0,0,0,5.9-1.3Z" style="fill:#3535ed"/><path class="crown" d="M24.63,12.7c3.1,7.2,4.3,13,3.8,17.3a5.82,5.82,0,0,1-1.9,3.9c-6.8,6.7-13.7,6.8-20.6-.8a9.43,9.43,0,0,1-2.4-6c-.1-4.8,2-9.7,4.9-14.6a8.06,8.06,0,0,1,2.9-2.9c3.3-1.8,7-1.7,11.1.4A3.59,3.59,0,0,1,24.63,12.7Zm4.6,76.8a10.93,10.93,0,0,0-1.3-7.5c-7.6-10.2-14.7-11.1-21.2-.5Q4,86.15,5.83,92.6a52.43,52.43,0,0,0,3.3,9.4,9,9,0,0,0,1.5,1.9c4.7,4.1,9.2,5,13.5,2.5a6.81,6.81,0,0,0,3.2-4.2A65.93,65.93,0,0,0,29.23,89.5Zm-9.1-28,5.2,5.7a13.56,13.56,0,0,1-19.1-.8l5.7-5.2A5.92,5.92,0,0,0,20.13,61.5ZM12,61.1l-5.7,5.2a13.56,13.56,0,0,1,.8-19.1l5.2,5.7a5.83,5.83,0,0,0-.3,8.2Zm.3-8.2-5.2-5.7a13.56,13.56,0,0,1,19.1.8l-5.7,5.2A5.93,5.93,0,0,0,12.33,52.9Zm7.8,8.6a5.83,5.83,0,0,0,.4-8.2l5.7-5.2a13.56,13.56,0,0,1-.8,19.1Zm1.1-7.2a5.76,5.76,0,0,0-7.9-2.1,5.78,5.78,0,0,0,5.8,10A5.85,5.85,0,0,0,21.23,54.3Z" style="fill:#fff;stroke:#111414;stroke-miterlimit:10;stroke-width:0.5px"/><path class="braces" d="M17.83,86.3h0V89a2,2,0,0,0-1.1-.2h-1.2a3.55,3.55,0,0,0-1,.2V86.3h0a3.55,3.55,0,0,0,1,.2h1.2a3.59,3.59,0,0,0,1.1-.2m-4.6-3.9a.64.64,0,0,0-.6.8V87H0v1.3h12.5v3.8c0,.4.3.8.6.8h1.1c.4-.1.7-.4.6-.8v-.6c0-.4.3-.8.6-.8h1.2a.77.77,0,0,1,.7.8V92a.76.76,0,0,0,.6.8H19a.64.64,0,0,0,.6-.8V88.2h12.6V86.9H19.63V83.1c0-.4-.3-.8-.6-.8h-1.1c-.4.1-.7.4-.6.8v.5a.77.77,0,0,1-.7.8h-1.1a.64.64,0,0,1-.6-.8v-.5a.76.76,0,0,0-.6-.8l-1.1.1Z"/><path class="gum" d="M0,105.6h11.5a10.5,10.5,0,0,0,6,2.6c5.5-.5,8-3,8-3h6.9" style="fill:none;stroke:#ffb900;stroke-linejoin:round;stroke-width:3px"/><path class="paradontit1" d="M0,105.6l7.6-.1a4.41,4.41,0,0,1,3.6,1.8,9.56,9.56,0,0,0,7.1,3.8h.6a7.64,7.64,0,0,0,5.7-3.8,4.44,4.44,0,0,1,3.8-2h4" style="fill:none;stroke:#ff822e;stroke-linejoin:round;stroke-width:3px"/><path class="paradontit2" d="M0,105.6h5.7c1.7,0,3.1.2,3.9,1.7,1.6,3,3.5,7.1,8.5,7.1s6.8-4.2,8.3-7a4.3,4.3,0,0,1,4-2.2h2" style="fill:none;stroke:#f9610d;stroke-linejoin:round;stroke-width:3px"/><path class="paradontit3" d="M0,105.7l5.7.1c1.7,0,3.2,0,4,1.5,1.6,3,1.3,11.1,8.3,11.1s7-8.2,8.5-11a4.15,4.15,0,0,1,4-2h1.9" style="fill:none;stroke:#f9610d;stroke-linejoin:round;stroke-width:3px"/><path class="paradontit4" d="M0,105.7h4.6A4.59,4.59,0,0,1,9,109.5c1.2,6,3.5,14,8.5,14s7.5-8.4,9.1-14.3c.5-2,2.2-3.9,4.3-3.9h1.5" style="fill:none;stroke:#f75403;stroke-linejoin:round;stroke-width:3px"/><path class="periodontit" d="M19.93,151a4.5,4.5,0,1,0,4.5,4.5A4.48,4.48,0,0,0,19.93,151Z" style="fill:#3535ed"/></g></g></g></svg>