<svg xmlns="http://www.w3.org/2000/svg" viewBox="0 0 32.4 180.9"><title>35tooth</title><g class="Слой_2" data-name="Слой 2"><g class="Слой_1-2" data-name="Слой 1"><g class="_35" data-name="35"><path class="background" d="M32.4,0H0V180.8H32.4Z" style="fill:#9fdaff"/><path class="bone" d="M32.4,105.9H0v75H32.4Z" style="fill:#de82a7"/><path class="bridge" d="M0,80.4H32.4v4H0Zm0-46H32.4v-4H0Zm0,25H32.4v-4H0Z" style="fill:#3535ed"/><path class="root" d="M6.1,98.1,9.7,130c1.2,12.6,3,22.6,6.1,25.3,3.1,3.4,4.9,3.7,4.6-.9a107.55,107.55,0,0,1,0-34.9l4.3-18.4" style="fill:#f4ecc8;stroke:#111414;stroke-miterlimit:10;stroke-width:0.25px"/><path class="rootCanal" d="M11.2,103.8c1.8,11.5,1.7,29,3.8,42.5A26.39,26.39,0,0,0,18.9,157c.2.3,1.7,1.4,1.8,1.1s-3.1-4.7-3.6-12.1c-.8-13.6,3-30.9,4.2-42.3C19.5,99,15,92.7,11.2,103.8Z" style="fill:#3535ed;stroke:#201600;stroke-miterlimit:10;stroke-width:0.25px"/><path class="implant" d="M23.6,140.6l-14,2a1.39,1.39,0,0,0,.7.8,15.23,15.23,0,0,0,12.2.1,2,2,0,0,0,1-1.6Zm0-4L9.2,138.8l.1,2.4,14.3-2Zm.2-4L9.1,134.8l.1,2.5,14.5-2.2Zm.1-4L9,130.8l.1,2.4L23.9,131Zm.2-4.1L8.9,126.8l.1,2.4L24,127Zm.2-4L8.7,122.8l.1,2.5L24.1,123Zm.1-5L8.6,117.8l.1,2.4,15.7-2.3Zm.1-.8-16-.1.1,2.6,15.9-2.3ZM26,110h-.4l-18.1-.1H7.1v1.9c0,.2.1.3.2.6a.91.91,0,0,0,.7.3H9.1l15,.1h1.1a.91.91,0,0,0,.7-.3.85.85,0,0,0,.2-.6Zm.9-2.8V106a.94.94,0,0,0-1-1l-18.1-.1h0a1.08,1.08,0,0,0-1,1v1.2c0,.5.1.7.4.9.1.1.2.1.4.1l18.1.1a.6.6,0,0,0,.4-.1,1.49,1.49,0,0,0,.4-.9Z" style="fill:#3535ed"/><path class="rootMusk" d="M6.1,98.1,9.7,130c1.2,12.6,3,22.6,6.1,25.3,3.1,3.4,4.9,3.7,4.6-.9a107.55,107.55,0,0,1,0-34.9l4.3-18.4" style="fill:#f4ecc8;stroke:#111414;stroke-miterlimit:10;stroke-width:0.25px"/><path class="coronaLingual" d="M21.2,10.9c-4-1.6-7.7-1.9-10.9-.7a5.48,5.48,0,0,0-3,2.8c-2.7,5.3-4,10.7-3.1,16.3a6,6,0,0,0,1.3,2.8c7.1,7.8,14,7.7,20.7,1.5a5.32,5.32,0,0,0,1.7-3.1c.8-4.5-1.3-10.3-3.4-16A5.6,5.6,0,0,0,21.2,10.9Z" style="fill:#fff;stroke:#111414;stroke-miterlimit:10;stroke-width:0.5px"/><path class="coronaLingualIncisalDistal" d="M27.7,30.9h-7v6.2a16.77,16.77,0,0,0,5.4-3.7A5.41,5.41,0,0,0,27.7,30.9Z" style="fill:#3535ed"/><path class="coronaLingualIncisalMiddle" d="M11,30.8v5.6a11,11,0,0,0,10,.7V30.9Z" style="fill:#3535ed"/><path class="coronaLingualIncisionMesial" d="M5,30.8a4.44,4.44,0,0,0,.8,1.1,22.6,22.6,0,0,0,5.3,4.4V30.8Z" style="fill:#3535ed"/><path class="coronaLingualMiddleDistal" d="M25.7,17.2H20.9V30.9h7c0-.2.1-.3.1-.5C28.8,26.6,27.4,22,25.7,17.2Z" style="fill:#3535ed"/><path class="coronaLingualMiddleMiddle" d="M21,17.2H11V30.9H21Z" style="fill:#3535ed"/><path class="coronaLingualMiddleMesial" d="M5.6,17.2a24.5,24.5,0,0,0-1.2,12A4.42,4.42,0,0,0,5,30.8h6.1V17.2Z" style="fill:#3535ed"/><path class="coronaLingualCervicalDistal" d="M24.6,14.5a6.5,6.5,0,0,0-3.5-3.6l-.3-.1v6.5h4.8C25.3,16.4,24.9,15.5,24.6,14.5Z" style="fill:#3535ed"/><path class="coronaLingualCervicalMiddle" d="M11,9.9v7.3H21V10.7C17.4,9.3,14,8.9,11,9.9Z" style="fill:#3535ed"/><path class="coronaLingualCervicalMesial" d="M10.6,10.1a5.48,5.48,0,0,0-3,2.8c-.7,1.4-1.3,2.8-1.9,4.3h5.4V9.9C11,10,10.8,10,10.6,10.1Z" style="fill:#3535ed"/><path class="coronaLabial" d="M28.2,90a12.93,12.93,0,0,0-1.3-8.2C19.8,71.2,12.5,71.4,5,80.9c-1.4,1.6-1.9,3.8-1.4,6.6a39.21,39.21,0,0,0,2.1,9.6,9.84,9.84,0,0,0,2,3.4c6.5,7.2,12,7.6,16.7,1.1A41.58,41.58,0,0,0,28.2,90Z" style="fill:#fff;stroke:#111414;stroke-miterlimit:10;stroke-width:0.5px"/><path class="coronaLabialIncisalDistal" d="M21.7,76.1v3.6h3.6A24.5,24.5,0,0,0,21.7,76.1Z" style="fill:#3535ed"/><path class="coronaLabialIncisalMiddle" d="M21.7,76.1c-3.3-2.5-6.6-2.9-10-1.2v4.8h10Z" style="fill:#3535ed"/><path class="coronaLabialIncisionMesial" d="M6,79.9h5.9V75.1A18.35,18.35,0,0,0,6,79.9Z" style="fill:#3535ed"/><path class="coronaLabialMiddleDistal" d="M26.8,81.8a19.08,19.08,0,0,0-1.5-2.1H21.7V98h4.2a45.21,45.21,0,0,0,2.2-8A12.93,12.93,0,0,0,26.8,81.8Z" style="fill:#3535ed"/><path class="coronaLabialMiddleMiddle" d="M21.7,79.7h-10V98h10Z" style="fill:#3535ed"/><path class="coronaLabialMiddleMesial" d="M6,79.7c-.3.4-.7.8-1,1.2-1.4,1.6-1.9,3.8-1.4,6.6a39.21,39.21,0,0,0,2.1,9.6,10.37,10.37,0,0,0,.4,1h5.7V79.8L6,79.7Z" style="fill:#3535ed"/><path class="coronaLabialCervicalDistal" d="M21.7,98.1v6.3a13.74,13.74,0,0,0,2.6-2.8,22.13,22.13,0,0,0,1.6-3.5Z" style="fill:#3535ed"/><path class="coronaLabialCervicalMiddle" d="M11.8,98.1v6.1c3.7,2.5,7,2.6,10,.2V98.1Z" style="fill:#3535ed"/><path class="coronaLabialCervicalMesial" d="M6.1,98.2a12.54,12.54,0,0,0,1.6,2.4,24.07,24.07,0,0,0,4.1,3.7V98.2Z" style="fill:#3535ed"/><path class="veneer" d="M16.2,80.9c2.8-1.1,3.1-1,4.9,1.4l1.2,1.6L21.6,82c-1.1-2.8-1-3.1,1.4-4.9l1.6-1.2-1.9.7c-2.8,1.1-3.1,1-4.9-1.4l-1.2-1.6.7,1.9c1.1,2.8,1,3.1-1.4,4.9l-1.6,1.2Zm1.1,10.5c1.7-.6,1.9-.5,3,.9l1.2,1.6L20.8,92c-.6-1.7-.5-1.9.9-3l1.6-1.2-1.9.7c-1.6.6-1.8.5-2.9-.9L17.3,86l.7,1.9c.6,1.7.5,1.9-.9,3l-1.6,1.2Zm7-4.6c1.6-.6,1.8-.5,2.9.9l1.2,1.6-.7-1.9c-.6-1.7-.5-1.9.9-3l1.6-1.2-1.9.7c-1.6.6-1.8.5-2.9-.9l-1.2-1.6.7,1.9c.6,1.7.5,1.9-.9,3l-1.6,1.2ZM6.4,81.2c1.7-.6,1.8-.5,2.9.9l1.2,1.6-.7-1.9c-.6-1.7-.5-1.9.9-3l1.6-1.2-1.9.7c-1.6.6-1.8.5-2.9-.9L6.4,75.8l.7,1.9c.6,1.7.5,1.9-.9,3L4.6,81.9Zm-3,7.4c1.6-.6,1.8-.5,2.9.9l1.2,1.6-.7-1.9c-.6-1.8-.5-1.9.9-3L9.3,85l-1.9.7c-1.6.6-1.8.5-2.9-.9L3.3,83.2,4,85.1c.6,1.8.5,1.9-.9,3L1.5,89.3Z" style="fill:#3535ed"/><path class="coronaTop" d="M12,60.7,6.3,65.9h0a13.56,13.56,0,0,0,19.1.8L20.2,61A5.92,5.92,0,0,1,12,60.7Zm0-.1a6,6,0,0,1,.3-8.3L7.1,46.7a13.56,13.56,0,0,0-.8,19.1L12,60.6Zm8.5-7.9,5.7-5.2a13.56,13.56,0,0,0-19.1-.8l5.2,5.7A5.83,5.83,0,0,1,20.5,52.7Zm5,14a13.56,13.56,0,0,0,.8-19.1l-5.7,5.2a5.83,5.83,0,0,1-.4,8.2Zm-6.5-5a5.78,5.78,0,1,1,2.1-7.9A5.76,5.76,0,0,1,19,61.7Z" style="fill:#fff;stroke:#000;stroke-miterlimit:10"/><path class="coronaTopBuccal" d="M20.2,61l5.2,5.7a13.56,13.56,0,0,1-19.1-.8h0L12,60.7A5.92,5.92,0,0,0,20.2,61Z" style="fill:#3535ed"/><path class="coronaTopMedial" d="M12,60.6,6.3,65.8a13.56,13.56,0,0,1,.8-19.1l5.2,5.6a6,6,0,0,0-.3,8.3Z" style="fill:#3535ed"/><path class="coronaTopLingual" d="M12.3,52.4,7.1,46.7a13.56,13.56,0,0,1,19.1.8l-5.7,5.2A5.83,5.83,0,0,0,12.3,52.4Z" style="fill:#3535ed"/><path class="coronaTopDistal" d="M20.2,61a5.83,5.83,0,0,0,.4-8.2l5.7-5.2a13.56,13.56,0,0,1-.8,19.1Z" style="fill:#3535ed"/><path class="coronaTopOclusial" d="M21.2,53.7a5.78,5.78,0,1,0-2.1,7.9A5.83,5.83,0,0,0,21.2,53.7Z" style="fill:#3535ed"/><path class="silant" d="M24.2,64.8A19,19,0,0,1,17.3,66c-5.8,0-9.2-2.2-9.2-5.4,0-2.7,2.2-4.2,6.4-5.4,3.2-.9,4.7-1.6,4.7-3.1,0-1.3-1.5-2.5-4.1-2.5a13.11,13.11,0,0,0-5,1L9,48.2a15.66,15.66,0,0,1,6-1.1c5.3,0,8.4,2.4,8.4,5.3,0,2.2-2.1,4-6.5,5.1-3.3.9-4.5,1.8-4.5,3.3s1.5,2.7,4.8,2.7a16.09,16.09,0,0,0,5.9-1.3Z" style="fill:#3535ed"/><path class="crown" d="M24.5,14.5c2.1,5.7,4.2,11.5,3.4,16a5.32,5.32,0,0,1-1.7,3.1c-6.7,6.2-13.6,6.3-20.7-1.5a6,6,0,0,1-1.3-2.8c-.9-5.6.4-11,3.1-16.3a5.48,5.48,0,0,1,3-2.8c3.2-1.2,6.9-.9,10.9.7A5.6,5.6,0,0,1,24.5,14.5ZM28.2,90a12.93,12.93,0,0,0-1.3-8.2C19.8,71.2,12.5,71.4,5,80.9c-1.4,1.6-1.9,3.8-1.4,6.6a39.21,39.21,0,0,0,2.1,9.6,9.84,9.84,0,0,0,2,3.4c6.5,7.2,12,7.6,16.7,1.1A41.58,41.58,0,0,0,28.2,90Zm-8-29,5.2,5.7a13.56,13.56,0,0,1-19.1-.8h0L12,60.7A5.92,5.92,0,0,0,20.2,61ZM12,60.6,6.3,65.8a13.56,13.56,0,0,1,.8-19.1l5.2,5.6a6,6,0,0,0-.3,8.3Zm.3-8.2L7.1,46.7a13.56,13.56,0,0,1,19.1.8l-5.7,5.2A5.83,5.83,0,0,0,12.3,52.4ZM20.2,61a5.83,5.83,0,0,0,.4-8.2l5.7-5.2a13.56,13.56,0,0,1-.8,19.1Zm.9-7.2A5.78,5.78,0,1,0,19,61.7,5.76,5.76,0,0,0,21.1,53.8Z" style="fill:#fff;stroke:#111414;stroke-miterlimit:10;stroke-width:0.5px"/><path class="braces" d="M17.8,86.3h0V89a2,2,0,0,0-1.1-.2H15.5a3.55,3.55,0,0,0-1,.2V86.3h0a3.55,3.55,0,0,0,1,.2h1.2a3.59,3.59,0,0,0,1.1-.2m-4.6-3.9a.64.64,0,0,0-.6.8L12.5,87H0v1.3H12.5l.1,3.8c0,.4.3.8.6.8h1.1c.4-.1.7-.4.6-.8v-.6a.77.77,0,0,1,.7-.8h1.2a.64.64,0,0,1,.6.8V92a.76.76,0,0,0,.6.8h1.1a.64.64,0,0,0,.6-.8V88.2H32.3V86.9H19.7V83.1c0-.4-.3-.8-.6-.8H18c-.4.1-.7.4-.6.8v.5c0,.4-.3.8-.6.8H15.7a.64.64,0,0,1-.6-.8v-.5a.76.76,0,0,0-.6-.8l-1.3.1Z"/><path class="gum" d="M0,105.3H11a10,10,0,0,0,5,1.7c5,0,7-1.7,7-1.7s4.4.2,9.4.2" style="fill:none;stroke:#ffb900;stroke-linejoin:round;stroke-width:3px"/><path class="paradontit1" d="M0,105.3H6.5c.8,0,5,4.5,8.9,5,3.3.4,6.3-3.1,6.6-3.5.8-1.1,2.2-1.3,3.6-1.3h6.8" style="fill:none;stroke:#ff822e;stroke-linejoin:round;stroke-width:3px"/><path class="paradontit2" d="M0,105.3H3.6A4.08,4.08,0,0,1,7.2,107c1.8,2.6,1.1,6.8,8.2,6.8s6.9-3.9,8.4-6.5c.8-1.4,2.2-1.8,3.8-1.8h4.8" style="fill:none;stroke:#f9610d;stroke-linejoin:round;stroke-width:3px"/><path class="paradontit3" d="M0,105.3H3.6A4.08,4.08,0,0,1,7.2,107c1.8,2.6-1,9.8,7,10.8s8.1-7.9,9.6-10.5c.8-1.4,2.2-1.8,3.8-1.8h4.8" style="fill:none;stroke:#f9610d;stroke-linejoin:round;stroke-width:3px"/><path class="paradontit4" d="M0,105.3H2.4c2.1,0,3.9,2.1,4.4,4.2,1.6,6.6,2.6,12.7,8.6,12.7s7.6-5.9,8.9-12.6c.4-2.1,2.2-4.1,4.3-4.1h3.8" style="fill:none;stroke:#f75403;stroke-linejoin:round;stroke-width:3px"/><path class="periodontit" d="M17.5,156a4.5,4.5,0,1,0,4.5,4.5A4.55,4.55,0,0,0,17.5,156Z" style="fill:#3535ed"/></g></g></g></svg>