<svg xmlns="http://www.w3.org/2000/svg" viewBox="0 0 46.52 180.9"><title>36tooth</title><g class="Слой_2" data-name="Слой 2"><g class="Слой_1-2" data-name="Слой 1"><g class="_36" data-name="36"><path class="background" d="M46.42,0H0V180.8h46.4Z" style="fill:#9fdaff"/><path class="bone" d="M46.42,105.9H0v75h46.4Z" style="fill:#de82a7"/><path class="bridge" d="M0,80.4h46.4v4H0v-4Zm0-46h46.4v-4H0v4Zm0,25h46.4v-4H0v4Z" style="fill:#3535ed"/><path class="root" d="M40.82,105.3c-2,7.2.6,10.1,2.1,26.2s-.1,17.9-.1,27.1c-.5,5.5-2.2,6.6-4.9,4.1-3.8-5.1-2-11.5-2.8-19a48.75,48.75,0,0,0-9.8-23c-1.6-1.8-3.1-2.4-4.7-1.3-4,1.8-5.3,6.2-4.4,13,.1,9.4,1.4,16.8,4.2,21.9a14,14,0,0,1,1.4,3.9c.5,3.1-.4,4-3.6,1.6-6.2-3.1-9-11.5-10.7-21.6a41,41,0,0,1-.6-8.6c.4-10.5.5-20.4-.9-26.1" style="fill:#f4ecc8;stroke:#111414;stroke-miterlimit:10;stroke-width:0.25px"/><path class="rootCanal" d="M20.82,161.4c-2.2.8-10-16.2-10.3-25.9-1.4-9.4-.5-26,1.7-32.2,12.9,1.2,19.2.2,22,.3,0,0,3.3,14.5,6.2,32.3,2.3,14.1.1,27.5-.7,27.8s.1-13.2-2.8-27.2c-3-14.6-8.5-29.2-11.5-30.3-5.9-2.2-18.5,13.7-7.9,46.7C18,155.1,21.82,161,20.82,161.4Z" style="fill:#3535ed"/><path class="implant" d="M31.52,140.6l-14,2a1.55,1.55,0,0,0,.8.8,15.23,15.23,0,0,0,12.2.1,1.46,1.46,0,0,0,.9-1.5Zm0-3.9-14.4,2.1.1,2.4,14.3-2.1Zm.2-4-14.6,2.1.1,2.4,14.5-2.1Zm.2-4.2L17,130.7l.1,2.4,14.7-2.1Zm.2-3.9-15.2,2.2.1,2.4L32,127Zm.2-4-15.5,2.2.1,2.4,15.3-2.2Zm.2-5.2-15.8,2.3.1,2.4,15.6-2.3Zm0-.7-16-.1.1,2.6,15.9-2.3Zm1.7-4.7h-.5l-18.1-.1h-.5v1.9a1.42,1.42,0,0,0,.2.6.91.91,0,0,0,.8.4h1l15,.1h1c.6,0,.9-.4.9-1Zm.4-4.1a.92.92,0,0,0-.9-1l-18.1-.1c-.6,0-.9.4-.9,1v1a1.05,1.05,0,0,0,.5.9c.2.1.3.2.5.2l18.1.1a.9.9,0,0,0,.5-.1.89.89,0,0,0,.5-.8C34.62,107.1,34.62,105.9,34.62,105.9Z" style="fill:#3535ed"/><path class="rootMusk" d="M40.82,105.3c-2,7.2.6,10.1,2.1,26.2s-.1,17.9-.1,27.1c-.5,5.5-2.2,6.6-4.9,4.1-3.8-5.1-2-11.5-2.8-19a48.75,48.75,0,0,0-9.8-23c-1.6-1.8-3.1-2.4-4.7-1.3-4,1.8-5.3,6.2-4.4,13,.1,9.4,1.4,16.8,4.2,21.9a14,14,0,0,1,1.4,3.9c.5,3.1-.4,4-3.6,1.6-6.2-3.1-9-11.5-10.7-21.6a41,41,0,0,1-.6-8.6c.4-10.5.5-20.4-.9-26.1" style="fill:#f4ecc8;stroke:#111414;stroke-miterlimit:10;stroke-width:0.25px"/><path class="coronaLingual" d="M42.32,15.9a9.68,9.68,0,0,0-1.8-3.1,5.41,5.41,0,0,0-3.2-1.8,75.87,75.87,0,0,0-27.7-.6l-1.8,1a7.38,7.38,0,0,0-3.5,4.4,47.37,47.37,0,0,0-2,9.8c.7,12.2,7.2,12.7,15.1,10.6a8.6,8.6,0,0,1,8.5.4c6.7,3.2,11.1,2.4,15.3-1.7,1-1,2.6-2.5,2.7-4A41.74,41.74,0,0,0,42.32,15.9Z" style="fill:#fff;stroke:#111414;stroke-miterlimit:10;stroke-width:0.5px"/><path class="coronaLingualIncisalDistal" d="M35.32,31v7.1a12.28,12.28,0,0,0,5.9-3.5c1-1,2.4-2.2,2.6-3.6Z" style="fill:#3535ed"/><path class="coronaLingualIncisalMiddle" d="M15.42,31v5.5a16,16,0,0,0,2.1-.5,8.6,8.6,0,0,1,8.5.4c3.7,1.8,6.8,2.3,9.4,1.7V31Z" style="fill:#3535ed"/><path class="coronaLingualIncisionMesial" d="M3.42,31c1.9,5.9,6.5,6.7,12,5.5V31Z" style="fill:#3535ed"/><path class="coronaLingualMiddleDistal" d="M42.82,17.3h-7.5V31h8.6c0-.1.1-.2.1-.4A49.59,49.59,0,0,0,42.82,17.3Z" style="fill:#3535ed"/><path class="coronaLingualMiddleMiddle" d="M35.32,17.3h-20V31h20Z" style="fill:#3535ed"/><path class="coronaLingualMiddleMesial" d="M4.12,17.3a52.71,52.71,0,0,0-1.5,8.1,26.18,26.18,0,0,0,.9,5.6h12V17.3Z" style="fill:#3535ed"/><path class="coronaLingualCervicalDistal" d="M42.32,15.8a9.68,9.68,0,0,0-1.8-3.1,5.41,5.41,0,0,0-3.2-1.8l-2.1-.4v6.8h7.5A4.19,4.19,0,0,0,42.32,15.8Z" style="fill:#3535ed"/><path class="coronaLingualCervicalMiddle" d="M15.42,9.5v7.8h20V10.5A79,79,0,0,0,15.42,9.5Z" style="fill:#3535ed"/><path class="coronaLingualCervicalMesial" d="M9.82,10.2,8,11.2a7,7,0,0,0-3.5,4.4c-.2.6-.3,1.1-.5,1.7h11.5V9.5C13.52,9.7,11.62,9.9,9.82,10.2Z" style="fill:#3535ed"/><path class="coronaLabial" d="M45.42,86.6c.6-5.5-1-9.5-5.7-11.5a19.68,19.68,0,0,0-12.9.4,6,6,0,0,1-6.2.5c-5-2.6-9.8-3.5-14.4-1.5A6.76,6.76,0,0,0,2.42,80a56.88,56.88,0,0,0,1.7,19.7,7.94,7.94,0,0,0,.6,2.2,5.38,5.38,0,0,0,6,3.1,16.93,16.93,0,0,1,5.5-.1,10.6,10.6,0,0,1,4.5,1.6c2.5,1.6,5.3,1.3,8.2-.2a8.49,8.49,0,0,1,3.8-.9h5.7c2,.2,3.5-1.1,4.7-3.4A43.58,43.58,0,0,0,45.42,86.6Z" style="fill:#fff;stroke:#111414;stroke-miterlimit:10;stroke-width:0.5px"/><path class="coronaLabialIncisalDistal" d="M39.72,75.1a19.85,19.85,0,0,0-6.9-.9v5.5h11.9A9.39,9.39,0,0,0,39.72,75.1Z" style="fill:#3535ed"/><path class="coronaLabialIncisalMiddle" d="M27,75.6a6,6,0,0,1-6.2.5A21.62,21.62,0,0,0,13,73.6v6.1H33V74.2A18.85,18.85,0,0,0,27,75.6Z" style="fill:#3535ed"/><path class="coronaLabialIncisionMesial" d="M6.42,74.6a6.75,6.75,0,0,0-3.7,5.1H13V73.6A13.68,13.68,0,0,0,6.42,74.6Z" style="fill:#3535ed"/><path class="coronaLabialMiddleDistal" d="M44.72,79.7H32.92V98h11.4a49.3,49.3,0,0,0,1.1-11.5A13.27,13.27,0,0,0,44.72,79.7Z" style="fill:#3535ed"/><path class="coronaLabialMiddleMiddle" d="M32.92,79.7h-20V98h20Z" style="fill:#3535ed"/><path class="coronaLabialMiddleMesial" d="M2.82,79.7a.37.37,0,0,1-.1.3A57.43,57.43,0,0,0,4,98h9V79.7Z" style="fill:#3535ed"/><path class="coronaLabialCervicalDistal" d="M32.92,98.1v7.4h5.7c2,.2,3.5-1.1,4.7-3.4.4-1.3.8-2.7,1.1-4Z" style="fill:#3535ed"/><path class="coronaLabialCervicalMiddle" d="M13,98.1v6.8a20.48,20.48,0,0,1,3.5.1,10.6,10.6,0,0,1,4.5,1.6c2.5,1.6,5.3,1.3,8.2-.2a8.49,8.49,0,0,1,3.8-.9h0V98.1Z" style="fill:#3535ed"/><path class="coronaLabialCervicalMesial" d="M4,98.1c.1.6.3,1.1.4,1.7A7.94,7.94,0,0,0,5,102a5.38,5.38,0,0,0,6,3.1,13.55,13.55,0,0,1,2-.2V98.1Z" style="fill:#3535ed"/><path class="veneer" d="M26.32,81.8c3.1-1.2,3.5-1,5.5,1.6l1.3,1.8-.8-2.1c-1.2-3.1-1.1-3.5,1.6-5.5l1.8-1.3-2.1.8c-3.1,1.2-3.5,1-5.5-1.6l-1.3-1.8.8,2.1c1.2,3.1,1.1,3.5-1.6,5.5l-1.7,1.3Zm1.4,11.8c1.9-.7,2.1-.6,3.3,1l1.3,1.8-.8-2.1c-.7-1.9-.6-2.1,1-3.3l1.8-1.3-2.1.8c-1.9.7-2.1.6-3.3-1l-1.3-1.8.8,2.1c.7,1.9.6,2.1-1,3.3l-1.8,1.3Zm11.2-2.8c1.9-.7,2.1-.6,3.3,1l1.3,1.8-.8-2.1c-.7-1.9-.6-2.1,1-3.3l1.8-1.3-2.1.8c-1.9.7-2.1.6-3.3-1l-1.3-1.8.8,2.1c.7,1.9.6,2.1-1,3.3l-1.8,1.3Zm-23.6-8.7c1.9-.7,2.1-.6,3.3,1l1.3,1.8-.7-2.1c-.7-1.9-.6-2.1,1-3.3L22,78.2l-2.1.8c-1.9.7-2.1.6-3.3-1l-1.3-1.8.8,2.1c.7,1.9.6,2.1-1,3.3l-1.8,1.3ZM12,90.6c1.9-.7,2.1-.6,3.3,1l1.3,1.8-.8-2.1c-.7-1.9-.6-2.1,1-3.3l1.8-1.3-2.1.8c-1.9.7-2.1.6-3.3-1l-1.3-1.8.8,2.1c.7,1.9.6,2.1-1,3.3l-1.8,1.3Z" style="fill:#3535ed"/><path class="coronaTop" d="M19,60.6l-5.7,5.2h0a13.56,13.56,0,0,0,19.1.8l-5.2-5.7A5.83,5.83,0,0,1,19,60.6Zm0,0a5.83,5.83,0,0,1,.3-8.2l-5.2-5.7a13.56,13.56,0,0,0-.8,19.1L19,60.6Zm8.5-7.9,5.7-5.2a13.56,13.56,0,0,0-19.1-.8l5.2,5.7A5.83,5.83,0,0,1,27.52,52.7Zm4.9,13.9a13.56,13.56,0,0,0,.8-19.1l-5.7,5.2a5.74,5.74,0,0,1-.3,8.2Zm-3.2-9.9a5.8,5.8,0,1,1-5.8-5.8A5.8,5.8,0,0,1,29.22,56.7Z" style="fill:#fff;stroke:#000;stroke-miterlimit:10"/><path class="coronaTopBuccal" d="M27.22,60.9l5.2,5.7a13.56,13.56,0,0,1-19.1-.8h0L19,60.6A5.83,5.83,0,0,0,27.22,60.9Z" style="fill:#3535ed"/><path class="coronaTopMedial" d="M19,60.6l-5.7,5.2a13.56,13.56,0,0,1,.8-19.1l5.2,5.7a5.83,5.83,0,0,0-.3,8.2Z" style="fill:#3535ed"/><path class="coronaTopLingual" d="M19.32,52.4l-5.2-5.7a13.56,13.56,0,0,1,19.1.8l-5.7,5.2A5.83,5.83,0,0,0,19.32,52.4Z" style="fill:#3535ed"/><path class="coronaTopDistal" d="M27.22,60.9a5.74,5.74,0,0,0,.3-8.2l5.7-5.2a13.56,13.56,0,0,1-.8,19.1Z" style="fill:#3535ed"/><path class="coronaTopOclusial" d="M23.22,50.8A5.8,5.8,0,1,0,29,56.6,5.8,5.8,0,0,0,23.22,50.8Z" style="fill:#3535ed"/><path class="silant" d="M31.22,64.8a19,19,0,0,1-6.9,1.2c-5.8,0-9.2-2.2-9.2-5.4,0-2.7,2.2-4.2,6.4-5.4,3.2-.9,4.7-1.6,4.7-3.1,0-1.3-1.5-2.5-4.1-2.5a13.11,13.11,0,0,0-5,1L16,48.2a15.66,15.66,0,0,1,6-1.1c5.3,0,8.4,2.4,8.4,5.3,0,2.2-2.1,4-6.5,5.1-3.3.9-4.5,1.8-4.5,3.3s1.5,2.7,4.8,2.7a16.09,16.09,0,0,0,5.9-1.3Z" style="fill:#3535ed"/><path class="crown" d="M43.92,30.9c-.1,1.5-1.7,3-2.7,4-4.2,4.1-8.6,4.9-15.3,1.7a8.6,8.6,0,0,0-8.5-.4C9.52,38.3,3,37.8,2.32,25.6a47.37,47.37,0,0,1,2-9.8,7.38,7.38,0,0,1,3.5-4.4l1.8-1a75.87,75.87,0,0,1,27.7.6,5.41,5.41,0,0,1,3.2,1.8,9.68,9.68,0,0,1,1.8,3.1A41.74,41.74,0,0,1,43.92,30.9Zm1.5,55.7c.6-5.5-1-9.5-5.7-11.5a19.68,19.68,0,0,0-12.9.4,6,6,0,0,1-6.2.5c-5-2.6-9.8-3.5-14.4-1.5A6.76,6.76,0,0,0,2.42,80a56.88,56.88,0,0,0,1.7,19.7,7.94,7.94,0,0,0,.6,2.2,5.38,5.38,0,0,0,6,3.1,16.93,16.93,0,0,1,5.5-.1,10.6,10.6,0,0,1,4.5,1.6c2.5,1.6,5.3,1.3,8.2-.2a8.49,8.49,0,0,1,3.8-.9h5.7c2,.2,3.5-1.1,4.7-3.4A43.58,43.58,0,0,0,45.42,86.6ZM27.22,60.9l5.2,5.7a13.56,13.56,0,0,1-19.1-.8h0L19,60.6A5.83,5.83,0,0,0,27.22,60.9ZM19,60.6l-5.7,5.2a13.56,13.56,0,0,1,.8-19.1l5.2,5.7a5.83,5.83,0,0,0-.3,8.2Zm.3-8.2-5.2-5.7a13.56,13.56,0,0,1,19.1.8l-5.7,5.2A5.83,5.83,0,0,0,19.32,52.4Zm7.9,8.5a5.74,5.74,0,0,0,.3-8.2l5.7-5.2a13.56,13.56,0,0,1-.8,19.1Zm-3.8-10a5.8,5.8,0,1,0,5.8,5.8A5.8,5.8,0,0,0,23.42,50.9Z" style="fill:#fff;stroke:#111414;stroke-miterlimit:10;stroke-width:0.5px"/><path class="braces" d="M24.82,86.3h0V89a2,2,0,0,0-1.1-.2h-1.2a3.55,3.55,0,0,0-1,.2V86.3h0a3.55,3.55,0,0,0,1,.2h1.2a3.59,3.59,0,0,0,1.1-.2m-4.6-3.9a.64.64,0,0,0-.6.8V87H0v1.3h19.5v3.8a.77.77,0,0,0,.7.8h1.1c.4-.1.7-.4.6-.8v-.6c0-.4.3-.8.6-.8h1.2a.64.64,0,0,1,.6.8V92a.76.76,0,0,0,.6.8H26a.64.64,0,0,0,.6-.8V88.2h19.6V86.9H26.62V83.1c0-.4-.3-.8-.6-.8h-1.1c-.4.1-.7.4-.6.8v.5c0,.4-.3.8-.6.8h-1.1a.64.64,0,0,1-.6-.8v-.5a.76.76,0,0,0-.6-.8l-1.2.1Z"/><path class="gum" d="M0,105.5c2.8,0,5.7,0,8-.1,6.5-.3,8.5-.3,16,3.5,10.5-4.8,16.5-3.5,16.5-3.5a55.77,55.77,0,0,1,6-.3" style="fill:none;stroke:#ffb900;stroke-linejoin:round;stroke-width:3px"/><path class="paradontit1" d="M0,105.5l8-.1c1.5,0,3.1,6.4,16.6,6.9,6.6.4,12.4-4.7,14.8-6.4a4.2,4.2,0,0,1,2.6-.8h4.5" style="fill:none;stroke:#ff822e;stroke-linejoin:round;stroke-width:3px"/><path class="paradontit2" d="M0,105.5h8.3c1.5,0,2.7,9.9,16.2,10.4,6.4.4,12.3-6.4,14.8-9.3a4.48,4.48,0,0,1,3.4-1.5h3.8" style="fill:none;stroke:#f9610d;stroke-linejoin:round;stroke-width:3px"/><path class="paradontit3" d="M0,105.5l8-.1c1.5,0,3.3,13.5,16.8,14,9.8.1,11.9-9.9,14.4-12.8a4.48,4.48,0,0,1,3.4-1.5h3.9" style="fill:none;stroke:#f9610d;stroke-linejoin:round;stroke-width:3px"/><path class="paradontit4" d="M0,105.5H8c1.5,0,.4,17.4,15.4,17.4s13.3-10,15.9-15a4.88,4.88,0,0,1,4-2.8h3.2" style="fill:none;stroke:#f75403;stroke-linejoin:round;stroke-width:3px"/><path class="periodontit" d="M45.42,166.5a4.5,4.5,0,1,1-4.5-4.5A4.48,4.48,0,0,1,45.42,166.5Zm-20.9-3A4.5,4.5,0,1,1,20,159,4.55,4.55,0,0,1,24.52,163.5Z" style="fill:#3535ed"/></g></g></g></svg>