<svg xmlns="http://www.w3.org/2000/svg" viewBox="0 0 44.54 180.9"><title>37tooth</title><g class="Слой_2" data-name="Слой 2"><g class="Слой_1-2" data-name="Слой 1"><g class="_37" data-name="37"><path class="background" d="M44.5,0H.1V180.8H44.5Z" style="fill:#9fdaff"/><path class="bone" d="M44.5,105.9H.1v75H44.5Z" style="fill:#de82a7"/><path class="bridge" d="M.1,80.4H44.5v4H.1Zm0-46H44.5v-4H.1Zm0,25H44.5v-4H.1Z" style="fill:#3535ed"/><path class="root" d="M36.7,104.5a92.4,92.4,0,0,0,2.1,24.6l2.8,21.5a19.27,19.27,0,0,1,.1,2.4c-.3,5.2-1.6,5.9-3.5,4.2a7.6,7.6,0,0,1-2-3.6c-2.9-12.5-6.8-23.7-11.9-33.2-1.3-1.3-2.6-1.4-3.7-.8a4,4,0,0,0-2,3.4,56.62,56.62,0,0,0,3.9,24.1,10.85,10.85,0,0,1,.8,4.7c-.2,3.9-2,3.5-4.6.9C10.9,142.5,7,127.5,7.5,107" style="fill:#f4ecc8;stroke:#111414;stroke-miterlimit:10;stroke-width:0.25px"/><path class="rootCanal" d="M20.7,153.4c-3.6-5.2-13.7-34.1-8.1-49.9,7.6-.2,11.3,0,19.8-.1,0,0,8.9,50.6,8.1,52.6-1,2.5-3.8-12.7-7.6-25.6-3-10.2-6.9-18.4-9-19.2-4.7-1.9-15.5,1.1-1.8,42.6C22.9,155.7,21.4,154.3,20.7,153.4Z" style="fill:#3535ed"/><path class="implant" d="M29.5,140.7l-14,2a1.55,1.55,0,0,0,.8.8,15.23,15.23,0,0,0,12.2.1,1.7,1.7,0,0,0,.9-1.6Zm.1-4.1-14.5,2.1.1,2.4L29.5,139Zm.1-3.9L15,134.8l.1,2.4L29.7,135Zm.1-4.1-14.9,2.2.1,2.4L29.8,131v-2.4Zm.3-4-15.2,2.2.1,2.4L30,127Zm.2-4.1-15.5,2.3.1,2.4L30.2,123Zm.1-5-15.8,2.3.1,2.4,15.6-2.3Zm.1-.7-16-.1.1,2.6L30.5,115Zm1.6-4.6h-.5L13.5,110H13v1.9a.92.92,0,0,0,.9,1h1l15,.1H31a1.23,1.23,0,0,0,.8-.4,1.42,1.42,0,0,0,.2-.6l.1-1.8Zm.5-4.2a.92.92,0,0,0-.9-1l-18.1-.2c-.6,0-.9.4-.9,1V107a1.05,1.05,0,0,0,.5.9.76.76,0,0,0,.5.2l18.1.1a.9.9,0,0,0,.5-.1.89.89,0,0,0,.5-.8V106Z" style="fill:#3535ed"/><path class="rootMusk" d="M36.7,104.5a92.4,92.4,0,0,0,2.1,24.6l2.8,21.5a19.27,19.27,0,0,1,.1,2.4c-.3,5.2-1.6,5.9-3.5,4.2a7.6,7.6,0,0,1-2-3.6c-2.9-12.5-6.8-23.7-11.9-33.2-1.3-1.3-2.6-1.4-3.7-.8a4,4,0,0,0-2,3.4,56.62,56.62,0,0,0,3.9,24.1,10.85,10.85,0,0,1,.8,4.7c-.2,3.9-2,3.5-4.6.9C10.9,142.5,7,127.5,7.5,107" style="fill:#f4ecc8;stroke:#111414;stroke-miterlimit:10;stroke-width:0.25px"/><path class="coronaLingual" d="M39.5,15.3a67,67,0,0,1,1.8,10.9,13.54,13.54,0,0,1-1.1,7.2c-3,6.4-9,5.1-16.5.5a3.82,3.82,0,0,0-5.1,0c-3.7,4.3-8,4.8-13.1-.3a8.9,8.9,0,0,1-2.6-5.8c-.1-1.7.4-11.2.9-12.9a4.59,4.59,0,0,1,3-3.2c10-3.4,20.1-3,30.4.7A4.27,4.27,0,0,1,39.5,15.3Z" style="fill:#fff;stroke:#111414;stroke-miterlimit:10;stroke-width:0.5px"/><path class="coronaLingualIncisalDistal" d="M3.5,30.6a9.23,9.23,0,0,0,1.9,2.8,13.08,13.08,0,0,0,5.2,3.4V30.6Z" style="fill:#3535ed"/><path class="coronaLingualIncisalMiddle" d="M10.6,30.6v6.2c3,.9,5.6-.3,8-3.1a3.82,3.82,0,0,1,5.1,0,25,25,0,0,0,8.2,3.6V30.5Z" style="fill:#3535ed"/><path class="coronaLingualIncisionMesial" d="M31.8,30.5v6.8c3.6.7,6.5-.3,8.3-4.1a11.42,11.42,0,0,0,.9-2.6Z" style="fill:#3535ed"/><path class="coronaLingualMiddleDistal" d="M41.2,26a71.55,71.55,0,0,0-1.4-9.1h-8V30.6h9.1A11.82,11.82,0,0,0,41.2,26Z" style="fill:#3535ed"/><path class="coronaLingualMiddleMiddle" d="M31.8,17H10.5V30.7H31.8Z" style="fill:#3535ed"/><path class="coronaLingualMiddleMesial" d="M3.3,17c-.4,3.6-.5,7.1-.6,10.7a10.88,10.88,0,0,0,.7,3h7.2V17Z" style="fill:#3535ed"/><path class="coronaLingualCervicalDistal" d="M39.5,15.2A4.06,4.06,0,0,0,37,12.3a51.65,51.65,0,0,0-5.2-1.6V17h8Z" style="fill:#3535ed"/><path class="coronaLingualCervicalMiddle" d="M12.6,30.4V37H33.8V30.7A42.3,42.3,0,0,0,12.6,30.4Z" style="fill:#3535ed"/><path class="coronaLingualCervicalMesial" d="M6.7,11.7a4.59,4.59,0,0,0-3,3.2,8.33,8.33,0,0,0-.3,2.2h7.3V10.6C9.4,10.9,8.1,11.3,6.7,11.7Z" style="fill:#3535ed"/><path class="coronaLabial" d="M39,81.2c-2.7-4.7-7.6-6.3-15.1-4.1-2,1.4-3.8,1.5-5.4,0-3.6-1.9-6.9-2.7-9.8-1.8a7.91,7.91,0,0,0-5.1,6.2,35.73,35.73,0,0,0,.1,14.2l2.7,8.4a6.39,6.39,0,0,0,.8,1.9,2.78,2.78,0,0,0,3.6,1.2c.1-.1.2-.1.3-.2,2.9-1.9,5.8-2.7,8.8-.3,1.1,1.1,2.7,1.1,4.6,0,2.8-2.5,5.5-3.4,8.1-2.1a4.13,4.13,0,0,0,3.6.2,3.75,3.75,0,0,0,1.9-2.2,43.56,43.56,0,0,0,2.6-14.3A13.8,13.8,0,0,0,39,81.2Z" style="fill:#fff;stroke:#111414;stroke-miterlimit:10;stroke-width:0.5px"/><path class="coronaLabialIncisalDistal" d="M31.8,76.3v3.4H38A9.2,9.2,0,0,0,31.8,76.3Z" style="fill:#3535ed"/><path class="coronaLabialIncisalMiddle" d="M23.9,77.2c-2,1.4-3.8,1.5-5.4,0a15.94,15.94,0,0,0-8-2.1v4.7H31.8V76.4A16.49,16.49,0,0,0,23.9,77.2Z" style="fill:#3535ed"/><path class="coronaLabialIncisionMesial" d="M8.7,75.4a7.27,7.27,0,0,0-4.5,4.4h6.4V75.1A6.28,6.28,0,0,0,8.7,75.4Z" style="fill:#3535ed"/><path class="coronaLabialMiddleDistal" d="M39,81.2a13,13,0,0,0-1-1.5H31.8V98h7.5a52.51,52.51,0,0,0,1.2-9.7A11.91,11.91,0,0,0,39,81.2Z" style="fill:#3535ed"/><path class="coronaLabialMiddleMiddle" d="M31.8,79.7H10.5V98H31.8Z" style="fill:#3535ed"/><path class="coronaLabialMiddleMesial" d="M4.2,79.7c-.2.6-.4,1.2-.6,1.9a35.73,35.73,0,0,0,.1,14.2l.7,2.3h6.2V79.8H4.2Z" style="fill:#3535ed"/><path class="coronaLabialCervicalDistal" d="M31.8,98.1v6.3c.2.1.5.2.7.3a4.13,4.13,0,0,0,3.6.2,3.75,3.75,0,0,0,1.9-2.2,35,35,0,0,0,1.4-4.6Z" style="fill:#3535ed"/><path class="coronaLabialCervicalMiddle" d="M10.6,98.1v9.3l.6-.3c2.9-1.9,5.8-2.7,8.8-.3,1.1,1.1,2.7,1.1,4.6,0,2.6-2.3,5.1-3.2,7.4-2.4V98.1Z" style="fill:#3535ed"/><path class="coronaLabialCervicalMesial" d="M4.5,98.2l2,6.1a6.39,6.39,0,0,0,.8,1.9,2.63,2.63,0,0,0,3.3,1.3V98.2Z" style="fill:#3535ed"/><path class="veneer" d="M22,82.5c3.1-1.2,3.5-1.1,5.5,1.6l1.4,1.8-.8-2.1c-1.2-3.2-1.1-3.6,1.6-5.6l1.8-1.4-2.1.8c-3.1,1.2-3.5,1.1-5.5-1.6l-1.3-1.8.8,2.1c1.2,3.2,1.1,3.6-1.6,5.6L20,83.2Zm1.4,11.8c1.9-.7,2.1-.6,3.3,1L28,97.1,27.2,95c-.7-1.9-.6-2.1,1-3.3L30,90.3l-2.1.8c-1.9.7-2.1.6-3.3-1l-1.3-1.8.8,2.1c.7,1.9.6,2.1-1,3.3L21.3,95Zm11.2-2.9c1.9-.7,2.1-.6,3.3,1l1.3,1.8-.8-2.1c-.7-1.9-.6-2.1,1-3.3l1.8-1.3-2.1.8c-1.9.7-2.1.6-3.3-1l-1.3-1.8.8,2.1c.7,1.9.6,2.1-1,3.3l-1.8,1.3ZM11.1,82.8c1.9-.7,2.1-.6,3.3,1l1.3,1.8-.8-2.1c-.7-1.9-.6-2.1,1-3.3l1.8-1.4-2.1.8c-1.9.7-2.1.6-3.3-1L11,76.8l.8,2.1c.7,1.9.6,2.1-1,3.3L9,83.5ZM7.7,91.1c1.9-.7,2.1-.6,3.3,1l1.3,1.8-.8-2.1c-.7-1.9-.6-2.1,1-3.3l1.8-1.3-2.1.8c-1.9.7-2.1.6-3.3-1L7.6,85.2l.8,2.1c.7,1.9.6,2.1-1,3.3L5.6,92Z" style="fill:#3535ed"/><path class="coronaTop" d="M18.6,61l-5.7,5.2h0A13.56,13.56,0,0,0,32,67l-5.2-5.7A5.83,5.83,0,0,1,18.6,61Zm.1,0a5.92,5.92,0,0,1,.3-8.2l-5.2-5.7A13.56,13.56,0,0,0,13,66.2L18.7,61Zm8.6-7.9L33,47.9a13.56,13.56,0,0,0-19.1-.8l5.2,5.7A5.83,5.83,0,0,1,27.3,53.1ZM32,67h0a13.56,13.56,0,0,0,.8-19.1l-5.7,5.2a5.74,5.74,0,0,1-.3,8.2Zm-6.1-5a5.78,5.78,0,0,1-5.8-10,5.78,5.78,0,1,1,5.8,10Z" style="fill:#fff;stroke:#000;stroke-miterlimit:10"/><path class="coronaTopBuccal" d="M26.8,61.3,32,67a13.56,13.56,0,0,1-19.1-.8h0L18.6,61A5.83,5.83,0,0,0,26.8,61.3Z" style="fill:#3535ed"/><path class="coronaTopMedial" d="M18.7,61,13,66.2a13.56,13.56,0,0,1,.8-19.1L19,52.8a5.92,5.92,0,0,0-.3,8.2Z" style="fill:#3535ed"/><path class="coronaTopLingual" d="M19.1,52.8l-5.2-5.7a13.56,13.56,0,0,1,19.1.8l-5.7,5.2A5.83,5.83,0,0,0,19.1,52.8Z" style="fill:#3535ed"/><path class="coronaTopDistal" d="M26.8,61.3a5.74,5.74,0,0,0,.3-8.2l5.7-5.2A13.56,13.56,0,0,1,32,67h0Z" style="fill:#3535ed"/><path class="coronaTopOclusial" d="M28,54.1A5.76,5.76,0,0,0,20.1,52,5.78,5.78,0,1,0,28,54.1Z" style="fill:#3535ed"/><path class="silant" d="M30.9,65.2A19,19,0,0,1,24,66.4c-5.8,0-9.2-2.2-9.2-5.4,0-2.7,2.2-4.2,6.4-5.4,3.2-.9,4.7-1.6,4.7-3.1,0-1.3-1.5-2.5-4.1-2.5a13.11,13.11,0,0,0-5,1l-1.1-2.4a15.66,15.66,0,0,1,6-1.1c5.3,0,8.4,2.4,8.4,5.3,0,2.2-2.1,4-6.5,5.1-3.3.9-4.5,1.8-4.5,3.3s1.5,2.7,4.8,2.7a16.09,16.09,0,0,0,5.9-1.3Z" style="fill:#3535ed"/><path class="crown" d="M39.5,15.3a67,67,0,0,1,1.8,10.9,13.54,13.54,0,0,1-1.1,7.2c-3,6.4-9,5.1-16.5.5a3.82,3.82,0,0,0-5.1,0c-3.7,4.3-8,4.8-13.1-.3a8.9,8.9,0,0,1-2.6-5.8c-.1-1.7.4-11.2.9-12.9a4.59,4.59,0,0,1,3-3.2c10-3.4,20.1-3,30.4.7A4.27,4.27,0,0,1,39.5,15.3ZM39,81.2c-2.7-4.7-7.6-6.3-15.1-4.1-2,1.4-3.8,1.5-5.4,0-3.6-1.9-6.9-2.7-9.8-1.8a7.91,7.91,0,0,0-5.1,6.2,35.73,35.73,0,0,0,.1,14.2l2.7,8.4a6.39,6.39,0,0,0,.8,1.9,2.78,2.78,0,0,0,3.6,1.2c.1-.1.2-.1.3-.2,2.9-1.9,5.8-2.7,8.8-.3,1.1,1.1,2.7,1.1,4.6,0,2.8-2.5,5.5-3.4,8.1-2.1a4.13,4.13,0,0,0,3.6.2,3.75,3.75,0,0,0,1.9-2.2,43.56,43.56,0,0,0,2.6-14.3A13.8,13.8,0,0,0,39,81.2ZM18.6,61l-5.7,5.2h0A13.56,13.56,0,0,0,32,67l-5.2-5.7A5.83,5.83,0,0,1,18.6,61Zm.1,0L13,66.2a13.56,13.56,0,0,1,.8-19.1L19,52.8a5.92,5.92,0,0,0-.3,8.2Zm.4-8.2-5.2-5.7a13.56,13.56,0,0,1,19.1.8l-5.7,5.2A5.83,5.83,0,0,0,19.1,52.8Zm7.7,8.5a5.74,5.74,0,0,0,.3-8.2l5.7-5.2A13.56,13.56,0,0,1,32,67h0ZM28,54.1A5.76,5.76,0,0,0,20.1,52,5.78,5.78,0,1,0,28,54.1Z" style="fill:#fff;stroke:#111414;stroke-miterlimit:10;stroke-width:0.5px"/><path class="braces" d="M23.9,86.3h0V89a2,2,0,0,0-1.1-.2H21.6a3.55,3.55,0,0,0-1,.2V86.3h0a3.55,3.55,0,0,0,1,.2h1.2a3.59,3.59,0,0,0,1.1-.2m-4.6-3.9a.77.77,0,0,0-.7.8V87H0v1.3H18.5v3.8c0,.4.3.8.6.8h1.1c.4-.1.7-.4.6-.8v-.6c0-.4.3-.8.6-.8h1.2a.64.64,0,0,1,.6.8V92a.76.76,0,0,0,.6.8h1.1a.77.77,0,0,0,.7-.8V88.2H44.2V86.9H25.9V83.1a.77.77,0,0,0-.7-.8H24.1c-.4.1-.7.4-.6.8v.5c0,.4-.3.8-.6.8H21.8a.77.77,0,0,1-.7-.8v-.5a.76.76,0,0,0-.6-.8l-1.2.1Z"/><path class="gum" d="M.1,105.1c1.5,0,3.2-.1,5-.1,5,4,13-2,18,4,3-7,13.5-4.5,14-5a61.5,61.5,0,0,0,7.4.6" style="fill:none;stroke:#ffb900;stroke-linejoin:round;stroke-width:3px"/><path class="paradontit1" d="M.1,105.1H4.5a4.48,4.48,0,0,1,1.2.1c5.3,1.7,7.7,6.1,17.3,6.1,7.3,0,13.9-6.5,17.6-6.7h3.9" style="fill:none;stroke:#ff822e;stroke-linejoin:round;stroke-width:3px"/><path class="paradontit2" d="M.1,105.1H4.5a5.28,5.28,0,0,1,1.3.1c5.4,2,5.4,11.3,17.4,10.3s11.2-8.1,15.9-10.1c.6-.2,1.3-.8,2-.8h3.4" style="fill:none;stroke:#f9610d;stroke-linejoin:round;stroke-width:3px"/><path class="paradontit3" d="M.1,105.1H4.5a5.28,5.28,0,0,1,1.3.1c5.4,2,.7,14.1,16.7,14.1s11.4-14.2,18.2-14.7h3.8" style="fill:none;stroke:#f9610d;stroke-linejoin:round;stroke-width:3px"/><path class="paradontit4" d="M.1,105.1a15.88,15.88,0,0,1,7.2,2c4.6,4,1.5,16.1,15.6,16.1,11,0,12-18.7,18-18.7l3.6.1" style="fill:none;stroke:#f75403;stroke-linejoin:round;stroke-width:3px"/><path class="periodontit" d="M44,160.5a4.5,4.5,0,1,1-4.5-4.5A4.48,4.48,0,0,1,44,160.5Zm-18.9-4a4.5,4.5,0,1,1-4.5-4.5A4.55,4.55,0,0,1,25.1,156.5Z" style="fill:#3535ed"/></g></g></g></svg>