<svg xmlns="http://www.w3.org/2000/svg" viewBox="0 0 44.4 180.8"><title>37tooth</title><g class="Слой_2" data-name="Слой 2"><g class="Слой_1-2" data-name="Слой 1"><g class="_37" data-name="37"><path class="background" d="M44.4,180.8H0V0H44.4Z" style="fill:#9fdaff"/><path class="bone" d="M44.4,180.8H0v-75H44.4Z" style="fill:#de82a7"/><path class="bridge" d="M0,80.4H44.4v4H0Zm0-46H44.4v-4H0Zm0,25H44.4v-4H0Z" style="fill:#3535ed"/><path class="root" d="M7.4,107c-.5,20.5,3.4,35.5,11.2,45.7,2.6,2.6,4.4,3,4.6-.9a10.85,10.85,0,0,0-.8-4.7A56.62,56.62,0,0,1,18.5,123a4,4,0,0,1,2-3.4c1.1-.6,2.4-.5,3.7.8,5.1,9.5,9,20.7,11.9,33.2a7.6,7.6,0,0,0,2,3.6c1.9,1.7,3.2,1,3.5-4.2a19.27,19.27,0,0,0-.1-2.4l-2.8-21.5a92.4,92.4,0,0,1-2.1-24.6" style="fill:#f4ecc8;stroke:#111414;stroke-miterlimit:10;stroke-width:0.25px"/><path class="rootCanal" d="M22,153.8c-13.7-41.5-2.9-44.5,1.8-42.6,2.1.8,6,9,9,19.2,3.8,12.9,6.6,28.1,7.6,25.6.8-2-8.1-52.6-8.1-52.6-8.5.1-12.2-.1-19.8.1-5.6,15.8,4.5,44.7,8.1,49.9C21.3,154.3,22.8,155.7,22,153.8Z" style="fill:#3535ed"/><path class="implant" d="M29.4,140.7l-14,2a1.55,1.55,0,0,0,.8.8,15.23,15.23,0,0,0,12.2.1,1.89,1.89,0,0,0,.9-1.6Zm.1-4.1L15,138.7l.1,2.4L29.4,139Zm.1-3.9-14.8,2.1.1,2.4L29.5,135Zm.1-4.1-14.9,2.2.1,2.4L29.7,131Zm.3-4-15.2,2.2.1,2.4,15-2.2Zm.2-4.1-15.5,2.3.1,2.4L30.1,123Zm.1-5-15.8,2.3.1,2.4,15.6-2.3Zm.1-.7-16-.1.1,2.6L30.4,115Zm1.7-4.6h-.5L13.5,110H13v1.9c0,.6.3,1,.9,1h1l15,.1H31a1.23,1.23,0,0,0,.8-.4,1.42,1.42,0,0,0,.2-.6Zm.1-4.2c0-.6-.3-1-.9-1l-18.1-.2a.92.92,0,0,0-.9,1V107a1.05,1.05,0,0,0,.5.9.76.76,0,0,0,.5.2l18.1.1a.9.9,0,0,0,.5-.1.89.89,0,0,0,.5-.8Z" style="fill:#3535ed"/><path class="rootMask" d="M7.4,107c-.5,20.5,3.4,35.5,11.2,45.7,2.6,2.6,4.4,3,4.6-.9a10.85,10.85,0,0,0-.8-4.7A56.62,56.62,0,0,1,18.5,123a4,4,0,0,1,2-3.4c1.1-.6,2.4-.5,3.7.8,5.1,9.5,9,20.7,11.9,33.2a7.6,7.6,0,0,0,2,3.6c1.9,1.7,3.2,1,3.5-4.2a19.27,19.27,0,0,0-.1-2.4l-2.8-21.5a92.4,92.4,0,0,1-2.1-24.6" style="fill:#f4ecc8;stroke:#111414;stroke-miterlimit:10;stroke-width:0.25px"/><path class="coronaLingual" d="M37.1,12.4C26.8,8.7,16.7,8.3,6.7,11.7a4.59,4.59,0,0,0-3,3.2c-.5,1.7-1,11.2-.9,12.9a8.9,8.9,0,0,0,2.6,5.8c5.1,5.1,9.4,4.6,13.1.3a3.82,3.82,0,0,1,5.1,0c7.5,4.6,13.5,5.9,16.5-.5a13.54,13.54,0,0,0,1.1-7.2,67,67,0,0,0-1.8-10.9A4.27,4.27,0,0,0,37.1,12.4Z" style="fill:#fff;stroke:#111414;stroke-miterlimit:10;stroke-width:0.5px"/><path class="coronaLingualIncisalDistal" d="M10.5,30.6v6.2a13.08,13.08,0,0,1-5.2-3.4,9.23,9.23,0,0,1-1.9-2.8Z" style="fill:#3535ed"/><path class="coronaLingualIncisalMiddle" d="M31.8,30.5v6.8a25,25,0,0,1-8.2-3.6,3.82,3.82,0,0,0-5.1,0c-2.4,2.8-5,4-8,3.1V30.6Z" style="fill:#3535ed"/><path class="coronaLingualIncisionMesial" d="M40.9,30.6a11.42,11.42,0,0,1-.9,2.6c-1.8,3.8-4.7,4.8-8.3,4.1V30.5Z" style="fill:#3535ed"/><path class="coronaLingualMiddleDistal" d="M40.8,30.6H31.7V16.9h8A71.55,71.55,0,0,1,41.1,26,11.82,11.82,0,0,1,40.8,30.6Z" style="fill:#3535ed"/><path class="coronaLingualMiddleMiddle" d="M31.7,30.7H10.4V17H31.7Z" style="fill:#3535ed"/><path class="coronaLingualMiddleMesial" d="M10.5,17V30.7H3.3a10.88,10.88,0,0,1-.7-3c.1-3.6.2-7.1.6-10.7Z" style="fill:#3535ed"/><path class="coronaLingualCervicalDistal" d="M39.7,17h-8V10.7a51.65,51.65,0,0,1,5.2,1.6,4.06,4.06,0,0,1,2.5,2.9Z" style="fill:#3535ed"/><path class="coronaLingualCervicalMiddle" d="M31.7,10.7V17H10.5V10.4A42.3,42.3,0,0,1,31.7,10.7Z" style="fill:#3535ed"/><path class="coronaLingualCervicalMesial" d="M10.6,10.6v6.5H3.3a8.33,8.33,0,0,1,.3-2.2,4.59,4.59,0,0,1,3-3.2C8,11.3,9.3,10.9,10.6,10.6Z" style="fill:#3535ed"/><path class="coronaLabial" d="M40.6,88.3A43.56,43.56,0,0,1,38,102.6a3.75,3.75,0,0,1-1.9,2.2,4.13,4.13,0,0,1-3.6-.2c-2.6-1.3-5.3-.4-8.1,2.1-1.9,1.1-3.5,1.1-4.6,0-3-2.4-5.9-1.6-8.8.3-.1.1-.2.1-.3.2A2.78,2.78,0,0,1,7.1,106a6.39,6.39,0,0,1-.8-1.9L3.6,95.7a35.73,35.73,0,0,1-.1-14.2,7.91,7.91,0,0,1,5.1-6.2c2.9-.9,6.2-.1,9.8,1.8,1.6,1.5,3.4,1.4,5.4,0,7.5-2.2,12.4-.6,15.1,4.1A13.8,13.8,0,0,1,40.6,88.3Z" style="fill:#fff;stroke:#111414;stroke-miterlimit:10;stroke-width:0.5px"/><path class="coronaLabialIncisalDistal" d="M37.9,79.7H31.7V76.3A9.2,9.2,0,0,1,37.9,79.7Z" style="fill:#3535ed"/><path class="coronaLabialIncisalMiddle" d="M31.7,76.4v3.4H10.4V75.1a15.94,15.94,0,0,1,8,2.1c1.6,1.5,3.4,1.4,5.4,0A16.49,16.49,0,0,1,31.7,76.4Z" style="fill:#3535ed"/><path class="coronaLabialIncisionMesial" d="M10.5,75.1v4.7H4.1a7.27,7.27,0,0,1,4.5-4.4A6.28,6.28,0,0,1,10.5,75.1Z" style="fill:#3535ed"/><path class="coronaLabialMiddleDistal" d="M40.4,88.3A52.51,52.51,0,0,1,39.2,98H31.7V79.7h6.2a13,13,0,0,1,1,1.5A11.91,11.91,0,0,1,40.4,88.3Z" style="fill:#3535ed"/><path class="coronaLabialMiddleMiddle" d="M31.7,98H10.4V79.7H31.7Z" style="fill:#3535ed"/><path class="coronaLabialMiddleMesial" d="M4.1,79.8h6.4V98.1H4.3l-.7-2.3a35.73,35.73,0,0,1-.1-14.2c.2-.7.4-1.3.6-1.9Z" style="fill:#3535ed"/><path class="coronaLabialCervicalDistal" d="M39.3,98.1a35,35,0,0,1-1.4,4.6,3.75,3.75,0,0,1-1.9,2.2,4.13,4.13,0,0,1-3.6-.2c-.2-.1-.5-.2-.7-.3V98.1Z" style="fill:#3535ed"/><path class="coronaLabialCervicalMiddle" d="M31.9,98.1v6.3c-2.3-.8-4.8.1-7.4,2.4-1.9,1.1-3.5,1.1-4.6,0-3-2.4-5.9-1.6-8.8.3l-.6.3V98.1Z" style="fill:#3535ed"/><path class="coronaLabialCervicalMesial" d="M10.5,98.2v9.3a2.63,2.63,0,0,1-3.3-1.3,6.39,6.39,0,0,1-.8-1.9l-2-6.1Z" style="fill:#3535ed"/><path class="veneer" d="M21.9,82.5c3.1-1.2,3.5-1.1,5.5,1.6l1.4,1.8L28,83.8c-1.2-3.2-1.1-3.6,1.6-5.6l1.8-1.4-2.1.8c-3.1,1.2-3.5,1.1-5.5-1.6l-1.3-1.8.8,2.1c1.2,3.2,1.1,3.6-1.6,5.6l-1.8,1.3Zm1.4,11.8c1.9-.7,2.1-.6,3.3,1l1.3,1.8L27.1,95c-.7-1.9-.6-2.1,1-3.3l1.8-1.4-2.1.8c-1.9.7-2.1.6-3.3-1l-1.3-1.8.8,2.1c.7,1.9.6,2.1-1,3.3L21.2,95Zm11.2-2.9c1.9-.7,2.1-.6,3.3,1l1.3,1.8-.8-2.1c-.7-1.9-.6-2.1,1-3.3l1.8-1.3-2.1.8c-1.9.7-2.1.6-3.3-1l-1.3-1.8.8,2.1c.7,1.9.6,2.1-1,3.3l-1.8,1.3ZM11,82.8c1.9-.7,2.1-.6,3.3,1l1.3,1.8-.8-2.1c-.7-1.9-.6-2.1,1-3.3l1.8-1.4-2.1.8c-1.9.7-2.1.6-3.3-1l-1.3-1.8.8,2.1c.7,1.9.6,2.1-1,3.3L8.9,83.5ZM7.6,91.1c1.9-.7,2.1-.6,3.3,1l1.3,1.8-.8-2.1c-.7-1.9-.6-2.1,1-3.3l1.8-1.3-2.1.8c-1.9.7-2.1.6-3.3-1L7.5,85.2l.8,2.1c.7,1.9.6,2.1-1,3.3L5.5,92Z" style="fill:#3535ed"/><path class="coronaTop" d="M18.5,61l-5.7,5.2h0a13.56,13.56,0,0,0,19.1.8l-5.2-5.7A5.83,5.83,0,0,1,18.5,61Zm.1,0a5.92,5.92,0,0,1,.3-8.2l-5.2-5.7a13.56,13.56,0,0,0-.8,19.1L18.6,61Zm8.6-7.9,5.7-5.2a13.56,13.56,0,0,0-19.1-.8L19,52.8A5.83,5.83,0,0,1,27.2,53.1ZM31.9,67h0a13.56,13.56,0,0,0,.8-19.1L27,53.1a5.74,5.74,0,0,1-.3,8.2Zm-6.1-5A5.78,5.78,0,0,1,20,52a5.78,5.78,0,0,1,5.8,10Z" style="fill:#fff;stroke:#000;stroke-miterlimit:10"/><path class="coronaTopBuccal" d="M18.5,61l-5.7,5.2h0a13.56,13.56,0,0,0,19.1.8l-5.2-5.7A5.83,5.83,0,0,1,18.5,61Z" style="fill:#3535ed"/><path class="coronaTopMedial" d="M18.6,61a5.92,5.92,0,0,1,.3-8.2l-5.2-5.7a13.56,13.56,0,0,0-.8,19.1L18.6,61Z" style="fill:#3535ed"/><path class="coronaTopLingual" d="M27.2,53.1l5.7-5.2a13.56,13.56,0,0,0-19.1-.8L19,52.8A5.83,5.83,0,0,1,27.2,53.1Z" style="fill:#3535ed"/><path class="coronaTopDistal" d="M31.9,67h0a13.56,13.56,0,0,0,.8-19.1L27,53.1a5.74,5.74,0,0,1-.3,8.2Z" style="fill:#3535ed"/><path class="coronaTopOclusial" d="M25.8,62A5.78,5.78,0,0,1,20,52a5.78,5.78,0,0,1,5.8,10Z" style="fill:#3535ed"/><path class="silant" d="M29.7,62.6a16.09,16.09,0,0,1-5.9,1.3c-3.3,0-4.8-1.2-4.8-2.7s1.2-2.4,4.5-3.3C27.9,56.8,30,55,30,52.8c0-2.9-3.1-5.3-8.4-5.3a15.66,15.66,0,0,0-6,1.1L16.7,51a13.11,13.11,0,0,1,5-1c2.6,0,4.1,1.2,4.1,2.5,0,1.5-1.5,2.2-4.7,3.1-4.2,1.2-6.4,2.7-6.4,5.4,0,3.2,3.4,5.4,9.2,5.4a19,19,0,0,0,6.9-1.2Z" style="fill:#3535ed"/><path class="crown" d="M39.4,15.3a67,67,0,0,1,1.8,10.9,13.54,13.54,0,0,1-1.1,7.2c-3,6.4-9,5.1-16.5.5a3.82,3.82,0,0,0-5.1,0c-3.7,4.3-8,4.8-13.1-.3a8.9,8.9,0,0,1-2.6-5.8c-.1-1.7.4-11.2.9-12.9a4.59,4.59,0,0,1,3-3.2c10-3.4,20.1-3,30.4.7A4.27,4.27,0,0,1,39.4,15.3Zm-.5,65.9c-2.7-4.7-7.6-6.3-15.1-4.1-2,1.4-3.8,1.5-5.4,0-3.6-1.9-6.9-2.7-9.8-1.8a7.91,7.91,0,0,0-5.1,6.2,35.73,35.73,0,0,0,.1,14.2l2.7,8.4a6.39,6.39,0,0,0,.8,1.9,2.78,2.78,0,0,0,3.6,1.2c.1-.1.2-.1.3-.2,2.9-1.9,5.8-2.7,8.8-.3,1.1,1.1,2.7,1.1,4.6,0,2.8-2.5,5.5-3.4,8.1-2.1a4.13,4.13,0,0,0,3.6.2,3.75,3.75,0,0,0,1.9-2.2,43.56,43.56,0,0,0,2.6-14.3A13.8,13.8,0,0,0,38.9,81.2ZM18.5,61l-5.7,5.2h0a13.56,13.56,0,0,0,19.1.8l-5.2-5.7A5.83,5.83,0,0,1,18.5,61Zm.1,0-5.7,5.2a13.56,13.56,0,0,1,.8-19.1l5.2,5.7a5.92,5.92,0,0,0-.3,8.2Zm.4-8.2-5.2-5.7a13.56,13.56,0,0,1,19.1.8l-5.7,5.2A5.83,5.83,0,0,0,19,52.8Zm7.7,8.5a5.74,5.74,0,0,0,.3-8.2l5.7-5.2A13.56,13.56,0,0,1,31.9,67h0Zm1.2-7.2A5.76,5.76,0,0,0,20,52a5.78,5.78,0,1,0,7.9,2.1Z" style="fill:#fff;stroke:#111414;stroke-miterlimit:10;stroke-width:0.5px"/><path class="braces" d="M23.8,86.3h0l.1,2.7a4.25,4.25,0,0,0-1.1-.2H21.6a3.55,3.55,0,0,0-1,.2V86.3h0a3.55,3.55,0,0,0,1,.2h1.1a2,2,0,0,0,1.1-.2m-4.6-3.9a.73.73,0,0,0-.6.7v3.8H0v1.3H18.5V92a.77.77,0,0,0,.7.8h1.1a.76.76,0,0,0,.6-.8v-.5a.77.77,0,0,1,.7-.8h1.1a.77.77,0,0,1,.7.8v.6c-.1.4.2.7.6.8h1.1a.77.77,0,0,0,.7-.8V88.3H44.4V87H25.8V83.2a.77.77,0,0,0-.7-.8H24a.76.76,0,0,0-.6.8v.5a.77.77,0,0,1-.7.8H21.6a.77.77,0,0,1-.7-.8v-.5c.1-.4-.2-.7-.6-.8Z"/><path class="gum" d="M44.4,104.6A61.5,61.5,0,0,1,37,104c-.5.5-11-2-14,5-5-6-13,0-18-4-1.8,0-3.5.1-5,.1" style="fill:none;stroke:#ffb900;stroke-linejoin:round;stroke-width:3px"/><path class="paradontit1" d="M44.4,104.6H40.5c-3.7.2-10.3,6.7-17.6,6.7-9.6,0-12-4.4-17.3-6.1a4.48,4.48,0,0,0-1.2-.1H0" style="fill:none;stroke:#ff822e;stroke-linejoin:round;stroke-width:3px"/><path class="paradontit2" d="M44.4,104.6H41c-.7,0-1.4.6-2,.8-4.7,2-3.9,9.1-15.9,10.1s-12-8.3-17.4-10.3a5.28,5.28,0,0,0-1.3-.1H0" style="fill:none;stroke:#f9610d;stroke-linejoin:round;stroke-width:3px"/><path class="paradontit3" d="M44.4,104.6H40.6c-6.8.5-2.2,14.7-18.2,14.7S11.1,107.2,5.7,105.2a5.28,5.28,0,0,0-1.3-.1H0" style="fill:none;stroke:#f9610d;stroke-linejoin:round;stroke-width:3px"/><path class="paradontit4" d="M44.4,104.6c-1.8,0-2.4,0-3.6-.1-6,0-6.9,18.7-17.9,18.7-14.2,0-11.1-12.1-15.7-16.1a15.88,15.88,0,0,0-7.2-2" style="fill:none;stroke:#f75403;stroke-linejoin:round;stroke-width:3px"/><path class="periodontit" d="M43.9,160.5a4.5,4.5,0,1,1-4.5-4.5A4.48,4.48,0,0,1,43.9,160.5Zm-18.9-4a4.5,4.5,0,1,1-4.5-4.5A4.55,4.55,0,0,1,25,156.5Z" style="fill:#3535ed"/></g></g></g></svg>