<svg xmlns="http://www.w3.org/2000/svg" viewBox="0 0 45.94 180.9"><title>38tooth</title><g class="Слой_2" data-name="Слой 2"><g class="Слой_1-2" data-name="Слой 1"><g class="_38" data-name="38"><path class="background" d="M0,0V180.7h45.9V0Z" style="fill:#9fdaff"/><path class="bone" d="M0,105.9v75h45.9v-75Z" style="fill:#de82a7"/><path class="bridge" d="M0,55.4h45.9v4H0Zm0-21h45.9v-4H0ZM0,84.5h45.9v-4H0Z" style="fill:#3535ed"/><path class="root" d="M34.44,102.5c-.7,8.9-3.4,16.8-.9,23.2l3.8,11.1c2.7,6.9-1.6,10.2-5.4,10.2-5.5-.8-9.9-5.3-13.7-12.2a8.65,8.65,0,0,1-.7-1.7C14,121.5,13.74,111,9.94,104" style="fill:#f4ecc8;stroke:#111414;stroke-miterlimit:10;stroke-width:0.25px"/><path class="rootCanal" d="M34.54,146.5a.37.37,0,0,1-.3-.1c-12-4.7-17.4-46.9-17.6-48.9a10,10,0,0,1,5.5-2.1c2.2,0,4,1.2,5.3,3.5-7.2,16.8,1.3,34.2,5.4,42.6,1.2,2.5,2.2,4.5,1.9,4.9-.1.1-.1.1-.2.1ZM22,95.6c2.1,0,3.9,1.1,5.2,3.4-7.1,16.8,1.3,34.2,5.4,42.6,1.1,2.3,2.1,4.4,1.9,4.8h-.1c-.1,0-.1,0-.3-.1-11.9-4.7-17.2-46-17.5-48.8.6-.3,2.9-1.9,5.4-1.9m0-.3a10.17,10.17,0,0,0-5.6,2.1s5.2,44.2,17.7,49.1a.76.76,0,0,0,.4.1c3.2,0-16.9-24.4-7-47.7-1.6-2.7-3.6-3.6-5.5-3.6Z" style="fill:none"/><path class="implant" d="M29.34,140.6l-14,2.1a1.6,1.6,0,0,0,.7.9,14.83,14.83,0,0,0,12.2.1,1.78,1.78,0,0,0,1-1.6l.1-1.5Zm.2-4.1L15,138.6l.1,2.4,14.2-2.1Zm.2-3.9L15,134.7l.1,2.4,14.5-2.1Zm.2-4-15,2.1.1,2.4,14.8-2.1Zm.1-4.1-15.3,2.2.1,2.4,15.1-2.1Zm.2-3.9-15.5,2.2.1,2.4,15.3-2.2Zm.2-5.2-15.8,2.3.1,2.4,15.6-2.2Zm0-.6-16-.1.1,2.6,15.9-2.3Zm1.6-4.7h-.5l-18.2-.1c-.2,0-.3-.1-.5-.1v2a1.42,1.42,0,0,0,.2.6,1.27,1.27,0,0,0,.7.4h1.1l15.1.1H31a1,1,0,0,0,.7-.4,1.07,1.07,0,0,0,.2-.6v-1.9Zm.6-4.2a.92.92,0,0,0-.9-1l-18.2-.1a.92.92,0,0,0-.9,1v1.4a1.32,1.32,0,0,0,.9,1l18.2.1a1,1,0,0,0,.9-1Z" style="fill:#3535ed"/><path class="rootMusk" d="M34.44,102.5c-.7,8.9-3.4,16.8-.9,23.2l3.8,11.1c2.7,6.9-1.6,10.2-5.4,10.2-5.5-.8-9.9-5.3-13.7-12.2a8.65,8.65,0,0,1-.7-1.7C14,121.5,13.74,111,9.94,104" style="fill:#f4ecc8;stroke:#111414;stroke-miterlimit:10;stroke-width:0.25px"/><path class="coronaLingual" d="M39.94,15a9,9,0,0,1-.6-2.2c-.3-1.9-1.2-3.1-2.8-3.5a76.57,76.57,0,0,0-27,.8,7.49,7.49,0,0,0-3.6,5.5,39.3,39.3,0,0,0-1.7,13.2,10.14,10.14,0,0,0,2.3,6c4.2,5,9.1,4.9,14.4,1.7a5.24,5.24,0,0,1,5.4,0c4.3,2.9,8,3.5,11.1,1.2a9.14,9.14,0,0,0,3.4-5.7l.5-2.6a20.86,20.86,0,0,0,.3-6.1A47,47,0,0,0,39.94,15Z" style="fill:#fff;stroke:#111414;stroke-miterlimit:10;stroke-width:0.5px"/><path class="coronaLingualIncisalDistal" d="M29.44,30.8v7.3c3,1.3,5.7,1.2,8-.5a9.14,9.14,0,0,0,3.4-5.7l.1-1.1Z" style="fill:#3535ed"/><path class="coronaLingualIncisalMiddle" d="M15.54,30.8v7.7a15,15,0,0,0,5.4-2.2,5.24,5.24,0,0,1,5.4,0,20.16,20.16,0,0,0,3.2,1.8V30.8Z" style="fill:#3535ed"/><path class="coronaLingualIncisionMesial" d="M4.64,30.7a10.46,10.46,0,0,0,1.9,3.8c2.7,3.3,5.8,4.4,9,3.9V30.7Z" style="fill:#3535ed"/><path class="coronaLingualMiddleDistal" d="M41.64,23.2a43.08,43.08,0,0,0-1-6.1H29.44V30.8h11.5l.3-1.5A25.06,25.06,0,0,0,41.64,23.2Z" style="fill:#3535ed"/><path class="coronaLingualMiddleMiddle" d="M29.44,17.1h-14V30.8h14Z" style="fill:#3535ed"/><path class="coronaLingualMiddleMesial" d="M5.54,17.1a39.87,39.87,0,0,0-1.2,11.4,7.8,7.8,0,0,0,.3,2.2h10.9V17l-10,.1Z" style="fill:#3535ed"/><path class="coronaLingualCervicalDistal" d="M39.94,14.8a9,9,0,0,1-.6-2.2c-.3-1.9-1.2-3.1-2.8-3.5-2.4-.3-4.8-.6-7.1-.7v8.7h11.2A20.16,20.16,0,0,1,39.94,14.8Z" style="fill:#3535ed"/><path class="coronaLingualCervicalMiddle" d="M15.54,8.9v8.2h14V8.4A72,72,0,0,0,15.54,8.9Z" style="fill:#3535ed"/><path class="coronaLingualCervicalMesial" d="M9.64,9.9A7.49,7.49,0,0,0,6,15.4c-.2.6-.3,1.2-.5,1.8h10V8.9C13.54,9.2,11.54,9.5,9.64,9.9Z" style="fill:#3535ed"/><path class="coronaLabial" d="M37,96.4l.5-11.7A8.7,8.7,0,0,0,36,79.3a9,9,0,0,0-5.3-3.6,17.22,17.22,0,0,0-8.4.9,4.22,4.22,0,0,1-4.8.1c-3.7-3.9-8.1-1.5-13.1,4.3-1.2,2.4-.9,5.4,0,8.9.3,1,.5,2,.7,3a24.68,24.68,0,0,0,4.1,10.2,3.63,3.63,0,0,0,3.3,2.1,32.8,32.8,0,0,0,10.6-2.5,12.45,12.45,0,0,1,7.4.1c1.8,1.1,3.4.7,4.7-1A10.54,10.54,0,0,0,37,96.4Z" style="fill:#fff;stroke:#111414;stroke-miterlimit:10;stroke-width:0.5px"/><path class="coronaLabialIncisalDistal" d="M36,79.2a8.89,8.89,0,0,0-5.4-3.6,27.15,27.15,0,0,0-2.8-.1v4.3h8.5A1.63,1.63,0,0,0,36,79.2Z" style="fill:#3535ed"/><path class="coronaLabialIncisalMiddle" d="M22.34,76.6a4.22,4.22,0,0,1-4.8.1A5.57,5.57,0,0,0,14,74.8v5h13.9V75.5A15.1,15.1,0,0,0,22.34,76.6Z" style="fill:#3535ed"/><path class="coronaLabialIncisionMesial" d="M5.64,79.8h8.5v-5C11.54,74.6,8.64,76.5,5.64,79.8Z" style="fill:#3535ed"/><path class="coronaLabialMiddleDistal" d="M36.34,79.7h-8.4V98h8.8a11,11,0,0,0,.2-1.8l.5-11.7A7.45,7.45,0,0,0,36.34,79.7Z" style="fill:#3535ed"/><path class="coronaLabialMiddleMiddle" d="M27.94,79.7h-14V98h14Z" style="fill:#3535ed"/><path class="coronaLabialMiddleMesial" d="M5.54,79.7c-.3.4-.7.8-1,1.2-1.2,2.4-.9,5.4,0,8.9.3,1,.5,2,.7,3a24.62,24.62,0,0,0,1.5,5.3H14V79.8H5.54Z" style="fill:#3535ed"/><path class="coronaLabialCervicalDistal" d="M27.94,97.9v4a18.43,18.43,0,0,1,2.5.5c1.8,1.1,3.4.7,4.7-1a8.63,8.63,0,0,0,1.6-3.5Z" style="fill:#3535ed"/><path class="coronaLabialCervicalMiddle" d="M14,97.9v6.8a29.19,29.19,0,0,0,9.1-2.4,10.15,10.15,0,0,1,4.9-.4v-4Z" style="fill:#3535ed"/><path class="coronaLabialCervicalMesial" d="M6.74,97.8a28.66,28.66,0,0,0,2.6,4.9,3.63,3.63,0,0,0,3.3,2.1c.5,0,1-.1,1.4-.1V97.9l-7.3-.1Z" style="fill:#3535ed"/><path class="veneer" d="M21.84,82.3c3.2-1.2,3.6-1,5.7,1.7l1.4,1.8-.8-2.2c-1.2-3.2-1-3.6,1.7-5.7l1.8-1.4-2.1.8c-3.2,1.2-3.6,1-5.7-1.7l-1.4-1.8.8,2.1c1.2,3.2,1,3.6-1.7,5.7L19.74,83Zm1.4,12c1.9-.7,2.1-.7,3.4,1L28,97.1l-.8-2.1c-.7-1.9-.7-2.1,1-3.4L30,90.2l-2.1.8c-1.9.7-2.1.7-3.4-1l-1.4-1.8.8,2.1c.7,1.9.7,2.1-1,3.4l-1.8,1.4Zm11.7-2.9c2-.7,2.1-.7,3.4,1l1.4,1.8-.8-2.1c-.7-1.9-.7-2.1,1-3.4l1.8-1.4-2.2.8c-1.9.7-2.1.7-3.4-1l-1.4-1.8.8,2.1c.7,1.9.7,2.1-1,3.4l-1.8,1.4Zm-24.3-8.9c2-.7,2.1-.7,3.4,1l1.4,1.8-.8-2.1c-.7-1.9-.7-2.1,1-3.4l1.8-1.4-2.1.8c-1.9.7-2.1.7-3.4-1l-1.4-1.8.8,2.1c.7,1.9.7,2.1-1,3.4l-1.8,1.4Zm-3.5,8.7c1.9-.7,2.1-.7,3.4,1l1.4,1.8-.8-2.1c-.7-1.9-.7-2.1,1-3.4l1.8-1.4-2.1.8c-1.9.7-2.1.7-3.4-1L7,85.1l.8,2.1c.7,1.9.7,2.1-1,3.4L5,92Z" style="fill:#3535ed"/><path class="coronaTop" d="M26.84,61a6,6,0,0,1-8.3-.3l-5.7,5.2.1.1a13.56,13.56,0,0,0,19.1.7L26.84,61Zm-8.2-.4a5.87,5.87,0,0,1,.4-8.3l-5.3-5.6a13.56,13.56,0,0,0-.8,19.1l5.7-5.2Zm8.6-7.9,5.7-5.2a13.56,13.56,0,0,0-19.1-.8L19,52.4A5.83,5.83,0,0,1,27.24,52.7Zm4.9,14a13.56,13.56,0,0,0,.8-19.1l-5.7,5.2a5.83,5.83,0,0,1-.4,8.2Zm-6.3-5a5.76,5.76,0,0,1-7.9-2.1A5.85,5.85,0,0,1,20,51.7a5.76,5.76,0,0,1,7.9,2.1A5.83,5.83,0,0,1,25.84,61.7Z" style="fill:#fff;stroke:#000;stroke-miterlimit:10"/><path class="coronaTopBuccal" d="M26.84,61,32,66.7a13.56,13.56,0,0,1-19.1-.7l-.1-.1,5.7-5.2a6,6,0,0,0,8.3.3Z" style="fill:#3535ed"/><path class="coronaTopMedial" d="M18.64,60.6l-5.7,5.2a13.56,13.56,0,0,1,.8-19.1L19,52.3a5.87,5.87,0,0,0-.4,8.3Z" style="fill:#3535ed"/><path class="coronaTopLingual" d="M19,52.4l-5.2-5.7a13.56,13.56,0,0,1,19.1.8l-5.7,5.2A5.83,5.83,0,0,0,19,52.4Z" style="fill:#3535ed"/><path class="coronaTopDistal" d="M26.84,61a5.83,5.83,0,0,0,.4-8.2l5.7-5.2a13.56,13.56,0,0,1-.8,19.1Z" style="fill:#3535ed"/><path class="coronaTopOclusial" d="M27.94,53.8A5.76,5.76,0,0,0,20,51.7a5.85,5.85,0,0,0-2.1,7.9,5.76,5.76,0,0,0,7.9,2.1A5.83,5.83,0,0,0,27.94,53.8Z" style="fill:#3535ed"/><path class="silant" d="M30.94,64.8A19,19,0,0,1,24,66c-5.8,0-9.2-2.2-9.2-5.4,0-2.7,2.2-4.2,6.4-5.4,3.2-.9,4.7-1.6,4.7-3.1,0-1.3-1.5-2.5-4.1-2.5a13.11,13.11,0,0,0-5,1l-1.1-2.4a15.66,15.66,0,0,1,6-1.1c5.3,0,8.4,2.4,8.4,5.3,0,2.2-2.1,4-6.5,5.1-3.3.9-4.6,1.8-4.6,3.3s1.5,2.7,4.8,2.7a16.09,16.09,0,0,0,5.9-1.3Z" style="fill:#3535ed"/><path class="crown" d="M26.34,36.5a5.24,5.24,0,0,0-5.4,0c-5.3,3.2-10.2,3.3-14.4-1.7a10.14,10.14,0,0,1-2.3-6,39.3,39.3,0,0,1,1.7-13.2,7.49,7.49,0,0,1,3.6-5.5,76.57,76.57,0,0,1,27-.8c1.6.4,2.5,1.6,2.8,3.5a9,9,0,0,0,.6,2.2,47,47,0,0,1,1.7,8.3,20.86,20.86,0,0,1-.3,6.1l-.5,2.6a9.14,9.14,0,0,1-3.4,5.7C34.34,40,30.64,39.4,26.34,36.5ZM4.44,89.9c.3,1,.5,2,.7,3a24.68,24.68,0,0,0,4.1,10.2,3.88,3.88,0,0,0,2.5,2c0,.1-.1.3-.1.4v1.4a1.28,1.28,0,0,0,1,1l19.9.1a1.08,1.08,0,0,0,1-1v-1.4a.94.94,0,0,0-1-1l-15.2-.1a29.94,29.94,0,0,0,5.8-1.8,12.45,12.45,0,0,1,7.4.1c1.8,1.1,3.4.7,4.7-1A10.54,10.54,0,0,0,37,96.4l.5-11.7A8.7,8.7,0,0,0,36,79.3a9,9,0,0,0-5.3-3.6,17.22,17.22,0,0,0-8.4.9,4.22,4.22,0,0,1-4.8.1c-3.7-3.9-8.1-1.5-13.1,4.3C3.24,83.4,3.54,86.4,4.44,89.9ZM32,66.7,26.84,61a6,6,0,0,1-8.3-.3l-5.7,5.2.1.1A13.56,13.56,0,0,0,32,66.7Zm-13.4-6.1c-.1-.1-.2-.3-.3-.4l-.1-.1a5.84,5.84,0,0,1,.8-7.7h0a5.83,5.83,0,0,1,8.2.3l5.7-5.2a13.56,13.56,0,0,0-19.1-.8l5.3,5.6-5.4-5.6a13.56,13.56,0,0,0-.8,19.1Zm10.1-4.1a5.91,5.91,0,0,1-1.9,4.4l5.3,5.7a13.56,13.56,0,0,0,.8-19.1l-5.7,5.2c.1.1.1.2.2.3a1.76,1.76,0,0,0,.4.5.76.76,0,0,1,.2.4l.3.6c.1.2.1.3.2.5a1.09,1.09,0,0,1,.1.5c0,.4.1.7.1,1ZM18.24,60h0a5.81,5.81,0,0,0,10.5-3.5h0a2.77,2.77,0,0,0-.1-.9,4.33,4.33,0,0,0-.1-.5c0-.2-.1-.3-.2-.5L28,54a.1.1,0,0,0-.1-.1c0-.1-.1-.2-.2-.3a1.76,1.76,0,0,0-.4-.5,5.77,5.77,0,0,0-9.5,6.5C18,59.7,18.14,59.9,18.24,60Z" style="fill:#fff;stroke:#000;stroke-miterlimit:10;stroke-width:0.25px"/><path class="braces" d="M24.64,86.3h0V89a2,2,0,0,0-1.1-.2h-1.2a3.55,3.55,0,0,0-1,.2V86.3h0a3.55,3.55,0,0,0,1,.2h1.2a4.25,4.25,0,0,0,1.1-.2M20,82.4a.77.77,0,0,0-.7.8V87H0v1.3h19.3v3.8a.77.77,0,0,0,.7.8h1.1c.4-.1.7-.4.6-.8v-.6c0-.4.3-.8.6-.8h1.2a.77.77,0,0,1,.7.8V92a.76.76,0,0,0,.6.8h1.1a.64.64,0,0,0,.6-.8V88.2h19.3V86.9H26.54V83.1c0-.4-.3-.8-.6-.8h-1.1c-.4.1-.7.4-.6.8v.5a.77.77,0,0,1-.7.8h-1.1a.77.77,0,0,1-.7-.8v-.5a.76.76,0,0,0-.6-.8l-1.1.1Z"/><path class="gum" d="M0,104.6a70.18,70.18,0,0,1,8.5.4s6.5,1.8,12-2,13,0,16.5,2.3c4.5-.3,8.9-.3,8.9-.3" style="fill:none;stroke:#ffb900;stroke-linejoin:round;stroke-width:3px"/><path class="paradontit1" d="M0,104.6h4.5c3.5,0,10.8,2.8,18,3,5,.1,9.8-1.4,13.8-2.5a2.16,2.16,0,0,1,1.1-.1h8.4" style="fill:none;stroke:#ff822e;stroke-linejoin:round;stroke-width:3px"/><path class="paradontit2" d="M0,104.6h4.5c3.5,0,6.9,6.5,17.9,6.5s9.9-4.6,14-5.9a5.85,5.85,0,0,1,1.3-.2h8.2" style="fill:none;stroke:#f9610d;stroke-linejoin:round;stroke-width:3px"/><path class="paradontit3" d="M0,104.6h4.5c6.4,0,3,11.4,18,10.4s9.8-8.5,13.9-9.8a5.85,5.85,0,0,1,1.3-.2h8.2" style="fill:none;stroke:#f9610d;stroke-linejoin:round;stroke-width:3px"/><path class="paradontit4" d="M0,104.6h7.2c6.6-.1.4,15.4,15.4,14.4s10-7,12.2-9.9A4.51,4.51,0,0,1,39,106h6.9" style="fill:none;stroke:#f75403;stroke-linejoin:round;stroke-width:3px"/><path class="periodontit" d="M34.44,145.5a4.5,4.5,0,1,0,4.5,4.5A4.48,4.48,0,0,0,34.44,145.5Z" style="fill:#3535ed"/></g></g></g></svg>