<svg xmlns="http://www.w3.org/2000/svg" viewBox="0 0 35.9 180.8"><title>41tooth</title><g class="Слой_2" data-name="Слой 2"><g class="Слой_1-2" data-name="Слой 1"><g class="_41" data-name="41"><path class="background" d="M0,0H35.9V180.8H0Z" style="fill:#9fdaff"/><path class="bone" d="M0,105.8H35.9v75H0Z" style="fill:#de82a7"/><path class="bridge" d="M35.9,84.4H0v-4H35.9Zm0-29H0v4H35.9Zm0-25H0v4H35.9Z" style="fill:#3535ed"/><path class="root" d="M24.5,98.7c-1.7,25-3.4,52.5-8.1,56.1-2.4,2.7-3.8,2.8-4.5.5a6.92,6.92,0,0,1,0-3.5c3-14.5,2.3-31.5-1.1-50.3" style="fill:#f4ecc8;stroke:#111414;stroke-miterlimit:10;stroke-width:0.25px"/><path class="rootCanal" d="M21.7,98.9c.6.2-2.7,45.1-7.3,57.2a.52.52,0,0,1-1-.3c1.7-12.2,4.3-53.4,2.7-55.2C21.6,99.9,21.7,98.9,21.7,98.9Z" style="fill:#3535ed;stroke:#201600;stroke-miterlimit:10;stroke-width:0.25px"/><path class="implant" d="M11.4,142a1.9,1.9,0,0,0,1,1.6,15.23,15.23,0,0,0,12.2-.1,1.39,1.39,0,0,0,.7-.8l-14-2Zm-.1-2.9,14.3,2,.1-2.4-14.4-2.2Zm-.1-4,14.5,2,.1-2.4-14.7-2.2ZM11,131l14.8,2.2.1-2.4L11,128.6Zm-.1-4,15,2.2.1-2.4-15.2-2.3Zm-.2-4L26,125.3l.1-2.4-15.6-2.3Zm-.2-5.1,15.7,2.3.1-2.5-15.8-2.3v2.5Zm-.1-2.9,15.9,2.3.1-2.6-16,.1Zm-1.8-3.3a1.61,1.61,0,0,0,.4.7.91.91,0,0,0,.7.3h1.1l15-.1h1.1a.91.91,0,0,0,.7-.3,1.07,1.07,0,0,0,.2-.6v-1.9h-.4l-18.1.1H8.9Zm-.3-4.4a.89.89,0,0,0,.5.8.6.6,0,0,0,.4.1l18.1-.1c.2,0,.3-.1.4-.1a1,1,0,0,0,.4-.9v-1.2a.94.94,0,0,0-1-1L9,105a1.08,1.08,0,0,0-1,1H8l.3,1.3Z" style="fill:#3535ed"/><path class="rootMask" d="M24.5,98.7c-1.7,25-3.4,52.5-8.1,56.1-2.4,2.7-3.8,2.8-4.5.5a6.92,6.92,0,0,1,0-3.5c3-14.5,2.3-31.5-1.1-50.3" style="fill:#f4ecc8;stroke:#111414;stroke-miterlimit:10;stroke-width:0.25px"/><path class="coronaLingual" d="M15.1,5.9c2.5-2.8,4.7-3.5,6.8-1.7a4.94,4.94,0,0,1,1.7,3.6,116.67,116.67,0,0,0,2.9,17.7,21.74,21.74,0,0,1,0,8.8c-.2,1.9-1.5,2.9-3.6,3.1H11.5c-2.1-.5-2.8-2.5-2.7-5.3,1.3-8,2.9-15.9,4.9-23.7A10.1,10.1,0,0,1,15.1,5.9Z" style="fill:#fff;stroke:#111414;stroke-miterlimit:10;stroke-width:0.5px"/><path class="coronaLingualIncisalDistal" d="M9,32.2c.2-1.5.5-3.1.8-4.6h5.5v9.9H11.7C9.5,37,8.8,35,9,32.2Z" style="fill:#3535ed"/><path class="coronaLingualIncisalMiddle" d="M15.3,27.6H21v9.9H15.3Z" style="fill:#3535ed"/><path class="coronaLingualIncisionMesial" d="M26.9,27.6a19.37,19.37,0,0,1-.3,6.8c-.2,1.9-1.5,2.9-3.6,3.1H20.9V27.6Z" style="fill:#3535ed"/><path class="coronaLingualMiddleDistal" d="M12.5,13.9h2.7V27.6H9.7C10.6,23,11.5,18.5,12.5,13.9Z" style="fill:#3535ed"/><path class="coronaLingualMiddleMiddle" d="M15.2,13.9h5.7V27.6H15.2Z" style="fill:#3535ed"/><path class="coronaLingualMiddleMesial" d="M24.4,14c.5,3.8,1.3,7.7,2.2,11.6.1.7.2,1.4.3,2h-6V14Z" style="fill:#3535ed"/><path class="coronaLingualCervicalDistal" d="M13.9,8.5A6,6,0,0,1,15.2,6l.1-.1V14H12.5C13,12.1,13.4,10.3,13.9,8.5Z" style="fill:#3535ed"/><path class="coronaLingualCervicalMiddle" d="M20.9,3.6V14H15.2V5.9C17.3,3.6,19.2,2.8,20.9,3.6Z" style="fill:#3535ed"/><path class="coronaLingualCervicalMesial" d="M22,4.4c.9,1,.9,0,1.7,3.6.1,2,.4,4,.7,6H20.9V3.7A6.73,6.73,0,0,1,22,4.4Z" style="fill:#3535ed"/><path class="coronaLabial" d="M9.2,75.6l.2-.3a2.69,2.69,0,0,1,2.4-1.4l11.4-.2a3.84,3.84,0,0,1,2.5.9h0a1.61,1.61,0,0,1,.6,1.3,81.68,81.68,0,0,1-1.9,22.6,13.69,13.69,0,0,1-1.9,4.7c-2,3.1-4.6,3.9-7.5,2.7a5.78,5.78,0,0,1-3.5-4.1C9.7,94.9,9,86.6,8.6,77.7A4.34,4.34,0,0,1,9.2,75.6Z" style="fill:#fff;stroke:#111414;stroke-miterlimit:10;stroke-width:0.5px"/><path class="coronaLabialIncisalDistal" d="M8.7,77.9a4.55,4.55,0,0,1,.5-2l.2-.3a2.69,2.69,0,0,1,2.4-1.4h2v5.9H8.7Z" style="fill:#3535ed"/><path class="coronaLabialIncisalMiddle" d="M20.8,73.9V80h-7V74.1Z" style="fill:#3535ed"/><path class="coronaLabialIncisionMesial" d="M23.2,73.9a3.84,3.84,0,0,1,2.5.9,1.61,1.61,0,0,1,.6,1.3c.1,1.3.1,2.6.1,3.9H20.7V73.9Z" style="fill:#3535ed"/><path class="coronaLabialMiddleDistal" d="M8.8,80h5.1V98.3H10.8A111.39,111.39,0,0,1,8.8,80Z" style="fill:#3535ed"/><path class="coronaLabialMiddleMiddle" d="M13.8,80h7V98.3h-7Z" style="fill:#3535ed"/><path class="coronaLabialMiddleMesial" d="M26.3,80a86.21,86.21,0,0,1-2,18.3H20.7V80Z" style="fill:#3535ed"/><path class="coronaLabialCervicalDistal" d="M13.8,98.2v7a6.13,6.13,0,0,1-2.3-3.4c-.3-1.1-.5-2.4-.8-3.6Z" style="fill:#3535ed"/><path class="coronaLabialCervicalMiddle" d="M20.8,98.2v7a5.34,5.34,0,0,1-5.8.7,7.46,7.46,0,0,1-1.2-.7v-7Z" style="fill:#3535ed"/><path class="coronaLabialCervicalMesial" d="M24.5,98.2a.76.76,0,0,1-.1.4,13.69,13.69,0,0,1-1.9,4.7,10.61,10.61,0,0,1-1.7,2v-7Z" style="fill:#3535ed"/><path class="veneer" d="M19.7,81.5l-1.6-1.2c-2.4-1.8-2.5-2.1-1.5-4.9l.7-1.9-1.2,1.6c-1.8,2.4-2.1,2.5-4.9,1.5l-1.9-.7,1.6,1.2c2.4,1.8,2.5,2.1,1.4,4.9l-.7,1.9,1.2-1.6c1.8-2.4,2.1-2.5,4.9-1.4ZM18.5,91.9l-1.6-1.2c-1.4-1.1-1.5-1.2-.9-2.9l.7-1.9-1.2,1.6c-1.1,1.4-1.2,1.5-2.9.9l-1.9-.7,1.6,1.2c1.4,1.1,1.5,1.3.9,3l-.7,1.9,1.2-1.6c1.1-1.4,1.3-1.5,3-.9Zm-7-4.6L9.9,86.1c-1.4-1.1-1.5-1.2-.9-3l.7-1.9L8.5,82.8c-1.1,1.4-1.2,1.5-2.9.9L3.7,83l1.6,1.2c1.4,1.1,1.5,1.2.9,3l-.7,1.9,1.2-1.6c1.1-1.4,1.3-1.5,3-.9Zm17.9-5.6-1.6-1.2c-1.4-1.1-1.5-1.3-.9-3l.7-1.9-1.1,1.6c-1.1,1.4-1.3,1.5-3,.9l-1.6-.5,1.3,1c1.4,1.1,1.5,1.3.9,3l-.7,1.9,1.2-1.6c1.1-1.4,1.3-1.5,3-.9Zm3.1,7.4-1.6-1.2c-1.4-1.1-1.5-1.2-.9-2.9l.7-1.9-1.2,1.6c-1.1,1.4-1.2,1.5-2.9.9l-1.9-.7,1.6,1.2c1.4,1.1,1.5,1.2.9,3L26.5,91l1.2-1.6c1.1-1.4,1.3-1.5,3-.9Z" style="fill:#3535ed"/><path class="coronaTop" d="M14.2,60.9,9,66.6a13.56,13.56,0,0,0,19.1-.8l-5.7-5.2A5.92,5.92,0,0,1,14.2,60.9Zm8.2-.4,5.7,5.2a13.56,13.56,0,0,0-.8-19.1h0l-5.2,5.7A5.83,5.83,0,0,1,22.4,60.5ZM22,52.3l5.2-5.7a13.56,13.56,0,0,0-19.1.8h0l5.7,5.2A5.92,5.92,0,0,1,22,52.3Zm-7.8,8.6a5.83,5.83,0,0,1-.4-8.2L8.1,47.5a13.56,13.56,0,0,0,.8,19.1ZM18,50.8a5.8,5.8,0,1,1-5.8,5.8A5.8,5.8,0,0,1,18,50.8Z" style="fill:#fff;stroke:#000;stroke-miterlimit:10"/><path class="coronaTopBuccal" d="M14.2,60.9,9,66.6a13.56,13.56,0,0,0,19.1-.8l-5.7-5.2A5.92,5.92,0,0,1,14.2,60.9Z" style="fill:#3535ed"/><path class="coronaTopMedial" d="M22.4,60.5l5.7,5.2a13.56,13.56,0,0,0-.8-19.1h0l-5.2,5.7A5.83,5.83,0,0,1,22.4,60.5Z" style="fill:#3535ed"/><path class="coronaTopLingual" d="M22,52.3l5.2-5.7a13.56,13.56,0,0,0-19.1.8h0l5.7,5.2A5.92,5.92,0,0,1,22,52.3Z" style="fill:#3535ed"/><path class="coronaTopDistal" d="M14.2,60.9a5.83,5.83,0,0,1-.4-8.2L8.1,47.5a13.56,13.56,0,0,0,.8,19.1Z" style="fill:#3535ed"/><path class="coronaTopOclusial" d="M18,50.9a5.8,5.8,0,1,1-5.8,5.8A5.8,5.8,0,0,1,18,50.9Z" style="fill:#3535ed"/><path class="silant" d="M9.6,64.6a19,19,0,0,0,6.9,1.2c5.8,0,9.2-2.2,9.2-5.4,0-2.7-2.2-4.2-6.4-5.4-3.2-.9-4.7-1.6-4.7-3.1,0-1.3,1.5-2.5,4.1-2.5a13.11,13.11,0,0,1,5,1L24.8,48a15.66,15.66,0,0,0-6-1.1c-5.3,0-8.4,2.4-8.4,5.3,0,2.2,2.1,4,6.5,5.1,3.3.9,4.5,1.8,4.5,3.3s-1.5,2.7-4.8,2.7A16.09,16.09,0,0,1,10.7,62Z" style="fill:#3535ed"/><path class="crown" d="M15.1,5.9c2.5-2.8,4.7-3.5,6.8-1.7a4.94,4.94,0,0,1,1.7,3.6,116.67,116.67,0,0,0,2.9,17.7,21.74,21.74,0,0,1,0,8.8c-.2,1.9-1.5,2.9-3.6,3.1H11.5c-2.1-.5-2.8-2.5-2.7-5.3,1.3-8,2.9-15.9,4.9-23.7A10.1,10.1,0,0,1,15.1,5.9ZM8.6,77.7c.4,8.9,1.1,17.2,2.9,24.1a5.78,5.78,0,0,0,3.5,4.1c2.9,1.2,5.5.4,7.5-2.7a13.69,13.69,0,0,0,1.9-4.7,81.68,81.68,0,0,0,1.9-22.6,1.61,1.61,0,0,0-.6-1.3h0a3.84,3.84,0,0,0-2.5-.9l-11.4.2a2.69,2.69,0,0,0-2.4,1.4l-.2.3A4.34,4.34,0,0,0,8.6,77.7ZM22.4,60.6l5.7,5.2A13.56,13.56,0,0,1,9,66.6l5.2-5.7A5.92,5.92,0,0,0,22.4,60.6Zm-.3-8.3,5.2-5.7h0a13.56,13.56,0,0,1,.8,19.1l-5.7-5.2A5.83,5.83,0,0,0,22.1,52.3Zm-8.3.3L8.1,47.4h0a13.56,13.56,0,0,1,19.1-.8L22,52.3A5.92,5.92,0,0,0,13.8,52.6Zm-4.9,14a13.56,13.56,0,0,1-.8-19.1l5.7,5.2a5.83,5.83,0,0,0,.4,8.2Zm3.3-10A5.8,5.8,0,1,0,18,50.8,5.8,5.8,0,0,0,12.2,56.6Z" style="fill:#fff;stroke:#111414;stroke-miterlimit:10;stroke-width:0.5px"/><path class="braces" d="M16.3,86.3a2,2,0,0,0,1.1.2h1.2a3.55,3.55,0,0,0,1-.2h0V89a3.55,3.55,0,0,0-1-.2H17.4a4.25,4.25,0,0,0-1.1.2V86.3h0m4.6-3.9H19.8c-.4.1-.7.4-.6.8v.5c0,.4-.3.8-.6.8H17.5a.64.64,0,0,1-.6-.8v-.5a.76.76,0,0,0-.6-.8H15.2a.64.64,0,0,0-.6.8V87L0,86.9v1.3l14.6.1v3.8c0,.4.3.8.6.8h1.1c.4-.1.7-.4.6-.8v-.6c0-.4.3-.8.6-.8h1.2a.64.64,0,0,1,.6.8V92a.76.76,0,0,0,.6.8H21a.77.77,0,0,0,.7-.8V88.2H35.9V86.9H21.7V83.1a1.14,1.14,0,0,0-.8-.7Z"/><path class="gum" d="M35.9,105c-1.4,0-7.5-.1-12-.1a8.73,8.73,0,0,1-6,2,12.41,12.41,0,0,1-5-1H0" style="fill:none;stroke:#ffb900;stroke-linejoin:round;stroke-width:3px"/><path class="paradontit1" d="M0,106a25.82,25.82,0,0,1,10.6,1.3c2.4.8,3,4.9,7.4,4.9s4.1-3.5,7.3-5.3,8.5-1.7,10.6-1.7" style="fill:none;stroke:#ff822e;stroke-linejoin:round;stroke-width:3px"/><path class="paradontit2" d="M35.9,105H34.4c-2,0-3.5,2.1-4.3,3.1s-8.2,7.9-9.6,8.2c-2.5.6-7.5.9-10.8-5.8-2.8-5.9-7.4-4.6-9.7-4.6" style="fill:none;stroke:#f9610d;stroke-linejoin:round;stroke-width:3px"/><path class="paradontit3" d="M35.9,105c-2,0-6.8,1-7.4,2.9-2,6.3-2.1,12-9.1,13s-6.6-4.4-8.1-10.8c-1.1-4.2-8.5-4.2-11.3-4.2" style="fill:none;stroke:#f9610d;stroke-linejoin:round;stroke-width:3px"/><path class="paradontit4" d="M35.9,105.1s-7.7,0-8.9,3.9c-1.6,8.8-.5,17.1-8.5,17.1S10.6,116.8,9,108c-.4-1.9-6.2-2-9-2" style="fill:none;stroke:#f75403;stroke-linejoin:round;stroke-width:3px"/><path class="periodontit" d="M14.5,154a4.5,4.5,0,1,1-4.5,4.5A4.48,4.48,0,0,1,14.5,154Z" style="fill:#3535ed"/></g></g></g></svg>