<svg xmlns="http://www.w3.org/2000/svg" viewBox="0 0 28.5 180.9"><title>42tooth</title><g class="Слой_2" data-name="Слой 2"><g class="Слой_1-2" data-name="Слой 1"><g class="_42" data-name="42"><path class="background" d="M28.5,0V103.8h0v77H0V0Z" style="fill:#9fdaff"/><path class="bone" d="M28.5,105.9v43h0v32H0v-75Z" style="fill:#de82a7"/><path class="bridge" d="M28.5,84.4H0v-4H28.5Zm0-54H0v4H28.5Zm0,25H0v4H28.5Z" style="fill:#3535ed"/><path class="root" d="M20.9,98.9c-1.8,25-3.6,52.6-8.7,56.2-2.5,2.7-4.1,2.8-4.8.5a8.31,8.31,0,0,1-.1-3.5c3.2-14.5,2.4-31.5-1.2-50.4" style="fill:#f4ecc8;stroke:#111414;stroke-miterlimit:10;stroke-width:0.25px"/><path class="rootCanal" d="M8.7,157.3h0c-.3-.3.1-2.3.5-5a148.78,148.78,0,0,0-.5-54.4,4,4,0,0,1,3.4-2.3c2.9,0,5.9,3.6,5.9,3.6-.1.4-4.9,52.8-8.7,57.6C8.9,157.3,8.7,157.3,8.7,157.3ZM12,95.8h0c2.6,0,5.3,3,5.8,3.5-.2,2.7-4.9,52.9-8.6,57.5a1.2,1.2,0,0,1-.4.4,26.3,26.3,0,0,1,.6-4.8c1.4-8.8,4.6-29.3-.5-54.3A3.31,3.31,0,0,1,12,95.8m0-.3c-1.2,0-2.5.6-3.5,2.5,7,34.2-1.5,59.5.2,59.5a1.49,1.49,0,0,0,.7-.6c3.9-4.8,8.7-57.7,8.7-57.7S15,95.5,12,95.5Z" style="fill:none"/><path class="implant" d="M5.9,142a1.9,1.9,0,0,0,1,1.6,15.23,15.23,0,0,0,12.2-.1,1.39,1.39,0,0,0,.7-.8l-14-2Zm-.1-2.9,14.3,2,.1-2.4L5.8,136.5Zm-.1-4,14.5,2.2.1-2.4L5.6,132.7ZM5.5,131l14.8,2.2.1-2.5-15-2.2Zm-.2-4,15.1,2.2.1-2.4L5.3,124.5V127Zm-.1-4,15.3,2.3.1-2.5L5,120.5ZM5,117.9l15.7,2.3.1-2.5L5,115.4Zm-.1-3,15.9,2.3.1-2.6-16,.1ZM3.3,112a1.07,1.07,0,0,0,.2.6.91.91,0,0,0,.7.3H5.3l15-.1h1.1a.91.91,0,0,0,.7-.3,1.07,1.07,0,0,0,.2-.6V110h-.4l-18.1.1H3.4Zm-.5-4.8a1.49,1.49,0,0,0,.4.9.6.6,0,0,0,.4.1l18.1-.1a1.08,1.08,0,0,0,1-1v-1.2a.94.94,0,0,0-1-1h0L3.6,105a1.08,1.08,0,0,0-1,1h0Z" style="fill:#3535ed"/><path class="rootMusk" d="M20.9,98.9c-1.8,25-3.6,52.6-8.7,56.2-2.5,2.7-4.1,2.8-4.8.5a8.31,8.31,0,0,1-.1-3.5c3.2-14.5,2.4-31.5-1.2-50.4" style="fill:#f4ecc8;stroke:#111414;stroke-miterlimit:10;stroke-width:0.25px"/><path class="coronaLingual" d="M12.6,7.1c2.1-1.6,3.8-1.1,5.2,1.5a3.18,3.18,0,0,1,.3.9c1.8,7,3.9,14.8,5.8,23,1.1,4.1.8,6.6-1.7,6.9L5.8,38.2c-1.9-.9-2.1-3.8-1.6-7.5a138.29,138.29,0,0,1,5.7-20A8.8,8.8,0,0,1,12.6,7.1Z" style="fill:#fff;stroke:#111414;stroke-miterlimit:10;stroke-width:0.5px"/><path class="coronaLingualIncisalDistal" d="M4.3,30.5c.1-.2.1-.5.2-.7h6.6v8.6L5.9,38C4,37.1,3.8,34.3,4.3,30.5Z" style="fill:#3535ed"/><path class="coronaLingualIncisalMiddle" d="M17,29.8v9l-6-.4V29.8Z" style="fill:#3535ed"/><path class="coronaLingualIncisionMesial" d="M23.3,29.8c.2.8.4,1.6.6,2.5,1.1,4.1.8,6.6-1.7,6.9L17,38.8v-9Z" style="fill:#3535ed"/><path class="coronaLingualMiddleDistal" d="M8,16.2h3V29.9H4.4A130.18,130.18,0,0,1,8,16.2Z" style="fill:#3535ed"/><path class="coronaLingualMiddleMiddle" d="M11,16.2h6V29.9H11V16.2Z" style="fill:#3535ed"/><path class="coronaLingualMiddleMesial" d="M19.8,16.2c1.1,4.4,2.3,8.9,3.4,13.7H17V16.2Z" style="fill:#3535ed"/><path class="coronaLingualCervicalDistal" d="M10,10.7a7.5,7.5,0,0,1,1-2v7.6H8C8.6,14.5,9.3,12.6,10,10.7Z" style="fill:#3535ed"/><path class="coronaLingualCervicalMiddle" d="M12.6,7c1.7-1.3,3.2-1.2,4.4.4v8.8H11V8.6A4.89,4.89,0,0,1,12.6,7Z" style="fill:#3535ed"/><path class="coronaLingualCervicalMesial" d="M17.7,8.5a3.18,3.18,0,0,1,.3.9c.6,2.2,1.2,4.5,1.8,6.8H17V7.4A4.13,4.13,0,0,1,17.7,8.5Z" style="fill:#3535ed"/><path class="coronaLabial" d="M2,82.7a9.09,9.09,0,0,1,1.4-6.2,3.66,3.66,0,0,1,3-1.6L19.6,74c1.6,0,2.6.9,2.9,3.1a147.27,147.27,0,0,1-.4,17.6,13,13,0,0,1-2,5.7c-5.8,8.8-10.4,9.1-13.8,1.1A98.71,98.71,0,0,1,2,82.7Z" style="fill:#fff;stroke:#111414;stroke-miterlimit:10;stroke-width:0.5px"/><path class="coronaLabialIncisalDistal" d="M3.4,76.5a3.66,3.66,0,0,1,3-1.6l3-.2v5H2.2A7.83,7.83,0,0,1,3.4,76.5Z" style="fill:#3535ed"/><path class="coronaLabialIncisalMiddle" d="M18,74.1v5.6H9.3v-5Z" style="fill:#3535ed"/><path class="coronaLabialIncisionMesial" d="M19.6,74c1.6,0,2.6.9,2.9,3.1a21.75,21.75,0,0,0,.1,2.6H18V74.1Z" style="fill:#3535ed"/><path class="coronaLabialMiddleDistal" d="M2.1,79.7H9.3V98H5.1A116.65,116.65,0,0,1,2,82.6,14.31,14.31,0,0,1,2.1,79.7Z" style="fill:#3535ed"/><path class="coronaLabialMiddleMiddle" d="M9.3,79.7H18V98H9.3V79.7Z" style="fill:#3535ed"/><path class="coronaLabialMiddleMesial" d="M22.5,79.7a125.32,125.32,0,0,1-.5,15,12.26,12.26,0,0,1-.8,3.3H18V79.7Z" style="fill:#3535ed"/><path class="coronaLabialCervicalDistal" d="M9.3,98.2v8.1a12.45,12.45,0,0,1-3.1-4.7,35.8,35.8,0,0,1-1.1-3.5l4.2.1Z" style="fill:#3535ed"/><path class="coronaLabialCervicalMiddle" d="M18,98.1v5.1q-5,6.15-8.7,3V98.1Z" style="fill:#3535ed"/><path class="coronaLabialCervicalMesial" d="M21.2,98.1a10.08,10.08,0,0,1-1.2,2.3c-.7,1-1.4,2-2,2.8V98.1Z" style="fill:#3535ed"/><path class="veneer" d="M15.9,82.5l-1.5-1.3c-2.2-2-2.3-2.3-1.3-5.4l.6-2.1-1.1,1.8c-1.7,2.7-1.9,2.8-4.5,1.6l-1.7-.8,1.5,1.3c2.2,2,2.3,2.3,1.3,5.4l-.6,2.1,1.1-1.7c1.7-2.7,1.9-2.8,4.5-1.6ZM14.8,94l-1.5-1.3c-1.3-1.2-1.4-1.4-.8-3.3l.6-2.1L12,89.1c-1,1.6-1.1,1.7-2.7,1l-1.7-.8,1.5,1.3c1.3,1.2,1.4,1.4.8,3.3L9.3,96l1.1-1.8c1-1.6,1.1-1.7,2.7-1ZM8.4,89.1,6.9,87.8c-1.3-1.2-1.4-1.4-.8-3.3l.6-2.1L5.6,84.2c-1,1.6-1.1,1.7-2.7,1l-1.7-.8,1.5,1.3c1.3,1.2,1.4,1.4.8,3.3l-.6,2.1L4,89.3c1-1.6,1.1-1.7,2.8-1Zm16.5-6.3-1.5-1.3c-1.3-1.2-1.4-1.4-.8-3.3l.6-2.1-1,1.8c-1,1.6-1.1,1.7-2.7,1l-1.7-.8,1.5,1.3c1.3,1.2,1.4,1.4.8,3.3l-.6,2.1L20.6,83c1-1.6,1.2-1.7,2.8-1ZM27.7,91l-1.5-1.3c-1.3-1.2-1.4-1.3-.8-3.3l.6-2.1-1.1,1.8c-1,1.6-1.1,1.7-2.7,1l-1.7-.8L22,87.6c1.3,1.2,1.4,1.3.8,3.3L22.2,93l1.1-1.8c1-1.6,1.1-1.7,2.8-1Z" style="fill:#3535ed"/><path class="coronaTop" d="M10.3,61,5.1,66.7a13.56,13.56,0,0,0,19.1-.8h0l-5.7-5.2A5.92,5.92,0,0,1,10.3,61Zm8.2-.4,5.7,5.2a13.56,13.56,0,0,0-.8-19.1l-5.2,5.6a6,6,0,0,1,.3,8.3Zm-.3-8.2,5.2-5.7a13.56,13.56,0,0,0-19.1.8L10,52.7A5.83,5.83,0,0,1,18.2,52.4ZM10.3,61a5.83,5.83,0,0,1-.4-8.2L4.2,47.6A13.56,13.56,0,0,0,5,66.7Zm-1-7.2a5.78,5.78,0,1,1,2.1,7.9A5.85,5.85,0,0,1,9.3,53.8Z" style="fill:#fff;stroke:#000;stroke-miterlimit:10"/><path class="coronaTopBuccal" d="M10.3,61,5.1,66.7a13.56,13.56,0,0,0,19.1-.8h0l-5.7-5.2A5.92,5.92,0,0,1,10.3,61Z" style="fill:#3535ed"/><path class="coronaTopMedial" d="M18.5,60.6l5.7,5.2a13.56,13.56,0,0,0-.8-19.1l-5.2,5.6a6,6,0,0,1,.3,8.3Z" style="fill:#3535ed"/><path class="coronaTopLingual" d="M18.2,52.4l5.2-5.7a13.56,13.56,0,0,0-19.1.8L10,52.7A5.83,5.83,0,0,1,18.2,52.4Z" style="fill:#3535ed"/><path class="coronaTopDistal" d="M10.3,61a5.83,5.83,0,0,1-.4-8.2L4.2,47.6A13.56,13.56,0,0,0,5,66.7Z" style="fill:#3535ed"/><path class="coronaTopOclusial" d="M9.3,53.8a5.78,5.78,0,1,1,2.1,7.9A5.85,5.85,0,0,1,9.3,53.8Z" style="fill:#3535ed"/><path class="silant" d="M6.3,64.8A19,19,0,0,0,13.2,66c5.8,0,9.2-2.2,9.2-5.4,0-2.7-2.2-4.2-6.4-5.4-3.2-.9-4.7-1.6-4.7-3.1,0-1.3,1.5-2.5,4.1-2.5a13.11,13.11,0,0,1,5,1l1.1-2.4a15.66,15.66,0,0,0-6-1.1c-5.3,0-8.4,2.4-8.4,5.3,0,2.2,2.1,4,6.5,5.1,3.3.9,4.5,1.8,4.5,3.3s-1.5,2.7-4.8,2.7a16.09,16.09,0,0,1-5.9-1.3Z" style="fill:#3535ed"/><path class="crown" d="M12.6,7.1c2.1-1.6,3.8-1.1,5.2,1.5a3.18,3.18,0,0,1,.3.9c1.8,7,3.9,14.8,5.8,23,1.1,4.1.8,6.6-1.7,6.9L5.8,38.2c-1.9-.9-2.1-3.8-1.6-7.5a138.29,138.29,0,0,1,5.7-20A8.8,8.8,0,0,1,12.6,7.1ZM6.3,101.5c3.4,8,8,7.7,13.8-1.1a13,13,0,0,0,2-5.7,147.27,147.27,0,0,0,.4-17.6c-.3-2.2-1.3-3.1-2.9-3.1l-13.2.9a3.66,3.66,0,0,0-3,1.6A9.09,9.09,0,0,0,2,82.7,98.71,98.71,0,0,0,6.3,101.5ZM18.5,60.7l5.7,5.2h0a13.56,13.56,0,0,1-19.1.8L10.3,61A5.92,5.92,0,0,0,18.5,60.7Zm0-.1a6,6,0,0,0-.3-8.3l5.2-5.6a13.56,13.56,0,0,1,.8,19.1l-5.7-5.2ZM10,52.7,4.3,47.5a13.56,13.56,0,0,1,19.1-.8l-5.2,5.7A5.83,5.83,0,0,0,10,52.7Zm-5,14a13.56,13.56,0,0,1-.8-19.1l5.7,5.2a5.83,5.83,0,0,0,.4,8.2Zm6.4-5a5.78,5.78,0,1,0-2.1-7.9A5.85,5.85,0,0,0,11.4,61.7Z" style="fill:#fff;stroke:#111414;stroke-miterlimit:10;stroke-width:0.5px"/><path class="braces" d="M12.6,86.3a2,2,0,0,0,1.1.2h1.2a3.55,3.55,0,0,0,1-.2h0V89a3.55,3.55,0,0,0-1-.2H13.7a4.25,4.25,0,0,0-1.1.2V86.3h0m4.6-3.9H16.1c-.4.1-.7.4-.6.8v.5c0,.4-.3.8-.6.8H13.8a.77.77,0,0,1-.7-.8v-.5a.76.76,0,0,0-.6-.8H11.4a.77.77,0,0,0-.7.8V87H.1v1.3H10.7v3.8a.77.77,0,0,0,.7.8h1.1c.4-.1.7-.4.6-.8v-.6a.77.77,0,0,1,.7-.8H15a.64.64,0,0,1,.6.8V92a.76.76,0,0,0,.6.8h1.1a.64.64,0,0,0,.6-.8V88.2H28.5V86.9H17.9V83.1a.84.84,0,0,0-.7-.7Z"/><path class="gum" d="M28.5,106h-11a11.92,11.92,0,0,1-6,2,4.34,4.34,0,0,1-4-2H0" style="fill:none;stroke:#ffb900;stroke-linejoin:round;stroke-width:3px"/><path class="paradontit1" d="M28.5,106h-4a4.53,4.53,0,0,0-3.8,2.1,8.21,8.21,0,0,1-7.4,4.1c-2.9,0-6.1-.7-7.4-3.5A4.5,4.5,0,0,0,1.8,106H0" style="fill:none;stroke:#ff822e;stroke-linejoin:round;stroke-width:3px"/><path class="paradontit2" d="M0,106c2,0,3.4.6,5,2.9,2.2,3.3,3.5,7.5,7.3,7.5,7,0,7.3-4.2,9.4-8,.7-2.3,6.6-2.5,6.8-2.5" style="fill:none;stroke:#f9610d;stroke-linejoin:round;stroke-width:3px"/><path class="paradontit3" d="M28.5,106s-5.3,0-7.6,4.5c-2.1,3.7-.9,9-7.9,10-4.9.7-6.2-8.3-8.6-12.8C3.5,106,0,106,0,106" style="fill:none;stroke:#f9610d;stroke-linejoin:round;stroke-width:3px"/><path class="paradontit4" d="M28.5,106H26.6a4.42,4.42,0,0,0-4.2,2.9c-2.2,5.7-.8,15.7-8.8,15.7s-8.2-9-9.4-15A4.38,4.38,0,0,0,0,106" style="fill:none;stroke:#f75403;stroke-linejoin:round;stroke-width:3px"/><path class="periodontit" d="M9,155a4.5,4.5,0,1,1-4.5,4.5A4.48,4.48,0,0,1,9,155Z" style="fill:#3535ed"/></g></g></g></svg>