<svg xmlns="http://www.w3.org/2000/svg" viewBox="0 0 33.9 180.8"><title>43tooth</title><g class="Слой_2" data-name="Слой 2"><g class="Слой_1-2" data-name="Слой 1"><g class="_43" data-name="43"><path class="background" d="M33.9,0V180.8H0V0Z" style="fill:#9fdaff"/><path class="bone" d="M33.9,105.8v75H0v-75Z" style="fill:#de82a7"/><path class="bridge" d="M33.9,34.4H0v-4H33.9Zm0,21H0v4H33.9Zm0,25H0v4H33.9Z" style="fill:#3535ed"/><path class="root" d="M5.9,106c2.8,22.2,5.7,44.6,2.3,59.5a7.57,7.57,0,0,0,.4,4.7c1,2.2,2.6,2.1,4.6-.2a14.25,14.25,0,0,0,2.5-4.3c5.5-15.7,7.6-39.8,8.8-66" style="fill:#f4ecc8;stroke:#111414;stroke-miterlimit:10;stroke-width:0.25px"/><path class="rootCanal" d="M10.9,171.1a.37.37,0,0,1-.3-.1c-.1-.1-.1-.1-.1-.2,1.1-10.1,4.5-45.3.6-71.8a4,4,0,0,1,3.4-2.3c2.9,0,5.9,3.6,5.9,3.6-4.2,53.2-6.8,64.1-9.1,70.6A.4.4,0,0,1,10.9,171.1Zm3.6-74.6v.2c2.6,0,5.3,3,5.8,3.5-4.2,53.2-6.8,64-9.1,70.6l-.2.2c-.1,0-.2,0-.2-.1v-.1c1.1-10.1,4.5-45.2.6-71.8a3.57,3.57,0,0,1,3.2-2.2v-.3m-.1,0A4,4,0,0,0,11,98.9c3.4,23.1,1.5,53.5-.6,71.8a.47.47,0,0,0,.5.5.55.55,0,0,0,.5-.3c2.3-6.7,5-18.1,9.1-70.8,0,.1-3-3.6-6-3.6Z" style="fill:none"/><path class="implant" d="M7.9,142a1.78,1.78,0,0,0,1,1.6,15.23,15.23,0,0,0,12.2-.1,1.39,1.39,0,0,0,.7-.8l-14-2.1Zm-.1-3,14.3,2.1.1-2.4L7.8,136.5V139Zm-.1-4,14.5,2.2.1-2.4L7.6,132.6Zm-.2-4,14.8,2.2.1-2.4-15-2.2Zm-.1-4.1,15,2.2.1-2.4L7.3,124.4Zm-.2-4,15.3,2.3.1-2.4L7,120.5ZM7,117.8l15.7,2.3.1-2.4L7,115.4ZM6.9,115l15.9,2.3.1-2.6-16,.1Zm-1.6-3a1.07,1.07,0,0,0,.2.6.91.91,0,0,0,.7.3H7.3l15-.1h1.1a.91.91,0,0,0,.7-.3,1.07,1.07,0,0,0,.2-.6V110h-.4l-18.1.1H5.4Zm-.5-4.8a1,1,0,0,0,.4.8.6.6,0,0,0,.4.1l18.1-.1c.2,0,.3-.1.4-.1a.91.91,0,0,0,.4-.8v-1.3a.94.94,0,0,0-1-1h0l-18.1.1a1.08,1.08,0,0,0-1,1h0v1.3Z" style="fill:#3535ed"/><path class="rootMask" d="M5.9,106c2.8,22.2,5.7,44.6,2.3,59.5a7.57,7.57,0,0,0,.4,4.7c1,2.2,2.6,2.1,4.6-.2a14.25,14.25,0,0,0,2.5-4.3c5.5-15.7,7.6-39.8,8.8-66" style="fill:#f4ecc8;stroke:#111414;stroke-miterlimit:10;stroke-width:0.25px"/><path class="coronaLingual" d="M13.1,5.3C15.5,3,17.8,2.6,20,4.2a6.34,6.34,0,0,1,1.9,2.4c3.9,9.8,9,20.2,6.1,26.6a6.73,6.73,0,0,1-.7,1.1c-6.3,7.5-13,7.5-20.1.1a6.14,6.14,0,0,1-1.5-2.6C3.8,24.8,8.6,15.7,12.1,7A2.7,2.7,0,0,1,13.1,5.3Z" style="fill:#fff;stroke:#111414;stroke-miterlimit:10;stroke-width:0.5px"/><path class="coronaLingualIncisalDistal" d="M12.6,28.6v9.8a21.83,21.83,0,0,1-5.4-4.2,6.14,6.14,0,0,1-1.5-2.6,10.32,10.32,0,0,1-.4-3Z" style="fill:#3535ed"/><path class="coronaLingualIncisalMiddle" d="M19.9,28.6V39.4a9.77,9.77,0,0,1-7.3-1V28.6Z" style="fill:#3535ed"/><path class="coronaLingualIncisionMesial" d="M28.7,28.6a11.08,11.08,0,0,1-.8,4.4,3.59,3.59,0,0,1-.7,1c-2.4,2.9-4.9,4.7-7.4,5.3V28.5Z" style="fill:#3535ed"/><path class="coronaLingualMiddleDistal" d="M8.7,14.9h3.9V28.6H5.3C5.2,24.4,6.8,19.7,8.7,14.9Z" style="fill:#3535ed"/><path class="coronaLingualMiddleMiddle" d="M12.6,14.9h7.3V28.6H12.6Z" style="fill:#3535ed"/><path class="coronaLingualMiddleMesial" d="M25.3,14.9c1.9,4.9,3.5,9.7,3.5,13.7H19.9V14.9Z" style="fill:#3535ed"/><path class="coronaLingualCervicalDistal" d="M12,6.7a2.07,2.07,0,0,1,.6-1v9.2H8.7C9.7,12.2,10.9,9.4,12,6.7Z" style="fill:#3535ed"/><path class="coronaLingualCervicalMiddle" d="M13.1,5.1c2.3-2.2,4.6-2.7,6.8-1.2v11H12.6V5.7A2.65,2.65,0,0,1,13.1,5.1Z" style="fill:#3535ed"/><path class="coronaLingualCervicalMesial" d="M19.7,4a5.66,5.66,0,0,1,1.9,2.4c1.1,2.8,2.3,5.7,3.4,8.5H19.6L19.7,4Z" style="fill:#3535ed"/><path class="coronaLabial" d="M2.4,87.6a13.16,13.16,0,0,1,2.4-7.9c8.4-7.5,15.3-9.4,19.5,0,2.1,3.3,2.6,8,1.9,13.5a58.48,58.48,0,0,1-3.4,11,11.73,11.73,0,0,1-1.9,3c-5.8,6.4-10.4,5.9-14.2.4a8.86,8.86,0,0,1-.8-1.7A103.71,103.71,0,0,1,2.4,87.6Z" style="fill:#fff;stroke:#111414;stroke-miterlimit:10;stroke-width:0.5px"/><path class="coronaLabialIncisalDistal" d="M4.9,79.8a32,32,0,0,1,5.5-4.2v4.3l-5.5-.1Z" style="fill:#3535ed"/><path class="coronaLabialIncisalMiddle" d="M20.3,74.4v5.4h-10V75.4C14.2,73.1,17.6,72.5,20.3,74.4Z" style="fill:#3535ed"/><path class="coronaLabialIncisionMesial" d="M24.1,79.6l.1.1h-4V74.4A11.24,11.24,0,0,1,24.1,79.6Z" style="fill:#3535ed"/><path class="coronaLabialMiddleDistal" d="M2.4,87.6a12.06,12.06,0,0,1,2.4-7.8h5.6V98.1H4A105.38,105.38,0,0,1,2.4,87.6Z" style="fill:#3535ed"/><path class="coronaLabialMiddleMiddle" d="M10.3,79.7h10V98h-10Z" style="fill:#3535ed"/><path class="coronaLabialMiddleMesial" d="M24.2,79.7c2.1,3.3,2.5,8,1.9,13.4-.4,1.7-.8,3.4-1.2,5H20.2V79.7Z" style="fill:#3535ed"/><path class="coronaLabialCervicalDistal" d="M10.3,98.2v13a10.34,10.34,0,0,1-3.6-3.6,8.86,8.86,0,0,1-.8-1.7A73.76,73.76,0,0,1,4,98.1Z" style="fill:#3535ed"/><path class="coronaLabialCervicalMiddle" d="M20.3,97.8v9.7c-3.8,4-7.1,4.9-10,3.4v-13Z" style="fill:#3535ed"/><path class="coronaLabialCervicalMesial" d="M24.8,98.2a62.63,62.63,0,0,1-2.1,6.1,11.73,11.73,0,0,1-1.9,3l-.6.6V98.2Z" style="fill:#3535ed"/><path class="veneer" d="M16.2,81.4l-1.6-1.2c-2.4-1.8-2.5-2.1-1.4-4.9l.7-1.8-1.2,1.6c-1.8,2.3-2.1,2.4-4.9,1.4l-1.9-.7L7.5,77c2.4,1.8,2.5,2.1,1.4,4.9l-.7,1.8,1.2-1.6c1.8-2.3,2.1-2.5,4.9-1.4ZM15,91.7l-1.6-1.2c-1.4-1.1-1.5-1.2-.9-2.9l.7-1.8L12,87.4c-1.1,1.4-1.2,1.5-2.9.9l-1.9-.7,1.6,1.2c1.4,1.1,1.5,1.2.9,2.9L9,93.5l1.2-1.6c1.1-1.4,1.2-1.5,2.9-.9ZM8,87.2,6.4,86c-1.4-1.1-1.5-1.2-.9-2.9l.7-1.8L5,82.9c-1.1,1.4-1.2,1.5-2.9.9L.2,83.1l1.6,1.2c1.4,1.1,1.5,1.2.9,2.9L2,89l1.2-1.6c1.1-1.4,1.2-1.5,3-.9Zm17.8-5.6-1.6-1.2c-1.4-1.1-1.5-1.2-.9-2.9l.7-1.8-1.1,1.6c-1.1,1.4-1.2,1.5-2.9.9l-1.9-.7,1.6,1.2c1.4,1.1,1.5,1.2.9,2.9l-.7,1.8,1.2-1.6c1.1-1.4,1.2-1.5,3-.9ZM28.9,89l-1.6-1.2c-1.4-1.1-1.5-1.2-.9-2.9l.7-1.8-1.2,1.6c-1.1,1.4-1.2,1.5-2.9.9l-1.9-.7,1.6,1.2c1.4,1.1,1.5,1.2.9,2.9l-.7,1.8,1.2-1.6c1.1-1.4,1.2-1.5,3-.9Z" style="fill:#3535ed"/><path class="coronaTop" d="M13.1,61,7.9,66.7A13.56,13.56,0,0,0,27,65.9l-5.7-5.2A5.83,5.83,0,0,1,13.1,61Zm8.2-.3L27,65.9a13.56,13.56,0,0,0-.8-19.1L21,52.5a5.92,5.92,0,0,1,.3,8.2Zm-.4-8.2,5.2-5.7A13.56,13.56,0,0,0,7,47.6H7l5.7,5.2A5.83,5.83,0,0,1,20.9,52.5ZM13.1,61a5.83,5.83,0,0,1-.4-8.2L7,47.6a13.56,13.56,0,0,0,.8,19.1Zm-1.2-7.2A5.78,5.78,0,1,1,14,61.7,5.76,5.76,0,0,1,11.9,53.8Z" style="fill:#fff;stroke:#000;stroke-miterlimit:10"/><path class="coronaTopBuccal" d="M13.1,61,7.9,66.7A13.56,13.56,0,0,0,27,65.9l-5.7-5.2A5.83,5.83,0,0,1,13.1,61Z" style="fill:#3535ed"/><path class="coronaTopMedial" d="M21.3,60.7,27,65.9a13.56,13.56,0,0,0-.8-19.1L21,52.5a5.92,5.92,0,0,1,.3,8.2Z" style="fill:#3535ed"/><path class="coronaTopLingual" d="M20.9,52.5l5.2-5.7A13.56,13.56,0,0,0,7,47.6H7l5.7,5.2A5.83,5.83,0,0,1,20.9,52.5Z" style="fill:#3535ed"/><path class="coronaTopDistal" d="M13.1,61a5.83,5.83,0,0,1-.4-8.2L7,47.6a13.56,13.56,0,0,0,.8,19.1Z" style="fill:#3535ed"/><path class="coronaTopOclusial" d="M11.9,53.8A5.78,5.78,0,1,1,14,61.7,5.76,5.76,0,0,1,11.9,53.8Z" style="fill:#3535ed"/><path class="silant" d="M9,64.8A19,19,0,0,0,15.9,66c5.8,0,9.2-2.2,9.2-5.4,0-2.7-2.2-4.2-6.4-5.4-3.2-.9-4.7-1.6-4.7-3.1,0-1.3,1.5-2.5,4.1-2.5a13.11,13.11,0,0,1,5,1l1.1-2.4a15.66,15.66,0,0,0-6-1.1c-5.3,0-8.4,2.4-8.4,5.3,0,2.2,2.1,4,6.5,5.1,3.3.9,4.5,1.8,4.5,3.3s-1.5,2.7-4.8,2.7a16.09,16.09,0,0,1-5.9-1.3Z" style="fill:#3535ed"/><path class="crown" d="M13.1,5.3C15.5,3,17.8,2.6,20,4.2a6.34,6.34,0,0,1,1.9,2.4c3.9,9.8,9,20.2,6.1,26.6a6.73,6.73,0,0,1-.7,1.1c-6.3,7.5-13,7.5-20.1.1a6.14,6.14,0,0,1-1.5-2.6C3.8,24.8,8.6,15.7,12.1,7A2.7,2.7,0,0,1,13.1,5.3ZM5.9,105.9a8.86,8.86,0,0,0,.8,1.7c3.8,5.5,8.4,6,14.2-.4a11.73,11.73,0,0,0,1.9-3,58.48,58.48,0,0,0,3.4-11c.7-5.5.2-10.2-1.9-13.5-4.2-9.4-11.1-7.5-19.5,0a13.16,13.16,0,0,0-2.4,7.9A103.71,103.71,0,0,0,5.9,105.9ZM21.3,60.7,27,65.9a13.56,13.56,0,0,1-19.1.8L13.1,61A5.83,5.83,0,0,0,21.3,60.7Zm0,0a5.92,5.92,0,0,0-.3-8.2l5.2-5.7A13.56,13.56,0,0,1,27,65.9l-5.7-5.2Zm-8.6-7.9L7,47.6H7a13.56,13.56,0,0,1,19.1-.8l-5.2,5.7A5.83,5.83,0,0,0,12.7,52.8ZM7.8,66.7A13.56,13.56,0,0,1,7,47.6l5.7,5.2a5.83,5.83,0,0,0,.4,8.2Zm6.2-5a5.78,5.78,0,1,0-2.1-7.9A5.76,5.76,0,0,0,14,61.7Z" style="fill:#fff;stroke:#111414;stroke-miterlimit:10;stroke-width:0.5px"/><path class="braces" d="M15.3,86.3a2,2,0,0,0,1.1.2h1.2a3.55,3.55,0,0,0,1-.2h0V89a3.55,3.55,0,0,0-1-.2H16.4a4.25,4.25,0,0,0-1.1.2V86.3h0m4.6-3.9H18.8c-.4.1-.7.4-.6.8v.5c0,.4-.3.8-.6.8H16.5a.77.77,0,0,1-.7-.8v-.5a.76.76,0,0,0-.6-.8H14a.77.77,0,0,0-.7.8V87H0v1.3H13.3v3.8a.77.77,0,0,0,.7.8h1.1c.4-.1.7-.4.6-.8v-.6a.77.77,0,0,1,.7-.8h1.2a.64.64,0,0,1,.6.8V92a.76.76,0,0,0,.6.8h1.1a.64.64,0,0,0,.6-.8V88.2H33.9V86.9H20.5V83.1c.1-.3-.2-.6-.6-.7Z"/><path class="gum" d="M33.9,106H22.6s-3.1,6-9.3,6-7.7-6.2-7.7-6.2H0" style="fill:none;stroke:#ffb900;stroke-linejoin:round;stroke-width:3px"/><path class="paradontit1" d="M33.9,106h-6a4.23,4.23,0,0,0-3.9,1.8c-1.8,2.8-5.7,8.2-9.9,8.2-4,0-6.2-4.8-7.4-7.6a4.65,4.65,0,0,0-4.2-2.7H0" style="fill:none;stroke:#ff822e;stroke-linejoin:round;stroke-width:3px"/><path class="paradontit2" d="M33.9,106H29.5c-1.8,0-3.1,0-3.9,1.5-2.1,4-3.3,10.9-10.6,11.9s-9-7.6-10.8-11.7c-1-2.1-4.2-2.1-4.2-2.1" style="fill:none;stroke:#f9610d;stroke-linejoin:round;stroke-width:3px"/><path class="paradontit3" d="M33.8,106H29.5c-1.8,0-3.2,0-4,1.5-2.1,4-3.1,16.1-11.4,16.1S3.7,106.1,2.7,105.9a13.19,13.19,0,0,0-2.7-.3" style="fill:none;stroke:#f9610d;stroke-linejoin:round;stroke-width:3px"/><path class="paradontit4" d="M33.9,106H30.3a4.71,4.71,0,0,0-4.5,3.4c-2,7-2.7,18.3-11,18.3S5.4,116.6,3.7,109.5c-.5-1.9-2-3.6-3.7-3.6" style="fill:none;stroke:#f75403;stroke-linejoin:round;stroke-width:3px"/><path class="periodontit" d="M11,169c2.7.4,4.5.3,4.5,4.5a4.5,4.5,0,0,1-9,0A4.3,4.3,0,0,1,11,169Z" style="fill:#3535ed"/></g></g></g></svg>