<svg xmlns="http://www.w3.org/2000/svg" viewBox="0 0 46.6 180.9"><title>46tooth</title><g class="Слой_2" data-name="Слой 2"><g class="Слой_1-2" data-name="Слой 1"><g class="_46" data-name="46"><path class="background" d="M.1,0H46.5V180.8H.1Z" style="fill:#9fdaff"/><path class="bone" d="M.1,105.9H46.5v75H.1Z" style="fill:#de82a7"/><path class="bridge" d="M46.5,84.4H.1v-4H46.5Zm0-54H.1v4H46.5Zm0,25H.1v4H46.5Z" style="fill:#3535ed"/><path class="root" d="M5.7,105.3c2,7.2-.6,10.1-2.1,26.2s.1,17.9.1,27.1c.5,5.5,2.2,6.6,4.9,4.1,3.8-5.1,2-11.5,2.8-19a48.75,48.75,0,0,1,9.8-23c1.6-1.8,3.1-2.4,4.7-1.3,4,1.8,5.3,6.2,4.4,13-.1,9.4-1.4,16.8-4.2,21.9a14,14,0,0,0-1.4,3.9c-.5,3.1.4,4,3.6,1.6,6.2-3.1,9-11.5,10.7-21.6a41,41,0,0,0,.6-8.6c-.4-10.5-.5-20.4.9-26.1" style="fill:#f4ecc8;stroke:#111414;stroke-miterlimit:10;stroke-width:0.25px"/><path class="rootCanal" d="M25.7,161.4c2.2.8,10-16.2,10.3-25.9,1.4-9.4.5-26-1.7-32.2-12.9,1.2-19.2.2-22,.3,0,0-3.3,14.5-6.2,32.3-2.3,14.1-.1,27.5.7,27.8s-.1-13.2,2.8-27.2c3-14.6,8.5-29.2,11.5-30.3C27,104,39.6,119.9,29,152.9,28.5,155.1,24.7,161,25.7,161.4Z" style="fill:#3535ed"/><path class="implant" d="M15.1,142.1a1.61,1.61,0,0,0,.9,1.5,15.23,15.23,0,0,0,12.2-.1,1.55,1.55,0,0,0,.8-.8l-14-2Zm-.1-3,14.3,2.1.1-2.4L15,136.7Zm-.1-4,14.5,2.1.1-2.4-14.6-2.1Zm-.2-4,14.7,2.1.1-2.4-14.9-2.2Zm-.2-4.1,15,2.2.1-2.4-15.2-2.2Zm-.2-4,15.3,2.2.1-2.4-15.5-2.2Zm-.2-5.2,15.6,2.3.1-2.4L14,115.4Zm-.1-2.9,15.9,2.3.1-2.6-16,.1Zm-1.6-3a.92.92,0,0,0,.9,1h1l15-.1h1a.91.91,0,0,0,.8-.4,1.42,1.42,0,0,0,.2-.6v-1.9h-.5l-18.1.1h-.5Zm-.4-4.8a.89.89,0,0,0,.5.8.9.9,0,0,0,.5.1l18.1-.1c.2,0,.3-.1.5-.2a1.05,1.05,0,0,0,.5-.9v-1a.92.92,0,0,0-.9-1l-18.1.1c-.6,0-.9.4-.9,1C11.9,105.9,11.9,107.1,12,107.1Z" style="fill:#3535ed"/><path class="rootMusk" d="M5.7,105.3c2,7.2-.6,10.1-2.1,26.2s.1,17.9.1,27.1c.5,5.5,2.2,6.6,4.9,4.1,3.8-5.1,2-11.5,2.8-19a48.75,48.75,0,0,1,9.8-23c1.6-1.8,3.1-2.4,4.7-1.3,4,1.8,5.3,6.2,4.4,13-.1,9.4-1.4,16.8-4.2,21.9a14,14,0,0,0-1.4,3.9c-.5,3.1.4,4,3.6,1.6,6.2-3.1,9-11.5,10.7-21.6a41,41,0,0,0,.6-8.6c-.4-10.5-.5-20.4.9-26.1" style="fill:#f4ecc8;stroke:#111414;stroke-miterlimit:10;stroke-width:0.25px"/><path class="coronaLingual" d="M4.2,15.9A9.68,9.68,0,0,1,6,12.8,5.41,5.41,0,0,1,9.2,11a75.87,75.87,0,0,1,27.7-.6l1.8,1a7.38,7.38,0,0,1,3.5,4.4,47.37,47.37,0,0,1,2,9.8C43.5,37.8,37,38.3,29.1,36.2a8.6,8.6,0,0,0-8.5.4C13.9,39.8,9.5,39,5.3,34.9c-1-1-2.6-2.5-2.7-4A41.74,41.74,0,0,1,4.2,15.9Z" style="fill:#fff;stroke:#111414;stroke-miterlimit:10;stroke-width:0.5px"/><path class="coronaLingualIncisalDistal" d="M11.2,31v7.1a12.28,12.28,0,0,1-5.9-3.5c-1-1-2.4-2.2-2.6-3.6Z" style="fill:#3535ed"/><path class="coronaLingualIncisalMiddle" d="M31.1,31v5.5A16,16,0,0,1,29,36a8.6,8.6,0,0,0-8.5.4c-3.7,1.8-6.8,2.3-9.4,1.7V31Z" style="fill:#3535ed"/><path class="coronaLingualIncisionMesial" d="M43.1,31c-1.9,5.9-6.5,6.7-12,5.5V31Z" style="fill:#3535ed"/><path class="coronaLingualMiddleDistal" d="M3.7,17.3h7.5V31H2.6c0-.1-.1-.2-.1-.4A49.59,49.59,0,0,1,3.7,17.3Z" style="fill:#3535ed"/><path class="coronaLingualMiddleMiddle" d="M11.2,17.3h20V31h-20Z" style="fill:#3535ed"/><path class="coronaLingualMiddleMesial" d="M42.4,17.3a52.71,52.71,0,0,1,1.5,8.1A26.18,26.18,0,0,1,43,31H31V17.3Z" style="fill:#3535ed"/><path class="coronaLingualCervicalDistal" d="M4.2,15.8A9.68,9.68,0,0,1,6,12.7a5.41,5.41,0,0,1,3.2-1.8l2.1-.4v6.8H3.8A4.19,4.19,0,0,1,4.2,15.8Z" style="fill:#3535ed"/><path class="coronaLingualCervicalMiddle" d="M31.1,9.5v7.8h-20V10.5A79,79,0,0,1,31.1,9.5Z" style="fill:#3535ed"/><path class="coronaLingualCervicalMesial" d="M36.7,10.2l1.8,1A7,7,0,0,1,42,15.6c.2.6.3,1.1.5,1.7H31V9.5C33,9.7,34.9,9.9,36.7,10.2Z" style="fill:#3535ed"/><path class="coronaLabial" d="M1.1,86.6c-.6-5.5,1-9.5,5.7-11.5a19.68,19.68,0,0,1,12.9.4,6,6,0,0,0,6.2.5c5-2.6,9.8-3.5,14.4-1.5A6.76,6.76,0,0,1,44.1,80a56.88,56.88,0,0,1-1.7,19.7,7.94,7.94,0,0,1-.6,2.2,5.38,5.38,0,0,1-6,3.1,16.93,16.93,0,0,0-5.5-.1,10.6,10.6,0,0,0-4.5,1.6c-2.5,1.6-5.3,1.3-8.2-.2a8.49,8.49,0,0,0-3.8-.9H8.1c-2,.2-3.5-1.1-4.7-3.4A43.58,43.58,0,0,1,1.1,86.6Z" style="fill:#fff;stroke:#111414;stroke-miterlimit:10;stroke-width:0.5px"/><path class="coronaLabialIncisalDistal" d="M6.8,75.1a19.85,19.85,0,0,1,6.9-.9v5.5H1.8A9.39,9.39,0,0,1,6.8,75.1Z" style="fill:#3535ed"/><path class="coronaLabialIncisalMiddle" d="M19.5,75.6a6,6,0,0,0,6.2.5,21.62,21.62,0,0,1,7.8-2.5v6.1h-20V74.2A18.85,18.85,0,0,1,19.5,75.6Z" style="fill:#3535ed"/><path class="coronaLabialIncisionMesial" d="M40.1,74.6a6.75,6.75,0,0,1,3.7,5.1H33.5V73.6A13.68,13.68,0,0,1,40.1,74.6Z" style="fill:#3535ed"/><path class="coronaLabialMiddleDistal" d="M1.8,79.7H13.6V98H2.2A49.3,49.3,0,0,1,1.1,86.5,13.27,13.27,0,0,1,1.8,79.7Z" style="fill:#3535ed"/><path class="coronaLabialMiddleMiddle" d="M13.6,79.7h20V98h-20Z" style="fill:#3535ed"/><path class="coronaLabialMiddleMesial" d="M43.7,79.7a.37.37,0,0,0,.1.3,57.43,57.43,0,0,1-1.3,18h-9V79.7Z" style="fill:#3535ed"/><path class="coronaLabialCervicalDistal" d="M13.6,98.1v7.4H7.9c-2,.2-3.5-1.1-4.7-3.4-.4-1.3-.8-2.7-1.1-4Z" style="fill:#3535ed"/><path class="coronaLabialCervicalMiddle" d="M33.5,98.1v6.8a20.48,20.48,0,0,0-3.5.1,10.6,10.6,0,0,0-4.5,1.6c-2.5,1.6-5.3,1.3-8.2-.2a8.49,8.49,0,0,0-3.8-.9h0V98.1Z" style="fill:#3535ed"/><path class="coronaLabialCervicalMesial" d="M42.5,98.1c-.1.6-.3,1.1-.4,1.7a7.94,7.94,0,0,1-.6,2.2,5.38,5.38,0,0,1-6,3.1,13.55,13.55,0,0,0-2-.2V98.1Z" style="fill:#3535ed"/><path class="veneer" d="M22.2,82.6l-1.7-1.3c-2.7-2-2.8-2.4-1.6-5.5l.8-2.1-1.3,1.8c-2,2.6-2.4,2.8-5.5,1.6l-2.1-.8,1.8,1.3c2.7,2,2.8,2.4,1.6,5.5l-.8,2.1,1.3-1.8c2-2.6,2.4-2.8,5.5-1.6ZM20.9,94.4l-1.8-1.3c-1.6-1.2-1.7-1.4-1-3.3l.8-2.1-1.3,1.8c-1.2,1.6-1.4,1.7-3.3,1l-2.1-.8L14,91c1.6,1.2,1.7,1.4,1,3.3l-.8,2.1,1.3-1.8c1.2-1.6,1.4-1.7,3.3-1ZM9.7,91.6,7.9,90.3c-1.6-1.2-1.7-1.4-1-3.3l.8-2.1L6.4,86.7c-1.2,1.6-1.4,1.7-3.3,1L1,86.9l1.8,1.3c1.6,1.2,1.7,1.4,1,3.3L3,93.6l1.3-1.8c1.2-1.6,1.4-1.7,3.3-1Zm23.5-8.7-1.8-1.3c-1.6-1.2-1.7-1.4-1-3.3l.8-2.1L29.9,78c-1.2,1.6-1.4,1.7-3.3,1l-2.1-.8,1.8,1.3c1.6,1.2,1.7,1.4,1,3.3l-.7,2.1,1.3-1.8c1.2-1.6,1.4-1.7,3.3-1Zm3.4,8.5-1.8-1.3c-1.6-1.2-1.7-1.4-1-3.3l.8-2.1-1.3,1.8c-1.2,1.6-1.4,1.7-3.3,1l-2.1-.8L29.7,88c1.6,1.2,1.7,1.4,1,3.3l-.8,2.1,1.3-1.8c1.2-1.6,1.4-1.7,3.3-1Z" style="fill:#3535ed"/><path class="coronaTop" d="M19.3,60.9l-5.2,5.7a13.56,13.56,0,0,0,19.1-.8h0l-5.7-5.2A5.83,5.83,0,0,1,19.3,60.9Zm8.2-.3,5.7,5.2a13.56,13.56,0,0,0-.8-19.1l-5.2,5.7a5.83,5.83,0,0,1,.3,8.2Zm-.3-8.2,5.2-5.7a13.56,13.56,0,0,0-19.1.8L19,52.7A5.83,5.83,0,0,1,27.2,52.4Zm-7.9,8.5a5.74,5.74,0,0,1-.3-8.2l-5.7-5.2a13.56,13.56,0,0,0,.8,19.1Zm3.8-10a5.8,5.8,0,1,1-5.8,5.8A5.8,5.8,0,0,1,23.1,50.9Z" style="fill:#fff;stroke:#000;stroke-miterlimit:10"/><path class="coronaTopBuccal" d="M19.3,60.9l-5.2,5.7a13.56,13.56,0,0,0,19.1-.8h0l-5.7-5.2A5.83,5.83,0,0,1,19.3,60.9Z" style="fill:#3535ed"/><path class="coronaTopMedial" d="M27.5,60.6l5.7,5.2a13.56,13.56,0,0,0-.8-19.1l-5.2,5.7a5.83,5.83,0,0,1,.3,8.2Z" style="fill:#3535ed"/><path class="coronaTopLingual" d="M27.2,52.4l5.2-5.7a13.56,13.56,0,0,0-19.1.8L19,52.7A5.83,5.83,0,0,1,27.2,52.4Z" style="fill:#3535ed"/><path class="coronaTopDistal" d="M19.3,60.9a5.74,5.74,0,0,1-.3-8.2l-5.7-5.2a13.56,13.56,0,0,0,.8,19.1Z" style="fill:#3535ed"/><path class="coronaTopOclusial" d="M23.3,50.8a5.8,5.8,0,1,1-5.8,5.8A5.8,5.8,0,0,1,23.3,50.8Z" style="fill:#3535ed"/><path class="silant" d="M15.3,64.8A19,19,0,0,0,22.2,66c5.8,0,9.2-2.2,9.2-5.4,0-2.7-2.2-4.2-6.4-5.4-3.2-.9-4.7-1.6-4.7-3.1,0-1.3,1.5-2.5,4.1-2.5a13.11,13.11,0,0,1,5,1l1.1-2.4a15.66,15.66,0,0,0-6-1.1c-5.3,0-8.4,2.4-8.4,5.3,0,2.2,2.1,4,6.5,5.1,3.3.9,4.5,1.8,4.5,3.3s-1.5,2.7-4.8,2.7a16.09,16.09,0,0,1-5.9-1.3Z" style="fill:#3535ed"/><path class="crown" d="M4.2,15.9A9.68,9.68,0,0,1,6,12.8,5.41,5.41,0,0,1,9.2,11a75.87,75.87,0,0,1,27.7-.6l1.8,1a7.38,7.38,0,0,1,3.5,4.4,47.37,47.37,0,0,1,2,9.8C43.5,37.8,37,38.3,29.1,36.2a8.6,8.6,0,0,0-8.5.4C13.9,39.8,9.5,39,5.3,34.9c-1-1-2.6-2.5-2.7-4A41.74,41.74,0,0,1,4.2,15.9ZM3.4,102c1.2,2.3,2.7,3.6,4.7,3.4h5.7a8.49,8.49,0,0,1,3.8.9c2.9,1.5,5.7,1.8,8.2.2a10.6,10.6,0,0,1,4.5-1.6,16.93,16.93,0,0,1,5.5.1,5.38,5.38,0,0,0,6-3.1,7.94,7.94,0,0,0,.6-2.2A56.88,56.88,0,0,0,44.1,80a6.76,6.76,0,0,0-3.8-5.5c-4.6-2-9.4-1.1-14.4,1.5a6,6,0,0,1-6.2-.5,19.68,19.68,0,0,0-12.9-.4c-4.7,2-6.3,6-5.7,11.5A43.58,43.58,0,0,0,3.4,102ZM27.5,60.6l5.7,5.2h0a13.56,13.56,0,0,1-19.1.8l5.2-5.7A5.83,5.83,0,0,0,27.5,60.6Zm0,0a5.83,5.83,0,0,0-.3-8.2l5.2-5.7a13.56,13.56,0,0,1,.8,19.1l-5.7-5.2ZM19,52.7l-5.7-5.2a13.56,13.56,0,0,1,19.1-.8l-5.2,5.7A5.83,5.83,0,0,0,19,52.7ZM14.1,66.6a13.56,13.56,0,0,1-.8-19.1L19,52.7a5.74,5.74,0,0,0,.3,8.2Zm3.2-9.9a5.8,5.8,0,1,0,5.8-5.8A5.8,5.8,0,0,0,17.3,56.7Z" style="fill:#fff;stroke:#111414;stroke-miterlimit:10;stroke-width:0.5px"/><path class="braces" d="M21.7,86.3a2,2,0,0,0,1.1.2H24a3.55,3.55,0,0,0,1-.2h0V89a3.55,3.55,0,0,0-1-.2H22.8a4.25,4.25,0,0,0-1.1.2V86.3h0m4.6-3.9H25.2c-.4.1-.7.4-.6.8v.5c0,.4-.3.8-.6.8H22.9a.77.77,0,0,1-.7-.8v-.5a.76.76,0,0,0-.6-.8H20.5a.77.77,0,0,0-.7.8V87H.1v1.3H19.7v3.8a.77.77,0,0,0,.7.8h1.1c.4-.1.7-.4.6-.8v-.6a.77.77,0,0,1,.7-.8H24a.77.77,0,0,1,.7.8V92a.76.76,0,0,0,.6.8h1.1a.77.77,0,0,0,.7-.8V88.2H46.6V86.9H27V83.1a1,1,0,0,0-.7-.7Z"/><path class="gum" d="M46.5,105.5c-2.8,0-5.7,0-8-.1-6.5-.3-8.5-.3-16,3.5C12,104.1,6,105.4,6,105.4a55.77,55.77,0,0,0-6-.3" style="fill:none;stroke:#ffb900;stroke-linejoin:round;stroke-width:3px"/><path class="paradontit1" d="M46.5,105.5l-8-.1c-1.5,0-3.1,6.4-16.6,6.9-6.6.4-12.4-4.7-14.8-6.4a4.2,4.2,0,0,0-2.6-.8H0" style="fill:none;stroke:#ff822e;stroke-linejoin:round;stroke-width:3px"/><path class="paradontit2" d="M46.5,105.5H38.2c-1.5,0-2.7,9.9-16.2,10.4-6.4.4-12.3-6.4-14.8-9.3a4.48,4.48,0,0,0-3.4-1.5H0" style="fill:none;stroke:#f9610d;stroke-linejoin:round;stroke-width:3px"/><path class="paradontit3" d="M46.5,105.5l-8-.1c-1.5,0-3.3,13.5-16.8,14-9.8.1-11.9-9.9-14.4-12.8a4.48,4.48,0,0,0-3.4-1.5H0" style="fill:none;stroke:#f9610d;stroke-linejoin:round;stroke-width:3px"/><path class="paradontit4" d="M46.5,105.5h-8c-1.5,0-.4,17.4-15.4,17.4s-13.3-10-15.9-15a4.88,4.88,0,0,0-4-2.8H0" style="fill:none;stroke:#f75403;stroke-linejoin:round;stroke-width:3px"/><path class="periodontit" d="M5.6,162a4.5,4.5,0,1,1-4.5,4.5A4.48,4.48,0,0,1,5.6,162Zm20.9-3a4.5,4.5,0,1,1-4.5,4.5A4.55,4.55,0,0,1,26.5,159Z" style="fill:#3535ed"/></g></g></g></svg>