<svg xmlns="http://www.w3.org/2000/svg" viewBox="0 0 44.44 180.9"><title>47tooth</title><g class="Слой_2" data-name="Слой 2"><g class="Слой_1-2" data-name="Слой 1"><g class="_47" data-name="47"><path class="background" d="M0,0h44.4V180.8H0Z" style="fill:#9fdaff"/><path class="bone" d="M0,105.9h44.4v75H0Z" style="fill:#de82a7"/><path class="bridge" d="M44.44,84.4H0v-4h44.4Zm0-54H0v4h44.4Zm0,25H0v4h44.4Z" style="fill:#3535ed"/><path class="root" d="M7.84,104.5a92.4,92.4,0,0,1-2.1,24.6l-2.8,21.5a19.27,19.27,0,0,0-.1,2.4c.3,5.2,1.6,5.9,3.5,4.2a7.6,7.6,0,0,0,2-3.6c2.9-12.5,6.8-23.7,11.9-33.2,1.3-1.3,2.6-1.4,3.7-.8a4,4,0,0,1,2,3.4A56.62,56.62,0,0,1,22,147.1a10.85,10.85,0,0,0-.8,4.7c.2,3.9,2,3.5,4.6.9,7.8-10.2,11.7-25.2,11.2-45.7" style="fill:#f4ecc8;stroke:#111414;stroke-miterlimit:10;stroke-width:0.25px"/><path class="rootCanal" d="M23.84,153.4c3.6-5.2,13.7-34.1,8.1-49.9-7.6-.2-11.3,0-19.8-.1,0,0-8.9,50.6-8.1,52.6,1,2.5,3.8-12.7,7.6-25.6,3-10.2,6.9-18.4,9-19.2,4.7-1.9,15.5,1.1,1.8,42.6C21.64,155.7,23.14,154.3,23.84,153.4Z" style="fill:#3535ed"/><path class="implant" d="M15.14,142a1.89,1.89,0,0,0,.9,1.6,15.23,15.23,0,0,0,12.2-.1,1.55,1.55,0,0,0,.8-.8l-14-2Zm-.1-3,14.3,2.1.1-2.4-14.5-2.1Zm-.1-4,14.6,2.2.1-2.4-14.8-2.1Zm-.2-4,14.8,2.2.1-2.4-14.9-2.2Zm-.2-4,15,2.2.1-2.4-15.2-2.2Zm-.2-4,15.3,2.2.1-2.4-15.5-2.3Zm-.1-5.1,15.6,2.3.1-2.4-15.8-2.3ZM14,115l15.9,2.3.1-2.6-16,.1Zm-1.6-3a1.42,1.42,0,0,0,.2.6,1.23,1.23,0,0,0,.8.4h1.1l15-.1h1c.6,0,.9-.4.9-1V110h-.5l-18.1.2h-.5Zm-.4-4.7a.89.89,0,0,0,.5.8.9.9,0,0,0,.5.1l18.1-.1a.76.76,0,0,0,.5-.2,1.05,1.05,0,0,0,.5-.9v-1.2a.92.92,0,0,0-.9-1l-18.1.2c-.6,0-.9.4-.9,1Z" style="fill:#3535ed"/><path class="rootMusk" d="M7.84,104.5a92.4,92.4,0,0,1-2.1,24.6l-2.8,21.5a19.27,19.27,0,0,0-.1,2.4c.3,5.2,1.6,5.9,3.5,4.2a7.6,7.6,0,0,0,2-3.6c2.9-12.5,6.8-23.7,11.9-33.2,1.3-1.3,2.6-1.4,3.7-.8a4,4,0,0,1,2,3.4A56.62,56.62,0,0,1,22,147.1a10.85,10.85,0,0,0-.8,4.7c.2,3.9,2,3.5,4.6.9,7.8-10.2,11.7-25.2,11.2-45.7" style="fill:#f4ecc8;stroke:#111414;stroke-miterlimit:10;stroke-width:0.25px"/><path class="coronaLingual" d="M5,15.3a67,67,0,0,0-1.8,10.9,13.54,13.54,0,0,0,1.1,7.2c3,6.4,9,5.1,16.5.5a3.82,3.82,0,0,1,5.1,0c3.7,4.3,8,4.8,13.1-.3a8.9,8.9,0,0,0,2.6-5.8c.1-1.7-.4-11.2-.9-12.9a4.59,4.59,0,0,0-3-3.2c-10-3.4-20.1-3-30.4.7A4.27,4.27,0,0,0,5,15.3Z" style="fill:#fff;stroke:#111414;stroke-miterlimit:10;stroke-width:0.5px"/><path class="coronaLingualIncisalDistal" d="M41,30.6a9.23,9.23,0,0,1-1.9,2.8,13.08,13.08,0,0,1-5.2,3.4V30.6Z" style="fill:#3535ed"/><path class="coronaLingualIncisalMiddle" d="M33.94,30.6v6.2c-3,.9-5.6-.3-8-3.1a3.82,3.82,0,0,0-5.1,0,25,25,0,0,1-8.2,3.6V30.5Z" style="fill:#3535ed"/><path class="coronaLingualIncisionMesial" d="M12.74,30.5v6.8c-3.6.7-6.5-.3-8.3-4.1a11.42,11.42,0,0,1-.9-2.6Z" style="fill:#3535ed"/><path class="coronaLingualMiddleDistal" d="M3.34,26a71.55,71.55,0,0,1,1.4-9.1h8V30.6H3.64A11.82,11.82,0,0,1,3.34,26Z" style="fill:#3535ed"/><path class="coronaLingualMiddleMiddle" d="M12.74,17H34V30.7H12.74Z" style="fill:#3535ed"/><path class="coronaLingualMiddleMesial" d="M41.24,17c.4,3.6.5,7.1.6,10.7a10.88,10.88,0,0,1-.7,3h-7.2V17Z" style="fill:#3535ed"/><path class="coronaLingualCervicalDistal" d="M5,15.2a4.06,4.06,0,0,1,2.5-2.9,51.65,51.65,0,0,1,5.2-1.6V17h-8Z" style="fill:#3535ed"/><path class="coronaLingualCervicalMiddle" d="M31.94,30.4V37H10.74V30.7A42.3,42.3,0,0,1,31.94,30.4Z" style="fill:#3535ed"/><path class="coronaLingualCervicalMesial" d="M37.84,11.7a4.59,4.59,0,0,1,3,3.2,8.33,8.33,0,0,1,.3,2.2h-7.3V10.6C35.14,10.9,36.44,11.3,37.84,11.7Z" style="fill:#3535ed"/><path class="coronaLabial" d="M5.54,81.2c2.7-4.7,7.6-6.3,15.1-4.1,2,1.4,3.8,1.5,5.4,0,3.6-1.9,6.9-2.7,9.8-1.8a7.91,7.91,0,0,1,5.1,6.2,35.73,35.73,0,0,1-.1,14.2l-2.7,8.4a6.39,6.39,0,0,1-.8,1.9,2.78,2.78,0,0,1-3.6,1.2c-.1-.1-.2-.1-.3-.2-2.9-1.9-5.8-2.7-8.8-.3-1.1,1.1-2.7,1.1-4.6,0-2.8-2.5-5.5-3.4-8.1-2.1a4.13,4.13,0,0,1-3.6.2,3.75,3.75,0,0,1-1.9-2.2,43.56,43.56,0,0,1-2.6-14.3A13.8,13.8,0,0,1,5.54,81.2Z" style="fill:#fff;stroke:#111414;stroke-miterlimit:10;stroke-width:0.5px"/><path class="coronaLabialIncisalDistal" d="M12.74,76.3v3.4H6.54A9.2,9.2,0,0,1,12.74,76.3Z" style="fill:#3535ed"/><path class="coronaLabialIncisalMiddle" d="M20.64,77.2c2,1.4,3.8,1.5,5.4,0a15.94,15.94,0,0,1,8-2.1v4.7H12.74V76.4A16.49,16.49,0,0,1,20.64,77.2Z" style="fill:#3535ed"/><path class="coronaLabialIncisionMesial" d="M35.84,75.4a7.27,7.27,0,0,1,4.5,4.4h-6.4V75.1A6.28,6.28,0,0,1,35.84,75.4Z" style="fill:#3535ed"/><path class="coronaLabialMiddleDistal" d="M5.54,81.2a13,13,0,0,1,1-1.5h6.2V98H5.24A52.51,52.51,0,0,1,4,88.3,11.91,11.91,0,0,1,5.54,81.2Z" style="fill:#3535ed"/><path class="coronaLabialMiddleMiddle" d="M12.74,79.7H34V98H12.74Z" style="fill:#3535ed"/><path class="coronaLabialMiddleMesial" d="M40.34,79.7c.2.6.4,1.2.6,1.9a35.73,35.73,0,0,1-.1,14.2l-.7,2.3h-6.2V79.8h6.4Z" style="fill:#3535ed"/><path class="coronaLabialCervicalDistal" d="M12.74,98.1v6.3c-.2.1-.5.2-.7.3a4.13,4.13,0,0,1-3.6.2,3.75,3.75,0,0,1-1.9-2.2,35,35,0,0,1-1.4-4.6Z" style="fill:#3535ed"/><path class="coronaLabialCervicalMiddle" d="M33.94,98.1v9.3l-.6-.3c-2.9-1.9-5.8-2.7-8.8-.3-1.1,1.1-2.7,1.1-4.6,0-2.6-2.3-5.1-3.2-7.4-2.4V98.1Z" style="fill:#3535ed"/><path class="coronaLabialCervicalMesial" d="M40,98.2l-2,6.1a6.39,6.39,0,0,1-.8,1.9,2.63,2.63,0,0,1-3.3,1.3V98.2Z" style="fill:#3535ed"/><path class="veneer" d="M24.54,83.2l-1.8-1.3c-2.7-2-2.8-2.4-1.6-5.6l.8-2.1L20.64,76c-2,2.7-2.4,2.8-5.5,1.6L13,76.8l1.8,1.4c2.7,2,2.8,2.4,1.6,5.6l-.8,2.1L17,84.1c2-2.7,2.4-2.8,5.5-1.6ZM23.24,95l-1.8-1.3c-1.6-1.2-1.7-1.4-1-3.3l.8-2.1-1.3,1.8c-1.2,1.6-1.4,1.7-3.3,1l-2.1-.8,1.8,1.4c1.6,1.2,1.7,1.4,1,3.3l-.8,2.1,1.3-1.8c1.2-1.6,1.4-1.7,3.3-1ZM12,92.2l-1.8-1.3c-1.6-1.2-1.7-1.4-1-3.3l.8-2.1-1.3,1.8c-1.2,1.6-1.4,1.7-3.3,1l-2.1-.8,1.8,1.3c1.6,1.2,1.7,1.4,1,3.3l-.8,2.1,1.3-1.8c1.2-1.6,1.4-1.7,3.3-1Zm23.5-8.7-1.8-1.3c-1.6-1.2-1.7-1.4-1-3.3l.8-2.1-1.3,1.8c-1.2,1.6-1.4,1.7-3.3,1l-2.1-.8,1.8,1.4c1.6,1.2,1.7,1.4,1,3.3l-.8,2.1,1.3-1.8c1.2-1.6,1.4-1.7,3.3-1Zm3.4,8.5-1.8-1.4c-1.6-1.2-1.7-1.4-1-3.3l.8-2.1L35.64,87c-1.2,1.6-1.4,1.7-3.3,1l-2.1-.8L32,88.5c1.6,1.2,1.7,1.4,1,3.3l-.8,2.1,1.3-1.8c1.2-1.6,1.4-1.7,3.3-1Z" style="fill:#3535ed"/><path class="coronaTop" d="M17.74,61.3,12.54,67a13.56,13.56,0,0,0,19.1-.8h0L25.94,61A5.83,5.83,0,0,1,17.74,61.3Zm8.1-.3,5.7,5.2a13.56,13.56,0,0,0-.8-19.1l-5.2,5.7a5.92,5.92,0,0,1,.3,8.2Zm-.4-8.2,5.2-5.7a13.56,13.56,0,0,0-19.1.8l5.7,5.2A5.83,5.83,0,0,1,25.44,52.8Zm-7.7,8.5a5.74,5.74,0,0,1-.3-8.2l-5.7-5.2a13.56,13.56,0,0,0,.8,19.1h0Zm-1.2-7.2a5.76,5.76,0,0,1,7.9-2.1,5.78,5.78,0,1,1-7.9,2.1Z" style="fill:#fff;stroke:#000;stroke-miterlimit:10"/><path class="coronaTopBuccal" d="M17.74,61.3,12.54,67a13.56,13.56,0,0,0,19.1-.8h0L25.94,61A5.83,5.83,0,0,1,17.74,61.3Z" style="fill:#3535ed"/><path class="coronaTopMedial" d="M25.84,61l5.7,5.2a13.56,13.56,0,0,0-.8-19.1l-5.2,5.7a5.92,5.92,0,0,1,.3,8.2Z" style="fill:#3535ed"/><path class="coronaTopLingual" d="M25.44,52.8l5.2-5.7a13.56,13.56,0,0,0-19.1.8l5.7,5.2A5.83,5.83,0,0,1,25.44,52.8Z" style="fill:#3535ed"/><path class="coronaTopDistal" d="M17.74,61.3a5.74,5.74,0,0,1-.3-8.2l-5.7-5.2a13.56,13.56,0,0,0,.8,19.1h0Z" style="fill:#3535ed"/><path class="coronaTopOclusial" d="M16.54,54.1a5.76,5.76,0,0,1,7.9-2.1,5.78,5.78,0,1,1-7.9,2.1Z" style="fill:#3535ed"/><path class="silant" d="M13.64,65.2a19,19,0,0,0,6.9,1.2c5.8,0,9.2-2.2,9.2-5.4,0-2.7-2.2-4.2-6.4-5.4-3.2-.9-4.7-1.6-4.7-3.1,0-1.3,1.5-2.5,4.1-2.5a13.11,13.11,0,0,1,5,1l1.1-2.4a15.66,15.66,0,0,0-6-1.1c-5.3,0-8.4,2.4-8.4,5.3,0,2.2,2.1,4,6.5,5.1,3.3.9,4.5,1.8,4.5,3.3s-1.5,2.7-4.8,2.7a16.09,16.09,0,0,1-5.9-1.3Z" style="fill:#3535ed"/><path class="crown" d="M7.34,12.4c10.3-3.7,20.4-4.1,30.4-.7a4.59,4.59,0,0,1,3,3.2c.5,1.7,1,11.2.9,12.9A8.9,8.9,0,0,1,39,33.6c-5.1,5.1-9.4,4.6-13.1.3a3.82,3.82,0,0,0-5.1,0c-7.5,4.6-13.5,5.9-16.5-.5a13.54,13.54,0,0,1-1.1-7.2A67,67,0,0,1,5,15.3,4.27,4.27,0,0,1,7.34,12.4ZM3.84,88.3a43.56,43.56,0,0,0,2.6,14.3,3.75,3.75,0,0,0,1.9,2.2,4.13,4.13,0,0,0,3.6-.2c2.6-1.3,5.3-.4,8.1,2.1,1.9,1.1,3.5,1.1,4.6,0,3-2.4,5.9-1.6,8.8.3.1.1.2.1.3.2a2.78,2.78,0,0,0,3.6-1.2,6.39,6.39,0,0,0,.8-1.9l2.7-8.4a35.73,35.73,0,0,0,.1-14.2,7.91,7.91,0,0,0-5.1-6.2c-2.9-.9-6.2-.1-9.8,1.8-1.6,1.5-3.4,1.4-5.4,0-7.5-2.2-12.4-.6-15.1,4.1A13.8,13.8,0,0,0,3.84,88.3Zm13.9-27L12.54,67a13.56,13.56,0,0,0,19.1-.8h0L25.94,61A5.83,5.83,0,0,1,17.74,61.3Zm8.1-.3a5.92,5.92,0,0,0-.3-8.2l5.2-5.7a13.56,13.56,0,0,1,.8,19.1L25.84,61Zm-8.6-7.9-5.7-5.2a13.56,13.56,0,0,1,19.1-.8l-5.2,5.7A5.83,5.83,0,0,0,17.24,53.1ZM12.54,67h0a13.56,13.56,0,0,1-.8-19.1l5.7,5.2a5.74,5.74,0,0,0,.3,8.2Zm6.1-5a5.78,5.78,0,0,0,5.8-10,5.78,5.78,0,0,0-5.8,10Z" style="fill:#fff;stroke:#111414;stroke-miterlimit:10;stroke-width:0.5px"/><path class="braces" d="M20.64,86.3a2,2,0,0,0,1.1.2h1.1a3.55,3.55,0,0,0,1-.2h0V89a3.55,3.55,0,0,0-1-.2h-1.2a4.25,4.25,0,0,0-1.1.2l.1-2.7h0m4.6-3.9h-1.1c-.4.1-.7.4-.6.8v.5a.77.77,0,0,1-.7.8h-1.1a.77.77,0,0,1-.7-.8v-.5a.76.76,0,0,0-.6-.8h-1.1a.77.77,0,0,0-.7.8V87H0v1.3h18.6v3.8a.77.77,0,0,0,.7.8h1.1c.4-.1.7-.4.6-.8v-.6a.77.77,0,0,1,.7-.8h1.1a.77.77,0,0,1,.7.8V92a.76.76,0,0,0,.6.8h1.1a.77.77,0,0,0,.7-.8V88.2h18.5V86.9H25.84V83.1a.73.73,0,0,0-.6-.7Z"/><path class="gum" d="M44.44,105.1c-1.5,0-3.2-.1-5-.1-5,4-13-2-18,4-3-7-13.5-4.5-14-5a61.5,61.5,0,0,1-7.4.6" style="fill:none;stroke:#ffb900;stroke-linejoin:round;stroke-width:3px"/><path class="paradontit1" d="M44.44,105.1H40a4.48,4.48,0,0,0-1.2.1c-5.3,1.7-7.7,6.1-17.3,6.1-7.3,0-13.9-6.5-17.6-6.7H0" style="fill:none;stroke:#ff822e;stroke-linejoin:round;stroke-width:3px"/><path class="paradontit2" d="M44.44,105.1H40a5.28,5.28,0,0,0-1.3.1c-5.4,2-5.4,11.3-17.4,10.3s-11.2-8.1-15.9-10.1c-.6-.2-1.3-.8-2-.8H0" style="fill:none;stroke:#f9610d;stroke-linejoin:round;stroke-width:3px"/><path class="paradontit3" d="M44.44,105.1H40a5.28,5.28,0,0,0-1.3.1c-5.4,2-.7,14.1-16.7,14.1s-11.4-14.2-18.2-14.7H0" style="fill:none;stroke:#f9610d;stroke-linejoin:round;stroke-width:3px"/><path class="paradontit4" d="M44.44,105.1a15.88,15.88,0,0,0-7.2,2c-4.6,4-1.5,16.1-15.7,16.1-11,0-11.9-18.7-17.9-18.7l-3.6.1" style="fill:none;stroke:#f75403;stroke-linejoin:round;stroke-width:3px"/><path class="periodontit" d="M5,156a4.5,4.5,0,1,1-4.5,4.5A4.48,4.48,0,0,1,5,156Zm18.9-4a4.5,4.5,0,1,1-4.5,4.5A4.55,4.55,0,0,1,23.94,152Z" style="fill:#3535ed"/></g></g></g></svg>