<svg xmlns="http://www.w3.org/2000/svg" viewBox="0 0 29.9 146.3"><title>51tooth</title><g class="Слой_2" data-name="Слой 2"><g class="Слой_1-2" data-name="Слой 1"><g class="_51" data-name="51"><path class="background" d="M.3,0h29V146.3H.3Z" style="fill:#9fdaff"/><path class="bone" d="M.3,0h29V57.3H.3Z" style="fill:#de82a7"/><path class="bridge" d="M.3,126.1v-4l29-.1v4Zm29-26.1V96H.3v4Zm0-27V69H.3v4Z" style="fill:#3535ed"/><path class="root" d="M4.2,58.7C7.9,48.6,10.8,32.3,10.7,17a5.12,5.12,0,0,1,1.7-3.7c1.7-1.4,3.1-.9,4.1,2,2.4,15.8,4.9,30.3,7.4,42.2" style="fill:#f0e7be;stroke:#1a1715;stroke-miterlimit:10"/><path class="rootCanal" d="M17.7,59.1l-3.2-.9h-.3c-3.2,1-5-.5-1.8-5,1.8,0,.8-28.4.7-40.1,0-1.1,1.3-1.3,1.5-.2,2.4,11.7,3.1,38.5,3.3,39.9l.4,5.5C18.4,58.8,18.1,59.2,17.7,59.1Z" style="fill:#3535ed;stroke:#201600;stroke-miterlimit:10;stroke-width:0.25px"/><path class="implant" d="M21.5,19a1.9,1.9,0,0,0-1-1.6,15.23,15.23,0,0,0-12.2,0,1.39,1.39,0,0,0-.7.8l14,2.2Zm.1,2.9L7.3,19.6l-.1,2.5,14.4,2.3V21.9Zm.1,4L7.2,23.6l-.1,2.5,14.7,2.3Zm.1,4.1L7,27.7v2.4l14.9,2.3Zm.2,4L7,31.7l-.1,2.5,15.2,2.4Zm.1,4.1L6.8,35.7l-.1,2.5,15.4,2.4V38.1Zm.1,5.1L6.5,40.8l-.1,2.5,15.8,2.4Zm.2,2.8L6.5,43.5l-.1,2.6,16-.1Zm1.5,3.1a1.07,1.07,0,0,0-.2-.6.91.91,0,0,0-.7-.3H5.9a.91.91,0,0,0-.7.3,1.07,1.07,0,0,0-.2.6V51H24Zm.4,4.7a.94.94,0,0,0-1-1H5.2c-.2,0-.3.1-.4.1a1,1,0,0,0-.4.9v1.3a.94.94,0,0,0,1,1H23.5a1.08,1.08,0,0,0,1-1h0Z" style="fill:#3535ed"/><path class="rootMask" d="M4.2,58.7C7.9,48.6,10.8,32.3,10.7,17a5.12,5.12,0,0,1,1.7-3.7c1.7-1.4,3.1-.9,4.1,2,2.4,15.8,4.9,30.3,7.4,42.2" style="fill:#f0e7be;stroke:#1a1715;stroke-miterlimit:10"/><path class="coronaLingual" d="M2.6,122.6a26.25,26.25,0,0,0,2,11.7,7.91,7.91,0,0,0,2.7,3.3c3.7,2.8,7.4,3.2,11.1,1.5a10.15,10.15,0,0,0,4.9-4.7,26.85,26.85,0,0,0,3.2-15.3c.1-4-1.2-3.7-4.2-4.1H9.5a6.4,6.4,0,0,0-5.3,2.6l-.1.1A9.69,9.69,0,0,0,2.6,122.6Z" style="fill:#fff;stroke:#000;stroke-miterlimit:10"/><path class="coronaLingualIncisalDistal" d="M9.5,115.1a6.4,6.4,0,0,0-5.3,2.6l-.1.1a8.44,8.44,0,0,0-1.4,4.3h8v-7Z" style="fill:#3535ed"/><path class="coronaLingualIncisalMiddle" d="M10.7,115.1h7.5v7.1H10.7Z" style="fill:#3535ed"/><path class="coronaLingualIncisionMesial" d="M26.6,119.1c.1-4-1.2-3.7-4.2-4.1H18.1v7.1h8.5A15,15,0,0,0,26.6,119.1Z" style="fill:#3535ed"/><path class="coronaLingualMiddleDistal" d="M2.7,122.2v.4a27,27,0,0,0,1.6,10.8h6.4V122.2Z" style="fill:#3535ed"/><path class="coronaLingualMiddleMiddle" d="M10.7,122.2h7.5v11.2H10.7Z" style="fill:#3535ed"/><path class="coronaLingualMiddleMesial" d="M26.7,122.2H18.2v11.2h5.7A26.12,26.12,0,0,0,26.7,122.2Z" style="fill:#3535ed"/><path class="coronaLingualCervicalDistal" d="M4.3,133.4a3.55,3.55,0,0,0,.4.9,7.91,7.91,0,0,0,2.7,3.3,13.46,13.46,0,0,0,3.3,1.8v-6Z" style="fill:#3535ed"/><path class="coronaLingualCervicalMiddle" d="M10.7,133.4v6a10.23,10.23,0,0,0,7.5-.2v-5.8Z" style="fill:#3535ed"/><path class="coronaLingualCervicalMesial" d="M18.2,133.4v5.8c.1,0,.2-.1.3-.1a10.15,10.15,0,0,0,4.9-4.7,4.67,4.67,0,0,0,.5-1Z" style="fill:#3535ed"/><path class="coronaLabial" d="M2.8,62.2c-1.4,6-.7,11,3.5,14.1,3.3,1.2,9.9,1,16.5.8,6.9-2,5-9.5,1.4-18a10.9,10.9,0,0,0-8.3-6.7,11.44,11.44,0,0,0-4.1.2A12.75,12.75,0,0,0,2.8,62.2Z" style="fill:#fff;stroke:#000;stroke-miterlimit:10"/><path class="coronaLabialIncisalDistal" d="M2.3,69.6a9.87,9.87,0,0,0,4,6.7,22.05,22.05,0,0,0,3.2.7V69.6Z" style="fill:#3535ed"/><path class="coronaLabialIncisalMiddle" d="M9.6,69.6V77a65.53,65.53,0,0,0,9.1.2V69.6Z" style="fill:#3535ed"/><path class="coronaLabialIncisionMesial" d="M27.5,69.6H18.7v7.6c1.4,0,2.8-.1,4.2-.1C26.6,76,27.8,73.3,27.5,69.6Z" style="fill:#3535ed"/><path class="coronaLabialMiddleDistal" d="M4.3,58.5a12.57,12.57,0,0,0-1.5,3.8,21.31,21.31,0,0,0-.5,7.4H9.5V58.5Z" style="fill:#3535ed"/><path class="coronaLabialMiddleMiddle" d="M9.6,58.5h9.1V69.7H9.6Z" style="fill:#3535ed"/><path class="coronaLabialMiddleMesial" d="M24.3,59.1l-.3-.6H18.7V69.7h8.8C27.2,66.6,25.9,63,24.3,59.1Z" style="fill:#3535ed"/><path class="coronaLabialCervicalDistal" d="M4.3,58.5H9.6v-5A11.18,11.18,0,0,0,4.3,58.5Z" style="fill:#3535ed"/><path class="coronaLabialCervicalMiddle" d="M16,52.4a11.44,11.44,0,0,0-4.1.2,11.72,11.72,0,0,0-2.4.9v5h9.1V53.2A6.63,6.63,0,0,0,16,52.4Z" style="fill:#3535ed"/><path class="coronaLabialCervicalMesial" d="M18.7,53.2v5.3H24A11.35,11.35,0,0,0,18.7,53.2Z" style="fill:#3535ed"/><path class="veneer" d="M.3,70.8l1.9,1.6c2.7,2.4,2.8,2.9,1.7,6.5l-.8,2.4,1.4-2c2.1-3.1,2.6-3.2,5.8-1.9l2.1.9-1.9-1.6c-2.7-2.4-2.9-2.9-1.7-6.5l.8-2.4L8.2,69.9C6.1,73,5.6,73.1,2.4,71.8ZM3,57l1.9,1.6c1.7,1.5,1.8,1.7,1.1,4L5.2,65l1.4-2.1c1.3-1.9,1.5-2,3.5-1.1l2.1.9-1.9-1.6c-1.7-1.5-1.8-1.7-.9-3.9l.8-2.4L8.8,56.9c-1.3,1.9-1.5,2-3.5,1.1ZM28,73.5l-2.1-1.6c-1.9-1.4-2-1.7-1.1-3.9l.9-2.3-1.6,2.1c-1.5,1.8-1.7,1.9-4,1l-2.5-.9,2.1,1.6c1.9,1.4,2,1.7,1.1,3.8l-.9,2.3,1.6-2.1c1.5-1.8,1.7-1.9,4-1l2.5,1Z" style="fill:#3535ed"/><path class="coronaTop" d="M11.1,93.6,5.9,87.9a13.56,13.56,0,0,1,19.1.8l-5.7,5.2A5.83,5.83,0,0,0,11.1,93.6Zm8.2.3L25,88.7a13.56,13.56,0,0,1-.8,19.1L19,102.1a5.83,5.83,0,0,0,.3-8.2Zm-8.2-.3a5.83,5.83,0,0,0-.4,8.2L5,107a13.56,13.56,0,0,1,.8-19.1Zm7.8,8.5,5.2,5.7A13.56,13.56,0,0,1,5,107H5l5.7-5.2A5.92,5.92,0,0,0,18.9,102.1Zm-6.5-9.2a5.78,5.78,0,1,1-2.1,7.9A5.74,5.74,0,0,1,12.4,92.9Z" style="fill:#fff;stroke:#000;stroke-miterlimit:10"/><path class="coronaTopBuccal" d="M11.1,93.6,5.9,87.9a13.56,13.56,0,0,1,19.1.8l-5.7,5.2A5.83,5.83,0,0,0,11.1,93.6Z" style="fill:#3535ed"/><path class="coronaTopMedial" d="M19.3,93.9,25,88.7a13.56,13.56,0,0,1-.8,19.1L19,102.1a5.83,5.83,0,0,0,.3-8.2Z" style="fill:#3535ed"/><path class="coronaTopLingual" d="M18.9,102.1l5.2,5.7A13.56,13.56,0,0,1,5,107H5l5.7-5.2A5.92,5.92,0,0,0,18.9,102.1Z" style="fill:#3535ed"/><path class="coronaTopDistal" d="M11.1,93.6a5.83,5.83,0,0,0-.4,8.2L5,107a13.56,13.56,0,0,1,.8-19.1Z" style="fill:#3535ed"/><path class="coronaTopOclusial" d="M12.5,93.1a5.78,5.78,0,1,1-2.1,7.9A5.74,5.74,0,0,1,12.5,93.1Z" style="fill:#3535ed"/><path class="silant" d="M7,105.9a19,19,0,0,0,6.9,1.2c5.8,0,9.2-2.2,9.2-5.4,0-2.7-2.2-4.2-6.4-5.4-3.2-.9-4.7-1.6-4.7-3.1,0-1.3,1.5-2.5,4.1-2.5a13.11,13.11,0,0,1,5,1l1.1-2.4a15.66,15.66,0,0,0-6-1.1c-5.3,0-8.4,2.4-8.4,5.3,0,2.2,2.1,4,6.5,5.1,3.3.9,4.5,1.8,4.5,3.3s-1.5,2.7-4.8,2.7a16.09,16.09,0,0,1-5.9-1.3Z" style="fill:#3535ed"/><path class="crown" d="M11.1,93.6,5.9,87.9a13.56,13.56,0,0,1,19.1.8l-5.7,5.2A5.83,5.83,0,0,0,11.1,93.6Zm8.2.3L25,88.7a13.56,13.56,0,0,1-.8,19.1L19,102.1a5.83,5.83,0,0,0,.3-8.2Zm-8.2-.3a5.83,5.83,0,0,0-.4,8.2L5,107a13.56,13.56,0,0,1,.8-19.1Zm7.8,8.5,5.2,5.7A13.56,13.56,0,0,1,5,107H5l5.7-5.2A5.92,5.92,0,0,0,18.9,102.1Zm-6.5-9.2a5.78,5.78,0,1,1-2.1,7.9A5.74,5.74,0,0,1,12.4,92.9ZM2.6,122.6a26.25,26.25,0,0,0,2,11.7,7.91,7.91,0,0,0,2.7,3.3c3.7,2.8,7.4,3.2,11.1,1.5a10.15,10.15,0,0,0,4.9-4.7,26.85,26.85,0,0,0,3.2-15.3c.1-4-1.2-3.7-4.2-4.1H9.5a6.4,6.4,0,0,0-5.3,2.6l-.1.1A9.69,9.69,0,0,0,2.6,122.6Zm.2-60.4c-1.4,6-.7,11,3.5,14.1,3.3,1.2,9.9,1,16.5.8,6.9-2,5-9.5,1.4-18a10.9,10.9,0,0,0-8.3-6.7,11.44,11.44,0,0,0-4.1.2A12.75,12.75,0,0,0,2.8,62.2Z" style="fill:#fff;stroke:#000;stroke-miterlimit:10"/><path class="braces" d="M12.9,64.8A2,2,0,0,0,14,65h1.2a3.55,3.55,0,0,0,1-.2h0v2.7a3.55,3.55,0,0,0-1-.2H14a4.25,4.25,0,0,0-1.1.2V64.8h0m4.6-3.9H16.4c-.4.1-.7.4-.6.8v.5c0,.4-.3.8-.6.8H14.1a.64.64,0,0,1-.6-.8v-.5a.76.76,0,0,0-.6-.8H11.8a.64.64,0,0,0-.6.8v3.8H.3v1.3H11.2v3.8c0,.4.3.8.6.8h1.1c.4-.1.7-.4.6-.8v-.5c0-.4.3-.8.6-.8h1.2a.77.77,0,0,1,.7.8v.5a.76.76,0,0,0,.6.8h1.1a.77.77,0,0,0,.7-.8l.1-3.8H29.3V65.5H18.4l-.1-3.8c-.1-.4-.4-.8-.8-.8Z"/><path class="gum" d="M29.3,57.4h-6s-2.1-6.7-9.3-6.7a9.56,9.56,0,0,0-9.2,6.2H.4" style="fill:none;stroke:#ffb900;stroke-linejoin:round;stroke-width:3px"/><path class="paradontit1" d="M29.3,57.4H26.1a3.8,3.8,0,0,1-3.5-3.3c-1.2-5.2-3.1-8.9-8.4-8.9s-8.3,2.9-9.1,8.1a3.86,3.86,0,0,1-3.6,3.6H.3" style="fill:none;stroke:#ff822e;stroke-linejoin:round;stroke-width:3px"/><path class="paradontit2" d="M29.3,57.4H28.1a3.89,3.89,0,0,1-3.5-3.1c-1.6-6.3-5.5-14-11.1-14S4.6,47.5,3.3,53.9a3.21,3.21,0,0,1-3,3" style="fill:none;stroke:#f9610d;stroke-linejoin:round;stroke-width:3px"/><path class="paradontit3" d="M29.3,57.4H28.1a3.89,3.89,0,0,1-3.5-3.1C23,48,19.5,35.4,14,35.4S4.6,47.5,3.3,53.9a3.21,3.21,0,0,1-3,3" style="fill:none;stroke:#f9610d;stroke-linejoin:round;stroke-width:3px"/><path class="paradontit4" d="M29.3,57.4h-.9c-1.8,0-3.3-1.6-3.6-3.7-1.3-8.8.2-23.2-10.3-24.2S4.4,44.9,3.1,53.7c-.2,1.8-1.3,3.2-2.8,3.2" style="fill:none;stroke:#f75403;stroke-linejoin:round;stroke-width:3px"/><path class="periodontit" d="M14,3.5A4.5,4.5,0,1,1,9.5,8,4.48,4.48,0,0,1,14,3.5Z" style="fill:#3535ed"/></g></g></g></svg>