<svg xmlns="http://www.w3.org/2000/svg" viewBox="0 0 28.7 146.3"><title>52tooth</title><g class="Слой_2" data-name="Слой 2"><g class="Слой_1-2" data-name="Слой 1"><g class="_52" data-name="52"><path class="background" d="M0,0H28.5V146.3H0V0Z" style="fill:#9fdaff"/><path class="bone" d="M0,0H28.5V57.2H0V0Z" style="fill:#de82a7"/><path class="bridge" d="M0,126v-4l28.5-.1v4ZM28.5,99.9v-4L0,96v4Zm0-27v-4L0,69v4Z" style="fill:#3535ed"/><path class="root" d="M7.4,57c3.3-12.3,4-26,3.9-39.9a8,8,0,0,1,1.8-5.2c1.6-1.9,2.9-1.6,3.9.3a8.46,8.46,0,0,1,.9,4.1c.2,14.4.8,28.1,2.2,40.4" style="fill:#f0e7be;stroke:#1a1715;stroke-miterlimit:10"/><path class="rootCanal" d="M11.9,60.7a24.91,24.91,0,0,1,2.6-.2c4,1.5,7.3,1.4,3.7-4.6-6.5-11.1-1.4-43-2.3-43.4-2.4-1.2-4.4,39.3-3.9,41.8l-1,5C10.9,60,11.3,60.7,11.9,60.7Z" style="fill:#3535ed;stroke:#201600;stroke-miterlimit:10;stroke-width:0.25px"/><path class="implant" d="M21.1,18.9a1.9,1.9,0,0,0-1-1.6,15.23,15.23,0,0,0-12.2,0,1.39,1.39,0,0,0-.7.8l14,2.2Zm.1,2.9L6.9,19.5,6.8,22l14.4,2.3V21.8Zm.1,4L6.8,23.5,6.7,26l14.7,2.3Zm.1,4.1L6.6,27.6V30l14.9,2.3Zm.2,3.9-15-2.3L6.5,34l15.2,2.4Zm.1,4.1L6.4,35.5,6.3,38l15.6,2.4Zm.1,5.1L6.1,40.6,6,43l15.8,2.4Zm.2,2.9L6.1,43.4,6,46l16-.1Zm1.5,3a1.85,1.85,0,0,0-.2-.7.91.91,0,0,0-.7-.3H5.5a.91.91,0,0,0-.7.3,1.17,1.17,0,0,0-.2.7v1.9H23.5Zm.5,4.9a1.19,1.19,0,0,0-.5-.9.6.6,0,0,0-.4-.1H5c-.2,0-.3.1-.4.1a1,1,0,0,0-.4.9V55a.94.94,0,0,0,1,1H23.3a1.08,1.08,0,0,0,1-1Z" style="fill:#3535ed"/><path class="rootMusk" d="M7.4,57c3.3-12.3,4-26,3.9-39.9a8,8,0,0,1,1.8-5.2c1.6-1.9,2.9-1.6,3.9.3a8.46,8.46,0,0,1,.9,4.1c.2,14.4.8,28.1,2.2,40.4" style="fill:#f0e7be;stroke:#1a1715;stroke-miterlimit:10"/><path class="coronaLingual" d="M6.2,115.4a54.49,54.49,0,0,1,13.9-1.2c3.8,0,5.3.7,5.3,4.7a32.43,32.43,0,0,1-3.9,16.3,7.1,7.1,0,0,1-1,1.4c-3,2.9-6.3,3.2-9.9,1.6A8.06,8.06,0,0,1,7.2,135a27.73,27.73,0,0,1-3.4-16.2C3.8,116.7,4.6,115.5,6.2,115.4Z" style="fill:#fff;stroke:#1a1715;stroke-miterlimit:10;stroke-width:0.25px"/><path class="coronaLingualIncisalDistal" d="M6.2,115.4c-1.6.1-2.4,1.3-2.6,3.4-.1,1.1-.1,2.2-.1,3.3H8.8v-7.2C8,115,7.1,115.2,6.2,115.4Z" style="fill:#3535ed"/><path class="coronaLingualIncisalMiddle" d="M16.7,114.2a41.14,41.14,0,0,0-7.8.7v7.2h7.8Z" style="fill:#3535ed"/><path class="coronaLingualIncisionMesial" d="M25.4,118.9c.1-4-1.4-4.7-5.3-4.7-1.2,0-2.3-.1-3.4,0v7.9h8.6C25.3,121,25.4,120,25.4,118.9Z" style="fill:#3535ed"/><path class="coronaLingualMiddleMiddle" d="M8.8,122.1h7.8v11.2H8.8Z" style="fill:#3535ed"/><path class="coronaLingualMiddleMesial" d="M25.2,122.1H16.6v11.2h5.7A30.47,30.47,0,0,0,25.2,122.1Z" style="fill:#3535ed"/><path class="coronaLingualCervicalMiddle" d="M8.8,133.3v3.8a9.91,9.91,0,0,0,1.7,1.1,8.56,8.56,0,0,0,6.2.7v-5.6Z" style="fill:#3535ed"/><path class="coronaLingualCervicalDistal" d="M6.3,133.3c.3.6.5,1.1.8,1.7a6.84,6.84,0,0,0,1.7,2.1v-3.8Z" style="fill:#3535ed"/><path class="coronaLingualCervicalMesial" d="M16.7,133.3v5.6a9.56,9.56,0,0,0,3.7-2.2,4.51,4.51,0,0,0,1-1.4c.3-.6.6-1.3.9-1.9H16.7v-.1Z" style="fill:#3535ed"/><path class="coronaLabial" d="M8.1,77.5c3.6.7,8.4.3,13.1.1,4.3.8,4.7-1.8,3.6-5.6a65.63,65.63,0,0,0-2.6-13.2A8.18,8.18,0,0,0,18,53.9c-3.6-1.7-7.3-.9-11,2.2A20.11,20.11,0,0,0,3.8,73.4,5.63,5.63,0,0,0,8.1,77.5Z" style="fill:#fff;stroke:#1a1715;stroke-miterlimit:10"/><path class="coronaLabialIncisalDistal" d="M3.1,69.5a25,25,0,0,0,.6,3.8,5.6,5.6,0,0,0,4.4,4.1c.6.1,1.2.2,1.9.3V69.5Z" style="fill:#3535ed"/><path class="coronaLabialIncisalMiddle" d="M10,69.5v8.2a40.83,40.83,0,0,0,7,0V69.5Z" style="fill:#3535ed"/><path class="coronaLabialIncisionMesial" d="M24.7,71.9l-.3-2.4H16.9v8.2c1.4-.1,2.8-.2,4.2-.2C25.5,78.3,25.9,75.8,24.7,71.9Z" style="fill:#3535ed"/><path class="coronaLabialMiddleDistal" d="M5.4,58.4A19.35,19.35,0,0,0,3,69.6H9.9V58.4Z" style="fill:#3535ed"/><path class="coronaLabialMiddleMiddle" d="M10,58.4h7V69.6H10Z" style="fill:#3535ed"/><path class="coronaLabialMiddleMesial" d="M22.1,58.7c0-.1-.1-.2-.1-.3H17V69.6h7.5A66.13,66.13,0,0,0,22.1,58.7Z" style="fill:#3535ed"/><path class="coronaLabialCervicalDistal" d="M6.9,56a15.76,15.76,0,0,0-1.5,2.4H9.9V54A12,12,0,0,0,6.9,56Z" style="fill:#3535ed"/><path class="coronaLabialCervicalMiddle" d="M10,53.9v4.4h7v-5A9.47,9.47,0,0,0,10,53.9Z" style="fill:#3535ed"/><path class="coronaLabialCervicalMesial" d="M17.9,53.8c-.3-.1-.6-.3-.9-.4v5h5A8.44,8.44,0,0,0,17.9,53.8Z" style="fill:#3535ed"/><path class="veneer" d="M4.5,70.4l1.6,1.2c2.3,1.8,2.4,2.2,1.4,4.9l-.7,1.8L8,76.8c1.8-2.3,2.2-2.4,4.9-1.4l1.9.7-1.6-1.2c-2.3-1.8-2.4-2.2-1.4-4.9l.7-1.8-1.2,1.6c-1.8,2.3-2.2,2.4-4.9,1.4ZM5.8,60l1.6,1.2c1.4,1.1,1.5,1.3.8,3L7.5,66l1.2-1.6c1.1-1.4,1.3-1.5,3-.8l1.8.7-1.6-1.2c-1.4-1.1-1.5-1.3-.8-2.9l.7-1.8L10.6,60c-1.1,1.4-1.3,1.5-2.9.8Zm10,2.6,1.6,1.2c1.4,1.1,1.5,1.3.8,2.9l-.7,1.8,1.2-1.6c1.1-1.4,1.3-1.5,3-.8l1.8.7-1.6-1.2c-1.4-1.1-1.5-1.3-.8-3l.7-1.8-1.2,1.6c-1.1,1.4-1.3,1.5-2.9.8Z" style="fill:#3535ed"/><path class="coronaTop" d="M10.8,93.6l-5-5.5a13.08,13.08,0,0,1,18.4.8l-5.5,5A5.65,5.65,0,0,0,10.8,93.6Zm7.9.3,5.5-5a13.21,13.21,0,0,1-.8,18.5h0l-5-5.5A5.59,5.59,0,0,0,18.7,93.9Zm-.4,8,5,5.5a13.08,13.08,0,0,1-18.4-.8h0l5.5-5A5.75,5.75,0,0,0,18.3,101.9Zm-7.5-8.3a5.65,5.65,0,0,0-.4,7.9l-5.5,5A13.21,13.21,0,0,1,5.7,88Zm3.8-1.5A5.6,5.6,0,1,1,9,97.7,5.59,5.59,0,0,1,14.6,92.1Z" style="fill:#fff;stroke:#000;stroke-miterlimit:10"/><path class="coronaTopBuccal" d="M10.8,93.6l-5-5.5a13.08,13.08,0,0,1,18.4.8l-5.5,5A5.65,5.65,0,0,0,10.8,93.6Z" style="fill:#3535ed"/><path class="coronaLingualMiddleDistal" d="M3.6,122.1a26.7,26.7,0,0,0,2.7,11.2H8.9V122.1Z" style="fill:#3535ed"/><path class="coronaTopMedial" d="M18.7,93.9l5.5-5a13.21,13.21,0,0,1-.8,18.5h0l-5-5.5A5.59,5.59,0,0,0,18.7,93.9Z" style="fill:#3535ed"/><path class="coronaTopLingual" d="M18.3,101.9l5,5.5a13.08,13.08,0,0,1-18.4-.8h0l5.5-5A5.75,5.75,0,0,0,18.3,101.9Z" style="fill:#3535ed"/><path class="coronaTopDistal" d="M10.8,93.6a5.65,5.65,0,0,0-.4,7.9l-5.5,5A13.21,13.21,0,0,1,5.7,88Z" style="fill:#3535ed"/><path class="coronaTopOclusial" d="M14.6,92.1A5.6,5.6,0,1,1,9,97.7,5.59,5.59,0,0,1,14.6,92.1Z" style="fill:#3535ed"/><path class="silant" d="M5.6,105.8a19,19,0,0,0,6.9,1.2c5.8,0,9.2-2.2,9.2-5.4,0-2.7-2.2-4.2-6.4-5.4-3.2-.9-4.7-1.6-4.7-3.1,0-1.3,1.5-2.5,4.1-2.5a13.11,13.11,0,0,1,5,1l1.1-2.4a15.66,15.66,0,0,0-6-1.1c-5.3,0-8.4,2.4-8.4,5.3,0,2.2,2.1,4,6.5,5.1,3.3.9,4.5,1.8,4.5,3.3s-1.5,2.7-4.8,2.7a16.09,16.09,0,0,1-5.9-1.3Z" style="fill:#3535ed"/><path class="crown" d="M10.8,93.6l-5-5.5a13.08,13.08,0,0,1,18.4.8l-5.5,5A5.65,5.65,0,0,0,10.8,93.6Zm7.9.3,5.5-5a13.21,13.21,0,0,1-.8,18.5h0l-5-5.5A5.59,5.59,0,0,0,18.7,93.9Zm-.4,8,5,5.5a13.08,13.08,0,0,1-18.4-.8h0l5.5-5A5.75,5.75,0,0,0,18.3,101.9Zm-7.5-8.3a5.65,5.65,0,0,0-.4,7.9l-5.5,5A13.21,13.21,0,0,1,5.7,88Zm3.8-1.5A5.6,5.6,0,1,1,9,97.7,5.59,5.59,0,0,1,14.6,92.1ZM6.2,115.4a54.49,54.49,0,0,1,13.9-1.2c3.8,0,5.3.7,5.3,4.7a32.43,32.43,0,0,1-3.9,16.3,7.1,7.1,0,0,1-1,1.4c-3,2.9-6.3,3.2-9.9,1.6A8.06,8.06,0,0,1,7.2,135a27.73,27.73,0,0,1-3.4-16.2C3.8,116.7,4.6,115.5,6.2,115.4ZM8.1,77.5c3.6.7,8.4.3,13.1.1,4.3.8,4.7-1.8,3.6-5.6a65.63,65.63,0,0,0-2.6-13.2A8.18,8.18,0,0,0,18,53.9c-3.6-1.7-7.3-.9-11,2.2A20.11,20.11,0,0,0,3.8,73.4,5.63,5.63,0,0,0,8.1,77.5Z" style="fill:#fff;stroke:#000;stroke-miterlimit:10"/><path class="braces" d="M12.4,64.7a2,2,0,0,0,1.1.2h1.2a3.55,3.55,0,0,0,1-.2h0v2.7a3.55,3.55,0,0,0-1-.2H13.5a4.25,4.25,0,0,0-1.1.2V64.7h0M17,60.8H15.9c-.4.1-.7.4-.6.8v.5c0,.4-.3.8-.6.8H13.6a.64.64,0,0,1-.6-.8v-.5a.76.76,0,0,0-.6-.8H11.3a.64.64,0,0,0-.6.8v3.8H.3v1.3H10.7v3.8c0,.4.3.8.6.8h1.1c.4-.1.7-.4.6-.8V70c0-.4.3-.8.6-.8h1.2a.77.77,0,0,1,.7.8v.5a.76.76,0,0,0,.6.8h1.1a.77.77,0,0,0,.7-.8V66.7H28.7V65.4H17.8V61.6c-.2-.4-.5-.8-.8-.8Z"/><path class="gum" d="M28.5,56.8H22s-4-5.4-8.5-5.4S5,56.8,5,56.8H0" style="fill:none;stroke:#ffb900;stroke-linejoin:round;stroke-width:3px"/><path class="paradontit1" d="M28.5,56.8H24.6a4.53,4.53,0,0,1-3.8-2.1c-1.8-2.8-4.1-8.6-7.3-8.6-2.9,0-6.2,5.2-7.5,8a4.5,4.5,0,0,1-4.1,2.7H0" style="fill:none;stroke:#ff822e;stroke-linejoin:round;stroke-width:3px"/><path class="paradontit2" d="M28.5,56.8c-1.2,0-5.4-.4-6.2-1.8-2.1-3.7-2.9-13.1-8.1-13.1s-8,8.8-9.6,12.7C4,56.9,2,56.8,0,56.8" style="fill:none;stroke:#f9610d;stroke-linejoin:round;stroke-width:3px"/><path class="paradontit3" d="M28.5,56.8c-1,0-5.4-.4-6.2-1.8-2.1-3.7-2.8-17.6-7.9-17.6-5.9,0-8.2,13.3-9.8,17.2.3.7-3.2,2.2-4.6,2.2" style="fill:none;stroke:#f9610d;stroke-linejoin:round;stroke-width:3px"/><path class="paradontit4" d="M28.5,56.8c-2,0-5.4-.6-6.1-2.4C20.2,48.6,22,32.1,14,32.1S5.4,47.7,4.2,53.7A4,4,0,0,1,0,56.8" style="fill:none;stroke:#f75403;stroke-linejoin:round;stroke-width:3px"/><path class="periodontit" d="M15.2,3.4a4.5,4.5,0,1,1-4.5,4.5A4.48,4.48,0,0,1,15.2,3.4Z" style="fill:#3535ed"/></g></g></g></svg>