<svg xmlns="http://www.w3.org/2000/svg" viewBox="0 0 30.3 146.3"><title>53tooth</title><g class="Слой_2" data-name="Слой 2"><g class="Слой_1-2" data-name="Слой 1"><g class="_53" data-name="53"><path class="background" d="M.3,0h30V146.3H.3Z" style="fill:#9fdaff"/><path class="bone" d="M.3,0h30V57.2H.3Z" style="fill:#de82a7"/><path class="bridge" d="M.3,126.1v-4l30-.1v4Zm30-26.1V96l-30,.1v4Zm0-27V69l-30,.1v4Z" style="fill:#3535ed"/><path class="root" d="M7.8,56.1c2.8-9.4,4.2-22.6,4.9-37.5a4.35,4.35,0,0,1,2.9-3.7,3,3,0,0,1,3.3.5,2.65,2.65,0,0,1,.8,2.2c-.9,13.4-.1,26,3,37.5" style="fill:#f0e7be;stroke:#1a1715;stroke-miterlimit:10"/><path class="rootCanal" d="M13.2,55c.4,0,.8-.1,1.2-.1a12,12,0,0,1,3.8.3c2.1.6,3.5.5,1.6-2.2a4.67,4.67,0,0,1-.5-1c-2-5.9-2.6-14.3-2.3-22.7a53.42,53.42,0,0,1,0-8.2,24.9,24.9,0,0,1,1.2-5c.1-3.3-1.8,1.3-2.5,4.7-.6,2.4-.4,5.9-.8,9-1,9.2-.8,19.8-1,21a.71.71,0,0,1-.3.6c-.7.7-2.5,2.4-2.1,3.1S13.2,55,13.2,55Z" style="fill:#3535ed"/><path class="implant" d="M19.5,18.9a1.9,1.9,0,0,0-1-1.6,15.23,15.23,0,0,0-12.2,0,1.39,1.39,0,0,0-.7.8l14,2.2Zm.1,2.9L5.3,19.5,5.2,22l14.4,2.3V21.8Zm.1,4L5.2,23.5,5.1,26l14.7,2.3Zm.1,4.1L5,27.6V30l14.9,2.3Zm.2,3.9L5,31.5,4.9,34l15.2,2.4Zm.1,4.1L4.8,35.5,4.7,38l15.4,2.4V37.9Zm.1,5.1L4.5,40.6,4.4,43l15.8,2.4Zm.2,2.9L4.5,43.4,4.4,46c2,1.2,9.6.4,16-.1Zm1.5,3a1.85,1.85,0,0,0-.2-.7.91.91,0,0,0-.7-.3H3.9a.91.91,0,0,0-.7.3,1.17,1.17,0,0,0-.2.7v1.9H21.9Zm.4,4.9a1.49,1.49,0,0,0-.4-.9.6.6,0,0,0-.4-.1H3.4c-.2,0-.3.1-.4.1a1,1,0,0,0-.4.9V55a.94.94,0,0,0,1,1H21.7a1.08,1.08,0,0,0,1-1h0Z" style="fill:#3535ed"/><path class="rootMask" d="M7.8,56.1c2.8-9.4,4.2-22.6,4.9-37.5a4.35,4.35,0,0,1,2.9-3.7,3,3,0,0,1,3.3.5,2.65,2.65,0,0,1,.8,2.2c-.9,13.4-.1,26,3,37.5" style="fill:#f0e7be;stroke:#1a1715;stroke-miterlimit:10"/><path class="coronaLingual" d="M7.5,121.2c7-10.1,13-10.8,17.5,1.8a15.94,15.94,0,0,1,.6,3c.3,5.8-.9,10.4-3.7,13.8-4.3,4.9-8.7,5.2-13,.8a15.83,15.83,0,0,1-4-11.4A15.21,15.21,0,0,1,7.5,121.2Z" style="fill:#fff;stroke:#1a1715;stroke-miterlimit:10;stroke-width:0.25px"/><path class="coronaLingualIncisionDistal" d="M7.5,121.2a3.51,3.51,0,0,0-.5.8h4.3v-5.4A49.06,49.06,0,0,0,7.5,121.2Z" style="fill:#3535ed"/><path class="coronaLingualIncisalMiddle" d="M19.5,114.4c-2.5-1.5-5.2-.6-8.2,2.3v5.4h8.2Z" style="fill:#3535ed"/><path class="coronaLingualIncisionMesial" d="M19.5,114.4v7.7h5.2C23.1,118,21.4,115.5,19.5,114.4Z" style="fill:#3535ed"/><path class="coronaLingualMiddleDistal" d="M7,122.1a13.59,13.59,0,0,0-2,7.1,18.4,18.4,0,0,0,.4,4.1h5.9V122.1Z" style="fill:#3535ed"/><path class="coronaLingualMiddleMiddle" d="M11.3,122.1h8.2v11.2H11.3Z" style="fill:#3535ed"/><path class="coronaLingualMiddleMesial" d="M25.7,126a15.94,15.94,0,0,0-.6-3,6.89,6.89,0,0,0-.4-1H19.5v11.2h5.6A26.9,26.9,0,0,0,25.7,126Z" style="fill:#3535ed"/><path class="coronaLingualCervicalDistal" d="M5.4,133.3A15.84,15.84,0,0,0,9,140.5a12.84,12.84,0,0,0,2.3,1.9v-9.1Z" style="fill:#3535ed"/><path class="coronaLingualCervicalMiddle" d="M11.3,133.3v9.1a6.91,6.91,0,0,0,8.2-.3v-8.8Z" style="fill:#3535ed"/><path class="coronaLingualCervicalMesial" d="M19.5,133.3v8.8a17.43,17.43,0,0,0,2.5-2.3,15.72,15.72,0,0,0,3.1-6.5Z" style="fill:#3535ed"/><path class="coronaLabial" d="M10.8,53c3.8-2.7,7.6-2.3,11.6,1.8,2.6,4.3,4,8.6,3,12.9a21,21,0,0,1-6.7,10.2,5.77,5.77,0,0,1-4,1.4H12.8c-7-1.8-9.1-8.3-6.7-18.9A12.09,12.09,0,0,1,10.8,53Z" style="fill:#fff;stroke:#1a1715;stroke-miterlimit:10"/><path class="coronaLabialIncisalDistal" d="M5.2,69.5c.4,4.7,2.4,7.9,6.3,9.3V69.5Z" style="fill:#3535ed"/><path class="coronaLabialIncisalMiddle" d="M11.5,69.5v9.3a5,5,0,0,0,1.3.4h1.9a6.28,6.28,0,0,0,4-1.4,9,9,0,0,0,1-.9V69.5Z" style="fill:#3535ed"/><path class="coronaLabialIncisionMesial" d="M19.7,69.5v7.4a19.81,19.81,0,0,0,5-7.4Z" style="fill:#3535ed"/><path class="coronaLabialMiddleDistal" d="M6.7,58.4a8.3,8.3,0,0,0-.6,2.1,30.71,30.71,0,0,0-.9,9.1h6.3V58.4Z" style="fill:#3535ed"/><path class="coronaLabialMiddleMiddle" d="M11.5,58.4h8.2V69.6H11.5Z" style="fill:#3535ed"/><path class="coronaLabialMiddleMesial" d="M24.2,58.4H19.6V69.6h5c.2-.6.5-1.2.7-1.9A13.78,13.78,0,0,0,24.2,58.4Z" style="fill:#3535ed"/><path class="coronaLabialCervicalDistal" d="M10.8,53a11.93,11.93,0,0,0-4.1,5.3h4.7V52.5A2.65,2.65,0,0,1,10.8,53Z" style="fill:#3535ed"/><path class="coronaLabialCervicalMiddle" d="M11.5,52.6v5.8h8.2V52.6A7.23,7.23,0,0,0,11.5,52.6Z" style="fill:#3535ed"/><path class="coronaLabialCervicalMesial" d="M22.4,54.8a13.06,13.06,0,0,0-2.7-2.2v5.8h4.6C23.7,57.2,23.1,56,22.4,54.8Z" style="fill:#3535ed"/><path class="veneer" d="M1.9,69.4l1.6,1.2c2.3,1.8,2.4,2.2,1.4,4.9l-.7,1.8,1.2-1.5c1.8-2.3,2.2-2.4,4.9-1.4l1.9.7-1.6-1.2C8.3,72.1,8.2,71.7,9.2,69l.7-1.8L8.7,68.8c-1.8,2.3-2.2,2.4-4.9,1.4ZM4.2,59l1.6,1.2c1.4,1.1,1.5,1.3.8,3L5.9,65l1.2-1.6c1.1-1.4,1.3-1.5,2.9-.8l1.9.7-1.6-1.2c-1.4-1.1-1.5-1.3-.9-2.9l.7-1.8L8.9,59c-1.1,1.4-1.3,1.5-3,.8Zm15,7.6,1.6,1.2c1.4,1.1,1.5,1.3.8,2.9l-.7,1.8,1.2-1.6c1.1-1.4,1.3-1.5,2.9-.8l1.9.7-1.6-1.2c-1.4-1.1-1.5-1.3-.8-3l.7-1.8L24,66.4c-1.1,1.4-1.3,1.5-3,.8Z" style="fill:#3535ed"/><path class="coronaTop" d="M11.4,93.5,6.2,87.8a13.56,13.56,0,0,1,19.1.8l-5.7,5.2A5.83,5.83,0,0,0,11.4,93.5Zm8.2.3,5.7-5.2a13.56,13.56,0,0,1-.8,19.1h0L19.3,102A5.83,5.83,0,0,0,19.6,93.8Zm-.4,8.2,5.2,5.7a13.56,13.56,0,0,1-19.1-.8h0l5.7-5.2A5.92,5.92,0,0,0,19.2,102Zm-7.8-8.5a5.83,5.83,0,0,0-.4,8.2h0l-5.7,5.2a13.56,13.56,0,0,1,.8-19.1Zm3.9-1.6a5.8,5.8,0,1,1-5.8,5.8A5.8,5.8,0,0,1,15.3,91.9Z" style="fill:#fff;stroke:#000;stroke-miterlimit:10"/><path class="coronaTopBuccal" d="M11,93.5,5.8,87.8a13.56,13.56,0,0,1,19.1.8l-5.7,5.2A5.83,5.83,0,0,0,11,93.5Z" style="fill:#3535ed"/><path class="coronaTopMedial" d="M19.2,93.8l5.7-5.2a13.56,13.56,0,0,1-.8,19.1h0L18.9,102A5.83,5.83,0,0,0,19.2,93.8Z" style="fill:#3535ed"/><path class="coronaTopLingual" d="M19.2,101.7l5.2,5.7a13.56,13.56,0,0,1-19.1-.8h0l5.7-5.2A5.92,5.92,0,0,0,19.2,101.7Z" style="fill:#3535ed"/><path class="coronaTopDistal" d="M11.4,93.5a5.83,5.83,0,0,0-.4,8.2h0l-5.7,5.2a13.56,13.56,0,0,1,.8-19.1Z" style="fill:#3535ed"/><path class="coronaTopOclusial" d="M15.3,91.9a5.8,5.8,0,1,1-5.8,5.8A5.8,5.8,0,0,1,15.3,91.9Z" style="fill:#3535ed"/><path class="silant" d="M7.3,105.8a19,19,0,0,0,6.9,1.2c5.8,0,9.2-2.2,9.2-5.4,0-2.7-2.2-4.2-6.4-5.4-3.2-.9-4.7-1.6-4.7-3.1,0-1.3,1.5-2.5,4.1-2.5a13.11,13.11,0,0,1,5,1l1.1-2.4a15.66,15.66,0,0,0-6-1.1c-5.3,0-8.4,2.4-8.4,5.3,0,2.2,2.1,4,6.5,5.1,3.3.9,4.5,1.8,4.5,3.3s-1.5,2.7-4.8,2.7a16.09,16.09,0,0,1-5.9-1.3Z" style="fill:#3535ed"/><path class="crown" d="M11.4,93.5,6.2,87.8a13.56,13.56,0,0,1,19.1.8l-5.7,5.2A5.83,5.83,0,0,0,11.4,93.5Zm8.2.3,5.7-5.2a13.56,13.56,0,0,1-.8,19.1h0L19.3,102A5.83,5.83,0,0,0,19.6,93.8Zm-.4,8.2,5.2,5.7a13.56,13.56,0,0,1-19.1-.8h0l5.7-5.2A5.92,5.92,0,0,0,19.2,102Zm-7.8-8.5a5.83,5.83,0,0,0-.4,8.2h0l-5.7,5.2a13.56,13.56,0,0,1,.8-19.1Zm3.9-1.6a5.8,5.8,0,1,1-5.8,5.8A5.8,5.8,0,0,1,15.3,91.9ZM5,129.2a16.92,16.92,0,0,0,4,11.4c4.3,4.4,8.7,4.1,13-.8,2.8-3.3,4-8,3.7-13.8a15.94,15.94,0,0,0-.6-3c-4.5-12.5-10.5-11.8-17.5-1.8A13.65,13.65,0,0,0,5,129.2ZM6.1,60.4c-2.4,10.6-.3,17,6.7,18.9h1.9a6.28,6.28,0,0,0,4-1.4,21,21,0,0,0,6.7-10.2c1-4.3-.3-8.6-3-12.9-3.9-4.1-7.8-4.5-11.6-1.8A12.09,12.09,0,0,0,6.1,60.4Z" style="fill:#fff;stroke:#000;stroke-miterlimit:10"/><path class="braces" d="M14.2,64.7a2,2,0,0,0,1.1.2h1.2a3.55,3.55,0,0,0,1-.2h0v2.7a3.55,3.55,0,0,0-1-.2H15.3a4.25,4.25,0,0,0-1.1.2V64.7h0m4.6-3.9H17.7c-.4.1-.7.4-.6.8v.5c0,.4-.3.8-.6.8H15.4a.64.64,0,0,1-.6-.8v-.5a.76.76,0,0,0-.6-.8H12.9a.64.64,0,0,0-.6.8v3.8H.3v1.3h12v3.8c0,.4.3.8.6.8H14c.4-.1.7-.4.6-.8V70c0-.4.3-.8.6-.8h1.2a.77.77,0,0,1,.7.8v.5a.76.76,0,0,0,.6.8h1.1a.77.77,0,0,0,.7-.8V66.7H30.3V65.4H19.4V61.6a.64.64,0,0,0-.6-.8Z"/><path class="gum" d="M30.3,56.8H24.2s-4-6.9-9.3-6.9-9.4,6.9-9.4,6.9H.3" style="fill:none;stroke:#ffb900;stroke-linejoin:round;stroke-width:3px"/><path class="paradontit1" d="M30.3,56.8H26.4c-1.4,0-1,.2-1.7-1.1-1.5-2.8-5.8-8.9-9.5-8.9-3.5,0-7.7,4.6-8.8,7.4-.6,1.6-1.1,2.7-2.7,2.7H.3" style="fill:none;stroke:#ff822e;stroke-linejoin:round;stroke-width:3px"/><path class="paradontit2" d="M30.3,56.4s-4.4,0-5.2-2c-1.8-4-5.4-11.8-9.3-11.8S7.5,51,5.9,55.1C5.4,56.4.5,56.7.5,56.7" style="fill:none;stroke:#f9610d;stroke-linejoin:round;stroke-width:3px"/><path class="paradontit3" d="M30.3,56.8H27a3,3,0,0,1-2.4-1.9c-1.8-4-2.6-15.5-8.9-15.5S6.7,50.5,5.1,54.6C4.3,56.8.3,56.8.3,56.8" style="fill:none;stroke:#f9610d;stroke-linejoin:round;stroke-width:3px"/><path class="paradontit4" d="M30.3,56.8c-1.1,0-5-.7-6.2-3.4-2.9-6.3,1.4-18.1-8.9-18.1S8.4,54.1,6.4,55.4a7.8,7.8,0,0,1-4.9,1.3H.3" style="fill:none;stroke:#f75403;stroke-linejoin:round;stroke-width:3px"/><path class="periodontit" d="M17.1,6.1a4.5,4.5,0,1,1-4.5,4.5A4.48,4.48,0,0,1,17.1,6.1Z" style="fill:#3535ed"/></g></g></g></svg>