<svg xmlns="http://www.w3.org/2000/svg" viewBox="0 0 44.1 146.3"><title>54tooth</title><g class="Слой_2" data-name="Слой 2"><g class="Слой_1-2" data-name="Слой 1"><g class="_54" data-name="54"><path class="background" d="M.1,0h44V146.3H.1V0Z" style="fill:#9fdaff"/><path class="bone" d="M.1,0h44V57.2H.1V0Z" style="fill:#de82a7"/><path class="bridge" d="M.1,100.2v-4l44-.1v4Zm44,25.9v-4l-44,.1v4Zm0-53v-4l-44,.1v4Z" style="fill:#3535ed"/><path class="root" d="M32.9,18.6a6.82,6.82,0,0,0-1.7,4.3,49.22,49.22,0,0,1-3.5,17.2,7.88,7.88,0,0,1-2.3,3.1A83.51,83.51,0,0,1,20.1,21a6.18,6.18,0,0,0-.9-2.7c-.8-1.2-1.6-1.1-2.4-.1a4.08,4.08,0,0,0-.7,2.8,83.18,83.18,0,0,1-.7,20.3c-2.7-5.7-4.2-12.9-5.3-20.7-1.3-3.3-2-2.7-2.5.5.5,13.5,2,26.5,5.3,36.2l15.8-1.4c4.8-8.5,7-20.7,7.9-34.7C36,17.5,34.8,16.4,32.9,18.6Z" style="fill:#f0e7be;stroke:#1a1715;stroke-miterlimit:10"/><path class="rootCanal" d="M34.6,17.9c-.4-.3-3,15.7-5.1,22.7-1,3.4-4.6,6.7-6.2,6.1C21,45.7,18,17.8,17.7,18c-.8.4,1.4,16.3,1.3,25.8a2.23,2.23,0,0,1-3.8,1.6A14.45,14.45,0,0,1,12,39.6c-1.5-5-3.4-20.8-3.5-20.8s1.2,17.8,2.2,22.5c1.3,6.1,4.5,15.5,5.6,15a66.79,66.79,0,0,1,8.4-.1c1.1,0,3.9,2.3,3.1-1.8-.6-2.7,1.1-5.5,3.2-11.3C33.1,37.7,34.9,18.1,34.6,17.9Z" style="fill:#3535ed"/><path class="implant" d="M27.5,18.9a1.9,1.9,0,0,0-1-1.6,15.23,15.23,0,0,0-12.2,0,1.39,1.39,0,0,0-.7.8l14,2.2Zm.1,2.9L13.3,19.5,13.2,22l14.4,2.3Zm.1,4L13.2,23.5,13.1,26l14.7,2.3Zm.1,4.1L13,27.6V30l14.9,2.3Zm.2,3.9L13,31.5,12.9,34l15.2,2.4Zm.1,4.1L12.8,35.5,12.7,38l15.4,2.4Zm0,5.1L12.4,40.6l-.1,2.5,15.8,2.5Zm.2,2.9L12.4,43.4,12.3,46l16-.1ZM29.8,49a1.85,1.85,0,0,0-.2-.7.91.91,0,0,0-.7-.3H11.7a1.08,1.08,0,0,0-1,1v1.9H29.6Zm.4,4.8a1.49,1.49,0,0,0-.4-.9.6.6,0,0,0-.4-.1H11.3c-.2,0-.3.1-.4.1a1,1,0,0,0-.4.9V55a.94.94,0,0,0,1,1H29.6a1.08,1.08,0,0,0,1-1Z" style="fill:#3535ed"/><path class="rootMusk" d="M32.9,18.6a6.82,6.82,0,0,0-1.7,4.3,49.22,49.22,0,0,1-3.5,17.2,7.88,7.88,0,0,1-2.3,3.1A83.51,83.51,0,0,1,20.1,21a6.18,6.18,0,0,0-.9-2.7c-.8-1.2-1.6-1.1-2.4-.1a4.08,4.08,0,0,0-.7,2.8,83.18,83.18,0,0,1-.7,20.3c-2.7-5.7-4.2-12.9-5.3-20.7-1.3-3.3-2-2.7-2.5.5.5,13.5,2,26.5,5.3,36.2l15.8-1.4c4.8-8.5,7-20.7,7.9-34.7C36,17.5,34.8,16.4,32.9,18.6Z" style="fill:#f0e7be;stroke:#1a1715;stroke-miterlimit:10"/><path class="coronaLingual" d="M8.1,123.1c-.4-3.6,1.1-6.4,5.6-7.6a16.54,16.54,0,0,1,11.3.9c.9,1.3,2.3,1.2,3.5.2a8,8,0,0,1,1.5-.3,4.87,4.87,0,0,1,5.3,5.4,29.22,29.22,0,0,1-3.8,13.1c-4.6,5.7-10,6.3-16.2,3.1a11.33,11.33,0,0,1-5.2-5.6A23.34,23.34,0,0,1,8.1,123.1Z" style="fill:#fff;stroke:#1a1715;stroke-miterlimit:10;stroke-width:0.25px"/><path class="coronaLingualIncisalDistal" d="M13.7,115.5C9.6,116.6,8,118.9,8,122h6.1v-6.6C14,115.5,13.9,115.5,13.7,115.5Z" style="fill:#3535ed"/><path class="coronaLingualIncisalMiddle" d="M27.9,117.1a2.07,2.07,0,0,1-2.8-.6,17.33,17.33,0,0,0-10.9-1v6.6H27.9Z" style="fill:#3535ed"/><path class="coronaLingualIncisionMesial" d="M30,116.3l-1.5.3c-.2.2-.5.3-.7.5v5h7.5v-.3A4.9,4.9,0,0,0,30,116.3Z" style="fill:#3535ed"/><path class="coronaLingualMiddleDistal" d="M8.1,122.1a3.4,3.4,0,0,0,.1,1,24.22,24.22,0,0,0,2,9.3c.1.3.3.6.4.9h3.5V122.1Z" style="fill:#3535ed"/><path class="coronaLingualMiddleMiddle" d="M14.1,122.1H27.8v11.2H14.1Z" style="fill:#3535ed"/><path class="coronaLingualMiddleMesial" d="M35.3,122.1H27.8v11.2h4.6A31.8,31.8,0,0,0,35.3,122.1Z" style="fill:#3535ed"/><path class="coronaLingualCervicalDistal" d="M10.5,133.3a11.23,11.23,0,0,0,3.6,3.9v-3.9Z" style="fill:#3535ed"/><path class="coronaLingualCervicalMiddle" d="M14.1,133.3v3.9c.4.3.8.5,1.2.8,4.6,2.4,8.8,2.7,12.5.3v-5Z" style="fill:#3535ed"/><path class="coronaLingualCervicalMesial" d="M27.9,133.3v5a14.49,14.49,0,0,0,3.7-3.4c.3-.5.6-1.1.9-1.6Z" style="fill:#3535ed"/><path class="coronaLabial" d="M8.2,71.6c.1,3.3,1.4,4.8,3.7,5.1a34.67,34.67,0,0,0,8.5,1,7.23,7.23,0,0,0,4.3-1.5c1.3-.9,2.5-1.2,3.7-.3A5.48,5.48,0,0,0,32.5,77c2-.3,3.3-1.8,3.5-4.9a19.29,19.29,0,0,0-3.7-12.4A32,32,0,0,0,30.1,57c-6.1-6.5-12.4-5.3-19,1.9a5.67,5.67,0,0,0-1.2,1.8A16.18,16.18,0,0,0,8.2,71.6Z" style="fill:#fff;stroke:#000;stroke-miterlimit:10"/><path class="coronaLabialIncisalDistal" d="M7.9,69.5a14.92,14.92,0,0,0,.2,2.1c.1,3.3,1.4,4.8,3.7,5.1a27.1,27.1,0,0,0,5.7.9V69.5Z" style="fill:#3535ed"/><path class="coronaLabialIncisalMiddle" d="M17.5,69.5v8.1a28.1,28.1,0,0,0,2.9.1,7.23,7.23,0,0,0,4.3-1.5,3,3,0,0,1,1.1-.6v-6l-8.3-.1Z" style="fill:#3535ed"/><path class="coronaLabialIncisionMesial" d="M35.9,69.5h-10v6a2.46,2.46,0,0,1,2.6.3,5.48,5.48,0,0,0,4.1,1.1c2-.3,3.3-1.8,3.5-4.9A19.48,19.48,0,0,1,35.9,69.5Z" style="fill:#3535ed"/><path class="coronaLabialMiddleDistal" d="M11.5,58.4l-.5.5a5.67,5.67,0,0,0-1.2,1.8,17.7,17.7,0,0,0-1.9,8.9h9.6V58.4Z" style="fill:#3535ed"/><path class="coronaLabialMiddleMiddle" d="M17.5,58.4h8.3V69.6H17.5Z" style="fill:#3535ed"/><path class="coronaLabialMiddleMesial" d="M32.3,59.7a14.7,14.7,0,0,0-1-1.3H25.9V69.6h10A19.18,19.18,0,0,0,32.3,59.7Z" style="fill:#3535ed"/><path class="coronaLabialCervicalDistal" d="M11.5,58.4h6V53.8A21.4,21.4,0,0,0,11.5,58.4Z" style="fill:#3535ed"/><path class="coronaLabialCervicalMiddle" d="M17.5,53.8v4.6h8.3V53.8A9,9,0,0,0,17.5,53.8Z" style="fill:#3535ed"/><path class="coronaLabialCervicalMesial" d="M30,57a14.66,14.66,0,0,0-4.2-3.2v4.6h5.4A17.41,17.41,0,0,0,30,57Z" style="fill:#3535ed"/><path class="veneer" d="M11.9,70.4l1.6,1.2c2.3,1.8,2.4,2.2,1.4,4.9l-.7,1.8,1.2-1.5c1.8-2.3,2.2-2.4,4.9-1.4l1.8.7-1.6-1.2c-2.3-1.8-2.4-2.2-1.4-4.9l.7-1.8-1.2,1.6c-1.8,2.3-2.2,2.4-4.9,1.4ZM13.2,60l1.6,1.2c1.4,1.1,1.5,1.3.8,3L14.9,66l1.2-1.6c1.1-1.4,1.3-1.5,2.9-.8l1.9.7-1.6-1.2c-1.4-1.1-1.5-1.3-.8-2.9l.7-1.8L18,60c-1.1,1.4-1.3,1.5-3,.8Zm10,2.6,1.6,1.2c1.4,1.1,1.5,1.3.8,2.9l-.7,1.8,1.2-1.6c1.1-1.4,1.3-1.5,2.9-.8l1.9.7-1.6-1.2c-1.4-1.1-1.5-1.3-.8-3l.7-1.8L28,62.4c-1.1,1.4-1.3,1.5-3,.8Z" style="fill:#3535ed"/><path class="coronaTop" d="M17.1,93.5l-5.2-5.7a13.56,13.56,0,0,1,19.1.8l-5.7,5.2A5.83,5.83,0,0,0,17.1,93.5Zm8.2.3L31,88.6a13.56,13.56,0,0,1-.8,19.1L25,102A5.92,5.92,0,0,0,25.3,93.8Zm-.4,8.2,5.2,5.7a13.56,13.56,0,0,1-19.1-.8h0l5.7-5.2A5.92,5.92,0,0,0,24.9,102Zm-7.8-8.5a5.83,5.83,0,0,0-.4,8.2h0L11,106.9a13.56,13.56,0,0,1,.8-19.1h0ZM21,91.9a5.8,5.8,0,1,1-5.8,5.8A5.8,5.8,0,0,1,21,91.9Z" style="fill:#fff;stroke:#000;stroke-miterlimit:10"/><path class="coronaTopBuccal" d="M17.1,93.5l-5.2-5.7a13.56,13.56,0,0,1,19.1.8l-5.7,5.2A5.83,5.83,0,0,0,17.1,93.5Z" style="fill:#3535ed"/><path class="coronaTopMedial" d="M25.3,93.8,31,88.6a13.56,13.56,0,0,1-.8,19.1L25,102A5.92,5.92,0,0,0,25.3,93.8Z" style="fill:#3535ed"/><path class="coronaTopLingual" d="M24.9,102l5.2,5.7a13.56,13.56,0,0,1-19.1-.8h0l5.7-5.2A5.92,5.92,0,0,0,24.9,102Z" style="fill:#3535ed"/><path class="coronaTopDistal" d="M17.1,93.5a5.83,5.83,0,0,0-.4,8.2h0L11,106.9a13.56,13.56,0,0,1,.8-19.1h0Z" style="fill:#3535ed"/><path class="coronaTopOclusial" d="M21,91.9a5.8,5.8,0,1,1-5.8,5.8A5.8,5.8,0,0,1,21,91.9Z" style="fill:#3535ed"/><path class="silant" d="M13,105.8a19,19,0,0,0,6.9,1.2c5.8,0,9.2-2.2,9.2-5.4,0-2.7-2.2-4.2-6.4-5.4-3.2-.9-4.7-1.6-4.7-3.1,0-1.3,1.5-2.5,4.1-2.5a13.11,13.11,0,0,1,5,1l1.1-2.4a15.66,15.66,0,0,0-6-1.1c-5.3,0-8.4,2.4-8.4,5.3,0,2.2,2.1,4,6.5,5.1,3.3.9,4.5,1.8,4.5,3.3s-1.5,2.7-4.8,2.7a16.09,16.09,0,0,1-5.9-1.3Z" style="fill:#3535ed"/><path class="crown" d="M17.1,93.5l-5.2-5.7a13.56,13.56,0,0,1,19.1.8l-5.7,5.2A5.83,5.83,0,0,0,17.1,93.5Zm8.2.3L31,88.6a13.56,13.56,0,0,1-.8,19.1L25,102A5.92,5.92,0,0,0,25.3,93.8Zm-.4,8.2,5.2,5.7a13.56,13.56,0,0,1-19.1-.8h0l5.7-5.2A5.92,5.92,0,0,0,24.9,102Zm-7.8-8.5a5.83,5.83,0,0,0-.4,8.2h0L11,106.9a13.56,13.56,0,0,1,.8-19.1h0ZM21,91.9a5.8,5.8,0,1,1-5.8,5.8A5.8,5.8,0,0,1,21,91.9ZM8.1,123.1c-.4-3.6,1.1-6.4,5.6-7.6a16.54,16.54,0,0,1,11.3.9c.9,1.3,2.3,1.2,3.5.2a8,8,0,0,1,1.5-.3,4.87,4.87,0,0,1,5.3,5.4,29.22,29.22,0,0,1-3.8,13.1c-4.6,5.7-10,6.3-16.2,3.1a11.33,11.33,0,0,1-5.2-5.6A23.34,23.34,0,0,1,8.1,123.1Zm.1-51.5c.1,3.3,1.4,4.8,3.7,5.1a34.67,34.67,0,0,0,8.5,1,7.23,7.23,0,0,0,4.3-1.5c1.3-.9,2.5-1.2,3.7-.3A5.48,5.48,0,0,0,32.5,77c2-.3,3.3-1.8,3.5-4.9a19.29,19.29,0,0,0-3.7-12.4A32,32,0,0,0,30.1,57c-6.1-6.5-12.4-5.3-19,1.9a5.67,5.67,0,0,0-1.2,1.8A16.18,16.18,0,0,0,8.2,71.6Z" style="fill:#fff;stroke:#000;stroke-miterlimit:10"/><path class="braces" d="M20.5,64.7a2,2,0,0,0,1.1.2h1.2a3.55,3.55,0,0,0,1-.2h0v2.7a3.55,3.55,0,0,0-1-.2H21.6a4.25,4.25,0,0,0-1.1.2V64.7h0m4.6-3.9H24c-.4.1-.7.4-.6.8v.5a.77.77,0,0,1-.7.8H21.6a.64.64,0,0,1-.6-.8v-.5a.76.76,0,0,0-.6-.8H19.1a.77.77,0,0,0-.7.8v3.8H.1v1.3H18.5v3.8a.77.77,0,0,0,.7.8h1.1c.4-.1.7-.4.6-.8V70c0-.4.3-.8.6-.8h1.2a.64.64,0,0,1,.6.8v.5a.76.76,0,0,0,.6.8H25a.64.64,0,0,0,.6-.8V66.7H44.1V65.4H25.7V61.6c0-.4-.3-.8-.6-.8Z"/><path class="gum" d="M44.1,56.8h-12S30,51,21.9,51c-7.5.5-12.5,6.3-12.5,6.3H0" style="fill:none;stroke:#ffb900;stroke-linejoin:round;stroke-width:3px"/><path class="paradontit1" d="M44.1,56.8H33.8a4.38,4.38,0,0,1-2.9-1.4c-2.3-2.3-4.6-6.3-10.4-6.3s-8.1,3.8-9.8,5.9C9.5,57.4.1,57.3.1,57.3" style="fill:none;stroke:#ff822e;stroke-linejoin:round;stroke-width:3px"/><path class="paradontit2" d="M44.1,56.8s-11.3,0-13-1.9c-2.2-3-5.9-9.9-11.5-9.9-5,.3-9.3,7-11.3,9.8a6.66,6.66,0,0,1-5.4,2.5H.2" style="fill:none;stroke:#f9610d;stroke-linejoin:round;stroke-width:3px"/><path class="paradontit3" d="M44.1,56.8s-11.5,0-13-1.9c-2.3-3-5.3-14.1-10.8-14.1-5,.3-10,11.2-12,14a6.66,6.66,0,0,1-5.4,2.5H.2" style="fill:none;stroke:#f9610d;stroke-linejoin:round;stroke-width:3px"/><path class="paradontit4" d="M44.1,56.8s-10.7,0-12.4-3.1c-1.6-6-4.7-17.5-11.5-17.5S10,48.1,7.8,54c-.7,2-3.1,3.3-5.8,3.3H.1" style="fill:none;stroke:#f75403;stroke-linejoin:round;stroke-width:3px"/><path class="periodontit" d="M17.3,8.8a4.5,4.5,0,1,1-4.5,4.5A4.48,4.48,0,0,1,17.3,8.8ZM3.1,15.1a4.5,4.5,0,1,0,4.5-4.5A4.48,4.48,0,0,0,3.1,15.1Zm26.7-1.3a4.5,4.5,0,1,0,4.5-4.5A4.48,4.48,0,0,0,29.8,13.8Z" style="fill:#3535ed"/></g></g></g></svg>