<svg xmlns="http://www.w3.org/2000/svg" viewBox="0 0 44.02 146.3"><title>54tooth</title><g class="Слой_2" data-name="Слой 2"><g class="Слой_1-2" data-name="Слой 1"><g class="_54" data-name="54"><path class="background" d="M0,0H44V146.3H0V0Z" style="fill:#9fdaff"/><path class="bone" d="M0,0H44V57.2H0V0Z" style="fill:#de82a7"/><path class="bridge" d="M0,100.2v-4l44-.1v4Zm44,25.9v-4l-44,.1v4Zm0-53v-4L0,69.2v4Z" style="fill:#3535ed"/><path class="root" d="M32.82,18.6a6.82,6.82,0,0,0-1.7,4.3,49.22,49.22,0,0,1-3.5,17.2,7.88,7.88,0,0,1-2.3,3.1A83.51,83.51,0,0,1,20,21a6.18,6.18,0,0,0-.9-2.7c-.8-1.2-1.6-1.1-2.4-.1A4.08,4.08,0,0,0,16,21a83.18,83.18,0,0,1-.7,20.3c-2.7-5.7-4.2-12.9-5.3-20.7-1.3-3.3-2-2.7-2.5.5.5,13.5,2,26.5,5.3,36.2l15.8-1.4c4.8-8.5,7-20.7,7.9-34.7C35.92,17.5,34.72,16.4,32.82,18.6Z" style="fill:#f0e7be;stroke:#1a1715;stroke-miterlimit:10"/><path class="rootCanal" d="M34.52,17.9c-.4-.3-3,15.7-5.1,22.7-1,3.4-4.6,6.7-6.2,6.1-2.3-1-5.3-28.9-5.6-28.7-.8.4,1.4,16.3,1.3,25.8a2.23,2.23,0,0,1-3.8,1.6,14.45,14.45,0,0,1-3.2-5.8c-1.5-5-3.4-20.8-3.5-20.8s1.2,17.8,2.2,22.5c1.3,6.1,4.5,15.5,5.6,15a66.79,66.79,0,0,1,8.4-.1c1.1,0,3.9,2.3,3.1-1.8-.6-2.7,1.1-5.5,3.2-11.3C33,37.7,34.82,18.1,34.52,17.9Z" style="fill:#3535ed"/><path class="implant" d="M27.42,18.9a1.9,1.9,0,0,0-1-1.6,15.23,15.23,0,0,0-12.2,0,1.39,1.39,0,0,0-.7.8l14,2.2Zm.1,2.9-14.3-2.3-.1,2.5,14.4,2.3Zm.1,4-14.5-2.3L13,26l14.7,2.3Zm.1,4.1-14.8-2.3V30l14.9,2.3Zm.2,3.9-15-2.3-.1,2.5L28,36.4Zm.1,4.1-15.3-2.4-.1,2.5L28,40.4ZM28,43l-15.7-2.4-.1,2.5L28,45.6Zm.2,2.9-15.9-2.5-.1,2.6,16-.1Zm1.5,3.1a1.85,1.85,0,0,0-.2-.7.91.91,0,0,0-.7-.3H11.62a1.08,1.08,0,0,0-1,1v1.9h18.9Zm.4,4.8a1.49,1.49,0,0,0-.4-.9.6.6,0,0,0-.4-.1H11.22c-.2,0-.3.1-.4.1a1,1,0,0,0-.4.9V55a.94.94,0,0,0,1,1h18.1a1.08,1.08,0,0,0,1-1Z" style="fill:#3535ed"/><path class="rootMask" d="M32.82,18.6a6.82,6.82,0,0,0-1.7,4.3,49.22,49.22,0,0,1-3.5,17.2,7.88,7.88,0,0,1-2.3,3.1A83.51,83.51,0,0,1,20,21a6.18,6.18,0,0,0-.9-2.7c-.8-1.2-1.6-1.1-2.4-.1A4.08,4.08,0,0,0,16,21a83.18,83.18,0,0,1-.7,20.3c-2.7-5.7-4.2-12.9-5.3-20.7-1.3-3.3-2-2.7-2.5.5.5,13.5,2,26.5,5.3,36.2l15.8-1.4c4.8-8.5,7-20.7,7.9-34.7C35.92,17.5,34.72,16.4,32.82,18.6Z" style="fill:#f0e7be;stroke:#1a1715;stroke-miterlimit:10"/><path class="coronaLingual" d="M8,123.1c-.4-3.6,1.1-6.4,5.6-7.6a16.54,16.54,0,0,1,11.3.9c.9,1.3,2.3,1.2,3.5.2a8,8,0,0,1,1.5-.3,4.87,4.87,0,0,1,5.3,5.4,29.22,29.22,0,0,1-3.8,13.1c-4.6,5.7-10,6.3-16.2,3.1a11.33,11.33,0,0,1-5.2-5.6A23.34,23.34,0,0,1,8,123.1Z" style="fill:#fff;stroke:#1a1715;stroke-miterlimit:10;stroke-width:0.25px"/><path class="coronaLingualIncisionDistal" d="M13.62,115.5c-4.1,1.1-5.7,3.4-5.7,6.5H14v-6.6C13.92,115.5,13.82,115.5,13.62,115.5Z" style="fill:#3535ed"/><path class="coronaLingualIncisalMiddle" d="M27.82,117.1a2.07,2.07,0,0,1-2.8-.6,17.33,17.33,0,0,0-10.9-1v6.6h13.7Z" style="fill:#3535ed"/><path class="coronaLingualIncisionMesial" d="M29.92,116.3l-1.5.3c-.2.2-.5.3-.7.5v5h7.5v-.3A4.9,4.9,0,0,0,29.92,116.3Z" style="fill:#3535ed"/><path class="coronaLingualMiddleDistal" d="M8,122.1a3.4,3.4,0,0,0,.1,1,24.22,24.22,0,0,0,2,9.3c.1.3.3.6.4.9H14V122.1Z" style="fill:#3535ed"/><path class="coronaLingualMiddleMiddle" d="M14,122.1h13.7v11.2H14Z" style="fill:#3535ed"/><path class="coronaLingualMiddleMesial" d="M35.22,122.1h-7.5v11.2h4.6A31.8,31.8,0,0,0,35.22,122.1Z" style="fill:#3535ed"/><path class="coronaLingualCervicalDistal" d="M10.42,133.3a11.23,11.23,0,0,0,3.6,3.9v-3.9Z" style="fill:#3535ed"/><path class="coronaLingualCervicalMiddle" d="M14,133.3v3.9c.4.3.8.5,1.2.8,4.6,2.4,8.8,2.7,12.5.3v-5Z" style="fill:#3535ed"/><path class="coronaLingualCervicalMesial" d="M27.82,133.3v5a14.49,14.49,0,0,0,3.7-3.4c.3-.5.6-1.1.9-1.6Z" style="fill:#3535ed"/><path class="coronaLabial" d="M8.12,71.6c.1,3.3,1.4,4.8,3.7,5.1a34.67,34.67,0,0,0,8.5,1,7.23,7.23,0,0,0,4.3-1.5c1.3-.9,2.5-1.2,3.7-.3a5.48,5.48,0,0,0,4.1,1.1c2-.3,3.3-1.8,3.5-4.9a19.29,19.29,0,0,0-3.7-12.4A32,32,0,0,0,30,57c-6.1-6.5-12.4-5.3-19,1.9a5.67,5.67,0,0,0-1.2,1.8A16.18,16.18,0,0,0,8.12,71.6Z" style="fill:#fff;stroke:#000;stroke-miterlimit:10"/><path class="coronaLabialIncisalDistal" d="M7.82,69.5A14.92,14.92,0,0,0,8,71.6c.1,3.3,1.4,4.8,3.7,5.1a27.1,27.1,0,0,0,5.7.9V69.5Z" style="fill:#3535ed"/><path class="coronaLabialIncisalMiddle" d="M17.42,69.5v8.1a28.1,28.1,0,0,0,2.9.1,7.23,7.23,0,0,0,4.3-1.5,3,3,0,0,1,1.1-.6v-6l-8.3-.1Z" style="fill:#3535ed"/><path class="coronaLabialIncisionMesial" d="M35.82,69.5h-10v6a2.46,2.46,0,0,1,2.6.3,5.48,5.48,0,0,0,4.1,1.1c2-.3,3.3-1.8,3.5-4.9A19.48,19.48,0,0,1,35.82,69.5Z" style="fill:#3535ed"/><path class="coronaLabialMiddleDistal" d="M11.42,58.4l-.5.5a5.67,5.67,0,0,0-1.2,1.8,17.7,17.7,0,0,0-1.9,8.9h9.6V58.4Z" style="fill:#3535ed"/><path class="coronaLabialMiddleMiddle" d="M17.42,58.4h8.3V69.6h-8.3Z" style="fill:#3535ed"/><path class="coronaLabialMiddleMesial" d="M32.22,59.7a14.7,14.7,0,0,0-1-1.3h-5.4V69.6h10A19.18,19.18,0,0,0,32.22,59.7Z" style="fill:#3535ed"/><path class="coronaLabialCervicalDistal" d="M11.42,58.4h6V53.8A21.4,21.4,0,0,0,11.42,58.4Z" style="fill:#3535ed"/><path class="coronaLabialCervicalMiddle" d="M17.42,53.8v4.6h8.3V53.8A9,9,0,0,0,17.42,53.8Z" style="fill:#3535ed"/><path class="coronaLabialCervicalMesial" d="M29.92,57a14.66,14.66,0,0,0-4.2-3.2v4.6h5.4A17.41,17.41,0,0,0,29.92,57Z" style="fill:#3535ed"/><path class="veneer" d="M11.82,70.4l1.6,1.2c2.3,1.8,2.4,2.2,1.4,4.9l-.7,1.8,1.2-1.5c1.8-2.3,2.2-2.4,4.9-1.4l1.8.7-1.6-1.2C18.12,73.1,18,72.7,19,70l.7-1.8-1.2,1.6c-1.8,2.3-2.2,2.4-4.9,1.4ZM13.12,60l1.6,1.2c1.4,1.1,1.5,1.3.8,3l-.7,1.8L16,64.4c1.1-1.4,1.3-1.5,2.9-.8l1.9.7-1.6-1.2c-1.4-1.1-1.5-1.3-.8-2.9l.7-1.8L17.92,60c-1.1,1.4-1.3,1.5-3,.8Zm10,2.6,1.6,1.2c1.4,1.1,1.5,1.3.8,2.9l-.7,1.8L26,66.9c1.1-1.4,1.3-1.5,2.9-.8l1.9.7-1.6-1.2c-1.4-1.1-1.5-1.3-.8-3l.7-1.8-1.2,1.6c-1.1,1.4-1.3,1.5-3,.8Z" style="fill:#3535ed"/><path class="coronaTop" d="M17,93.5l-5.2-5.7a13.56,13.56,0,0,1,19.1.8l-5.7,5.2A5.83,5.83,0,0,0,17,93.5Zm8.2.3,5.7-5.2a13.56,13.56,0,0,1-.8,19.1l-5.2-5.7A5.92,5.92,0,0,0,25.22,93.8Zm-.4,8.2,5.2,5.7a13.56,13.56,0,0,1-19.1-.8h0l5.7-5.2A5.92,5.92,0,0,0,24.82,102ZM17,93.5a5.83,5.83,0,0,0-.4,8.2h0l-5.7,5.2a13.56,13.56,0,0,1,.8-19.1h0Zm3.9-1.6a5.8,5.8,0,1,1-5.8,5.8A5.8,5.8,0,0,1,20.92,91.9Z" style="fill:#fff;stroke:#000;stroke-miterlimit:10"/><path class="coronaTopBuccal" d="M17,93.5l-5.2-5.7a13.56,13.56,0,0,1,19.1.8l-5.7,5.2A5.83,5.83,0,0,0,17,93.5Z" style="fill:#3535ed"/><path class="coronaTopMedial" d="M25.22,93.8l5.7-5.2a13.56,13.56,0,0,1-.8,19.1l-5.2-5.7A5.92,5.92,0,0,0,25.22,93.8Z" style="fill:#3535ed"/><path class="coronaTopLingual" d="M24.82,102l5.2,5.7a13.56,13.56,0,0,1-19.1-.8h0l5.7-5.2A5.92,5.92,0,0,0,24.82,102Z" style="fill:#3535ed"/><path class="coronaTopDistal" d="M17,93.5a5.83,5.83,0,0,0-.4,8.2h0l-5.7,5.2a13.56,13.56,0,0,1,.8-19.1h0Z" style="fill:#3535ed"/><path class="coronaTopOclusial" d="M20.92,91.9a5.8,5.8,0,1,1-5.8,5.8A5.8,5.8,0,0,1,20.92,91.9Z" style="fill:#3535ed"/><path class="silant" d="M12.92,105.8a19,19,0,0,0,6.9,1.2c5.8,0,9.2-2.2,9.2-5.4,0-2.7-2.2-4.2-6.4-5.4-3.2-.9-4.7-1.6-4.7-3.1,0-1.3,1.5-2.5,4.1-2.5a13.11,13.11,0,0,1,5,1l1.1-2.4a15.66,15.66,0,0,0-6-1.1c-5.3,0-8.4,2.4-8.4,5.3,0,2.2,2.1,4,6.5,5.1,3.3.9,4.5,1.8,4.5,3.3s-1.5,2.7-4.8,2.7a16.09,16.09,0,0,1-5.9-1.3Z" style="fill:#3535ed"/><path class="crown" d="M17,93.5l-5.2-5.7a13.56,13.56,0,0,1,19.1.8l-5.7,5.2A5.83,5.83,0,0,0,17,93.5Zm8.2.3,5.7-5.2a13.56,13.56,0,0,1-.8,19.1l-5.2-5.7A5.92,5.92,0,0,0,25.22,93.8Zm-.4,8.2,5.2,5.7a13.56,13.56,0,0,1-19.1-.8h0l5.7-5.2A5.92,5.92,0,0,0,24.82,102ZM17,93.5a5.83,5.83,0,0,0-.4,8.2h0l-5.7,5.2a13.56,13.56,0,0,1,.8-19.1h0Zm3.9-1.6a5.8,5.8,0,1,1-5.8,5.8A5.8,5.8,0,0,1,20.92,91.9ZM8,123.1c-.4-3.6,1.1-6.4,5.6-7.6a16.54,16.54,0,0,1,11.3.9c.9,1.3,2.3,1.2,3.5.2a8,8,0,0,1,1.5-.3,4.87,4.87,0,0,1,5.3,5.4,29.22,29.22,0,0,1-3.8,13.1c-4.6,5.7-10,6.3-16.2,3.1a11.33,11.33,0,0,1-5.2-5.6A23.34,23.34,0,0,1,8,123.1Zm.1-51.5c.1,3.3,1.4,4.8,3.7,5.1a34.67,34.67,0,0,0,8.5,1,7.23,7.23,0,0,0,4.3-1.5c1.3-.9,2.5-1.2,3.7-.3a5.48,5.48,0,0,0,4.1,1.1c2-.3,3.3-1.8,3.5-4.9a19.29,19.29,0,0,0-3.7-12.4A32,32,0,0,0,30,57c-6.1-6.5-12.4-5.3-19,1.9a5.67,5.67,0,0,0-1.2,1.8A16.18,16.18,0,0,0,8.12,71.6Z" style="fill:#fff;stroke:#000;stroke-miterlimit:10"/><path class="braces" d="M20.42,64.7a2,2,0,0,0,1.1.2h1.2a3.55,3.55,0,0,0,1-.2h0v2.7a3.55,3.55,0,0,0-1-.2h-1.2a4.25,4.25,0,0,0-1.1.2V64.7h0M25,60.8h-1.1c-.4.1-.7.4-.6.8v.5a.77.77,0,0,1-.7.8h-1.1a.64.64,0,0,1-.6-.8v-.5a.76.76,0,0,0-.6-.8H19a.77.77,0,0,0-.7.8v3.8H0v1.3h18.4v3.8a.77.77,0,0,0,.7.8h1.1c.4-.1.7-.4.6-.8V70c0-.4.3-.8.6-.8h1.2a.64.64,0,0,1,.6.8v.5a.76.76,0,0,0,.6.8h1.1a.64.64,0,0,0,.6-.8V66.7H44V65.4H25.62V61.6c0-.4-.3-.8-.6-.8Z"/><path class="gum" d="M44,56.8H32S29.92,51,21.82,51c-7.5.5-12.5,6.3-12.5,6.3H0" style="fill:none;stroke:#ffb900;stroke-linejoin:round;stroke-width:3px"/><path class="paradontit1" d="M44,56.8H33.72a4.38,4.38,0,0,1-2.9-1.4c-2.3-2.3-4.6-6.3-10.4-6.3s-8.1,3.8-9.8,5.9C9.42,57.4,0,57.3,0,57.3" style="fill:none;stroke:#ff822e;stroke-linejoin:round;stroke-width:3px"/><path class="paradontit2" d="M44,56.8s-11.3,0-13-1.9c-2.2-3-5.9-9.9-11.5-9.9-5,.3-9.3,7-11.3,9.8a6.66,6.66,0,0,1-5.4,2.5H.12" style="fill:none;stroke:#f9610d;stroke-linejoin:round;stroke-width:3px"/><path class="paradontit3" d="M44,56.8s-11.5,0-13-1.9c-2.3-3-5.3-14.1-10.8-14.1-5,.3-10,11.2-12,14a6.66,6.66,0,0,1-5.4,2.5H.12" style="fill:none;stroke:#f9610d;stroke-linejoin:round;stroke-width:3px"/><path class="paradontit4" d="M44,56.8s-10.7,0-12.4-3.1c-1.6-6-4.7-17.5-11.5-17.5S9.92,48.1,7.72,54c-.7,2-3.1,3.3-5.8,3.3H0" style="fill:none;stroke:#f75403;stroke-linejoin:round;stroke-width:3px"/><path class="periodontit" d="M17.22,8.8a4.5,4.5,0,1,1-4.5,4.5A4.48,4.48,0,0,1,17.22,8.8ZM3,15.1a4.5,4.5,0,1,0,4.5-4.5A4.48,4.48,0,0,0,3,15.1Zm26.7-1.3a4.5,4.5,0,1,0,4.5-4.5A4.48,4.48,0,0,0,29.72,13.8Z" style="fill:#3535ed"/></g></g></g></svg>