<svg xmlns="http://www.w3.org/2000/svg" viewBox="0 0 47.06 146.3"><title>55tooth</title><g class="Слой_2" data-name="Слой 2"><g class="Слой_1-2" data-name="Слой 1"><g class="_55" data-name="55"><path class="background" d="M0,0H47V146.3H0Z" style="fill:#9fdaff"/><path class="bone" d="M0,0H47V57.2H0Z" style="fill:#de82a7"/><path class="bridge" d="M0,126.4v-4l47-.2v4Zm47-26.2v-4L0,96.4v4Zm0-27v-4L0,69.4v4Z" style="fill:#3535ed"/><path class="root" d="M40.6,21.7a6.43,6.43,0,0,0-1-2.4c-.9-1.3-1.8-1.3-2.7-.2a5.23,5.23,0,0,0-1,3.6c.6,8.4.2,15.9-3.6,20.9-.5.4-1,.7-1.4,1-2.7-7.7-4.8-17.3-5.1-23.4a2.72,2.72,0,0,0-.6-1.7C24.1,18.1,23,17.8,22,19a4.37,4.37,0,0,0-.9,3.1c.3,7.1.3,15.7-1,21a5,5,0,0,1-.8-.7c-5.1-5.6-8.7-12.9-11.4-21.3-1.1-1.8-2.1-2-3.1-.9a4.14,4.14,0,0,0-.8,4C7.3,36.7,11.6,48,17.2,57.5l21.4.7C42.9,47.9,43.1,35.5,40.6,21.7Z" style="fill:#f0e7be;stroke:#1a1715;stroke-miterlimit:10"/><path class="rootCanal" d="M38.2,18.8c-.4-.4,2.7,6.8-.5,18.7-.9,3.4-6.6,11.3-8.2,10.6-2.3-1-5.4-29.3-6.3-29.3s1.4,18.5,1.3,28a2.23,2.23,0,0,1-3.8,1.6c-1.3-1.3-7-7.9-7.7-10.4-1.5-5-7.9-17.8-8.2-17.4-.1.1,4,11.2,5,15.9,1.3,6.1,11,23.4,12,22.9a31.22,31.22,0,0,1,8.5-.1c1.1.2,4.9-.8,5-2.3.2-2.8,0-7.9,2.8-13.5C42.4,35,40.1,20.5,38.2,18.8Z" style="fill:#3535ed"/><path class="implant" d="M30.35,18.9a1.9,1.9,0,0,0-1-1.6,15.23,15.23,0,0,0-12.2,0,1.39,1.39,0,0,0-.7.8l14,2.2Zm.1,2.9-14.3-2.3-.1,2.5,14.4,2.3Zm.1,4-14.5-2.3L16,26l14.7,2.3Zm.1,4.1-14.8-2.3V30l14.9,2.3Zm.2,3.9-15-2.3-.1,2.5L31,36.4Zm.1,4.1-15.3-2.4-.1,2.5L31,40.4Zm.1,5.1-15.7-2.4-.1,2.5,15.8,2.5Zm.2,2.9-15.9-2.5-.1,2.7h16Zm1.5,3.1a1.85,1.85,0,0,0-.2-.7.91.91,0,0,0-.7-.3H14.65a.91.91,0,0,0-.7.3,1.17,1.17,0,0,0-.2.7v1.9h18.9Zm.4,4.8a.94.94,0,0,0-1-1H14.25c-.2,0-.3.1-.4.1a1,1,0,0,0-.4.9V55a.94.94,0,0,0,1,1h18.1a1.08,1.08,0,0,0,1-1Z" style="fill:#3535ed"/><path class="rootMusk" d="M40.6,21.7a6.43,6.43,0,0,0-1-2.4c-.9-1.3-1.8-1.3-2.7-.2a5.23,5.23,0,0,0-1,3.6c.6,8.4.2,15.9-3.6,20.9-.5.4-1,.7-1.4,1-2.7-7.7-4.8-17.3-5.1-23.4a2.72,2.72,0,0,0-.6-1.7C24.1,18.1,23,17.8,22,19a4.37,4.37,0,0,0-.9,3.1c.3,7.1.3,15.7-1,21a5,5,0,0,1-.8-.7c-5.1-5.6-8.7-12.9-11.4-21.3-1.1-1.8-2.1-2-3.1-.9a4.14,4.14,0,0,0-.8,4C7.3,36.7,11.6,48,17.2,57.5l21.4.7C42.9,47.9,43.1,35.5,40.6,21.7Z" style="fill:#f0e7be;stroke:#1a1715;stroke-miterlimit:10"/><path class="coronaLingual" d="M13.2,117.2a15.33,15.33,0,0,1,8.6-1.5,3.58,3.58,0,0,1,1.1.4,3.94,3.94,0,0,0,4.3,0,2.41,2.41,0,0,1,1.5-.4c4.7.1,8.7.8,11.6,2.4,2.4,1.1,3.5,3.5,2.8,8.1a11.08,11.08,0,0,1-1.3,3.6c-7.1,12.1-15.9,13.6-26.1,5.9a10.58,10.58,0,0,1-2.5-2.7c-3.1-4.9-4-9.5-2-13.8A3.9,3.9,0,0,1,13.2,117.2Z" style="fill:#fff;stroke:#1a1715;stroke-miterlimit:10;stroke-width:0.25px"/><path class="coronaLingualIncisalDistal" d="M13.2,117.2a3.92,3.92,0,0,0-2.1,2.1,15.18,15.18,0,0,0-.9,2.8h8.4v-6.4A13.72,13.72,0,0,0,13.2,117.2Z" style="fill:#3535ed"/><path class="coronaLingualIncisalMiddle" d="M35,116.4a39.65,39.65,0,0,0-6.3-.6,2.82,2.82,0,0,0-1.5.4,3.94,3.94,0,0,1-4.3,0,2.46,2.46,0,0,0-1.1-.4,11.45,11.45,0,0,0-3.2-.1v6.4H35Z" style="fill:#3535ed"/><path class="coronaLingualIncisionMesial" d="M40.4,118.2a16.34,16.34,0,0,0-5.4-1.8v5.7h8.2A4.89,4.89,0,0,0,40.4,118.2Z" style="fill:#3535ed"/><path class="coronaLingualMiddleDistal" d="M10.3,122.1c-.6,3.5.5,7.2,2.9,11,0,.1.1.1.1.2h5.3V122.1Z" style="fill:#3535ed"/><path class="coronaLingualMiddleMiddle" d="M18.6,122.1H35v11.2H18.6Z" style="fill:#3535ed"/><path class="coronaLingualMiddleMesial" d="M43.2,122.1H35v11.2h4.6a27,27,0,0,0,2.2-3.3,9.17,9.17,0,0,0,1.3-3.6A12.65,12.65,0,0,0,43.2,122.1Z" style="fill:#3535ed"/><path class="coronaLingualCervicalDistal" d="M13.3,133.3a9.52,9.52,0,0,0,2.4,2.5c1,.7,2,1.4,2.9,2v-4.5Z" style="fill:#3535ed"/><path class="coronaLingualCervicalMiddle" d="M18.6,133.3v4.5c6,3.6,11.5,3.8,16.4.2v-4.7Z" style="fill:#3535ed"/><path class="coronaLingualCervicalMesial" d="M39.6,133.3H35V138A20.6,20.6,0,0,0,39.6,133.3Z" style="fill:#3535ed"/><path class="coronaLabial" d="M10.6,68.4A9.06,9.06,0,0,0,15.1,77a9,9,0,0,0,4.7,1,3.77,3.77,0,0,0,2.1-.7c2.1-1.4,3.8-2.1,4.8-.6a2.72,2.72,0,0,0,2.1,1.2c5.1-.1,9.7-.7,12.9-3.2,4.5-4,2.4-9.1-1.3-14.5-6.9-9-15.2-9.3-24.7-2.4a11.63,11.63,0,0,0-4.4,6.6A18.65,18.65,0,0,0,10.6,68.4Z" style="fill:#fff;stroke:#000;stroke-miterlimit:10;stroke-width:0.25px"/><path class="coronaLabialIncisalDistal" d="M10.6,69.5a8.85,8.85,0,0,0,4.5,7.4,8.8,8.8,0,0,0,4.3,1V69.5Z" style="fill:#3535ed"/><path class="coronaLabialIncisalMiddle" d="M19.3,69.5v8.4h.4a3.77,3.77,0,0,0,2.1-.7c2.1-1.4,3.8-2.1,4.8-.6a2.72,2.72,0,0,0,2.1,1.2,30.76,30.76,0,0,0,5.3-.4V69.5Z" style="fill:#3535ed"/><path class="coronaLabialIncisionMesial" d="M34.1,69.5v7.9a15.1,15.1,0,0,0,7.6-2.8,6.64,6.64,0,0,0,2.5-5.2l-10.1.1Z" style="fill:#3535ed"/><path class="coronaLabialMiddleDistal" d="M14.9,58.4a12.19,12.19,0,0,0-3.7,6,25.68,25.68,0,0,0-.6,4v1.1h8.8V58.4Z" style="fill:#3535ed"/><path class="coronaLabialMiddleMiddle" d="M19.3,58.4H34V69.6H19.3Z" style="fill:#3535ed"/><path class="coronaLabialMiddleMesial" d="M40.3,60.2a14.28,14.28,0,0,0-1.5-1.8H34.1V69.6H44.2C44.3,66.6,42.6,63.5,40.3,60.2Z" style="fill:#3535ed"/><path class="coronaLabialCervicalDistal" d="M15.6,57.8a3,3,0,0,1-.7.5h4.4V55.4C18.1,56.1,16.9,56.9,15.6,57.8Z" style="fill:#3535ed"/><path class="coronaLabialCervicalMiddle" d="M19.3,55.5v2.9H34V54.6C29.6,52.2,24.7,52.6,19.3,55.5Z" style="fill:#3535ed"/><path class="coronaLabialCervicalMesial" d="M34.1,54.6v3.8h4.7A17.86,17.86,0,0,0,34.1,54.6Z" style="fill:#3535ed"/><path class="veneer" d="M16.8,69.4l1.6,1.2c2.3,1.8,2.4,2.2,1.4,4.9l-.7,1.8,1.2-1.5c1.8-2.3,2.2-2.4,4.9-1.4l1.8.7-1.6-1.2C23.1,72.1,23,71.7,24,69l.7-1.8-1.2,1.6c-1.8,2.3-2.2,2.4-4.9,1.4ZM18,59l1.6,1.2c1.4,1.1,1.5,1.3.8,3L19.7,65l1.2-1.6c1.1-1.4,1.3-1.5,2.9-.8l1.8.7L24,62.1c-1.4-1.1-1.5-1.3-.8-2.9l.7-1.8L22.7,59c-1.1,1.4-1.3,1.5-2.9.8Zm10,2.6,1.6,1.2c1.4,1.1,1.5,1.3.8,2.9l-.7,1.8,1.2-1.6c1.1-1.4,1.3-1.5,2.9-.8l1.9.7-1.6-1.2c-1.4-1.1-1.5-1.3-.8-3l.7-1.8-1.2,1.6c-1.1,1.4-1.3,1.5-2.9.8Z" style="fill:#3535ed"/><path class="coronaTop" d="M18.9,93.5l-5.2-5.7a13.56,13.56,0,0,1,19.1.8l-5.7,5.2A5.74,5.74,0,0,0,18.9,93.5Zm8.2.3,5.7-5.2a13.56,13.56,0,0,1-.8,19.1h0L26.8,102A5.92,5.92,0,0,0,27.1,93.8Zm-.4,8.2,5.2,5.7a13.56,13.56,0,0,1-19.1-.8h0l5.7-5.2A5.92,5.92,0,0,0,26.7,102Zm-7.8-8.5a5.83,5.83,0,0,0-.4,8.2l-5.7,5.2a13.56,13.56,0,0,1,.8-19.1Zm3.9-1.6A5.8,5.8,0,1,1,17,97.7,5.87,5.87,0,0,1,22.8,91.9Z" style="fill:none;stroke:#000;stroke-miterlimit:10"/><path class="coronaTopBuccal" d="M18.9,93.5l-5.2-5.7a13.56,13.56,0,0,1,19.1.8l-5.7,5.2A5.74,5.74,0,0,0,18.9,93.5Z" style="fill:#3535ed"/><path class="coronaTopMedial" d="M27.1,93.8l5.7-5.2a13.56,13.56,0,0,1-.8,19.1h0L26.8,102A5.92,5.92,0,0,0,27.1,93.8Z" style="fill:#3535ed"/><path class="coronaTopLingual" d="M26.7,102l5.2,5.7a13.56,13.56,0,0,1-19.1-.8h0l5.7-5.2A5.92,5.92,0,0,0,26.7,102Z" style="fill:#3535ed"/><path class="coronaTopDistal" d="M18.9,93.5a5.83,5.83,0,0,0-.4,8.2l-5.7,5.2a13.56,13.56,0,0,1,.8-19.1Z" style="fill:#3535ed"/><path class="coronaTopOclusial" d="M22.8,91.9A5.8,5.8,0,1,1,17,97.7,5.87,5.87,0,0,1,22.8,91.9Z" style="fill:#3535ed"/><path class="silant" d="M14.9,105.8a19,19,0,0,0,6.9,1.2c5.8,0,9.2-2.2,9.2-5.4,0-2.7-2.2-4.2-6.4-5.4-3.2-.9-4.7-1.6-4.7-3.1,0-1.3,1.5-2.5,4.1-2.5a13.11,13.11,0,0,1,5,1l1.1-2.4a15.66,15.66,0,0,0-6-1.1c-5.3,0-8.4,2.4-8.4,5.3,0,2.2,2.1,4,6.5,5.1,3.3.9,4.5,1.8,4.5,3.3s-1.5,2.7-4.8,2.7a16.09,16.09,0,0,1-5.9-1.3Z" style="fill:#3535ed"/><path class="crown" d="M18.9,93.5l-5.2-5.7a13.56,13.56,0,0,1,19.1.8l-5.7,5.2A5.74,5.74,0,0,0,18.9,93.5Zm8.2.3,5.7-5.2a13.56,13.56,0,0,1-.8,19.1h0L26.8,102A5.92,5.92,0,0,0,27.1,93.8Zm-.4,8.2,5.2,5.7a13.56,13.56,0,0,1-19.1-.8h0l5.7-5.2A5.92,5.92,0,0,0,26.7,102Zm-7.8-8.5a5.83,5.83,0,0,0-.4,8.2l-5.7,5.2a13.56,13.56,0,0,1,.8-19.1Zm3.9-1.6A5.8,5.8,0,1,1,17,97.7,5.87,5.87,0,0,1,22.8,91.9Zm-9.6,25.3a15.33,15.33,0,0,1,8.6-1.5,3.58,3.58,0,0,1,1.1.4,3.94,3.94,0,0,0,4.3,0,2.41,2.41,0,0,1,1.5-.4c4.7.1,8.7.8,11.6,2.4,2.4,1.1,3.5,3.5,2.8,8.1a11.08,11.08,0,0,1-1.3,3.6c-7.1,12.1-15.9,13.6-26.1,5.9a10.58,10.58,0,0,1-2.5-2.7c-3.1-4.9-4-9.5-2-13.8A3.9,3.9,0,0,1,13.2,117.2ZM10.6,68.4A9.06,9.06,0,0,0,15.1,77a9,9,0,0,0,4.7,1,3.77,3.77,0,0,0,2.1-.7c2.1-1.4,3.8-2.1,4.8-.6a2.72,2.72,0,0,0,2.1,1.2c5.1-.1,9.7-.7,12.9-3.2,4.5-4,2.4-9.1-1.3-14.5-6.9-9-15.2-9.3-24.7-2.4a11.63,11.63,0,0,0-4.4,6.6A18.65,18.65,0,0,0,10.6,68.4Z" style="fill:#fff;stroke:#000;stroke-miterlimit:10"/><path class="braces" d="M21.9,64.7a2,2,0,0,0,1.1.2h1.2a3.55,3.55,0,0,0,1-.2h0v2.7a3.55,3.55,0,0,0-1-.2H23a4.25,4.25,0,0,0-1.1.2V64.7h0m4.6-3.9H25.4c-.4.1-.7.4-.6.8v.5a.77.77,0,0,1-.7.8H23a.64.64,0,0,1-.6-.8v-.5a.76.76,0,0,0-.6-.8H20.7a.77.77,0,0,0-.7.8v3.8H0v1.3H19.8v3.8a.77.77,0,0,0,.7.8h1.1c.4-.1.7-.4.6-.8V70c0-.4.3-.8.6-.8H24a.64.64,0,0,1,.6.8v.5a.76.76,0,0,0,.6.8h1.1a.64.64,0,0,0,.6-.8V66.7H46.7V65.4H27.1V61.6c0-.4-.3-.8-.6-.8Z"/><path class="gum" d="M47,57.3,39.9,57s-6-5.1-13.2-5.1-13.1,5.3-13.1,5.3H0" style="fill:none;stroke:#ffb900;stroke-linejoin:round;stroke-width:3px"/><path class="paradontit1" d="M47,57.3H41.2c-1.5-7-22-16.4-26.1-1.8A7.51,7.51,0,0,1,10,57.3H0" style="fill:none;stroke:#ff822e;stroke-linejoin:round;stroke-width:3px"/><path class="paradontit2" d="M47,57.3l-4.3-.1c-2.2,0-2.8-.9-3.9-2.1-2.6-2.6-8.6-11.2-13.7-11.2s-10.4,8.4-12.6,11a7.5,7.5,0,0,1-5.7,2.3H0" style="fill:none;stroke:#f9610d;stroke-linejoin:round;stroke-width:3px"/><path class="paradontit3" d="M47,57.3H41.9a7.75,7.75,0,0,1-5.4-2c-2.6-2.6-5.7-15.1-10.8-15.1S14.6,52.4,12.5,55a7.5,7.5,0,0,1-5.7,2.3H0" style="fill:none;stroke:#f9610d;stroke-linejoin:round;stroke-width:3px"/><path class="paradontit4" d="M47,57.3H43.5c-3,0-5.7-1.4-6.4-3.4-2.3-6.6-2.8-17.4-11.5-17.4s-12,10.6-13.8,17.3c-.6,2.1-3.3,3.5-6.4,3.5H0" style="fill:none;stroke:#f75403;stroke-linejoin:round;stroke-width:3px"/><path class="periodontit" d="M22.9,10.1a4.5,4.5,0,1,1-4.5,4.5A4.55,4.55,0,0,1,22.9,10.1ZM1.2,16a4.5,4.5,0,1,0,4.5-4.5A4.55,4.55,0,0,0,1.2,16Zm32.5-1.4a4.5,4.5,0,1,0,4.5-4.5A4.55,4.55,0,0,0,33.7,14.6Z" style="fill:#3535ed"/></g></g></g></svg>