<svg xmlns="http://www.w3.org/2000/svg" viewBox="0 0 29.9 146.2"><title>61tooth</title><g class="Слой_2" data-name="Слой 2"><g class="Слой_1-2" data-name="Слой 1"><g class="_61" data-name="61"><path class="background" d="M29.6,146.2H.6V0h29Z" style="fill:#9fdaff"/><path class="bone" d="M29.6,57.2H.6V0h29Z" style="fill:#de82a7"/><path class="bridge" d="M.6,125.9v-4l29,.1v4Zm29-26v-4H.6v4Zm0-27v-4H.6v4Z" style="fill:#3535ed"/><path class="root" d="M6,57.4C8.5,45.5,11,31,13.4,15.2c1-2.9,2.4-3.4,4.1-2a5.12,5.12,0,0,1,1.7,3.7c-.1,15.3,2.8,31.6,6.5,41.7" style="fill:#f0e7be;stroke:#1a1715;stroke-miterlimit:10"/><path class="rootCanal" d="M11.6,58.2l.4-5.5c.2-1.4.9-28.2,3.3-39.9.2-1.1,1.5-.9,1.5.2-.1,11.7-1.1,40.1.7,40.1,3.2,4.5,1.4,6-1.8,5h-.3l-3.2.9C11.8,59.1,11.5,58.7,11.6,58.2Z" style="fill:#3535ed;stroke:#201600;stroke-miterlimit:10;stroke-width:0.25px"/><path class="implant" d="M8.3,20.3l14-2.2a1.39,1.39,0,0,0-.7-.8,15.23,15.23,0,0,0-12.2,0,1.9,1.9,0,0,0-1,1.6Zm0,1.5v2.5L22.7,22l-.1-2.5L8.3,21.8Zm-.2,6.5L22.8,26l-.1-2.5L8.2,25.8Zm-.1,4L22.9,30V27.6L8.1,29.9Zm-.2,4.2L23,34.1l-.1-2.5-15,2.3Zm0,1.5v2.5l15.4-2.4-.1-2.5L7.8,38Zm-.1,7.6,15.8-2.4-.1-2.5L7.7,43.1Zm-.2.3,16,.1-.1-2.6L7.5,45.9Zm-1.6,5h19V49a1.07,1.07,0,0,0-.2-.6.91.91,0,0,0-.7-.3H6.9a.91.91,0,0,0-.7.3A1.07,1.07,0,0,0,6,49ZM5.4,55h0a1.08,1.08,0,0,0,1,1H24.5a.94.94,0,0,0,1-1V53.7a1,1,0,0,0-.4-.9c-.1,0-.2-.1-.4-.1H6.6a.94.94,0,0,0-1,1Z" style="fill:#3535ed"/><path class="rootMusk" d="M6,57.4C8.5,45.5,11,31,13.4,15.2c1-2.9,2.4-3.4,4.1-2a5.12,5.12,0,0,1,1.7,3.7c-.1,15.3,2.8,31.6,6.5,41.7" style="fill:#f0e7be;stroke:#1a1715;stroke-miterlimit:10"/><path class="coronaLingual" d="M25.8,117.6l-.1-.1a6.4,6.4,0,0,0-5.3-2.6H7.6c-3,.4-4.3.1-4.2,4.1a26.85,26.85,0,0,0,3.2,15.3,10.15,10.15,0,0,0,4.9,4.7c3.7,1.7,7.4,1.3,11.1-1.5a7.91,7.91,0,0,0,2.7-3.3,26.25,26.25,0,0,0,2-11.7A9.69,9.69,0,0,0,25.8,117.6Z" style="fill:#fff;stroke:#000;stroke-miterlimit:10"/><path class="coronaLingualIncisalDistal" d="M20.4,115H19.2v7h8a8.44,8.44,0,0,0-1.4-4.3l-.1-.1a6.4,6.4,0,0,0-5.3-2.6Z" style="fill:#3535ed"/><path class="coronaLingualIncisalMiddle" d="M19.2,122.1H11.7V115h7.5Z" style="fill:#3535ed"/><path class="coronaLingualIncisionMesial" d="M3.3,122h8.5v-7.1H7.5c-3,.4-4.3.1-4.2,4.1A15,15,0,0,0,3.3,122Z" style="fill:#3535ed"/><path class="coronaLingualMiddleDistal" d="M19.2,122.1v11.2h6.4a27,27,0,0,0,1.6-10.8v-.4Z" style="fill:#3535ed"/><path class="coronaLingualMiddleMiddle" d="M19.2,133.3H11.7V122.1h7.5Z" style="fill:#3535ed"/><path class="coronaLingualMiddleMesial" d="M6,133.3h5.7V122.1H3.2A26.12,26.12,0,0,0,6,133.3Z" style="fill:#3535ed"/><path class="coronaLingualCervicalDistal" d="M19.2,133.3v6a13.46,13.46,0,0,0,3.3-1.8,7.91,7.91,0,0,0,2.7-3.3,3.55,3.55,0,0,0,.4-.9Z" style="fill:#3535ed"/><path class="coronaLingualCervicalMiddle" d="M11.7,133.3v5.8a10.23,10.23,0,0,0,7.5.2v-6Z" style="fill:#3535ed"/><path class="coronaLingualCervicalMesial" d="M6,133.3a4.67,4.67,0,0,0,.5,1,10.15,10.15,0,0,0,4.9,4.7c.1,0,.2.1.3.1v-5.8Z" style="fill:#3535ed"/><path class="coronaLabial" d="M18.1,52.5a11.44,11.44,0,0,0-4.1-.2A10.9,10.9,0,0,0,5.7,59C2.1,67.5.2,75,7.1,77c6.6.2,13.2.4,16.5-.8,4.2-3.1,4.9-8.1,3.5-14.1A12.75,12.75,0,0,0,18.1,52.5Z" style="fill:#fff;stroke:#000;stroke-miterlimit:10"/><path class="coronaLabialIncisalDistal" d="M20.4,69.5v7.4a22.05,22.05,0,0,0,3.2-.7,9.87,9.87,0,0,0,4-6.7Z" style="fill:#3535ed"/><path class="coronaLabialIncisalMiddle" d="M11.2,69.5v7.6a65.53,65.53,0,0,0,9.1-.2V69.5Z" style="fill:#3535ed"/><path class="coronaLabialIncisionMesial" d="M7,77c1.4,0,2.8.1,4.2.1V69.5H2.4C2.1,73.2,3.3,75.9,7,77Z" style="fill:#3535ed"/><path class="coronaLabialMiddleDistal" d="M20.4,58.4V69.6h7.2a21.31,21.31,0,0,0-.5-7.4,12.57,12.57,0,0,0-1.5-3.8Z" style="fill:#3535ed"/><path class="coronaLabialMiddleMiddle" d="M20.3,69.6H11.2V58.4h9.1Z" style="fill:#3535ed"/><path class="coronaLabialMiddleMesial" d="M2.4,69.6h8.8V58.4H5.9l-.3.6C4,62.9,2.7,66.5,2.4,69.6Z" style="fill:#3535ed"/><path class="coronaLabialCervicalDistal" d="M20.3,53.4v5h5.3A11.18,11.18,0,0,0,20.3,53.4Z" style="fill:#3535ed"/><path class="coronaLabialCervicalMiddle" d="M11.3,53.1v5.3h9.1v-5a11.72,11.72,0,0,0-2.4-.9,11.44,11.44,0,0,0-4.1-.2A6.63,6.63,0,0,0,11.3,53.1Z" style="fill:#3535ed"/><path class="coronaLabialCervicalMesial" d="M5.9,58.4h5.3V53.1A11.35,11.35,0,0,0,5.9,58.4Z" style="fill:#3535ed"/><path class="veneer" d="M27.5,71.7c-3.2,1.3-3.7,1.2-5.8-1.9l-1.4-2.1.8,2.4c1.2,3.6,1,4.1-1.7,6.5l-1.9,1.6,2.1-.9c3.2-1.3,3.7-1.2,5.8,1.9l1.4,2L26,78.8c-1.1-3.6-1-4.1,1.7-6.5l1.9-1.6ZM24.6,57.9c-2,.9-2.2.8-3.5-1.1l-1.4-2.1.8,2.4c.9,2.2.8,2.4-.9,3.9l-1.9,1.6,2.1-.9c2-.9,2.2-.8,3.5,1.1l1.4,2.1-.8-2.4c-.7-2.3-.6-2.5,1.1-4l1.9-1.6ZM1.9,73.4l2.5-1c2.3-.9,2.5-.8,4,1L10,75.5l-.9-2.3c-.9-2.1-.8-2.4,1.1-3.8l2.1-1.6-2.5.9c-2.3.9-2.5.8-4-1L4.2,65.6l.9,2.3c.9,2.2.8,2.5-1.1,3.9L1.9,73.4Z" style="fill:#3535ed"/><path class="coronaTop" d="M10.6,93.8,4.9,88.6A13.56,13.56,0,0,1,24,87.8l-5.2,5.7A5.83,5.83,0,0,0,10.6,93.8Zm0,0a5.83,5.83,0,0,0,.3,8.2l-5.2,5.7a13.56,13.56,0,0,1-.8-19.1l5.7,5.2Zm13.5-6a13.56,13.56,0,0,1,.8,19.1l-5.7-5.2a5.83,5.83,0,0,0-.4-8.2Zm-4.9,13.9,5.7,5.2h0a13.56,13.56,0,0,1-19.1.8L11,102A5.92,5.92,0,0,0,19.2,101.7Zm.4-1a5.78,5.78,0,1,1-2.1-7.9A5.74,5.74,0,0,1,19.6,100.7Z" style="fill:#fff;stroke:#000;stroke-miterlimit:10"/><path class="coronaTopBuccal" d="M10.6,93.8,4.9,88.6A13.56,13.56,0,0,1,24,87.8l-5.2,5.7A5.83,5.83,0,0,0,10.6,93.8Z" style="fill:#3535ed"/><path class="coronaTopMedial" d="M10.6,93.8a5.83,5.83,0,0,0,.3,8.2l-5.2,5.7a13.56,13.56,0,0,1-.8-19.1l5.7,5.2Z" style="fill:#3535ed"/><path class="coronaTopLingual" d="M19.2,101.7l5.7,5.2h0a13.56,13.56,0,0,1-19.1.8L11,102A5.92,5.92,0,0,0,19.2,101.7Z" style="fill:#3535ed"/><path class="coronaTopDistal" d="M24.1,87.8a13.56,13.56,0,0,1,.8,19.1l-5.7-5.2a5.83,5.83,0,0,0-.4-8.2Z" style="fill:#3535ed"/><path class="coronaTopOclusial" d="M19.5,100.9A5.78,5.78,0,1,1,17.4,93,5.74,5.74,0,0,1,19.5,100.9Z" style="fill:#3535ed"/><path class="silant" d="M21.8,103.2a16.09,16.09,0,0,1-5.9,1.3c-3.3,0-4.8-1.2-4.8-2.7s1.2-2.4,4.5-3.3c4.4-1.1,6.5-2.9,6.5-5.1,0-2.9-3.1-5.3-8.4-5.3a15.66,15.66,0,0,0-6,1.1l1.1,2.4a13.11,13.11,0,0,1,5-1c2.6,0,4.1,1.2,4.1,2.5,0,1.5-1.5,2.2-4.7,3.1-4.2,1.2-6.4,2.7-6.4,5.4,0,3.2,3.4,5.4,9.2,5.4a19,19,0,0,0,6.9-1.2Z" style="fill:#3535ed"/><path class="crown" d="M10.6,93.8,4.9,88.6A13.56,13.56,0,0,1,24,87.8l-5.2,5.7A5.83,5.83,0,0,0,10.6,93.8Zm0,0a5.83,5.83,0,0,0,.3,8.2l-5.2,5.7a13.56,13.56,0,0,1-.8-19.1l5.7,5.2Zm13.5-6a13.56,13.56,0,0,1,.8,19.1l-5.7-5.2a5.83,5.83,0,0,0-.4-8.2Zm-4.9,13.9,5.7,5.2h0a13.56,13.56,0,0,1-19.1.8L11,102A5.92,5.92,0,0,0,19.2,101.7Zm.4-1a5.78,5.78,0,1,1-2.1-7.9A5.74,5.74,0,0,1,19.6,100.7Zm6.2,16.9-.1-.1a6.4,6.4,0,0,0-5.3-2.6H7.6c-3,.4-4.3.1-4.2,4.1a26.85,26.85,0,0,0,3.2,15.3,10.15,10.15,0,0,0,4.9,4.7c3.7,1.7,7.4,1.3,11.1-1.5a7.91,7.91,0,0,0,2.7-3.3,26.25,26.25,0,0,0,2-11.7A9.69,9.69,0,0,0,25.8,117.6ZM18.1,52.5a11.44,11.44,0,0,0-4.1-.2A10.9,10.9,0,0,0,5.7,59C2.1,67.5.2,75,7.1,77c6.6.2,13.2.4,16.5-.8,4.2-3.1,4.9-8.1,3.5-14.1A12.75,12.75,0,0,0,18.1,52.5Z" style="fill:#fff;stroke:#000;stroke-miterlimit:10"/><path class="braces" d="M16.7,64.7h0v2.7a4.25,4.25,0,0,0-1.1-.2H14.4a3.55,3.55,0,0,0-1,.2V64.7h0a3.55,3.55,0,0,0,1,.2h1.2a2,2,0,0,0,1.1-.2m-4.6-3.9c-.4,0-.7.4-.8.8v3.8H.4v1.3H11.2v3.8a.77.77,0,0,0,.7.8H13a.76.76,0,0,0,.6-.8V70a.77.77,0,0,1,.7-.8h1.2c.3,0,.6.4.6.8v.5c-.1.4.2.7.6.8h1.1c.3,0,.6-.4.6-.8V66.7H29.3V65.4H18.4V61.6a.64.64,0,0,0-.6-.8H16.7a.76.76,0,0,0-.6.8v.5a.64.64,0,0,1-.6.8H14.4c-.3,0-.6-.4-.6-.8v-.5c.1-.4-.2-.7-.6-.8Z"/><path class="gum" d="M29.5,56.8H25.1a9.56,9.56,0,0,0-9.2-6.2c-7.2,0-9.3,6.7-9.3,6.7H.6" style="fill:none;stroke:#ffb900;stroke-linejoin:round;stroke-width:3px"/><path class="paradontit1" d="M29.7,56.8H28.4a3.86,3.86,0,0,1-3.6-3.6c-.8-5.2-3.9-8.1-9.1-8.1S8.5,48.8,7.3,54a3.8,3.8,0,0,1-3.5,3.3H.6" style="fill:none;stroke:#ff822e;stroke-linejoin:round;stroke-width:3px"/><path class="paradontit2" d="M29.6,56.8a3.21,3.21,0,0,1-3-3C25.3,47.4,22,40.2,16.4,40.2s-9.5,7.7-11.1,14a3.89,3.89,0,0,1-3.5,3.1H.6" style="fill:none;stroke:#f9610d;stroke-linejoin:round;stroke-width:3px"/><path class="paradontit3" d="M29.6,56.8a3.21,3.21,0,0,1-3-3c-1.3-6.4-5.2-18.5-10.7-18.5S6.9,47.9,5.3,54.2a3.89,3.89,0,0,1-3.5,3.1H.6" style="fill:none;stroke:#f9610d;stroke-linejoin:round;stroke-width:3px"/><path class="paradontit4" d="M29.7,56.8c-1.5,0-2.7-1.4-2.9-3.2-1.3-8.8-.9-25.2-11.4-24.2S6.4,44.8,5.1,53.6c-.3,2.1-1.8,3.7-3.6,3.7H.6" style="fill:none;stroke:#f75403;stroke-linejoin:round;stroke-width:3px"/><path class="periodontit" d="M20.4,7.9a4.5,4.5,0,1,1-4.5-4.5A4.48,4.48,0,0,1,20.4,7.9Z" style="fill:#3535ed"/></g></g></g></svg>