<svg xmlns="http://www.w3.org/2000/svg" viewBox="0 0 28.7 146.3"><title>62tooth</title><g class="Слой_2" data-name="Слой 2"><g class="Слой_1-2" data-name="Слой 1"><g class="_62" data-name="62"><path class="background" d="M28.7,0V146.3H.2V0Z" style="fill:#9fdaff"/><path class="bone" d="M28.7,0V57.2H.2V0Z" style="fill:#de82a7"/><path class="bridge" d="M.2,125.9v-4l28.5.1v4ZM28.7,100V96L.2,95.9v4Zm0-27V69L.2,68.9v4Z" style="fill:#3535ed"/><path class="root" d="M8.6,56.7c1.4-12.3,2-26,2.2-40.4a8.46,8.46,0,0,1,.9-4.1c1-1.9,2.3-2.2,3.9-.3a8,8,0,0,1,1.8,5.2C17.3,31,18,44.7,21.3,57" style="fill:#f0e7be;stroke:#1a1715;stroke-miterlimit:10"/><path class="rootCanal" d="M17.7,59.3l-1-5c.5-2.5-1.5-43-3.9-41.8-.9.4,4.2,32.3-2.3,43.4-3.6,6-.3,6.1,3.7,4.6a24.91,24.91,0,0,1,2.6.2C17.4,60.7,17.8,60,17.7,59.3Z" style="fill:#3535ed;stroke:#201600;stroke-miterlimit:10;stroke-width:0.25px"/><path class="implant" d="M7.5,20.3l14-2.2a1.39,1.39,0,0,0-.7-.8,15.23,15.23,0,0,0-12.2,0,1.9,1.9,0,0,0-1,1.6Zm0,1.5v2.5L21.9,22l-.1-2.5L7.5,21.8Zm-.2,6.5L22,26l-.1-2.5L7.4,25.8Zm-.1,4L22.1,30V27.6L7.3,29.9ZM7,36.4,22.2,34l-.1-2.5-15,2.3Zm-.2,4L22.4,38l-.1-2.5L7,37.9Zm.1,5L22.7,43l-.1-2.4L6.9,43Zm-.2.5,16,.1-.1-2.6L6.7,45.9ZM5.2,50.8H24.1V48.9a1.17,1.17,0,0,0-.2-.7.91.91,0,0,0-.7-.3H6.1a.91.91,0,0,0-.7.3,1.85,1.85,0,0,0-.2.7v1.9ZM4.4,55a1.08,1.08,0,0,0,1,1H23.5a.94.94,0,0,0,1-1V53.8a1,1,0,0,0-.4-.9c-.1,0-.2-.1-.4-.1H5.6a.6.6,0,0,0-.4.1,1.19,1.19,0,0,0-.5.9Z" style="fill:#3535ed"/><path class="rootMusk" d="M8.6,56.7c1.4-12.3,2-26,2.2-40.4a8.46,8.46,0,0,1,.9-4.1c1-1.9,2.3-2.2,3.9-.3a8,8,0,0,1,1.8,5.2C17.3,31,18,44.7,21.3,57" style="fill:#f0e7be;stroke:#1a1715;stroke-miterlimit:10"/><path class="coronaLingual" d="M24.9,118.8A27.73,27.73,0,0,1,21.5,135a8.06,8.06,0,0,1-3.4,3.2c-3.6,1.6-6.9,1.3-9.9-1.6a7.1,7.1,0,0,1-1-1.4,32.43,32.43,0,0,1-3.9-16.3c0-4,1.5-4.7,5.3-4.7a54.49,54.49,0,0,1,13.9,1.2C24.1,115.5,24.9,116.7,24.9,118.8Z" style="fill:#fff;stroke:#1a1715;stroke-miterlimit:10;stroke-width:0.25px"/><path class="coronaLingualIncisalDistal" d="M19.9,114.9v7.2h5.3c0-1.1,0-2.2-.1-3.3-.2-2.1-1-3.3-2.6-3.4C21.6,115.2,20.7,115,19.9,114.9Z" style="fill:#3535ed"/><path class="coronaLingualIncisalMiddle" d="M12,122.1h7.8v-7.2a41.14,41.14,0,0,0-7.8-.7v7.9Z" style="fill:#3535ed"/><path class="coronaLingualIncisionMesial" d="M3.4,122.1H12v-7.9c-1.1-.1-2.2,0-3.4,0-3.9,0-5.4.7-5.3,4.7C3.3,120,3.4,121,3.4,122.1Z" style="fill:#3535ed"/><path class="coronaLingualMiddleMiddle" d="M19.9,133.3H12.1V122.1h7.8Z" style="fill:#3535ed"/><path class="coronaLingualMiddleMesial" d="M6.4,133.3h5.7V122.1H3.5A30.47,30.47,0,0,0,6.4,133.3Z" style="fill:#3535ed"/><path class="coronaLingualCervicalMiddle" d="M12,133.3v5.6a8.56,8.56,0,0,0,6.2-.7,9.91,9.91,0,0,0,1.7-1.1v-3.8Z" style="fill:#3535ed"/><path class="coronaLingualCervicalDistal" d="M19.9,133.3v3.8a6.84,6.84,0,0,0,1.7-2.1c.3-.6.5-1.1.8-1.7Z" style="fill:#3535ed"/><path class="coronaLingualCervicalMesial" d="M12,133.3v.1H6.4c.3.6.6,1.3.9,1.9a4.51,4.51,0,0,0,1,1.4,9.56,9.56,0,0,0,3.7,2.2v-5.6Z" style="fill:#3535ed"/><path class="coronaLabial" d="M24.9,73.4a20.11,20.11,0,0,0-3.2-17.3c-3.7-3.1-7.4-3.9-11-2.2a8.18,8.18,0,0,0-4.2,4.9A65.63,65.63,0,0,0,3.9,72c-1.1,3.8-.7,6.4,3.6,5.6,4.7.2,9.5.6,13.1-.1A5.63,5.63,0,0,0,24.9,73.4Z" style="fill:#fff;stroke:#1a1715;stroke-miterlimit:10"/><path class="coronaLabialIncisalDistal" d="M18.7,69.5v8.2c.7-.1,1.3-.2,1.9-.3A5.6,5.6,0,0,0,25,73.3a25,25,0,0,0,.6-3.8Z" style="fill:#3535ed"/><path class="coronaLabialIncisalMiddle" d="M11.7,69.5v8.2a40.83,40.83,0,0,0,7,0V69.5Z" style="fill:#3535ed"/><path class="coronaLabialIncisionMesial" d="M7.6,77.5c1.4,0,2.8.1,4.2.2V69.5H4.3L4,71.9C2.8,75.8,3.2,78.3,7.6,77.5Z" style="fill:#3535ed"/><path class="coronaLabialMiddleDistal" d="M18.8,58.4V69.6h6.9a19.35,19.35,0,0,0-2.4-11.2Z" style="fill:#3535ed"/><path class="coronaLabialMiddleMiddle" d="M18.7,69.6h-7V58.4h7Z" style="fill:#3535ed"/><path class="coronaLabialMiddleMesial" d="M4.2,69.6h7.5V58.4h-5c0,.1-.1.2-.1.3A66.13,66.13,0,0,0,4.2,69.6Z" style="fill:#3535ed"/><path class="coronaLabialCervicalDistal" d="M18.8,54v4.4h4.5A15.76,15.76,0,0,0,21.8,56,12,12,0,0,0,18.8,54Z" style="fill:#3535ed"/><path class="coronaLabialCervicalMiddle" d="M11.7,53.3v5h7V53.9A9.47,9.47,0,0,0,11.7,53.3Z" style="fill:#3535ed"/><path class="coronaLabialCervicalMesial" d="M6.7,58.4h5v-5c-.3.1-.6.3-.9.4A8.44,8.44,0,0,0,6.7,58.4Z" style="fill:#3535ed"/><path class="veneer" d="M22.3,71.2c-2.7,1-3.1.9-4.9-1.4l-1.2-1.6.7,1.8c1,2.7.9,3.1-1.4,4.9l-1.6,1.2,1.9-.7c2.7-1,3.1-.9,4.9,1.4l1.2,1.5-.7-1.8c-1-2.7-.9-3.1,1.4-4.9l1.6-1.2ZM21,60.8c-1.6.7-1.8.6-2.9-.8l-1.2-1.6.7,1.8c.7,1.6.6,1.8-.8,2.9l-1.6,1.2,1.8-.7c1.7-.7,1.9-.6,3,.8L21.2,66l-.7-1.8c-.7-1.7-.6-1.9.8-3L22.9,60ZM11,63.2c-1.6.7-1.8.6-2.9-.8L6.9,60.8l.7,1.8c.7,1.7.6,1.9-.8,3L5.2,66.8,7,66.1c1.7-.7,1.9-.6,3,.8l1.2,1.6-.7-1.8c-.7-1.6-.6-1.8.8-2.9l1.6-1.2Z" style="fill:#3535ed"/><path class="coronaTop" d="M10,93.9l-5.5-5a13.08,13.08,0,0,1,18.4-.8l-5,5.5A5.65,5.65,0,0,0,10,93.9Zm.3,8-5,5.5h0a13.21,13.21,0,0,1-.8-18.5l5.5,5A5.59,5.59,0,0,0,10.3,101.9Zm8-.3,5.5,5h0a13.08,13.08,0,0,1-18.4.8l5-5.5A5.75,5.75,0,0,0,18.3,101.6ZM23,88a13.21,13.21,0,0,1,.8,18.5l-5.5-5a5.65,5.65,0,0,0-.4-7.9Zm-3.3,9.7a5.6,5.6,0,1,1-5.6-5.6A5.59,5.59,0,0,1,19.7,97.7Z" style="fill:#fff;stroke:#000;stroke-miterlimit:10"/><path class="coronaTopBuccal" d="M10,93.9l-5.5-5a13.08,13.08,0,0,1,18.4-.8l-5,5.5A5.65,5.65,0,0,0,10,93.9Z" style="fill:#3535ed"/><path class="coronaLingualMiddleDistal" d="M19.8,122.1v11.2h2.6a26.7,26.7,0,0,0,2.7-11.2Z" style="fill:#3535ed"/><path class="coronaTopMedial" d="M10.3,101.9l-5,5.5h0a13.21,13.21,0,0,1-.8-18.5l5.5,5A5.59,5.59,0,0,0,10.3,101.9Z" style="fill:#3535ed"/><path class="coronaTopLingual" d="M18.3,101.6l5.5,5h0a13.08,13.08,0,0,1-18.4.8l5-5.5A5.75,5.75,0,0,0,18.3,101.6Z" style="fill:#3535ed"/><path class="coronaTopDistal" d="M23,88a13.21,13.21,0,0,1,.8,18.5l-5.5-5a5.65,5.65,0,0,0-.4-7.9Z" style="fill:#3535ed"/><path class="coronaTopOclusial" d="M19.7,97.7a5.6,5.6,0,1,1-5.6-5.6A5.59,5.59,0,0,1,19.7,97.7Z" style="fill:#3535ed"/><path class="silant" d="M22,103.2a16.09,16.09,0,0,1-5.9,1.3c-3.3,0-4.8-1.2-4.8-2.7s1.2-2.4,4.5-3.3c4.4-1.1,6.5-2.9,6.5-5.1,0-2.9-3.1-5.3-8.4-5.3a15.66,15.66,0,0,0-6,1.1L9,91.6a13.11,13.11,0,0,1,5-1c2.6,0,4.1,1.2,4.1,2.5,0,1.5-1.5,2.2-4.7,3.1C9.2,97.4,7,98.9,7,101.6c0,3.2,3.4,5.4,9.2,5.4a19,19,0,0,0,6.9-1.2Z" style="fill:#3535ed"/><path class="crown" d="M10,93.9l-5.5-5a13.08,13.08,0,0,1,18.4-.8l-5,5.5A5.65,5.65,0,0,0,10,93.9Zm.3,8-5,5.5h0a13.21,13.21,0,0,1-.8-18.5l5.5,5A5.59,5.59,0,0,0,10.3,101.9Zm8-.3,5.5,5h0a13.08,13.08,0,0,1-18.4.8l5-5.5A5.75,5.75,0,0,0,18.3,101.6ZM23,88a13.21,13.21,0,0,1,.8,18.5l-5.5-5a5.65,5.65,0,0,0-.4-7.9Zm-3.3,9.7a5.6,5.6,0,1,1-5.6-5.6A5.59,5.59,0,0,1,19.7,97.7Zm5.2,21.1A27.73,27.73,0,0,1,21.5,135a8.06,8.06,0,0,1-3.4,3.2c-3.6,1.6-6.9,1.3-9.9-1.6a7.1,7.1,0,0,1-1-1.4,32.43,32.43,0,0,1-3.9-16.3c0-4,1.5-4.7,5.3-4.7a54.49,54.49,0,0,1,13.9,1.2C24.1,115.5,24.9,116.7,24.9,118.8Zm0-45.4a20.11,20.11,0,0,0-3.2-17.3c-3.7-3.1-7.4-3.9-11-2.2a8.18,8.18,0,0,0-4.2,4.9A65.63,65.63,0,0,0,3.9,72c-1.1,3.8-.7,6.4,3.6,5.6,4.7.2,9.5.6,13.1-.1A5.63,5.63,0,0,0,24.9,73.4Z" style="fill:#fff;stroke:#000;stroke-miterlimit:10"/><path class="braces" d="M16.3,64.7h0v2.7a4.25,4.25,0,0,0-1.1-.2H14a3.55,3.55,0,0,0-1,.2V64.7h0a3.55,3.55,0,0,0,1,.2h1.2a2,2,0,0,0,1.1-.2m-4.6-3.9c-.3,0-.6.4-.8.8v3.8H0v1.3H10.8v3.8a.77.77,0,0,0,.7.8h1.1a.76.76,0,0,0,.6-.8V70a.77.77,0,0,1,.7-.8h1.2c.3,0,.6.4.6.8v.5c-.1.4.2.7.6.8h1.1c.3,0,.6-.4.6-.8V66.7H28.4V65.4H18V61.6a.64.64,0,0,0-.6-.8H16.3a.76.76,0,0,0-.6.8v.5a.64.64,0,0,1-.6.8H14c-.3,0-.6-.4-.6-.8v-.5c.1-.4-.2-.7-.6-.8Z"/><path class="gum" d="M28.7,56.8h-5s-4-5.4-8.5-5.4-8.5,5.4-8.5,5.4H.2" style="fill:none;stroke:#ffb900;stroke-linejoin:round;stroke-width:3px"/><path class="paradontit1" d="M28.7,56.8H26.8a4.5,4.5,0,0,1-4.1-2.7c-1.3-2.8-4.6-8-7.5-8-3.2,0-5.5,5.8-7.3,8.6a4.53,4.53,0,0,1-3.8,2.1H.2" style="fill:none;stroke:#ff822e;stroke-linejoin:round;stroke-width:3px"/><path class="paradontit2" d="M28.7,56.8c-2,0-4,.1-4.6-2.2-1.6-3.9-4.3-12.7-9.6-12.7S8.5,51.3,6.4,55c-.8,1.4-5,1.8-6.2,1.8" style="fill:none;stroke:#f9610d;stroke-linejoin:round;stroke-width:3px"/><path class="paradontit3" d="M28.7,56.8c-1.4,0-4.9-1.5-4.6-2.2-1.6-3.9-3.9-17.2-9.8-17.2C9.2,37.4,8.5,51.3,6.4,55c-.8,1.4-5.2,1.8-6.2,1.8" style="fill:none;stroke:#f9610d;stroke-linejoin:round;stroke-width:3px"/><path class="paradontit4" d="M28.7,56.8a4,4,0,0,1-4.2-3.1c-1.2-6-1.8-21.6-9.8-21.6S8.5,48.6,6.3,54.4c-.7,1.8-4.1,2.4-6.1,2.4" style="fill:none;stroke:#f75403;stroke-linejoin:round;stroke-width:3px"/><path class="periodontit" d="M18,7.9a4.5,4.5,0,1,1-4.5-4.5A4.48,4.48,0,0,1,18,7.9Z" style="fill:#3535ed"/></g></g></g></svg>