<svg xmlns="http://www.w3.org/2000/svg" viewBox="0 0 44.02 146.3"><title>64tooth</title><g class="Слой_2" data-name="Слой 2"><g class="Слой_1-2" data-name="Слой 1"><g class="_64" data-name="64"><path class="background" d="M44,0V146.3H0V0Z" style="fill:#9fdaff"/><path class="bone" d="M44,0V57.2H0V0Z" style="fill:#de82a7"/><path class="bridge" d="M0,100.1v-4l44,.1v4Zm44,26.1v-4l-44-.1v4Zm0-53v-4L0,69.1v4Z" style="fill:#3535ed"/><path class="root" d="M7.5,21.2c.9,14,3.1,26.2,7.9,34.7l15.8,1.4c3.3-9.7,4.8-22.7,5.3-36.2-.5-3.2-1.2-3.8-2.5-.5-1.1,7.8-2.6,15-5.3,20.7A83.18,83.18,0,0,1,28,21a4.08,4.08,0,0,0-.7-2.8c-.8-1-1.6-1.1-2.4.1A6.18,6.18,0,0,0,24,21a83.51,83.51,0,0,1-5.3,22.2,7.88,7.88,0,0,1-2.3-3.1,49.22,49.22,0,0,1-3.5-17.2,6.82,6.82,0,0,0-1.7-4.3C9.3,16.4,8.1,17.5,7.5,21.2Z" style="fill:#f0e7be;stroke:#1a1715;stroke-miterlimit:10"/><path class="rootCanal" d="M13.1,43.1c2.1,5.8,3.8,8.6,3.2,11.3-.8,4.1,2,1.8,3.1,1.8a66.79,66.79,0,0,1,8.4.1c1.1.5,4.3-8.9,5.6-15,1-4.7,2.3-22.5,2.2-22.5s-2,15.8-3.5,20.8a14.45,14.45,0,0,1-3.2,5.8,2.23,2.23,0,0,1-3.8-1.6C25,34.3,27.2,18.4,26.4,18c-.3-.2-3.3,27.7-5.6,28.7-1.6.6-5.2-2.7-6.2-6.1-2.1-7-4.7-23-5.1-22.7S11,37.7,13.1,43.1Z" style="fill:#3535ed"/><path class="implant" d="M16.5,20.3l14-2.2a1.39,1.39,0,0,0-.7-.8,15.23,15.23,0,0,0-12.2,0,1.9,1.9,0,0,0-1,1.6Zm0,4L30.9,22l-.1-2.5L16.5,21.8Zm-.2,4L31,26l-.1-2.5L16.4,25.8Zm-.1,4L31.1,30V27.6L16.3,29.9ZM16,36.4,31.2,34l-.1-2.5-15,2.3Zm0,4L31.4,38l-.1-2.5L16,37.9Zm0,5.2,15.8-2.5-.1-2.5L16,43Zm-.2.3,16,.1-.1-2.6L15.8,45.9Zm-1.3,5H33.4V49a1.08,1.08,0,0,0-1-1H15.2a.91.91,0,0,0-.7.3,1.85,1.85,0,0,0-.2.7Zm-1,4.1a1.08,1.08,0,0,0,1,1H32.6a.94.94,0,0,0,1-1V53.8a1,1,0,0,0-.4-.9c-.1,0-.2-.1-.4-.1H14.7a.6.6,0,0,0-.4.1,1.49,1.49,0,0,0-.4.9Z" style="fill:#3535ed"/><path class="rootMask" d="M7.5,21.2c.9,14,3.1,26.2,7.9,34.7l15.8,1.4c3.3-9.7,4.8-22.7,5.3-36.2-.5-3.2-1.2-3.8-2.5-.5-1.1,7.8-2.6,15-5.3,20.7A83.18,83.18,0,0,1,28,21a4.08,4.08,0,0,0-.7-2.8c-.8-1-1.6-1.1-2.4.1A6.18,6.18,0,0,0,24,21a83.51,83.51,0,0,1-5.3,22.2,7.88,7.88,0,0,1-2.3-3.1,49.22,49.22,0,0,1-3.5-17.2,6.82,6.82,0,0,0-1.7-4.3C9.3,16.4,8.1,17.5,7.5,21.2Z" style="fill:#f0e7be;stroke:#1a1715;stroke-miterlimit:10"/><path class="coronaLingual" d="M34,132.3a11.33,11.33,0,0,1-5.2,5.6c-6.2,3.2-11.6,2.6-16.2-3.1a29.22,29.22,0,0,1-3.8-13.1,4.87,4.87,0,0,1,5.3-5.4,8,8,0,0,1,1.5.3c1.2,1,2.6,1.1,3.5-.2a16.54,16.54,0,0,1,11.3-.9c4.5,1.2,6,4,5.6,7.6A23.34,23.34,0,0,1,34,132.3Z" style="fill:#fff;stroke:#1a1715;stroke-miterlimit:10;stroke-width:0.25px"/><path class="coronaLingualIncisionDistal" d="M30,115.4V122h6.1c0-3.1-1.6-5.4-5.7-6.5C30.2,115.5,30.1,115.5,30,115.4Z" style="fill:#3535ed"/><path class="coronaLingualIncisalMiddle" d="M16.2,122.1H29.9v-6.6a17.33,17.33,0,0,0-10.9,1,2.07,2.07,0,0,1-2.8.6Z" style="fill:#3535ed"/><path class="coronaLingualIncisionMesial" d="M8.8,121.8v.3h7.5v-5c-.2-.2-.5-.3-.7-.5l-1.5-.3A4.9,4.9,0,0,0,8.8,121.8Z" style="fill:#3535ed"/><path class="coronaLingualMiddleDistal" d="M30,122.1v11.2h3.5c.1-.3.3-.6.4-.9a24.22,24.22,0,0,0,2-9.3,3.4,3.4,0,0,0,.1-1Z" style="fill:#3535ed"/><path class="coronaLingualMiddleMiddle" d="M30,133.3H16.3V122.1H30Z" style="fill:#3535ed"/><path class="coronaLingualMiddleMesial" d="M11.7,133.3h4.6V122.1H8.8A31.8,31.8,0,0,0,11.7,133.3Z" style="fill:#3535ed"/><path class="coronaLingualCervicalDistal" d="M30,133.3v3.9a11.23,11.23,0,0,0,3.6-3.9Z" style="fill:#3535ed"/><path class="coronaLingualCervicalMiddle" d="M16.3,133.3v5c3.7,2.4,7.9,2.1,12.5-.3.4-.3.8-.5,1.2-.8v-3.9Z" style="fill:#3535ed"/><path class="coronaLingualCervicalMesial" d="M11.6,133.3c.3.5.6,1.1.9,1.6a14.49,14.49,0,0,0,3.7,3.4v-5Z" style="fill:#3535ed"/><path class="coronaLabial" d="M34.2,60.7A5.67,5.67,0,0,0,33,58.9c-6.6-7.2-12.9-8.4-19-1.9a32,32,0,0,0-2.2,2.7A19.29,19.29,0,0,0,8.1,72.1c.2,3.1,1.5,4.6,3.5,4.9a5.48,5.48,0,0,0,4.1-1.1c1.2-.9,2.4-.6,3.7.3a7.23,7.23,0,0,0,4.3,1.5,34.67,34.67,0,0,0,8.5-1c2.3-.3,3.6-1.8,3.7-5.1A16.18,16.18,0,0,0,34.2,60.7Z" style="fill:#fff;stroke:#000;stroke-miterlimit:10"/><path class="coronaLabialIncisalDistal" d="M26.6,69.5v8.1a27.1,27.1,0,0,0,5.7-.9c2.3-.3,3.6-1.8,3.7-5.1a14.92,14.92,0,0,0,.2-2.1Z" style="fill:#3535ed"/><path class="coronaLabialIncisalMiddle" d="M26.6,69.5l-8.3.1v6a3,3,0,0,1,1.1.6,7.23,7.23,0,0,0,4.3,1.5,28.1,28.1,0,0,0,2.9-.1V69.5Z" style="fill:#3535ed"/><path class="coronaLabialIncisionMesial" d="M8,72c.2,3.1,1.5,4.6,3.5,4.9a5.48,5.48,0,0,0,4.1-1.1,2.46,2.46,0,0,1,2.6-.3v-6H8.2A19.48,19.48,0,0,1,8,72Z" style="fill:#3535ed"/><path class="coronaLabialMiddleDistal" d="M26.6,58.4V69.6h9.6a17.7,17.7,0,0,0-1.9-8.9,5.67,5.67,0,0,0-1.2-1.8l-.5-.5Z" style="fill:#3535ed"/><path class="coronaLabialMiddleMiddle" d="M26.6,69.6H18.3V58.4h8.3Z" style="fill:#3535ed"/><path class="coronaLabialMiddleMesial" d="M8.2,69.6h10V58.4H12.8a14.7,14.7,0,0,0-1,1.3A19.18,19.18,0,0,0,8.2,69.6Z" style="fill:#3535ed"/><path class="coronaLabialCervicalDistal" d="M26.6,53.8v4.6h6A21.4,21.4,0,0,0,26.6,53.8Z" style="fill:#3535ed"/><path class="coronaLabialCervicalMiddle" d="M18.3,53.8v4.6h8.3V53.8A9,9,0,0,0,18.3,53.8Z" style="fill:#3535ed"/><path class="coronaLabialCervicalMesial" d="M12.9,58.4h5.4V53.8A14.66,14.66,0,0,0,14.1,57,17.41,17.41,0,0,0,12.9,58.4Z" style="fill:#3535ed"/><path class="veneer" d="M30.4,71.2c-2.7,1-3.1.9-4.9-1.4l-1.2-1.6L25,70c1,2.7.9,3.1-1.4,4.9L22,76.1l1.8-.7c2.7-1,3.1-.9,4.9,1.4l1.2,1.5-.7-1.8c-1-2.7-.9-3.1,1.4-4.9l1.6-1.2ZM29.1,60.8c-1.7.7-1.9.6-3-.8l-1.2-1.6.7,1.8c.7,1.6.6,1.8-.8,2.9l-1.6,1.2,1.9-.7c1.6-.7,1.8-.6,2.9.8L29.2,66l-.7-1.8c-.7-1.7-.6-1.9.8-3L30.9,60Zm-10,2.4c-1.7.7-1.9.6-3-.8l-1.2-1.6.7,1.8c.7,1.7.6,1.9-.8,3l-1.6,1.2,1.9-.7c1.6-.7,1.8-.6,2.9.8l1.2,1.6-.7-1.8c-.7-1.6-.6-1.8.8-2.9l1.6-1.2Z" style="fill:#3535ed"/><path class="coronaTop" d="M18.8,93.8l-5.7-5.2a13.56,13.56,0,0,1,19.1-.8L27,93.5A5.83,5.83,0,0,0,18.8,93.8Zm.3,8.2-5.2,5.7a13.56,13.56,0,0,1-.8-19.1l5.7,5.2A5.92,5.92,0,0,0,19.1,102Zm8.3-.3,5.7,5.2h0a13.56,13.56,0,0,1-19.1.8l5.2-5.7A5.92,5.92,0,0,0,27.4,101.7Zm4.9-13.9h0a13.56,13.56,0,0,1,.8,19.1l-5.7-5.2h0a5.83,5.83,0,0,0-.4-8.2Zm-3.4,9.9a5.8,5.8,0,1,1-5.8-5.8A5.8,5.8,0,0,1,28.9,97.7Z" style="fill:#fff;stroke:#000;stroke-miterlimit:10"/><path class="coronaTopBuccal" d="M18.8,93.8l-5.7-5.2a13.56,13.56,0,0,1,19.1-.8L27,93.5A5.83,5.83,0,0,0,18.8,93.8Z" style="fill:#3535ed"/><path class="coronaTopMedial" d="M19.1,102l-5.2,5.7a13.56,13.56,0,0,1-.8-19.1l5.7,5.2A5.92,5.92,0,0,0,19.1,102Z" style="fill:#3535ed"/><path class="coronaTopLingual" d="M27.4,101.7l5.7,5.2h0a13.56,13.56,0,0,1-19.1.8l5.2-5.7A5.92,5.92,0,0,0,27.4,101.7Z" style="fill:#3535ed"/><path class="coronaTopDistal" d="M32.3,87.8h0a13.56,13.56,0,0,1,.8,19.1l-5.7-5.2h0a5.83,5.83,0,0,0-.4-8.2Z" style="fill:#3535ed"/><path class="coronaTopOclusial" d="M28.9,97.7a5.8,5.8,0,1,1-5.8-5.8A5.8,5.8,0,0,1,28.9,97.7Z" style="fill:#3535ed"/><path class="silant" d="M30,103.2a16.09,16.09,0,0,1-5.9,1.3c-3.3,0-4.8-1.2-4.8-2.7s1.2-2.4,4.5-3.3c4.4-1.1,6.5-2.9,6.5-5.1,0-2.9-3.1-5.3-8.4-5.3a15.66,15.66,0,0,0-6,1.1L17,91.6a13.11,13.11,0,0,1,5-1c2.6,0,4.1,1.2,4.1,2.5,0,1.5-1.5,2.2-4.7,3.1-4.2,1.2-6.4,2.7-6.4,5.4,0,3.2,3.4,5.4,9.2,5.4a19,19,0,0,0,6.9-1.2Z" style="fill:#3535ed"/><path class="crown" d="M18.8,93.8l-5.7-5.2a13.56,13.56,0,0,1,19.1-.8L27,93.5A5.83,5.83,0,0,0,18.8,93.8Zm.3,8.2-5.2,5.7a13.56,13.56,0,0,1-.8-19.1l5.7,5.2A5.92,5.92,0,0,0,19.1,102Zm8.3-.3,5.7,5.2h0a13.56,13.56,0,0,1-19.1.8l5.2-5.7A5.92,5.92,0,0,0,27.4,101.7Zm4.9-13.9h0a13.56,13.56,0,0,1,.8,19.1l-5.7-5.2h0a5.83,5.83,0,0,0-.4-8.2Zm-3.4,9.9a5.8,5.8,0,1,1-5.8-5.8A5.8,5.8,0,0,1,28.9,97.7ZM34,132.3a11.33,11.33,0,0,1-5.2,5.6c-6.2,3.2-11.6,2.6-16.2-3.1a29.22,29.22,0,0,1-3.8-13.1,4.87,4.87,0,0,1,5.3-5.4,8,8,0,0,1,1.5.3c1.2,1,2.6,1.1,3.5-.2a16.54,16.54,0,0,1,11.3-.9c4.5,1.2,6,4,5.6,7.6A23.34,23.34,0,0,1,34,132.3Zm.2-71.6A5.67,5.67,0,0,0,33,58.9c-6.6-7.2-12.9-8.4-19-1.9a32,32,0,0,0-2.2,2.7A19.29,19.29,0,0,0,8.1,72.1c.2,3.1,1.5,4.6,3.5,4.9a5.48,5.48,0,0,0,4.1-1.1c1.2-.9,2.4-.6,3.7.3a7.23,7.23,0,0,0,4.3,1.5,34.67,34.67,0,0,0,8.5-1c2.3-.3,3.6-1.8,3.7-5.1A16.18,16.18,0,0,0,34.2,60.7Z" style="fill:#fff;stroke:#000;stroke-miterlimit:10"/><path class="braces" d="M23.6,64.7h0v2.7a4.25,4.25,0,0,0-1.1-.2H21.3a3.55,3.55,0,0,0-1,.2V64.7h0a3.55,3.55,0,0,0,1,.2h1.2a2,2,0,0,0,1.1-.2M19,60.8c-.3,0-.6.4-.6.8v3.8H0v1.3H18.5v3.8a.64.64,0,0,0,.6.8h1.1a.76.76,0,0,0,.6-.8V70a.64.64,0,0,1,.6-.8h1.2c.3,0,.6.4.6.8v.5c-.1.4.2.7.6.8h1.1a.77.77,0,0,0,.7-.8V66.7H44V65.4H25.7V61.6a.77.77,0,0,0-.7-.8H23.7a.76.76,0,0,0-.6.8v.5a.64.64,0,0,1-.6.8H21.4a.77.77,0,0,1-.7-.8v-.5c.1-.4-.2-.7-.6-.8Z"/><path class="gum" d="M44,57.3H34.7s-5-5.8-12.5-6.3C14.1,51,12,56.8,12,56.8H0" style="fill:none;stroke:#ffb900;stroke-linejoin:round;stroke-width:3px"/><path class="paradontit1" d="M44,57.3s-9.4.1-10.6-2.3c-1.7-2.1-4-5.9-9.8-5.9s-8.1,4-10.4,6.3a4.38,4.38,0,0,1-2.9,1.4H0" style="fill:none;stroke:#ff822e;stroke-linejoin:round;stroke-width:3px"/><path class="paradontit2" d="M43.9,57.3H41.2a6.66,6.66,0,0,1-5.4-2.5c-2-2.8-6.3-9.5-11.3-9.8-5.6,0-9.3,6.9-11.5,9.9-1.7,1.9-13,1.9-13,1.9" style="fill:none;stroke:#f9610d;stroke-linejoin:round;stroke-width:3px"/><path class="paradontit3" d="M43.9,57.3H41.2a6.66,6.66,0,0,1-5.4-2.5c-2-2.8-7-13.7-12-14-5.5,0-8.5,11.1-10.8,14.1-1.5,1.9-13,1.9-13,1.9" style="fill:none;stroke:#f9610d;stroke-linejoin:round;stroke-width:3px"/><path class="paradontit4" d="M44,57.3H42.1c-2.7,0-5.1-1.3-5.8-3.3-2.2-5.9-5.6-17.8-12.4-17.8S14,47.7,12.4,53.7C10.7,56.8,0,56.8,0,56.8" style="fill:none;stroke:#f75403;stroke-linejoin:round;stroke-width:3px"/><path class="periodontit" d="M31.3,13.3a4.5,4.5,0,1,1-4.5-4.5A4.48,4.48,0,0,1,31.3,13.3Zm5.2-2.7A4.5,4.5,0,1,0,41,15.1,4.48,4.48,0,0,0,36.5,10.6ZM9.8,9.3a4.5,4.5,0,1,0,4.5,4.5A4.48,4.48,0,0,0,9.8,9.3Z" style="fill:#3535ed"/></g></g></g></svg>