<svg xmlns="http://www.w3.org/2000/svg" viewBox="0 0 47.06 146.3"><title>65tooth</title><g class="Слой_2" data-name="Слой 2"><g class="Слой_1-2" data-name="Слой 1"><g class="_65" data-name="65"><path class="background" d="M47.06,146.3H.06V0h47Z" style="fill:#9fdaff"/><path class="bone" d="M47.06,57.2H.06V0h47Z" style="fill:#de82a7"/><path class="bridge" d="M.06,126.2v-4l47,.2v4Zm47-25.8v-4l-47-.2v4Zm0-27v-4l-47-.2v4Z" style="fill:#3535ed"/><path class="root" d="M8.46,58.2l21.4-.7c5.6-9.5,9.9-20.8,13.2-33.3a4.14,4.14,0,0,0-.8-4c-1-1.1-2-.9-3.1.9-2.7,8.4-6.3,15.7-11.4,21.3a5,5,0,0,1-.8.7c-1.3-5.3-1.3-13.9-1-21a4.37,4.37,0,0,0-.9-3.1c-1-1.2-2.1-.9-3.2.5a2.72,2.72,0,0,0-.6,1.7c-.3,6.1-2.4,15.7-5.1,23.4-.4-.3-.9-.6-1.4-1-3.8-5-4.2-12.5-3.6-20.9a5.23,5.23,0,0,0-1-3.6c-.9-1.1-1.8-1.1-2.7.2a6.43,6.43,0,0,0-1,2.4C4,35.5,4.16,47.9,8.46,58.2Z" style="fill:#f0e7be;stroke:#1a1715;stroke-miterlimit:10"/><path class="rootCanal" d="M9,43.5c2.8,5.6,2.6,10.7,2.8,13.5.1,1.5,3.9,2.5,5,2.3a31.22,31.22,0,0,1,8.5.1c1,.5,10.7-16.8,12-22.9,1-4.7,5.1-15.8,5-15.9-.3-.4-6.7,12.4-8.2,17.4-.7,2.5-6.4,9.1-7.7,10.4a2.23,2.23,0,0,1-3.8-1.6c-.1-9.5,2.2-28,1.3-28s-4,28.3-6.3,29.3c-1.6.7-7.3-7.2-8.2-10.6-3.2-11.9-.1-19.1-.5-18.7C7,20.5,4.66,35,9,43.5Z" style="fill:#3535ed"/><path class="implant" d="M16.66,20.3l14-2.2a1.39,1.39,0,0,0-.7-.8,15.23,15.23,0,0,0-12.2,0,1.9,1.9,0,0,0-1,1.6Zm0,4L31.06,22,31,19.5l-14.3,2.3Zm-.2,4L31.16,26l-.1-2.5-14.5,2.3Zm-.1,4L31.26,30V27.6l-14.8,2.3Zm-.2,4.1L31.36,34l-.1-2.5-15,2.3Zm0,4L31.56,38l-.1-2.5-15.3,2.4Zm-.1,5.2,15.8-2.5-.1-2.5L16.06,43Zm-.2.5h16l-.1-2.7-15.9,2.5Zm-1.4,4.8h18.9V49a1.17,1.17,0,0,0-.2-.7.91.91,0,0,0-.7-.3H15.26a.91.91,0,0,0-.7.3,1.85,1.85,0,0,0-.2.7Zm-.9,4.1a1.08,1.08,0,0,0,1,1h18.1a.94.94,0,0,0,1-1V53.8a1,1,0,0,0-.4-.9c-.1,0-.2-.1-.4-.1H15a.94.94,0,0,0-1,1Z" style="fill:#3535ed"/><path class="rootMusk" d="M8.46,58.2l21.4-.7c5.6-9.5,9.9-20.8,13.2-33.3a4.14,4.14,0,0,0-.8-4c-1-1.1-2-.9-3.1.9-2.7,8.4-6.3,15.7-11.4,21.3a5,5,0,0,1-.8.7c-1.3-5.3-1.3-13.9-1-21a4.37,4.37,0,0,0-.9-3.1c-1-1.2-2.1-.9-3.2.5a2.72,2.72,0,0,0-.6,1.7c-.3,6.1-2.4,15.7-5.1,23.4-.4-.3-.9-.6-1.4-1-3.8-5-4.2-12.5-3.6-20.9a5.23,5.23,0,0,0-1-3.6c-.9-1.1-1.8-1.1-2.7.2a6.43,6.43,0,0,0-1,2.4C4,35.5,4.16,47.9,8.46,58.2Z" style="fill:#f0e7be;stroke:#1a1715;stroke-miterlimit:10"/><path class="coronaLingual" d="M35.86,119.2c2,4.3,1.1,8.9-2,13.8a10.58,10.58,0,0,1-2.5,2.7c-10.2,7.7-19,6.2-26.1-5.9A11.08,11.08,0,0,1,4,126.2c-.7-4.6.4-7,2.8-8.1,2.9-1.6,6.9-2.3,11.6-2.4a2.41,2.41,0,0,1,1.5.4,3.94,3.94,0,0,0,4.3,0,3.58,3.58,0,0,1,1.1-.4,15.33,15.33,0,0,1,8.6,1.5A3.9,3.9,0,0,1,35.86,119.2Z" style="fill:#fff;stroke:#1a1715;stroke-miterlimit:10;stroke-width:0.25px"/><path class="coronaLingualIncisalDistal" d="M28.46,115.7v6.4h8.4a15.18,15.18,0,0,0-.9-2.8,3.92,3.92,0,0,0-2.1-2.1A13.72,13.72,0,0,0,28.46,115.7Z" style="fill:#3535ed"/><path class="coronaLingualIncisalMiddle" d="M12.06,122.1h16.4v-6.4a11.45,11.45,0,0,0-3.2.1,2.46,2.46,0,0,0-1.1.4,3.94,3.94,0,0,1-4.3,0,2.82,2.82,0,0,0-1.5-.4,39.65,39.65,0,0,0-6.3.6Z" style="fill:#3535ed"/><path class="coronaLingualIncisionMesial" d="M3.86,122.1h8.2v-5.7a16.34,16.34,0,0,0-5.4,1.8A4.89,4.89,0,0,0,3.86,122.1Z" style="fill:#3535ed"/><path class="coronaLingualMiddleDistal" d="M28.46,122.1v11.2h5.3c0-.1.1-.1.1-.2,2.4-3.8,3.5-7.5,2.9-11Z" style="fill:#3535ed"/><path class="coronaLingualMiddleMiddle" d="M28.46,133.3H12.06V122.1h16.4Z" style="fill:#3535ed"/><path class="coronaLingualMiddleMesial" d="M4,126.4a9.17,9.17,0,0,0,1.3,3.6,27,27,0,0,0,2.2,3.3h4.6V122.1H3.86A12.65,12.65,0,0,0,4,126.4Z" style="fill:#3535ed"/><path class="coronaLingualCervicalDistal" d="M28.46,133.3v4.5c.9-.6,1.9-1.3,2.9-2a9.52,9.52,0,0,0,2.4-2.5Z" style="fill:#3535ed"/><path class="coronaLingualCervicalMiddle" d="M12.06,133.3V138c4.9,3.6,10.4,3.4,16.4-.2v-4.5Z" style="fill:#3535ed"/><path class="coronaLingualCervicalMesial" d="M12.06,138v-4.7H7.46A20.6,20.6,0,0,0,12.06,138Z" style="fill:#3535ed"/><path class="coronaLabial" d="M35.76,64.4a11.63,11.63,0,0,0-4.4-6.6c-9.5-6.9-17.8-6.6-24.7,2.4C3,65.6.86,70.7,5.36,74.7c3.2,2.5,7.8,3.1,12.9,3.2a2.72,2.72,0,0,0,2.1-1.2c1-1.5,2.7-.8,4.8.6a3.77,3.77,0,0,0,2.1.7A9,9,0,0,0,32,77a9.06,9.06,0,0,0,4.5-8.6A18.65,18.65,0,0,0,35.76,64.4Z" style="fill:#fff;stroke:#000;stroke-miterlimit:10;stroke-width:0.25px"/><path class="coronaLabialIncisalDistal" d="M27.66,69.5v8.4a8.51,8.51,0,0,0,8.8-8.4Z" style="fill:#3535ed"/><path class="coronaLabialIncisalMiddle" d="M13.06,69.5v7.9a30.76,30.76,0,0,0,5.3.4,2.72,2.72,0,0,0,2.1-1.2c1-1.5,2.7-.8,4.8.6a3.77,3.77,0,0,0,2.1.7h.4V69.5Z" style="fill:#3535ed"/><path class="coronaLabialIncisionMesial" d="M13,69.5l-10.1-.1a6.64,6.64,0,0,0,2.5,5.2A15.1,15.1,0,0,0,13,77.4V69.5Z" style="fill:#3535ed"/><path class="coronaLabialMiddleDistal" d="M27.66,58.4V69.5h8.8V68.4a25.68,25.68,0,0,0-.6-4,12.19,12.19,0,0,0-3.7-6Z" style="fill:#3535ed"/><path class="coronaLabialMiddleMiddle" d="M27.76,69.6H13.06V58.4h14.7Z" style="fill:#3535ed"/><path class="coronaLabialMiddleMesial" d="M2.86,69.6H13V58.4H8.26a14.28,14.28,0,0,0-1.5,1.8C4.46,63.5,2.76,66.6,2.86,69.6Z" style="fill:#3535ed"/><path class="coronaLabialCervicalDistal" d="M27.76,55.4v2.9h4.4a3,3,0,0,1-.7-.5C30.16,56.9,29,56.1,27.76,55.4Z" style="fill:#3535ed"/><path class="coronaLabialCervicalMiddle" d="M13.06,54.6v3.8h14.7V55.5C22.36,52.6,17.46,52.2,13.06,54.6Z" style="fill:#3535ed"/><path class="coronaLabialCervicalMesial" d="M8.26,58.4H13V54.6A17.86,17.86,0,0,0,8.26,58.4Z" style="fill:#3535ed"/><path class="veneer" d="M28.46,70.2c-2.7,1-3.1.9-4.9-1.4l-1.2-1.6.7,1.8c1,2.7.9,3.1-1.4,4.9l-1.6,1.2,1.8-.7c2.7-1,3.1-.9,4.9,1.4L28,77.3l-.7-1.8c-1-2.7-.9-3.1,1.4-4.9l1.6-1.2Zm-1.2-10.4c-1.6.7-1.8.6-2.9-.8l-1.2-1.6.7,1.8c.7,1.6.6,1.8-.8,2.9l-1.6,1.2,1.8-.7c1.6-.7,1.8-.6,2.9.8l1.2,1.6-.7-1.8c-.7-1.7-.6-1.9.8-3l1.6-1.2Zm-10.1,2.4c-1.6.7-1.8.6-2.9-.8l-1.2-1.6.7,1.8c.7,1.7.6,1.9-.8,3l-1.6,1.2,1.9-.7c1.6-.7,1.8-.6,2.9.8l1.2,1.6-.7-1.8c-.7-1.6-.6-1.8.8-2.9l1.6-1.2Z" style="fill:#3535ed"/><path class="coronaTop" d="M20,93.8l-5.7-5.2a13.56,13.56,0,0,1,19.1-.8l-5.2,5.7A5.74,5.74,0,0,0,20,93.8Zm.3,8.2-5.2,5.7h0a13.56,13.56,0,0,1-.8-19.1L20,93.8A5.92,5.92,0,0,0,20.26,102Zm8.3-.3,5.7,5.2h0a13.56,13.56,0,0,1-19.1.8l5.2-5.7A5.92,5.92,0,0,0,28.56,101.7Zm4.9-13.9a13.56,13.56,0,0,1,.8,19.1l-5.7-5.2a5.83,5.83,0,0,0-.4-8.2Zm-3.4,9.9a5.8,5.8,0,1,1-5.8-5.8A5.87,5.87,0,0,1,30.06,97.7Z" style="fill:none;stroke:#000;stroke-miterlimit:10"/><path class="coronaTopBuccal" d="M20,93.8l-5.7-5.2a13.56,13.56,0,0,1,19.1-.8l-5.2,5.7A5.74,5.74,0,0,0,20,93.8Z" style="fill:#3535ed"/><path class="coronaTopMedial" d="M20.26,102l-5.2,5.7h0a13.56,13.56,0,0,1-.8-19.1L20,93.8A5.92,5.92,0,0,0,20.26,102Z" style="fill:#3535ed"/><path class="coronaTopLingual" d="M28.56,101.7l5.7,5.2h0a13.56,13.56,0,0,1-19.1.8l5.2-5.7A5.92,5.92,0,0,0,28.56,101.7Z" style="fill:#3535ed"/><path class="coronaTopDistal" d="M33.46,87.8a13.56,13.56,0,0,1,.8,19.1l-5.7-5.2a5.83,5.83,0,0,0-.4-8.2Z" style="fill:#3535ed"/><path class="coronaTopOclusial" d="M30.06,97.7a5.8,5.8,0,1,1-5.8-5.8A5.87,5.87,0,0,1,30.06,97.7Z" style="fill:#3535ed"/><path class="silant" d="M31.06,103.2a16.09,16.09,0,0,1-5.9,1.3c-3.3,0-4.8-1.2-4.8-2.7s1.2-2.4,4.5-3.3c4.4-1.1,6.5-2.9,6.5-5.1,0-2.9-3.1-5.3-8.4-5.3a15.66,15.66,0,0,0-6,1.1l1.1,2.4a13.11,13.11,0,0,1,5-1c2.6,0,4.1,1.2,4.1,2.5,0,1.5-1.5,2.2-4.7,3.1-4.2,1.2-6.4,2.7-6.4,5.4,0,3.2,3.4,5.4,9.2,5.4a19,19,0,0,0,6.9-1.2Z" style="fill:#3535ed"/><path class="crown" d="M20,93.8l-5.7-5.2a13.56,13.56,0,0,1,19.1-.8l-5.2,5.7A5.74,5.74,0,0,0,20,93.8Zm.3,8.2-5.2,5.7h0a13.56,13.56,0,0,1-.8-19.1L20,93.8A5.92,5.92,0,0,0,20.26,102Zm8.3-.3,5.7,5.2h0a13.56,13.56,0,0,1-19.1.8l5.2-5.7A5.92,5.92,0,0,0,28.56,101.7Zm4.9-13.9a13.56,13.56,0,0,1,.8,19.1l-5.7-5.2a5.83,5.83,0,0,0-.4-8.2Zm-3.4,9.9a5.8,5.8,0,1,1-5.8-5.8A5.87,5.87,0,0,1,30.06,97.7Zm5.8,21.5c2,4.3,1.1,8.9-2,13.8a10.58,10.58,0,0,1-2.5,2.7c-10.2,7.7-19,6.2-26.1-5.9A11.08,11.08,0,0,1,4,126.2c-.7-4.6.4-7,2.8-8.1,2.9-1.6,6.9-2.3,11.6-2.4a2.41,2.41,0,0,1,1.5.4,3.94,3.94,0,0,0,4.3,0,3.58,3.58,0,0,1,1.1-.4,15.33,15.33,0,0,1,8.6,1.5A3.9,3.9,0,0,1,35.86,119.2Zm-.1-54.8a11.63,11.63,0,0,0-4.4-6.6c-9.5-6.9-17.8-6.6-24.7,2.4C3,65.6.86,70.7,5.36,74.7c3.2,2.5,7.8,3.1,12.9,3.2a2.72,2.72,0,0,0,2.1-1.2c1-1.5,2.7-.8,4.8.6a3.77,3.77,0,0,0,2.1.7A9,9,0,0,0,32,77a9.06,9.06,0,0,0,4.5-8.6A18.65,18.65,0,0,0,35.76,64.4Z" style="fill:#fff;stroke:#000;stroke-miterlimit:10"/><path class="braces" d="M25.16,64.7h0v2.7a4.25,4.25,0,0,0-1.1-.2h-1.2a3.55,3.55,0,0,0-1,.2V64.7h0a3.55,3.55,0,0,0,1,.2h1.2a2,2,0,0,0,1.1-.2m-4.6-3.9c-.3,0-.6.4-.6.8v3.8H.36v1.3h19.8v3.8a.64.64,0,0,0,.6.8h1.1a.76.76,0,0,0,.6-.8V70a.64.64,0,0,1,.6-.8h1.2c.3,0,.6.4.6.8v.5c-.1.4.2.7.6.8h1.1a.77.77,0,0,0,.7-.8V66.7h19.8V65.4h-20V61.6a.77.77,0,0,0-.7-.8h-1.1a.76.76,0,0,0-.6.8v.5a.64.64,0,0,1-.6.8H23a.77.77,0,0,1-.7-.8v-.5c.1-.4-.2-.7-.6-.8Z"/><path class="gum" d="M47.06,57.2H33.46s-5.9-5.3-13.1-5.3S7.16,57,7.16,57l-7.1.3" style="fill:none;stroke:#ffb900;stroke-linejoin:round;stroke-width:3px"/><path class="paradontit1" d="M47.06,57.3h-10A7.51,7.51,0,0,1,32,55.5c-4.1-14.6-24.6-5.2-26.1,1.8H.06" style="fill:none;stroke:#ff822e;stroke-linejoin:round;stroke-width:3px"/><path class="paradontit2" d="M47.06,57.2h-6.8a7.5,7.5,0,0,1-5.7-2.3c-2.2-2.6-7.5-11-12.6-11s-11.1,8.6-13.7,11.2c-1.1,1.2-1.7,2.1-3.9,2.1l-4.3.1" style="fill:none;stroke:#f9610d;stroke-linejoin:round;stroke-width:3px"/><path class="paradontit3" d="M47.06,57.3h-6.8a7.5,7.5,0,0,1-5.7-2.3c-2.1-2.6-8.1-14.8-13.2-14.8s-8.2,12.5-10.8,15.1a7.75,7.75,0,0,1-5.4,2H.06" style="fill:none;stroke:#f9610d;stroke-linejoin:round;stroke-width:3px"/><path class="paradontit4" d="M47.06,57.3h-5.4c-3.1,0-5.8-1.4-6.4-3.5-1.8-6.7-5.1-17.3-13.8-17.3S12.26,47.3,10,53.9c-.7,2-3.4,3.4-6.4,3.4H.06" style="fill:none;stroke:#f75403;stroke-linejoin:round;stroke-width:3px"/><path class="periodontit" d="M28.66,14.6a4.5,4.5,0,1,1-4.5-4.5A4.55,4.55,0,0,1,28.66,14.6Zm12.7-3.1a4.5,4.5,0,1,0,4.5,4.5A4.55,4.55,0,0,0,41.36,11.5ZM8.86,10.1a4.5,4.5,0,1,0,4.5,4.5A4.55,4.55,0,0,0,8.86,10.1Z" style="fill:#3535ed"/></g></g></g></svg>