<svg xmlns="http://www.w3.org/2000/svg" viewBox="0 0 29.4 143.5"><title>71tooth</title><g class="Слой_2" data-name="Слой 2"><g class="Слой_1-2" data-name="Слой 1"><g class="_71" data-name="71"><path class="background" d="M29.3,143.5H.3V0h29Z" style="fill:#9fdaff"/><path class="bone" d="M29.3,143.5H.3V88.4h29Z" style="fill:#de82a7"/><path class="bridge" d="M.3,70.8h29v4H.3Zm0-21h29v-4H.3Zm0-25h29v-4H.3Z" style="fill:#3535ed"/><path class="root" d="M20.3,87.2c-1.5,13.1-1.8,25.5,0,36.8.7,5.1-.5,5.8-2.7,3.7a13.09,13.09,0,0,1-3.4-5.5c-2.9-9-4.2-21.5-4.8-35.9" style="fill:#f0e7be;stroke:#1a1715;stroke-miterlimit:10"/><path class="rootCanal" d="M13.5,87.4a8.73,8.73,0,0,0,3.7,1c.1,0,.2.2.2.3-.5,1.7-1.6,10.2-1.1,19.2.4,7.3,2.3,14.9,2.9,19.8a.66.66,0,0,1-1.3.2c-1.3-4.8-3.5-12.6-4.3-20A144,144,0,0,1,13,87.6C13,87.4,13.2,87.3,13.5,87.4Z" style="fill:#3535ed;stroke:#201600;stroke-miterlimit:10;stroke-width:0.25px"/><path class="implant" d="M21.4,123.2l-14,2a1.39,1.39,0,0,0,.7.8,15.23,15.23,0,0,0,12.2.1,1.9,1.9,0,0,0,1-1.6Zm0-1.7v-2.6L7,121.1l.1,2.4,14.3-2Zm.2-6.5L6.9,117.2l.1,2.4,14.5-2Zm.1-1.5v-2.4L6.8,113.3l.1,2.4,14.8-2.2Zm.2-6.5L6.7,109.3l.1,2.4,15-2.2Zm.2-3.9L6.6,105.3l.1,2.4L22,105.4Zm.1-5.3L6.4,100.1l.1,2.5,15.7-2.3Zm.1-.5-16-.1.1,2.6,15.9-2.3Zm1.5-4.9h-.4L5.3,92.3H4.9v1.9a1.07,1.07,0,0,0,.2.6.91.91,0,0,0,.7.3H6.9l15,.1H23a.91.91,0,0,0,.7-.3,1.61,1.61,0,0,0,.4-.7Zm.7-2.6.3-1.3h0a1.08,1.08,0,0,0-1-1L5.7,87.4a.94.94,0,0,0-1,1v1.2a1,1,0,0,0,.4.9c.1,0,.2.1.4.1l18.1.1a.6.6,0,0,0,.4-.1.89.89,0,0,0,.5-.8Z" style="fill:#3535ed"/><path class="rootMusk" d="M20.3,87.2c-1.5,13.1-1.8,25.5,0,36.8.7,5.1-.5,5.8-2.7,3.7a13.09,13.09,0,0,1-3.4-5.5c-2.9-9-4.2-21.5-4.8-35.9" style="fill:#f0e7be;stroke:#1a1715;stroke-miterlimit:10"/><path class="coronaLingual" d="M21.5,11.8c.7,5.3,1.6,10.9,1,14.3a3.4,3.4,0,0,1-3.1,2.7l-9.7.6c-2-.5-2-.5-2.2-3.5l.7-10.8a13.86,13.86,0,0,1,4.4-9.2c2.1-1.8,4.2-2.4,6.5.2A11.26,11.26,0,0,1,21.5,11.8Z" style="fill:#fff;stroke:#1a1715;stroke-miterlimit:10;stroke-width:0.25px"/><path class="coronaLingualIncisalDistal" d="M18.9,24.5v4.2h.4A3.4,3.4,0,0,0,22.4,26a7.72,7.72,0,0,0,.2-1.5Z" style="fill:#3535ed"/><path class="coronaLingualIncisalMiddle" d="M11.4,29.2l7.5-.5V24.5H11.4Z" style="fill:#3535ed"/><path class="coronaLingualIncisionMesial" d="M7.4,25.8c.2,3,.2,3,2.2,3.5l1.8-.1V24.5H7.6Z" style="fill:#3535ed"/><path class="coronaLingualMiddleDistal" d="M19,12.9V24.5h3.7c.2-3.1-.4-7.4-1-11.6Z" style="fill:#3535ed"/><path class="coronaLingualMiddleMiddle" d="M18.9,24.5H11.4V12.9h7.5Z" style="fill:#3535ed"/><path class="coronaLingualMiddleMesial" d="M7.6,24.5h3.8V12.9H8.5a19.19,19.19,0,0,0-.3,2.2Z" style="fill:#3535ed"/><path class="coronaLingualCervicalDistal" d="M19,6v7h2.7c-.1-.5-.1-.9-.2-1.3a10.47,10.47,0,0,0-2.4-5.6Z" style="fill:#3535ed"/><path class="coronaLingualCervicalMiddle" d="M11.4,12.9h7.5v-7c-2.2-2.4-4.3-1.8-6.4,0A5.73,5.73,0,0,0,11.4,7Z" style="fill:#3535ed"/><path class="coronaLingualCervicalMesial" d="M8.5,12.9h2.9V7A14.82,14.82,0,0,0,8.5,12.9Z" style="fill:#3535ed"/><path class="coronaLabial" d="M10.9,89.8a6.49,6.49,0,0,1-1.5-3.5c-.5-4.3-1-9-1.4-14a19.27,19.27,0,0,1,.1-2.4c.2-1.6.3-1.2,2.2-1.8,2.7-.1,6.2.5,8.2,2.2,1.9.5,2.6,2.2,2.4,4.7l-.4,11A9.13,9.13,0,0,1,19,90.9C16.8,94.2,14.1,93.8,10.9,89.8Z" style="fill:#fff;stroke:#1a1715;stroke-miterlimit:10;stroke-width:0.25px"/><path class="coronaLabialIncisalDistal" d="M18,70v4.6h2.9c0-2.3-.7-3.8-2.4-4.3A2.19,2.19,0,0,0,18,70Z" style="fill:#3535ed"/><path class="coronaLabialIncisalMiddle" d="M11.2,68.1v6.5H18V70A12,12,0,0,0,11.2,68.1Z" style="fill:#3535ed"/><path class="coronaLabialIncisionMesial" d="M7.9,72.4c.1.8.1,1.5.2,2.3h3.1V68.2h-.9c-1.9.6-2,.1-2.2,1.8C8,70.8,8,71.6,7.9,72.4Z" style="fill:#3535ed"/><path class="coronaLabialMiddleDistal" d="M20.9,74.7H18V86.6h2.4a.9.9,0,0,0,.1-.5l.4-11v-.4Z" style="fill:#3535ed"/><path class="coronaLabialMiddleMiddle" d="M18,86.5H11.2V74.6H18Z" style="fill:#3535ed"/><path class="coronaLabialMiddleMesial" d="M11.2,74.6h-3q.6,6.15,1.2,11.7v.2h1.8V74.6Z" style="fill:#3535ed"/><path class="coronaLabialCervicalDistal" d="M18,86.5V92a4,4,0,0,0,1-1.2,9.13,9.13,0,0,0,1.4-4.3Z" style="fill:#3535ed"/><path class="coronaLabialCervicalMiddle" d="M11.2,86.5v3.8c2.6,3,4.9,3.5,6.8,1.7V86.5Z" style="fill:#3535ed"/><path class="coronaLabialCervicalMesial" d="M10.8,89.8c.1.2.3.3.4.5V86.5H9.4A7.05,7.05,0,0,0,10.8,89.8Z" style="fill:#3535ed"/><path class="veneer" d="M17.3,75.6c2,2.3,2,2.6.3,5.1l-1.1,1.7,1.6-1.3c2.3-2,2.6-2,5.1-.3l1.7,1.1-1.3-1.6c-1.9-2.3-1.9-2.6-.2-5.1l1.1-1.7-1.6,1.3c-2.3,1.9-2.6,1.9-5.1.2l-1.7-1.1ZM7.9,79.9C9,81.3,9,81.5,8,83L6.9,84.7l1.6-1.3c1.4-1.1,1.6-1.1,3.1-.1l1.7,1.1L12,82.8c-1.1-1.4-1.1-1.5-.1-3L13,78.1l-1.6,1.3c-1.4,1.1-1.5,1.1-3,.1L6.7,78.4ZM14.6,85c1.1,1.4,1.1,1.6.1,3.1l-1.1,1.7,1.6-1.3c1.5-1.1,1.6-1.1,3.1-.1L20,89.5l-1.3-1.6c-1.1-1.4-1.1-1.5-.1-3l1.1-1.7-1.6,1.3c-1.5,1.1-1.6,1.1-3.1.1l-1.7-1.1ZM14,66.2c1.1,1.4,1.1,1.6.1,3.1L13,71l1.6-1.3c1.4-1.1,1.6-1.1,3.1-.1l1.4.9-1-1.3C17,67.8,17,67.6,18,66.1l1.1-1.6-1.6,1.3c-1.4,1.1-1.6,1.1-3.1.1l-1.7-1.1Zm-8.1-.4C7,67.2,7,67.4,6,68.9L4.9,70.6l1.6-1.3c1.5-1.1,1.6-1.1,3.1-.1l1.7,1.1L10,68.7c-1.1-1.4-1.1-1.5-.1-3L11,64,9.4,65.3c-1.4,1.1-1.5,1.1-3,.1L4.7,64.3Z" style="fill:#3535ed"/><path class="coronaTop" d="M10.3,51.1,4.6,56.3a13.56,13.56,0,0,0,19.1.8l-5.2-5.7A5.92,5.92,0,0,1,10.3,51.1Zm.3-8.3L5.4,37.1h0a13.56,13.56,0,0,0-.8,19.1L10.3,51A5.83,5.83,0,0,1,10.6,42.8Zm8.3.3,5.7-5.2h0a13.56,13.56,0,0,0-19.1-.8l5.2,5.7A5.92,5.92,0,0,1,18.9,43.1Zm4.9,14A13.56,13.56,0,0,0,24.6,38l-5.7,5.2a5.83,5.83,0,0,1-.4,8.2Zm-3.3-10a5.8,5.8,0,1,1-5.8-5.8A5.8,5.8,0,0,1,20.5,47.1Z" style="fill:#fff;stroke:#000;stroke-miterlimit:10"/><path class="coronaTopBuccal" d="M10.3,51.1,4.6,56.3a13.56,13.56,0,0,0,19.1.8l-5.2-5.7A5.92,5.92,0,0,1,10.3,51.1Z" style="fill:#3535ed"/><path class="coronaTopMedial" d="M10.6,42.8,5.4,37.1h0a13.56,13.56,0,0,0-.8,19.1L10.3,51A5.83,5.83,0,0,1,10.6,42.8Z" style="fill:#3535ed"/><path class="coronaTopLingual" d="M18.9,43.1l5.7-5.2h0a13.56,13.56,0,0,0-19.1-.8l5.2,5.7A5.92,5.92,0,0,1,18.9,43.1Z" style="fill:#3535ed"/><path class="coronaTopDistal" d="M23.8,57.1A13.56,13.56,0,0,0,24.6,38l-5.7,5.2a5.83,5.83,0,0,1-.4,8.2Z" style="fill:#3535ed"/><path class="coronaTopOclusial" d="M20.5,47.2a5.8,5.8,0,1,1-5.8-5.8A5.8,5.8,0,0,1,20.5,47.2Z" style="fill:#3535ed"/><path class="silant" d="M22,52.5a16.09,16.09,0,0,1-5.9,1.3c-3.3,0-4.8-1.2-4.8-2.7s1.2-2.4,4.5-3.3c4.4-1.1,6.5-2.9,6.5-5.1,0-2.9-3.1-5.3-8.4-5.3a15.66,15.66,0,0,0-6,1.1L9,40.9a13.11,13.11,0,0,1,5-1c2.6,0,4.1,1.2,4.1,2.5,0,1.5-1.5,2.2-4.7,3.1C9.2,46.7,7,48.2,7,50.9c0,3.2,3.4,5.4,9.2,5.4a19,19,0,0,0,6.9-1.2Z" style="fill:#3535ed"/><path class="crown" d="M10.3,51.1,4.6,56.3a13.56,13.56,0,0,0,19.1.8l-5.2-5.7A5.92,5.92,0,0,1,10.3,51.1Zm.3-8.3L5.4,37.1h0a13.56,13.56,0,0,0-.8,19.1L10.3,51A5.83,5.83,0,0,1,10.6,42.8Zm8.3.3,5.7-5.2h0a13.56,13.56,0,0,0-19.1-.8l5.2,5.7A5.92,5.92,0,0,1,18.9,43.1Zm4.9,14A13.56,13.56,0,0,0,24.6,38l-5.7,5.2a5.83,5.83,0,0,1-.4,8.2Zm-3.3-10a5.8,5.8,0,1,1-5.8-5.8A5.8,5.8,0,0,1,20.5,47.1Zm1-35.3c.7,5.3,1.6,10.9,1,14.3a3.4,3.4,0,0,1-3.1,2.7l-9.7.6c-2-.5-2-.5-2.2-3.5l.7-10.8a13.86,13.86,0,0,1,4.4-9.2c2.1-1.8,4.2-2.4,6.5.2A11.26,11.26,0,0,1,21.5,11.8Zm-10.6,78a6.49,6.49,0,0,1-1.5-3.5c-.5-4.3-1-9-1.4-14a19.27,19.27,0,0,1,.1-2.4c.2-1.6.3-1.2,2.2-1.8,2.7-.1,6.2.5,8.2,2.2,1.9.5,2.6,2.2,2.4,4.7l-.4,11A9.13,9.13,0,0,1,19,90.9C16.8,94.2,14.1,93.8,10.9,89.8Z" style="fill:#fff;stroke:#000;stroke-miterlimit:10"/><path class="braces" d="M16.4,76.8h0v2.7a4.25,4.25,0,0,0-1.1-.2H14.1a3.55,3.55,0,0,0-1,.2V76.8h0a3.55,3.55,0,0,0,1,.2h1.2a2,2,0,0,0,1.1-.2m-4.6-3.9c-.4,0-.7.4-.8.8v3.8H.1v1.3H10.9v3.8a.77.77,0,0,0,.7.8h1.1a.76.76,0,0,0,.6-.8v-.5a.77.77,0,0,1,.7-.8h1.2c.3,0,.6.4.6.8v.5c-.1.4.2.7.6.8h1.1c.3,0,.6-.4.6-.8V78.8H29V77.5H18.1V73.7a.64.64,0,0,0-.6-.8H16.4a.76.76,0,0,0-.6.8v.5a.64.64,0,0,1-.6.8H14.1c-.3,0-.6-.4-.6-.8v-.5c.1-.4-.2-.7-.6-.8Z"/><path class="gum" d="M29.3,88.4l-8.1.1c-1.3.7-2.1,6.2-5.8,6.2-5.1-.2-5.8-6-7.2-7.4a66.33,66.33,0,0,1-7.9.2" style="fill:none;stroke:#ffb900;stroke-linejoin:round;stroke-width:3px"/><path class="paradontit1" d="M29.3,88.5c-9.7,0-8.2,9.3-15,9.3C9,97.7,5.7,87.5.3,87.5" style="fill:none;stroke:#ff822e;stroke-linejoin:round;stroke-width:3px"/><path class="paradontit2" d="M29.3,88.4c-1.8,0-5.5-1.3-7.8,4.6-2.7,6.7-3.6,7.8-7.7,7.6S6.6,96.9,5,90.6a3.89,3.89,0,0,0-3.5-3.1H.3" style="fill:none;stroke:#f9610d;stroke-linejoin:round;stroke-width:3px"/><path class="paradontit3" d="M.3,87.5c4.6,0,5.5,1,6,2.9,1.6,6.3,1.5,13,7.2,14S19,99,20.2,92.6c.9-4.2,6.8-4.2,9.1-4.2" style="fill:none;stroke:#f9610d;stroke-linejoin:round;stroke-width:3px"/><path class="paradontit4" d="M29.4,88.5c-2.3,0-7,.1-7.3,2-1.3,8.8-.9,18.9-7.4,18.9s-5.9-9.1-7.2-17.9C6.5,87.6.3,87.6.3,87.6" style="fill:none;stroke:#f75403;stroke-linejoin:round;stroke-width:3px"/><path class="periodontit" d="M21.9,131.8a4.5,4.5,0,1,1-4.5-4.5A4.48,4.48,0,0,1,21.9,131.8Z" style="fill:#3535ed"/></g></g></g></svg>