<svg xmlns="http://www.w3.org/2000/svg" viewBox="0 0 28.75 143.6"><title>72tooth</title><g class="Слой_2" data-name="Слой 2"><g class="Слой_1-2" data-name="Слой 1"><g class="_72" data-name="72"><path class="background" d="M28.7,0V143.6H.2V82.4h0V0Z" style="fill:#9fdaff"/><path class="bone" d="M28.7,88.4v55.1H.2V120h0V88.4Z" style="fill:#de82a7"/><path class="bridge" d="M.2,70.9H28.7v4H.2Zm0-46H28.7v-4H.2Zm0,25H28.7v-4H.2Z" style="fill:#3535ed"/><path class="root" d="M8.5,88.8c.8,14,2.3,26.3,5,36a8.51,8.51,0,0,0,2.9,4.6c2,1.5,2.9.3,2.5-4.3a145.92,145.92,0,0,1,1.3-34.6" style="fill:#f0e7be;stroke:#1a1715;stroke-miterlimit:10"/><path class="rootCanal" d="M16.9,129.7c-2.7-3.3-6.1-39.2-6.2-39.5,0,0,2.2-2.5,4.2-2.5a2.71,2.71,0,0,1,2.4,1.5,97,97,0,0,0-.4,37.3c.3,1.7.6,3.2.4,3.4C17.3,129.8,17.2,129.8,16.9,129.7ZM15,87.7a2.81,2.81,0,0,1,2.3,1.5,97,97,0,0,0-.4,37.3c.2,1.5.4,2.7.4,3.2-.1,0-.1-.1-.2-.2-2.6-3.1-5.9-37.2-6.1-39.4.3-.5,2.2-2.4,4-2.4h0m0-.2c-2.2,0-4.3,2.5-4.3,2.5s3.4,36.3,6.2,39.6c.2.3.4.4.5.4,1.2,0-4.9-17.3.1-40.8A2.75,2.75,0,0,0,15,87.5Z" style="fill:none"/><path class="implant" d="M22.9,123.2l-14,2a1.39,1.39,0,0,0,.7.8,15.23,15.23,0,0,0,12.2.1,1.9,1.9,0,0,0,1-1.6Zm0-1.7v-2.6L8.5,121.1l.1,2.4,14.3-2Zm.2-6.3L8.4,117.4l.1,2.4L23,117.6Zm.2-4.2-15,2.2.1,2.5,14.8-2.2Zm.1-1.5V107L8.2,109.3l.1,2.4,15.1-2.2Zm.3-6.6L8.1,105.2l.1,2.5,15.3-2.3Zm0-5.1L7.9,100.1l.1,2.5,15.7-2.3Zm.1-.6-16-.1.1,2.6,15.9-2.3Zm1.5-4.7h-.4L6.8,92.4H6.4v1.9a1.07,1.07,0,0,0,.2.6.91.91,0,0,0,.7.3H8.4l15,.1h1.1a.91.91,0,0,0,.7-.3,1.07,1.07,0,0,0,.2-.6Zm.9-4h0a1.08,1.08,0,0,0-1-1L7.1,87.4h0a.94.94,0,0,0-1,1v1.2a1.08,1.08,0,0,0,1,1l18.1.1a.6.6,0,0,0,.4-.1,1.49,1.49,0,0,0,.4-.9Z" style="fill:#3535ed"/><path class="rootMusk" d="M8.5,88.8c.8,14,2.3,26.3,5,36a8.51,8.51,0,0,0,2.9,4.6c2,1.5,2.9.3,2.5-4.3a145.92,145.92,0,0,1,1.3-34.6" style="fill:#f0e7be;stroke:#1a1715;stroke-miterlimit:10"/><path class="coronaLingual" d="M23.4,21.5c0,4.8-.4,7.2-3.2,7.3l-11.5.4c-1.4-.6-1.7-2.1-1.3-4.1.7-4.9,1.5-9.6,2.5-14a9.66,9.66,0,0,1,3.4-5.6c2.8-2.2,5.5-1.4,8,3.2A29.76,29.76,0,0,1,23.4,21.5Z" style="fill:#fff;stroke:#1a1715;stroke-miterlimit:10;stroke-width:0.25px"/><path class="coronaLingualIncisalDistal" d="M19.9,24.5v4.4h.4c2.1-.1,2.9-1.5,3.1-4.4Z" style="fill:#3535ed"/><path class="coronaLingualIncisalMiddle" d="M12,29.2l7.9-.3V24.5H12Z" style="fill:#3535ed"/><path class="coronaLingualIncisionMesial" d="M8.7,29.3l3.3-.1V24.5H7.5c0,.3-.1.5-.1.7C7,27.2,7.3,28.7,8.7,29.3Z" style="fill:#3535ed"/><path class="coronaLingualMiddleDistal" d="M22.6,12.9H19.8V24.5h3.6a25.32,25.32,0,0,0,.1-2.9,31.39,31.39,0,0,0-.9-8.7Z" style="fill:#3535ed"/><path class="coronaLingualMiddleMiddle" d="M19.9,24.5H12.1V12.9h7.8Z" style="fill:#3535ed"/><path class="coronaLingualMiddleMesial" d="M7.5,24.5H12V12.9H9.6C8.8,16.6,8.1,20.5,7.5,24.5Z" style="fill:#3535ed"/><path class="coronaLingualCervicalDistal" d="M19.8,6.4v6.5h2.8c-.4-1.4-.8-2.8-1.3-4.2A9.13,9.13,0,0,0,19.8,6.4Z" style="fill:#3535ed"/><path class="coronaLingualCervicalMiddle" d="M12,12.9h7.8V6.4c-2.1-2.5-4.3-2.7-6.5-.9A8.64,8.64,0,0,0,12,6.9v6Z" style="fill:#3535ed"/><path class="coronaLingualCervicalMesial" d="M9.6,12.9H12V6.8a10,10,0,0,0-2,4.3C9.9,11.7,9.7,12.3,9.6,12.9Z" style="fill:#3535ed"/><path class="coronaLabial" d="M21.2,87.5a6.3,6.3,0,0,1-4.8,5.8c-2.2.5-4.4-.3-6.6-2.5a6.53,6.53,0,0,1-1.9-4.1c-1.3-4-1.6-8.9-1.4-14.5-.8-3.1.3-4,2.5-3.7l8,.5a4.87,4.87,0,0,1,3.9,2.4,11.89,11.89,0,0,1,1.3,4.5Z" style="fill:#fff;stroke:#1a1715;stroke-miterlimit:10;stroke-width:0.25px"/><path class="coronaLabialIncisalDistal" d="M17.4,69v5.6H22a10.07,10.07,0,0,0-1.1-3.2A5,5,0,0,0,17.4,69Z" style="fill:#3535ed"/><path class="coronaLabialIncisalMiddle" d="M10.6,68.6v6h6.8V69H17Z" style="fill:#3535ed"/><path class="coronaLabialIncisionMesial" d="M6.5,74.6h4.1v-6L9,68.5c-2.2-.3-3.3.6-2.5,3.7Z" style="fill:#3535ed"/><path class="coronaLabialMiddleDistal" d="M17.4,74.6V86.5h3.9l.9-10.6c-.1-.4-.1-.9-.2-1.3Z" style="fill:#3535ed"/><path class="coronaLabialMiddleMiddle" d="M17.4,86.5H10.6V74.6h6.8Z" style="fill:#3535ed"/><path class="coronaLabialMiddleMesial" d="M7.8,86.5h2.7V74.6H6.4A41.79,41.79,0,0,0,7.8,86.5Z" style="fill:#3535ed"/><path class="coronaLabialCervicalDistal" d="M21.3,86.5v.1H17.4V93a6.62,6.62,0,0,0,3.8-5.5l.1-1Z" style="fill:#3535ed"/><path class="coronaLabialCervicalMiddle" d="M17.4,86.4H10.6v5a6.76,6.76,0,0,0,5.8,1.8c.4-.1.7-.2,1-.3V86.4Z" style="fill:#3535ed"/><path class="coronaLabialCervicalMesial" d="M10.6,86.5l-2.7.1v.1a6.53,6.53,0,0,0,1.9,4.1c.3.2.5.5.8.7v-5Z" style="fill:#3535ed"/><path class="veneer" d="M17.3,74.7c1.9,2.2,1.9,2.4-.2,4.8L15.8,81l1.8-1.2c2.6-1.8,3-1.8,5.5-.3l1.7,1.1-1.3-1.4c-1.9-2.2-1.9-2.4.2-4.8l1.4-1.6L23.3,74c-2.6,1.8-3,1.8-5.5.3l-1.7-1.1ZM6.7,79c1.1,1.4,1,1.5-.2,2.9L5.1,83.5l1.8-1.2c1.7-1.1,1.9-1.1,3.4-.2L12,83.2l-1.3-1.4c-1.1-1.4-1-1.5.2-2.9l1.4-1.6-1.8,1.2c-1.7,1.1-1.9,1.1-3.4.2L5.4,77.6Zm6.5,4.6c1.1,1.5,1,1.6-.2,3l-1.4,1.6L13.4,87c1.7-1.1,1.9-1.1,3.4-.2l1.7,1.1-1.3-1.4c-1.1-1.4-1-1.5.2-2.9L18.8,82,17,83.2c-1.7,1.1-1.9,1.1-3.4.2l-1.7-1.1Zm1.3-17.7c1.1,1.4,1,1.6-.2,3l-1.4,1.6,1.8-1.2c1.7-1.1,1.9-1.1,3.4-.2l1.7,1.1-1.3-1.4c-1.1-1.4-1-1.5.2-2.9l1.4-1.5-1.8,1.2c-1.7,1.1-1.9,1.1-3.4.2l-1.7-1.1Zm-8.6-.2c1.1,1.5,1,1.6-.2,3L4.3,70.3l1.8-1.2C7.9,67.9,8,68,9.5,68.9L11.2,70,9.9,68.6c-1.1-1.4-1-1.5.2-2.9l1.4-1.6L9.7,65.3c-1.8,1.2-1.9,1.1-3.4.2L4.6,64.4Z" style="fill:#3535ed"/><path class="coronaTop" d="M10.2,51.2,4.5,56.4h0a13.56,13.56,0,0,0,19.1.8l-5.2-5.7A5.92,5.92,0,0,1,10.2,51.2Zm0-.1a6,6,0,0,1,.3-8.3L5.3,37.2a13.56,13.56,0,0,0-.8,19.1l5.7-5.2Zm8.5-7.9L24.4,38a13.56,13.56,0,0,0-19.1-.8l5.2,5.7A5.83,5.83,0,0,1,18.7,43.2Zm5,14a13.56,13.56,0,0,0,.8-19.1l-5.7,5.2a5.83,5.83,0,0,1-.4,8.2Zm-6.4-5a5.78,5.78,0,1,1,2.1-7.9A5.85,5.85,0,0,1,17.3,52.2Z" style="fill:#fff;stroke:#000;stroke-miterlimit:10"/><path class="coronaTopBuccal" d="M10.2,51.2,4.5,56.4h0a13.56,13.56,0,0,0,19.1.8l-5.2-5.7A5.92,5.92,0,0,1,10.2,51.2Z" style="fill:#3535ed"/><path class="coronaTopMedial" d="M10.2,51.1a6,6,0,0,1,.3-8.3L5.3,37.2a13.56,13.56,0,0,0-.8,19.1l5.7-5.2Z" style="fill:#3535ed"/><path class="coronaTopLingual" d="M18.7,43.2,24.4,38a13.56,13.56,0,0,0-19.1-.8l5.2,5.7A5.83,5.83,0,0,1,18.7,43.2Z" style="fill:#3535ed"/><path class="coronaTopDistal" d="M23.7,57.2a13.56,13.56,0,0,0,.8-19.1l-5.7,5.2a5.83,5.83,0,0,1-.4,8.2Z" style="fill:#3535ed"/><path class="coronaTopOclusial" d="M17.3,52.2a5.78,5.78,0,1,1,2.1-7.9A5.85,5.85,0,0,1,17.3,52.2Z" style="fill:#3535ed"/><path class="silant" d="M21.3,52.7A16.09,16.09,0,0,1,15.4,54c-3.3,0-4.8-1.2-4.8-2.7s1.2-2.4,4.5-3.3c4.4-1.1,6.5-2.9,6.5-5.1,0-2.9-3.1-5.3-8.4-5.3a15.66,15.66,0,0,0-6,1.1l1.1,2.4a13.11,13.11,0,0,1,5-1c2.6,0,4.1,1.2,4.1,2.5,0,1.5-1.5,2.2-4.7,3.1-4.2,1.2-6.4,2.7-6.4,5.4,0,3.2,3.4,5.4,9.2,5.4a19,19,0,0,0,6.9-1.2Z" style="fill:#3535ed"/><path class="crown" d="M10.2,51.2,4.5,56.4h0a13.56,13.56,0,0,0,19.1.8l-5.2-5.7A5.92,5.92,0,0,1,10.2,51.2Zm0-.1a6,6,0,0,1,.3-8.3L5.3,37.2a13.56,13.56,0,0,0-.8,19.1l5.7-5.2Zm8.5-7.9L24.4,38a13.56,13.56,0,0,0-19.1-.8l5.2,5.7A5.83,5.83,0,0,1,18.7,43.2Zm5,14a13.56,13.56,0,0,0,.8-19.1l-5.7,5.2a5.83,5.83,0,0,1-.4,8.2Zm-6.4-5a5.78,5.78,0,1,1,2.1-7.9A5.85,5.85,0,0,1,17.3,52.2Zm6.1-30.7c0,4.8-.4,7.2-3.2,7.3l-11.5.4c-1.4-.6-1.7-2.1-1.3-4.1.7-4.9,1.5-9.6,2.5-14a9.66,9.66,0,0,1,3.4-5.6c2.8-2.2,5.5-1.4,8,3.2A29.76,29.76,0,0,1,23.4,21.5Zm-2.2,66a6.3,6.3,0,0,1-4.8,5.8c-2.2.5-4.4-.3-6.6-2.5a6.53,6.53,0,0,1-1.9-4.1c-1.3-4-1.6-8.9-1.4-14.5-.8-3.1.3-4,2.5-3.7l8,.5a4.87,4.87,0,0,1,3.9,2.4,11.89,11.89,0,0,1,1.3,4.5Z" style="fill:#fff;stroke:#000;stroke-miterlimit:10"/><path class="braces" d="M16.3,76.8h0v2.7a4.25,4.25,0,0,0-1.1-.2H14a3.55,3.55,0,0,0-1,.2V76.8h0a3.55,3.55,0,0,0,1,.2h1.2a2,2,0,0,0,1.1-.2m-4.6-3.9c-.3,0-.6.4-.8.8v3.8H0v1.3H10.8v3.8a.77.77,0,0,0,.7.8h1.1a.76.76,0,0,0,.6-.8v-.5a.77.77,0,0,1,.7-.8h1.2c.3,0,.6.4.6.8v.5c-.1.4.2.7.6.8h1.1c.3,0,.6-.4.6-.8V78.8H28.4V77.5H18V73.7a.64.64,0,0,0-.6-.8H16.3a.76.76,0,0,0-.6.8v.5a.64.64,0,0,1-.6.8H14c-.3,0-.6-.4-.6-.8v-.5c.1-.4-.2-.7-.6-.8Z"/><path class="gum" d="M28.7,88.5c-9.7.3-7.1,7-13.8,6.8-6.3-.2-4.2-6.8-14.7-6.8" style="fill:none;stroke:#ffb900;stroke-linejoin:round;stroke-width:3px"/><path class="paradontit1" d="M28.7,88.5H26.9a4.5,4.5,0,0,0-4.1,2.7c-1.3,2.8-5,7.2-7.9,7.2-3.2,0-5.1-5-6.9-7.8a4.53,4.53,0,0,0-3.8-2.1H.2" style="fill:none;stroke:#ff822e;stroke-linejoin:round;stroke-width:3px"/><path class="paradontit2" d="M.2,88.4c.2,0,6.1.2,6.8,2.5,2.1,3.8.9,12.2,7.9,12.2,3.9,0,6.6-8.4,8.8-11.7,1.6-2.3,3-2.9,5-2.9" style="fill:none;stroke:#f9610d;stroke-linejoin:round;stroke-width:3px"/><path class="paradontit3" d="M28.7,88.5s-3.5,0-4.4,1.7c-2.4,4.5-3.5,17.5-8.4,16.8-7-1-6-10.3-8.1-14C5.5,88.5.2,88.5.2,88.5" style="fill:none;stroke:#f9610d;stroke-linejoin:round;stroke-width:3px"/><path class="paradontit4" d="M28.7,88.5a4.38,4.38,0,0,0-4.2,3.6c-1.2,6-1.4,19.6-9.4,19.6S8.5,97.1,6.3,91.4a4.42,4.42,0,0,0-4.2-2.9H.2" style="fill:none;stroke:#f75403;stroke-linejoin:round;stroke-width:3px"/><path class="periodontit" d="M20.6,132.5a4.5,4.5,0,1,1-4.5-4.5A4.48,4.48,0,0,1,20.6,132.5Z" style="fill:#3535ed"/></g></g></g></svg>