<svg xmlns="http://www.w3.org/2000/svg" viewBox="0 0 28.55 143.6"><title>72tooth</title><g class="Слой_2" data-name="Слой 2"><g class="Слой_1-2" data-name="Слой 1"><g class="_72" data-name="72"><path class="background" d="M28.5,0V143.6H0V82.4H0V0Z" style="fill:#9fdaff"/><path class="bone" d="M28.5,88.5v55.1H0V120.1H0V88.5Z" style="fill:#de82a7"/><path class="bridge" d="M0,70.9H28.5v4H0Zm0-46H28.5v-4H0Zm0,25H28.5v-4H0Z" style="fill:#3535ed"/><path class="root" d="M8.3,88.8c.8,14,2.3,26.3,5,36a8.51,8.51,0,0,0,2.9,4.6c2,1.5,2.9.3,2.5-4.3A145.92,145.92,0,0,1,20,90.5" style="fill:#f0e7be;stroke:#1a1715;stroke-miterlimit:10"/><path class="rootCanal" d="M16.7,129.7c-2.7-3.3-6.1-39.2-6.2-39.5,0,0,2.2-2.5,4.2-2.5a2.71,2.71,0,0,1,2.4,1.5,97,97,0,0,0-.4,37.3c.3,1.7.6,3.2.4,3.4C17.1,129.8,17,129.8,16.7,129.7Zm-1.9-42a2.81,2.81,0,0,1,2.3,1.5,97,97,0,0,0-.4,37.3c.2,1.5.4,2.7.4,3.2-.1,0-.1-.1-.2-.2-2.6-3.1-5.9-37.2-6.1-39.4.3-.5,2.2-2.4,4-2.4h0m0-.2c-2.2,0-4.3,2.5-4.3,2.5s3.4,36.3,6.2,39.6c.2.3.4.4.5.4,1.2,0-4.9-17.3.1-40.8a2.75,2.75,0,0,0-2.5-1.7Z" style="fill:none"/><path class="implant" d="M22.7,123.2l-14,2a1.39,1.39,0,0,0,.7.8,15.23,15.23,0,0,0,12.2.1,1.9,1.9,0,0,0,1-1.6Zm0-1.7v-2.6L8.3,121.1l.1,2.4,14.3-2Zm.2-6.3L8.2,117.4l.1,2.4,14.5-2.2Zm.2-4.2-15,2.2.1,2.5L23,113.5Zm.1-1.5V107L8,109.3l.1,2.4,15.1-2.2Zm.3-6.6L7.9,105.2l.1,2.5,15.3-2.3Zm0-5.1L7.7,100.1l.1,2.5,15.7-2.3Zm.1-.6-16-.1.1,2.6,15.9-2.3Zm1.5-4.7h-.4L6.6,92.4H6.2v1.9a1.07,1.07,0,0,0,.2.6.91.91,0,0,0,.7.3H8.2l15,.1h1.1A.91.91,0,0,0,25,95a1.07,1.07,0,0,0,.2-.6Zm.9-4h0a1.08,1.08,0,0,0-1-1L6.9,87.4h0a.94.94,0,0,0-1,1v1.2a1.08,1.08,0,0,0,1,1l18.1.1a.6.6,0,0,0,.4-.1,1.49,1.49,0,0,0,.4-.9Z" style="fill:#3535ed"/><path class="rootMask" d="M8.3,88.8c.8,14,2.3,26.3,5,36a8.51,8.51,0,0,0,2.9,4.6c2,1.5,2.9.3,2.5-4.3A145.92,145.92,0,0,1,20,90.5" style="fill:#f0e7be;stroke:#1a1715;stroke-miterlimit:10"/><path class="coronaLingual" d="M23.2,21.5c0,4.8-.4,7.2-3.2,7.3l-11.5.4c-1.4-.6-1.7-2.1-1.3-4.1.7-4.9,1.5-9.6,2.5-14a9.66,9.66,0,0,1,3.4-5.6c2.8-2.2,5.5-1.4,8,3.2A29.76,29.76,0,0,1,23.2,21.5Z" style="fill:#fff;stroke:#1a1715;stroke-miterlimit:10;stroke-width:0.25px"/><path class="coronaLingualIncisionDistal" d="M19.7,24.5v4.4h.4c2.1-.1,2.9-1.5,3.1-4.4Z" style="fill:#3535ed"/><path class="coronaLingualIncisalMiddle" d="M11.8,29.2l7.9-.3V24.5H11.8Z" style="fill:#3535ed"/><path class="coronaLingualIncisionMesial" d="M8.5,29.3l3.3-.1V24.5H7.3c0,.3-.1.5-.1.7C6.8,27.2,7.1,28.7,8.5,29.3Z" style="fill:#3535ed"/><path class="coronaLingualMiddleDistal" d="M22.4,12.9H19.6V24.5h3.6a25.32,25.32,0,0,0,.1-2.9,31.39,31.39,0,0,0-.9-8.7Z" style="fill:#3535ed"/><path class="coronaLingualMiddleMiddle" d="M19.7,24.5H11.9V12.9h7.8Z" style="fill:#3535ed"/><path class="coronaLingualMiddleMesial" d="M7.3,24.5h4.5V12.9H9.4C8.6,16.6,7.9,20.5,7.3,24.5Z" style="fill:#3535ed"/><path class="coronaLingualCervicalDistal" d="M19.6,6.4v6.5h2.8c-.4-1.4-.8-2.8-1.3-4.2A9.13,9.13,0,0,0,19.6,6.4Z" style="fill:#3535ed"/><path class="coronaLingualCervicalMiddle" d="M11.8,12.9h7.8V6.4c-2.1-2.5-4.3-2.7-6.5-.9a8.64,8.64,0,0,0-1.3,1.4Z" style="fill:#3535ed"/><path class="coronaLingualCervicalMesial" d="M9.4,12.9h2.4V6.8a10,10,0,0,0-2,4.3C9.7,11.7,9.5,12.3,9.4,12.9Z" style="fill:#3535ed"/><path class="coronaLabial" d="M21,87.5a6.3,6.3,0,0,1-4.8,5.8c-2.2.5-4.4-.3-6.6-2.5a6.53,6.53,0,0,1-1.9-4.1c-1.3-4-1.6-8.9-1.4-14.5-.8-3.1.3-4,2.5-3.7l8,.5a4.87,4.87,0,0,1,3.9,2.4A11.89,11.89,0,0,1,22,75.9Z" style="fill:#fff;stroke:#1a1715;stroke-miterlimit:10;stroke-width:0.25px"/><path class="coronaLabialIncisalDistal" d="M17.2,69v5.6h4.6a10.07,10.07,0,0,0-1.1-3.2A5,5,0,0,0,17.2,69Z" style="fill:#3535ed"/><path class="coronaLabialIncisalMiddle" d="M10.4,68.6v6h6.8V69h-.4Z" style="fill:#3535ed"/><path class="coronaLabialIncisionMesial" d="M6.3,74.6h4.1v-6l-1.6-.1c-2.2-.3-3.3.6-2.5,3.7Z" style="fill:#3535ed"/><path class="coronaLabialMiddleDistal" d="M17.2,74.6V86.5h3.9L22,75.9c-.1-.4-.1-.9-.2-1.3Z" style="fill:#3535ed"/><path class="coronaLabialMiddleMiddle" d="M17.2,86.5H10.4V74.6h6.8Z" style="fill:#3535ed"/><path class="coronaLabialMiddleMesial" d="M7.6,86.5h2.7V74.6H6.2A41.79,41.79,0,0,0,7.6,86.5Z" style="fill:#3535ed"/><path class="coronaLabialCervicalDistal" d="M21.1,86.5v.1H17.2V93A6.62,6.62,0,0,0,21,87.5l.1-1Z" style="fill:#3535ed"/><path class="coronaLabialCervicalMiddle" d="M17.2,86.4H10.4v5a6.76,6.76,0,0,0,5.8,1.8c.4-.1.7-.2,1-.3V86.4Z" style="fill:#3535ed"/><path class="coronaLabialCervicalMesial" d="M10.4,86.5l-2.7.1v.1a6.53,6.53,0,0,0,1.9,4.1c.3.2.5.5.8.7v-5Z" style="fill:#3535ed"/><path class="veneer" d="M17.1,74.7c1.9,2.2,1.9,2.4-.2,4.8L15.6,81l1.8-1.2c2.6-1.8,3-1.8,5.5-.3l1.7,1.1-1.3-1.4c-1.9-2.2-1.9-2.4.2-4.8l1.4-1.6L23.1,74c-2.6,1.8-3,1.8-5.5.3l-1.7-1.1ZM6.5,79c1.1,1.4,1,1.5-.2,2.9L4.9,83.5l1.8-1.2c1.7-1.1,1.9-1.1,3.4-.2l1.7,1.1-1.3-1.4c-1.1-1.4-1-1.5.2-2.9l1.4-1.6-1.8,1.2c-1.7,1.1-1.9,1.1-3.4.2L5.2,77.6ZM13,83.6c1.1,1.5,1,1.6-.2,3l-1.4,1.6L13.2,87c1.7-1.1,1.9-1.1,3.4-.2l1.7,1.1L17,86.5c-1.1-1.4-1-1.5.2-2.9L18.6,82l-1.8,1.2c-1.7,1.1-1.9,1.1-3.4.2l-1.7-1.1Zm1.3-17.7c1.1,1.4,1,1.6-.2,3l-1.4,1.6,1.8-1.2c1.7-1.1,1.9-1.1,3.4-.2l1.7,1.1-1.3-1.4c-1.1-1.4-1-1.5.2-2.9l1.4-1.5-1.8,1.2c-1.7,1.1-1.9,1.1-3.4.2L13,64.7Zm-8.6-.2c1.1,1.5,1,1.6-.2,3L4.1,70.3l1.8-1.2c1.8-1.2,1.9-1.1,3.4-.2L11,70,9.7,68.6c-1.1-1.4-1-1.5.2-2.9l1.4-1.6L9.5,65.3c-1.8,1.2-1.9,1.1-3.4.2L4.4,64.4Z" style="fill:#3535ed"/><path class="coronaTop" d="M10,51.2,4.3,56.4h0a13.56,13.56,0,0,0,19.1.8l-5.2-5.7A5.92,5.92,0,0,1,10,51.2Zm0-.1a6,6,0,0,1,.3-8.3L5.1,37.2a13.56,13.56,0,0,0-.8,19.1L10,51.1Zm8.5-7.9L24.2,38a13.56,13.56,0,0,0-19.1-.8l5.2,5.7A5.83,5.83,0,0,1,18.5,43.2Zm5,14a13.56,13.56,0,0,0,.8-19.1l-5.7,5.2a5.83,5.83,0,0,1-.4,8.2Zm-6.4-5a5.78,5.78,0,1,1,2.1-7.9A5.85,5.85,0,0,1,17.1,52.2Z" style="fill:#fff;stroke:#000;stroke-miterlimit:10"/><path class="coronaTopBuccal" d="M10,51.2,4.3,56.4h0a13.56,13.56,0,0,0,19.1.8l-5.2-5.7A5.92,5.92,0,0,1,10,51.2Z" style="fill:#3535ed"/><path class="coronaTopMedial" d="M10,51.1a6,6,0,0,1,.3-8.3L5.1,37.2a13.56,13.56,0,0,0-.8,19.1L10,51.1Z" style="fill:#3535ed"/><path class="coronaTopLingual" d="M18.5,43.2,24.2,38a13.56,13.56,0,0,0-19.1-.8l5.2,5.7A5.83,5.83,0,0,1,18.5,43.2Z" style="fill:#3535ed"/><path class="coronaTopDistal" d="M23.5,57.2a13.56,13.56,0,0,0,.8-19.1l-5.7,5.2a5.83,5.83,0,0,1-.4,8.2Z" style="fill:#3535ed"/><path class="coronaTopOclusial" d="M17.1,52.2a5.78,5.78,0,1,1,2.1-7.9A5.85,5.85,0,0,1,17.1,52.2Z" style="fill:#3535ed"/><path class="silant" d="M21.1,52.7A16.09,16.09,0,0,1,15.2,54c-3.3,0-4.8-1.2-4.8-2.7s1.2-2.4,4.5-3.3c4.4-1.1,6.5-2.9,6.5-5.1,0-2.9-3.1-5.3-8.4-5.3a15.66,15.66,0,0,0-6,1.1l1.1,2.4a13.11,13.11,0,0,1,5-1c2.6,0,4.1,1.2,4.1,2.5,0,1.5-1.5,2.2-4.7,3.1-4.2,1.2-6.4,2.7-6.4,5.4,0,3.2,3.4,5.4,9.2,5.4a19,19,0,0,0,6.9-1.2Z" style="fill:#3535ed"/><path class="crown" d="M10,51.2,4.3,56.4h0a13.56,13.56,0,0,0,19.1.8l-5.2-5.7A5.92,5.92,0,0,1,10,51.2Zm0-.1a6,6,0,0,1,.3-8.3L5.1,37.2a13.56,13.56,0,0,0-.8,19.1L10,51.1Zm8.5-7.9L24.2,38a13.56,13.56,0,0,0-19.1-.8l5.2,5.7A5.83,5.83,0,0,1,18.5,43.2Zm5,14a13.56,13.56,0,0,0,.8-19.1l-5.7,5.2a5.83,5.83,0,0,1-.4,8.2Zm-6.4-5a5.78,5.78,0,1,1,2.1-7.9A5.85,5.85,0,0,1,17.1,52.2Zm6.1-30.7c0,4.8-.4,7.2-3.2,7.3l-11.5.4c-1.4-.6-1.7-2.1-1.3-4.1.7-4.9,1.5-9.6,2.5-14a9.66,9.66,0,0,1,3.4-5.6c2.8-2.2,5.5-1.4,8,3.2A29.76,29.76,0,0,1,23.2,21.5ZM21,87.5a6.3,6.3,0,0,1-4.8,5.8c-2.2.5-4.4-.3-6.6-2.5a6.53,6.53,0,0,1-1.9-4.1c-1.3-4-1.6-8.9-1.4-14.5-.8-3.1.3-4,2.5-3.7l8,.5a4.87,4.87,0,0,1,3.9,2.4A11.89,11.89,0,0,1,22,75.9Z" style="fill:#fff;stroke:#000;stroke-miterlimit:10"/><path class="braces" d="M16.4,76.8h0v2.7a4.25,4.25,0,0,0-1.1-.2H14.1a3.55,3.55,0,0,0-1,.2V76.8h0a3.55,3.55,0,0,0,1,.2h1.2a2,2,0,0,0,1.1-.2m-4.6-3.9c-.3,0-.6.4-.8.8v3.8H0v1.3H10.9v3.8a.77.77,0,0,0,.7.8h1.1a.76.76,0,0,0,.6-.8v-.5a.77.77,0,0,1,.7-.8h1.2c.3,0,.6.4.6.8v.5c-.1.4.2.7.6.8h1.1c.3,0,.6-.4.6-.8V78.8H28.5V77.5H18.1V73.7a.64.64,0,0,0-.6-.8H16.4a.76.76,0,0,0-.6.8v.5a.64.64,0,0,1-.6.8H14.1c-.3,0-.6-.4-.6-.8v-.5c.1-.4-.2-.7-.6-.8Z"/><path class="gum" d="M28.5,88.5c-9.7.3-7.1,7-13.8,6.8-6.3-.2-4.2-6.8-14.7-6.8" style="fill:none;stroke:#ffb900;stroke-linejoin:round;stroke-width:3px"/><path class="paradontit1" d="M28.5,88.5H26.7a4.5,4.5,0,0,0-4.1,2.7c-1.3,2.8-5,7.2-7.9,7.2-3.2,0-5.1-5-6.9-7.8A4.53,4.53,0,0,0,4,88.5H0" style="fill:none;stroke:#ff822e;stroke-linejoin:round;stroke-width:3px"/><path class="paradontit2" d="M0,88.4c.2,0,6.1.2,6.8,2.5,2.1,3.8.9,12.2,7.9,12.2,3.9,0,6.6-8.4,8.8-11.7,1.6-2.3,3-2.9,5-2.9" style="fill:none;stroke:#f9610d;stroke-linejoin:round;stroke-width:3px"/><path class="paradontit3" d="M28.5,88.5s-3.5,0-4.4,1.7c-2.4,4.5-3.5,17.5-8.4,16.8-7-1-6-10.3-8.1-14C5.3,88.5,0,88.5,0,88.5" style="fill:none;stroke:#f9610d;stroke-linejoin:round;stroke-width:3px"/><path class="paradontit4" d="M28.5,88.5a4.38,4.38,0,0,0-4.2,3.6c-1.2,6-1.4,19.6-9.4,19.6S8.3,97.1,6.1,91.4a4.42,4.42,0,0,0-4.2-2.9H0" style="fill:none;stroke:#f75403;stroke-linejoin:round;stroke-width:3px"/><path class="periodontit" d="M20.4,132.5a4.5,4.5,0,1,1-4.5-4.5A4.48,4.48,0,0,1,20.4,132.5Z" style="fill:#3535ed"/></g></g></g></svg>