<svg xmlns="http://www.w3.org/2000/svg" viewBox="0 0 30.2 143.5"><title>73tooth</title><g class="Слой_2" data-name="Слой 2"><g class="Слой_1-2" data-name="Слой 1"><g class="_73" data-name="73"><path class="background" d="M30.2,0V143.5H.2V0Z" style="fill:#9fdaff"/><path class="bone" d="M30.2,88.4v55.1H.2V88.4Z" style="fill:#de82a7"/><path class="bridge" d="M.2,20.9h30v4H.2Zm0,29h30v-4H.2Zm0,25h30v-4H.2Z" style="fill:#3535ed"/><path class="root" d="M9,89.9a195.66,195.66,0,0,0,3.6,34,4.56,4.56,0,0,0,1.7,2.9,1.35,1.35,0,0,0,2.3-.5,5.09,5.09,0,0,0,.5-2.2A239.07,239.07,0,0,1,20,90" style="fill:#f0e7be;stroke:#1a1715;stroke-miterlimit:10"/><path class="rootCanal" d="M14.9,126.4c-1.1-8-2.2-20.3-3.4-37.7a.44.44,0,0,1,.1-.5c.4-.6,1.9-2.3,3.4-2.3a2.33,2.33,0,0,1,1.9,1.4c.1.1.1.2.1.4-1.7,12.7-1.2,27.9-.6,38.4a.78.78,0,0,1-.2.8.72.72,0,0,1-1.3-.5ZM15,86a2.33,2.33,0,0,1,1.9,1.4.37.37,0,0,1,.1.3c-1.7,12.7-1.2,27.9-.6,38.4a.84.84,0,0,1-.2.7.76.76,0,0,1-.5.2c-.3,0-.6-.2-.7-.7-1.1-8-2.2-20.3-3.4-37.7,0-.2,0-.3.1-.4.4-.5,1.9-2.2,3.3-2.2m0-.2c-1.5,0-3,1.6-3.6,2.4a.73.73,0,0,0-.2.6c1.4,19.2,2.5,30.6,3.4,37.7a.89.89,0,0,0,.9.9,1.06,1.06,0,0,0,1-1.2c-.7-12-.9-26.5.6-38.4a.75.75,0,0,0-.1-.5c-.6-1.1-1.3-1.5-2-1.5Z" style="fill:none"/><path class="implant" d="M24.3,123.1l-14,2.1a1.39,1.39,0,0,0,.7.8,15.23,15.23,0,0,0,12.2.1,1.78,1.78,0,0,0,1-1.6Zm0-1.6V119L9.9,121.2l.1,2.4,14.3-2.1Zm.2-6.4L9.8,117.3l.1,2.4,14.5-2.2Zm.2-4-15,2.2.1,2.4,14.8-2.2Zm.1-4.2L9.6,109.2l.1,2.4,15-2.2Zm.3-3.9L9.5,105.3l.1,2.4,15.3-2.3Zm0-5.1L9.3,100.2l.1,2.4,15.7-2.3V97.9Zm.1-.7-16-.1.1,2.6,15.9-2.3Zm1.5-4.6h-.4L8.2,92.5H7.8v1.9A1.07,1.07,0,0,0,8,95a.91.91,0,0,0,.7.3H9.8l15,.1h1.1a.91.91,0,0,0,.7-.3,1.07,1.07,0,0,0,.2-.6Zm1.1-2.9V88.4h0a1.08,1.08,0,0,0-1-1L8.7,87.3h0a.94.94,0,0,0-1,1v1.3a.91.91,0,0,0,.4.8c.1,0,.2.1.4.1l18.1.1a.6.6,0,0,0,.4-.1,1,1,0,0,0,.4-.8Z" style="fill:#3535ed"/><path class="rootMusk" d="M9,89.9a195.66,195.66,0,0,0,3.6,34,4.56,4.56,0,0,0,1.7,2.9,1.35,1.35,0,0,0,2.3-.5,5.09,5.09,0,0,0,.5-2.2A239.07,239.07,0,0,1,20,90" style="fill:#f0e7be;stroke:#1a1715;stroke-miterlimit:10"/><path class="coronaLingual" d="M23.5,8.8C18.8,1.7,13.9.3,8.9,7.2c-3.7,5.7-3.5,11.4,0,17.1,3.8,6.1,8,9.6,13.5,2.6a11.94,11.94,0,0,0,2.1-4.4,25.83,25.83,0,0,0,.5-9.9A11.18,11.18,0,0,0,23.5,8.8Z" style="fill:#fff;stroke:#1a1715;stroke-miterlimit:10;stroke-width:0.25px"/><path class="coronaLingualIncisalDistal" d="M19.2,24.5V30a12.41,12.41,0,0,0,3.2-3,12.75,12.75,0,0,0,1.5-2.5Z" style="fill:#3535ed"/><path class="coronaLingualIncisalMiddle" d="M11,24.5v2.9c2.5,3,5.1,4.5,8.2,2.6V24.5Z" style="fill:#3535ed"/><path class="coronaLingualIncisionMesial" d="M9,24.5a16.39,16.39,0,0,0,2,2.9V24.5Z" style="fill:#3535ed"/><path class="coronaLingualMiddleDistal" d="M19.2,12.9V24.5h4.6a15.87,15.87,0,0,0,.7-2,24.32,24.32,0,0,0,.5-9.6Z" style="fill:#3535ed"/><path class="coronaLingualMiddleMiddle" d="M19.2,24.5H11V12.9h8.2Z" style="fill:#3535ed"/><path class="coronaLingualMiddleMesial" d="M8.9,24.4a.1.1,0,0,1,.1.1h2V12.9H6.5C5.7,16.8,6.6,20.6,8.9,24.4Z" style="fill:#3535ed"/><path class="coronaLingualCervicalDistal" d="M19.2,4.1v8.8H25v-.3a10,10,0,0,0-1.5-3.7A18.69,18.69,0,0,0,19.2,4.1Z" style="fill:#3535ed"/><path class="coronaLingualCervicalMiddle" d="M11,12.9h8.2V4.1c-2.7-1.9-5.4-1.8-8.2.8Z" style="fill:#3535ed"/><path class="coronaLingualCervicalMesial" d="M6.5,12.9H11v-8A17.15,17.15,0,0,0,8.9,7.3,17.87,17.87,0,0,0,6.5,12.9Z" style="fill:#3535ed"/><path class="coronaLabial" d="M23.6,79.8c0,4.5-1,8.2-3.2,10.9-3.7,7-7.5,6.9-11.4.8-2.8-4.2-3.4-9.6-2-16.1,4.6-10.2,9.8-9.4,15.4.1A10.64,10.64,0,0,1,23.6,79.8Z" style="fill:#fff;stroke:#1a1715;stroke-miterlimit:10;stroke-width:0.25px"/><path class="coronaLabialIncisalDistal" d="M17.8,69.7v4.9h4A21.44,21.44,0,0,0,17.8,69.7Z" style="fill:#3535ed"/><path class="coronaLabialIncisalMiddle" d="M10.5,69.8v4.8h7.3V69.7C15.3,67.5,12.8,67.5,10.5,69.8Z" style="fill:#3535ed"/><path class="coronaLabialIncisionMesial" d="M7.3,74.6h3.2V69.8A19.87,19.87,0,0,0,7.3,74.6Z" style="fill:#3535ed"/><path class="coronaLabialMiddleDistal" d="M21.8,74.7h-4V86.6h4.8a20.07,20.07,0,0,0,1-6.7,8.31,8.31,0,0,0-1.2-4.4l-.6-.9v.1Z" style="fill:#3535ed"/><path class="coronaLabialMiddleMiddle" d="M17.8,86.5H10.5V74.6h7.3Z" style="fill:#3535ed"/><path class="coronaLabialMiddleMesial" d="M6.8,86.5h3.7V74.6H7.3a5.94,5.94,0,0,0-.4.8A23.17,23.17,0,0,0,6.8,86.5Z" style="fill:#3535ed"/><path class="coronaLabialCervicalDistal" d="M22.6,86.5H17.8v7.9a16.86,16.86,0,0,0,2.6-3.7,12,12,0,0,0,2.2-4.2Z" style="fill:#3535ed"/><path class="coronaLabialCervicalMiddle" d="M10.5,86.5v7.1c2.5,2.9,4.9,3.2,7.3.8V86.5Z" style="fill:#3535ed"/><path class="coronaLabialCervicalMesial" d="M8.9,91.5c.6.8,1.1,1.5,1.6,2.1V86.5H6.8A14,14,0,0,0,8.9,91.5Z" style="fill:#3535ed"/><path class="veneer" d="M18.4,80.3c1,2.9.8,3.2-1.5,4.9l-1.6,1.2,1.8-.7c2.9-1,3.2-.9,4.9,1.5l1.2,1.6-.7-1.9c-.9-2.9-.8-3.2,1.5-4.9l1.6-1.2-1.8.7c-2.9,1-3.2.9-4.9-1.5l-1.2-1.6Zm-10.3.9c.5,1.7.4,1.8-1,2.9L5.5,85.3l1.8-.7c1.7-.5,1.8-.4,2.9,1l1.2,1.6-.7-1.9c-.5-1.7-.4-1.8,1-2.9l1.6-1.2-1.8.7c-1.7.5-1.8.4-2.9-1L7.4,79.3Zm4.3,7c.5,1.8.4,1.9-1,3L9.8,92.4l1.8-.7c1.7-.5,1.8-.4,2.9,1l1.2,1.6L15,92.4c-.5-1.7-.4-1.8,1-2.9l1.6-1.2-1.8.7c-1.7.5-1.8.4-2.9-1l-1.2-1.6Zm6-17.7c.5,1.8.4,1.9-1,3l-1.6,1.2,1.8-.7c1.7-.5,1.8-.4,2.9,1l1.2,1.6L21,74.7c-.5-1.7-.4-1.8,1-2.9l1.6-1.1-1.8.7c-1.7.5-1.8.4-2.9-1l-1.2-1.6Zm-7.3-3.2c.5,1.8.4,1.9-1,3L8.5,71.5l1.8-.7c1.7-.5,1.8-.4,2.9,1l1.2,1.6-.7-1.9c-.5-1.7-.4-1.8,1-2.9l1.6-1.2-1.8.7c-1.7.5-1.8.4-2.9-1l-1.2-1.6Z" style="fill:#3535ed"/><path class="coronaTop" d="M10.8,51.2,5.1,56.4a13.56,13.56,0,0,0,19.1.8L19,51.5A5.83,5.83,0,0,1,10.8,51.2Zm0,0a5.92,5.92,0,0,1,.3-8.2L5.9,37.3a13.56,13.56,0,0,0-.8,19.1l5.7-5.2Zm8.6-7.9,5.7-5.2h0A13.56,13.56,0,0,0,6,37.3L11.2,43A5.83,5.83,0,0,1,19.4,43.3Zm4.9,13.9a13.56,13.56,0,0,0,.8-19.1l-5.7,5.2a5.83,5.83,0,0,1-.4,8.2Zm-6.2-5a5.78,5.78,0,1,1,2.1-7.9A5.76,5.76,0,0,1,18.1,52.2Z" style="fill:#fff;stroke:#000;stroke-miterlimit:10"/><path class="coronaTopBuccal" d="M10.8,51.2,5.1,56.4a13.56,13.56,0,0,0,19.1.8L19,51.5A5.83,5.83,0,0,1,10.8,51.2Z" style="fill:#3535ed"/><path class="coronaTopMedial" d="M10.8,51.2a5.92,5.92,0,0,1,.3-8.2L5.9,37.3a13.56,13.56,0,0,0-.8,19.1l5.7-5.2Z" style="fill:#3535ed"/><path class="coronaTopLingual" d="M19.4,43.3l5.7-5.2h0A13.56,13.56,0,0,0,6,37.3L11.2,43A5.83,5.83,0,0,1,19.4,43.3Z" style="fill:#3535ed"/><path class="coronaTopDistal" d="M24.3,57.2a13.56,13.56,0,0,0,.8-19.1l-5.7,5.2a5.83,5.83,0,0,1-.4,8.2Z" style="fill:#3535ed"/><path class="coronaTopOclusial" d="M18.1,52.2a5.78,5.78,0,1,1,2.1-7.9A5.76,5.76,0,0,1,18.1,52.2Z" style="fill:#3535ed"/><path class="silant" d="M22,52.7A16.09,16.09,0,0,1,16.1,54c-3.3,0-4.8-1.2-4.8-2.7s1.2-2.4,4.5-3.3c4.4-1.1,6.5-2.9,6.5-5.1,0-2.9-3.1-5.3-8.4-5.3a15.66,15.66,0,0,0-6,1.1L9,41.1a13.11,13.11,0,0,1,5-1c2.6,0,4.1,1.2,4.1,2.5,0,1.5-1.5,2.2-4.7,3.1C9.2,46.9,7,48.4,7,51.1c0,3.2,3.4,5.4,9.2,5.4a19,19,0,0,0,6.9-1.2Z" style="fill:#3535ed"/><path class="crown" d="M10.8,51.2,5.1,56.4a13.56,13.56,0,0,0,19.1.8L19,51.5A5.83,5.83,0,0,1,10.8,51.2Zm0,0a5.92,5.92,0,0,1,.3-8.2L5.9,37.3a13.56,13.56,0,0,0-.8,19.1l5.7-5.2Zm8.6-7.9,5.7-5.2h0A13.56,13.56,0,0,0,6,37.3L11.2,43A5.83,5.83,0,0,1,19.4,43.3Zm4.9,13.9a13.56,13.56,0,0,0,.8-19.1l-5.7,5.2a5.83,5.83,0,0,1-.4,8.2Zm-6.2-5a5.78,5.78,0,1,1,2.1-7.9A5.76,5.76,0,0,1,18.1,52.2ZM25,12.7a25.83,25.83,0,0,1-.5,9.9A10.55,10.55,0,0,1,22.4,27c-5.6,6.9-9.7,3.4-13.5-2.6C5.4,18.7,5.2,13,8.9,7.3,14,.4,18.8,1.8,23.5,8.9A9.78,9.78,0,0,1,25,12.7ZM23.6,79.8c0,4.5-1,8.2-3.2,10.9-3.7,7-7.5,6.9-11.4.8-2.8-4.2-3.4-9.6-2-16.1,4.6-10.2,9.8-9.4,15.4.1A10.64,10.64,0,0,1,23.6,79.8Z" style="fill:#fff;stroke:#000;stroke-miterlimit:10"/><path class="braces" d="M16.8,76.8h0v2.7a4.25,4.25,0,0,0-1.1-.2H14.5a3.55,3.55,0,0,0-1,.2V76.8h0a3.55,3.55,0,0,0,1,.2h1.2a2,2,0,0,0,1.1-.2m-4.6-3.9a.64.64,0,0,0-.6.8v3.8H0v1.3H11.3v3.8a.77.77,0,0,0,.7.8h1.1a.76.76,0,0,0,.6-.8v-.5a.77.77,0,0,1,.7-.8h1.2c.3,0,.6.4.6.8v.5c-.1.4.2.7.6.8h1.1c.3,0,.6-.4.6-.8V78.8H29.9V77.5H18.5V73.7a.64.64,0,0,0-.6-.8H16.8a.76.76,0,0,0-.6.8v.5a.64.64,0,0,1-.6.8H14.5c-.3,0-.6-.4-.6-.8v-.5c.1-.4-.2-.7-.6-.8Z"/><path class="gum" d="M.3,88.3H5.9s3.4,8.9,8.9,8.9,8-8.7,8-8.7h7.4" style="fill:none;stroke:#ffb900;stroke-linejoin:round;stroke-width:3px"/><path class="paradontit1" d="M.2,88.2H2.4a4.07,4.07,0,0,1,3.7,2.7c1,2.8,5.6,9.6,9.1,9.6,3.8,0,5.3-7.1,6.9-9.9.7-1.3,1.3-2.1,2.8-2.1h5.3" style="fill:none;stroke:#ff822e;stroke-linejoin:round;stroke-width:3px"/><path class="paradontit2" d="M.2,88.1s2.8,0,3.7,2.1c1.6,4.1,5.1,14.5,11.5,13.5S20.9,94,22.8,90c.8-1.5,1.9-1.5,3.5-1.5h3.9" style="fill:none;stroke:#f9610d;stroke-linejoin:round;stroke-width:3px"/><path class="paradontit3" d="M.2,88.1a10.65,10.65,0,0,1,2.4.3c.8.3,4.6,19.2,11.9,19.2S20.9,94,22.8,90c.7-1.5,1.9-1.5,3.5-1.5h3.8" style="fill:none;stroke:#f9610d;stroke-linejoin:round;stroke-width:3px"/><path class="paradontit4" d="M.1,88.4c1.6,0,2.9,1.7,3.3,3.6,1.5,7.1,4,19.6,11.3,19.6S21.2,98.9,23,91.9a4.23,4.23,0,0,1,4-3.4h3.2" style="fill:none;stroke:#f75403;stroke-linejoin:round;stroke-width:3px"/><path class="periodontit" d="M18.3,130.9a4.5,4.5,0,0,1-9,0c0-4.2,1.8-4.1,4.5-4.5A4.36,4.36,0,0,1,18.3,130.9Z" style="fill:#3535ed"/></g></g></g></svg>