<svg xmlns="http://www.w3.org/2000/svg" viewBox="0 0 44.9 143.6"><title>74tooth</title><g class="Слой_2" data-name="Слой 2"><g class="Слой_1-2" data-name="Слой 1"><g class="_74" data-name="74"><path class="background" d="M44.4,0V143.6H.4V0Z" style="fill:#9fdaff"/><path class="bone" d="M44.4,88.4v55.2H.4V88.4Z" style="fill:#de82a7"/><path class="bridge" d="M.4,49.9v-4h44v4Zm0-29v4h44v-4Zm0,50v4h44v-4Z" style="fill:#3535ed"/><path class="root" d="M14.4,90.5C9.8,101.2,4.8,112.2,5,118.7c.3,5.2,1.7,5.4,4.2,1.1,0,0,5.3-9.2,7.8-13.4a8.13,8.13,0,0,1,5-4,6.61,6.61,0,0,1,5.1,1.3,13.2,13.2,0,0,1,4.8,8.5l2.7,15.1a9.64,9.64,0,0,0,1,3c1.1,1.9,2.2,1.6,3.1-.7a15.51,15.51,0,0,0,1.1-5.6c.2-9.4-2.1-21-5.3-33.1" style="fill:#f0e7be;stroke:#1a1715;stroke-miterlimit:10"/><path class="rootCanal" d="M8.9,115.8c1.8-6,4.8-9.1,8.4-14.9,2-3.3,9.4-3,11.5.2,4,6.1,5.1,10.9,6.9,17.3s.4,10.5,1.3,12.7,1.8-7.6.8-13.7c-1.9-11.3-3.8-16.1-6.5-25.8-.3-1-13.7-2.2-14-1C15.5,99.3,7.7,110,6.1,119.7,5.2,124.9,7.2,121.1,8.9,115.8Z" style="fill:#3535ed;stroke:#201600;stroke-miterlimit:10;stroke-width:0.25px"/><path class="implant" d="M31.3,123.2l-14,2a1.39,1.39,0,0,0,.7.8,15.23,15.23,0,0,0,12.2.1,1.9,1.9,0,0,0,1-1.6Zm0-4.1-14.4,2.1.1,2.5,14.3-2.1Zm.2-4.1-14.7,2.1.1,2.5,14.5-2.1Zm.1-3.9-14.9,2.1.1,2.5,14.8-2.1Zm.2-4.1-15.2,2.3.1,2.5,15-2.3Zm.3-4.1-15.6,2.3.1,2.5,15.3-2.3Zm0-5-15.8,2.3.1,2.5,15.7-2.3Zm.1-.7-16-.1.1,2.7,15.9-2.4Zm1.4-4.7h-.4l-18.1-.1h-.4v1.9a1.85,1.85,0,0,0,.2.7.91.91,0,0,0,.7.3h1.1l15,.1h1.1a.94.94,0,0,0,1-1Zm1.2-2.8V88.5h0a1.08,1.08,0,0,0-1-1l-18.1-.1h0a.94.94,0,0,0-1,1v1.2a1,1,0,0,0,.4.9c.1,0,.2.1.4.1l18.1.1a.6.6,0,0,0,.4-.1,1.49,1.49,0,0,0,.4-.9Z" style="fill:#3535ed"/><path class="rootMask" d="M14.4,90.5C9.8,101.2,4.8,112.2,5,118.7c.3,5.2,1.7,5.4,4.2,1.1,0,0,5.3-9.2,7.8-13.4a8.13,8.13,0,0,1,5-4,6.61,6.61,0,0,1,5.1,1.3,13.2,13.2,0,0,1,4.8,8.5l2.7,15.1a9.64,9.64,0,0,0,1,3c1.1,1.9,2.2,1.6,3.1-.7a15.51,15.51,0,0,0,1.1-5.6c.2-9.4-2.1-21-5.3-33.1" style="fill:#f0e7be;stroke:#1a1715;stroke-miterlimit:10"/><path class="coronaLingual" d="M33.5,29.3a6.56,6.56,0,0,1-4.6-.6,9.14,9.14,0,0,0-7.6,0c-4.5.6-8.1-.2-10.1-3.3a3,3,0,0,1-.4-.8A17.78,17.78,0,0,1,12.6,8.7a8.83,8.83,0,0,1,2.6-2.5C20.1,3.3,26,4,33,8.2a11.52,11.52,0,0,1,4.3,4.7C40,18.3,39.7,23,36.9,27A6.69,6.69,0,0,1,33.5,29.3Z" style="fill:#fff;stroke:#1a1715;stroke-miterlimit:10;stroke-width:0.25px"/><path class="coronaLingualIncisionDistal" d="M38.2,24.5H30.3v4.6a7.56,7.56,0,0,0,3,0,5.1,5.1,0,0,0,3.5-2.2,14.92,14.92,0,0,0,1.4-2.4Z" style="fill:#3535ed"/><path class="coronaLingualIncisalMiddle" d="M16.6,24.5v4.1a18,18,0,0,0,4.6-.1c2.9-1.1,5.4-1.1,7.6,0a5.23,5.23,0,0,0,1.6.6V24.5Z" style="fill:#3535ed"/><path class="coronaLingualIncisionMesial" d="M16.6,24.5H10.7c.1.2.3.5.4.7a7.37,7.37,0,0,0,5.5,3.4V24.5Z" style="fill:#3535ed"/><path class="coronaLingualMiddleDistal" d="M30.4,12.9V24.5h7.9c1.4-3.4,1.2-7.3-.9-11.6Z" style="fill:#3535ed"/><path class="coronaLingualMiddleMiddle" d="M30.4,24.5H16.7V12.9H30.4Z" style="fill:#3535ed"/><path class="coronaLingualMiddleMesial" d="M10.8,24.5h5.9V12.9H10.6A17.78,17.78,0,0,0,10.8,24.5Z" style="fill:#3535ed"/><path class="coronaLingualCervicalDistal" d="M30.4,6.6v6.3h7a.1.1,0,0,1-.1-.1A10.82,10.82,0,0,0,33,8.1C32.1,7.5,31.2,7.1,30.4,6.6Z" style="fill:#3535ed"/><path class="coronaLingualCervicalMiddle" d="M16.6,13H30.3V6.7c-5.2-2.6-9.7-3-13.7-1.3Z" style="fill:#3535ed"/><path class="coronaLingualCervicalMesial" d="M10.6,13h6.1V5.4a10.09,10.09,0,0,0-1.5.7,7,7,0,0,0-2.6,2.5A15.77,15.77,0,0,0,10.6,13Z" style="fill:#3535ed"/><path class="coronaLabial" d="M27.5,69.5c3.9-1.9,7.1-1.9,9.5.7a8.62,8.62,0,0,1,2.1,5.1,24.1,24.1,0,0,1-1.5,11.8,11.18,11.18,0,0,1-4,4.9c-6,4.3-11.7,4.7-17.1,1a19.23,19.23,0,0,1-6.9-9c-2.4-6.2-2.3-11.1.5-14.5,2.8-2.3,6.3-2.6,10.4-1C23.2,70.4,25.6,71.1,27.5,69.5Z" style="fill:#fff;stroke:#1a1715;stroke-miterlimit:10;stroke-width:0.25px"/><path class="coronaLabialIncisalDistal" d="M30.8,68.3v6.3h8.3A9,9,0,0,0,37,70.2,6.28,6.28,0,0,0,30.8,68.3Z" style="fill:#3535ed"/><path class="coronaLabialIncisalMiddle" d="M15.4,67.6v7.1H30.7V68.4a15.21,15.21,0,0,0-3.2,1.1c-1.9,1.6-4.3.9-7-1A12,12,0,0,0,15.4,67.6Z" style="fill:#3535ed"/><path class="coronaLabialIncisionMesial" d="M8,74.7h7.4V67.6a8.59,8.59,0,0,0-5.3,1.9A9,9,0,0,0,8,74.7Z" style="fill:#3535ed"/><path class="coronaLabialMiddleDistal" d="M39,74.7H30.7V86.6h7.1a26.12,26.12,0,0,0,1.3-11.3c0-.3-.1-.5-.1-.7Z" style="fill:#3535ed"/><path class="coronaLabialMiddleMiddle" d="M30.7,86.5H15.4V74.6H30.7Z" style="fill:#3535ed"/><path class="coronaLabialMiddleMesial" d="M9.6,84c.4.8.8,1.7,1.2,2.5h4.6V74.6H8A20,20,0,0,0,9.6,84Z" style="fill:#3535ed"/><path class="coronaLabialCervicalDistal" d="M37.8,86.5H30.7v7.2a22.87,22.87,0,0,0,2.9-1.8,11.31,11.31,0,0,0,4-4.9c.1-.2.1-.3.2-.5Z" style="fill:#3535ed"/><path class="coronaLabialCervicalMiddle" d="M30.7,86.5H15.3v5.6l1.1.8c4.6,3.1,9.3,3.3,14.3.8V86.5Z" style="fill:#3535ed"/><path class="coronaLabialCervicalMesial" d="M15.4,92.1V86.5H10.8A16.68,16.68,0,0,0,15.4,92.1Z" style="fill:#3535ed"/><path class="veneer" d="M23.8,78.1c2.8-1,3.1-.9,4.9,1.5l1.2,1.6-.7-1.9c-1.1-2.8-1-3.2,1.4-5l1.6-1.2-1.9.7c-2.8,1-3.1.9-4.9-1.5l-1.2-1.6.7,1.9c1.1,2.8,1,3.2-1.4,5l-1.6,1.2Zm1.1,10.4c1.7-.6,1.8-.6,2.9.9L29,91l-.6-1.8c-.6-1.7-.5-1.9.9-3L30.9,85l-1.9.7c-1.6.6-1.8.6-2.9-.9l-1.2-1.6.7,1.9c.6,1.7.5,1.9-.9,3l-1.6,1.2ZM32,84c1.7-.6,1.8-.6,2.9.9l1.2,1.6-.7-1.9c-.6-1.7-.5-1.9.9-3l1.6-1.2-1.9.7c-1.6.6-1.8.5-2.9-.9l-1.2-1.6.7,1.9c.6,1.7.5,1.9-.9,3l-1.6,1.2ZM14,78.4c1.8-.6,1.9-.6,3,.9l1.2,1.6L17.5,79c-.6-1.7-.5-1.9.9-3L20,74.8l-1.9.7c-1.7.6-1.8.6-2.9-.9L14.1,73l.7,1.9c.6,1.7.5,1.9-.9,3l-1.6,1.2Zm-3,7.3c1.7-.6,1.8-.6,2.9.9l1.2,1.6-.6-1.8c-.6-1.7-.5-1.9.9-3L17,82.2l-1.9.7c-1.6.6-1.8.6-2.9-.9L11,80.4l.7,1.9c.6,1.7.5,1.9-.9,3L9.2,86.5Z" style="fill:#3535ed"/><path class="coronaTop" d="M18.1,51.7l-5.7,5.2a13.56,13.56,0,0,0,19.1.8L26.3,52A5.92,5.92,0,0,1,18.1,51.7Zm.1-.1a5.83,5.83,0,0,1,.3-8.2l-5.2-5.7a13.56,13.56,0,0,0-.8,19.1l5.7-5.2Zm8.5-7.9,5.7-5.2a13.56,13.56,0,0,0-19.1-.8l5.2,5.7A5.93,5.93,0,0,1,26.7,43.7Zm4.9,14a13.56,13.56,0,0,0,.8-19.1l-5.7,5.2a5.83,5.83,0,0,1-.4,8.2Zm-6.3-5a5.78,5.78,0,0,1-5.8-10,5.76,5.76,0,0,1,7.9,2.1A5.85,5.85,0,0,1,25.3,52.7Z" style="fill:#fff;stroke:#000;stroke-miterlimit:10"/><path class="coronaTopBuccal" d="M18.1,51.7l-5.7,5.2a13.56,13.56,0,0,0,19.1.8L26.3,52A5.92,5.92,0,0,1,18.1,51.7Z" style="fill:#3535ed"/><path class="coronaTopMedial" d="M18.2,51.6a5.83,5.83,0,0,1,.3-8.2l-5.2-5.7a13.56,13.56,0,0,0-.8,19.1l5.7-5.2Z" style="fill:#3535ed"/><path class="coronaTopLingual" d="M26.7,43.7l5.7-5.2a13.56,13.56,0,0,0-19.1-.8l5.2,5.7A5.93,5.93,0,0,1,26.7,43.7Z" style="fill:#3535ed"/><path class="coronaTopDistal" d="M31.6,57.7a13.56,13.56,0,0,0,.8-19.1l-5.7,5.2a5.83,5.83,0,0,1-.4,8.2Z" style="fill:#3535ed"/><path class="coronaTopOclusial" d="M25.3,52.7a5.78,5.78,0,0,1-5.8-10,5.76,5.76,0,0,1,7.9,2.1A5.85,5.85,0,0,1,25.3,52.7Z" style="fill:#3535ed"/><path class="silant" d="M29.3,53.3a16.09,16.09,0,0,1-5.9,1.3c-3.3,0-4.8-1.2-4.8-2.7s1.2-2.4,4.5-3.3c4.4-1.1,6.5-2.9,6.5-5.1,0-2.9-3.1-5.3-8.4-5.3a15.66,15.66,0,0,0-6,1.1l1.1,2.4a13.11,13.11,0,0,1,5-1c2.6,0,4.1,1.2,4.1,2.5,0,1.5-1.5,2.2-4.7,3.1-4.2,1.2-6.4,2.7-6.4,5.4,0,3.2,3.4,5.4,9.2,5.4a19,19,0,0,0,6.9-1.2Z" style="fill:#3535ed"/><path class="crown" d="M18.1,51.7l-5.7,5.2a13.56,13.56,0,0,0,19.1.8L26.3,52A5.92,5.92,0,0,1,18.1,51.7Zm.1-.1a5.83,5.83,0,0,1,.3-8.2l-5.2-5.7a13.56,13.56,0,0,0-.8,19.1l5.7-5.2Zm8.5-7.9,5.7-5.2a13.56,13.56,0,0,0-19.1-.8l5.2,5.7A5.93,5.93,0,0,1,26.7,43.7Zm4.9,14a13.56,13.56,0,0,0,.8-19.1l-5.7,5.2a5.83,5.83,0,0,1-.4,8.2Zm-6.3-5a5.78,5.78,0,0,1-5.8-10,5.76,5.76,0,0,1,7.9,2.1A5.85,5.85,0,0,1,25.3,52.7Zm8.2-23.4a6.56,6.56,0,0,1-4.6-.6,9.14,9.14,0,0,0-7.6,0c-4.5.6-8.1-.2-10.1-3.3a3,3,0,0,1-.4-.8A17.78,17.78,0,0,1,12.6,8.7a8.83,8.83,0,0,1,2.6-2.5C20.1,3.3,26,4,33,8.2a11.52,11.52,0,0,1,4.3,4.7C40,18.3,39.7,23,36.9,27A6.69,6.69,0,0,1,33.5,29.3Zm-6,40.2c3.9-1.9,7.1-1.9,9.5.7a8.62,8.62,0,0,1,2.1,5.1,24.1,24.1,0,0,1-1.5,11.8,11.18,11.18,0,0,1-4,4.9c-6,4.3-11.7,4.7-17.1,1a19.23,19.23,0,0,1-6.9-9c-2.4-6.2-2.3-11.1.5-14.5,2.8-2.3,6.3-2.6,10.4-1C23.2,70.4,25.6,71.1,27.5,69.5Z" style="fill:#fff;stroke:#000;stroke-miterlimit:10"/><path class="braces" d="M24,76.8h0v2.7a4.25,4.25,0,0,0-1.1-.2H21.7a3.55,3.55,0,0,0-1,.2V76.8h0a3.55,3.55,0,0,0,1,.2h1.2a2,2,0,0,0,1.1-.2m-4.6-3.9c-.3,0-.6.4-.6.8v3.8H.4v1.3H18.9v3.8a.64.64,0,0,0,.6.8h1.1a.76.76,0,0,0,.6-.8v-.5a.64.64,0,0,1,.6-.8H23c.3,0,.6.4.6.8v.5c-.1.4.2.7.6.8h1.1a.77.77,0,0,0,.7-.8V78.8H44.4V77.5H26.1V73.7a.77.77,0,0,0-.7-.8H24.1a.76.76,0,0,0-.6.8v.5a.64.64,0,0,1-.6.8H21.8a.77.77,0,0,1-.7-.8v-.5c.1-.4-.2-.7-.6-.8Z"/><path class="gum" d="M44.4,87.8H37.3s-5.6,7.7-12.8,7.7c-10.2,0-13.1-7.4-14.2-7.3l-8.8-.1H.4" style="fill:none;stroke:#ffb900;stroke-linejoin:round;stroke-width:3px"/><path class="paradontit1" d="M44.4,87.9c-5.8,0-10.5,2.8-12.4,7-2.5,5.6-13.3,8.6-18.4-1.7-2.8-5.7-7.1-5.1-9-5.1H.4" style="fill:none;stroke:#ff822e;stroke-linejoin:round;stroke-width:3px"/><path class="paradontit2" d="M44.4,87.9H40.8c-2.3,0-5.2,3.3-6.3,4.8-2.1,2.8-4.4,10.8-11.2,10.8s-9.4-7.9-11.6-10.9c-1.1-1.5-2.9-4.5-5.2-4.5H.4" style="fill:none;stroke:#f9610d;stroke-linejoin:round;stroke-width:3px"/><path class="paradontit3" d="M44.4,87.8H41.8c-2.3,0-4.3.5-5.4,2-2,2.8-3.4,15.9-12.9,15.9S12.6,91.6,10.4,88.6C9.3,87.1,6.3,88,4,88l-2.3.1H.4" style="fill:none;stroke:#f9610d;stroke-linejoin:round;stroke-width:3px"/><path class="paradontit4" d="M44.4,87.8H42.3a6.26,6.26,0,0,0-5.8,3.9c-2.2,5.9-5.2,21.1-12,21.1S14.2,98,12.6,92c-.6-2.1-3-3.8-6-3.8H.4" style="fill:none;stroke:#f75403;stroke-linejoin:round;stroke-width:3px"/><path class="periodontit" d="M10.5,126.4A4.5,4.5,0,1,1,6,121.9,4.48,4.48,0,0,1,10.5,126.4ZM37,130.5a4.5,4.5,0,1,0,4.5,4.5A4.48,4.48,0,0,0,37,130.5Z" style="fill:#3535ed"/></g></g></g></svg>