<svg xmlns="http://www.w3.org/2000/svg" viewBox="0 0 44.06 143.5"><title>74tooth</title><g class="Слой_2" data-name="Слой 2"><g class="Слой_1-2" data-name="Слой 1"><g class="_74" data-name="74"><path class="background" d="M44,0V143.5H0V0Z" style="fill:#9fdaff"/><path class="bone" d="M44,88.4v55.1H0V88.4Z" style="fill:#de82a7"/><path class="bridge" d="M0,49.9v-4H44v4Zm0-29v4H44v-4Zm0,50v4H44v-4Z" style="fill:#3535ed"/><path class="root" d="M14,90.5c-4.6,10.7-9.6,21.7-9.4,28.2.3,5.2,1.7,5.4,4.2,1.1,0,0,5.3-9.2,7.8-13.4a8.13,8.13,0,0,1,5-4,6.61,6.61,0,0,1,5.1,1.3,13.2,13.2,0,0,1,4.8,8.5l2.7,15.1a9.64,9.64,0,0,0,1,3c1.1,1.9,2.2,1.6,3.1-.7a15.51,15.51,0,0,0,1.1-5.6c.2-9.4-2.1-21-5.3-33.1" style="fill:#f0e7be;stroke:#1a1715;stroke-miterlimit:10"/><path class="rootCanal" d="M8.54,115.8c1.8-6,4.8-9.1,8.4-14.9,2-3.3,9.4-3,11.5.2,4,6.1,5.1,10.9,6.9,17.3s.4,10.5,1.3,12.7,1.8-7.6.8-13.7c-1.9-11.3-3.8-16.1-6.5-25.8-.3-1-13.7-2.2-14-1-1.8,8.7-9.6,19.4-11.2,29.1C4.84,124.9,6.84,121.1,8.54,115.8Z" style="fill:#3535ed;stroke:#201600;stroke-miterlimit:10;stroke-width:0.25px"/><path class="implant" d="M30.94,123.2l-14,2a1.39,1.39,0,0,0,.7.8,15.23,15.23,0,0,0,12.2.1,1.9,1.9,0,0,0,1-1.6Zm0-4.1-14.4,2.1.1,2.5,14.3-2.1Zm.2-4.1-14.7,2.1.1,2.5L31,117.5Zm.1-3.9-14.9,2.1.1,2.5,14.8-2.1Zm.2-4.1-15.2,2.3.1,2.5,15-2.3Zm.3-4.1-15.6,2.3.1,2.5,15.3-2.3Zm0-5-15.8,2.3.1,2.5,15.7-2.3V97.9Zm.1-.7-16-.1.1,2.7,15.9-2.4Zm1.4-4.7h-.4l-18.1-.1h-.4v1.9a1.85,1.85,0,0,0,.2.7.91.91,0,0,0,.7.3h1.1l15,.1h1.1a.94.94,0,0,0,1-1Zm1.2-2.8V88.5h0a1.08,1.08,0,0,0-1-1l-18.1-.1h0a.94.94,0,0,0-1,1v1.2a1,1,0,0,0,.4.9c.1,0,.2.1.4.1l18.1.1a.6.6,0,0,0,.4-.1,1.49,1.49,0,0,0,.4-.9Z" style="fill:#3535ed"/><path class="rootMusk" d="M14,90.5c-4.6,10.7-9.6,21.7-9.4,28.2.3,5.2,1.7,5.4,4.2,1.1,0,0,5.3-9.2,7.8-13.4a8.13,8.13,0,0,1,5-4,6.61,6.61,0,0,1,5.1,1.3,13.2,13.2,0,0,1,4.8,8.5l2.7,15.1a9.64,9.64,0,0,0,1,3c1.1,1.9,2.2,1.6,3.1-.7a15.51,15.51,0,0,0,1.1-5.6c.2-9.4-2.1-21-5.3-33.1" style="fill:#f0e7be;stroke:#1a1715;stroke-miterlimit:10"/><path class="coronaLingual" d="M33.14,29.3a6.56,6.56,0,0,1-4.6-.6,9.14,9.14,0,0,0-7.6,0c-4.5.6-8.1-.2-10.1-3.3a3,3,0,0,1-.4-.8,17.78,17.78,0,0,1,1.8-15.9,8.83,8.83,0,0,1,2.6-2.5c4.9-2.9,10.8-2.2,17.8,2a11.52,11.52,0,0,1,4.3,4.7c2.7,5.4,2.4,10.1-.4,14.1A6.69,6.69,0,0,1,33.14,29.3Z" style="fill:#fff;stroke:#1a1715;stroke-miterlimit:10;stroke-width:0.25px"/><path class="coronaLingualIncisalDistal" d="M37.84,24.5h-7.9v4.6a7.56,7.56,0,0,0,3,0,5.1,5.1,0,0,0,3.5-2.2,14.92,14.92,0,0,0,1.4-2.4Z" style="fill:#3535ed"/><path class="coronaLingualIncisalMiddle" d="M16.24,24.5v4.1a18,18,0,0,0,4.6-.1c2.9-1.1,5.4-1.1,7.6,0a5.23,5.23,0,0,0,1.6.6V24.5Z" style="fill:#3535ed"/><path class="coronaLingualIncisionMesial" d="M16.24,24.5h-5.9c.1.2.3.5.4.7a7.37,7.37,0,0,0,5.5,3.4V24.5Z" style="fill:#3535ed"/><path class="coronaLingualMiddleDistal" d="M30,12.9V24.5h7.9c1.4-3.4,1.2-7.3-.9-11.6Z" style="fill:#3535ed"/><path class="coronaLingualMiddleMiddle" d="M30,24.5H16.34V12.9H30Z" style="fill:#3535ed"/><path class="coronaLingualMiddleMesial" d="M10.44,24.5h5.9V12.9h-6.1A17.78,17.78,0,0,0,10.44,24.5Z" style="fill:#3535ed"/><path class="coronaLingualCervicalDistal" d="M30,6.6v6.3h7a.1.1,0,0,1-.1-.1,10.82,10.82,0,0,0-4.3-4.7C31.74,7.5,30.84,7.1,30,6.6Z" style="fill:#3535ed"/><path class="coronaLingualCervicalMiddle" d="M16.24,13h13.7V6.7c-5.2-2.6-9.7-3-13.7-1.3Z" style="fill:#3535ed"/><path class="coronaLingualCervicalMesial" d="M10.24,13h6.1V5.4a10.09,10.09,0,0,0-1.5.7,7,7,0,0,0-2.6,2.5A15.77,15.77,0,0,0,10.24,13Z" style="fill:#3535ed"/><path class="coronaLabial" d="M27.14,69.5c3.9-1.9,7.1-1.9,9.5.7a8.62,8.62,0,0,1,2.1,5.1,24.1,24.1,0,0,1-1.5,11.8,11.18,11.18,0,0,1-4,4.9c-6,4.3-11.7,4.7-17.1,1a19.23,19.23,0,0,1-6.9-9c-2.4-6.2-2.3-11.1.5-14.5,2.8-2.3,6.3-2.6,10.4-1C22.84,70.4,25.24,71.1,27.14,69.5Z" style="fill:#fff;stroke:#1a1715;stroke-miterlimit:10;stroke-width:0.25px"/><path class="coronaLabialIncisalDistal" d="M30.44,68.3v6.3h8.3a9,9,0,0,0-2.1-4.4A6.28,6.28,0,0,0,30.44,68.3Z" style="fill:#3535ed"/><path class="coronaLabialIncisalMiddle" d="M15,67.6v7.1h15.3V68.4a15.21,15.21,0,0,0-3.2,1.1c-1.9,1.6-4.3.9-7-1A12,12,0,0,0,15,67.6Z" style="fill:#3535ed"/><path class="coronaLabialIncisionMesial" d="M7.64,74.7H15V67.6a8.59,8.59,0,0,0-5.3,1.9A9,9,0,0,0,7.64,74.7Z" style="fill:#3535ed"/><path class="coronaLabialMiddleDistal" d="M38.64,74.7h-8.3V86.6h7.1a26.12,26.12,0,0,0,1.3-11.3c0-.3-.1-.5-.1-.7Z" style="fill:#3535ed"/><path class="coronaLabialMiddleMiddle" d="M30.34,86.5H15V74.6h15.3Z" style="fill:#3535ed"/><path class="coronaLabialMiddleMesial" d="M9.24,84c.4.8.8,1.7,1.2,2.5H15V74.6H7.64A20,20,0,0,0,9.24,84Z" style="fill:#3535ed"/><path class="coronaLabialCervicalDistal" d="M37.44,86.5h-7.1v7.2a22.87,22.87,0,0,0,2.9-1.8,11.31,11.31,0,0,0,4-4.9c.1-.2.1-.3.2-.5Z" style="fill:#3535ed"/><path class="coronaLabialCervicalMiddle" d="M30.34,86.5H14.94v5.6l1.1.8c4.6,3.1,9.3,3.3,14.3.8V86.5Z" style="fill:#3535ed"/><path class="coronaLabialCervicalMesial" d="M15,92.1V86.5h-4.6A16.68,16.68,0,0,0,15,92.1Z" style="fill:#3535ed"/><path class="veneer" d="M23.44,78.1c2.8-1,3.1-.9,4.9,1.5l1.2,1.6-.7-1.9c-1.1-2.8-1-3.2,1.4-5l1.6-1.2-1.9.7c-2.8,1-3.1.9-4.9-1.5l-1.2-1.6.7,1.9c1.1,2.8,1,3.2-1.4,5l-1.6,1.2Zm1.1,10.4c1.7-.6,1.8-.6,2.9.9l1.2,1.6L28,89.2c-.6-1.7-.5-1.9.9-3l1.6-1.2-1.9.7c-1.6.6-1.8.6-2.9-.9l-1.2-1.6.7,1.9c.6,1.7.5,1.9-.9,3l-1.6,1.2Zm7.1-4.5c1.7-.6,1.8-.6,2.9.9l1.2,1.6L35,84.6c-.6-1.7-.5-1.9.9-3l1.6-1.2-1.9.7c-1.6.6-1.8.5-2.9-.9l-1.2-1.6.7,1.9c.6,1.7.5,1.9-.9,3l-1.6,1.2Zm-18-5.6c1.8-.6,1.9-.6,3,.9l1.2,1.6-.7-1.9c-.6-1.7-.5-1.9.9-3l1.6-1.2-1.9.7c-1.7.6-1.8.6-2.9-.9L13.74,73l.7,1.9c.6,1.7.5,1.9-.9,3l-1.6,1.2Zm-3,7.3c1.7-.6,1.8-.6,2.9.9l1.2,1.6-.6-1.8c-.6-1.7-.5-1.9.9-3l1.6-1.2-1.9.7c-1.6.6-1.8.6-2.9-.9l-1.2-1.6.7,1.9c.6,1.7.5,1.9-.9,3l-1.6,1.2Z" style="fill:#3535ed"/><path class="coronaTop" d="M17.74,51.7,12,56.9a13.56,13.56,0,0,0,19.1.8L25.94,52A5.92,5.92,0,0,1,17.74,51.7Zm.1-.1a5.83,5.83,0,0,1,.3-8.2l-5.2-5.7a13.56,13.56,0,0,0-.8,19.1l5.7-5.2Zm8.5-7.9L32,38.5a13.56,13.56,0,0,0-19.1-.8l5.2,5.7A5.93,5.93,0,0,1,26.34,43.7Zm4.9,14A13.56,13.56,0,0,0,32,38.6l-5.7,5.2a5.83,5.83,0,0,1-.4,8.2Zm-6.3-5a5.78,5.78,0,0,1-5.8-10A5.76,5.76,0,0,1,27,44.8,5.85,5.85,0,0,1,24.94,52.7Z" style="fill:#fff;stroke:#000;stroke-miterlimit:10"/><path class="coronaTopBuccal" d="M17.74,51.7,12,56.9a13.56,13.56,0,0,0,19.1.8L25.94,52A5.92,5.92,0,0,1,17.74,51.7Z" style="fill:#3535ed"/><path class="coronaTopMedial" d="M17.84,51.6a5.83,5.83,0,0,1,.3-8.2l-5.2-5.7a13.56,13.56,0,0,0-.8,19.1l5.7-5.2Z" style="fill:#3535ed"/><path class="coronaTopLingual" d="M26.34,43.7,32,38.5a13.56,13.56,0,0,0-19.1-.8l5.2,5.7A5.93,5.93,0,0,1,26.34,43.7Z" style="fill:#3535ed"/><path class="coronaTopDistal" d="M31.24,57.7A13.56,13.56,0,0,0,32,38.6l-5.7,5.2a5.83,5.83,0,0,1-.4,8.2Z" style="fill:#3535ed"/><path class="coronaTopOclusial" d="M24.94,52.7a5.78,5.78,0,0,1-5.8-10A5.76,5.76,0,0,1,27,44.8,5.85,5.85,0,0,1,24.94,52.7Z" style="fill:#3535ed"/><path class="silant" d="M28.94,53.3A16.09,16.09,0,0,1,23,54.6c-3.3,0-4.8-1.2-4.8-2.7s1.2-2.4,4.5-3.3c4.4-1.1,6.5-2.9,6.5-5.1,0-2.9-3.1-5.3-8.4-5.3a15.66,15.66,0,0,0-6,1.1l1.1,2.4a13.11,13.11,0,0,1,5-1c2.6,0,4.1,1.2,4.1,2.5,0,1.5-1.5,2.2-4.7,3.1-4.2,1.2-6.4,2.7-6.4,5.4,0,3.2,3.4,5.4,9.2,5.4A19,19,0,0,0,30,55.9Z" style="fill:#3535ed"/><path class="crown" d="M17.74,51.7,12,56.9a13.56,13.56,0,0,0,19.1.8L25.94,52A5.92,5.92,0,0,1,17.74,51.7Zm.1-.1a5.83,5.83,0,0,1,.3-8.2l-5.2-5.7a13.56,13.56,0,0,0-.8,19.1l5.7-5.2Zm8.5-7.9L32,38.5a13.56,13.56,0,0,0-19.1-.8l5.2,5.7A5.93,5.93,0,0,1,26.34,43.7Zm4.9,14A13.56,13.56,0,0,0,32,38.6l-5.7,5.2a5.83,5.83,0,0,1-.4,8.2Zm-6.3-5a5.78,5.78,0,0,1-5.8-10A5.76,5.76,0,0,1,27,44.8,5.85,5.85,0,0,1,24.94,52.7Zm8.2-23.4a6.56,6.56,0,0,1-4.6-.6,9.14,9.14,0,0,0-7.6,0c-4.5.6-8.1-.2-10.1-3.3a3,3,0,0,1-.4-.8,17.78,17.78,0,0,1,1.8-15.9,8.83,8.83,0,0,1,2.6-2.5c4.9-2.9,10.8-2.2,17.8,2a11.52,11.52,0,0,1,4.3,4.7c2.7,5.4,2.4,10.1-.4,14.1A6.69,6.69,0,0,1,33.14,29.3Zm-6,40.2c3.9-1.9,7.1-1.9,9.5.7a8.62,8.62,0,0,1,2.1,5.1,24.1,24.1,0,0,1-1.5,11.8,11.18,11.18,0,0,1-4,4.9c-6,4.3-11.7,4.7-17.1,1a19.23,19.23,0,0,1-6.9-9c-2.4-6.2-2.3-11.1.5-14.5,2.8-2.3,6.3-2.6,10.4-1C22.84,70.4,25.24,71.1,27.14,69.5Z" style="fill:#fff;stroke:#000;stroke-miterlimit:10"/><path class="braces" d="M23.64,76.8h0v2.7a4.25,4.25,0,0,0-1.1-.2h-1.2a3.55,3.55,0,0,0-1,.2V76.8h0a3.55,3.55,0,0,0,1,.2h1.2a2,2,0,0,0,1.1-.2M19,72.9c-.3,0-.6.4-.6.8v3.8H0v1.3h18.5v3.8a.64.64,0,0,0,.6.8h1.1a.76.76,0,0,0,.6-.8v-.5a.64.64,0,0,1,.6-.8h1.2c.3,0,.6.4.6.8v.5c-.1.4.2.7.6.8h1.1a.77.77,0,0,0,.7-.8V78.8H44V77.5H25.74V73.7a.77.77,0,0,0-.7-.8h-1.3a.76.76,0,0,0-.6.8v.5a.64.64,0,0,1-.6.8h-1.1a.77.77,0,0,1-.7-.8v-.5c.1-.4-.2-.7-.6-.8Z"/><path class="gum" d="M44,87.7l-7.1.1s-5.6,7.7-12.8,7.7c-10.2,0-13.1-7.4-14.2-7.3L0,88.1" style="fill:none;stroke:#ffb900;stroke-linejoin:round;stroke-width:3px"/><path class="paradontit1" d="M44,87.9c-5.8,0-10.5,2.8-12.4,7-2.5,5.6-13.3,8.6-18.4-1.7-2.8-5.7-7.1-5.1-9-5.1H0" style="fill:none;stroke:#ff822e;stroke-linejoin:round;stroke-width:3px"/><path class="paradontit2" d="M44,88.1h-3.6c-2.3,0-5.2,3.3-6.3,4.8-2.1,2.8-4.4,10.8-11.2,10.8s-9.4-7.9-11.6-10.9c-1.1-1.5-2.9-4.5-5.2-4.5L0,88.4" style="fill:none;stroke:#f9610d;stroke-linejoin:round;stroke-width:3px"/><path class="paradontit3" d="M44,87.9h-2.6c-2.3,0-4.3.5-5.4,2-2,2.8-3.4,15.9-12.9,15.9S12.24,91.7,10,88.7c-1.1-1.5-4.1-.6-6.4-.6L0,88.2" style="fill:none;stroke:#f9610d;stroke-linejoin:round;stroke-width:3px"/><path class="paradontit4" d="M43.94,87.8h-2a6.26,6.26,0,0,0-5.8,3.9c-2.2,5.9-5.2,21.1-12,21.1S13.84,98,12.24,92c-.6-2.1-3-3.8-6-3.8H0" style="fill:none;stroke:#f75403;stroke-linejoin:round;stroke-width:3px"/><path class="periodontit" d="M10.14,126.4a4.5,4.5,0,1,1-4.5-4.5A4.48,4.48,0,0,1,10.14,126.4Zm26.5,4.1a4.5,4.5,0,1,0,4.5,4.5A4.48,4.48,0,0,0,36.64,130.5Z" style="fill:#3535ed"/></g></g></g></svg>