<svg xmlns="http://www.w3.org/2000/svg" viewBox="0 0 47.02 143.5"><title>75tooth</title><g class="Слой_2" data-name="Слой 2"><g class="Слой_1-2" data-name="Слой 1"><g class="_75" data-name="75"><path class="background" d="M47,143.5H0V0H47Z" style="fill:#9fdaff"/><path class="bone" d="M0,143.5H47V88.4H0Z" style="fill:#de82a7"/><path class="bridge" d="M0,70.9H47v4H0Zm0-46H47v-4H0Zm0,25H47v-4H0Z" style="fill:#3535ed"/><path class="root" d="M33.62,90.1l1.8,2.5c5.5,9.5,8,21.3,8,34.8-.2,3.9-1.2,4.8-2.9,3.1a7.57,7.57,0,0,1-2-4.1c-1.7-8.8-4-16.2-7.4-21.3-4-4.9-7.4-4.6-10.4-.8-3.9,4.2-5.9,11-6.9,19a7.91,7.91,0,0,1-1,3.4c-1.1,2.1-2.3,2.2-3.5.3a8,8,0,0,1-1.1-3.4,61.93,61.93,0,0,1,4.9-32.4" style="fill:#f0e7be;stroke:#1a1715;stroke-miterlimit:10"/><path class="rootCanal" d="M10.42,127.1c0,.3,1.1,1.6,1.3,1.5s-1.7-4.5,0-9.9c1.9-6,5.6-12.3,9.2-18.1,2-3.3,7.3-4.6,9.4-1.4,4.1,6.1,6.2,9.5,8,15.9s2.6,16.4,2.6,16.1a138.82,138.82,0,0,0-1.1-18.7c-1.9-11.3-5.3-12.1-8-21.8-.2-.9-13.9-.9-14.2.3-1.8,8.6-6.3,17.3-7.9,27A18.07,18.07,0,0,0,10.42,127.1Z" style="fill:#3535ed;stroke:#201600;stroke-miterlimit:10;stroke-width:0.25px"/><path class="implant" d="M30.92,123.2l-14,2a1.39,1.39,0,0,0,.7.8,15.23,15.23,0,0,0,12.2.1,1.9,1.9,0,0,0,1-1.6Zm0-4.3-14.4,2.2.1,2.4,14.3-2Zm.2-3.8-14.7,2.2.1,2.5L31,117.6Zm.1-4-14.9,2.2.1,2.4,14.8-2.2Zm.2-4.1-15.2,2.3.1,2.4,15-2.2Zm.3-4.1-15.6,2.3.1,2.5,15.3-2.3Zm0-5-15.8,2.3.1,2.4,15.7-2.3V97.9Zm.1-.7-16-.1.1,2.6,15.9-2.3Zm1.5-4.7h-.4l-18.1-.1h-.4v1.9a1.07,1.07,0,0,0,.2.6.91.91,0,0,0,.7.3h1.1l15,.1h1.1a.91.91,0,0,0,.7-.3,1.07,1.07,0,0,0,.2-.6Zm1.1-2.8V88.5a1.08,1.08,0,0,0-1-1l-18.1-.1h0a.94.94,0,0,0-1,1v1.2a1,1,0,0,0,.4.9c.1.1.2.1.4.1l18.1.1a.6.6,0,0,0,.4-.1,1.49,1.49,0,0,0,.4-.9Z" style="fill:#3535ed"/><path class="rootMusk" d="M33.62,90.1l1.8,2.5c5.5,9.5,8,21.3,8,34.8-.2,3.9-1.2,4.8-2.9,3.1a7.57,7.57,0,0,1-2-4.1c-1.7-8.8-4-16.2-7.4-21.3-4-4.9-7.4-4.6-10.4-.8-3.9,4.2-5.9,11-6.9,19a7.91,7.91,0,0,1-1,3.4c-1.1,2.1-2.3,2.2-3.5.3a8,8,0,0,1-1.1-3.4,61.93,61.93,0,0,1,4.9-32.4" style="fill:#f0e7be;stroke:#1a1715;stroke-miterlimit:10"/><path class="coronaLingual" d="M9.82,26.9c-3.1-4-3.4-8.6-.5-14.1A12.48,12.48,0,0,1,14,8.1c7.5-4.3,14-4.9,19.3-2a7.55,7.55,0,0,1,2.8,2.5,16.71,16.71,0,0,1,2,15.9,2,2,0,0,1-.4.8c-2.2,3.1-6.1,3.9-11,3.3a10.56,10.56,0,0,0-8.2,0,7.7,7.7,0,0,1-5,.6A6.05,6.05,0,0,1,9.82,26.9Z" style="fill:#fff;stroke:#1a1715;stroke-miterlimit:10;stroke-width:0.25px"/><path class="coronaLingualIncisalDistal" d="M31.72,24.5h6.4a2.51,2.51,0,0,1-.4.7,8.36,8.36,0,0,1-6,3.4V24.5Z" style="fill:#3535ed"/><path class="coronaLingualIncisalMiddle" d="M31.82,24.5v4.1a21.19,21.19,0,0,1-5-.1,10.56,10.56,0,0,0-8.2,0,5.78,5.78,0,0,1-1.7.6V24.5Z" style="fill:#3535ed"/><path class="coronaLingualIncisionMesial" d="M8.42,24.5h8.5v4.6a9.15,9.15,0,0,1-3.3,0,5.52,5.52,0,0,1-3.7-2.2,15.76,15.76,0,0,1-1.5-2.4Z" style="fill:#3535ed"/><path class="coronaLingualMiddleDistal" d="M38.12,24.5h-6.4V12.9h6.6A16.58,16.58,0,0,1,38.12,24.5Z" style="fill:#3535ed"/><path class="coronaLingualMiddleMiddle" d="M31.72,24.5H16.92V12.9h14.8Z" style="fill:#3535ed"/><path class="coronaLingualMiddleMesial" d="M16.92,12.9V24.5H8.42c-1.6-3.4-1.4-7.3.9-11.6Z" style="fill:#3535ed"/><path class="coronaLingualCervicalDistal" d="M38.32,13h-6.6V5.4a11.11,11.11,0,0,1,1.6.7,7.55,7.55,0,0,1,2.8,2.5A16.48,16.48,0,0,1,38.32,13Z" style="fill:#3535ed"/><path class="coronaLingualCervicalMiddle" d="M31.72,13H16.92V6.7c5.6-2.6,10.5-3,14.8-1.3Z" style="fill:#3535ed"/><path class="coronaLingualCervicalMesial" d="M16.82,6.6v6.3H9.22a.1.1,0,0,0,.1-.1A12.48,12.48,0,0,1,14,8.1C15,7.5,16,7.1,16.82,6.6Z" style="fill:#3535ed"/><path class="coronaLabial" d="M26.32,68.5c4.5-1.6,8.2-1.3,11.3,1,3.1,3.4,3.2,8.3.6,14.5a19.64,19.64,0,0,1-7.4,9c-5.8,3.7-12,3.3-18.5-1A11.31,11.31,0,0,1,8,87.1a23,23,0,0,1-1.6-11.8,8.27,8.27,0,0,1,2.3-5.1c2.6-2.5,6.1-2.6,10.2-.7C21,71.1,23.62,70.4,26.32,68.5Z" style="fill:#fff;stroke:#000;stroke-miterlimit:10"/><path class="coronaLabialIncisalDistal" d="M40.12,74.7h-8V67.6a9.75,9.75,0,0,1,5.7,1.9A9.21,9.21,0,0,1,40.12,74.7Z" style="fill:#3535ed"/><path class="coronaLabialIncisalMiddle" d="M32.12,67.6v7.1H15.52V68.4a19,19,0,0,1,3.4,1.1c2.1,1.6,4.7.9,7.6-1A14.54,14.54,0,0,1,32.12,67.6Z" style="fill:#3535ed"/><path class="coronaLabialIncisionMesial" d="M15.52,68.3v6.3h-9a8.38,8.38,0,0,1,2.2-4.4A7.36,7.36,0,0,1,15.52,68.3Z" style="fill:#3535ed"/><path class="coronaLabialMiddleDistal" d="M38.42,84c-.4.8-.8,1.7-1.3,2.5h-5V74.6h8A19,19,0,0,1,38.42,84Z" style="fill:#3535ed"/><path class="coronaLabialMiddleMiddle" d="M32.12,86.5H15.52V74.6h16.6Z" style="fill:#3535ed"/><path class="coronaLabialMiddleMesial" d="M6.52,74.7h9V86.6H7.82a23.41,23.41,0,0,1-1.4-11.3c0-.3.1-.5.1-.7Z" style="fill:#3535ed"/><path class="coronaLabialCervicalDistal" d="M32.12,92.1V86.5h5A19.19,19.19,0,0,1,32.12,92.1Z" style="fill:#3535ed"/><path class="coronaLabialCervicalMiddle" d="M15.52,86.5h16.6v5.6c-.4.3-.8.5-1.2.8-4.9,3.1-10,3.3-15.4.8V86.5Z" style="fill:#3535ed"/><path class="coronaLabialCervicalMesial" d="M7.82,86.5h7.6v7.2a34.87,34.87,0,0,1-3.1-1.8A11.31,11.31,0,0,1,8,87c-.1-.2-.1-.3-.2-.5Z" style="fill:#3535ed"/><path class="veneer" d="M23.52,77.4c2.8-1.1,3.1-1,4.9,1.4l1.2,1.6-.7-1.9c-1.1-2.8-1-3.1,1.4-4.9l1.6-1.2-1.9.7c-2.8,1.1-3.1,1-4.9-1.4l-1.2-1.6.7,1.9c1.1,2.8,1,3.1-1.4,4.9l-1.6,1.2Zm1.1,10.5c1.7-.6,1.9-.5,3,.9l1.2,1.6-.7-1.9c-.6-1.7-.5-1.9.9-3l1.6-1.2-1.9.7c-1.6.6-1.8.5-2.9-.9l-1.2-1.6.7,1.9c.6,1.7.5,1.9-.9,3l-1.6,1.2Zm7-4.6c1.6-.6,1.8-.5,2.9.9l1.2,1.6L35,83.9c-.6-1.7-.5-1.9.9-3l1.6-1.2-1.9.7c-1.6.6-1.8.5-2.9-.9l-1.2-1.6.7,1.9c.6,1.7.5,1.9-.9,3L29.72,84Zm-17.9-5.6c1.7-.6,1.8-.5,2.9.9l1.2,1.6-.7-1.9c-.6-1.7-.5-1.9.9-3l1.6-1.2-1.9.7c-1.6.6-1.8.5-2.9-.9l-1.1-1.6.7,1.9c.6,1.7.5,1.9-.9,3l-1.6,1.2Zm-3,7.4c1.6-.6,1.8-.5,2.9.9l1.2,1.6-.7-1.9c-.6-1.8-.5-1.9.9-3l1.6-1.2-1.9.7c-1.6.6-1.8.5-2.9-.9l-1.2-1.6.7,1.9c.6,1.8.5,1.9-.9,3l-1.6,1.2Z" style="fill:#3535ed"/><path class="coronaTop" d="M19.32,51.2l-5.7,5.2h0a13.56,13.56,0,0,0,19.1.8l-5.2-5.7A5.92,5.92,0,0,1,19.32,51.2Zm0-.1a6,6,0,0,1,.3-8.3l-5.2-5.6a13.56,13.56,0,0,0-.8,19.1l5.7-5.2Zm8.5-7.9,5.7-5.2a13.56,13.56,0,0,0-19.1-.8l5.2,5.7A5.83,5.83,0,0,1,27.82,43.2Zm5,14a13.56,13.56,0,0,0,.8-19.1l-5.7,5.2a5.83,5.83,0,0,1-.4,8.2Zm-6.5-5a5.78,5.78,0,1,1,2.1-7.9A5.76,5.76,0,0,1,26.32,52.2Z" style="fill:#fff;stroke:#000;stroke-miterlimit:10"/><path class="coronaTopBuccal" d="M19.32,51.2l-5.7,5.2h0a13.56,13.56,0,0,0,19.1.8l-5.2-5.7A5.92,5.92,0,0,1,19.32,51.2Z" style="fill:#3535ed"/><path class="coronaTopMedial" d="M19.32,51.1a6,6,0,0,1,.3-8.3l-5.2-5.6a13.56,13.56,0,0,0-.8,19.1l5.7-5.2Z" style="fill:#3535ed"/><path class="coronaTopLingual" d="M27.82,43.2l5.7-5.2a13.56,13.56,0,0,0-19.1-.8l5.2,5.7A5.83,5.83,0,0,1,27.82,43.2Z" style="fill:#3535ed"/><path class="coronaTopDistal" d="M32.82,57.2a13.56,13.56,0,0,0,.8-19.1l-5.7,5.2a5.83,5.83,0,0,1-.4,8.2Z" style="fill:#3535ed"/><path class="coronaTopOclusial" d="M26.42,52.1a5.78,5.78,0,1,1,2.1-7.9A5.83,5.83,0,0,1,26.42,52.1Z" style="fill:#3535ed"/><path class="silant" d="M30.42,52.7a16.09,16.09,0,0,1-5.9,1.3c-3.3,0-4.8-1.2-4.8-2.7s1.2-2.4,4.5-3.3c4.4-1.1,6.5-2.9,6.5-5.1,0-2.9-3.1-5.3-8.4-5.3a15.66,15.66,0,0,0-6,1.1l1.1,2.4a13.11,13.11,0,0,1,5-1c2.6,0,4.1,1.2,4.1,2.5,0,1.5-1.5,2.2-4.7,3.1-4.2,1.2-6.4,2.7-6.4,5.4,0,3.2,3.4,5.4,9.2,5.4a19,19,0,0,0,6.9-1.2Z" style="fill:#3535ed"/><path class="crown" d="M19.32,51.2l-5.7,5.2h0a13.56,13.56,0,0,0,19.1.8l-5.2-5.7A5.92,5.92,0,0,1,19.32,51.2Zm0-.1a6,6,0,0,1,.3-8.3l-5.2-5.6a13.56,13.56,0,0,0-.8,19.1l5.7-5.2Zm8.5-7.9,5.7-5.2a13.56,13.56,0,0,0-19.1-.8l5.2,5.7A5.83,5.83,0,0,1,27.82,43.2Zm5,14a13.56,13.56,0,0,0,.8-19.1l-5.7,5.2a5.83,5.83,0,0,1-.4,8.2Zm-6.5-5a5.78,5.78,0,1,1,2.1-7.9A5.76,5.76,0,0,1,26.32,52.2Zm0,16.3c4.5-1.6,8.2-1.3,11.3,1,3.1,3.4,3.2,8.3.6,14.5a19.64,19.64,0,0,1-7.4,9c-5.8,3.7-12,3.3-18.5-1A11.31,11.31,0,0,1,8,87.1a23,23,0,0,1-1.6-11.8,8.27,8.27,0,0,1,2.3-5.1c2.6-2.5,6.1-2.6,10.2-.7C21,71.1,23.62,70.4,26.32,68.5ZM9.92,26.9c-3.1-4-3.4-8.6-.5-14.1a12.48,12.48,0,0,1,4.7-4.7c7.5-4.3,14-4.9,19.3-2a7.55,7.55,0,0,1,2.8,2.5,16.71,16.71,0,0,1,2,15.9,2,2,0,0,1-.4.8c-2.2,3.1-6.1,3.9-11,3.3a10.56,10.56,0,0,0-8.2,0,7.7,7.7,0,0,1-5,.6A5.79,5.79,0,0,1,9.92,26.9Z" style="fill:#fff;stroke:#000;stroke-miterlimit:10"/><path class="braces" d="M25.12,76.8h0v2.7a4.25,4.25,0,0,0-1.1-.2h-1.2a3.55,3.55,0,0,0-1,.2V76.8h0a3.55,3.55,0,0,0,1,.2H24a2,2,0,0,0,1.1-.2m-4.6-3.9c-.3,0-.6.4-.6.8v3.8H.22v1.3H20v3.8a.64.64,0,0,0,.6.8h1.1a.76.76,0,0,0,.6-.8v-.5a.64.64,0,0,1,.6-.8h1.2c.3,0,.6.4.6.8v.5c-.1.4.2.7.6.8h1.1a.77.77,0,0,0,.7-.8V78.8H47V77.5H27V73.7a.77.77,0,0,0-.7-.8h-1.1a.76.76,0,0,0-.6.8v.5a.64.64,0,0,1-.6.8h-1.1a.77.77,0,0,1-.7-.8v-.5c.1-.4-.2-.7-.6-.8Z"/><path class="gum" d="M47,88c-7.3,0-9.5-.2-9.5-.2s-7,8.1-14.3,8.1c-10.8,0-14.8-8.1-17.3-8.1H0" style="fill:none;stroke:#ffb900;stroke-linejoin:round;stroke-width:3px"/><path class="paradontit1" d="M47,88h-6.9c-2.1,0-3.8,11.3-17.5,11.3C12.42,99.3,8.12,87.7,7,87.7l-7,.1" style="fill:none;stroke:#ff822e;stroke-linejoin:round;stroke-width:3px"/><path class="paradontit2" d="M47,88H40c-2.3,0-1.5,0-2.7,1.4C35.12,92,33,103,22.82,103S10.32,91.3,7.72,88.7c-1.2-1.2-.3-.9-2.5-.9H0" style="fill:none;stroke:#f9610d;stroke-linejoin:round;stroke-width:3px"/><path class="paradontit3" d="M47,88H40c-2.3,0-1.7-.4-2.9,1-2.2,2.6-2.7,19.7-14.3,18.7s-12.5-16.4-15.1-19c-1.2-1.2-.3-.9-2.5-.9H0" style="fill:none;stroke:#f9610d;stroke-linejoin:round;stroke-width:3px"/><path class="paradontit4" d="M46.92,88h-5.5c-3,0-5.6,2-6.2,4.1-1.8,6.7-3.3,20.4-12,20.4S12.22,98.6,9.92,92a7,7,0,0,0-6.4-4.2H0" style="fill:none;stroke:#f75403;stroke-linejoin:round;stroke-width:3px"/><path class="periodontit" d="M16.92,132.3a4.5,4.5,0,1,1-4.5-4.5A4.55,4.55,0,0,1,16.92,132.3Zm22.7-2.5a4.5,4.5,0,1,0,4.5,4.5A4.55,4.55,0,0,0,39.62,129.8Z" style="fill:#3535ed"/></g></g></g></svg>