<svg xmlns="http://www.w3.org/2000/svg" viewBox="0 0 29.4 143.5"><title>81tooth</title><g class="Слой_2" data-name="Слой 2"><g class="Слой_1-2" data-name="Слой 1"><g class="_81" data-name="81"><path class="background" d="M.1,0h29V143.5H.1Z" style="fill:#9fdaff"/><path class="bone" d="M.1,88.4h29v55.1H.1Z" style="fill:#de82a7"/><path class="bridge" d="M29.1,74.8H.1v-4h29Zm0-29H.1v4h29Zm0-25H.1v4h29Z" style="fill:#3535ed"/><path class="root" d="M20,86.3c-.6,14.4-1.9,26.9-4.8,35.9a13.09,13.09,0,0,1-3.4,5.5c-2.2,2.1-3.4,1.4-2.7-3.7,1.8-11.3,1.5-23.7,0-36.8" style="fill:#f0e7be;stroke:#1a1715;stroke-miterlimit:10"/><path class="rootCanal" d="M16.4,87.6a144,144,0,0,1-.6,20.3c-.8,7.4-3,15.2-4.3,20a.66.66,0,0,1-1.3-.2c.6-4.9,2.5-12.5,2.9-19.8.5-9-.6-17.5-1.1-19.2,0-.1.1-.3.2-.3a8.73,8.73,0,0,0,3.7-1C16.2,87.3,16.4,87.4,16.4,87.6Z" style="fill:#3535ed;stroke:#201600;stroke-miterlimit:10;stroke-width:0.25px"/><path class="implant" d="M8.1,124.5a1.9,1.9,0,0,0,1,1.6,15.23,15.23,0,0,0,12.2-.1,1.39,1.39,0,0,0,.7-.8l-14-2Zm-.1-3,14.3,2,.1-2.4L8,118.9v2.6Zm-.1-3.9,14.5,2,.1-2.4L7.8,115Zm-.2-4.1,14.8,2.2.1-2.4L7.7,111.1v2.4Zm-.1-4,15,2.2.1-2.4L7.5,107Zm-.2-4.1,15.3,2.3.1-2.4L7.3,103.1Zm-.2-5.1,15.7,2.3.1-2.5L7.2,97.8Zm-.1-2.8L23,99.8l.1-2.6-16,.1ZM5.3,94.2a1.61,1.61,0,0,0,.4.7.91.91,0,0,0,.7.3H7.5l15-.1h1.1a.91.91,0,0,0,.7-.3,1.07,1.07,0,0,0,.2-.6V92.3h-.4L6,92.4H5.6Zm-.4-4.4a.89.89,0,0,0,.5.8.6.6,0,0,0,.4.1l18.1-.1c.2,0,.3-.1.4-.1a1,1,0,0,0,.4-.9V88.4a.94.94,0,0,0-1-1l-18.1.1a1.08,1.08,0,0,0-1,1h0l.3,1.3Z" style="fill:#3535ed"/><path class="rootMusk" d="M20,86.3c-.6,14.4-1.9,26.9-4.8,35.9a13.09,13.09,0,0,1-3.4,5.5c-2.2,2.1-3.4,1.4-2.7-3.7,1.8-11.3,1.5-23.7,0-36.8" style="fill:#f0e7be;stroke:#1a1715;stroke-miterlimit:10"/><path class="coronaLingual" d="M10.3,6.1c2.3-2.6,4.4-2,6.5-.2a13.86,13.86,0,0,1,4.4,9.2l.7,10.8c-.2,3-.2,3-2.2,3.5L10,28.8a3.4,3.4,0,0,1-3.1-2.7c-.6-3.4.3-9,1-14.3A11.26,11.26,0,0,1,10.3,6.1Z" style="fill:#fff;stroke:#1a1715;stroke-miterlimit:10;stroke-width:0.25px"/><path class="coronaLingualIncisalDistal" d="M6.8,24.5A7.72,7.72,0,0,0,7,26a3.4,3.4,0,0,0,3.1,2.7h.4V24.5Z" style="fill:#3535ed"/><path class="coronaLingualIncisalMiddle" d="M18,24.5H10.5v4.2l7.5.5Z" style="fill:#3535ed"/><path class="coronaLingualIncisionMesial" d="M21.8,24.5H18v4.7l1.8.1c2-.5,2-.5,2.2-3.5Z" style="fill:#3535ed"/><path class="coronaLingualMiddleDistal" d="M7.7,12.9c-.6,4.2-1.2,8.5-1,11.6h3.7V12.9Z" style="fill:#3535ed"/><path class="coronaLingualMiddleMiddle" d="M10.5,12.9H18V24.5H10.5Z" style="fill:#3535ed"/><path class="coronaLingualMiddleMesial" d="M21.2,15.1a19.19,19.19,0,0,0-.3-2.2H18V24.5h3.8Z" style="fill:#3535ed"/><path class="coronaLingualCervicalDistal" d="M10.3,6.1a10.47,10.47,0,0,0-2.4,5.6c-.1.4-.1.8-.2,1.3h2.7V6Z" style="fill:#3535ed"/><path class="coronaLingualCervicalMiddle" d="M18,7a5.73,5.73,0,0,0-1.1-1.1c-2.1-1.8-4.2-2.4-6.4,0v7H18Z" style="fill:#3535ed"/><path class="coronaLingualCervicalMesial" d="M18,7v5.9h2.9A14.82,14.82,0,0,0,18,7Z" style="fill:#3535ed"/><path class="coronaLabial" d="M10.4,90.9A9.13,9.13,0,0,1,8.9,86L8.5,75c-.2-2.5.5-4.2,2.4-4.7,2-1.7,5.5-2.3,8.2-2.2,1.9.6,2,.2,2.2,1.8a19.27,19.27,0,0,1,.1,2.4c-.4,5-.9,9.7-1.4,14a6.49,6.49,0,0,1-1.5,3.5C15.3,93.8,12.6,94.2,10.4,90.9Z" style="fill:#fff;stroke:#1a1715;stroke-miterlimit:10;stroke-width:0.25px"/><path class="coronaLabialIncisalDistal" d="M10.9,70.3c-1.7.5-2.4,2-2.4,4.3h2.9V70A2.19,2.19,0,0,0,10.9,70.3Z" style="fill:#3535ed"/><path class="coronaLabialIncisalMiddle" d="M11.4,70v4.6h6.8V68.1A12,12,0,0,0,11.4,70Z" style="fill:#3535ed"/><path class="coronaLabialIncisionMesial" d="M21.3,70c-.2-1.7-.3-1.2-2.2-1.8h-.9v6.5h3.1c.1-.8.1-1.5.2-2.3C21.4,71.6,21.4,70.8,21.3,70Z" style="fill:#3535ed"/><path class="coronaLabialMiddleDistal" d="M8.5,74.6v.5l.4,11a.9.9,0,0,0,.1.5h2.4V74.7H8.5Z" style="fill:#3535ed"/><path class="coronaLabialMiddleMiddle" d="M11.4,74.6h6.8V86.5H11.4Z" style="fill:#3535ed"/><path class="coronaLabialMiddleMesial" d="M18.2,74.6V86.5H20v-.2q.6-5.55,1.2-11.7Z" style="fill:#3535ed"/><path class="coronaLabialCervicalDistal" d="M9,86.5a9.13,9.13,0,0,0,1.4,4.3,4,4,0,0,0,1,1.2V86.5Z" style="fill:#3535ed"/><path class="coronaLabialCervicalMiddle" d="M11.4,86.5V92c1.9,1.8,4.2,1.3,6.8-1.7V86.5Z" style="fill:#3535ed"/><path class="coronaLabialCervicalMesial" d="M20,86.5H18.2v3.8c.1-.2.3-.3.4-.5A7.05,7.05,0,0,0,20,86.5Z" style="fill:#3535ed"/><path class="veneer" d="M13.3,73.9,11.6,75c-2.5,1.7-2.8,1.7-5.1-.2L4.9,73.5,6,75.2c1.7,2.5,1.7,2.8-.2,5.1L4.5,81.9l1.7-1.1c2.5-1.7,2.8-1.7,5.1.3l1.6,1.3-1.1-1.7c-1.7-2.5-1.7-2.8.3-5.1Zm9.4,4.5L21,79.5c-1.5,1-1.6,1-3-.1l-1.6-1.3,1.1,1.7c1,1.5,1,1.6-.1,3l-1.3,1.6,1.7-1.1c1.5-1,1.7-1,3.1.1l1.6,1.3L21.4,83c-1-1.5-1-1.7.1-3.1Zm-6.6,5.1-1.7,1.1c-1.5,1-1.6,1-3.1-.1L9.7,83.2l1.1,1.7c1,1.5,1,1.6-.1,3L9.4,89.5l1.7-1.1c1.5-1,1.6-1,3.1.1l1.6,1.3-1.1-1.7c-1-1.5-1-1.7.1-3.1Zm.6-18.7L15,65.9c-1.5,1-1.7,1-3.1-.1l-1.6-1.3,1.1,1.6c1,1.5,1,1.7-.1,3.1l-1,1.3,1.4-.9c1.5-1,1.7-1,3.1.1L16.4,71l-1.1-1.7c-1-1.5-1-1.7.1-3.1Zm8-.5L23,65.4c-1.5,1-1.6,1-3-.1L18.4,64l1.1,1.7c1,1.5,1,1.6-.1,3l-1.3,1.6,1.7-1.1c1.5-1,1.6-1,3.1.1l1.6,1.3-1.1-1.7c-1-1.5-1-1.7.1-3.1Z" style="fill:#3535ed"/><path class="coronaTop" d="M10.9,51.4,5.7,57.1a13.56,13.56,0,0,0,19.1-.8l-5.7-5.2A5.92,5.92,0,0,1,10.9,51.4Zm8.2-.4,5.7,5.2A13.56,13.56,0,0,0,24,37.1h0l-5.2,5.7A5.83,5.83,0,0,1,19.1,51Zm-.4-8.2,5.2-5.7a13.56,13.56,0,0,0-19.1.8h0l5.7,5.2A5.92,5.92,0,0,1,18.7,42.8Zm-7.8,8.6a5.83,5.83,0,0,1-.4-8.2L4.8,38a13.56,13.56,0,0,0,.8,19.1Zm3.8-10.1a5.8,5.8,0,1,1-5.8,5.8A5.8,5.8,0,0,1,14.7,41.3Z" style="fill:#fff;stroke:#000;stroke-miterlimit:10"/><path class="coronaTopBuccal" d="M10.9,51.4,5.7,57.1a13.56,13.56,0,0,0,19.1-.8l-5.7-5.2A5.92,5.92,0,0,1,10.9,51.4Z" style="fill:#3535ed"/><path class="coronaTopMedial" d="M19.1,51l5.7,5.2A13.56,13.56,0,0,0,24,37.1h0l-5.2,5.7A5.83,5.83,0,0,1,19.1,51Z" style="fill:#3535ed"/><path class="coronaTopLingual" d="M18.7,42.8l5.2-5.7a13.56,13.56,0,0,0-19.1.8h0l5.7,5.2A5.92,5.92,0,0,1,18.7,42.8Z" style="fill:#3535ed"/><path class="coronaTopDistal" d="M10.9,51.4a5.83,5.83,0,0,1-.4-8.2L4.8,38a13.56,13.56,0,0,0,.8,19.1Z" style="fill:#3535ed"/><path class="coronaTopOclusial" d="M14.7,41.4a5.8,5.8,0,1,1-5.8,5.8A5.8,5.8,0,0,1,14.7,41.4Z" style="fill:#3535ed"/><path class="silant" d="M6.3,55.1a19,19,0,0,0,6.9,1.2c5.8,0,9.2-2.2,9.2-5.4,0-2.7-2.2-4.2-6.4-5.4-3.2-.9-4.7-1.6-4.7-3.1,0-1.3,1.5-2.5,4.1-2.5a13.11,13.11,0,0,1,5,1l1.1-2.4a15.66,15.66,0,0,0-6-1.1c-5.3,0-8.4,2.4-8.4,5.3,0,2.2,2.1,4,6.5,5.1,3.3.9,4.5,1.8,4.5,3.3s-1.5,2.7-4.8,2.7a16.09,16.09,0,0,1-5.9-1.3Z" style="fill:#3535ed"/><path class="crown" d="M10.9,51.4,5.7,57.1a13.56,13.56,0,0,0,19.1-.8l-5.7-5.2A5.92,5.92,0,0,1,10.9,51.4Zm8.2-.4,5.7,5.2A13.56,13.56,0,0,0,24,37.1h0l-5.2,5.7A5.83,5.83,0,0,1,19.1,51Zm-.4-8.2,5.2-5.7a13.56,13.56,0,0,0-19.1.8h0l5.7,5.2A5.92,5.92,0,0,1,18.7,42.8Zm-7.8,8.6a5.83,5.83,0,0,1-.4-8.2L4.8,38a13.56,13.56,0,0,0,.8,19.1Zm3.8-10.1a5.8,5.8,0,1,1-5.8,5.8A5.8,5.8,0,0,1,14.7,41.3ZM10.3,6.1c2.3-2.6,4.4-2,6.5-.2a13.86,13.86,0,0,1,4.4,9.2l.7,10.8c-.2,3-.2,3-2.2,3.5L10,28.8a3.4,3.4,0,0,1-3.1-2.7c-.6-3.4.3-9,1-14.3A11.26,11.26,0,0,1,10.3,6.1Zm.1,84.8A9.13,9.13,0,0,1,8.9,86L8.5,75c-.2-2.5.5-4.2,2.4-4.7,2-1.7,5.5-2.3,8.2-2.2,1.9.6,2,.2,2.2,1.8a19.27,19.27,0,0,1,.1,2.4c-.4,5-.9,9.7-1.4,14a6.49,6.49,0,0,1-1.5,3.5C15.3,93.8,12.6,94.2,10.4,90.9Z" style="fill:#fff;stroke:#000;stroke-miterlimit:10"/><path class="braces" d="M13,76.8a2,2,0,0,0,1.1.2h1.2a3.55,3.55,0,0,0,1-.2h0v2.7a3.55,3.55,0,0,0-1-.2H14.1a4.25,4.25,0,0,0-1.1.2V76.8h0m4.6-3.9H16.5c-.4.1-.7.4-.6.8v.5c0,.4-.3.8-.6.8H14.2a.64.64,0,0,1-.6-.8v-.5a.76.76,0,0,0-.6-.8H11.9a.64.64,0,0,0-.6.8v3.8H.4v1.3H11.3v3.8c0,.4.3.8.6.8H13c.4-.1.7-.4.6-.8v-.5c0-.4.3-.8.6-.8h1.2a.77.77,0,0,1,.7.8v.5a.76.76,0,0,0,.6.8h1.1a.77.77,0,0,0,.7-.8V78.8H29.3V77.5H18.4V73.7c-.1-.4-.4-.8-.8-.8Z"/><path class="gum" d="M29.1,87.5a66.33,66.33,0,0,1-7.9-.2c-1.4,1.4-2.1,7.2-7.2,7.4-3.7,0-4.5-5.5-5.8-6.2L.1,88.4" style="fill:none;stroke:#ffb900;stroke-linejoin:round;stroke-width:3px"/><path class="paradontit1" d="M29.1,87.5c-5.4,0-8.7,10.2-14,10.3-6.8,0-5.3-9.3-15-9.3" style="fill:none;stroke:#ff822e;stroke-linejoin:round;stroke-width:3px"/><path class="paradontit2" d="M29.1,87.5H27.9a3.89,3.89,0,0,0-3.5,3.1c-1.6,6.3-4.7,9.8-8.8,10s-5-.9-7.7-7.6c-2.3-5.9-6-4.6-7.8-4.6" style="fill:none;stroke:#f9610d;stroke-linejoin:round;stroke-width:3px"/><path class="paradontit3" d="M.1,88.4c2.3,0,8.2,0,9.1,4.2,1.2,6.4,1,12.8,6.7,11.8s5.6-7.7,7.2-14c.5-1.9,1.4-2.9,6-2.9" style="fill:none;stroke:#f9610d;stroke-linejoin:round;stroke-width:3px"/><path class="paradontit4" d="M29.1,87.6s-6.2,0-7.2,3.9c-1.3,8.8-.7,17.9-7.2,17.9S8.6,99.3,7.3,90.5c-.3-1.9-5-2-7.3-2" style="fill:none;stroke:#f75403;stroke-linejoin:round;stroke-width:3px"/><path class="periodontit" d="M12,127.3a4.5,4.5,0,1,1-4.5,4.5A4.48,4.48,0,0,1,12,127.3Z" style="fill:#3535ed"/></g></g></g></svg>