<svg xmlns="http://www.w3.org/2000/svg" viewBox="0 0 29.3 143.6"><title>81tooth</title><g class="Слой_2" data-name="Слой 2"><g class="Слой_1-2" data-name="Слой 1"><g class="_81" data-name="81"><path class="background" d="M0,0H29V143.6H0Z" style="fill:#9fdaff"/><path class="bone" d="M0,88.5H29v55.1H0Z" style="fill:#de82a7"/><path class="bridge" d="M29,74.8H0v-4H29Zm0-29H0v4H29Zm0-25H0v4H29Z" style="fill:#3535ed"/><path class="root" d="M19.9,86.3c-.6,14.4-1.9,26.9-4.8,35.9a13.09,13.09,0,0,1-3.4,5.5c-2.2,2.1-3.4,1.4-2.7-3.7,1.8-11.3,1.5-23.7,0-36.8" style="fill:#f0e7be;stroke:#1a1715;stroke-miterlimit:10"/><path class="rootCanal" d="M16.3,87.6a144,144,0,0,1-.6,20.3c-.8,7.4-3,15.2-4.3,20a.66.66,0,0,1-1.3-.2c.6-4.9,2.5-12.5,2.9-19.8.5-9-.6-17.5-1.1-19.2,0-.1.1-.3.2-.3a8.73,8.73,0,0,0,3.7-1C16.1,87.3,16.3,87.4,16.3,87.6Z" style="fill:#3535ed;stroke:#201600;stroke-miterlimit:10;stroke-width:0.25px"/><path class="implant" d="M8,124.5a1.9,1.9,0,0,0,1,1.6,15.23,15.23,0,0,0,12.2-.1,1.39,1.39,0,0,0,.7-.8l-14-2Zm-.1-3,14.3,2,.1-2.4L7.9,118.9v2.6Zm-.1-3.9,14.5,2,.1-2.4L7.7,115Zm-.2-4.1,14.8,2.2.1-2.4L7.6,111.1v2.4Zm-.1-4,15,2.2.1-2.4L7.4,107Zm-.2-4.1,15.3,2.3.1-2.4L7.2,103.1Zm-.2-5.1,15.7,2.3.1-2.5L7.1,97.8ZM7,97.5l15.9,2.3.1-2.6L7,97.3ZM5.2,94.2a1.61,1.61,0,0,0,.4.7.91.91,0,0,0,.7.3H7.4l15-.1h1.1a.91.91,0,0,0,.7-.3,1.07,1.07,0,0,0,.2-.6V92.3H24l-18.1.1H5.5Zm-.4-4.4a.89.89,0,0,0,.5.8.6.6,0,0,0,.4.1l18.1-.1c.2,0,.3-.1.4-.1a1,1,0,0,0,.4-.9V88.4a.94.94,0,0,0-1-1l-18.1.1a1.08,1.08,0,0,0-1,1h0l.3,1.3Z" style="fill:#3535ed"/><path class="rootMask" d="M19.9,86.3c-.6,14.4-1.9,26.9-4.8,35.9a13.09,13.09,0,0,1-3.4,5.5c-2.2,2.1-3.4,1.4-2.7-3.7,1.8-11.3,1.5-23.7,0-36.8" style="fill:#f0e7be;stroke:#1a1715;stroke-miterlimit:10"/><path class="coronaLingual" d="M10.2,6.1c2.3-2.6,4.4-2,6.5-.2a13.86,13.86,0,0,1,4.4,9.2l.7,10.8c-.2,3-.2,3-2.2,3.5l-9.7-.6a3.4,3.4,0,0,1-3.1-2.7c-.6-3.4.3-9,1-14.3A11.26,11.26,0,0,1,10.2,6.1Z" style="fill:#fff;stroke:#1a1715;stroke-miterlimit:10;stroke-width:0.25px"/><path class="coronaLingualIncisionDistal" d="M6.7,24.5A7.72,7.72,0,0,0,6.9,26,3.4,3.4,0,0,0,10,28.7h.4V24.5Z" style="fill:#3535ed"/><path class="coronaLingualIncisalMiddle" d="M17.9,24.5H10.4v4.2l7.5.5Z" style="fill:#3535ed"/><path class="coronaLingualIncisionMesial" d="M21.7,24.5H17.9v4.7l1.8.1c2-.5,2-.5,2.2-3.5Z" style="fill:#3535ed"/><path class="coronaLingualMiddleDistal" d="M7.6,12.9c-.6,4.2-1.2,8.5-1,11.6h3.7V12.9Z" style="fill:#3535ed"/><path class="coronaLingualMiddleMiddle" d="M10.4,12.9h7.5V24.5H10.4Z" style="fill:#3535ed"/><path class="coronaLingualMiddleMesial" d="M21.1,15.1a19.19,19.19,0,0,0-.3-2.2H17.9V24.5h3.8Z" style="fill:#3535ed"/><path class="coronaLingualCervicalDistal" d="M10.2,6.1a10.47,10.47,0,0,0-2.4,5.6c-.1.4-.1.8-.2,1.3h2.7V6Z" style="fill:#3535ed"/><path class="coronaLingualCervicalMiddle" d="M17.9,7a5.73,5.73,0,0,0-1.1-1.1c-2.1-1.8-4.2-2.4-6.4,0v7h7.5Z" style="fill:#3535ed"/><path class="coronaLingualCervicalMesial" d="M17.9,7v5.9h2.9A14.82,14.82,0,0,0,17.9,7Z" style="fill:#3535ed"/><path class="coronaLabial" d="M10.3,90.9A9.13,9.13,0,0,1,8.8,86L8.4,75c-.2-2.5.5-4.2,2.4-4.7,2-1.7,5.5-2.3,8.2-2.2,1.9.6,2,.2,2.2,1.8a19.27,19.27,0,0,1,.1,2.4c-.4,5-.9,9.7-1.4,14a6.49,6.49,0,0,1-1.5,3.5C15.2,93.8,12.5,94.2,10.3,90.9Z" style="fill:#fff;stroke:#1a1715;stroke-miterlimit:10;stroke-width:0.25px"/><path class="coronaLabialIncisalDistal" d="M10.8,70.3c-1.7.5-2.4,2-2.4,4.3h2.9V70A2.19,2.19,0,0,0,10.8,70.3Z" style="fill:#3535ed"/><path class="coronaLabialIncisalMiddle" d="M11.3,70v4.6h6.8V68.1A12,12,0,0,0,11.3,70Z" style="fill:#3535ed"/><path class="coronaLabialIncisionMesial" d="M21.2,70c-.2-1.7-.3-1.2-2.2-1.8h-.9v6.5h3.1c.1-.8.1-1.5.2-2.3C21.3,71.6,21.3,70.8,21.2,70Z" style="fill:#3535ed"/><path class="coronaLabialMiddleDistal" d="M8.4,74.6v.5l.4,11a.9.9,0,0,0,.1.5h2.4V74.7H8.4Z" style="fill:#3535ed"/><path class="coronaLabialMiddleMiddle" d="M11.3,74.6h6.8V86.5H11.3Z" style="fill:#3535ed"/><path class="coronaLabialMiddleMesial" d="M18.1,74.6V86.5h1.8v-.2q.6-5.55,1.2-11.7Z" style="fill:#3535ed"/><path class="coronaLabialCervicalDistal" d="M8.9,86.5a9.13,9.13,0,0,0,1.4,4.3,4,4,0,0,0,1,1.2V86.5Z" style="fill:#3535ed"/><path class="coronaLabialCervicalMiddle" d="M11.3,86.5V92c1.9,1.8,4.2,1.3,6.8-1.7V86.5Z" style="fill:#3535ed"/><path class="coronaLabialCervicalMesial" d="M19.9,86.5H18.1v3.8c.1-.2.3-.3.4-.5A7.05,7.05,0,0,0,19.9,86.5Z" style="fill:#3535ed"/><path class="veneer" d="M13.2,73.9,11.5,75c-2.5,1.7-2.8,1.7-5.1-.2L4.8,73.5l1.1,1.7c1.7,2.5,1.7,2.8-.2,5.1L4.4,81.9l1.7-1.1c2.5-1.7,2.8-1.7,5.1.3l1.6,1.3-1.1-1.7c-1.7-2.5-1.7-2.8.3-5.1Zm9.4,4.5-1.7,1.1c-1.5,1-1.6,1-3-.1l-1.6-1.3,1.1,1.7c1,1.5,1,1.6-.1,3L16,84.4l1.7-1.1c1.5-1,1.7-1,3.1.1l1.6,1.3L21.3,83c-1-1.5-1-1.7.1-3.1ZM16,83.5l-1.7,1.1c-1.5,1-1.6,1-3.1-.1L9.6,83.2l1.1,1.7c1,1.5,1,1.6-.1,3L9.3,89.5,11,88.4c1.5-1,1.6-1,3.1.1l1.6,1.3-1.1-1.7c-1-1.5-1-1.7.1-3.1Zm.6-18.7-1.7,1.1c-1.5,1-1.7,1-3.1-.1l-1.6-1.3,1.1,1.6c1,1.5,1,1.7-.1,3.1l-1,1.3,1.4-.9c1.5-1,1.7-1,3.1.1L16.3,71l-1.1-1.7c-1-1.5-1-1.7.1-3.1Zm8-.5-1.7,1.1c-1.5,1-1.6,1-3-.1L18.3,64l1.1,1.7c1,1.5,1,1.6-.1,3L18,70.3l1.7-1.1c1.5-1,1.6-1,3.1.1l1.6,1.3-1.1-1.7c-1-1.5-1-1.7.1-3.1Z" style="fill:#3535ed"/><path class="coronaTop" d="M10.8,51.4,5.6,57.1a13.56,13.56,0,0,0,19.1-.8L19,51.1A5.92,5.92,0,0,1,10.8,51.4ZM19,51l5.7,5.2a13.56,13.56,0,0,0-.8-19.1h0l-5.2,5.7A5.83,5.83,0,0,1,19,51Zm-.4-8.2,5.2-5.7a13.56,13.56,0,0,0-19.1.8h0l5.7,5.2A5.92,5.92,0,0,1,18.6,42.8Zm-7.8,8.6a5.83,5.83,0,0,1-.4-8.2L4.7,38a13.56,13.56,0,0,0,.8,19.1Zm3.8-10.1a5.8,5.8,0,1,1-5.8,5.8A5.8,5.8,0,0,1,14.6,41.3Z" style="fill:#fff;stroke:#000;stroke-miterlimit:10"/><path class="coronaTopBuccal" d="M10.8,51.4,5.6,57.1a13.56,13.56,0,0,0,19.1-.8L19,51.1A5.92,5.92,0,0,1,10.8,51.4Z" style="fill:#3535ed"/><path class="coronaTopMedial" d="M19,51l5.7,5.2a13.56,13.56,0,0,0-.8-19.1h0l-5.2,5.7A5.83,5.83,0,0,1,19,51Z" style="fill:#3535ed"/><path class="coronaTopLingual" d="M18.6,42.8l5.2-5.7a13.56,13.56,0,0,0-19.1.8h0l5.7,5.2A5.92,5.92,0,0,1,18.6,42.8Z" style="fill:#3535ed"/><path class="coronaTopDistal" d="M10.8,51.4a5.83,5.83,0,0,1-.4-8.2L4.7,38a13.56,13.56,0,0,0,.8,19.1Z" style="fill:#3535ed"/><path class="coronaTopOclusial" d="M14.6,41.4a5.8,5.8,0,1,1-5.8,5.8A5.8,5.8,0,0,1,14.6,41.4Z" style="fill:#3535ed"/><path class="silant" d="M6.2,55.1a19,19,0,0,0,6.9,1.2c5.8,0,9.2-2.2,9.2-5.4,0-2.7-2.2-4.2-6.4-5.4-3.2-.9-4.7-1.6-4.7-3.1,0-1.3,1.5-2.5,4.1-2.5a13.11,13.11,0,0,1,5,1l1.1-2.4a15.66,15.66,0,0,0-6-1.1c-5.3,0-8.4,2.4-8.4,5.3,0,2.2,2.1,4,6.5,5.1,3.3.9,4.5,1.8,4.5,3.3s-1.5,2.7-4.8,2.7a16.09,16.09,0,0,1-5.9-1.3Z" style="fill:#3535ed"/><path class="crown" d="M10.8,51.4,5.6,57.1a13.56,13.56,0,0,0,19.1-.8L19,51.1A5.92,5.92,0,0,1,10.8,51.4ZM19,51l5.7,5.2a13.56,13.56,0,0,0-.8-19.1h0l-5.2,5.7A5.83,5.83,0,0,1,19,51Zm-.4-8.2,5.2-5.7a13.56,13.56,0,0,0-19.1.8h0l5.7,5.2A5.92,5.92,0,0,1,18.6,42.8Zm-7.8,8.6a5.83,5.83,0,0,1-.4-8.2L4.7,38a13.56,13.56,0,0,0,.8,19.1Zm3.8-10.1a5.8,5.8,0,1,1-5.8,5.8A5.8,5.8,0,0,1,14.6,41.3ZM10.2,6.1c2.3-2.6,4.4-2,6.5-.2a13.86,13.86,0,0,1,4.4,9.2l.7,10.8c-.2,3-.2,3-2.2,3.5l-9.7-.6a3.4,3.4,0,0,1-3.1-2.7c-.6-3.4.3-9,1-14.3A11.26,11.26,0,0,1,10.2,6.1Zm.1,84.8A9.13,9.13,0,0,1,8.8,86L8.4,75c-.2-2.5.5-4.2,2.4-4.7,2-1.7,5.5-2.3,8.2-2.2,1.9.6,2,.2,2.2,1.8a19.27,19.27,0,0,1,.1,2.4c-.4,5-.9,9.7-1.4,14a6.49,6.49,0,0,1-1.5,3.5C15.2,93.8,12.5,94.2,10.3,90.9Z" style="fill:#fff;stroke:#000;stroke-miterlimit:10"/><path class="braces" d="M12.9,76.8A2,2,0,0,0,14,77h1.2a3.55,3.55,0,0,0,1-.2h0v2.7a3.55,3.55,0,0,0-1-.2H14a4.25,4.25,0,0,0-1.1.2V76.8h0m4.6-3.9H16.4c-.4.1-.7.4-.6.8v.5c0,.4-.3.8-.6.8H14.1a.64.64,0,0,1-.6-.8v-.5a.76.76,0,0,0-.6-.8H11.8a.64.64,0,0,0-.6.8v3.8H0v1.3H11.2v3.8c0,.4.3.8.6.8h1.1c.4-.1.7-.4.6-.8v-.5c0-.4.3-.8.6-.8h1.2a.77.77,0,0,1,.7.8v.5a.76.76,0,0,0,.6.8h1.1a.77.77,0,0,0,.7-.8V78.8H29V77.5H18.3V73.7c-.1-.4-.4-.8-.8-.8Z"/><path class="gum" d="M29,87.5a66.33,66.33,0,0,1-7.9-.2c-1.4,1.4-2.1,7.2-7.2,7.4-3.7,0-4.5-5.5-5.8-6.2l-6.6-.1H0" style="fill:none;stroke:#ffb900;stroke-linejoin:round;stroke-width:3px"/><path class="paradontit1" d="M29,87.5c-5.4,0-8.7,10.2-14,10.3-6.8,0-5.3-9.3-15-9.3" style="fill:none;stroke:#ff822e;stroke-linejoin:round;stroke-width:3px"/><path class="paradontit2" d="M29,87.5H27.8a3.89,3.89,0,0,0-3.5,3.1c-1.6,6.3-4.7,9.8-8.8,10s-5-.9-7.7-7.6c-2.3-5.9-6-4.6-7.8-4.6" style="fill:none;stroke:#f9610d;stroke-linejoin:round;stroke-width:3px"/><path class="paradontit3" d="M0,88.4c2.3,0,8.2,0,9.1,4.2,1.2,6.4,1,12.8,6.7,11.8s5.6-7.7,7.2-14c.5-1.9,1.4-2.9,6-2.9" style="fill:none;stroke:#f9610d;stroke-linejoin:round;stroke-width:3px"/><path class="paradontit4" d="M29,87.6s-6.2,0-7.2,3.9c-1.3,8.8-.7,17.9-7.2,17.9S8.5,99.3,7.2,90.5c-.3-1.9-4.9-2-7.2-2" style="fill:none;stroke:#f75403;stroke-linejoin:round;stroke-width:3px"/><path class="periodontit" d="M11.9,127.3a4.5,4.5,0,1,1-4.5,4.5A4.48,4.48,0,0,1,11.9,127.3Z" style="fill:#3535ed"/></g></g></g></svg>