<svg xmlns="http://www.w3.org/2000/svg" viewBox="0 0 30 143.6"><title>83tooth</title><g class="Слой_2" data-name="Слой 2"><g class="Слой_1-2" data-name="Слой 1"><g class="_83" data-name="83"><path class="background" d="M30,0V143.6H0V0Z" style="fill:#9fdaff"/><path class="bone" d="M30,88.4v55.2H0V88.4Z" style="fill:#de82a7"/><path class="bridge" d="M30,24.9H0v-4H30Zm0,21H0v4H30Zm0,25H0v4H30Z" style="fill:#3535ed"/><path class="root" d="M10.2,90a239.07,239.07,0,0,1,2.9,34.1,5.09,5.09,0,0,0,.5,2.2,1.35,1.35,0,0,0,2.3.5,4.56,4.56,0,0,0,1.7-2.9,195.66,195.66,0,0,0,3.6-34" style="fill:#f0e7be;stroke:#1a1715;stroke-miterlimit:10"/><path class="rootCanal" d="M14.6,127.2a.71.71,0,0,1-.6-.3.78.78,0,0,1-.2-.8c.6-10.5,1.1-25.7-.6-38.4,0-.2,0-.3.1-.4a2.33,2.33,0,0,1,1.9-1.4c1.5,0,3,1.7,3.4,2.3a.44.44,0,0,1,.1.5c-1.2,17.4-2.3,29.7-3.4,37.7A.71.71,0,0,1,14.6,127.2ZM15.2,86c1.4,0,2.9,1.7,3.3,2.2.1.1.1.2.1.4-1.2,17.4-2.3,29.7-3.4,37.7-.1.5-.4.7-.7.7a.76.76,0,0,1-.5-.2.84.84,0,0,1-.2-.7c.6-10.5,1.1-25.7-.6-38.4a.37.37,0,0,1,.1-.3A2.33,2.33,0,0,1,15.2,86m0-.2c-.7,0-1.4.4-2,1.5a.75.75,0,0,0-.1.5c1.5,11.9,1.3,26.4.6,38.4a1.06,1.06,0,0,0,1,1.2.89.89,0,0,0,.9-.9c.9-7.1,2-18.5,3.4-37.7a.73.73,0,0,0-.2-.6c-.6-.8-2.1-2.4-3.6-2.4Z" style="fill:none"/><path class="implant" d="M6,124.5a1.78,1.78,0,0,0,1,1.6,15.23,15.23,0,0,0,12.2-.1,1.39,1.39,0,0,0,.7-.8l-14-2.1Zm-.1-3,14.3,2.1.1-2.4L5.9,119v2.5Zm-.1-4,14.5,2.2.1-2.4L5.7,115.1Zm-.2-4,14.8,2.2.1-2.4-15-2.2Zm-.1-4.1,15,2.2.1-2.4L5.4,106.9Zm-.2-4,15.3,2.3.1-2.4L5.1,103Zm-.2-5.1,15.7,2.3.1-2.4L5.1,97.9ZM5,97.4l15.9,2.3.1-2.6L5,97.2ZM3.4,94.5a1.07,1.07,0,0,0,.2.6.91.91,0,0,0,.7.3H5.4l15-.1h1.1a.91.91,0,0,0,.7-.3,1.07,1.07,0,0,0,.2-.6V92.5H22l-18.1.1H3.5Zm-.6-4.8a1,1,0,0,0,.4.8.6.6,0,0,0,.4.1l18.1-.1c.2,0,.3-.1.4-.1a.91.91,0,0,0,.4-.8V88.3a.94.94,0,0,0-1-1h0l-18.1.1a1.08,1.08,0,0,0-1,1h0v1.3Z" style="fill:#3535ed"/><path class="rootMask" d="M10.2,90a239.07,239.07,0,0,1,2.9,34.1,5.09,5.09,0,0,0,.5,2.2,1.35,1.35,0,0,0,2.3.5,4.56,4.56,0,0,0,1.7-2.9,195.66,195.66,0,0,0,3.6-34" style="fill:#f0e7be;stroke:#1a1715;stroke-miterlimit:10"/><path class="coronaLingual" d="M5.2,12.6a25.83,25.83,0,0,0,.5,9.9,11.94,11.94,0,0,0,2.1,4.4c5.5,7,9.7,3.5,13.5-2.6,3.5-5.7,3.7-11.4,0-17.1C16.3.3,11.4,1.7,6.7,8.8A11.18,11.18,0,0,0,5.2,12.6Z" style="fill:#fff;stroke:#1a1715;stroke-miterlimit:10;stroke-width:0.25px"/><path class="coronaLingualIncisalDistal" d="M6.3,24.5A12.75,12.75,0,0,0,7.8,27,12.41,12.41,0,0,0,11,30V24.5Z" style="fill:#3535ed"/><path class="coronaLingualIncisalMiddle" d="M11,24.5V30c3.1,1.9,5.7.4,8.2-2.6V24.5Z" style="fill:#3535ed"/><path class="coronaLingualIncisionMesial" d="M19.2,24.5v2.9a16.39,16.39,0,0,0,2-2.9Z" style="fill:#3535ed"/><path class="coronaLingualMiddleDistal" d="M5.2,12.9a24.32,24.32,0,0,0,.5,9.6,15.87,15.87,0,0,0,.7,2H11V12.9Z" style="fill:#3535ed"/><path class="coronaLingualMiddleMiddle" d="M11,12.9h8.2V24.5H11Z" style="fill:#3535ed"/><path class="coronaLingualMiddleMesial" d="M23.7,12.9H19.2V24.5h2a.1.1,0,0,1,.1-.1C23.6,20.6,24.5,16.8,23.7,12.9Z" style="fill:#3535ed"/><path class="coronaLingualCervicalDistal" d="M6.7,8.9a10,10,0,0,0-1.5,3.7v.3H11V4.1A18.69,18.69,0,0,0,6.7,8.9Z" style="fill:#3535ed"/><path class="coronaLingualCervicalMiddle" d="M19.2,4.9c-2.8-2.6-5.5-2.7-8.2-.8v8.8h8.2Z" style="fill:#3535ed"/><path class="coronaLingualCervicalMesial" d="M21.3,7.3a17.15,17.15,0,0,0-2.1-2.4v8h4.5A17.87,17.87,0,0,0,21.3,7.3Z" style="fill:#3535ed"/><path class="coronaLabial" d="M7.8,75.5c5.6-9.5,10.8-10.3,15.4-.1,1.4,6.5.8,11.9-2,16.1-3.9,6.1-7.7,6.2-11.4-.8C7.6,88,6.6,84.3,6.6,79.8A10.64,10.64,0,0,1,7.8,75.5Z" style="fill:#fff;stroke:#1a1715;stroke-miterlimit:10;stroke-width:0.25px"/><path class="coronaLabialIncisalDistal" d="M8.4,74.6h4V69.7A21.44,21.44,0,0,0,8.4,74.6Z" style="fill:#3535ed"/><path class="coronaLabialIncisalMiddle" d="M12.4,69.7v4.9h7.3V69.8C17.4,67.5,14.9,67.5,12.4,69.7Z" style="fill:#3535ed"/><path class="coronaLabialIncisionMesial" d="M19.7,69.8v4.8h3.2A19.87,19.87,0,0,0,19.7,69.8Z" style="fill:#3535ed"/><path class="coronaLabialMiddleDistal" d="M8.4,74.6l-.6.9a8.31,8.31,0,0,0-1.2,4.4,20.07,20.07,0,0,0,1,6.7h4.8V74.7h-4Z" style="fill:#3535ed"/><path class="coronaLabialMiddleMiddle" d="M12.4,74.6h7.3V86.5H12.4Z" style="fill:#3535ed"/><path class="coronaLabialMiddleMesial" d="M23.3,75.4a5.94,5.94,0,0,0-.4-.8H19.7V86.5h3.7A23.17,23.17,0,0,0,23.3,75.4Z" style="fill:#3535ed"/><path class="coronaLabialCervicalDistal" d="M7.6,86.5a12,12,0,0,0,2.2,4.2,16.86,16.86,0,0,0,2.6,3.7V86.5Z" style="fill:#3535ed"/><path class="coronaLabialCervicalMiddle" d="M12.4,86.5v7.9c2.4,2.4,4.8,2.1,7.3-.8V86.5Z" style="fill:#3535ed"/><path class="coronaLabialCervicalMesial" d="M23.4,86.5H19.7v7.1c.5-.6,1-1.3,1.6-2.1A14,14,0,0,0,23.4,86.5Z" style="fill:#3535ed"/><path class="veneer" d="M12.5,78.4,11.3,80c-1.7,2.4-2,2.5-4.9,1.5l-1.8-.7L6.2,82c2.3,1.7,2.4,2,1.5,4.9L7,88.8l1.2-1.6c1.7-2.4,2-2.5,4.9-1.5l1.8.7-1.6-1.2c-2.3-1.7-2.5-2-1.5-4.9Zm10.3.9-1.2,1.6c-1.1,1.4-1.2,1.5-2.9,1l-1.8-.7,1.6,1.2c1.4,1.1,1.5,1.2,1,2.9l-.7,1.9L20,85.6c1.1-1.4,1.2-1.5,2.9-1l1.8.7-1.6-1.2c-1.4-1.1-1.5-1.2-1-2.9Zm-4.3,7.1L17.3,88c-1.1,1.4-1.2,1.5-2.9,1l-1.8-.7,1.6,1.2c1.4,1.1,1.5,1.2,1,2.9l-.7,1.9,1.2-1.6c1.1-1.4,1.2-1.5,2.9-1l1.8.7-1.6-1.2c-1.4-1.1-1.5-1.2-1-3Zm-6-17.6-1.2,1.6c-1.1,1.4-1.2,1.5-2.9,1l-1.8-.7,1.6,1.1c1.4,1.1,1.5,1.2,1,2.9l-.7,1.9L9.7,75c1.1-1.4,1.2-1.5,2.9-1l1.8.7-1.6-1.2c-1.4-1.1-1.5-1.2-1-3Zm7.3-3.3-1.2,1.6c-1.1,1.4-1.2,1.5-2.9,1l-1.8-.7,1.6,1.2c1.4,1.1,1.5,1.2,1,2.9l-.7,1.9L17,71.8c1.1-1.4,1.2-1.5,2.9-1l1.8.7-1.6-1.2c-1.4-1.1-1.5-1.2-1-3Z" style="fill:#3535ed"/><path class="coronaTop" d="M11.2,51.5,6,57.2a13.56,13.56,0,0,0,19.1-.8l-5.7-5.2A5.83,5.83,0,0,1,11.2,51.5Zm8.2-.3,5.7,5.2a13.56,13.56,0,0,0-.8-19.1L19.1,43a5.92,5.92,0,0,1,.3,8.2ZM19,43l5.2-5.7a13.56,13.56,0,0,0-19.1.8h0l5.7,5.2A5.83,5.83,0,0,1,19,43Zm-7.8,8.5a5.83,5.83,0,0,1-.4-8.2L5.1,38.1a13.56,13.56,0,0,0,.8,19.1ZM10,44.3a5.78,5.78,0,1,1,2.1,7.9A5.76,5.76,0,0,1,10,44.3Z" style="fill:#fff;stroke:#000;stroke-miterlimit:10"/><path class="coronaTopBuccal" d="M11.2,51.5,6,57.2a13.56,13.56,0,0,0,19.1-.8l-5.7-5.2A5.83,5.83,0,0,1,11.2,51.5Z" style="fill:#3535ed"/><path class="coronaTopMedial" d="M19.4,51.2l5.7,5.2a13.56,13.56,0,0,0-.8-19.1L19.1,43a5.92,5.92,0,0,1,.3,8.2Z" style="fill:#3535ed"/><path class="coronaTopLingual" d="M19,43l5.2-5.7a13.56,13.56,0,0,0-19.1.8h0l5.7,5.2A5.83,5.83,0,0,1,19,43Z" style="fill:#3535ed"/><path class="coronaTopDistal" d="M11.2,51.5a5.83,5.83,0,0,1-.4-8.2L5.1,38.1a13.56,13.56,0,0,0,.8,19.1Z" style="fill:#3535ed"/><path class="coronaTopOclusial" d="M10,44.3a5.78,5.78,0,1,1,2.1,7.9A5.76,5.76,0,0,1,10,44.3Z" style="fill:#3535ed"/><path class="silant" d="M7.1,55.3A19,19,0,0,0,14,56.5c5.8,0,9.2-2.2,9.2-5.4,0-2.7-2.2-4.2-6.4-5.4-3.2-.9-4.7-1.6-4.7-3.1,0-1.3,1.5-2.5,4.1-2.5a13.11,13.11,0,0,1,5,1l1.1-2.4a15.66,15.66,0,0,0-6-1.1c-5.3,0-8.4,2.4-8.4,5.3,0,2.2,2.1,4,6.5,5.1,3.3.9,4.5,1.8,4.5,3.3S17.4,54,14.1,54a16.09,16.09,0,0,1-5.9-1.3Z" style="fill:#3535ed"/><path class="crown" d="M11.2,51.5,6,57.2a13.56,13.56,0,0,0,19.1-.8l-5.7-5.2A5.83,5.83,0,0,1,11.2,51.5Zm8.2-.3,5.7,5.2a13.56,13.56,0,0,0-.8-19.1L19.1,43a5.92,5.92,0,0,1,.3,8.2ZM19,43l5.2-5.7a13.56,13.56,0,0,0-19.1.8h0l5.7,5.2A5.83,5.83,0,0,1,19,43Zm-7.8,8.5a5.83,5.83,0,0,1-.4-8.2L5.1,38.1a13.56,13.56,0,0,0,.8,19.1ZM10,44.3a5.78,5.78,0,1,1,2.1,7.9A5.76,5.76,0,0,1,10,44.3ZM6.7,8.9C11.4,1.8,16.2.4,21.3,7.3c3.7,5.7,3.5,11.4,0,17.1-3.8,6-7.9,9.5-13.5,2.6a10.55,10.55,0,0,1-2.1-4.4,25.83,25.83,0,0,1-.5-9.9A9.78,9.78,0,0,1,6.7,8.9ZM7.8,75.5c5.6-9.5,10.8-10.3,15.4-.1,1.4,6.5.8,11.9-2,16.1-3.9,6.1-7.7,6.2-11.4-.8C7.6,88,6.6,84.3,6.6,79.8A10.64,10.64,0,0,1,7.8,75.5Z" style="fill:#fff;stroke:#000;stroke-miterlimit:10"/><path class="braces" d="M13.1,76.8a2,2,0,0,0,1.1.2h1.2a3.55,3.55,0,0,0,1-.2h0v2.7a3.55,3.55,0,0,0-1-.2H14.2a4.25,4.25,0,0,0-1.1.2V76.8h0m4.6-3.9H16.6c-.4.1-.7.4-.6.8v.5c0,.4-.3.8-.6.8H14.3a.64.64,0,0,1-.6-.8v-.5a.76.76,0,0,0-.6-.8H12a.64.64,0,0,0-.6.8v3.8H0v1.3H11.4v3.8c0,.4.3.8.6.8h1.1c.4-.1.7-.4.6-.8v-.5c0-.4.3-.8.6-.8h1.2a.77.77,0,0,1,.7.8v.5a.76.76,0,0,0,.6.8h1.1a.77.77,0,0,0,.7-.8V78.8H30V77.5H18.3V73.7a.64.64,0,0,0-.6-.8Z"/><path class="gum" d="M0,88.5H7.4s2.5,8.7,8,8.7,8.9-8.9,8.9-8.9H30" style="fill:none;stroke:#ffb900;stroke-linejoin:round;stroke-width:3px"/><path class="paradontit1" d="M0,88.5H5.3c1.5,0,2.1.8,2.8,2.1,1.6,2.8,3.1,9.9,6.9,9.9,3.5,0,8.1-6.8,9.1-9.6a4.07,4.07,0,0,1,3.7-2.7H30" style="fill:none;stroke:#ff822e;stroke-linejoin:round;stroke-width:3px"/><path class="paradontit2" d="M0,88.5H3.9c1.6,0,2.7,0,3.5,1.5,1.9,4,.9,12.7,7.4,13.7s9.9-9.4,11.5-13.5c.9-2.1,3.7-2.1,3.7-2.1" style="fill:none;stroke:#f9610d;stroke-linejoin:round;stroke-width:3px"/><path class="paradontit3" d="M.1,88.5H3.9c1.6,0,2.8,0,3.5,1.5,1.9,4,.9,17.6,8.3,17.6S26.8,88.7,27.6,88.4a10.65,10.65,0,0,1,2.4-.3" style="fill:none;stroke:#f9610d;stroke-linejoin:round;stroke-width:3px"/><path class="paradontit4" d="M0,88.5H3.2a4.23,4.23,0,0,1,4,3.4c1.8,7,.9,19.7,8.3,19.7S25.3,99.1,26.8,92c.4-1.9,1.6-3.6,3.2-3.6" style="fill:none;stroke:#f75403;stroke-linejoin:round;stroke-width:3px"/><path class="periodontit" d="M16.4,126.4c2.7.4,4.5.3,4.5,4.5a4.5,4.5,0,0,1-9,0A4.36,4.36,0,0,1,16.4,126.4Z" style="fill:#3535ed"/></g></g></g></svg>