<svg xmlns="http://www.w3.org/2000/svg" viewBox="0 0 44.06 143.5"><title>84tooth</title><g class="Слой_2" data-name="Слой 2"><g class="Слой_1-2" data-name="Слой 1"><g class="_84" data-name="84"><path class="background" d="M0,0H44V143.5H0V0Z" style="fill:#9fdaff"/><path class="bone" d="M0,88.4H44v55.1H0V88.4Z" style="fill:#de82a7"/><path class="bridge" d="M44,49.9H0v-4H44v4Zm0-29H0v4H44v-4Zm0,50H0v4H44v-4Z" style="fill:#3535ed"/><path class="root" d="M9.92,90.9c-3.2,12.1-5.5,23.7-5.3,33.1a15.51,15.51,0,0,0,1.1,5.6c.9,2.3,2,2.6,3.1.7a9.64,9.64,0,0,0,1-3l2.7-15.1a13.2,13.2,0,0,1,4.8-8.5,6.61,6.61,0,0,1,5.1-1.3,8.13,8.13,0,0,1,5,4c2.5,4.2,7.8,13.4,7.8,13.4,2.5,4.3,3.9,4.1,4.2-1.1.2-6.5-4.8-17.5-9.4-28.2" style="fill:#f0e7be;stroke:#1a1715;stroke-miterlimit:10"/><path class="rootCanal" d="M38.32,119.7c-1.6-9.7-9.4-20.4-11.2-29.1-.3-1.2-13.7,0-14,1-2.7,9.7-4.6,14.5-6.5,25.8-1,6.1-.1,15.9.8,13.7s-.5-6.4,1.3-12.7,2.9-11.2,6.9-17.3c2.1-3.2,9.5-3.5,11.5-.2,3.6,5.8,6.6,8.9,8.4,14.9C37.22,121.1,39.22,124.9,38.32,119.7Z" style="fill:#3535ed;stroke:#201600;stroke-miterlimit:10;stroke-width:0.25px"/><path class="implant" d="M13.22,124.5a1.9,1.9,0,0,0,1,1.6,15.23,15.23,0,0,0,12.2-.1,1.39,1.39,0,0,0,.7-.8l-14-2Zm-.1-2.9,14.3,2.1.1-2.5-14.4-2.1Zm-.1-4.1,14.5,2.1.1-2.5L12.92,115Zm-.2-3.9,14.8,2.1.1-2.5-14.9-2.1Zm-.1-4.1,15,2.3.1-2.5L12.62,107Zm-.2-4.1,15.3,2.3.1-2.5-15.6-2.3Zm-.2-5L28,102.7l.1-2.5-15.8-2.3Zm-.1-3,15.9,2.4.1-2.7-16,.1Zm-1.6-3a.94.94,0,0,0,1,1h1.1l15-.1h1.1a.91.91,0,0,0,.7-.3,1.85,1.85,0,0,0,.2-.7V92.4h-.4l-18.1.1h-.4ZM10,89.7a1.49,1.49,0,0,0,.4.9.6.6,0,0,0,.4.1l18.1-.1c.2,0,.3-.1.4-.1a1,1,0,0,0,.4-.9V88.4a.94.94,0,0,0-1-1h0l-18.1.1a1.08,1.08,0,0,0-1,1h0v1.2Z" style="fill:#3535ed"/><path class="rootMusk" d="M9.92,90.9c-3.2,12.1-5.5,23.7-5.3,33.1a15.51,15.51,0,0,0,1.1,5.6c.9,2.3,2,2.6,3.1.7a9.64,9.64,0,0,0,1-3l2.7-15.1a13.2,13.2,0,0,1,4.8-8.5,6.61,6.61,0,0,1,5.1-1.3,8.13,8.13,0,0,1,5,4c2.5,4.2,7.8,13.4,7.8,13.4,2.5,4.3,3.9,4.1,4.2-1.1.2-6.5-4.8-17.5-9.4-28.2" style="fill:#f0e7be;stroke:#1a1715;stroke-miterlimit:10"/><path class="coronaLingual" d="M7.52,27c-2.8-4-3.1-8.7-.4-14.1a11.52,11.52,0,0,1,4.3-4.7c7-4.2,12.9-4.9,17.8-2a8.83,8.83,0,0,1,2.6,2.5,17.78,17.78,0,0,1,1.8,15.9,3,3,0,0,1-.4.8c-2,3.1-5.6,3.9-10.1,3.3a9.14,9.14,0,0,0-7.6,0,6.56,6.56,0,0,1-4.6.6A6.69,6.69,0,0,1,7.52,27Z" style="fill:#fff;stroke:#1a1715;stroke-miterlimit:10;stroke-width:0.25px"/><path class="coronaLingualIncisalDistal" d="M6.22,24.5a14.92,14.92,0,0,0,1.4,2.4,5.1,5.1,0,0,0,3.5,2.2,7.56,7.56,0,0,0,3,0V24.5Z" style="fill:#3535ed"/><path class="coronaLingualIncisalMiddle" d="M14,24.5v4.6a5.23,5.23,0,0,0,1.6-.6c2.2-1.1,4.7-1.1,7.6,0a18,18,0,0,0,4.6.1V24.5Z" style="fill:#3535ed"/><path class="coronaLingualIncisionMesial" d="M27.82,24.5v4.1a7.37,7.37,0,0,0,5.5-3.4c.1-.2.3-.5.4-.7Z" style="fill:#3535ed"/><path class="coronaLingualMiddleDistal" d="M7,12.9c-2.1,4.3-2.3,8.2-.9,11.6H14V12.9Z" style="fill:#3535ed"/><path class="coronaLingualMiddleMiddle" d="M14,12.9h13.7V24.5H14Z" style="fill:#3535ed"/><path class="coronaLingualMiddleMesial" d="M33.82,12.9h-6.1V24.5h5.9A17.78,17.78,0,0,0,33.82,12.9Z" style="fill:#3535ed"/><path class="coronaLingualCervicalDistal" d="M11.42,8.1a10.82,10.82,0,0,0-4.3,4.7.1.1,0,0,1-.1.1h7V6.6C13.22,7.1,12.32,7.5,11.42,8.1Z" style="fill:#3535ed"/><path class="coronaLingualCervicalMiddle" d="M27.82,5.4c-4-1.7-8.5-1.3-13.7,1.3V13h13.7Z" style="fill:#3535ed"/><path class="coronaLingualCervicalMesial" d="M31.82,8.6a7,7,0,0,0-2.6-2.5,10.09,10.09,0,0,0-1.5-.7V13h6.1A15.77,15.77,0,0,0,31.82,8.6Z" style="fill:#3535ed"/><path class="coronaLabial" d="M23.92,68.5c4.1-1.6,7.6-1.3,10.4,1,2.8,3.4,2.9,8.3.5,14.5a19.23,19.23,0,0,1-6.9,9c-5.4,3.7-11.1,3.3-17.1-1a11.18,11.18,0,0,1-4-4.9,24.1,24.1,0,0,1-1.5-11.8,8.62,8.62,0,0,1,2.1-5.1c2.4-2.6,5.6-2.6,9.5-.7C18.82,71.1,21.22,70.4,23.92,68.5Z" style="fill:#fff;stroke:#1a1715;stroke-miterlimit:10;stroke-width:0.25px"/><path class="coronaLabialIncisalDistal" d="M7.42,70.2a9,9,0,0,0-2.1,4.4h8.3V68.3A6.28,6.28,0,0,0,7.42,70.2Z" style="fill:#3535ed"/><path class="coronaLabialIncisalMiddle" d="M23.92,68.5c-2.7,1.9-5.1,2.6-7,1a15.21,15.21,0,0,0-3.2-1.1v6.3H29V67.6A12,12,0,0,0,23.92,68.5Z" style="fill:#3535ed"/><path class="coronaLabialIncisionMesial" d="M34.32,69.5A8.59,8.59,0,0,0,29,67.6v7.1h7.4A9,9,0,0,0,34.32,69.5Z" style="fill:#3535ed"/><path class="coronaLabialMiddleDistal" d="M5.42,74.6c0,.2-.1.4-.1.7a26.12,26.12,0,0,0,1.3,11.3h7.1V74.7H5.42Z" style="fill:#3535ed"/><path class="coronaLabialMiddleMiddle" d="M13.72,74.6H29V86.5H13.72Z" style="fill:#3535ed"/><path class="coronaLabialMiddleMesial" d="M36.42,74.6H29V86.5h4.6c.4-.8.8-1.7,1.2-2.5A20,20,0,0,0,36.42,74.6Z" style="fill:#3535ed"/><path class="coronaLabialCervicalDistal" d="M6.62,86.5c.1.2.1.3.2.5a11.31,11.31,0,0,0,4,4.9,22.87,22.87,0,0,0,2.9,1.8V86.5Z" style="fill:#3535ed"/><path class="coronaLabialCervicalMiddle" d="M13.72,86.5v7.2c5,2.5,9.7,2.3,14.3-.8l1.1-.8V86.5Z" style="fill:#3535ed"/><path class="coronaLabialCervicalMesial" d="M33.62,86.5H29v5.6A16.68,16.68,0,0,0,33.62,86.5Z" style="fill:#3535ed"/><path class="veneer" d="M22.52,78.8l-1.6-1.2c-2.4-1.8-2.5-2.2-1.4-5l.7-1.9L19,72.3c-1.8,2.4-2.1,2.5-4.9,1.5l-1.9-.7,1.6,1.2c2.4,1.8,2.5,2.2,1.4,5l-.7,1.9,1.2-1.6c1.8-2.4,2.1-2.5,4.9-1.5Zm-1.2,10.5-1.6-1.2c-1.4-1.1-1.5-1.3-.9-3l.7-1.9-1.2,1.6c-1.1,1.5-1.3,1.5-2.9.9l-1.9-.7,1.6,1.2c1.4,1.1,1.5,1.3.9,3l-.6,1.8,1.2-1.6c1.1-1.5,1.2-1.5,2.9-.9Zm-7-4.6-1.6-1.2c-1.4-1.1-1.5-1.3-.9-3l.7-1.9-1.2,1.6c-1.1,1.4-1.3,1.5-2.9.9l-1.9-.7,1.6,1.2c1.4,1.1,1.5,1.3.9,3l-.7,1.9,1.2-1.6c1.1-1.5,1.2-1.5,2.9-.9Zm17.8-5.6-1.6-1.2c-1.4-1.1-1.5-1.3-.9-3l.7-1.9-1.1,1.6c-1.1,1.5-1.2,1.5-2.9.9l-1.9-.7L26,76c1.4,1.1,1.5,1.3.9,3l-.7,1.9,1.2-1.6c1.1-1.5,1.2-1.5,3-.9Zm3.1,7.4-1.6-1.2c-1.4-1.1-1.5-1.3-.9-3l.7-1.9L32.22,82c-1.1,1.5-1.3,1.5-2.9.9l-1.9-.7L29,83.4c1.4,1.1,1.5,1.3.9,3l-.6,1.8,1.2-1.6c1.1-1.5,1.2-1.5,2.9-.9Z" style="fill:#3535ed"/><path class="coronaTop" d="M18.12,52l-5.2,5.7A13.56,13.56,0,0,0,32,56.9l-5.7-5.2A5.92,5.92,0,0,1,18.12,52Zm8.1-.4,5.7,5.2a13.56,13.56,0,0,0-.8-19.1l-5.2,5.7a5.83,5.83,0,0,1,.3,8.2Zm-.3-8.2,5.2-5.7a13.56,13.56,0,0,0-19.1.8l5.7,5.2A5.93,5.93,0,0,1,25.92,43.4ZM18.12,52a5.83,5.83,0,0,1-.4-8.2L12,38.6a13.56,13.56,0,0,0,.8,19.1ZM17,44.8a5.76,5.76,0,0,1,7.9-2.1A5.78,5.78,0,1,1,17,44.8Z" style="fill:#fff;stroke:#000;stroke-miterlimit:10"/><path class="coronaTopBuccal" d="M18.12,52l-5.2,5.7A13.56,13.56,0,0,0,32,56.9l-5.7-5.2A5.92,5.92,0,0,1,18.12,52Z" style="fill:#3535ed"/><path class="coronaTopMedial" d="M26.22,51.6l5.7,5.2a13.56,13.56,0,0,0-.8-19.1l-5.2,5.7a5.83,5.83,0,0,1,.3,8.2Z" style="fill:#3535ed"/><path class="coronaTopLingual" d="M25.92,43.4l5.2-5.7a13.56,13.56,0,0,0-19.1.8l5.7,5.2A5.93,5.93,0,0,1,25.92,43.4Z" style="fill:#3535ed"/><path class="coronaTopDistal" d="M18.12,52a5.83,5.83,0,0,1-.4-8.2L12,38.6a13.56,13.56,0,0,0,.8,19.1Z" style="fill:#3535ed"/><path class="coronaTopOclusial" d="M17,44.8a5.76,5.76,0,0,1,7.9-2.1A5.78,5.78,0,1,1,17,44.8Z" style="fill:#3535ed"/><path class="silant" d="M14,55.9a19,19,0,0,0,6.9,1.2c5.8,0,9.2-2.2,9.2-5.4,0-2.7-2.2-4.2-6.4-5.4-3.2-.9-4.7-1.6-4.7-3.1,0-1.3,1.5-2.5,4.1-2.5a13.11,13.11,0,0,1,5,1l1.1-2.4a15.66,15.66,0,0,0-6-1.1c-5.3,0-8.4,2.4-8.4,5.3,0,2.2,2.1,4,6.5,5.1,3.3.9,4.5,1.8,4.5,3.3s-1.5,2.7-4.8,2.7a16.09,16.09,0,0,1-5.9-1.3Z" style="fill:#3535ed"/><path class="crown" d="M18.12,52l-5.2,5.7A13.56,13.56,0,0,0,32,56.9l-5.7-5.2A5.92,5.92,0,0,1,18.12,52Zm8.1-.4,5.7,5.2a13.56,13.56,0,0,0-.8-19.1l-5.2,5.7a5.83,5.83,0,0,1,.3,8.2Zm-.3-8.2,5.2-5.7a13.56,13.56,0,0,0-19.1.8l5.7,5.2A5.93,5.93,0,0,1,25.92,43.4ZM18.12,52a5.83,5.83,0,0,1-.4-8.2L12,38.6a13.56,13.56,0,0,0,.8,19.1ZM17,44.8a5.76,5.76,0,0,1,7.9-2.1A5.78,5.78,0,1,1,17,44.8ZM7.52,27c-2.8-4-3.1-8.7-.4-14.1a11.52,11.52,0,0,1,4.3-4.7c7-4.2,12.9-4.9,17.8-2a8.83,8.83,0,0,1,2.6,2.5,17.78,17.78,0,0,1,1.8,15.9,3,3,0,0,1-.4.8c-2,3.1-5.6,3.9-10.1,3.3a9.14,9.14,0,0,0-7.6,0,6.56,6.56,0,0,1-4.6.6A6.69,6.69,0,0,1,7.52,27Zm16.4,41.5c4.1-1.6,7.6-1.3,10.4,1,2.8,3.4,2.9,8.3.5,14.5a19.23,19.23,0,0,1-6.9,9c-5.4,3.7-11.1,3.3-17.1-1a11.18,11.18,0,0,1-4-4.9,24.1,24.1,0,0,1-1.5-11.8,8.62,8.62,0,0,1,2.1-5.1c2.4-2.6,5.6-2.6,9.5-.7C18.82,71.1,21.22,70.4,23.92,68.5Z" style="fill:#fff;stroke:#000;stroke-miterlimit:10"/><path class="braces" d="M20.42,76.8a2,2,0,0,0,1.1.2h1.2a3.55,3.55,0,0,0,1-.2h0v2.7a3.55,3.55,0,0,0-1-.2h-1.2a4.25,4.25,0,0,0-1.1.2V76.8h0M25,72.9h-1.1c-.4.1-.7.4-.6.8v.5a.77.77,0,0,1-.7.8h-1.1a.64.64,0,0,1-.6-.8v-.5a.76.76,0,0,0-.6-.8H19a.77.77,0,0,0-.7.8v3.8H0v1.3h18.4v3.8a.77.77,0,0,0,.7.8h1.1c.4-.1.7-.4.6-.8v-.5c0-.4.3-.8.6-.8h1.2a.64.64,0,0,1,.6.8v.5a.76.76,0,0,0,.6.8h1.1a.64.64,0,0,0,.6-.8V78.8H44V77.5H25.62V73.7c0-.4-.3-.8-.6-.8Z"/><path class="gum" d="M44,88.1l-9.9.1c-1.1-.1-4,7.3-14.2,7.3-7.2,0-12.8-7.7-12.8-7.7L0,87.7" style="fill:none;stroke:#ffb900;stroke-linejoin:round;stroke-width:3px"/><path class="paradontit1" d="M44,88.1h-4.2c-1.9,0-6.2-.6-9,5.1-5.1,10.3-15.9,7.3-18.4,1.7-1.9-4.2-6.6-7-12.4-7" style="fill:none;stroke:#ff822e;stroke-linejoin:round;stroke-width:3px"/><path class="paradontit2" d="M44,88.4l-6.1-.1c-2.3,0-4.1,3-5.2,4.5-2.2,3-4.8,10.9-11.6,10.9s-9.1-8-11.2-10.8c-1.1-1.5-4-4.8-6.3-4.8H0" style="fill:none;stroke:#f9610d;stroke-linejoin:round;stroke-width:3px"/><path class="paradontit3" d="M44,88.2l-3.6-.1c-2.3,0-5.3-.9-6.4.6-2.2,3-3.6,17.1-13.1,17.1S10,92.7,8,89.9c-1.1-1.5-3.1-2-5.4-2H0" style="fill:none;stroke:#f9610d;stroke-linejoin:round;stroke-width:3px"/><path class="paradontit4" d="M44,88.2h-6.2c-3,0-5.4,1.7-6,3.8-1.6,6-5.1,20.8-11.9,20.8s-9.8-15.2-12-21.1a6.26,6.26,0,0,0-5.8-3.9h-2" style="fill:none;stroke:#f75403;stroke-linejoin:round;stroke-width:3px"/><path class="periodontit" d="M38.42,121.9a4.5,4.5,0,1,1-4.5,4.5A4.48,4.48,0,0,1,38.42,121.9ZM2.92,135a4.5,4.5,0,1,0,4.5-4.5A4.48,4.48,0,0,0,2.92,135Z" style="fill:#3535ed"/></g></g></g></svg>