<svg xmlns="http://www.w3.org/2000/svg" viewBox="0 0 47.02 143.5"><title>85tooth</title><g class="Слой_2" data-name="Слой 2"><g class="Слой_1-2" data-name="Слой 1"><g class="_85" data-name="85"><path class="background" d="M0,0H47V143.5H0Z" style="fill:#9fdaff"/><path class="bone" d="M47,88.4H0v55.1H47Z" style="fill:#de82a7"/><path class="bridge" d="M47,74.9H0v-4H47Zm0-54H0v4H47Zm0,25H0v4H47Z" style="fill:#3535ed"/><path class="root" d="M33.9,91.2a61.93,61.93,0,0,1,4.9,32.4,8,8,0,0,1-1.1,3.4c-1.2,1.9-2.4,1.8-3.5-.3a7.91,7.91,0,0,1-1-3.4c-1-8-3-14.8-6.9-19-3-3.8-6.4-4.1-10.4.8-3.4,5.1-5.7,12.5-7.4,21.3a7.57,7.57,0,0,1-2,4.1c-1.7,1.7-2.7.8-2.9-3.1,0-13.5,2.5-25.3,8-34.8l1.8-2.5" style="fill:#f0e7be;stroke:#1a1715;stroke-miterlimit:10"/><path class="rootCanal" d="M37.3,118c-1.6-9.7-6.1-18.4-7.9-27-.3-1.2-14-1.2-14.2-.3-2.7,9.7-6.1,10.5-8,21.8a138.82,138.82,0,0,0-1.1,18.7c0,.3.9-9.8,2.6-16.1s3.9-9.8,8-15.9c2.1-3.2,7.4-1.9,9.4,1.4,3.6,5.8,7.3,12.1,9.2,18.1,1.7,5.4-.2,9.7,0,9.9s1.3-1.2,1.3-1.5A18.07,18.07,0,0,0,37.3,118Z" style="fill:#3535ed;stroke:#201600;stroke-miterlimit:10;stroke-width:0.25px"/><path class="implant" d="M16.2,124.5a1.9,1.9,0,0,0,1,1.6,15.23,15.23,0,0,0,12.2-.1,1.39,1.39,0,0,0,.7-.8l-14-2Zm-.1-3,14.3,2,.1-2.4-14.4-2.2Zm-.1-3.9,14.5,2.2.1-2.5-14.7-2.2Zm-.2-4.1,14.8,2.2.1-2.4-14.9-2.2Zm-.1-4,15,2.2.1-2.4L15.6,107Zm-.2-4.1,15.3,2.3.1-2.5-15.6-2.3Zm-.2-5.1L31,102.6l.1-2.4L15.3,97.9Zm-.1-2.9,15.9,2.3.1-2.6-16,.1Zm-1.6-3a1.07,1.07,0,0,0,.2.6.91.91,0,0,0,.7.3h1.1l15-.1h1.1a.91.91,0,0,0,.7-.3,1.07,1.07,0,0,0,.2-.6V92.4h-.4l-18.1.1h-.4ZM13,89.7a1.49,1.49,0,0,0,.4.9.6.6,0,0,0,.4.1l18.1-.1c.2,0,.3,0,.4-.1a1,1,0,0,0,.4-.9V88.4a.94.94,0,0,0-1-1h0l-18.1.1a1.08,1.08,0,0,0-1,1v1.2Z" style="fill:#3535ed"/><path class="rootMusk" d="M33.9,91.2a61.93,61.93,0,0,1,4.9,32.4,8,8,0,0,1-1.1,3.4c-1.2,1.9-2.4,1.8-3.5-.3a7.91,7.91,0,0,1-1-3.4c-1-8-3-14.8-6.9-19-3-3.8-6.4-4.1-10.4.8-3.4,5.1-5.7,12.5-7.4,21.3a7.57,7.57,0,0,1-2,4.1c-1.7,1.7-2.7.8-2.9-3.1,0-13.5,2.5-25.3,8-34.8l1.8-2.5" style="fill:#f0e7be;stroke:#1a1715;stroke-miterlimit:10"/><path class="coronaLingual" d="M33.5,29.2a7.7,7.7,0,0,1-5-.6,10.56,10.56,0,0,0-8.2,0c-4.9.6-8.8-.2-11-3.3a2,2,0,0,1-.4-.8,16.71,16.71,0,0,1,2-15.9,7.55,7.55,0,0,1,2.8-2.5C19,3.2,25.5,3.8,33,8.1a12.48,12.48,0,0,1,4.7,4.7c2.9,5.5,2.6,10.1-.5,14.1A6.05,6.05,0,0,1,33.5,29.2Z" style="fill:#fff;stroke:#1a1715;stroke-miterlimit:10;stroke-width:0.25px"/><path class="coronaLingualIncisalDistal" d="M15.3,24.5v4.1a8.36,8.36,0,0,1-6-3.4,2.51,2.51,0,0,1-.4-.7Z" style="fill:#3535ed"/><path class="coronaLingualIncisalMiddle" d="M30.1,24.5v4.6a5.78,5.78,0,0,1-1.7-.6,10.56,10.56,0,0,0-8.2,0,21.19,21.19,0,0,1-5,.1V24.5Z" style="fill:#3535ed"/><path class="coronaLingualIncisionMesial" d="M38.6,24.5a15.76,15.76,0,0,1-1.5,2.4,5.52,5.52,0,0,1-3.7,2.2,9.15,9.15,0,0,1-3.3,0V24.5Z" style="fill:#3535ed"/><path class="coronaLingualMiddleDistal" d="M8.7,12.9h6.6V24.5H8.9A16.58,16.58,0,0,1,8.7,12.9Z" style="fill:#3535ed"/><path class="coronaLingualMiddleMiddle" d="M15.3,12.9H30.1V24.5H15.3Z" style="fill:#3535ed"/><path class="coronaLingualMiddleMesial" d="M37.7,12.9c2.3,4.3,2.5,8.2.9,11.6H30.1V12.9Z" style="fill:#3535ed"/><path class="coronaLingualCervicalDistal" d="M10.9,8.6a7.55,7.55,0,0,1,2.8-2.5,11.11,11.11,0,0,1,1.6-.7V13H8.7A16.48,16.48,0,0,1,10.9,8.6Z" style="fill:#3535ed"/><path class="coronaLingualCervicalMiddle" d="M15.3,5.4c4.3-1.7,9.2-1.3,14.8,1.3V13H15.3Z" style="fill:#3535ed"/><path class="coronaLingualCervicalMesial" d="M33,8.1a12.48,12.48,0,0,1,4.7,4.7.1.1,0,0,0,.1.1H30.2V6.6C31,7.1,32,7.5,33,8.1Z" style="fill:#3535ed"/><path class="coronaLabial" d="M28.1,69.5c4.1-1.9,7.6-1.8,10.2.7a8.27,8.27,0,0,1,2.3,5.1A23,23,0,0,1,39,87.1,11.31,11.31,0,0,1,34.7,92c-6.5,4.3-12.7,4.7-18.5,1a19.64,19.64,0,0,1-7.4-9c-2.6-6.2-2.5-11.1.6-14.5,3.1-2.3,6.8-2.6,11.3-1C23.4,70.4,26,71.1,28.1,69.5Z" style="fill:#fff;stroke:#000;stroke-miterlimit:10"/><path class="coronaLabialIncisalDistal" d="M9.2,69.5a9.75,9.75,0,0,1,5.7-1.9v7.1h-8A9.21,9.21,0,0,1,9.2,69.5Z" style="fill:#3535ed"/><path class="coronaLabialIncisalMiddle" d="M20.5,68.5c2.9,1.9,5.5,2.6,7.6,1a19,19,0,0,1,3.4-1.1v6.3H14.9V67.6A14.54,14.54,0,0,1,20.5,68.5Z" style="fill:#3535ed"/><path class="coronaLabialIncisionMesial" d="M38.3,70.2a8.38,8.38,0,0,1,2.2,4.4h-9V68.3A7.36,7.36,0,0,1,38.3,70.2Z" style="fill:#3535ed"/><path class="coronaLabialMiddleDistal" d="M6.9,74.6h8V86.5h-5c-.5-.8-.9-1.7-1.3-2.5A19,19,0,0,1,6.9,74.6Z" style="fill:#3535ed"/><path class="coronaLabialMiddleMiddle" d="M14.9,74.6H31.5V86.5H14.9Z" style="fill:#3535ed"/><path class="coronaLabialMiddleMesial" d="M40.5,74.6c0,.2.1.4.1.7a23.41,23.41,0,0,1-1.4,11.3H31.5V74.7h9Z" style="fill:#3535ed"/><path class="coronaLabialCervicalDistal" d="M9.9,86.5h5v5.6A19.19,19.19,0,0,1,9.9,86.5Z" style="fill:#3535ed"/><path class="coronaLabialCervicalMiddle" d="M31.5,86.5v7.2C26.1,96.2,21,96,16.1,92.9c-.4-.3-.8-.5-1.2-.8V86.5Z" style="fill:#3535ed"/><path class="coronaLabialCervicalMesial" d="M39.2,86.5c-.1.2-.1.3-.2.5a11.31,11.31,0,0,1-4.3,4.9,34.87,34.87,0,0,1-3.1,1.8V86.5Z" style="fill:#3535ed"/><path class="veneer" d="M25.4,78.1l-1.6-1.2c-2.4-1.8-2.5-2.1-1.4-4.9l.7-1.9-1.2,1.6c-1.8,2.4-2.1,2.5-4.9,1.4l-1.9-.7,1.6,1.2c2.4,1.8,2.5,2.1,1.4,4.9l-.7,1.9,1.2-1.6c1.8-2.4,2.1-2.5,4.9-1.4ZM24.2,88.6l-1.6-1.2c-1.4-1.1-1.5-1.3-.9-3l.7-1.9-1.2,1.6c-1.1,1.4-1.3,1.5-2.9.9l-1.9-.7L18,85.5c1.4,1.1,1.5,1.3.9,3l-.7,1.9,1.2-1.6c1.1-1.4,1.3-1.5,3-.9ZM17.3,84l-1.6-1.2c-1.4-1.1-1.5-1.3-.9-3l.7-1.9-1.2,1.6c-1.1,1.4-1.3,1.5-2.9.9l-1.9-.7,1.6,1.2c1.4,1.1,1.5,1.3.9,3l-.7,1.9,1.2-1.6c1.1-1.4,1.3-1.5,2.9-.9Zm17.8-5.6-1.6-1.2c-1.4-1.1-1.5-1.3-.9-3l.7-1.9-1.1,1.6c-1.1,1.4-1.3,1.5-2.9.9l-1.9-.7L29,75.3c1.4,1.1,1.5,1.3.9,3l-.7,1.9,1.2-1.6c1.1-1.4,1.2-1.5,2.9-.9Zm3.1,7.4-1.6-1.2c-1.4-1.1-1.5-1.2-.9-3l.7-1.9-1.2,1.6c-1.1,1.4-1.3,1.5-2.9.9l-1.9-.7L32,82.7c1.4,1.1,1.5,1.2.9,3l-.7,1.9L33.4,86c1.1-1.4,1.3-1.5,2.9-.9Z" style="fill:#3535ed"/><path class="coronaTop" d="M19.5,51.5l-5.2,5.7a13.56,13.56,0,0,0,19.1-.8h0l-5.7-5.2A5.92,5.92,0,0,1,19.5,51.5Zm8.2-.4,5.7,5.2a13.56,13.56,0,0,0-.8-19.1l-5.2,5.6a6,6,0,0,1,.3,8.3Zm-.3-8.2,5.2-5.7a13.56,13.56,0,0,0-19.1.8l5.7,5.2A5.83,5.83,0,0,1,27.4,42.9Zm-7.9,8.6a5.83,5.83,0,0,1-.4-8.2l-5.7-5.2a13.56,13.56,0,0,0,.8,19.1Zm-.9-7.2a5.78,5.78,0,1,1,2.1,7.9A5.76,5.76,0,0,1,18.6,44.3Z" style="fill:#fff;stroke:#000;stroke-miterlimit:10"/><path class="coronaTopBuccal" d="M19.5,51.5l-5.2,5.7a13.56,13.56,0,0,0,19.1-.8h0l-5.7-5.2A5.92,5.92,0,0,1,19.5,51.5Z" style="fill:#3535ed"/><path class="coronaTopMedial" d="M27.7,51.1l5.7,5.2a13.56,13.56,0,0,0-.8-19.1l-5.2,5.6a6,6,0,0,1,.3,8.3Z" style="fill:#3535ed"/><path class="coronaTopLingual" d="M27.4,42.9l5.2-5.7a13.56,13.56,0,0,0-19.1.8l5.7,5.2A5.83,5.83,0,0,1,27.4,42.9Z" style="fill:#3535ed"/><path class="coronaTopDistal" d="M19.5,51.5a5.83,5.83,0,0,1-.4-8.2l-5.7-5.2a13.56,13.56,0,0,0,.8,19.1Z" style="fill:#3535ed"/><path class="coronaTopOclusial" d="M18.5,44.2a5.78,5.78,0,1,1,2.1,7.9A5.83,5.83,0,0,1,18.5,44.2Z" style="fill:#3535ed"/><path class="silant" d="M15.5,55.3a19,19,0,0,0,6.9,1.2c5.8,0,9.2-2.2,9.2-5.4,0-2.7-2.2-4.2-6.4-5.4-3.2-.9-4.7-1.6-4.7-3.1,0-1.3,1.5-2.5,4.1-2.5a13.11,13.11,0,0,1,5,1l1.1-2.4a15.66,15.66,0,0,0-6-1.1c-5.3,0-8.4,2.4-8.4,5.3,0,2.2,2.1,4,6.5,5.1,3.3.9,4.5,1.8,4.5,3.3S25.8,54,22.5,54a16.09,16.09,0,0,1-5.9-1.3Z" style="fill:#3535ed"/><path class="crown" d="M19.5,51.5l-5.2,5.7a13.56,13.56,0,0,0,19.1-.8h0l-5.7-5.2A5.92,5.92,0,0,1,19.5,51.5Zm8.2-.4,5.7,5.2a13.56,13.56,0,0,0-.8-19.1l-5.2,5.6a6,6,0,0,1,.3,8.3Zm-.3-8.2,5.2-5.7a13.56,13.56,0,0,0-19.1.8l5.7,5.2A5.83,5.83,0,0,1,27.4,42.9Zm-7.9,8.6a5.83,5.83,0,0,1-.4-8.2l-5.7-5.2a13.56,13.56,0,0,0,.8,19.1Zm-.9-7.2a5.78,5.78,0,1,1,2.1,7.9A5.76,5.76,0,0,1,18.6,44.3Zm9.5,25.2c4.1-1.9,7.6-1.8,10.2.7a8.27,8.27,0,0,1,2.3,5.1A23,23,0,0,1,39,87.1,11.31,11.31,0,0,1,34.7,92c-6.5,4.3-12.7,4.7-18.5,1a19.64,19.64,0,0,1-7.4-9c-2.6-6.2-2.5-11.1.6-14.5,3.1-2.3,6.8-2.6,11.3-1C23.4,70.4,26,71.1,28.1,69.5Zm5.3-40.3a7.7,7.7,0,0,1-5-.6,10.56,10.56,0,0,0-8.2,0c-4.9.6-8.8-.2-11-3.3a2,2,0,0,1-.4-.8,16.71,16.71,0,0,1,2-15.9,7.55,7.55,0,0,1,2.8-2.5c5.3-2.9,11.8-2.3,19.3,2a12.48,12.48,0,0,1,4.7,4.7c2.9,5.5,2.6,10.1-.5,14.1A5.79,5.79,0,0,1,33.4,29.2Z" style="fill:#fff;stroke:#000;stroke-miterlimit:10"/><path class="braces" d="M21.9,76.8A2,2,0,0,0,23,77h1.2a3.55,3.55,0,0,0,1-.2h0v2.7a3.55,3.55,0,0,0-1-.2H23a4.25,4.25,0,0,0-1.1.2V76.8h0m4.6-3.9H25.4c-.4.1-.7.4-.6.8v.5a.77.77,0,0,1-.7.8H23a.64.64,0,0,1-.6-.8v-.5a.76.76,0,0,0-.6-.8H20.7a.77.77,0,0,0-.7.8v3.8H0v1.3H19.9v3.8a.77.77,0,0,0,.7.8h1.1c.4-.1.7-.4.6-.8v-.5c0-.4.3-.8.6-.8h1.2a.64.64,0,0,1,.6.8v.5a.76.76,0,0,0,.6.8h1.1a.64.64,0,0,0,.6-.8V78.8H46.8V77.5H27.1V73.7c0-.4-.3-.8-.6-.8Z"/><path class="gum" d="M47,87.8H41.1c-2.5,0-6.5,8.1-17.3,8.1-7.3,0-14.3-8.1-14.3-8.1S7.3,88,0,88" style="fill:none;stroke:#ffb900;stroke-linejoin:round;stroke-width:3px"/><path class="paradontit1" d="M47,87.8l-7-.1c-1.1,0-5.4,11.6-15.6,11.6C10.7,99.3,9,88,6.9,88H0" style="fill:none;stroke:#ff822e;stroke-linejoin:round;stroke-width:3px"/><path class="paradontit2" d="M47,87.8H41.8c-2.2,0-1.3-.3-2.5.9C36.7,91.3,34.4,103,24.2,103S11.9,92,9.7,89.4C8.5,88,9.3,88,7,88H0" style="fill:none;stroke:#f9610d;stroke-linejoin:round;stroke-width:3px"/><path class="paradontit3" d="M47,87.8H41.8c-2.2,0-1.3-.3-2.5.9-2.6,2.6-3.5,18-15.1,19S12.1,91.6,9.9,89c-1.2-1.4-.6-1-2.9-1H0" style="fill:none;stroke:#f9610d;stroke-linejoin:round;stroke-width:3px"/><path class="paradontit4" d="M47,87.8H43.5A7,7,0,0,0,37.1,92c-2.3,6.6-4.6,20.5-13.3,20.5s-10.2-13.7-12-20.4C11.2,90,8.6,88,5.6,88H.1" style="fill:none;stroke:#f75403;stroke-linejoin:round;stroke-width:3px"/><path class="periodontit" d="M34.6,127.8a4.5,4.5,0,1,1-4.5,4.5A4.55,4.55,0,0,1,34.6,127.8ZM2.9,134.3a4.5,4.5,0,1,0,4.5-4.5A4.55,4.55,0,0,0,2.9,134.3Z" style="fill:#3535ed"/></g></g></g></svg>